%FSLAX25Y25*%
%MOIN*%
G70*
G01*
G75*
G04 Layer_Physical_Order=1*
G04 Layer_Color=255*
%ADD10C,0.00700*%
%ADD11R,0.06299X0.02992*%
%ADD12R,0.07087X0.05512*%
%ADD13R,0.13386X0.07087*%
%ADD14R,0.01181X0.03347*%
%ADD15R,0.03937X0.03937*%
%ADD16R,0.02992X0.09449*%
%ADD17R,0.03937X0.04331*%
%ADD18R,0.05906X0.05118*%
%ADD19R,0.02362X0.01969*%
%ADD20O,0.07087X0.01181*%
%ADD21O,0.01181X0.07087*%
%ADD22R,0.04331X0.03937*%
G04:AMPARAMS|DCode=23|XSize=39.37mil|YSize=43.31mil|CornerRadius=0mil|HoleSize=0mil|Usage=FLASHONLY|Rotation=150.000|XOffset=0mil|YOffset=0mil|HoleType=Round|Shape=Rectangle|*
%AMROTATEDRECTD23*
4,1,4,0.02788,0.00891,0.00622,-0.02860,-0.02788,-0.00891,-0.00622,0.02860,0.02788,0.00891,0.0*
%
%ADD23ROTATEDRECTD23*%

%ADD24R,0.05118X0.05906*%
%ADD25R,0.02362X0.03543*%
%ADD26R,0.02559X0.02953*%
%ADD27R,0.02953X0.02559*%
%ADD28R,0.03937X0.03347*%
%ADD29R,0.03937X0.03347*%
%ADD30R,0.03347X0.03937*%
%ADD31R,0.03347X0.03937*%
%ADD32C,0.01000*%
%ADD33C,0.02000*%
%ADD34C,0.00600*%
%ADD35C,0.20000*%
%ADD36C,0.03937*%
%ADD37C,0.06000*%
%ADD38C,0.02598*%
%ADD39C,0.02000*%
G36*
X64567Y-69291D02*
X61811Y-72047D01*
X53937D01*
Y-65748D01*
X57087D01*
X58661Y-64173D01*
X64567D01*
Y-69291D01*
D02*
G37*
G36*
Y-57874D02*
X53937D01*
X53150Y-58661D01*
Y-62992D01*
X50000D01*
Y-57480D01*
X52756Y-54724D01*
Y-42913D01*
X64567D01*
Y-57874D01*
D02*
G37*
G36*
X53098Y-96063D02*
X50098D01*
Y-74563D01*
X53098D01*
Y-96063D01*
D02*
G37*
G36*
X45098Y-83063D02*
X40098D01*
Y-65563D01*
X45098D01*
Y-83063D01*
D02*
G37*
G36*
X28000Y-36000D02*
X30095D01*
X32000Y-37905D01*
Y-42000D01*
X29000D01*
Y-38500D01*
X25000D01*
Y-42000D01*
X22500D01*
Y-36000D01*
X23000Y-35500D01*
Y-32000D01*
X24000D01*
X28000Y-36000D01*
D02*
G37*
G36*
X-52362Y28740D02*
X-68504D01*
Y35433D01*
X-52362D01*
Y28740D01*
D02*
G37*
G36*
X-3106Y42476D02*
X-1500Y40870D01*
X394D01*
X894Y41370D01*
Y44870D01*
X3394D01*
Y38870D01*
X-1862D01*
X-5606Y42614D01*
Y45370D01*
X-3106D01*
Y42476D01*
D02*
G37*
G36*
X-35000Y-2500D02*
X-38000D01*
X-39000Y-1500D01*
Y5488D01*
X-37988Y6500D01*
X-35000D01*
Y-2500D01*
D02*
G37*
G36*
X45000Y2000D02*
X40000D01*
X36500Y5500D01*
Y6500D01*
X39500Y9500D01*
X45000D01*
Y2000D01*
D02*
G37*
D10*
X69020Y73565D02*
G03*
X71516Y79592I-6027J6027D01*
G01*
X73905Y41735D02*
G03*
X73255Y44160I-4850J0D01*
G01*
X69014Y73559D02*
G03*
X71516Y79592I-6022J6033D01*
G01*
X68405Y50395D02*
G03*
X67822Y52570I-4350J0D01*
G01*
X73255Y44160D02*
G03*
X64855Y39310I-4200J-2425D01*
G01*
X71405Y37492D02*
G03*
X73905Y41735I-2350J4243D01*
G01*
X70715Y28415D02*
G03*
X71405Y30079I-1660J1664D01*
G01*
X70717Y28417D02*
G03*
X71405Y30079I-1662J1662D01*
G01*
X64855Y39310D02*
G03*
X66705Y37492I4200J2425D01*
G01*
X92704Y21457D02*
G03*
X88850Y23262I-2350J0D01*
G01*
Y19651D02*
G03*
X92704Y21457I1504J1805D01*
G01*
X63905Y59055D02*
G03*
X63255Y61480I-4850J0D01*
G01*
X64111Y95770D02*
G03*
X54458Y83113I-1119J-9156D01*
G01*
X54855Y56630D02*
G03*
X63905Y59055I4200J2425D01*
G01*
X67822Y52570D02*
G03*
X60288Y48220I-3767J-2175D01*
G01*
D02*
G03*
X68405Y50395I3767J2175D01*
G01*
X63255Y61480D02*
G03*
X59351Y63896I-4200J-2425D01*
G01*
X54214Y58759D02*
G03*
X54855Y56630I4841J296D01*
G01*
X57265Y22035D02*
G03*
X57881Y23622I-1733J1587D01*
G01*
D02*
G03*
X53682Y25072I-2350J0D01*
G01*
X50408Y26941D02*
G03*
X52063Y29528I-1196J2587D01*
G01*
D02*
G03*
X47600Y31878I-2850J0D01*
G01*
X73634Y10274D02*
G03*
X78834Y8661I2350J-1612D01*
G01*
D02*
G03*
X78334Y10274I-2850J0D01*
G01*
X75398Y-512D02*
G03*
X75488Y197I-2760J709D01*
G01*
D02*
G03*
X69877Y-512I-2850J0D01*
G01*
X64555Y-7480D02*
G03*
X64155Y-6169I-2350J0D01*
G01*
X107181Y-13780D02*
G03*
X101981Y-15392I-2850J0D01*
G01*
X106681D02*
G03*
X107181Y-13780I-2350J1612D01*
G01*
X75325Y-24455D02*
G03*
X77653Y-21654I-521J2802D01*
G01*
D02*
G03*
X72001Y-21132I-2850J0D01*
G01*
X65055Y10630D02*
G03*
X59355Y10630I-2850J0D01*
G01*
X65055D02*
G03*
X59355Y10630I-2850J0D01*
G01*
X58593Y17335D02*
G03*
X62717Y15180I2824J381D01*
G01*
X53708Y6427D02*
G03*
X57165Y8500I1107J2073D01*
G01*
D02*
G03*
X53708Y10573I-2350J0D01*
G01*
X57165Y2500D02*
G03*
X53708Y4573I-2350J0D01*
G01*
Y427D02*
G03*
X57165Y2500I1107J2073D01*
G01*
Y-4000D02*
G03*
X53708Y-1927I-2350J0D01*
G01*
X60255Y-6169D02*
G03*
X59855Y-7492I1950J-1311D01*
G01*
X53708Y-6073D02*
G03*
X57165Y-4000I1107J2073D01*
G01*
X26241Y131102D02*
G03*
X23739Y137135I-8524J0D01*
G01*
X26241Y131102D02*
G03*
X23744Y137130I-8524J0D01*
G01*
X9193Y56097D02*
G03*
X7772Y52728I650J-2258D01*
G01*
X4435Y55232D02*
G03*
X4712Y56339I-2073J1107D01*
G01*
X32437Y32677D02*
G03*
X32146Y34922I-8815J0D01*
G01*
X24361Y15367D02*
G03*
X24538Y14764I2410J381D01*
G01*
D02*
G03*
X24538Y12795I2233J-984D01*
G01*
X8858Y24538D02*
G03*
X9224Y24411I984J2233D01*
G01*
X6890Y24538D02*
G03*
X8858Y24538I984J2233D01*
G01*
X9224Y24411D02*
G03*
X19069Y18061I8493J2361D01*
G01*
X6287Y24361D02*
G03*
X6890Y24538I-381J2410D01*
G01*
X5599Y18023D02*
G03*
X6287Y19685I-1662J1662D01*
G01*
X5597Y18022D02*
G03*
X6287Y19685I-1660J1664D01*
G01*
X11850Y181102D02*
G03*
X11850Y181102I-11850J0D01*
G01*
X8520Y152354D02*
G03*
X-3535Y140299I-8520J-3535D01*
G01*
X4712Y56339D02*
G03*
X289Y55232I-2350J0D01*
G01*
X-7492Y57087D02*
G03*
X-11561Y55484I-2350J0D01*
G01*
X-8124D02*
G03*
X-7492Y57087I-1719J1603D01*
G01*
X-2033Y55232D02*
G03*
X-1756Y56339I-2073J1107D01*
G01*
X-2296Y22727D02*
G03*
X1587Y21495I2296J501D01*
G01*
X-1756Y56339D02*
G03*
X-6179Y55232I-2350J0D01*
G01*
X8502Y13177D02*
G03*
X8502Y8477I-1612J-2350D01*
G01*
X-4160Y14911D02*
G03*
X-4850Y13248I1660J-1664D01*
G01*
X-12375Y45846D02*
G03*
X-12664Y46378I-2192J-846D01*
G01*
X-4162Y14910D02*
G03*
X-4850Y13248I1662J-1662D01*
G01*
X-6693Y19304D02*
G03*
X-5029Y19994I0J2350D01*
G01*
X-6693Y19304D02*
G03*
X-5031Y19992I0J2350D01*
G01*
X37337Y-5660D02*
G03*
X39000Y-6350I1664J1660D01*
G01*
X34910Y-4921D02*
G03*
X35118Y-3937I-2233J984D01*
G01*
D02*
G03*
X35052Y-3376I-2441J0D01*
G01*
X35118Y-5906D02*
G03*
X34910Y-4921I-2441J0D01*
G01*
X37338Y-5662D02*
G03*
X39000Y-6350I1662J1662D01*
G01*
X35118Y-9843D02*
G03*
X34910Y-8858I-2441J0D01*
G01*
X24538Y10827D02*
G03*
X24538Y8858I2233J-984D01*
G01*
Y12795D02*
G03*
X24538Y10827I2233J-984D01*
G01*
X24879Y2396D02*
G03*
X24879Y1541I1893J-428D01*
G01*
X24538Y8858D02*
G03*
X24387Y7356I2233J-984D01*
G01*
X24387Y4456D02*
G03*
X24879Y2396I2385J-519D01*
G01*
X24879Y1541D02*
G03*
X24538Y-984I1893J-1541D01*
G01*
D02*
G03*
X24538Y-2953I2233J-984D01*
G01*
X35118Y-7874D02*
G03*
X34910Y-6890I-2441J0D01*
G01*
Y-6890D02*
G03*
X35118Y-5906I-2233J984D01*
G01*
X34910Y-10827D02*
G03*
X35118Y-9843I-2233J984D01*
G01*
X34910Y-8858D02*
G03*
X35118Y-7874I-2233J984D01*
G01*
X24538Y-4921D02*
G03*
X24538Y-6890I2233J-984D01*
G01*
Y-2953D02*
G03*
X24538Y-4921I2233J-984D01*
G01*
Y-6890D02*
G03*
X24538Y-8858I2233J-984D01*
G01*
X43269Y-7818D02*
G03*
X46888Y-12192I2007J-2024D01*
G01*
X45681Y-14999D02*
G03*
X43075Y-17335I-2350J0D01*
G01*
X43586D02*
G03*
X45681Y-14999I-256J2336D01*
G01*
X34910Y-12795D02*
G03*
X35118Y-11811I-2233J984D01*
G01*
D02*
G03*
X34910Y-10827I-2441J0D01*
G01*
X35118Y-15748D02*
G03*
X34910Y-14764I-2441J0D01*
G01*
X35118Y-13780D02*
G03*
X34910Y-12795I-2441J0D01*
G01*
Y-14764D02*
G03*
X35118Y-13780I-2233J984D01*
G01*
X24538Y-8858D02*
G03*
X24538Y-10827I2233J-984D01*
G01*
Y-12795D02*
G03*
X24538Y-14764I2233J-984D01*
G01*
X34910Y-16732D02*
G03*
X35118Y-15748I-2233J984D01*
G01*
X24538Y-14764D02*
G03*
X24538Y-16732I2233J-984D01*
G01*
X35088Y-17335D02*
G03*
X34910Y-16732I-2410J-381D01*
G01*
X24538Y-18701D02*
G03*
X24538Y-20669I2233J-984D01*
G01*
Y-16732D02*
G03*
X24538Y-18701I2233J-984D01*
G01*
Y-20669D02*
G03*
X24538Y-22638I2233J-984D01*
G01*
X15157Y8477D02*
G03*
X16821Y9167I0J2350D01*
G01*
X15157Y8477D02*
G03*
X16819Y9165I0J2350D01*
G01*
X15441Y-6212D02*
G03*
X13780Y-5524I-1662J-1662D01*
G01*
X2350Y10000D02*
G03*
X-76Y12349I-2350J0D01*
G01*
X3069Y4880D02*
G03*
X4095Y4456I1025J1025D01*
G01*
X-150Y7655D02*
G03*
X282Y7667I150J2345D01*
G01*
X3066Y4883D02*
G03*
X4095Y4456I1028J1022D01*
G01*
X3581Y-5524D02*
G03*
X-150Y-5968I-1612J-2350D01*
G01*
X24538Y-10827D02*
G03*
X24538Y-12795I2233J-984D01*
G01*
X22035Y-13780D02*
G03*
X21345Y-12116I-2350J0D01*
G01*
X15443Y-6214D02*
G03*
X13780Y-5524I-1664J-1660D01*
G01*
X24538Y-22638D02*
G03*
X24491Y-24491I2233J-984D01*
G01*
D02*
G03*
X22638Y-24538I-869J-2281D01*
G01*
X22035Y-13780D02*
G03*
X21347Y-12118I-2350J0D01*
G01*
X22638Y-24538D02*
G03*
X22035Y-24361I-984J-2233D01*
G01*
X-4850Y-12067D02*
G03*
X-4162Y-13729I2350J0D01*
G01*
X-4850Y-12067D02*
G03*
X-4160Y-13730I2350J0D01*
G01*
X-6713Y-11447D02*
G03*
X-8233Y-10817I-1520J-1520D01*
G01*
X-6713Y-11447D02*
G03*
X-8233Y-10817I-1520J-1520D01*
G01*
X-1971Y-17079D02*
G03*
X-2601Y-15559I-2150J0D01*
G01*
X-1971Y-17079D02*
G03*
X-2601Y-15559I-2150J0D01*
G01*
X109437Y-25394D02*
G03*
X106681Y-23079I-2350J0D01*
G01*
Y-27708D02*
G03*
X109437Y-25394I406J2315D01*
G01*
X78834Y-49213D02*
G03*
X77925Y-47126I-2850J0D01*
G01*
X78768Y-49823D02*
G03*
X78834Y-49213I-2784J611D01*
G01*
X61905Y-26378D02*
G03*
X61405Y-24766I-2850J0D01*
G01*
X61434Y-27948D02*
G03*
X61905Y-26378I-2379J1570D01*
G01*
X66453Y-44772D02*
G03*
X70510Y-45657I2444J1465D01*
G01*
X70510Y-40957D02*
G03*
X66289Y-42160I-1612J-2350D01*
G01*
X74043Y-47126D02*
G03*
X73200Y-49823I1941J-2087D01*
G01*
X84437Y-59055D02*
G03*
X83892Y-57551I-2350J0D01*
G01*
X80281D02*
G03*
X84437Y-59055I1805J-1504D01*
G01*
X105991Y-80404D02*
G03*
X106681Y-78740I-1660J1664D01*
G01*
X105992Y-80402D02*
G03*
X106681Y-78740I-1662J1662D01*
G01*
X78334Y-75590D02*
G03*
X77703Y-73988I-2350J0D01*
G01*
X169330Y-96457D02*
G03*
X169330Y-96457I-11850J0D01*
G01*
X85827Y-99594D02*
G03*
X87490Y-98904I0J2350D01*
G01*
X85827Y-99594D02*
G03*
X87489Y-98906I0J2350D01*
G01*
X74266Y-73988D02*
G03*
X78334Y-75590I1719J-1603D01*
G01*
X42431Y-98904D02*
G03*
X44094Y-99594I1664J1660D01*
G01*
X33400Y-36671D02*
G03*
X35471Y-36208I458J2813D01*
G01*
X38237Y-49236D02*
G03*
X36583Y-50048I362J-2827D01*
G01*
X38237Y-49236D02*
G03*
X36579Y-50052I362J-2827D01*
G01*
X14915Y-48947D02*
G03*
X20303Y-49621I2802J521D01*
G01*
X16630Y-53150D02*
G03*
X13977Y-50306I-2850J0D01*
G01*
X34587Y-52043D02*
G03*
X33748Y-54063I2011J-2019D01*
G01*
X34583Y-52048D02*
G03*
X33748Y-54063I2015J-2015D01*
G01*
X32850Y-53500D02*
G03*
X32556Y-52362I-2350J0D01*
G01*
X28444D02*
G03*
X32850Y-53500I2056J-1138D01*
G01*
X25972D02*
G03*
X25678Y-52362I-2350J0D01*
G01*
X21566D02*
G03*
X25972Y-53500I2056J-1138D01*
G01*
X12192Y-55517D02*
G03*
X16630Y-53150I1587J2367D01*
G01*
X1444Y-52362D02*
G03*
X5524Y-54694I2056J-1138D01*
G01*
X-428Y-24879D02*
G03*
X-1971Y-24331I-1541J-1893D01*
G01*
X-1150Y-53500D02*
G03*
X-1444Y-52362I-2350J0D01*
G01*
X-5556D02*
G03*
X-5724Y-52741I2056J-1138D01*
G01*
Y-54259D02*
G03*
X-1150Y-53500I2224J759D01*
G01*
X-6354Y-56638D02*
G03*
X-5724Y-55118I-1520J1520D01*
G01*
X-6354Y-56638D02*
G03*
X-5724Y-55118I-1520J1520D01*
G01*
X-4776Y-60102D02*
G03*
X-7497Y-57782I-2350J0D01*
G01*
X-9447Y-59731D02*
G03*
X-9182Y-61241I2321J-371D01*
G01*
X-5070D02*
G03*
X-4776Y-60102I-2056J1138D01*
G01*
X32018Y-77605D02*
G03*
X34346Y-74803I-521J2802D01*
G01*
D02*
G03*
X30692Y-72069I-2850J0D01*
G01*
D02*
G03*
X30318Y-72208I804J-2734D01*
G01*
X29621Y-72657D02*
G03*
X29430Y-72208I-2247J-689D01*
G01*
X25318D02*
G03*
X27281Y-75695I2056J-1138D01*
G01*
X30318Y-72208D02*
G03*
X29621Y-72657I1179J-2595D01*
G01*
X42433Y-98906D02*
G03*
X44094Y-99594I1662J1662D01*
G01*
X32329Y-82156D02*
G03*
X29784Y-79839I-2802J-521D01*
G01*
X23931Y-79045D02*
G03*
X23241Y-80709I1660J-1664D01*
G01*
X23929Y-79047D02*
G03*
X23241Y-80709I1662J-1662D01*
G01*
X27937Y-85042D02*
G03*
X29006Y-85479I1591J2365D01*
G01*
X27252Y-86571D02*
G03*
X27937Y-85042I-1662J1662D01*
G01*
X27250Y-86573D02*
G03*
X27937Y-85042I-1660J1664D01*
G01*
X9480Y-67792D02*
G03*
X11000Y-68350I1520J1792D01*
G01*
X9480Y-67792D02*
G03*
X11000Y-68350I1520J1792D01*
G01*
X21350Y-94000D02*
G03*
X21162Y-92662I-4850J0D01*
G01*
X17838Y-89338D02*
G03*
X21350Y-94000I-1338J-4662D01*
G01*
X10850D02*
G03*
X10850Y-94000I-4350J0D01*
G01*
X1350D02*
G03*
X1350Y-94000I-4850J0D01*
G01*
X-15760Y129319D02*
G03*
X-15178Y131494I-3767J2175D01*
G01*
D02*
G03*
X-23295Y133669I-4350J0D01*
G01*
D02*
G03*
X-15760Y129319I3767J-2175D01*
G01*
X-20327Y120408D02*
G03*
X-19678Y122834I-4200J2425D01*
G01*
X-25327Y111748D02*
G03*
X-24678Y114173I-4200J2425D01*
G01*
X-19678Y122834D02*
G03*
X-28728Y125259I-4850J0D01*
G01*
D02*
G03*
X-20327Y120408I4200J-2425D01*
G01*
X-30327Y103088D02*
G03*
X-29678Y105513I-4200J2425D01*
G01*
X-12874Y46630D02*
G03*
X-12972Y43274I-1693J-1630D01*
G01*
X-12664Y46378D02*
G03*
X-12874Y46630I-1903J-1378D01*
G01*
X-21566Y52716D02*
G03*
X-21272Y53854I-2056J1138D01*
G01*
D02*
G03*
X-25678Y52716I-2350J0D01*
G01*
X-24678Y114173D02*
G03*
X-33728Y116598I-4850J0D01*
G01*
X-32378Y101166D02*
G03*
X-30327Y103088I-2150J4347D01*
G01*
X-33728Y116598D02*
G03*
X-25327Y111748I4200J-2425D01*
G01*
X-29678Y105513D02*
G03*
X-38728Y107938I-4850J0D01*
G01*
D02*
G03*
X-36678Y101166I4200J-2425D01*
G01*
Y100777D02*
G03*
X-43728Y99278I-2850J-3924D01*
G01*
X-41678Y92117D02*
G03*
X-48728Y90618I-2850J-3924D01*
G01*
X-43728Y99278D02*
G03*
X-41678Y92505I4200J-2425D01*
G01*
X-48728Y90618D02*
G03*
X-41678Y84268I4200J-2425D01*
G01*
X-33007Y43086D02*
G03*
X-32378Y44606I-1520J1520D01*
G01*
X-33007Y43086D02*
G03*
X-32378Y44606I-1520J1520D01*
G01*
X-20772Y37008D02*
G03*
X-21189Y38493I-2850J0D01*
G01*
X-16732Y34910D02*
G03*
X-18701Y34910I-984J-2233D01*
G01*
D02*
G03*
X-20669Y34910I-984J-2233D01*
G01*
X-12972Y34980D02*
G03*
X-14764Y34910I-807J-2303D01*
G01*
D02*
G03*
X-16732Y34910I-984J-2233D01*
G01*
X-20669D02*
G03*
X-21272Y35088I-984J-2233D01*
G01*
Y35395D02*
G03*
X-20772Y37008I-2350J1612D01*
G01*
X-23315Y19992D02*
G03*
X-21654Y19304I1662J1662D01*
G01*
X-23317Y19994D02*
G03*
X-21654Y19304I1664J1660D01*
G01*
X-24538Y20669D02*
G03*
X-24400Y21077I-2233J984D01*
G01*
X-24331Y19685D02*
G03*
X-24538Y20669I-2441J0D01*
G01*
Y14764D02*
G03*
X-24331Y15748I-2233J984D01*
G01*
D02*
G03*
X-24538Y16732I-2441J0D01*
G01*
Y12795D02*
G03*
X-24331Y13780I-2233J984D01*
G01*
D02*
G03*
X-24538Y14764I-2441J0D01*
G01*
X-24331Y17717D02*
G03*
X-24538Y18701I-2441J0D01*
G01*
D02*
G03*
X-24331Y19685I-2233J984D01*
G01*
X-24538Y16732D02*
G03*
X-24331Y17717I-2233J984D01*
G01*
X-24538Y8858D02*
G03*
X-24331Y9843I-2233J984D01*
G01*
D02*
G03*
X-24538Y10827I-2441J0D01*
G01*
X-24331Y7874D02*
G03*
X-24538Y8858I-2441J0D01*
G01*
X-24879Y2396D02*
G03*
X-24331Y3937I-1893J1541D01*
G01*
D02*
G03*
X-24879Y5478I-2441J0D01*
G01*
X-20049Y-10817D02*
G03*
X-24455Y-9073I-2786J-600D01*
G01*
X-24538Y10827D02*
G03*
X-24331Y11811I-2233J984D01*
G01*
D02*
G03*
X-24538Y12795I-2441J0D01*
G01*
X-24879Y6333D02*
G03*
X-24331Y7874I-1893J1541D01*
G01*
X-24879Y5478D02*
G03*
X-24831Y5906I-1893J428D01*
G01*
Y1969D02*
G03*
X-24879Y2396I-1940J0D01*
G01*
X-24831Y5906D02*
G03*
X-24879Y6333I-1940J0D01*
G01*
Y-2396D02*
G03*
X-24831Y-1969I-1893J428D01*
G01*
X-24331Y-7874D02*
G03*
X-24538Y-6890I-2441J0D01*
G01*
Y-6890D02*
G03*
X-24331Y-5906I-2233J984D01*
G01*
X-24538Y-8858D02*
G03*
X-24331Y-7874I-2233J984D01*
G01*
X-24538Y-4921D02*
G03*
X-24331Y-3937I-2233J984D01*
G01*
D02*
G03*
X-24879Y-2396I-2441J0D01*
G01*
X-24331Y-5906D02*
G03*
X-24538Y-4921I-2441J0D01*
G01*
X-32112Y35453D02*
G03*
X-31878Y32640I2585J-1201D01*
G01*
Y29528D02*
G03*
X-31189Y27866I2350J0D01*
G01*
X-31878Y29528D02*
G03*
X-31187Y27864I2350J0D01*
G01*
X-45296Y36930D02*
G03*
X-44945Y38299I-2500J1369D01*
G01*
X-45296Y36930D02*
G03*
X-44945Y38299I-2500J1369D01*
G01*
X-32677Y26063D02*
G03*
X-33832Y25772I0J-2441D01*
G01*
X-45296Y36930D02*
G03*
X-44945Y38299I-2500J1369D01*
G01*
X-24831Y0D02*
G03*
X-25099Y984I-1940J0D01*
G01*
D02*
G03*
X-24831Y1969I-1672J984D01*
G01*
X-25099Y-984D02*
G03*
X-24831Y0I-1672J984D01*
G01*
X-39355Y20567D02*
G03*
X-42148Y18352I-15J-2850D01*
G01*
X-24831Y-1969D02*
G03*
X-25099Y-984I-1940J0D01*
G01*
X-35111Y-23803D02*
G03*
X-33016Y-26039I2434J181D01*
G01*
X-41678Y23779D02*
G03*
X-41048Y22259I2150J0D01*
G01*
X-41678Y23779D02*
G03*
X-41048Y22259I2150J0D01*
G01*
X-40457Y-27559D02*
G03*
X-44919Y-25209I-2850J0D01*
G01*
X-42148Y18352D02*
G03*
X-45296Y17789I-1159J-2604D01*
G01*
X-44919Y-29909D02*
G03*
X-40457Y-27559I1612J2350D01*
G01*
X-47217Y70801D02*
G03*
X-46567Y73226I-4200J2425D01*
G01*
D02*
G03*
X-55617Y75651I-4850J0D01*
G01*
D02*
G03*
X-47217Y70801I4200J-2425D01*
G01*
X-52650Y62391D02*
G03*
X-52067Y64566I-3767J2175D01*
G01*
D02*
G03*
X-60185Y66741I-4350J0D01*
G01*
D02*
G03*
X-52650Y62391I3767J-2175D01*
G01*
X-57217Y53480D02*
G03*
X-56567Y55905I-4200J2425D01*
G01*
X-56438Y39967D02*
G03*
X-56642Y39686I1797J-1515D01*
G01*
X-56642D02*
G03*
X-57768Y40634I-2000J-1234D01*
G01*
X-50657Y39468D02*
G03*
X-51481Y37704I2015J-2015D01*
G01*
X-50657Y39468D02*
G03*
X-51481Y37704I2015J-2015D01*
G01*
X-51708Y37204D02*
G03*
X-51842Y37704I-1934J-252D01*
G01*
D02*
G03*
X-52263Y38331I-1799J-752D01*
G01*
X-51842Y37704D02*
G03*
X-52263Y38331I-1799J-752D01*
G01*
X-51708Y37204D02*
G03*
X-51842Y37704I-1934J-252D01*
G01*
X-52292Y38452D02*
G03*
X-52538Y39500I-2350J0D01*
G01*
X-58004Y40714D02*
G03*
X-60633Y37204I-638J-2262D01*
G01*
X-56567Y55905D02*
G03*
X-65618Y58331I-4850J0D01*
G01*
D02*
G03*
X-57217Y53480I4200J-2425D01*
G01*
X-72047Y25772D02*
G03*
X-73567Y25142I0J-2150D01*
G01*
X-72047Y25772D02*
G03*
X-73567Y25142I0J-2150D01*
G01*
X-61492Y22350D02*
G03*
X-62121Y23823I-2149J-46D01*
G01*
X-61492Y22350D02*
G03*
X-62121Y23823I-2149J-46D01*
G01*
X-76323Y22386D02*
G03*
X-76946Y21043I1520J-1520D01*
G01*
X-76323Y22386D02*
G03*
X-76946Y21043I1520J-1520D01*
G01*
X-83764Y23622D02*
G03*
X-88764Y21751I-2850J0D01*
G01*
X-84010Y22463D02*
G03*
X-83764Y23622I-2604J1159D01*
G01*
X-81796Y19685D02*
G03*
X-84010Y22463I-2850J0D01*
G01*
X-79827Y15748D02*
G03*
X-82042Y18526I-2850J0D01*
G01*
Y18526D02*
G03*
X-81796Y19685I-2604J1159D01*
G01*
X-77933Y12456D02*
G03*
X-80073Y14589I-2776J-645D01*
G01*
X-66492Y-5808D02*
G03*
X-65792Y-3948I-2150J1871D01*
G01*
Y-3926D02*
G03*
X-66492Y-2066I-2850J-11D01*
G01*
X-80073Y14589D02*
G03*
X-79827Y15748I-2604J1159D01*
G01*
X-89100Y2158D02*
G03*
X-88764Y2924I-3307J1909D01*
G01*
Y5211D02*
G03*
X-95714Y5977I-3643J-1144D01*
G01*
D02*
G03*
X-89100Y2158I3307J-1909D01*
G01*
X-91449Y-9783D02*
G03*
X-90937Y-7874I-3307J1909D01*
G01*
D02*
G03*
X-98063Y-5965I-3819J0D01*
G01*
X-98268Y-5846D02*
G03*
X-97756Y-3937I-3307J1909D01*
G01*
X-98063Y-5965D02*
G03*
X-91449Y-9783I3307J-1909D01*
G01*
X-58213Y-23174D02*
G03*
X-56693Y-23803I1520J1520D01*
G01*
X-58213Y-23174D02*
G03*
X-56693Y-23803I1520J1520D01*
G01*
X-65792Y-14705D02*
G03*
X-65162Y-16225I2150J0D01*
G01*
X-52362Y-25209D02*
G03*
X-54026Y-25899I0J-2350D01*
G01*
X-52362Y-25209D02*
G03*
X-54024Y-25897I0J-2350D01*
G01*
X-46363Y-32283D02*
G03*
X-47636Y-29909I-2850J0D01*
G01*
X-58747Y-30620D02*
G03*
X-59437Y-32283I1660J-1664D01*
G01*
X-58748Y-30622D02*
G03*
X-59437Y-32283I1662J-1662D01*
G01*
X-65792Y-14705D02*
G03*
X-65162Y-16225I2150J0D01*
G01*
X-67121Y-22918D02*
G03*
X-66492Y-21398I-1520J1520D01*
G01*
X-67121Y-22918D02*
G03*
X-66492Y-21398I-1520J1520D01*
G01*
X-95819Y-16352D02*
G03*
X-95374Y-14693I-2874J1659D01*
G01*
X-92434Y-17740D02*
G03*
X-96433Y-21739I-2251J-1748D01*
G01*
X-102638Y-12415D02*
G03*
X-102193Y-10756I-2874J1659D01*
G01*
X-97756Y-3937D02*
G03*
X-104882Y-2028I-3819J0D01*
G01*
D02*
G03*
X-98268Y-5846I3307J-1909D01*
G01*
X-95374Y-14693D02*
G03*
X-101567Y-13034I-3319J0D01*
G01*
D02*
G03*
X-95819Y-16352I2874J-1659D01*
G01*
X-98811Y-21512D02*
G03*
X-105937Y-19603I-3819J0D01*
G01*
X-102193Y-10756D02*
G03*
X-108386Y-9097I-3319J0D01*
G01*
D02*
G03*
X-102638Y-12415I2874J-1659D01*
G01*
X-106142Y-19485D02*
G03*
X-105630Y-17575I-3307J1909D01*
G01*
D02*
G03*
X-112756Y-15666I-3819J0D01*
G01*
D02*
G03*
X-106142Y-19485I3307J-1909D01*
G01*
X-99323Y-23422D02*
G03*
X-98811Y-21512I-3307J1909D01*
G01*
X-105937Y-19603D02*
G03*
X-99323Y-23422I3307J-1909D01*
G01*
X-103248Y-28331D02*
G03*
X-109441Y-26672I-3319J0D01*
G01*
X-99945Y-25251D02*
G03*
X-100575Y-26772I1520J-1520D01*
G01*
X-99945Y-25251D02*
G03*
X-100575Y-26772I1520J-1520D01*
G01*
X-103693Y-29991D02*
G03*
X-103248Y-28331I-2874J1659D01*
G01*
X-109441Y-26672D02*
G03*
X-103693Y-29991I2874J-1659D01*
G01*
X-110067Y-24394D02*
G03*
X-116260Y-22735I-3319J0D01*
G01*
D02*
G03*
X-110512Y-26054I2874J-1659D01*
G01*
D02*
G03*
X-110067Y-24394I-2874J1659D01*
G01*
X-113504Y-31213D02*
G03*
X-120630Y-29304I-3819J0D01*
G01*
X-39902Y-44020D02*
G03*
X-38381Y-43390I0J2150D01*
G01*
X-39902Y-44020D02*
G03*
X-38381Y-43390I0J2150D01*
G01*
X-46647Y-33524D02*
G03*
X-46363Y-32283I-2566J1240D01*
G01*
X-50789Y-29909D02*
G03*
X-51023Y-34484I1576J-2374D01*
G01*
X-54737Y-40710D02*
G03*
X-51023Y-39977I1587J1733D01*
G01*
X-27111Y-44936D02*
G03*
X-27741Y-46457I1520J-1520D01*
G01*
X-27111Y-44936D02*
G03*
X-27741Y-46457I1520J-1520D01*
G01*
X-35625Y-47297D02*
G03*
X-32064Y-49353I1211J-2014D01*
G01*
X-51023Y-37976D02*
G03*
X-54737Y-37243I-2126J-1001D01*
G01*
X-14866Y-72835D02*
G03*
X-16200Y-70422I-2850J0D01*
G01*
X-20130Y-74351D02*
G03*
X-14866Y-72835I2413J1517D01*
G01*
X-40319Y-93650D02*
G03*
X-38799Y-93020I0J2150D01*
G01*
X-59437Y-88545D02*
G03*
X-54237Y-90158I2350J-1612D01*
G01*
X-40319Y-93650D02*
G03*
X-38799Y-93020I0J2150D01*
G01*
X-54237Y-90158D02*
G03*
X-54737Y-88545I-2850J0D01*
G01*
X-107197Y-37060D02*
G03*
X-106685Y-35150I-3307J1909D01*
G01*
D02*
G03*
X-113811Y-33241I-3819J0D01*
G01*
D02*
G03*
X-107197Y-37060I3307J-1909D01*
G01*
X-111122Y-41969D02*
G03*
X-117315Y-40310I-3319J0D01*
G01*
X-111567Y-43629D02*
G03*
X-111122Y-41969I-2874J1659D01*
G01*
X-114016Y-33123D02*
G03*
X-113504Y-31213I-3307J1909D01*
G01*
X-118386Y-39692D02*
G03*
X-117941Y-38032I-2874J1659D01*
G01*
X-120630Y-29304D02*
G03*
X-114016Y-33123I3307J-1909D01*
G01*
X-81157Y-58162D02*
G03*
X-80527Y-56642I-1520J1520D01*
G01*
X-81157Y-58162D02*
G03*
X-80527Y-56642I-1520J1520D01*
G01*
X-117315Y-40310D02*
G03*
X-111567Y-43629I2874J-1659D01*
G01*
X-120427Y-71396D02*
G03*
X-118907Y-70766I0J2150D01*
G01*
X-120427Y-71396D02*
G03*
X-118907Y-70766I0J2150D01*
G01*
X-117941Y-38032D02*
G03*
X-124134Y-36373I-3319J0D01*
G01*
D02*
G03*
X-118386Y-39692I2874J-1659D01*
G01*
X-121378Y-44852D02*
G03*
X-128504Y-42942I-3819J0D01*
G01*
X-114568Y-48535D02*
G03*
X-121685Y-46879I-3810J-254D01*
G01*
X-121890Y-46761D02*
G03*
X-121378Y-44852I-3307J1909D01*
G01*
X-121685Y-46879D02*
G03*
X-122125Y-49521I3307J-1909D01*
G01*
X-128504Y-42942D02*
G03*
X-121890Y-46761I3307J-1909D01*
G01*
X-125689Y-53821D02*
G03*
X-119159Y-57758I3375J-1787D01*
G01*
X-125978Y-49521D02*
G03*
X-132441Y-49762I-3156J-2150D01*
G01*
X-129764Y-60399D02*
G03*
X-129252Y-58490I-3307J1909D01*
G01*
X-132441Y-49762D02*
G03*
X-125978Y-53821I3307J-1909D01*
G01*
X-129252Y-58490D02*
G03*
X-136378Y-56581I-3819J0D01*
G01*
X-122504Y-63159D02*
G03*
X-122433Y-62427I-3748J732D01*
G01*
D02*
G03*
X-129559Y-60518I-3819J0D01*
G01*
D02*
G03*
X-129999Y-63159I3307J-1909D01*
G01*
X-133563Y-67459D02*
G03*
X-127033Y-71396I3374J-1787D01*
G01*
X-121599Y-78401D02*
G03*
X-122229Y-79921I1520J-1520D01*
G01*
X-121599Y-78401D02*
G03*
X-122229Y-79921I1520J-1520D01*
G01*
X-136378Y-56581D02*
G03*
X-129764Y-60399I3307J-1909D01*
G01*
X-140315Y-63400D02*
G03*
X-133852Y-67459I3307J-1909D01*
G01*
Y-63159D02*
G03*
X-140315Y-63400I-3156J-2150D01*
G01*
X-135538Y-77250D02*
G03*
X-142663Y-75341I-3819J0D01*
G01*
X-136049Y-79160D02*
G03*
X-135538Y-77250I-3307J1909D01*
G01*
X-142663Y-75341D02*
G03*
X-136049Y-79160I3307J-1909D01*
G01*
X-93370Y-96882D02*
G03*
X-93720Y-95649I-2350J0D01*
G01*
X-97721D02*
G03*
X-93370Y-96882I2001J-1233D01*
G01*
X-111511Y-96764D02*
G03*
X-105811Y-96764I2850J0D01*
G01*
X-111511D02*
G03*
X-105811Y-96764I2850J0D01*
G01*
X-111823Y-82677D02*
G03*
X-111823Y-82677I-2350J0D01*
G01*
X-112480Y-89709D02*
G03*
X-112480Y-92968I-1693J-1630D01*
G01*
X-117729Y-96457D02*
G03*
X-118360Y-94854I-2350J0D01*
G01*
X-121797D02*
G03*
X-117729Y-96457I1719J-1603D01*
G01*
X-145630D02*
G03*
X-145630Y-96457I-11850J0D01*
G01*
X71405Y35817D02*
X88468Y52880D01*
X71570Y45882D02*
X84883Y59194D01*
X79973Y24586D02*
X95639Y40253D01*
X71405Y37328D02*
X84147Y24586D01*
X68005Y52217D02*
X81297Y65508D01*
X71164Y77167D02*
X79291Y69040D01*
X66943Y71488D02*
X92302Y46130D01*
X85019Y24086D02*
X88850D01*
X85019D02*
Y24586D01*
X88850Y23564D02*
X99225Y33939D01*
X88850Y23262D02*
Y24086D01*
X79803Y24586D02*
X85019D01*
X72166Y24980D02*
X79803D01*
Y24586D02*
Y24980D01*
X71516Y79592D02*
Y82731D01*
X71405Y30079D02*
Y37492D01*
X66705Y31052D02*
Y37492D01*
X70567Y28267D02*
X73854Y24980D01*
X68402Y50231D02*
X118323Y310D01*
X66727Y21240D02*
X92054Y46567D01*
X75486Y300D02*
X102811Y27625D01*
X89442Y19291D02*
X131334Y-22601D01*
X85019Y18827D02*
X88850D01*
Y19651D01*
X75503Y-9582D02*
X106396Y21311D01*
X85019Y18327D02*
Y18827D01*
X79803Y18327D02*
X85019D01*
X79803Y14516D02*
X83614Y18327D01*
X72166Y17933D02*
Y24980D01*
X70354Y18580D02*
X72166Y16769D01*
X65617Y23317D02*
X67695Y21240D01*
X70354Y14193D02*
Y21240D01*
X72166Y17933D02*
X79803D01*
Y18327D01*
Y10453D02*
Y17500D01*
X72886D02*
X73320Y17933D01*
X72166Y17500D02*
X79803D01*
X72166Y16779D02*
X72886Y17500D01*
X72166Y10453D02*
Y17500D01*
X59832Y63842D02*
X74126Y78136D01*
X59351Y63896D02*
X69014Y73559D01*
X63758Y57868D02*
X77711Y71822D01*
X0Y208661D02*
X64111Y95770D01*
X62736Y55897D02*
X63891Y54742D01*
X62333Y46400D02*
X64755Y43978D01*
X26241Y112191D02*
X54040Y84392D01*
X26241Y89648D02*
X52612Y116019D01*
X26241Y69849D02*
X59783Y103391D01*
X26241Y79748D02*
X56198Y109705D01*
X26189Y132042D02*
X62411Y95820D01*
X-1181Y169311D02*
X53269Y114861D01*
X26241Y122091D02*
X55863Y92468D01*
X62085Y95793D02*
X63369Y97077D01*
X52094Y56639D02*
X60061Y48673D01*
X26241Y54895D02*
X54458Y83113D01*
X26241Y59949D02*
X53813Y87521D01*
X32146Y36691D02*
X54214Y58759D01*
X52629Y26941D02*
X64908Y39220D01*
X47780Y31992D02*
X62234Y46445D01*
X61993Y66539D02*
X105313Y23220D01*
X57623Y22035D02*
X66705Y31117D01*
X47144Y51689D02*
X66705Y32129D01*
X37767Y31878D02*
X60242Y54353D01*
X42195Y46740D02*
X62294Y26641D01*
X63540Y21240D02*
X70354D01*
X57688Y22035D02*
X66705Y31052D01*
X63540Y21240D02*
X70715Y28415D01*
X62717Y20417D02*
X63540Y21240D01*
X50186Y17335D02*
X58593D01*
X51370Y27665D02*
X52094Y26941D01*
X53515Y25072D02*
Y26941D01*
X51370Y27665D02*
X52094Y26941D01*
X32146Y36156D02*
X54268Y58278D01*
X50408Y26941D02*
X53515D01*
X57265Y22035D02*
X57688D01*
X53515Y25519D02*
X53812Y25223D01*
X53515Y25519D02*
X53811Y25223D01*
X45169Y12319D02*
X50186Y17335D01*
X78334Y10453D02*
X79803D01*
X72166D02*
X73634D01*
X70354Y14967D02*
X72166Y16779D01*
X69580Y14193D02*
X70354Y14967D01*
X67007Y1721D02*
X73227Y7941D01*
X75398Y-512D02*
X76161D01*
X75883Y-9961D02*
X79901D01*
X76161Y-8149D02*
Y-512D01*
X74070Y-8149D02*
X76161D01*
X74104Y-8183D02*
X75883Y-9961D01*
X66508Y906D02*
X67007D01*
Y9724D01*
Y2128D02*
X69647Y-512D01*
X66508Y-6074D02*
Y906D01*
X65055Y9724D02*
X67007D01*
X65055D02*
Y10630D01*
X65111Y9724D02*
X69580Y14193D01*
X69115Y-512D02*
X69877D01*
X69115Y-7492D02*
Y-512D01*
X67693Y-7492D02*
X69115Y-6071D01*
X65310Y-6074D02*
X66728Y-7492D01*
X64155Y-6074D02*
X66508D01*
X64555Y-7492D02*
X69115D01*
X103805Y-10978D02*
X117153Y2370D01*
X78481Y10453D02*
X101676Y-12742D01*
X106681Y-18002D02*
X120739Y-3944D01*
X79901Y-15084D02*
X109982Y14997D01*
X64842Y14193D02*
X101981Y-22946D01*
X76161Y-7026D02*
X79096Y-9961D01*
X64841Y14193D02*
X101981Y-22946D01*
X106681Y-23079D02*
Y-15392D01*
X79901Y-17598D02*
Y-9961D01*
X72855Y-17598D02*
X79901D01*
X79096Y-9961D02*
X79901Y-10766D01*
X72421Y-13185D02*
X72855Y-13619D01*
X72421Y-13146D02*
X72855Y-13580D01*
Y-17598D02*
Y-13580D01*
X72421Y-17598D02*
Y-13146D01*
X65374Y-17598D02*
Y-16129D01*
X62874D02*
X65374D01*
X62874Y-17795D02*
Y-16129D01*
X75943Y-19041D02*
X77387Y-17598D01*
X66934Y-17598D02*
X71235Y-21899D01*
X65374Y-17598D02*
X72421D01*
X62874Y-17795D02*
Y-16457D01*
Y-24488D02*
Y-17795D01*
X62717Y14193D02*
X70354D01*
X62717D02*
Y15180D01*
X56011Y10523D02*
X60504Y15017D01*
X51800Y17335D02*
X59355Y9781D01*
Y9724D02*
Y10630D01*
X57402Y9724D02*
X59355D01*
X56985Y1598D02*
X57402Y2015D01*
X57131Y2104D02*
X57402Y1834D01*
X53708Y10573D02*
Y11818D01*
X47515D02*
X53708D01*
X47515Y11928D02*
X52923Y17335D01*
X53708Y5527D02*
X54419Y4816D01*
X53708Y4573D02*
Y5181D01*
Y5818D01*
Y6427D01*
Y5181D02*
Y5818D01*
X57402Y906D02*
X57902D01*
Y-6074D02*
Y906D01*
X57402D02*
Y9724D01*
X57902Y-6074D02*
X60255D01*
X62874Y-22212D02*
X67487Y-17598D01*
X61405Y-24488D02*
X62874D01*
X57794Y-7492D02*
X59212Y-6074D01*
X47515Y-7492D02*
X59855D01*
X53708Y-1678D02*
X55717Y330D01*
X53708Y-681D02*
Y427D01*
Y-1927D02*
Y-819D01*
Y-7318D02*
Y-6073D01*
X55564Y-6227D02*
X56829Y-7492D01*
X47515Y-7318D02*
X53708D01*
X46888Y-12192D02*
X51413D01*
X46271Y-17335D02*
X51413Y-12192D01*
X26241Y129246D02*
X38269Y141274D01*
X23980Y136884D02*
X34684Y147588D01*
X26241Y109447D02*
X45441Y128647D01*
X26241Y119346D02*
X41855Y134960D01*
X19035Y141839D02*
X31098Y153902D01*
X14085Y146789D02*
X27512Y160216D01*
X6701Y171329D02*
X40259Y137771D01*
X26241Y92392D02*
X44989Y73644D01*
X26241Y82493D02*
X40039Y68694D01*
X26241Y72593D02*
X35089Y63744D01*
X26241Y62694D02*
X30140Y58795D01*
X26241Y99547D02*
X49026Y122333D01*
X26241Y99547D02*
X49026Y122333D01*
X26241Y102292D02*
X49939Y78593D01*
X11066Y176863D02*
X27248Y160681D01*
X11531Y183833D02*
X13170Y185471D01*
X9135Y151738D02*
X23927Y166530D01*
X8881Y188947D02*
X14237Y183591D01*
X7812Y190013D02*
X9584Y191785D01*
X8520Y152354D02*
X23739Y137135D01*
X9193Y56097D02*
Y127572D01*
X26241Y54895D02*
Y131102D01*
X4435Y55232D02*
X5681D01*
Y52728D02*
Y55232D01*
X32437Y31878D02*
X47600D01*
X32437D02*
Y32677D01*
X37245Y41790D02*
X47157Y31878D01*
X37245Y41790D02*
X47157Y31878D01*
X32146Y34922D02*
Y36691D01*
X32295Y36840D02*
X37258Y31878D01*
X46043Y13192D02*
X46917Y12319D01*
X24070Y15367D02*
X24454Y14982D01*
X23021Y15367D02*
X24361D01*
X16821Y9167D02*
X23021Y15367D01*
X6287Y19685D02*
Y24361D01*
X5681Y52728D02*
X7772D01*
X5681Y53555D02*
X6508Y52728D01*
X6287Y23250D02*
X15272Y14265D01*
X8502Y13177D02*
X14184D01*
X19069Y18061D01*
X9167Y13177D02*
X14539Y18550D01*
X6287Y20197D02*
X9549Y23458D01*
X823Y192924D02*
X5999Y198099D01*
X-338Y208066D02*
X1226Y206502D01*
X4415Y156918D02*
X20341Y172844D01*
X-3924Y201752D02*
X7845Y189984D01*
X-8755Y193245D02*
X2413Y204413D01*
X4242Y57749D02*
X9193Y62700D01*
X-4834Y58573D02*
X9193Y72600D01*
X-3535Y140299D02*
X9193Y127572D01*
X-7509Y195439D02*
X-4239Y192168D01*
X-11095Y189125D02*
X-9774Y187803D01*
X-7923Y55484D02*
X-6341Y57066D01*
X-7505Y56841D02*
X-6369Y55706D01*
X-8124Y55484D02*
X-7311D01*
X-12374D02*
X-11561D01*
X-2033Y55232D02*
X-956D01*
X-788D02*
X289D01*
X-5029Y19994D02*
X-2296Y22727D01*
X3607Y16031D02*
X6079Y13559D01*
X1587Y20658D02*
Y21495D01*
X-76Y12349D02*
X5597Y18022D01*
X-4160Y14911D02*
X1587Y20658D01*
X-2693Y22330D02*
X283Y19355D01*
X-7311Y55232D02*
X-6179D01*
X-11992Y45846D02*
Y46378D01*
X-12374Y52047D02*
Y55484D01*
X-12664Y46378D02*
X-11992D01*
X-12874Y52047D02*
X-12374D01*
X-4850Y-12067D02*
Y13248D01*
X-12375Y45846D02*
X-11992D01*
X-9565Y19304D02*
X-4588Y14326D01*
X47515Y11818D02*
Y12319D01*
X45169D02*
X47515D01*
X35052Y-3376D02*
X37337Y-5660D01*
X46888Y-7492D02*
X47515D01*
X39000Y-6350D02*
X39485D01*
Y-7818D02*
X43269D01*
X39485D02*
Y-6350D01*
X35042Y-10445D02*
X39137Y-6350D01*
X42631Y-12755D02*
X43399Y-11988D01*
X35092Y-5555D02*
X42385Y-12848D01*
X38052Y-17335D02*
X41087Y-14300D01*
X45482Y-15945D02*
X46571Y-17034D01*
X43586Y-17335D02*
X46271D01*
X35101Y-15463D02*
X36973Y-17335D01*
X35088D02*
X43075D01*
X23144Y7356D02*
X24468Y8679D01*
X18596Y10942D02*
X22182Y7356D01*
X8502Y8477D02*
X15157D01*
X11161D02*
X12282Y7356D01*
X13245D02*
X14366Y8477D01*
X15182Y4456D02*
X24523Y-4885D01*
X4695Y7356D02*
X24387D01*
X10265Y-5524D02*
X20244Y4456D01*
X4095D02*
X24387D01*
X385Y-5505D02*
X10345Y4456D01*
X3581Y-5524D02*
X13780D01*
X4020Y8030D02*
X4838Y8848D01*
X2333Y9718D02*
X4695Y7356D01*
X282Y7667D02*
X3066Y4883D01*
X-150Y-5968D02*
Y7655D01*
Y-11D02*
X5363Y-5524D01*
X-150Y3860D02*
X1970Y5980D01*
X17459Y-8230D02*
X24440Y-1249D01*
X22025Y-13563D02*
X24416Y-11171D01*
X15443Y-6214D02*
X21345Y-12116D01*
X5283Y4456D02*
X24527Y-14789D01*
X22035Y-23452D02*
X24397Y-21090D01*
X22035Y-24361D02*
Y-13780D01*
Y-22196D02*
X24253Y-24414D01*
X-6135Y-12025D02*
X-4850Y-10739D01*
X-4160Y-13730D02*
X-381Y-17509D01*
X-6713Y-11447D02*
X-2601Y-15559D01*
X-1971Y-17760D02*
X-1051Y-16840D01*
X-1971Y-24331D02*
Y-17079D01*
X-381Y-24869D02*
Y-17509D01*
X-1971Y-17989D02*
X-381Y-19579D01*
X109425Y-25158D02*
X124325Y-10258D01*
X81870Y-32914D02*
X101530Y-13254D01*
X106681Y-37802D02*
X127910Y-16572D01*
X85195Y-39489D02*
X101981Y-22703D01*
X76834Y-17598D02*
X101981Y-42745D01*
X79901Y-10766D02*
X101981Y-32846D01*
X80507Y18327D02*
X144345Y-45511D01*
X106681Y-47701D02*
X131496Y-22886D01*
X85216Y-49367D02*
X101981Y-32602D01*
X78563Y-39489D02*
X85610D01*
X81870Y-37677D02*
Y-30040D01*
X85610Y-47126D02*
Y-39489D01*
X78563Y-47126D02*
Y-39489D01*
X77113Y-37677D02*
X78925Y-39489D01*
X78130Y-46554D02*
X78563Y-46120D01*
X78130Y-47126D02*
Y-39489D01*
X84437Y-47067D02*
X85216D01*
X78957D02*
X79737D01*
X85216Y-47126D02*
X85610D01*
X84437D02*
X85216D01*
X78957D02*
X79737D01*
X78563D02*
X78957D01*
X106681Y-17746D02*
X157356Y-68421D01*
X106681Y-78740D02*
Y-27708D01*
X106755Y-27720D02*
X170367Y-91332D01*
X106755Y-27720D02*
X170366Y-91331D01*
X106681Y-57600D02*
X135082Y-29200D01*
X81870Y-32533D02*
X101981Y-52644D01*
X106681Y-67500D02*
X138667Y-35513D01*
X106681Y-37545D02*
X154204Y-85069D01*
X106681Y-77399D02*
X142253Y-41827D01*
X93643Y-110236D02*
X149424Y-54455D01*
X106681Y-47445D02*
X148255Y-89019D01*
X78277Y-76104D02*
X101981Y-52401D01*
X85610Y-46173D02*
X101981Y-62544D01*
X83743Y-110236D02*
X145838Y-48141D01*
X84716Y-53720D02*
X85216D01*
Y-47126D01*
X101981Y-77767D02*
Y-15392D01*
X84716Y-57551D02*
Y-53720D01*
X78957Y-49823D02*
Y-47126D01*
X79015Y-65467D02*
X101981Y-42502D01*
X79457Y-57551D02*
Y-53720D01*
X79114Y-60807D02*
Y-54154D01*
X79114Y-53720D02*
X79457D01*
X79114Y-54154D02*
Y-53720D01*
Y-56476D02*
Y-54154D01*
X74844Y-30040D02*
X113568Y8683D01*
X74823Y-30040D02*
X81870D01*
X74558Y-25222D02*
X79376Y-30040D01*
X74823Y-31508D02*
Y-30040D01*
X68272Y-31508D02*
X75325Y-24455D01*
X65186Y-27948D02*
X72001Y-21132D01*
X73376Y-31508D02*
X74823Y-30061D01*
Y-37677D02*
X81870D01*
X74823D02*
Y-36208D01*
X71083Y-39489D02*
X78130D01*
X75295D02*
X77107Y-37677D01*
X35471Y-36208D02*
X74823D01*
X68272Y-31508D02*
X74823D01*
X71083Y-40957D02*
Y-39489D01*
X69608Y-30172D02*
X70945Y-31508D01*
X62874Y-23437D02*
X66285Y-26848D01*
X65746Y-36208D02*
X70462Y-40925D01*
X63857Y-41027D02*
X68676Y-36208D01*
X61434Y-27948D02*
X65186D01*
X70510Y-40957D02*
X71083D01*
X55846Y-36208D02*
X60665Y-41027D01*
X64567D02*
X65289Y-41171D01*
X53958Y-41027D02*
X58776Y-36208D01*
X52756Y-41027D02*
X64567D01*
X52034Y-41171D02*
X52756Y-41027D01*
X51422Y-41580D02*
X52034Y-41171D01*
X70510Y-45657D02*
X71083D01*
X71516Y82731D02*
X181102Y-110236D01*
X71083Y-47126D02*
Y-45657D01*
X66453Y-48331D02*
X68638Y-46145D01*
X66453Y-57874D02*
Y-44772D01*
X72855Y-49823D02*
X73200D01*
X72855Y-56476D02*
Y-54154D01*
X72855Y-56476D02*
Y-49823D01*
X71083Y-47126D02*
X74043D01*
X66453Y-46815D02*
X72855Y-53217D01*
X66401Y-58282D02*
X72855Y-51828D01*
X65901Y-41580D02*
X66289Y-42160D01*
X65289Y-41171D02*
X65901Y-41580D01*
X51013Y-42192D02*
X51422Y-41580D01*
X50870Y-42913D02*
X51013Y-42192D01*
X45946Y-36208D02*
X51380Y-41642D01*
X36047Y-36208D02*
X48083Y-48245D01*
X33819Y-51267D02*
X48877Y-36208D01*
X46740Y-48245D02*
X50870Y-44115D01*
X46267Y-48245D02*
X50870D01*
Y-42913D01*
X44930Y-48245D02*
X46267D01*
X38237D02*
X44930D01*
X46267D01*
X83892Y-57551D02*
X84716D01*
Y-55179D02*
X101981Y-72443D01*
X165575Y-87802D02*
X167352Y-86024D01*
X158797Y-84680D02*
X163767Y-79710D01*
X79114Y-59476D02*
X99693Y-80055D01*
X78515Y-68777D02*
X94743Y-85005D01*
X77345Y-77506D02*
X89793Y-89954D01*
X79457Y-57551D02*
X80281D01*
X79114Y-55469D02*
X79457Y-55126D01*
X79015Y-66614D02*
Y-60807D01*
X78515Y-73988D02*
Y-67744D01*
X76738D02*
X77868Y-66614D01*
X76352D02*
X77483Y-67744D01*
X77703Y-73988D02*
X78515D01*
X73826D02*
X74068Y-74230D01*
X169107Y-94169D02*
X170938Y-92338D01*
X123341Y-110236D02*
X160181Y-73397D01*
X133241Y-110236D02*
X145704Y-97773D01*
X103542Y-110236D02*
X153010Y-60769D01*
X106681Y-67244D02*
X149673Y-110236D01*
X113442D02*
X156595Y-67083D01*
X162939Y-110236D02*
X174524Y-98652D01*
X164918Y-105682D02*
X169472Y-110236D01*
X168868Y-99733D02*
X179371Y-110236D01*
X172839D02*
X178109Y-104966D01*
X153040Y-110236D02*
X155192Y-108084D01*
X143140Y-110236D02*
X148826Y-104551D01*
X157642Y-108306D02*
X159572Y-110236D01*
X106681Y-57345D02*
X145631Y-96295D01*
X106681Y-77144D02*
X139773Y-110236D01*
X103016Y-83378D02*
X129874Y-110236D01*
X98066Y-88328D02*
X119975Y-110236D01*
X84853Y-94894D02*
X101981Y-77767D01*
X79287Y-94894D02*
X101981Y-72200D01*
X87490Y-98904D02*
X105991Y-80404D01*
X88167Y-98228D02*
X100175Y-110236D01*
X93116Y-93278D02*
X110075Y-110236D01*
X79634Y-99594D02*
X90276Y-110236D01*
X73844D02*
X84486Y-99594D01*
X72855Y-60807D02*
Y-56476D01*
X66401Y-62232D02*
Y-58135D01*
X72953Y-66614D02*
Y-60807D01*
X66453Y-56715D02*
X72953Y-63215D01*
X65901Y-68682D02*
X72953Y-61630D01*
X65901Y-62232D02*
X66401D01*
X65901Y-66062D02*
X73453Y-73614D01*
Y-67744D02*
X78515D01*
X73453Y-73988D02*
Y-67744D01*
X72953Y-66614D02*
X79015D01*
X73453Y-73614D02*
X73826Y-73988D01*
X73453D02*
X74266D01*
X65901Y-69212D02*
Y-62232D01*
X65535Y-69212D02*
X65901D01*
X65462Y-69662D02*
X65535Y-69291D01*
X65252Y-69976D02*
X65462Y-69662D01*
X62496Y-72732D02*
X65252Y-69976D01*
X62182Y-72942D02*
X62496Y-72732D01*
X61811Y-73016D02*
X62182Y-72942D01*
X57641Y-73016D02*
X61811D01*
X57641Y-73956D02*
Y-73016D01*
X56960Y-73956D02*
X57641D01*
X56960Y-77622D02*
X61567Y-73016D01*
X56960Y-79771D02*
Y-73956D01*
X54992Y-79771D02*
X56960D01*
X59488Y-94894D02*
X76498Y-77884D01*
X56960Y-76920D02*
X74934Y-94894D01*
X69387D02*
X101981Y-62300D01*
X62584Y-72644D02*
X84833Y-94894D01*
X55007Y-89475D02*
X73453Y-71029D01*
X55007Y-93366D02*
Y-83760D01*
Y-84867D02*
X65034Y-94894D01*
X54985D02*
X84853D01*
X59835Y-99594D02*
X70477Y-110236D01*
X69734Y-99594D02*
X80376Y-110236D01*
X63945D02*
X74587Y-99594D01*
X44094D02*
X85827D01*
X49935D02*
X60577Y-110236D01*
X54045D02*
X64687Y-99594D01*
X54985Y-83760D02*
Y-79771D01*
X46189Y-93366D02*
Y-92866D01*
Y-93366D02*
X48212D01*
X43207Y-92866D02*
X45235Y-94894D01*
X43040Y-92866D02*
X46189D01*
X43040D02*
X45068Y-94894D01*
X27133Y-86691D02*
X50678Y-110236D01*
X48212Y-94894D02*
Y-93366D01*
X45068Y-94894D02*
X48212D01*
X54985D02*
Y-93366D01*
X44146Y-110236D02*
X54788Y-99594D01*
X34246Y-110236D02*
X44888Y-99594D01*
X34319Y-40867D02*
X38978Y-36208D01*
X33886Y-38138D02*
X34319D01*
Y-44379D02*
X38237Y-48297D01*
X34319Y-46169D02*
Y-38138D01*
X33400Y-36671D02*
X33743Y-37184D01*
X33886Y-37905D01*
X38237Y-49236D02*
Y-48245D01*
X34587Y-52043D02*
X36579Y-50052D01*
X33819Y-46169D02*
X34319D01*
X33819Y-52362D02*
Y-46169D01*
X32556Y-52362D02*
X33819D01*
X27182D02*
Y-46169D01*
X26941Y-52362D02*
Y-46169D01*
Y-48245D02*
X27182Y-48004D01*
X26941Y-46901D02*
X27182Y-47142D01*
X20303Y-52362D02*
X21566D01*
X20303D02*
Y-49621D01*
X27182Y-52362D02*
X28444D01*
X25678D02*
X26941D01*
X14798Y-50488D02*
X15319Y-49967D01*
X32692Y-52652D02*
X33768Y-53728D01*
X33748Y-58355D02*
X33748Y-54063D01*
X32780Y-58355D02*
X33748D01*
X31192Y-63792D02*
X32780Y-62205D01*
Y-66385D02*
Y-58355D01*
X31192Y-66015D02*
Y-57985D01*
Y-61052D02*
X32780Y-62640D01*
X23641Y-57985D02*
X31192D01*
X30692Y-72069D02*
Y-66015D01*
X27101Y-57985D02*
X29472Y-55613D01*
X25293Y-55153D02*
X28125Y-57985D01*
X23641Y-66015D02*
X24056D01*
X23641Y-66606D02*
Y-66015D01*
X17792Y-57394D02*
X21303Y-53882D01*
X15591Y-55350D02*
X17635Y-57394D01*
X23641Y-57985D02*
Y-57394D01*
X13961Y-47993D02*
X14915Y-48947D01*
X13961Y-50291D02*
Y-47993D01*
X181Y-52362D02*
Y-46169D01*
X-181D02*
X181D01*
X-181D02*
X181D01*
X-181Y-49477D02*
X181Y-49840D01*
X12855Y-57394D02*
X23641D01*
X181Y-52362D02*
X1444D01*
X-2007Y-57394D02*
X1241Y-54146D01*
X-181Y-52362D02*
Y-46169D01*
X-1444Y-52362D02*
X-181D01*
X-5724Y-52741D02*
Y-52362D01*
Y-55118D02*
Y-54259D01*
X5524Y-57394D02*
Y-54694D01*
X-2893Y-58280D02*
X-2007Y-57394D01*
X12855Y-63650D02*
Y-57394D01*
X12192Y-63650D02*
Y-55517D01*
X-2893Y-57394D02*
X5524D01*
X-3718Y-55840D02*
X-2164Y-57394D01*
X-2893Y-66606D02*
Y-57394D01*
X12192Y-62993D02*
X12855Y-62331D01*
X12192Y-61851D02*
X12855Y-62513D01*
X12192Y-63650D02*
X12855D01*
X-3808Y-67434D02*
Y-61241D01*
X-4777Y-60164D02*
X-2893Y-58280D01*
X-5070Y-61241D02*
X-3808D01*
Y-65650D02*
X-2893Y-66564D01*
X-7497Y-57782D02*
X-6354Y-56638D01*
X-9661Y-59946D02*
X-9447Y-59731D01*
X-9661Y-61241D02*
Y-59946D01*
Y-61241D02*
X-9182D01*
X-10445Y-67434D02*
Y-64666D01*
X32780Y-66385D02*
X33280D01*
Y-72578D02*
Y-66385D01*
X30692Y-66015D02*
X31192D01*
X30692Y-70452D02*
X32314Y-72073D01*
X33280Y-72578D02*
X39130D01*
X32676Y-72209D02*
X33280Y-71604D01*
X34226Y-73985D02*
X39130Y-78889D01*
X29784Y-79839D02*
X32018Y-77605D01*
X24056Y-72208D02*
Y-66015D01*
Y-72208D02*
X25318D01*
X23641Y-71343D02*
X24056Y-70929D01*
X23641Y-76055D02*
Y-66843D01*
X29430Y-72208D02*
X30318D01*
X29982Y-79641D02*
X30266Y-79924D01*
X23641Y-73300D02*
X26659Y-76317D01*
X23931Y-79045D02*
X27281Y-75695D01*
X39728Y-83958D02*
X40098Y-84032D01*
X39413Y-83748D02*
X39728Y-83958D01*
X40098Y-84032D02*
X41168D01*
X40423Y-84260D02*
X40652Y-84032D01*
X39204Y-83434D02*
X39413Y-83748D01*
X32280Y-81939D02*
X39209Y-88868D01*
X32329Y-82156D02*
X39209Y-89035D01*
Y-84260D02*
X41168D01*
X29006Y-85479D02*
X42431Y-98904D01*
X39209Y-89035D02*
Y-84260D01*
X22183Y-91641D02*
X40778Y-110236D01*
X32479Y-82305D02*
X39130Y-75654D01*
Y-83063D02*
X39204Y-83434D01*
X39130Y-83063D02*
Y-72578D01*
X23241Y-83936D02*
Y-80709D01*
X37429Y-87255D02*
X39209Y-85474D01*
X21320Y-93463D02*
X29155Y-85628D01*
X24347Y-110236D02*
X39055Y-95528D01*
X16965Y-66606D02*
X23641D01*
X18242Y-66843D02*
X18479Y-66606D01*
X16956Y-66615D02*
X17184Y-66843D01*
X16728D02*
X16965Y-66606D01*
X3782Y-66843D02*
X4019Y-66606D01*
X-2893D02*
X4019D01*
X16728Y-66843D02*
X23641D01*
X12855Y-76055D02*
X23641D01*
X11000Y-68350D02*
X12855D01*
X8857Y-68415D02*
X12855Y-72413D01*
X7893Y-69379D02*
X9480Y-67792D01*
X7893Y-76055D02*
Y-69379D01*
X-1557Y-66843D02*
X-1320Y-66606D01*
X-2852D02*
X-2615Y-66843D01*
X-2893D02*
X3782D01*
X-2893Y-69099D02*
Y-66843D01*
X-10944Y-67434D02*
X-10445D01*
X-12568Y-66789D02*
X-10944Y-68413D01*
Y-75464D02*
Y-67434D01*
X-3308Y-69099D02*
X-2893D01*
X-3308Y-68594D02*
X-2893Y-68180D01*
X-3308Y-73799D02*
X-2893D01*
X-3308Y-69099D02*
Y-67434D01*
Y-75464D02*
Y-73799D01*
X-3808Y-67434D02*
X-3308D01*
X-10944Y-75464D02*
X-3308D01*
X16497Y-76055D02*
X23241Y-82799D01*
X12855Y-76055D02*
Y-68350D01*
X17838Y-89338D02*
X23241Y-83936D01*
X15661Y-89223D02*
X23241Y-81644D01*
X6597Y-76055D02*
X18859Y-88317D01*
X-4102Y-89188D02*
X12855Y-72231D01*
X5105Y-89880D02*
X18930Y-76055D01*
X21162Y-92662D02*
X27250Y-86573D01*
X14447Y-110236D02*
X34105Y-90578D01*
X18873Y-98230D02*
X30879Y-110236D01*
X8569Y-97826D02*
X20980Y-110236D01*
X4547D02*
X15964Y-98820D01*
X-2893Y-76055D02*
X7893D01*
X1337Y-93648D02*
X2380Y-92605D01*
X-3893Y-75464D02*
X12270Y-91627D01*
X-2893Y-76055D02*
Y-73799D01*
X10850Y-94034D02*
X11723Y-93161D01*
X-1000Y-98156D02*
X11080Y-110236D01*
X-5352D02*
X6534Y-98350D01*
X-14681Y182811D02*
X-11791Y179921D01*
X-21766Y170335D02*
X-11821Y180279D01*
X-18266Y176497D02*
X190Y158041D01*
X-17283Y135220D02*
X-8099Y144404D01*
X-21852Y170183D02*
X-6762Y155093D01*
X-25438Y163869D02*
X-9139Y147571D01*
X-29023Y157555D02*
X9193Y119340D01*
X-18527Y127260D02*
X9193Y99541D01*
X-19678Y122925D02*
X-2919Y139683D01*
X-24707Y113641D02*
X9193Y79742D01*
X-20844Y119678D02*
X9193Y89641D01*
X-30361Y109395D02*
X9193Y69842D01*
X-30360Y109395D02*
X9193Y69842D01*
X-32150Y101286D02*
X9193Y59943D01*
X-24828Y127674D02*
X-23254Y129249D01*
X-25593Y117010D02*
X-24619Y117984D01*
X-12874Y46630D02*
Y52047D01*
X-20303Y49841D02*
X-16615Y46152D01*
X-19804Y43604D02*
X-12874Y50533D01*
X-20590Y52716D02*
X9193Y82499D01*
X-21566Y52716D02*
X-20303D01*
X-20590D02*
X9193Y82499D01*
X-12972Y39193D02*
Y43274D01*
X-20303Y46523D02*
X-19804D01*
Y38493D02*
Y46523D01*
X-20303D02*
Y52716D01*
X-26941D02*
X-25678D01*
X-26941Y46523D02*
Y52716D01*
X-27441Y46523D02*
X-26941D01*
X-27441Y45937D02*
Y46523D01*
X-34777Y147424D02*
X-8911Y173291D01*
X-36194Y144928D02*
X-23761Y132494D01*
X-32609Y151242D02*
X9193Y109440D01*
X-32378Y100326D02*
X2030Y134734D01*
X-47787Y124514D02*
X-2730Y169571D01*
X-39780Y138614D02*
X-27683Y126517D01*
X-60798Y101604D02*
X16755Y179157D01*
X-32628Y109975D02*
X-32364Y110239D01*
X-32378Y90426D02*
X6980Y129784D01*
X-43366Y132300D02*
X-30060Y118994D01*
X-46951Y125986D02*
X-34306Y113340D01*
X-46951Y125986D02*
X-34306Y113340D01*
X-41196Y101407D02*
X-38990Y103613D01*
X-50537Y119672D02*
X-38755Y107890D01*
X-54123Y113358D02*
X-41866Y101102D01*
X-57708Y107044D02*
X-43621Y92957D01*
X-36678Y100777D02*
Y101166D01*
X-43941Y83378D02*
X-41678Y81114D01*
Y92117D02*
Y92505D01*
X-32378Y60728D02*
X9193Y102298D01*
X-32378Y91613D02*
X990Y58246D01*
X-32378Y50828D02*
X9193Y92399D01*
X-32378Y44606D02*
Y101166D01*
Y80527D02*
X9193Y122097D01*
X-73809Y78694D02*
X-29368Y123134D01*
X-32378Y70627D02*
X9193Y112197D01*
X-32378Y81714D02*
X-10088Y59424D01*
X-32378Y71814D02*
X-12610Y52047D01*
X-32157Y45937D02*
X-27441D01*
X-32157Y42106D02*
Y45937D01*
X-32378Y61915D02*
X-25595Y55132D01*
X-32378Y52015D02*
X-26941Y46578D01*
X-49250Y68887D02*
X-41678Y61315D01*
X-47194Y75610D02*
X-41678Y81126D01*
Y23779D02*
Y84268D01*
X-52651Y62389D02*
X-41678Y51416D01*
X-56585Y56319D02*
X-41678Y71227D01*
X-64880Y94417D02*
X-41678Y71215D01*
X-86820Y55783D02*
X-44081Y98522D01*
X-43780Y43619D02*
X-41678Y41516D01*
X-43780Y40134D02*
Y47771D01*
X-45335D02*
X-41678Y51428D01*
X-51811Y47771D02*
X-43780D01*
X-55734Y47271D02*
X-41678Y61327D01*
X-12972Y39193D02*
Y41515D01*
X-13415Y42952D02*
X-12972Y42509D01*
X-12972Y34980D02*
Y39193D01*
X-18529Y34979D02*
X-12972Y40536D01*
X-21189Y38493D02*
X-19804D01*
Y39441D02*
X-15463Y35101D01*
X-21654Y19304D02*
X-6693D01*
X-21272Y35088D02*
Y35395D01*
X-24373Y19235D02*
X-23466Y20142D01*
X-24400Y21077D02*
X-23317Y19994D01*
X-19465Y19304D02*
X-4850Y4689D01*
X-24387Y9321D02*
X-14405Y19304D01*
X-22497Y-8587D02*
X-4850Y9060D01*
X-24395Y14334D02*
X-4850Y-5211D01*
X-24379Y4419D02*
X-9143Y-10817D01*
X-24366Y-5494D02*
X-19043Y-10817D01*
X-14827D02*
X-4850Y-840D01*
X-20049Y-10817D02*
X-8233D01*
X-32657Y35453D02*
X-32112D01*
X-32657Y42106D02*
X-32157D01*
X-32657Y35453D02*
Y42106D01*
X-33178Y42916D02*
X-32368Y42106D01*
X-35252Y38055D02*
X-32657Y40650D01*
X-35252Y38055D02*
X-32657Y40650D01*
X-31878Y29528D02*
Y32640D01*
X-31187Y27864D02*
X-29386Y26063D01*
X-35252Y28155D02*
X-31878Y31530D01*
X-35252Y35090D02*
X-31878Y31716D01*
X-32677Y26063D02*
X-29386D01*
X-35252Y40842D02*
X-33007Y43086D01*
X-44945Y40134D02*
X-43780D01*
X-35252Y26481D02*
Y40842D01*
X-44945Y38299D02*
Y40134D01*
X-44946Y38260D02*
X-41678Y41528D01*
X-35252Y26481D02*
X-34543Y25772D01*
X-45296Y35235D02*
X-41678Y31617D01*
X-34543Y25772D02*
X-33832D01*
X-45296Y28011D02*
X-41678Y31629D01*
X-45296Y28011D02*
X-41678Y31629D01*
X-24996Y-1187D02*
X-1926Y21883D01*
X-41048Y22259D02*
X-39355Y20567D01*
X-35755Y-23803D02*
X-34875Y-24683D01*
X-33738Y-25820D02*
X-33268Y-26290D01*
X-56693Y-23803D02*
X-35111D01*
X-40595Y-26685D02*
X-37713Y-23803D01*
X-40715Y-28743D02*
X-38218Y-31240D01*
X-45296Y24555D02*
Y36930D01*
Y25335D02*
X-40352Y20392D01*
X-45296Y18111D02*
X-41097Y22310D01*
X-50296Y22350D02*
X-45296D01*
Y17789D02*
Y22350D01*
X-45654Y-23803D02*
X-44491Y-24967D01*
X-52362Y-25209D02*
X-44919D01*
X-47636Y-29909D02*
X-44919D01*
X-56596Y56435D02*
X-47932Y47771D01*
X-51811Y40134D02*
Y40634D01*
Y47271D02*
Y47771D01*
X-50645Y39479D02*
Y40134D01*
X-51811D02*
X-50645D01*
X-52538Y40634D02*
X-51811D01*
X-58004Y47271D02*
X-51811D01*
X-52538Y39500D02*
Y40634D01*
X-54390Y68414D02*
X-53802Y69002D01*
X-61125Y51064D02*
X-57332Y47271D01*
X-57768Y40634D02*
X-56438D01*
Y39967D02*
Y40634D01*
X-58004Y40714D02*
Y47271D01*
X-51842Y37704D02*
X-51481D01*
X-51988Y24555D02*
X-45296D01*
X-51988D02*
Y25055D01*
X-50957Y22350D02*
X-48752Y24555D01*
X-50957Y22350D02*
X-48752Y24555D01*
X-56988Y22350D02*
X-50296D01*
X-55796Y25055D02*
X-51988D01*
Y22350D02*
X-50296D01*
X-56488Y25055D02*
X-55796D01*
X-56488D02*
X-55796D01*
X-54915D02*
X-52209Y22350D01*
X-56988Y22350D02*
X-55296D01*
X-60796Y25055D02*
X-56488D01*
X-60856Y22350D02*
X-58151Y25055D01*
X-60296Y22350D02*
X-56988D01*
X-61294Y100731D02*
X-49342Y88779D01*
X-68465Y88103D02*
X-55756Y75394D01*
X-72051Y81789D02*
X-58594Y68332D01*
X-62096Y60708D02*
X-60266Y62538D01*
X-82808Y62848D02*
X-60185Y40225D01*
X-75637Y75475D02*
X-60888Y60726D01*
X-99830Y32873D02*
X-47949Y84755D01*
X-61488Y37204D02*
X-60796D01*
X-61488D02*
X-60796D01*
X-65796D02*
X-61488D01*
X-65801D02*
X-58004Y45001D01*
X-86438Y26467D02*
X-61831Y51073D01*
X-66488Y37204D02*
X-65796D01*
X-79222Y69161D02*
X-66259Y56198D01*
X-71488Y37204D02*
X-66488D01*
X-71488Y25772D02*
Y37204D01*
X-86393Y56534D02*
X-67064Y37204D01*
X-89979Y50220D02*
X-71488Y31729D01*
X-97150Y37592D02*
X-85952Y26394D01*
X-66488Y37204D02*
X-65796D01*
X-72047Y25772D02*
X-71488D01*
X-61488Y25055D02*
X-60796D01*
X-63353D02*
X-61488D01*
X-63353D02*
X-62121Y23823D01*
X-76323Y22386D02*
X-73567Y25142D01*
X-82080Y20925D02*
X-71488Y31517D01*
X-93565Y43906D02*
X-74184Y24526D01*
X-112841Y9963D02*
X-66220Y56585D01*
X-61492Y22350D02*
X-60296D01*
X-61488Y25055D02*
X-60796D01*
X-61492Y22350D02*
X-60296D01*
X-83842Y24284D02*
X-77933Y18374D01*
X-104322Y24964D02*
X-88764Y9407D01*
X-100736Y31278D02*
X-88764Y19307D01*
X-125852Y-12947D02*
X-89459Y23446D01*
X-77933Y21043D02*
X-76946D01*
X-77933Y14390D02*
Y21043D01*
X-107907Y18651D02*
X-95527Y6270D01*
X-88764Y5211D02*
Y21751D01*
X-66492Y9201D02*
X-65792D01*
X-66492D02*
X-65792D01*
Y-3926D02*
Y9201D01*
X-66492Y-2066D02*
Y9201D01*
X-77933Y12456D02*
Y14390D01*
Y16712D01*
X-66492Y6815D02*
X-65792Y7515D01*
X-66492Y6815D02*
X-65792Y7515D01*
X-66085Y-2678D02*
X-65792Y-2385D01*
X-66492Y6934D02*
X-65792Y6234D01*
X-66492Y-12984D02*
X-65792Y-12284D01*
X-79008Y14098D02*
X-77933Y15173D01*
X-90205Y948D02*
X-88764Y-493D01*
X-97841Y-4735D02*
X-92833Y273D01*
X-90940Y-7734D02*
X-88764Y-5558D01*
X-90952Y-8205D02*
X-88764Y-10392D01*
X-95983Y-12777D02*
X-94896Y-11690D01*
X-49018Y-25209D02*
X-47613Y-23803D01*
X-55554D02*
X-53718Y-25639D01*
X-65162Y-16225D02*
X-58213Y-23174D01*
X-66781Y-22475D02*
X-58692Y-30565D01*
X-51389Y-29909D02*
X-50789D01*
X-58747Y-30620D02*
X-54026Y-25899D01*
X-66492Y-12865D02*
X-65792Y-13565D01*
X-88764Y-14070D02*
Y2924D01*
X-65792Y-14705D02*
Y-3948D01*
X-66492Y-21398D02*
Y-5808D01*
X-95623Y-13433D02*
X-91875Y-17181D01*
X-92434Y-17740D02*
X-88764Y-14070D01*
X-103961Y-956D02*
X-88764Y14241D01*
X-102490Y-9385D02*
X-100777Y-7671D01*
X-101309Y-7746D02*
X-97432Y-11623D01*
X-111493Y12337D02*
X-95086Y-4070D01*
X-101184Y-17978D02*
X-100609Y-17403D01*
X-104932Y-14024D02*
X-100788Y-18167D01*
X-115079Y6023D02*
X-105384Y-3672D01*
X-118664Y-291D02*
X-108779Y-10176D01*
X-122250Y-6605D02*
X-112904Y-15950D01*
X-107436Y-14330D02*
X-106883Y-13778D01*
X-114314Y-21208D02*
X-112694Y-19588D01*
X-99285Y-19670D02*
X-96825Y-22130D01*
X-99945Y-25251D02*
X-96433Y-21739D01*
X-107824Y-21031D02*
X-106304Y-22550D01*
X-113594Y-30389D02*
X-106164Y-22958D01*
X-103668Y-25187D02*
X-100575Y-28279D01*
X-125836Y-12919D02*
X-116168Y-22586D01*
X-129421Y-19232D02*
X-120081Y-28573D01*
X-111577Y-27177D02*
X-109832Y-28922D01*
X-25199Y-40988D02*
X-23803Y-39592D01*
X-32224Y-37233D02*
X-31987Y-37471D01*
X-27441Y-44871D02*
X-23803Y-38571D01*
Y-41629D02*
Y-38571D01*
X-34055Y-41052D02*
X-31338Y-36347D01*
X-41024Y-34046D02*
X-33016Y-26039D01*
X-38381Y-43390D02*
X-31338Y-36347D01*
X-26396Y-43062D02*
X-25816Y-43642D01*
X-34055Y-41052D02*
X-33622Y-41302D01*
X-27111Y-44936D02*
X-23803Y-41629D01*
X-27874Y-44621D02*
X-27441Y-44871D01*
X-37174Y-42183D02*
X-35244Y-44113D01*
X-46368Y-32458D02*
X-44181Y-30272D01*
X-41024Y-34046D02*
Y-33524D01*
X-46435Y-32922D02*
X-45833Y-33524D01*
X-46647D02*
X-41024D01*
X-51023Y-37976D02*
Y-34484D01*
X-41024Y-44020D02*
X-39902D01*
X-51361Y-37452D02*
X-51023Y-37114D01*
X-41024Y-45216D02*
Y-44020D01*
X-51023Y-45216D02*
Y-40216D01*
X-30970Y-49984D02*
X-27874Y-44621D01*
X-36718Y-46666D02*
X-33622Y-41302D01*
X-47265Y-53154D02*
X-32541Y-38430D01*
X-27741Y-48322D02*
Y-46457D01*
X-30386Y-48972D02*
X-29388Y-49969D01*
X-33768Y-54350D02*
X-27741Y-48322D01*
X-32064Y-49353D02*
X-30970Y-49984D01*
X-40500Y-54350D02*
X-33768D01*
X-36718Y-46666D02*
X-35625Y-47297D01*
X-38561Y-54350D02*
X-35568Y-51357D01*
X-50500Y-53154D02*
X-40500D01*
X-51023Y-45216D02*
X-41024D01*
X-44041D02*
X-34907Y-54350D01*
X-40500D02*
Y-53154D01*
X-50500Y-58154D02*
Y-53154D01*
Y-59846D02*
Y-58154D01*
Y-59846D02*
Y-58154D01*
Y-64846D02*
Y-63154D01*
Y-59846D01*
Y-64846D02*
Y-63154D01*
X-54737Y-33257D02*
X-51389Y-29909D01*
X-54737Y-37243D02*
Y-33257D01*
X-71524Y-37815D02*
X-57394Y-23686D01*
X-71524Y-39024D02*
Y-34024D01*
X-77632D02*
X-62498Y-18890D01*
X-78228Y-34024D02*
X-67121Y-22918D01*
X-71680Y-27476D02*
X-59437Y-39720D01*
X-54737Y-34520D02*
X-52553Y-36703D01*
X-54737Y-44420D02*
X-46002Y-53154D01*
X-54737Y-50726D02*
X-49226Y-45216D01*
X-77463Y-53654D02*
X-59437Y-35627D01*
X-71524Y-37532D02*
X-59437Y-49619D01*
X-80000Y-53654D02*
X-71000D01*
X-71524Y-39716D02*
Y-39024D01*
Y-39716D02*
Y-39024D01*
X-78228Y-34024D02*
X-71524D01*
X-76630Y-32426D02*
X-75032Y-34024D01*
X-71524Y-44716D02*
Y-39716D01*
X-80523Y-44716D02*
X-71524D01*
X-80527Y-46819D02*
X-78425Y-44716D01*
X-80527Y-48327D02*
X-75201Y-53654D01*
X-54737Y-54319D02*
X-50500Y-58556D01*
X-71000Y-58654D02*
Y-53654D01*
X-54737Y-88545D02*
Y-40710D01*
X-59437Y-88545D02*
Y-32283D01*
X-74239Y-44716D02*
X-59437Y-59518D01*
X-71000Y-57091D02*
X-59437Y-45527D01*
X-181102Y-110236D02*
X0Y208661D01*
X-54737Y-60626D02*
X-50500Y-56389D01*
X-71000Y-59346D02*
Y-58654D01*
Y-57854D02*
X-59437Y-69418D01*
X-71000Y-66990D02*
X-59437Y-55427D01*
X-71000Y-59346D02*
Y-58654D01*
Y-63654D02*
Y-59346D01*
X-80000D02*
Y-58654D01*
Y-53654D01*
X-80529Y-56719D02*
X-80000Y-56191D01*
X-80901Y-57853D02*
X-80000Y-58754D01*
Y-59346D02*
Y-58654D01*
Y-63654D02*
Y-59346D01*
Y-64346D02*
Y-63654D01*
Y-64346D02*
Y-63654D01*
X-85824Y-62829D02*
X-80000Y-68654D01*
X-50500Y-69846D02*
Y-68154D01*
Y-64846D01*
X-15571Y-70958D02*
X-10445Y-65831D01*
X-16200Y-70422D02*
X-10445Y-64666D01*
X-50500Y-69846D02*
Y-68154D01*
X-54737Y-64218D02*
X-50500Y-68455D01*
X-54737Y-70525D02*
X-50500Y-66289D01*
Y-73154D02*
Y-69846D01*
Y-74846D02*
Y-73154D01*
X-54737Y-80425D02*
X-50500Y-76188D01*
Y-79846D02*
Y-78154D01*
Y-83154D02*
Y-79846D01*
X-71000Y-69346D02*
Y-68654D01*
Y-69346D02*
Y-68654D01*
X-50500Y-74846D02*
Y-73154D01*
X-71000Y-73654D02*
Y-69346D01*
Y-64346D02*
Y-63654D01*
Y-64346D02*
Y-63654D01*
Y-68654D02*
Y-64346D01*
X-50500Y-79846D02*
Y-78154D01*
Y-74846D01*
Y-84846D02*
Y-83154D01*
Y-84846D02*
Y-83154D01*
X-54737Y-74118D02*
X-50500Y-78355D01*
X-71000Y-74346D02*
Y-73654D01*
Y-86789D02*
X-59437Y-75226D01*
X-15161Y-74096D02*
X2674Y-91931D01*
X-22467Y-76689D02*
X-7656Y-91500D01*
X-27417Y-81639D02*
X1181Y-110236D01*
X-35050D02*
X-869Y-76055D01*
X-44950Y-110236D02*
X-10178Y-75464D01*
X-38799Y-93020D02*
X-20130Y-74351D01*
X-54849Y-110236D02*
X-19593Y-74980D01*
X-32367Y-86588D02*
X-8719Y-110236D01*
X-37317Y-91538D02*
X-18618Y-110236D01*
X-15251D02*
X-3852Y-98837D01*
X-25151Y-110236D02*
X-8313Y-93398D01*
X-43908Y-94846D02*
X-28518Y-110236D01*
X-55903Y-92750D02*
X-38417Y-110236D01*
X-54254Y-89842D02*
X-50500Y-86087D01*
Y-88154D02*
Y-84846D01*
Y-89846D02*
Y-88154D01*
Y-89846D02*
Y-88154D01*
X-54737Y-84017D02*
X-50500Y-88254D01*
X-71000Y-77653D02*
X-59679Y-88974D01*
X-40500Y-94846D02*
Y-93650D01*
X-50500Y-94846D02*
Y-89846D01*
Y-94846D02*
X-40500D01*
X-64749Y-110236D02*
X-49359Y-94846D01*
X-71000Y-74346D02*
Y-73654D01*
Y-67754D02*
X-59437Y-79317D01*
X-71000Y-76890D02*
X-59437Y-65326D01*
X-71000Y-79346D02*
Y-78654D01*
Y-74346D01*
Y-83654D02*
Y-79346D01*
Y-78654D01*
X-80000Y-69346D02*
Y-68654D01*
Y-64346D01*
Y-74346D02*
Y-73654D01*
Y-69346D02*
Y-68654D01*
Y-73654D02*
Y-69346D01*
X-86674Y-72764D02*
X-80000Y-66090D01*
X-85603Y-72950D02*
X-80000Y-78553D01*
Y-78654D02*
Y-74346D01*
Y-73654D01*
Y-79346D02*
Y-78654D01*
Y-83654D02*
Y-79346D01*
Y-78654D01*
Y-84346D02*
Y-83654D01*
X-71000Y-84346D02*
Y-83654D01*
Y-84346D02*
Y-83654D01*
Y-89346D02*
Y-88654D01*
Y-84346D01*
Y-87553D02*
X-48317Y-110236D01*
X-84548D02*
X-59437Y-85125D01*
X-71000Y-94346D02*
Y-89346D01*
Y-88654D01*
X-74648Y-110236D02*
X-57402Y-92990D01*
X-74107Y-94346D02*
X-58216Y-110236D01*
X-85603Y-92749D02*
X-68116Y-110236D01*
X-80000Y-94346D02*
X-71000D01*
X-181102Y-110236D02*
X181102D01*
X-80000Y-84346D02*
Y-83654D01*
Y-89346D02*
Y-88654D01*
Y-84346D01*
X-92522Y-88512D02*
X-80000Y-75990D01*
X-88051Y-80401D02*
X-80000Y-88453D01*
X-85603Y-91492D02*
X-80000Y-85889D01*
X-92102Y-96149D02*
X-78015Y-110236D01*
X-80000Y-94346D02*
Y-89346D01*
X-94447Y-110236D02*
X-78557Y-94346D01*
X-106982Y-33675D02*
X-100575Y-27269D01*
X-106982Y-33675D02*
X-100575Y-27269D01*
Y-34543D02*
Y-26772D01*
X-107157Y-31597D02*
X-102393Y-36361D01*
X-80523Y-39716D02*
Y-39024D01*
Y-36320D01*
Y-44716D02*
Y-39716D01*
Y-39024D01*
X-109758Y-38895D02*
X-107343Y-41311D01*
X-114682Y-33972D02*
X-114249Y-34405D01*
X-118903Y-35697D02*
X-118148Y-34942D01*
X-112549Y-39243D02*
X-111979Y-38672D01*
X-112549Y-39243D02*
X-111979Y-38672D01*
X-118573Y-39980D02*
X-117600Y-40953D01*
X-80527Y-56642D02*
Y-36324D01*
X-87271Y-64276D02*
X-81157Y-58162D01*
X-113425Y-45129D02*
X-112293Y-46260D01*
X-114568Y-48535D02*
X-100575Y-34543D01*
X-87271Y-72764D02*
X-85603D01*
X-87271D02*
Y-64276D01*
X-85603Y-80401D02*
Y-72764D01*
X-87271Y-71282D02*
X-85789Y-72764D01*
X-112480Y-80283D02*
Y-75363D01*
X-117353Y-80237D02*
X-112480Y-75363D01*
X-114040Y-80331D02*
X-112480Y-78771D01*
X-118278Y-44971D02*
X-117167Y-43861D01*
X-118278Y-44971D02*
X-117167Y-43861D01*
X-118907Y-70766D02*
X-113759Y-65619D01*
Y-68090D02*
Y-65619D01*
X-119159Y-57758D02*
X-115916D01*
X-119838Y-58514D02*
X-118255Y-60097D01*
X-121318Y-63159D02*
X-115916Y-57758D01*
X-112583Y-69385D02*
Y-68090D01*
X-113759D02*
X-112583D01*
X-118196Y-70056D02*
X-115725Y-72527D01*
X-121599Y-78401D02*
X-112583Y-69385D01*
X-138863Y-35858D02*
X-104556Y-1551D01*
X-151873Y-58768D02*
X-116572Y-23466D01*
X-122827Y-49521D02*
X-122195Y-48888D01*
X-125978Y-49521D02*
X-122125D01*
X-133007Y-25546D02*
X-123207Y-35346D01*
X-124337Y-41131D02*
X-123596Y-40390D01*
X-122827Y-49521D02*
X-122195Y-48888D01*
X-136592Y-31860D02*
X-126978Y-41474D01*
X-140178Y-38174D02*
X-130313Y-48039D01*
X-143764Y-44488D02*
X-133550Y-54702D01*
X-129282Y-58969D02*
X-128730Y-59522D01*
X-129810Y-56503D02*
X-128779Y-55473D01*
X-123351Y-59944D02*
X-122802Y-59395D01*
X-129810Y-56503D02*
X-128779Y-55473D01*
X-122504Y-63159D02*
X-121318D01*
X-164884Y-81678D02*
X-128917Y-45711D01*
X-150935Y-57116D02*
X-123110Y-84941D01*
X-127033Y-71396D02*
X-120427D01*
X-126755D02*
X-120675Y-77477D01*
X-153844Y-110236D02*
X-112583Y-68975D01*
X-146233Y-92725D02*
X-124904Y-71396D01*
X-158106Y-69743D02*
X-117613Y-110236D01*
X-133852Y-63159D02*
X-129999D01*
X-147349Y-50802D02*
X-136643Y-61508D01*
X-154521Y-63429D02*
X-142643Y-75307D01*
X-157922Y-84615D02*
X-140389Y-67083D01*
X-137386Y-73979D02*
X-133824Y-70416D01*
X-157922Y-84615D02*
X-140389Y-67083D01*
X-161692Y-76057D02*
X-151554Y-86195D01*
X-91902Y-80401D02*
X-85603D01*
X-93240D02*
X-91902D01*
X-97951D02*
X-89840Y-88512D01*
X-93240Y-80401D02*
X-91902D01*
X-99539D02*
X-93240D01*
X-99539Y-80283D02*
X-98544D01*
X-102304Y-88394D02*
X-94311Y-80401D01*
X-93240Y-88512D02*
X-85603D01*
X-93240Y-89012D02*
Y-88512D01*
X-80000Y-89346D02*
Y-88654D01*
X-98544Y-89012D02*
X-93240D01*
X-104843Y-88394D02*
X-98544D01*
Y-89012D02*
Y-88394D01*
X-104843Y-80283D02*
X-99539D01*
X-106181D02*
X-104843D01*
X-107968D02*
X-99857Y-88394D01*
X-106181Y-80283D02*
X-104843D01*
X-112480D02*
X-106181D01*
X-112203Y-88394D02*
X-104092Y-80283D01*
X-106181Y-88394D02*
X-104843D01*
X-106181D02*
X-104843D01*
X-112480Y-88671D02*
X-112203Y-88394D01*
X-112480Y-89709D02*
Y-88394D01*
X-106181D01*
X-113294Y-84857D02*
X-109757Y-88394D01*
X-113072Y-89263D02*
X-112480Y-88671D01*
X-85603Y-96149D02*
Y-88512D01*
X-93720Y-95649D02*
X-93240D01*
Y-96149D02*
Y-95649D01*
X-98544D02*
X-97721D01*
X-102120Y-96031D02*
X-87915Y-110236D01*
X-93240Y-96149D02*
X-85603D01*
X-104347Y-110236D02*
X-90260Y-96149D01*
X-104843Y-96031D02*
X-98544D01*
X-108445Y-99606D02*
X-97814Y-110236D01*
X-98544Y-96031D02*
Y-95649D01*
X-99039D02*
X-98544D01*
X-105811Y-96031D02*
X-104843D01*
X-105811D02*
X-104843D01*
X-112480Y-95571D02*
X-112019Y-96031D01*
X-112480D02*
Y-92968D01*
X-114246Y-110236D02*
X-100041Y-96031D01*
X-105811Y-96764D02*
Y-96031D01*
X-111511Y-96764D02*
Y-96031D01*
X-112019D02*
X-111511Y-96539D01*
X-112480Y-96031D02*
X-111511D01*
X-117048Y-81103D02*
X-116353Y-81798D01*
X-117353Y-80237D02*
X-117048D01*
Y-83339D02*
X-116519Y-82811D01*
X-117548Y-90503D02*
X-116515Y-91536D01*
X-123110Y-87480D02*
X-117048D01*
X-117548Y-93739D02*
X-116249Y-92440D01*
X-123110Y-80237D02*
X-122229D01*
Y-79921D01*
X-117048Y-87480D02*
Y-80237D01*
X-120571Y-87480D02*
X-119440Y-88611D01*
X-150378Y-86971D02*
X-142627Y-79220D01*
X-165278Y-82371D02*
X-162103Y-85545D01*
X-123110Y-87480D02*
Y-80237D01*
X-122319Y-88611D02*
X-121188Y-87480D01*
X-122610Y-88611D02*
X-117548D01*
X-122610Y-88901D02*
X-122319Y-88611D01*
X-168863Y-88685D02*
X-167468Y-90080D01*
X-118360Y-94854D02*
X-117548D01*
Y-88611D01*
X-114370Y-93680D02*
X-112480Y-95571D01*
X-137413Y-80537D02*
X-122290Y-95660D01*
X-143945Y-110236D02*
X-122610Y-88901D01*
X-119282Y-98668D02*
X-107714Y-110236D01*
X-124146D02*
X-111414Y-97504D01*
X-122610Y-94854D02*
X-121797D01*
X-134045Y-110236D02*
X-121831Y-98022D01*
X-122610Y-94854D02*
Y-88611D01*
X-147219Y-90530D02*
X-127513Y-110236D01*
X-146569Y-101079D02*
X-137412Y-110236D01*
X-172449Y-94999D02*
X-169193Y-98254D01*
X-177895Y-104588D02*
X-169322Y-96016D01*
X-177895Y-104588D02*
X-169322Y-96016D01*
X-159278Y-108170D02*
X-157211Y-110236D01*
X-163744D02*
X-161212Y-107704D01*
X-151103Y-106445D02*
X-147312Y-110236D01*
X-176034Y-101312D02*
X-167111Y-110236D01*
X-179620Y-107626D02*
X-177010Y-110236D01*
X-173643D02*
X-166966Y-103559D01*
D11*
X-76024Y-36870D02*
D03*
Y-41870D02*
D03*
X-46024Y-36870D02*
D03*
Y-41870D02*
D03*
X-45500Y-91500D02*
D03*
Y-86500D02*
D03*
Y-81500D02*
D03*
Y-76500D02*
D03*
Y-71500D02*
D03*
Y-66500D02*
D03*
Y-61500D02*
D03*
Y-56500D02*
D03*
X-75500Y-91500D02*
D03*
Y-86500D02*
D03*
Y-81500D02*
D03*
Y-76500D02*
D03*
Y-71500D02*
D03*
Y-66500D02*
D03*
Y-61500D02*
D03*
Y-56500D02*
D03*
D12*
X2500Y-71449D02*
D03*
Y-62000D02*
D03*
X18248D02*
D03*
Y-71449D02*
D03*
D13*
X49598Y-69063D02*
D03*
D14*
X54520Y-76248D02*
D03*
X52551Y-76248D02*
D03*
X50583Y-76248D02*
D03*
X48614Y-76248D02*
D03*
X46646Y-76248D02*
D03*
X44677Y-76248D02*
D03*
X44677Y-61878D02*
D03*
X46646Y-61878D02*
D03*
X48614Y-61878D02*
D03*
X50583Y-61878D02*
D03*
X52551Y-61878D02*
D03*
X54520Y-61878D02*
D03*
D15*
X-89421Y-92331D02*
D03*
X-95720D02*
D03*
Y-76583D02*
D03*
X-89421D02*
D03*
X-102362Y-92213D02*
D03*
X-108661D02*
D03*
Y-76465D02*
D03*
X-102362D02*
D03*
D16*
X-68642Y15775D02*
D03*
Y31130D02*
D03*
X-63642D02*
D03*
X-63642Y15775D02*
D03*
X-58642Y15775D02*
D03*
X-58642Y31130D02*
D03*
X-53642D02*
D03*
Y15775D02*
D03*
X-48642Y15775D02*
D03*
Y31130D02*
D03*
D17*
X59055Y-13780D02*
D03*
X59055Y-20472D02*
D03*
X-23622Y49201D02*
D03*
X-23622Y42508D02*
D03*
X23622Y-48846D02*
D03*
Y-42153D02*
D03*
X30500Y-48846D02*
D03*
Y-42153D02*
D03*
X3500Y-48846D02*
D03*
Y-42153D02*
D03*
X-3500Y-48846D02*
D03*
Y-42153D02*
D03*
X2362Y51717D02*
D03*
Y45024D02*
D03*
X-4106Y51717D02*
D03*
Y45024D02*
D03*
X27374Y-68693D02*
D03*
Y-62000D02*
D03*
X-7126Y-64756D02*
D03*
Y-71449D02*
D03*
X36598Y-69063D02*
D03*
Y-62370D02*
D03*
D18*
X61598Y-65303D02*
D03*
Y-57823D02*
D03*
X62205Y-2165D02*
D03*
Y5315D02*
D03*
X9843Y48819D02*
D03*
Y41339D02*
D03*
D19*
X-9843Y53150D02*
D03*
Y49213D02*
D03*
D20*
X-29724Y23622D02*
D03*
Y21654D02*
D03*
Y19685D02*
D03*
Y17717D02*
D03*
Y15748D02*
D03*
Y13780D02*
D03*
Y11811D02*
D03*
Y9843D02*
D03*
Y7874D02*
D03*
Y5906D02*
D03*
Y3937D02*
D03*
Y1969D02*
D03*
Y0D02*
D03*
Y-1969D02*
D03*
Y-3937D02*
D03*
Y-5906D02*
D03*
Y-7874D02*
D03*
Y-9843D02*
D03*
Y-11811D02*
D03*
Y-13780D02*
D03*
Y-15748D02*
D03*
Y-17717D02*
D03*
Y-19685D02*
D03*
Y-21654D02*
D03*
Y-23622D02*
D03*
X29724D02*
D03*
Y-21654D02*
D03*
Y-19685D02*
D03*
Y-17717D02*
D03*
Y-15748D02*
D03*
Y-13780D02*
D03*
Y-11811D02*
D03*
Y-9843D02*
D03*
Y-7874D02*
D03*
Y-5906D02*
D03*
Y-3937D02*
D03*
Y-1969D02*
D03*
Y0D02*
D03*
Y1969D02*
D03*
Y3937D02*
D03*
Y5906D02*
D03*
Y7874D02*
D03*
Y9843D02*
D03*
Y11811D02*
D03*
Y13780D02*
D03*
Y15748D02*
D03*
Y17717D02*
D03*
Y19685D02*
D03*
Y21654D02*
D03*
Y23622D02*
D03*
D21*
X-23622Y-29724D02*
D03*
X-21654D02*
D03*
X-19685D02*
D03*
X-17717D02*
D03*
X-15748D02*
D03*
X-13780D02*
D03*
X-11811D02*
D03*
X-9843D02*
D03*
X-7874D02*
D03*
X-5906D02*
D03*
X-3937D02*
D03*
X-1969D02*
D03*
X0D02*
D03*
X1969D02*
D03*
X3937D02*
D03*
X5906D02*
D03*
X7874D02*
D03*
X9843D02*
D03*
X11811D02*
D03*
X13780D02*
D03*
X15748D02*
D03*
X17717D02*
D03*
X19685D02*
D03*
X21654D02*
D03*
X23622D02*
D03*
Y29724D02*
D03*
X21654D02*
D03*
X19685D02*
D03*
X17717D02*
D03*
X15748D02*
D03*
X13780D02*
D03*
X11811D02*
D03*
X9843D02*
D03*
X7874D02*
D03*
X5906D02*
D03*
X3937D02*
D03*
X1969D02*
D03*
X0D02*
D03*
X-1969D02*
D03*
X-3937D02*
D03*
X-5906D02*
D03*
X-7874D02*
D03*
X-9843D02*
D03*
X-11811D02*
D03*
X-13780D02*
D03*
X-15748D02*
D03*
X-17717D02*
D03*
X-19685D02*
D03*
X-21654D02*
D03*
X-23622D02*
D03*
D22*
X-54488Y43952D02*
D03*
X-47795Y43952D02*
D03*
X50193Y8500D02*
D03*
X43500D02*
D03*
X50193Y2500D02*
D03*
X43500D02*
D03*
X50000Y23622D02*
D03*
X43307D02*
D03*
X50193Y-4000D02*
D03*
X43500D02*
D03*
X42252Y-52063D02*
D03*
X48945D02*
D03*
D23*
X-32087Y-45281D02*
D03*
X-28740Y-39484D02*
D03*
D24*
X43118Y-88563D02*
D03*
X50598Y-88563D02*
D03*
D25*
X-120079Y-91732D02*
D03*
Y-83858D02*
D03*
X75984Y-70866D02*
D03*
X75984Y-62992D02*
D03*
D26*
X-74803Y17717D02*
D03*
X-74803Y13386D02*
D03*
X75984Y-57480D02*
D03*
X75984Y-53150D02*
D03*
X82086Y-54724D02*
D03*
X82087Y-50394D02*
D03*
X-9843Y42520D02*
D03*
X-9843Y38189D02*
D03*
X-29528Y43110D02*
D03*
X-29528Y38780D02*
D03*
D27*
X-110433Y-64961D02*
D03*
X-106102D02*
D03*
X86024Y21457D02*
D03*
X81693Y21457D02*
D03*
D28*
X75984Y13976D02*
D03*
X66535Y17717D02*
D03*
D29*
X75984Y21457D02*
D03*
D30*
X74606Y-43307D02*
D03*
X78347Y-33858D02*
D03*
X72638Y-4331D02*
D03*
X68898Y-13780D02*
D03*
D31*
X82087Y-43307D02*
D03*
X76378Y-13780D02*
D03*
D32*
X64055Y50395D02*
X67519Y52395D01*
X86024Y21457D02*
Y23736D01*
X90354Y21457D02*
Y23457D01*
X86024Y19177D02*
Y21457D01*
X90354Y21457D02*
X92354D01*
X90354Y19457D02*
Y21457D01*
X62055Y53859D02*
X64055Y50395D01*
X66055Y46931D01*
X60591Y48395D02*
X64055Y50395D01*
X55532Y23622D02*
X57531D01*
X55532D02*
Y25622D01*
X54815Y8500D02*
Y10500D01*
Y8500D02*
X56815D01*
X54815Y6500D02*
Y8500D01*
X50193D02*
Y11468D01*
X54815Y2500D02*
X56815D01*
X54815D02*
Y4500D01*
X62205Y-2165D02*
X66158D01*
X58252D02*
X62205D01*
X54815Y-4000D02*
Y-2000D01*
Y500D02*
Y2500D01*
Y-4000D02*
X56815D01*
X54815Y-6000D02*
Y-4000D01*
X50193Y-6968D02*
Y-4000D01*
X50000Y23622D02*
Y26591D01*
X2362Y56339D02*
Y58339D01*
Y56339D02*
X4362D01*
X362D02*
X2362D01*
X-9843Y57087D02*
X-7842D01*
X-4106Y56339D02*
Y58339D01*
X-9843Y57087D02*
Y59087D01*
X-11842Y57087D02*
X-9843D01*
X-4106Y56339D02*
X-2106D01*
X-6106D02*
X-4106D01*
X0Y21228D02*
Y23228D01*
X-12024Y53150D02*
X-9843D01*
X43331Y-14999D02*
X45331D01*
X43331D02*
Y-12999D01*
Y-16999D02*
Y-14999D01*
X41331D02*
X43331D01*
X0Y10000D02*
X2000D01*
X0D02*
Y12000D01*
Y8000D02*
Y10000D01*
X107087Y-25394D02*
X109087D01*
X107087Y-27394D02*
Y-25394D01*
Y-23394D01*
X82086Y-54724D02*
X84366D01*
X79807D02*
X82086D01*
X82087Y-59055D02*
X84087D01*
X82087Y-61055D02*
Y-59055D01*
X80087D02*
X82087D01*
X75984Y-70866D02*
Y-68094D01*
Y-70866D02*
X78165D01*
X75984Y-75590D02*
X77984D01*
X73984D02*
X75984D01*
Y-77591D02*
Y-75590D01*
X73803Y-70866D02*
X75984D01*
X61598Y-65303D02*
X65551D01*
X30500Y-48846D02*
X33468D01*
X27531D02*
X30500D01*
X23622D02*
X26591D01*
X30500Y-53500D02*
X32500D01*
X28500D02*
X30500D01*
Y-55500D02*
Y-53500D01*
X23622D02*
X25622D01*
X23622Y-55500D02*
Y-53500D01*
X21622D02*
X23622D01*
X532Y-48846D02*
X3500D01*
Y-55500D02*
Y-53500D01*
X1500D02*
X3500D01*
X-3500Y-48846D02*
X-532D01*
X-3500Y-53500D02*
X-1500D01*
X-5500D02*
X-3500D01*
Y-55500D02*
Y-53500D01*
X-7126Y-60102D02*
X-5126D01*
X-7126D02*
Y-58102D01*
X-9126Y-60102D02*
X-7126D01*
Y-64756D02*
X-4157D01*
X-10095D02*
X-7126D01*
X33630Y-69063D02*
X36598D01*
Y-72228D02*
Y-69063D01*
X27374Y-68693D02*
X30343D01*
X24406D02*
X27374D01*
Y-75346D02*
Y-73347D01*
X25374D02*
X27374D01*
X39559Y-88563D02*
X43118D01*
Y-92516D02*
Y-88563D01*
X6500Y-94000D02*
Y-90000D01*
Y-94000D02*
X10500D01*
X6500Y-98000D02*
Y-94000D01*
X2500D02*
X6500D01*
X-19528Y131494D02*
X-16063Y129494D01*
X-19528Y131494D02*
X-17528Y134958D01*
X-21528Y128030D02*
X-19528Y131494D01*
X-22992Y133494D02*
X-19528Y131494D01*
X-14567Y45000D02*
Y47000D01*
Y43000D02*
Y45000D01*
X-16567D02*
X-14567D01*
X-23622Y53854D02*
X-21622D01*
X-23622D02*
Y55854D01*
X-25622Y53854D02*
X-23622D01*
X-23622Y49201D02*
X-20654D01*
X-26591D02*
X-23622D01*
X-29528Y43110D02*
Y45587D01*
X-31807Y43110D02*
X-29528D01*
X-29724Y0D02*
X-25181D01*
X-56417Y64566D02*
X-54417Y68030D01*
X-56417Y64566D02*
X-52953Y62566D01*
X-58417Y61102D02*
X-56417Y64566D01*
X-59881Y66566D02*
X-56417Y64566D01*
X-54488Y43952D02*
Y46921D01*
X-57654Y43952D02*
X-54488D01*
X-54642Y38452D02*
X-52642D01*
X-53642Y25405D02*
Y31130D01*
X-58642Y25405D02*
Y31130D01*
X-60642Y38452D02*
X-58642D01*
Y40452D01*
X-63642Y31130D02*
Y36854D01*
X-68642Y31130D02*
Y36854D01*
X-71138Y31130D02*
X-68642D01*
X-98693Y-14693D02*
X-97208Y-12122D01*
X-98693Y-14693D02*
X-96122Y-16177D01*
X-101263Y-13209D02*
X-98693Y-14693D01*
X-100177Y-17264D02*
X-98693Y-14693D01*
X-105512Y-10756D02*
X-104028Y-8185D01*
X-108083Y-9272D02*
X-105512Y-10756D01*
X-102941Y-12240D01*
X-106996Y-13327D02*
X-105512Y-10756D01*
X-106567Y-28331D02*
X-103996Y-29816D01*
X-106567Y-28331D02*
X-105082Y-25760D01*
X-113386Y-24394D02*
X-111902Y-21824D01*
X-113386Y-24394D02*
X-110815Y-25879D01*
X-115957Y-22910D02*
X-113386Y-24394D01*
X-109137Y-26847D02*
X-106567Y-28331D01*
X-108051Y-30902D02*
X-106567Y-28331D01*
X-114870Y-26965D02*
X-113386Y-24394D01*
X-53150Y-40976D02*
Y-38976D01*
Y-36976D01*
X-32087Y-45281D02*
X-29516Y-46765D01*
X-34657Y-43796D02*
X-32087Y-45281D01*
X-34413Y-49311D02*
X-32413D01*
X-36413D02*
X-34413D01*
Y-51311D02*
Y-49311D01*
X-76024Y-36870D02*
X-71874D01*
X-76024D02*
Y-34374D01*
X-80173Y-36870D02*
X-76024D01*
Y-41870D02*
X-71874D01*
X-80173D02*
X-76024D01*
Y-44366D02*
Y-41870D01*
X-75500Y-61500D02*
X-71350D01*
X-75500Y-56500D02*
X-71350D01*
X-75500D02*
Y-54004D01*
X-79650Y-56500D02*
X-75500D01*
X-79650Y-61500D02*
X-75500D01*
Y-66500D02*
X-71350D01*
X-79650Y-71500D02*
X-75500D01*
X-79650Y-66500D02*
X-75500D01*
Y-71500D02*
X-71350D01*
X-75500Y-76500D02*
X-71350D01*
X-79650D02*
X-75500D01*
Y-81500D02*
X-71350D01*
X-79650D02*
X-75500D01*
Y-86500D02*
X-71350D01*
X-79650D02*
X-75500D01*
Y-91500D02*
X-71350D01*
X-79650D02*
X-75500D01*
Y-93996D02*
Y-91500D01*
X-121260Y-38032D02*
X-119776Y-35462D01*
X-121260Y-38032D02*
X-118689Y-39517D01*
X-114441Y-41969D02*
X-111870Y-43454D01*
X-114441Y-41969D02*
X-112957Y-39399D01*
X-117011Y-40485D02*
X-114441Y-41969D01*
X-115925Y-44540D02*
X-114441Y-41969D01*
X-123831Y-36548D02*
X-121260Y-38032D01*
X-122744Y-40603D02*
X-121260Y-38032D01*
X-95720Y-92331D02*
Y-89362D01*
X-114173Y-84677D02*
Y-82677D01*
X-95720Y-96882D02*
X-93721D01*
X-95720Y-98882D02*
Y-96882D01*
X-97720D02*
X-95720D01*
X-114173Y-82677D02*
X-112173D01*
X-114173D02*
Y-80677D01*
X-116173Y-82677D02*
X-114173D01*
X-116173Y-91339D02*
X-114173D01*
Y-89339D01*
Y-93339D02*
Y-91339D01*
X-120079Y-91732D02*
Y-88961D01*
Y-91732D02*
X-117898D01*
X-122260D02*
X-120079D01*
X-120079Y-96457D02*
X-118079D01*
X-122079D02*
X-120079D01*
Y-98457D02*
Y-96457D01*
X-29528Y34252D02*
X-29528Y38780D01*
X-28740Y-39484D02*
X-23622Y-34366D01*
X28740Y-27559D02*
X31479Y-30298D01*
X75787Y-13189D02*
X76968D01*
X72441Y-9843D02*
X75787Y-13189D01*
X45276Y-9843D02*
X72441D01*
X29528Y29528D02*
X49213D01*
X43307Y13780D02*
X49213Y19685D01*
X29724Y13780D02*
X43307D01*
X49213Y19685D02*
X58661D01*
X75984Y8661D02*
Y13976D01*
X58661Y19685D02*
X69055Y30079D01*
X75984Y21457D02*
X81693D01*
X86024Y21457D02*
X90354D01*
X61417Y17717D02*
X66535D01*
X72638Y-4331D02*
Y197D01*
X53150Y-13780D02*
X68898D01*
X47244Y-19685D02*
X53150Y-13780D01*
X29724Y-19685D02*
X47244D01*
X59055Y-26378D02*
Y-20472D01*
X68898Y-43307D02*
X74606D01*
X66159Y-30298D02*
X74803Y-21654D01*
X31479Y-30298D02*
X66159D01*
X33858Y-33858D02*
X78347D01*
X82087Y-59055D02*
Y-54724D01*
X82087Y-50394D02*
Y-43307D01*
X-57087Y-90158D02*
Y-32283D01*
X-52362Y-27559D01*
X-43307D01*
X-29528Y29528D02*
Y34252D01*
X69055Y30079D02*
Y41735D01*
X-29528Y29528D02*
X-21654Y21654D01*
X-6693D01*
X-23622Y29724D02*
Y37008D01*
X6890Y-11811D02*
X17717Y-22638D01*
Y-29724D02*
Y-22638D01*
X19685Y-29724D02*
Y-13780D01*
X13780Y-7874D02*
X19685Y-13780D01*
X1969Y-7874D02*
X13780D01*
X1969Y-29724D02*
Y-16535D01*
X-2500Y-12067D02*
X1969Y-16535D01*
X-2500Y-12067D02*
Y13248D01*
X3937Y29724D02*
Y35827D01*
X9449Y41339D02*
X9843D01*
X3937Y35827D02*
X9449Y41339D01*
X-9843Y53150D02*
Y57087D01*
X2362Y37402D02*
Y39370D01*
X0Y35039D02*
X2362Y37402D01*
X0Y29724D02*
Y35039D01*
X-2500Y13248D02*
X3937Y19685D01*
X1969Y25197D02*
Y29724D01*
X0Y23228D02*
X1969Y25197D01*
X3937Y19685D02*
Y29724D01*
X37402Y23622D02*
X43307D01*
X29724D02*
X37402D01*
X-6693Y21654D02*
X-3937Y24409D01*
X-23622Y42508D02*
X-23622Y37008D01*
X-3937Y24409D02*
Y29724D01*
X22047Y17717D02*
X29724D01*
X15157Y10827D02*
X22047Y17717D01*
X6890Y10827D02*
X15157D01*
X0Y10000D02*
X4095Y5906D01*
X104331Y-78740D02*
Y-13780D01*
X25591Y-80709D02*
X31496Y-74803D01*
X25591Y-84909D02*
Y-80709D01*
X16500Y-94000D02*
X25591Y-84909D01*
X14567Y-45276D02*
X17717Y-48425D01*
X14567Y-45276D02*
Y-35827D01*
X15748Y-34646D01*
Y-29724D01*
X37402Y15748D02*
X39370Y17717D01*
X29724Y15748D02*
X37402D01*
X75984Y-75590D02*
Y-70866D01*
X75984Y-62992D02*
Y-57480D01*
X85827Y-97244D02*
X104331Y-78740D01*
X44094Y-97244D02*
X85827D01*
X29528Y-82677D02*
X44094Y-97244D01*
X75984Y-49213D02*
X75984Y-49213D01*
X75984Y-53150D02*
Y-49213D01*
X-74803Y9055D02*
Y13386D01*
X-34413Y-49311D02*
X-32087Y-45281D01*
X42252Y-52217D02*
Y-52063D01*
Y-52217D02*
X44598Y-54563D01*
X44677Y-61878D02*
Y-60642D01*
X42098Y-58063D02*
X44677Y-60642D01*
X46646Y-61878D02*
Y-59110D01*
Y-80516D02*
Y-76248D01*
X47693Y-81563D02*
X51598D01*
X44677Y-71984D02*
X47598Y-69063D01*
X44677Y-76248D02*
Y-71984D01*
X44598Y-57063D02*
X44598Y-54563D01*
X46646Y-80516D02*
X47693Y-81563D01*
X44598Y-57063D02*
X46646Y-59110D01*
X34937Y3937D02*
X39500Y8500D01*
X-23622Y-34366D02*
Y-29724D01*
X50193Y-4000D02*
X54815D01*
X50193Y2500D02*
X54815D01*
X50193Y8500D02*
X54815D01*
X39000Y-4000D02*
X43500D01*
X35000Y0D02*
X39000Y-4000D01*
X29724Y0D02*
X35000D01*
X29724Y3937D02*
X34937D01*
X-7126Y-71449D02*
X2500D01*
X18248Y-62000D02*
X27374D01*
Y-73347D02*
Y-68693D01*
X-7126Y-64756D02*
Y-60102D01*
X-4106Y51717D02*
Y56339D01*
X2362Y51717D02*
Y56339D01*
X9843Y48819D02*
Y53839D01*
X50000Y23622D02*
X55532D01*
X4095Y5906D02*
X29724D01*
X36468Y1969D02*
X36500Y2000D01*
X29724Y1969D02*
X36468D01*
X14248Y-66000D02*
X18248Y-62000D01*
X11000Y-66000D02*
X14248D01*
X9843Y-64842D02*
X11000Y-66000D01*
X9843Y-64842D02*
Y-29724D01*
X2500Y-71449D02*
X7874Y-66075D01*
Y-29724D01*
X30500Y-53500D02*
Y-48846D01*
X23622Y-53500D02*
Y-48846D01*
X-23622Y53854D02*
X-23622Y49201D01*
X-35906Y5906D02*
X-29724D01*
X-35969Y1969D02*
X-29724D01*
X-36000Y0D02*
X-29724D01*
X-35969Y-1969D02*
X-29724D01*
X-3500Y-53500D02*
Y-48846D01*
X3500Y-53500D02*
Y-48846D01*
X0Y-37500D02*
Y-29724D01*
X1969Y-34969D02*
X3500Y-36500D01*
Y-42153D02*
Y-36500D01*
X-3500D02*
X-1969Y-34969D01*
X-3500Y-42153D02*
Y-36500D01*
X-1969Y-34969D02*
Y-29724D01*
X1969Y-34969D02*
Y-29724D01*
D33*
X48945Y-52063D02*
X56598D01*
X57598Y-51063D01*
X61598Y-57823D02*
Y-55063D01*
X62205Y-7480D02*
Y-1472D01*
X-58642Y38452D02*
X-58642Y31130D01*
X-108661Y-96764D02*
Y-92213D01*
X47598Y-69063D02*
X49598D01*
X38598Y-52063D02*
X42252Y-52063D01*
X36598Y-54063D02*
X38598Y-52063D01*
X36598Y-69063D02*
X47598D01*
X36598Y-62370D02*
X36598Y-54063D01*
X43118Y-80083D02*
X43118Y-88563D01*
X-54488Y43952D02*
X-54488Y37799D01*
X62205Y5315D02*
Y10630D01*
X-95720Y-96882D02*
Y-92331D01*
X-53642Y36952D02*
X-53642Y31130D01*
X-54488Y37799D02*
X-53642Y36952D01*
X-48642Y31130D02*
X-48642Y37452D01*
X-47795Y38299D01*
Y43952D01*
D34*
X-8233Y-12967D02*
X-4121Y-17079D01*
X-21285Y-12967D02*
X-8233D01*
X-22441Y-11811D02*
X-21285Y-12967D01*
X-8896Y-14567D02*
X-5721Y-17742D01*
X-21260Y-14567D02*
X-8896D01*
X-22835Y-16142D02*
X-21260Y-14567D01*
X-26772Y-26772D02*
X-23622Y-23622D01*
X-26772Y-28740D02*
Y-26772D01*
X-39902Y-41870D02*
X-26772Y-28740D01*
X-29724Y-25787D02*
Y-23622D01*
X-40807Y-36870D02*
X-29724Y-25787D01*
X-46024Y-36870D02*
X-40807D01*
X-39528Y23779D02*
Y96853D01*
Y23779D02*
X-37402Y21654D01*
X-29724D01*
X-37402Y41732D02*
X-34528Y44606D01*
X-37402Y25591D02*
Y41732D01*
Y25591D02*
X-35433Y23622D01*
X-34528Y44606D02*
Y105513D01*
X-9843Y29724D02*
Y38189D01*
X62992Y79592D02*
Y86614D01*
X23622Y40222D02*
X62992Y79592D01*
X23622Y29724D02*
Y40222D01*
X-82677Y-56642D02*
Y-35433D01*
X-89421Y-63386D02*
X-82677Y-56642D01*
X-89421Y-76583D02*
Y-63386D01*
X-84646Y-53150D02*
Y-33465D01*
X-102362Y-70866D02*
X-84646Y-53150D01*
X-86614Y-49213D02*
Y-31496D01*
X-102362Y-64961D02*
X-86614Y-49213D01*
X-68642Y-21398D02*
Y-3937D01*
X-82677Y-35433D02*
X-68642Y-21398D01*
X-72835Y-21654D02*
Y3937D01*
X-84646Y-33465D02*
X-72835Y-21654D01*
X-76772Y-21654D02*
Y5906D01*
X-86614Y-31496D02*
X-76772Y-21654D01*
X-80709D02*
Y11811D01*
X-92520Y-33465D02*
X-80709Y-21654D01*
X-92520Y-41339D02*
Y-33465D01*
X-86614Y-14961D02*
Y23622D01*
X-98425Y-26772D02*
X-86614Y-14961D01*
X-98425Y-35433D02*
Y-26772D01*
X-84646Y-16535D02*
Y19685D01*
X-96457Y-28346D02*
X-84646Y-16535D01*
X-96457Y-37402D02*
Y-28346D01*
X-82677Y-19685D02*
Y15748D01*
X-94488Y-31496D02*
X-82677Y-19685D01*
X-94488Y-39370D02*
Y-31496D01*
X0Y148819D02*
X17717Y131102D01*
Y29724D02*
Y131102D01*
X-5721Y-25316D02*
Y-17742D01*
X-5906Y-25500D02*
X-5721Y-25316D01*
X-5906Y-29724D02*
Y-25500D01*
X-3937Y-29724D02*
Y-25500D01*
X-4121Y-25316D02*
Y-17079D01*
Y-25316D02*
X-3937Y-25500D01*
X-11811Y29724D02*
X-9843D01*
X-1969D02*
Y37008D01*
X-7480Y42520D02*
X-1969Y37008D01*
X-9843Y42520D02*
X-7480D01*
X-9843D02*
Y46850D01*
Y49213D01*
X11811Y-51181D02*
X13780Y-53150D01*
X11811Y-51181D02*
Y-29724D01*
X-39370Y17717D02*
X-29724D01*
X-43307Y15748D02*
X-29724D01*
X-39370Y13780D02*
X-29724D01*
X-43307Y11811D02*
X-29724D01*
X-114663Y-51671D02*
X-98425Y-35433D01*
X-129134Y-51671D02*
X-114663D01*
X-114663Y-55608D02*
X-96457Y-37402D01*
X-122315Y-55608D02*
X-114663D01*
X-120427Y-65309D02*
X-94488Y-39370D01*
X-137008Y-65309D02*
X-120427D01*
Y-69246D02*
X-92520Y-41339D01*
X-130189Y-69246D02*
X-120427D01*
X-43307Y7874D02*
X-41339Y9843D01*
X-29724D01*
X-43307Y3937D02*
X-39370Y7874D01*
X-29724D01*
X-106102Y-64961D02*
X-102362D01*
X-48642Y8445D02*
Y15775D01*
X-53150Y3937D02*
X-48642Y8445D01*
X-53150Y-9843D02*
Y3937D01*
X-53642Y7382D02*
Y15775D01*
X-55118Y5906D02*
X-53642Y7382D01*
X-55118Y-11811D02*
Y5906D01*
X-110433Y-70276D02*
Y-64961D01*
X-120079Y-79921D02*
X-110433Y-70276D01*
X-120079Y-83858D02*
Y-79921D01*
X-102362Y-76465D02*
Y-70866D01*
X-46024Y-41870D02*
X-39902D01*
X-49213Y-5906D02*
X-29724D01*
X-49213Y-9843D02*
X-29724D01*
X-63642Y-14705D02*
X-56693Y-21654D01*
X-58642Y-14193D02*
X-53150Y-19685D01*
X-29724D01*
X-55118Y-11811D02*
X-51181Y-15748D01*
X-29724D01*
X-53150Y-9843D02*
X-49213Y-13780D01*
X-29724D01*
X-120079Y-96457D02*
Y-91732D01*
X-35433Y23622D02*
X-29724D01*
X-63642Y15775D02*
Y22303D01*
X-64961Y23622D02*
X-63642Y22303D01*
X-72047Y23622D02*
X-64961D01*
X-74803Y20866D02*
X-72047Y23622D01*
X-74803Y17717D02*
Y20866D01*
X-11811Y-62992D02*
Y-59055D01*
X-40319Y-91500D02*
X-11811Y-62992D01*
X-45500Y-91500D02*
X-40319D01*
X-13780Y-61024D02*
Y-57087D01*
X-39256Y-86500D02*
X-13780Y-61024D01*
X-45500Y-86500D02*
X-39256D01*
X-15748Y-59055D02*
Y-55118D01*
X-38193Y-81500D02*
X-15748Y-59055D01*
X-45500Y-81500D02*
X-38193D01*
X-17717Y-57087D02*
Y-53150D01*
X-37130Y-76500D02*
X-17717Y-57087D01*
X-45500Y-76500D02*
X-37130D01*
X-19685Y-55118D02*
Y-51181D01*
X-36067Y-71500D02*
X-19685Y-55118D01*
X-45500Y-71500D02*
X-36067D01*
X-21654Y-53150D02*
Y-49213D01*
X-35004Y-66500D02*
X-21654Y-53150D01*
X-45500Y-66500D02*
X-35004D01*
X-23622Y-51181D02*
Y-47244D01*
X-33941Y-61500D02*
X-23622Y-51181D01*
X-45500Y-61500D02*
X-33941D01*
X-25591Y-49213D02*
Y-46457D01*
X-32878Y-56500D02*
X-25591Y-49213D01*
X-45500Y-56500D02*
X-32878D01*
X-43307Y-11811D02*
X-29724D01*
X-45276Y-3937D02*
X-29724D01*
X-68642D02*
Y15775D01*
X-58642Y-14193D02*
Y15775D01*
X-63642Y-14705D02*
Y15775D01*
X-45276Y-7874D02*
X-29724D01*
X-24409Y-17717D02*
X-23622Y-18504D01*
Y-23622D02*
Y-18504D01*
X-29724Y-17717D02*
X-24409D01*
X-25591Y-46457D02*
X-21654Y-42520D01*
Y-29724D01*
X-23622Y-47244D02*
X-19685Y-43307D01*
Y-29724D01*
X-21654Y-49213D02*
X-17717Y-45276D01*
Y-29724D01*
X-19685Y-51181D02*
X-15748Y-47244D01*
Y-29724D01*
X-17717Y-53150D02*
X-13780Y-49213D01*
Y-29724D01*
X-15748Y-55118D02*
X-11811Y-51181D01*
Y-29724D01*
X-13780Y-57087D02*
X-9843Y-53150D01*
Y-29724D01*
X-11811Y-59055D02*
X-7874Y-55118D01*
Y-29724D01*
X-56693Y-21654D02*
X-29724D01*
X0Y208661D02*
X181102Y-110236D01*
X-181102D02*
X0Y208661D01*
X-181102Y-110236D02*
X181102D01*
D35*
X-157480Y-96457D02*
D03*
X0Y181102D02*
D03*
X157480Y-96457D02*
D03*
D36*
X-139356Y-77250D02*
D03*
X-92407Y4067D02*
D03*
X-121260Y-38032D02*
D03*
X-125197Y-44852D02*
D03*
X-133071Y-58490D02*
D03*
X-129134Y-51671D02*
D03*
X-137008Y-65309D02*
D03*
X-130189Y-69246D02*
D03*
X-122315Y-55608D02*
D03*
X-126252Y-62427D02*
D03*
X-118378Y-48789D02*
D03*
X-114441Y-41969D02*
D03*
X-94756Y-7874D02*
D03*
X-98693Y-14693D02*
D03*
X-106567Y-28331D02*
D03*
X-102630Y-21512D02*
D03*
X-110504Y-35150D02*
D03*
X-117323Y-31213D02*
D03*
X-109449Y-17575D02*
D03*
X-113386Y-24394D02*
D03*
X-105512Y-10756D02*
D03*
X-101575Y-3937D02*
D03*
D37*
X-44528Y88192D02*
D03*
X-39528Y96853D02*
D03*
X-34528Y105513D02*
D03*
X-29528Y114173D02*
D03*
X-24528Y122834D02*
D03*
X-19528Y131494D02*
D03*
X16500Y-94000D02*
D03*
X6500D02*
D03*
X-3500D02*
D03*
X-51417Y73226D02*
D03*
X-56417Y64566D02*
D03*
X-61417Y55905D02*
D03*
X69055Y41735D02*
D03*
X64055Y50395D02*
D03*
X59055Y59055D02*
D03*
D38*
X44874Y-69063D02*
D03*
X49598D02*
D03*
X54323Y-69063D02*
D03*
D39*
X28740Y-27559D02*
D03*
X62205Y-7480D02*
D03*
X-22835Y-16142D02*
D03*
Y-11417D02*
D03*
X29528Y29528D02*
D03*
X49213D02*
D03*
X75984Y8661D02*
D03*
X90354Y21457D02*
D03*
X61417Y17717D02*
D03*
X72638Y197D02*
D03*
X45276Y-9843D02*
D03*
X68898Y-43307D02*
D03*
X74803Y-21654D02*
D03*
X33858Y-33858D02*
D03*
X-57087Y-90158D02*
D03*
X-43307Y-27559D02*
D03*
X-29528Y34252D02*
D03*
X43331Y-14999D02*
D03*
X104331Y-13780D02*
D03*
X-23622Y37008D02*
D03*
X62992Y86614D02*
D03*
X6890Y-11811D02*
D03*
X1969Y-7874D02*
D03*
X-14567Y45000D02*
D03*
X0Y148819D02*
D03*
X59055Y-26378D02*
D03*
X0Y23228D02*
D03*
X-58642Y38452D02*
D03*
X-54642D02*
D03*
X6890Y10827D02*
D03*
X17717Y-48425D02*
D03*
X31496Y-74803D02*
D03*
X39370Y17717D02*
D03*
X37402Y23622D02*
D03*
X75984Y-75590D02*
D03*
X82087Y-59055D02*
D03*
X107087Y-25394D02*
D03*
X51598Y-81563D02*
D03*
X51575Y-94488D02*
D03*
X29528Y-82677D02*
D03*
X13780Y-53150D02*
D03*
X-17717Y-72835D02*
D03*
X75984Y-49213D02*
D03*
X27953Y-37008D02*
D03*
X-94685Y-19488D02*
D03*
X-39370Y17717D02*
D03*
X-43307Y15748D02*
D03*
X-39370Y13780D02*
D03*
X-43307Y11811D02*
D03*
X-86614Y23622D02*
D03*
X-84646Y19685D02*
D03*
X-82677Y15748D02*
D03*
X-80709Y11811D02*
D03*
X-43307Y7874D02*
D03*
Y3937D02*
D03*
X-76772Y5906D02*
D03*
X-72835Y3937D02*
D03*
X-102362Y-64961D02*
D03*
X-108661Y-96764D02*
D03*
X-114173Y-82677D02*
D03*
Y-91339D02*
D03*
X-102362Y-70866D02*
D03*
X-45276Y-3937D02*
D03*
Y-7874D02*
D03*
X-68642Y-3937D02*
D03*
X-120079Y-96457D02*
D03*
X-74803Y9055D02*
D03*
X-43307Y-11811D02*
D03*
X-49213Y-9843D02*
D03*
X-53150Y-38976D02*
D03*
X-49213Y-32283D02*
D03*
Y-17717D02*
D03*
Y-5906D02*
D03*
X-34413Y-49311D02*
D03*
X62205Y10630D02*
D03*
X54815Y-4000D02*
D03*
Y2500D02*
D03*
Y8500D02*
D03*
X39000Y6000D02*
D03*
X36500Y2000D02*
D03*
X27374Y-73347D02*
D03*
X-7126Y-60102D02*
D03*
X2362Y56339D02*
D03*
X9843Y53839D02*
D03*
X55532Y23622D02*
D03*
X0Y10000D02*
D03*
X30500Y-53500D02*
D03*
X23622D02*
D03*
X2362Y39370D02*
D03*
X-23622Y53854D02*
D03*
X-37000Y2250D02*
D03*
Y-1000D02*
D03*
Y5500D02*
D03*
X-95720Y-96882D02*
D03*
X-47795Y38299D02*
D03*
X23622Y-37000D02*
D03*
X-25083Y-35827D02*
D03*
X3500Y-36500D02*
D03*
X-3500D02*
D03*
Y-53500D02*
D03*
X3500D02*
D03*
X0Y-37500D02*
D03*
X62992Y-51575D02*
D03*
X56299D02*
D03*
Y-44882D02*
D03*
X62992D02*
D03*
X42098Y-58063D02*
D03*
X-9843Y57087D02*
D03*
X-4106Y56339D02*
D03*
M02*
