%FSLAX25Y25*%
%MOIN*%
G70*
G01*
G75*
G04 Layer_Color=32896*
%ADD10C,0.00700*%
%ADD11R,0.06299X0.02992*%
%ADD12R,0.07087X0.05512*%
%ADD13R,0.13386X0.07087*%
%ADD14R,0.01181X0.03347*%
%ADD15R,0.03937X0.03937*%
%ADD16R,0.02992X0.09449*%
%ADD17R,0.03937X0.04331*%
%ADD18R,0.05906X0.05118*%
%ADD19R,0.02362X0.01969*%
%ADD20O,0.07087X0.01181*%
%ADD21O,0.01181X0.07087*%
%ADD22R,0.04331X0.03937*%
G04:AMPARAMS|DCode=23|XSize=39.37mil|YSize=43.31mil|CornerRadius=0mil|HoleSize=0mil|Usage=FLASHONLY|Rotation=150.000|XOffset=0mil|YOffset=0mil|HoleType=Round|Shape=Rectangle|*
%AMROTATEDRECTD23*
4,1,4,0.02788,0.00891,0.00622,-0.02860,-0.02788,-0.00891,-0.00622,0.02860,0.02788,0.00891,0.0*
%
%ADD23ROTATEDRECTD23*%

%ADD24R,0.05118X0.05906*%
%ADD25R,0.02362X0.03543*%
%ADD26R,0.02559X0.02953*%
%ADD27R,0.02953X0.02559*%
%ADD28R,0.03937X0.03347*%
%ADD29R,0.03937X0.03347*%
%ADD30R,0.03347X0.03937*%
%ADD31R,0.03347X0.03937*%
%ADD32C,0.01000*%
%ADD33C,0.02000*%
%ADD34C,0.00600*%
%ADD35C,0.20000*%
%ADD36C,0.03937*%
%ADD37C,0.06000*%
%ADD38C,0.02598*%
%ADD39C,0.02000*%
%ADD40C,0.04000*%
%ADD41C,0.16500*%
%ADD42C,0.07201*%
%ADD43C,0.07150*%
%ADD44C,0.08000*%
G04:AMPARAMS|DCode=45|XSize=100mil|YSize=100mil|CornerRadius=0mil|HoleSize=0mil|Usage=FLASHONLY|Rotation=0.000|XOffset=0mil|YOffset=0mil|HoleType=Round|Shape=Relief|Width=10mil|Gap=10mil|Entries=4|*
%AMTHD45*
7,0,0,0.10000,0.08000,0.01000,45*
%
%ADD45THD45*%
%ADD46C,0.05299*%
%ADD47C,0.05000*%
G04:AMPARAMS|DCode=48|XSize=70mil|YSize=70mil|CornerRadius=0mil|HoleSize=0mil|Usage=FLASHONLY|Rotation=0.000|XOffset=0mil|YOffset=0mil|HoleType=Round|Shape=Relief|Width=10mil|Gap=10mil|Entries=4|*
%AMTHD48*
7,0,0,0.07000,0.05000,0.01000,45*
%
%ADD48THD48*%
G04:AMPARAMS|DCode=49|XSize=20.08mil|YSize=29.53mil|CornerRadius=0mil|HoleSize=0mil|Usage=FLASHONLY|Rotation=240.000|XOffset=0mil|YOffset=0mil|HoleType=Round|Shape=Rectangle|*
%AMROTATEDRECTD49*
4,1,4,-0.00777,0.01608,0.01781,0.00131,0.00777,-0.01608,-0.01781,-0.00131,-0.00777,0.01608,0.0*
%
%ADD49ROTATEDRECTD49*%

%ADD50R,0.06102X0.01772*%
G04:AMPARAMS|DCode=51|XSize=23.62mil|YSize=35.43mil|CornerRadius=0mil|HoleSize=0mil|Usage=FLASHONLY|Rotation=330.000|XOffset=0mil|YOffset=0mil|HoleType=Round|Shape=Rectangle|*
%AMROTATEDRECTD51*
4,1,4,-0.01909,-0.00944,-0.00137,0.02125,0.01909,0.00944,0.00137,-0.02125,-0.01909,-0.00944,0.0*
%
%ADD51ROTATEDRECTD51*%

G04:AMPARAMS|DCode=52|XSize=59.06mil|YSize=51.18mil|CornerRadius=0mil|HoleSize=0mil|Usage=FLASHONLY|Rotation=30.000|XOffset=0mil|YOffset=0mil|HoleType=Round|Shape=Rectangle|*
%AMROTATEDRECTD52*
4,1,4,-0.01278,-0.03693,-0.03837,0.00740,0.01278,0.03693,0.03837,-0.00740,-0.01278,-0.03693,0.0*
%
%ADD52ROTATEDRECTD52*%

G04:AMPARAMS|DCode=53|XSize=59.06mil|YSize=51.18mil|CornerRadius=0mil|HoleSize=0mil|Usage=FLASHONLY|Rotation=150.000|XOffset=0mil|YOffset=0mil|HoleType=Round|Shape=Rectangle|*
%AMROTATEDRECTD53*
4,1,4,0.03837,0.00740,0.01278,-0.03693,-0.03837,-0.00740,-0.01278,0.03693,0.03837,0.00740,0.0*
%
%ADD53ROTATEDRECTD53*%

%ADD54R,0.02953X0.02008*%
%ADD55R,0.03543X0.02362*%
G04:AMPARAMS|DCode=56|XSize=23.62mil|YSize=35.43mil|CornerRadius=0mil|HoleSize=0mil|Usage=FLASHONLY|Rotation=210.000|XOffset=0mil|YOffset=0mil|HoleType=Round|Shape=Rectangle|*
%AMROTATEDRECTD56*
4,1,4,0.00137,0.02125,0.01909,-0.00944,-0.00137,-0.02125,-0.01909,0.00944,0.00137,0.02125,0.0*
%
%ADD56ROTATEDRECTD56*%

%ADD57R,0.02008X0.02953*%
G04:AMPARAMS|DCode=58|XSize=20.08mil|YSize=29.53mil|CornerRadius=0mil|HoleSize=0mil|Usage=FLASHONLY|Rotation=300.000|XOffset=0mil|YOffset=0mil|HoleType=Round|Shape=Rectangle|*
%AMROTATEDRECTD58*
4,1,4,-0.01781,0.00131,0.00777,0.01608,0.01781,-0.00131,-0.00777,-0.01608,-0.01781,0.00131,0.0*
%
%ADD58ROTATEDRECTD58*%

G04:AMPARAMS|DCode=59|XSize=25.59mil|YSize=29.53mil|CornerRadius=0mil|HoleSize=0mil|Usage=FLASHONLY|Rotation=30.000|XOffset=0mil|YOffset=0mil|HoleType=Round|Shape=Rectangle|*
%AMROTATEDRECTD59*
4,1,4,-0.00370,-0.01918,-0.01846,0.00639,0.00370,0.01918,0.01846,-0.00639,-0.00370,-0.01918,0.0*
%
%ADD59ROTATEDRECTD59*%

G04:AMPARAMS|DCode=60|XSize=23.62mil|YSize=39.37mil|CornerRadius=0mil|HoleSize=0mil|Usage=FLASHONLY|Rotation=240.000|XOffset=0mil|YOffset=0mil|HoleType=Round|Shape=Rectangle|*
%AMROTATEDRECTD60*
4,1,4,-0.01114,0.02007,0.02295,0.00039,0.01114,-0.02007,-0.02295,-0.00039,-0.01114,0.02007,0.0*
%
%ADD60ROTATEDRECTD60*%

G04:AMPARAMS|DCode=61|XSize=23.62mil|YSize=39.37mil|CornerRadius=0mil|HoleSize=0mil|Usage=FLASHONLY|Rotation=300.000|XOffset=0mil|YOffset=0mil|HoleType=Round|Shape=Rectangle|*
%AMROTATEDRECTD61*
4,1,4,-0.02295,0.00039,0.01114,0.02007,0.02295,-0.00039,-0.01114,-0.02007,-0.02295,0.00039,0.0*
%
%ADD61ROTATEDRECTD61*%

%ADD62R,0.02362X0.03937*%
%ADD63R,0.02362X0.03740*%
%ADD64C,0.02362*%
%ADD65C,0.00984*%
%ADD66C,0.00787*%
%ADD67R,0.07099X0.03792*%
%ADD68R,0.07887X0.06312*%
%ADD69R,0.14186X0.07887*%
%ADD70R,0.01981X0.04147*%
%ADD71R,0.04737X0.04737*%
%ADD72R,0.03386X0.09843*%
%ADD73R,0.04737X0.05131*%
%ADD74R,0.06706X0.05918*%
%ADD75R,0.03162X0.02769*%
%ADD76O,0.07887X0.01981*%
%ADD77O,0.01981X0.07887*%
%ADD78R,0.05131X0.04737*%
G04:AMPARAMS|DCode=79|XSize=47.37mil|YSize=51.31mil|CornerRadius=0mil|HoleSize=0mil|Usage=FLASHONLY|Rotation=150.000|XOffset=0mil|YOffset=0mil|HoleType=Round|Shape=Rectangle|*
%AMROTATEDRECTD79*
4,1,4,0.03334,0.01037,0.00769,-0.03406,-0.03334,-0.01037,-0.00769,0.03406,0.03334,0.01037,0.0*
%
%ADD79ROTATEDRECTD79*%

%ADD80R,0.05918X0.06706*%
%ADD81R,0.03162X0.04343*%
%ADD82R,0.03359X0.03753*%
%ADD83R,0.03753X0.03359*%
%ADD84R,0.04737X0.04147*%
%ADD85R,0.04737X0.04147*%
%ADD86R,0.04147X0.04737*%
%ADD87R,0.04147X0.04737*%
%ADD88C,0.20300*%
%ADD89C,0.04331*%
%ADD90C,0.06800*%
%ADD91C,0.02800*%
G04:AMPARAMS|DCode=92|XSize=28.08mil|YSize=37.53mil|CornerRadius=0mil|HoleSize=0mil|Usage=FLASHONLY|Rotation=240.000|XOffset=0mil|YOffset=0mil|HoleType=Round|Shape=Rectangle|*
%AMROTATEDRECTD92*
4,1,4,-0.00923,0.02154,0.02327,0.00278,0.00923,-0.02154,-0.02327,-0.00278,-0.00923,0.02154,0.0*
%
%ADD92ROTATEDRECTD92*%

%ADD93C,0.04737*%
%ADD94R,0.06902X0.02572*%
G04:AMPARAMS|DCode=95|XSize=31.62mil|YSize=43.43mil|CornerRadius=0mil|HoleSize=0mil|Usage=FLASHONLY|Rotation=330.000|XOffset=0mil|YOffset=0mil|HoleType=Round|Shape=Rectangle|*
%AMROTATEDRECTD95*
4,1,4,-0.02455,-0.01090,-0.00283,0.02671,0.02455,0.01090,0.00283,-0.02671,-0.02455,-0.01090,0.0*
%
%ADD95ROTATEDRECTD95*%

G04:AMPARAMS|DCode=96|XSize=67.06mil|YSize=59.18mil|CornerRadius=0mil|HoleSize=0mil|Usage=FLASHONLY|Rotation=30.000|XOffset=0mil|YOffset=0mil|HoleType=Round|Shape=Rectangle|*
%AMROTATEDRECTD96*
4,1,4,-0.01424,-0.04239,-0.04383,0.00886,0.01424,0.04239,0.04383,-0.00886,-0.01424,-0.04239,0.0*
%
%ADD96ROTATEDRECTD96*%

G04:AMPARAMS|DCode=97|XSize=67.06mil|YSize=59.18mil|CornerRadius=0mil|HoleSize=0mil|Usage=FLASHONLY|Rotation=150.000|XOffset=0mil|YOffset=0mil|HoleType=Round|Shape=Rectangle|*
%AMROTATEDRECTD97*
4,1,4,0.04383,0.00886,0.01424,-0.04239,-0.04383,-0.00886,-0.01424,0.04239,0.04383,0.00886,0.0*
%
%ADD97ROTATEDRECTD97*%

%ADD98R,0.03753X0.02808*%
%ADD99R,0.04343X0.03162*%
G04:AMPARAMS|DCode=100|XSize=31.62mil|YSize=43.43mil|CornerRadius=0mil|HoleSize=0mil|Usage=FLASHONLY|Rotation=210.000|XOffset=0mil|YOffset=0mil|HoleType=Round|Shape=Rectangle|*
%AMROTATEDRECTD100*
4,1,4,0.00283,0.02671,0.02455,-0.01090,-0.00283,-0.02671,-0.02455,0.01090,0.00283,0.02671,0.0*
%
%ADD100ROTATEDRECTD100*%

%ADD101R,0.02808X0.03753*%
G04:AMPARAMS|DCode=102|XSize=28.08mil|YSize=37.53mil|CornerRadius=0mil|HoleSize=0mil|Usage=FLASHONLY|Rotation=300.000|XOffset=0mil|YOffset=0mil|HoleType=Round|Shape=Rectangle|*
%AMROTATEDRECTD102*
4,1,4,-0.02327,0.00278,0.00923,0.02154,0.02327,-0.00278,-0.00923,-0.02154,-0.02327,0.00278,0.0*
%
%ADD102ROTATEDRECTD102*%

G04:AMPARAMS|DCode=103|XSize=33.59mil|YSize=37.53mil|CornerRadius=0mil|HoleSize=0mil|Usage=FLASHONLY|Rotation=30.000|XOffset=0mil|YOffset=0mil|HoleType=Round|Shape=Rectangle|*
%AMROTATEDRECTD103*
4,1,4,-0.00516,-0.02465,-0.02393,0.00785,0.00516,0.02465,0.02393,-0.00785,-0.00516,-0.02465,0.0*
%
%ADD103ROTATEDRECTD103*%

%ADD104C,0.02800*%
G04:AMPARAMS|DCode=105|XSize=31.62mil|YSize=47.37mil|CornerRadius=0mil|HoleSize=0mil|Usage=FLASHONLY|Rotation=240.000|XOffset=0mil|YOffset=0mil|HoleType=Round|Shape=Rectangle|*
%AMROTATEDRECTD105*
4,1,4,-0.01261,0.02554,0.02842,0.00185,0.01261,-0.02554,-0.02842,-0.00185,-0.01261,0.02554,0.0*
%
%ADD105ROTATEDRECTD105*%

G04:AMPARAMS|DCode=106|XSize=31.62mil|YSize=47.37mil|CornerRadius=0mil|HoleSize=0mil|Usage=FLASHONLY|Rotation=300.000|XOffset=0mil|YOffset=0mil|HoleType=Round|Shape=Rectangle|*
%AMROTATEDRECTD106*
4,1,4,-0.02842,0.00185,0.01261,0.02554,0.02842,-0.00185,-0.01261,-0.02554,-0.02842,0.00185,0.0*
%
%ADD106ROTATEDRECTD106*%

%ADD107R,0.03162X0.04737*%
%ADD108R,0.03162X0.04540*%
%ADD109C,0.03398*%
D34*
X-1343Y-17563D02*
X566Y-18665D01*
X-3076Y-24973D02*
X566Y-18665D01*
X-4985Y-23870D02*
X-3076Y-24973D01*
X-54331Y-34252D02*
X-51968D01*
X-9783Y-3701D02*
X-7579D01*
X-9783D02*
Y3583D01*
X-7579D01*
X23386Y-9882D02*
Y-7677D01*
X16102Y-9882D02*
X23386D01*
X16102D02*
Y-7677D01*
X-5044Y23973D02*
X-3135Y25075D01*
X507Y18767D01*
X-1403Y17665D02*
X507Y18767D01*
X-15984Y-9882D02*
Y-7677D01*
X-23268Y-9882D02*
X-15984D01*
X-23268D02*
Y-7677D01*
X3135Y-25075D02*
X5044Y-23973D01*
X-507Y-18767D02*
X3135Y-25075D01*
X-507Y-18767D02*
X1403Y-17665D01*
X18341Y16296D02*
X20251Y15193D01*
X16609Y8885D02*
X20251Y15193D01*
X14700Y9988D02*
X16609Y8885D01*
X-11493Y-32836D02*
X-12992Y-35433D01*
X-14724Y-34433D01*
X-15821Y-30337D02*
X-14090Y-31336D01*
X-15589Y-33934D01*
X-17321Y-32934D01*
X-14840Y-32635D02*
X-15705Y-32135D01*
X-16687Y-29837D02*
X-18187Y-32434D01*
X-19485Y-31684D01*
X-19668Y-31001D01*
X-18668Y-29270D01*
X-17986Y-29087D01*
X-16687Y-29837D01*
X-20784Y-30935D02*
X-21650Y-30435D01*
X-21217Y-30685D01*
X-19717Y-28087D01*
X-19534Y-28770D01*
X-24680Y-28685D02*
X-22948Y-29685D01*
X-23680Y-26954D01*
X-23430Y-26521D01*
X-22747Y-26338D01*
X-21882Y-26838D01*
X-21699Y-27521D01*
X1201Y164080D02*
X2200D01*
X1701D01*
Y161581D01*
X2200Y161081D01*
X2700D01*
X3200Y161581D01*
X201Y164080D02*
X-1798D01*
Y163580D01*
X201Y161581D01*
Y161081D01*
X-37039Y-78634D02*
Y-76635D01*
X-36539Y-76135D01*
X-35539D01*
X-35039Y-76635D01*
Y-78634D01*
X-35539Y-79134D01*
X-36539D01*
X-36039Y-78134D02*
X-37039Y-79134D01*
X-36539D02*
X-37039Y-78634D01*
X-38038D02*
X-38538Y-79134D01*
X-39538D01*
X-40038Y-78634D01*
Y-76635D01*
X-39538Y-76135D01*
X-38538D01*
X-38038Y-76635D01*
Y-77135D01*
X-38538Y-77634D01*
X-40038D01*
X-58439Y-5315D02*
Y-7814D01*
X-58939Y-8314D01*
X-59939D01*
X-60439Y-7814D01*
Y-5315D01*
X-61438Y-8314D02*
X-62438D01*
X-61938D01*
Y-5315D01*
X-61438Y-5815D01*
X17787Y-80800D02*
Y-77801D01*
X16288D01*
X15788Y-78301D01*
Y-79300D01*
X16288Y-79800D01*
X17787D01*
X16788D02*
X15788Y-80800D01*
X12789D02*
X14788D01*
X12789Y-78801D01*
Y-78301D01*
X13289Y-77801D01*
X14288D01*
X14788Y-78301D01*
X11789D02*
X11289Y-77801D01*
X10290D01*
X9790Y-78301D01*
Y-80300D01*
X10290Y-80800D01*
X11289D01*
X11789Y-80300D01*
Y-78301D01*
X45434Y-18973D02*
X48031Y-20472D01*
X47032Y-22204D01*
X42935Y-23302D02*
X43935Y-21570D01*
X46532Y-23070D01*
X45532Y-24801D01*
X45233Y-22320D02*
X44734Y-23186D01*
X42435Y-24167D02*
X45033Y-25667D01*
X44283Y-26965D01*
X43600Y-27149D01*
X41868Y-26149D01*
X41686Y-25466D01*
X42435Y-24167D01*
X39936Y-28496D02*
X40869Y-27880D01*
X42234Y-27514D01*
X43100Y-28014D01*
X43283Y-28697D01*
X42783Y-29563D01*
X42100Y-29746D01*
X41668Y-29496D01*
X41485Y-28813D01*
X42234Y-27514D01*
X48901Y-44618D02*
X49401Y-44118D01*
X50401D01*
X50901Y-44618D01*
Y-46617D01*
X50401Y-47117D01*
X49401D01*
X48901Y-46617D01*
X47902Y-44618D02*
X47402Y-44118D01*
X46402D01*
X45902Y-44618D01*
Y-45118D01*
X46402Y-45618D01*
X46902D01*
X46402D01*
X45902Y-46118D01*
Y-46617D01*
X46402Y-47117D01*
X47402D01*
X47902Y-46617D01*
X44903Y-47117D02*
X43903D01*
X44403D01*
Y-44118D01*
X44903Y-44618D01*
X-48956Y-36251D02*
X-49456Y-35752D01*
Y-34752D01*
X-48956Y-34252D01*
X-46957D01*
X-46457Y-34752D01*
Y-35752D01*
X-46957Y-36251D01*
X-46457Y-37251D02*
Y-38251D01*
Y-37751D01*
X-49456D01*
X-48956Y-37251D01*
X45838Y61401D02*
X46021Y62084D01*
X46887Y62584D01*
X47569Y62401D01*
X48569Y60669D01*
X48386Y59986D01*
X47520Y59487D01*
X46837Y59669D01*
X44490Y57737D02*
X46222Y58737D01*
X43490Y59469D01*
X43241Y59901D01*
X43424Y60584D01*
X44289Y61084D01*
X44972Y60901D01*
X5188Y-77650D02*
X5688Y-77151D01*
X6688D01*
X7187Y-77650D01*
Y-79650D01*
X6688Y-80150D01*
X5688D01*
X5188Y-79650D01*
X4188Y-77650D02*
X3689Y-77151D01*
X2689D01*
X2189Y-77650D01*
Y-78150D01*
X2689Y-78650D01*
X3189D01*
X2689D01*
X2189Y-79150D01*
Y-79650D01*
X2689Y-80150D01*
X3689D01*
X4188Y-79650D01*
X-44109Y67235D02*
X-44292Y67917D01*
X-43792Y68783D01*
X-43109Y68966D01*
X-41378Y67967D01*
X-41195Y67284D01*
X-41695Y66418D01*
X-42377Y66235D01*
X-43194Y63821D02*
X-45791Y65320D01*
X-43743Y65869D01*
X-44743Y64138D01*
X-89401Y-90808D02*
X-88901Y-90308D01*
X-87901D01*
X-87402Y-90808D01*
Y-92807D01*
X-87901Y-93307D01*
X-88901D01*
X-89401Y-92807D01*
X-90401Y-93307D02*
X-91400D01*
X-90900D01*
Y-90308D01*
X-90401Y-90808D01*
X-92900D02*
X-93400Y-90308D01*
X-94399D01*
X-94899Y-90808D01*
Y-91308D01*
X-94399Y-91808D01*
X-93900D01*
X-94399D01*
X-94899Y-92307D01*
Y-92807D01*
X-94399Y-93307D01*
X-93400D01*
X-92900Y-92807D01*
X-52756Y-8268D02*
X-55755D01*
Y-9767D01*
X-55255Y-10267D01*
X-54255D01*
X-53756Y-9767D01*
Y-8268D01*
Y-9267D02*
X-52756Y-10267D01*
Y-11267D02*
Y-12266D01*
Y-11767D01*
X-55755D01*
X-55255Y-11267D01*
X-38976Y-85827D02*
Y-82828D01*
X-40476D01*
X-40976Y-83328D01*
Y-84327D01*
X-40476Y-84827D01*
X-38976D01*
X-39976D02*
X-40976Y-85827D01*
X-43475D02*
Y-82828D01*
X-41975Y-84327D01*
X-43975D01*
X-48819Y-86221D02*
Y-83221D01*
X-50318D01*
X-50818Y-83721D01*
Y-84721D01*
X-50318Y-85221D01*
X-48819D01*
X-49819D02*
X-50818Y-86221D01*
X-53817Y-83221D02*
X-51818D01*
Y-84721D01*
X-52818Y-84221D01*
X-53317D01*
X-53817Y-84721D01*
Y-85721D01*
X-53317Y-86221D01*
X-52318D01*
X-51818Y-85721D01*
X-88757Y-84646D02*
Y-81647D01*
X-90256D01*
X-90756Y-82147D01*
Y-83146D01*
X-90256Y-83646D01*
X-88757D01*
X-89756D02*
X-90756Y-84646D01*
X-91756Y-81647D02*
X-93755D01*
Y-82147D01*
X-91756Y-84146D01*
Y-84646D01*
X8209Y9934D02*
Y7435D01*
X7710Y6935D01*
X6710D01*
X6210Y7435D01*
Y9934D01*
X3211Y6935D02*
X5210D01*
X3211Y8935D01*
Y9435D01*
X3711Y9934D01*
X4711D01*
X5210Y9435D01*
X5500Y53599D02*
Y50600D01*
X3501D01*
X502Y53599D02*
X2501D01*
Y50600D01*
X502D01*
X2501Y52100D02*
X1501D01*
X-498Y53599D02*
Y50600D01*
X-1998D01*
X-2497Y51100D01*
Y53099D01*
X-1998Y53599D01*
X-498D01*
X-5496Y50600D02*
X-3497D01*
X-5496Y52599D01*
Y53099D01*
X-4997Y53599D01*
X-3997D01*
X-3497Y53099D01*
X-38424Y-16854D02*
X-35827Y-15354D01*
X-34827Y-17086D01*
X-35925Y-21183D02*
X-36924Y-19451D01*
X-34327Y-17952D01*
X-33328Y-19683D01*
X-35626Y-18701D02*
X-35126Y-19567D01*
X-35425Y-22048D02*
X-32828Y-20549D01*
X-32078Y-21847D01*
X-32261Y-22530D01*
X-33992Y-23530D01*
X-34675Y-23347D01*
X-35425Y-22048D01*
X-32926Y-26377D02*
X-33926Y-24646D01*
X-32627Y-23896D01*
X-32560Y-25012D01*
X-32310Y-25444D01*
X-31627Y-25627D01*
X-30761Y-25127D01*
X-30579Y-24445D01*
X-31078Y-23579D01*
X-31761Y-23396D01*
X39914Y3543D02*
X42913D01*
Y1544D01*
X39914Y-1455D02*
Y544D01*
X42913D01*
Y-1455D01*
X41414Y544D02*
Y-455D01*
X39914Y-2455D02*
X42913D01*
Y-3954D01*
X42413Y-4454D01*
X40414D01*
X39914Y-3954D01*
Y-2455D01*
Y-5454D02*
Y-7453D01*
X40414D01*
X42413Y-5454D01*
X42913D01*
X-16460Y35274D02*
X-14961Y32677D01*
X-16692Y31677D01*
X-20789Y32775D02*
X-19057Y33775D01*
X-17558Y31178D01*
X-19289Y30178D01*
X-18308Y32476D02*
X-19173Y31976D01*
X-21655Y32275D02*
X-20155Y29678D01*
X-21454Y28928D01*
X-22137Y29111D01*
X-23136Y30843D01*
X-22953Y31526D01*
X-21655Y32275D01*
X-24002Y30343D02*
X-24685Y30526D01*
X-25550Y30026D01*
X-25733Y29343D01*
X-25484Y28910D01*
X-24801Y28727D01*
X-24984Y28045D01*
X-24734Y27612D01*
X-24051Y27429D01*
X-23185Y27929D01*
X-23002Y28611D01*
X-23252Y29044D01*
X-23935Y29227D01*
X-23752Y29910D01*
X-24002Y30343D01*
X-23935Y29227D02*
X-24801Y28727D01*
X-15597Y5512D02*
X-12598D01*
Y3512D01*
X-15597Y513D02*
Y2513D01*
X-12598D01*
Y513D01*
X-14098Y2513D02*
Y1513D01*
X-15597Y-486D02*
X-12598D01*
Y-1986D01*
X-13098Y-2486D01*
X-15098D01*
X-15597Y-1986D01*
Y-486D01*
X-13098Y-3485D02*
X-12598Y-3985D01*
Y-4985D01*
X-13098Y-5485D01*
X-15098D01*
X-15597Y-4985D01*
Y-3985D01*
X-15098Y-3485D01*
X-14598D01*
X-14098Y-3985D01*
Y-5485D01*
X24091Y-26930D02*
X25591Y-29528D01*
X23859Y-30527D01*
X19762Y-29430D02*
X21494Y-28430D01*
X22993Y-31027D01*
X21262Y-32027D01*
X22243Y-29728D02*
X21378Y-30228D01*
X18897Y-29929D02*
X20396Y-32527D01*
X19097Y-33276D01*
X18415Y-33093D01*
X17415Y-31362D01*
X17598Y-30679D01*
X18897Y-29929D01*
X17799Y-34026D02*
X16933Y-34526D01*
X17366Y-34276D01*
X15867Y-31679D01*
X16549Y-31862D01*
X14385Y-33111D02*
X13702Y-32928D01*
X12836Y-33428D01*
X12653Y-34111D01*
X13653Y-35842D01*
X14336Y-36026D01*
X15202Y-35526D01*
X15385Y-34843D01*
X14385Y-33111D01*
X25909Y29369D02*
X24409Y26772D01*
X22678Y27771D01*
X21580Y31868D02*
X23312Y30868D01*
X21812Y28271D01*
X20081Y29271D01*
X22562Y29570D02*
X21696Y30070D01*
X20715Y32368D02*
X19215Y29771D01*
X17916Y30520D01*
X17733Y31203D01*
X18733Y32935D01*
X19416Y33118D01*
X20715Y32368D01*
X16618Y31270D02*
X15752Y31770D01*
X16185Y31520D01*
X17684Y34117D01*
X17867Y33435D01*
X14453Y32520D02*
X13588Y33020D01*
X14020Y32770D01*
X15520Y35367D01*
X15703Y34684D01*
X91071Y-9972D02*
Y-7972D01*
X91571Y-7473D01*
X92570D01*
X93070Y-7972D01*
Y-9972D01*
X92570Y-10472D01*
X91571D01*
X92070Y-9472D02*
X91071Y-10472D01*
X91571D02*
X91071Y-9972D01*
X90071Y-10472D02*
X89071D01*
X89571D01*
Y-7473D01*
X90071Y-7972D01*
X50472Y22031D02*
Y25030D01*
X48973D01*
X48473Y24531D01*
Y23531D01*
X48973Y23031D01*
X50472D01*
X49473D02*
X48473Y22031D01*
X47473Y24531D02*
X46974Y25030D01*
X45974D01*
X45474Y24531D01*
Y24031D01*
X45974Y23531D01*
X45474Y23031D01*
Y22531D01*
X45974Y22031D01*
X46974D01*
X47473Y22531D01*
Y23031D01*
X46974Y23531D01*
X47473Y24031D01*
Y24531D01*
X46974Y23531D02*
X45974D01*
X104078Y-21154D02*
Y-18155D01*
X102578D01*
X102079Y-18654D01*
Y-19654D01*
X102578Y-20154D01*
X104078D01*
X103078D02*
X102079Y-21154D01*
X101079Y-20654D02*
X100579Y-21154D01*
X99579D01*
X99080Y-20654D01*
Y-18654D01*
X99579Y-18155D01*
X100579D01*
X101079Y-18654D01*
Y-19154D01*
X100579Y-19654D01*
X99080D01*
X-15997Y-78347D02*
Y-75348D01*
X-17496D01*
X-17996Y-75847D01*
Y-76847D01*
X-17496Y-77347D01*
X-15997D01*
X-16996D02*
X-17996Y-78347D01*
X-18996D02*
X-19996D01*
X-19496D01*
Y-75348D01*
X-18996Y-75847D01*
X-21495D02*
X-21995Y-75348D01*
X-22995D01*
X-23494Y-75847D01*
Y-76347D01*
X-22995Y-76847D01*
X-23494Y-77347D01*
Y-77847D01*
X-22995Y-78347D01*
X-21995D01*
X-21495Y-77847D01*
Y-77347D01*
X-21995Y-76847D01*
X-21495Y-76347D01*
Y-75847D01*
X-21995Y-76847D02*
X-22995D01*
X-77165Y-8661D02*
Y-5662D01*
X-78665D01*
X-79165Y-6162D01*
Y-7162D01*
X-78665Y-7662D01*
X-77165D01*
X-78165D02*
X-79165Y-8661D01*
X-80164D02*
X-81164D01*
X-80664D01*
Y-5662D01*
X-80164Y-6162D01*
X-82664D02*
X-83163Y-5662D01*
X-84163D01*
X-84663Y-6162D01*
Y-6662D01*
X-84163Y-7162D01*
X-83663D01*
X-84163D01*
X-84663Y-7662D01*
Y-8162D01*
X-84163Y-8661D01*
X-83163D01*
X-82664Y-8162D01*
X-78740Y5512D02*
Y8511D01*
X-80240D01*
X-80739Y8011D01*
Y7011D01*
X-80240Y6511D01*
X-78740D01*
X-79740D02*
X-80739Y5512D01*
X-81739D02*
X-82739D01*
X-82239D01*
Y8511D01*
X-81739Y8011D01*
X-85738Y5512D02*
Y8511D01*
X-84238Y7011D01*
X-86238D01*
X64961Y33858D02*
X62363Y32359D01*
X63113Y31060D01*
X63796Y30877D01*
X64662Y31377D01*
X64845Y32060D01*
X64095Y33358D01*
X64595Y32493D02*
X65960Y32127D01*
X66460Y31261D02*
X66960Y30395D01*
X66710Y30828D01*
X64113Y29329D01*
X64296Y30011D01*
X67277Y28847D02*
X67960Y28664D01*
X68459Y27798D01*
X68277Y27115D01*
X66545Y26116D01*
X65862Y26298D01*
X65362Y27164D01*
X65545Y27847D01*
X65978Y28097D01*
X66661Y27914D01*
X67411Y26615D01*
X0Y208661D02*
X181102Y-110236D01*
X-181102D02*
X0Y208661D01*
X-181102Y-110236D02*
X181102D01*
D64*
X-78445Y-36319D02*
G03*
X-78445Y-36319I-1181J0D01*
G01*
D65*
X-21457Y-90158D02*
G03*
X-21457Y-90158I-492J0D01*
G01*
X-87697Y-40453D02*
G03*
X-87697Y-40453I-492J0D01*
G01*
X91831Y-14075D02*
G03*
X91831Y-14075I-492J0D01*
G01*
D66*
X-34547Y-80709D02*
X-32776D01*
X-26280D02*
X-24508D01*
X-34547Y-86614D02*
Y-80709D01*
X-24508Y-86614D02*
X-24508Y-80709D01*
X-83563Y-40256D02*
X-83563Y-11516D01*
X-66043Y-40256D02*
Y-11516D01*
X-83563Y-40256D02*
X-66043D01*
X-83563Y-11516D02*
X-66043D01*
X41763Y-16140D02*
X43127Y-16927D01*
X-6890Y44213D02*
X-6890Y45787D01*
X-36237Y-28860D02*
X-34873Y-28073D01*
X81890Y-16634D02*
X87795Y-16634D01*
X81890Y-26673D02*
X87795D01*
X81890Y-18406D02*
Y-16634D01*
Y-26673D02*
Y-24902D01*
M02*
