%FSLAX25Y25*%
%MOIN*%
G70*
G01*
G75*
%ADD10C,0.00700*%
%ADD11R,0.06299X0.02992*%
%ADD12R,0.07087X0.05512*%
%ADD13R,0.13386X0.07087*%
%ADD14R,0.01181X0.03347*%
%ADD15R,0.03937X0.03937*%
%ADD16R,0.02992X0.09449*%
%ADD17R,0.03937X0.04331*%
%ADD18R,0.05906X0.05118*%
%ADD19R,0.02362X0.01969*%
%ADD20O,0.07087X0.01181*%
%ADD21O,0.01181X0.07087*%
%ADD22R,0.04331X0.03937*%
G04:AMPARAMS|DCode=23|XSize=39.37mil|YSize=43.31mil|CornerRadius=0mil|HoleSize=0mil|Usage=FLASHONLY|Rotation=150.000|XOffset=0mil|YOffset=0mil|HoleType=Round|Shape=Rectangle|*
%AMROTATEDRECTD23*
4,1,4,0.02788,0.00891,0.00622,-0.02860,-0.02788,-0.00891,-0.00622,0.02860,0.02788,0.00891,0.0*
%
%ADD23ROTATEDRECTD23*%

%ADD24R,0.05118X0.05906*%
%ADD25R,0.02362X0.03543*%
%ADD26R,0.02559X0.02953*%
%ADD27R,0.02953X0.02559*%
%ADD28R,0.03937X0.03347*%
%ADD29R,0.03937X0.03347*%
%ADD30R,0.03347X0.03937*%
%ADD31R,0.03347X0.03937*%
%ADD32C,0.01000*%
%ADD33C,0.02000*%
%ADD34C,0.00600*%
%ADD35C,0.20000*%
%ADD36C,0.03937*%
%ADD37C,0.06000*%
%ADD38C,0.02598*%
%ADD39C,0.02000*%
%ADD40C,0.04000*%
%ADD41C,0.16500*%
%ADD42C,0.07201*%
%ADD43C,0.07150*%
%ADD44C,0.08000*%
G04:AMPARAMS|DCode=45|XSize=100mil|YSize=100mil|CornerRadius=0mil|HoleSize=0mil|Usage=FLASHONLY|Rotation=0.000|XOffset=0mil|YOffset=0mil|HoleType=Round|Shape=Relief|Width=10mil|Gap=10mil|Entries=4|*
%AMTHD45*
7,0,0,0.10000,0.08000,0.01000,45*
%
%ADD45THD45*%
%ADD46C,0.05299*%
%ADD47C,0.05000*%
G04:AMPARAMS|DCode=48|XSize=70mil|YSize=70mil|CornerRadius=0mil|HoleSize=0mil|Usage=FLASHONLY|Rotation=0.000|XOffset=0mil|YOffset=0mil|HoleType=Round|Shape=Relief|Width=10mil|Gap=10mil|Entries=4|*
%AMTHD48*
7,0,0,0.07000,0.05000,0.01000,45*
%
%ADD48THD48*%
G04:AMPARAMS|DCode=49|XSize=20.08mil|YSize=29.53mil|CornerRadius=0mil|HoleSize=0mil|Usage=FLASHONLY|Rotation=240.000|XOffset=0mil|YOffset=0mil|HoleType=Round|Shape=Rectangle|*
%AMROTATEDRECTD49*
4,1,4,-0.00777,0.01608,0.01781,0.00131,0.00777,-0.01608,-0.01781,-0.00131,-0.00777,0.01608,0.0*
%
%ADD49ROTATEDRECTD49*%

%ADD50R,0.06102X0.01772*%
G04:AMPARAMS|DCode=51|XSize=23.62mil|YSize=35.43mil|CornerRadius=0mil|HoleSize=0mil|Usage=FLASHONLY|Rotation=330.000|XOffset=0mil|YOffset=0mil|HoleType=Round|Shape=Rectangle|*
%AMROTATEDRECTD51*
4,1,4,-0.01909,-0.00944,-0.00137,0.02125,0.01909,0.00944,0.00137,-0.02125,-0.01909,-0.00944,0.0*
%
%ADD51ROTATEDRECTD51*%

G04:AMPARAMS|DCode=52|XSize=59.06mil|YSize=51.18mil|CornerRadius=0mil|HoleSize=0mil|Usage=FLASHONLY|Rotation=30.000|XOffset=0mil|YOffset=0mil|HoleType=Round|Shape=Rectangle|*
%AMROTATEDRECTD52*
4,1,4,-0.01278,-0.03693,-0.03837,0.00740,0.01278,0.03693,0.03837,-0.00740,-0.01278,-0.03693,0.0*
%
%ADD52ROTATEDRECTD52*%

G04:AMPARAMS|DCode=53|XSize=59.06mil|YSize=51.18mil|CornerRadius=0mil|HoleSize=0mil|Usage=FLASHONLY|Rotation=150.000|XOffset=0mil|YOffset=0mil|HoleType=Round|Shape=Rectangle|*
%AMROTATEDRECTD53*
4,1,4,0.03837,0.00740,0.01278,-0.03693,-0.03837,-0.00740,-0.01278,0.03693,0.03837,0.00740,0.0*
%
%ADD53ROTATEDRECTD53*%

%ADD54R,0.02953X0.02008*%
%ADD55R,0.03543X0.02362*%
G04:AMPARAMS|DCode=56|XSize=23.62mil|YSize=35.43mil|CornerRadius=0mil|HoleSize=0mil|Usage=FLASHONLY|Rotation=210.000|XOffset=0mil|YOffset=0mil|HoleType=Round|Shape=Rectangle|*
%AMROTATEDRECTD56*
4,1,4,0.00137,0.02125,0.01909,-0.00944,-0.00137,-0.02125,-0.01909,0.00944,0.00137,0.02125,0.0*
%
%ADD56ROTATEDRECTD56*%

%ADD57R,0.02008X0.02953*%
G04:AMPARAMS|DCode=58|XSize=20.08mil|YSize=29.53mil|CornerRadius=0mil|HoleSize=0mil|Usage=FLASHONLY|Rotation=300.000|XOffset=0mil|YOffset=0mil|HoleType=Round|Shape=Rectangle|*
%AMROTATEDRECTD58*
4,1,4,-0.01781,0.00131,0.00777,0.01608,0.01781,-0.00131,-0.00777,-0.01608,-0.01781,0.00131,0.0*
%
%ADD58ROTATEDRECTD58*%

G04:AMPARAMS|DCode=59|XSize=25.59mil|YSize=29.53mil|CornerRadius=0mil|HoleSize=0mil|Usage=FLASHONLY|Rotation=30.000|XOffset=0mil|YOffset=0mil|HoleType=Round|Shape=Rectangle|*
%AMROTATEDRECTD59*
4,1,4,-0.00370,-0.01918,-0.01846,0.00639,0.00370,0.01918,0.01846,-0.00639,-0.00370,-0.01918,0.0*
%
%ADD59ROTATEDRECTD59*%

G04:AMPARAMS|DCode=60|XSize=23.62mil|YSize=39.37mil|CornerRadius=0mil|HoleSize=0mil|Usage=FLASHONLY|Rotation=240.000|XOffset=0mil|YOffset=0mil|HoleType=Round|Shape=Rectangle|*
%AMROTATEDRECTD60*
4,1,4,-0.01114,0.02007,0.02295,0.00039,0.01114,-0.02007,-0.02295,-0.00039,-0.01114,0.02007,0.0*
%
%ADD60ROTATEDRECTD60*%

G04:AMPARAMS|DCode=61|XSize=23.62mil|YSize=39.37mil|CornerRadius=0mil|HoleSize=0mil|Usage=FLASHONLY|Rotation=300.000|XOffset=0mil|YOffset=0mil|HoleType=Round|Shape=Rectangle|*
%AMROTATEDRECTD61*
4,1,4,-0.02295,0.00039,0.01114,0.02007,0.02295,-0.00039,-0.01114,-0.02007,-0.02295,0.00039,0.0*
%
%ADD61ROTATEDRECTD61*%

%ADD62R,0.02362X0.03937*%
%ADD63R,0.02362X0.03740*%
%ADD64C,0.02362*%
%ADD65C,0.00984*%
%ADD66C,0.00787*%
G36*
X116276Y-78003D02*
X116387Y-78058D01*
X116535Y-78169D01*
X116720Y-78336D01*
X116887Y-78558D01*
X117035Y-78854D01*
X117090Y-79021D01*
X117146Y-79206D01*
X117164Y-79428D01*
X117183Y-79650D01*
X117164D01*
X117146Y-79687D01*
X117035Y-79761D01*
X116868Y-79872D01*
X116665Y-80002D01*
X116424Y-80132D01*
X116183Y-80243D01*
X115961Y-80317D01*
X115758Y-80354D01*
X115739D01*
X115721Y-80335D01*
X115610Y-80298D01*
X115462Y-80224D01*
X115276Y-80132D01*
X115091Y-80020D01*
X114943Y-79909D01*
X114832Y-79780D01*
X114814Y-79724D01*
X114795Y-79650D01*
Y-78706D01*
Y-78688D01*
X114814Y-78651D01*
X114832Y-78577D01*
X114888Y-78484D01*
X114980Y-78373D01*
X115091Y-78243D01*
X115276Y-78114D01*
X115517Y-77984D01*
X116257D01*
X116276Y-78003D01*
D02*
G37*
G36*
X116776Y-72320D02*
X116887Y-72376D01*
X117016Y-72487D01*
X117109Y-72561D01*
X117201Y-72654D01*
X117313Y-72764D01*
X117442Y-72913D01*
X117572Y-73079D01*
X117720Y-73283D01*
X117886Y-73505D01*
X118053Y-73746D01*
X118238Y-74042D01*
X118423Y-74375D01*
X118645Y-74727D01*
X118867Y-75134D01*
X119089Y-75578D01*
X119349Y-76078D01*
X119608Y-76615D01*
X119885Y-77207D01*
X120182Y-77836D01*
X120496Y-78540D01*
X120811Y-79280D01*
X121144Y-80094D01*
X121496Y-80946D01*
X121866Y-81871D01*
X122255Y-82871D01*
X122643Y-83926D01*
X122403D01*
X122384Y-83908D01*
X122347Y-83833D01*
X122292Y-83741D01*
X122218Y-83611D01*
X122125Y-83445D01*
X121995Y-83241D01*
X121866Y-83019D01*
X121718Y-82778D01*
X121533Y-82501D01*
X121366Y-82223D01*
X120959Y-81594D01*
X120496Y-80927D01*
X120015Y-80243D01*
X119515Y-79558D01*
X118978Y-78891D01*
X118442Y-78262D01*
X118182Y-77984D01*
X117905Y-77707D01*
X117646Y-77466D01*
X117386Y-77244D01*
X117146Y-77040D01*
X116887Y-76874D01*
X116646Y-76744D01*
X116424Y-76633D01*
X116183Y-76578D01*
X115980Y-76559D01*
X115517D01*
X115480Y-76578D01*
X115387Y-76615D01*
X115239Y-76689D01*
X115036Y-76800D01*
X114795Y-76966D01*
X114499Y-77188D01*
X114147Y-77485D01*
X113962Y-77651D01*
X113777Y-77836D01*
X113574Y-78040D01*
X113370Y-78281D01*
X113148Y-78521D01*
X112926Y-78799D01*
X112685Y-79095D01*
X112444Y-79410D01*
X112204Y-79761D01*
X111963Y-80132D01*
X111704Y-80539D01*
X111445Y-80964D01*
X111186Y-81409D01*
X110908Y-81890D01*
X110649Y-82408D01*
X110371Y-82964D01*
X110094Y-83537D01*
X109816Y-84148D01*
X109834Y-84167D01*
X109871Y-84259D01*
X109927Y-84370D01*
X110020Y-84537D01*
X110112Y-84722D01*
X110223Y-84926D01*
X110501Y-85388D01*
X110797Y-85851D01*
X110945Y-86073D01*
X111112Y-86277D01*
X111278Y-86462D01*
X111426Y-86610D01*
X111574Y-86721D01*
X111723Y-86777D01*
X112222D01*
X112278Y-86740D01*
X112333Y-86703D01*
X112389Y-86665D01*
X112463Y-86592D01*
X112555Y-86499D01*
X112666Y-86388D01*
X112796Y-86258D01*
X112963Y-86073D01*
X113129Y-85870D01*
X113333Y-85629D01*
X113555Y-85333D01*
X113814Y-85000D01*
X114092Y-84629D01*
Y-84870D01*
Y-84889D01*
X114073Y-84907D01*
X114055Y-84963D01*
X114036Y-85037D01*
X113962Y-85222D01*
X113870Y-85462D01*
X113759Y-85759D01*
X113629Y-86073D01*
X113481Y-86406D01*
X113333Y-86758D01*
X113148Y-87128D01*
X112981Y-87462D01*
X112796Y-87776D01*
X112629Y-88072D01*
X112444Y-88313D01*
X112278Y-88498D01*
X112185Y-88572D01*
X112111Y-88628D01*
X112019Y-88646D01*
X111945Y-88665D01*
X111907D01*
X111834Y-88628D01*
X111759Y-88591D01*
X111667Y-88535D01*
X111556Y-88442D01*
X111426Y-88313D01*
X111260Y-88128D01*
X111093Y-87906D01*
X110926Y-87628D01*
X110723Y-87276D01*
X110630Y-87073D01*
X110519Y-86869D01*
X110408Y-86629D01*
X110297Y-86369D01*
X110186Y-86092D01*
X110056Y-85796D01*
X109945Y-85481D01*
X109816Y-85148D01*
X109705Y-84777D01*
X109575Y-84389D01*
X109335D01*
X109316Y-84426D01*
X109279Y-84518D01*
X109224Y-84666D01*
X109131Y-84870D01*
X109020Y-85129D01*
X108890Y-85444D01*
X108761Y-85777D01*
X108594Y-86166D01*
X108409Y-86592D01*
X108205Y-87036D01*
X108002Y-87498D01*
X107780Y-87998D01*
X107280Y-89016D01*
X106762Y-90071D01*
X106225Y-91145D01*
X105651Y-92163D01*
X105374Y-92663D01*
X105077Y-93125D01*
X104800Y-93570D01*
X104504Y-93995D01*
X104226Y-94384D01*
X103948Y-94717D01*
X103671Y-95032D01*
X103411Y-95291D01*
X103152Y-95495D01*
X102912Y-95643D01*
X102671Y-95735D01*
X102449Y-95772D01*
X102430D01*
X102356Y-95754D01*
X102227Y-95698D01*
X102060Y-95587D01*
X101949Y-95513D01*
X101838Y-95421D01*
X101708Y-95291D01*
X101560Y-95162D01*
X101412Y-94995D01*
X101246Y-94791D01*
X101061Y-94569D01*
X100876Y-94310D01*
X100654Y-94033D01*
X100450Y-93699D01*
X100209Y-93348D01*
X99969Y-92940D01*
X99709Y-92478D01*
X99450Y-91996D01*
X99173Y-91460D01*
X98877Y-90867D01*
X98562Y-90238D01*
X98247Y-89535D01*
X97914Y-88794D01*
X97562Y-87980D01*
X97211Y-87128D01*
X96840Y-86203D01*
X96452Y-85203D01*
X96063Y-84148D01*
X96304D01*
X96341Y-84167D01*
X96378Y-84222D01*
X96452Y-84278D01*
X96544Y-84389D01*
X96674Y-84537D01*
X96803Y-84722D01*
X96988Y-84963D01*
X97192Y-85240D01*
X97433Y-85611D01*
X97562Y-85814D01*
X97692Y-86036D01*
X97840Y-86277D01*
X98006Y-86536D01*
X98173Y-86814D01*
X98358Y-87110D01*
X98543Y-87424D01*
X98747Y-87776D01*
X98950Y-88146D01*
X99173Y-88535D01*
X99395Y-88942D01*
X99635Y-89386D01*
X99654Y-89405D01*
X99709Y-89460D01*
X99802Y-89553D01*
X99913Y-89683D01*
X100043Y-89831D01*
X100209Y-89979D01*
X100394Y-90145D01*
X100598Y-90330D01*
X101042Y-90682D01*
X101264Y-90830D01*
X101505Y-90978D01*
X101746Y-91108D01*
X101986Y-91201D01*
X102227Y-91256D01*
X102449Y-91274D01*
X102967D01*
X103060Y-91256D01*
X103208Y-91219D01*
X103411Y-91163D01*
X103671Y-91034D01*
X103985Y-90867D01*
X104152Y-90756D01*
X104337Y-90645D01*
X104541Y-90497D01*
X104744Y-90330D01*
X104948Y-90127D01*
X105170Y-89923D01*
X105411Y-89683D01*
X105651Y-89424D01*
X105910Y-89127D01*
X106169Y-88813D01*
X106429Y-88461D01*
X106706Y-88072D01*
X106984Y-87647D01*
X107280Y-87202D01*
X107558Y-86721D01*
X107872Y-86184D01*
X108168Y-85629D01*
X108483Y-85018D01*
X108798Y-84370D01*
X109113Y-83685D01*
X109094Y-83667D01*
X109075Y-83611D01*
X109020Y-83519D01*
X108946Y-83389D01*
X108853Y-83241D01*
X108761Y-83075D01*
X108520Y-82723D01*
X108243Y-82334D01*
X107965Y-81982D01*
X107835Y-81834D01*
X107706Y-81705D01*
X107576Y-81612D01*
X107447Y-81538D01*
X106725D01*
X106669Y-81575D01*
X106577Y-81631D01*
X106503Y-81705D01*
X106410Y-81779D01*
X106317Y-81871D01*
X106207Y-82001D01*
X106058Y-82149D01*
X105910Y-82334D01*
X105725Y-82556D01*
X105540Y-82815D01*
X105318Y-83112D01*
X105077Y-83445D01*
Y-83204D01*
Y-83186D01*
X105096Y-83167D01*
X105133Y-83056D01*
X105188Y-82871D01*
X105262Y-82649D01*
X105374Y-82371D01*
X105485Y-82075D01*
X105614Y-81760D01*
X105762Y-81427D01*
X105929Y-81094D01*
X106095Y-80779D01*
X106262Y-80465D01*
X106447Y-80206D01*
X106632Y-79983D01*
X106836Y-79798D01*
X107021Y-79687D01*
X107114Y-79669D01*
X107206Y-79650D01*
X107447D01*
X107465Y-79669D01*
X107502Y-79706D01*
X107558Y-79761D01*
X107632Y-79835D01*
X107724Y-79965D01*
X107835Y-80094D01*
X107965Y-80280D01*
X108095Y-80483D01*
X108243Y-80724D01*
X108391Y-81002D01*
X108539Y-81316D01*
X108705Y-81649D01*
X108872Y-82038D01*
X109020Y-82464D01*
X109187Y-82926D01*
X109335Y-83445D01*
X109575D01*
X109594Y-83426D01*
X109612Y-83352D01*
X109668Y-83223D01*
X109723Y-83056D01*
X109797Y-82853D01*
X109908Y-82612D01*
X110020Y-82353D01*
X110149Y-82038D01*
X110279Y-81705D01*
X110427Y-81335D01*
X110593Y-80946D01*
X110778Y-80557D01*
X111167Y-79687D01*
X111593Y-78762D01*
X112056Y-77818D01*
X112555Y-76874D01*
X113055Y-75948D01*
X113592Y-75041D01*
X113851Y-74616D01*
X114129Y-74208D01*
X114406Y-73838D01*
X114665Y-73468D01*
X114943Y-73135D01*
X115221Y-72820D01*
X115498Y-72542D01*
X115758Y-72302D01*
X116720D01*
X116776Y-72320D01*
D02*
G37*
G36*
X103874Y-89146D02*
Y-89164D01*
Y-89201D01*
Y-89257D01*
X103856Y-89331D01*
X103837Y-89535D01*
X103782Y-89775D01*
X103708Y-90034D01*
X103578Y-90257D01*
X103411Y-90460D01*
X103300Y-90516D01*
X103171Y-90571D01*
X102430D01*
X102393Y-90553D01*
X102301Y-90516D01*
X102208Y-90442D01*
X102060Y-90330D01*
X101912Y-90164D01*
X101820Y-90053D01*
X101708Y-89923D01*
X101616Y-89775D01*
X101505Y-89609D01*
Y-89146D01*
Y-89127D01*
X101523Y-89109D01*
X101579Y-88998D01*
X101690Y-88850D01*
X101857Y-88665D01*
X102079Y-88498D01*
X102375Y-88350D01*
X102541Y-88294D01*
X102727Y-88239D01*
X102949Y-88220D01*
X103171Y-88202D01*
X103874Y-89146D01*
D02*
G37*
G36*
X18741Y118991D02*
X18977Y118975D01*
X19229Y118959D01*
X19512Y118928D01*
X19811Y118865D01*
X20126Y118802D01*
X20142D01*
X20158Y118786D01*
X20205D01*
X20268Y118770D01*
X20425Y118723D01*
X20646Y118644D01*
X20882Y118566D01*
X21149Y118471D01*
X21433Y118345D01*
X21716Y118203D01*
Y116016D01*
X21700D01*
X21685Y116031D01*
X21590Y116094D01*
X21433Y116189D01*
X21244Y116299D01*
X21008Y116425D01*
X20756Y116551D01*
X20488Y116677D01*
X20205Y116771D01*
X20189D01*
X20174Y116787D01*
X20079Y116818D01*
X19922Y116850D01*
X19733Y116897D01*
X19497Y116944D01*
X19229Y116992D01*
X18946Y117007D01*
X18647Y117023D01*
X18505D01*
X18411Y117007D01*
X18285Y116992D01*
X18127Y116976D01*
X17970Y116944D01*
X17797Y116913D01*
X17435Y116787D01*
X17246Y116724D01*
X17041Y116630D01*
X16852Y116519D01*
X16679Y116393D01*
X16490Y116252D01*
X16333Y116079D01*
X16317Y116063D01*
X16301Y116031D01*
X16254Y115984D01*
X16207Y115905D01*
X16144Y115811D01*
X16065Y115685D01*
X15987Y115559D01*
X15924Y115402D01*
X15845Y115229D01*
X15766Y115024D01*
X15688Y114819D01*
X15625Y114583D01*
X15577Y114331D01*
X15530Y114064D01*
X15514Y113765D01*
X15499Y113466D01*
Y113450D01*
Y113387D01*
Y113308D01*
X15514Y113198D01*
X15530Y113057D01*
X15546Y112899D01*
X15562Y112710D01*
X15609Y112521D01*
X15703Y112112D01*
X15845Y111671D01*
X15939Y111467D01*
X16065Y111247D01*
X16191Y111058D01*
X16333Y110869D01*
X16349Y110853D01*
X16364Y110821D01*
X16427Y110790D01*
X16490Y110727D01*
X16569Y110648D01*
X16679Y110570D01*
X16789Y110491D01*
X16931Y110412D01*
X17088Y110318D01*
X17262Y110239D01*
X17450Y110160D01*
X17655Y110082D01*
X17891Y110019D01*
X18127Y109987D01*
X18379Y109956D01*
X18647Y109940D01*
X18788D01*
X18946Y109956D01*
X19150Y109971D01*
X19387Y110003D01*
X19654Y110035D01*
X19922Y110097D01*
X20205Y110176D01*
X20221D01*
X20236Y110192D01*
X20331Y110223D01*
X20472Y110286D01*
X20677Y110365D01*
X20898Y110475D01*
X21149Y110601D01*
X21433Y110758D01*
X21716Y110947D01*
Y108744D01*
X21700D01*
X21685Y108728D01*
X21590Y108681D01*
X21433Y108602D01*
X21228Y108523D01*
X20992Y108429D01*
X20724Y108335D01*
X20441Y108240D01*
X20126Y108161D01*
X20110D01*
X20095Y108146D01*
X20048D01*
X19985Y108130D01*
X19827Y108098D01*
X19607Y108067D01*
X19355Y108020D01*
X19072Y107988D01*
X18757Y107973D01*
X18426Y107957D01*
X18316D01*
X18174Y107973D01*
X17986Y107988D01*
X17765Y108004D01*
X17498Y108036D01*
X17214Y108083D01*
X16899Y108146D01*
X16569Y108224D01*
X16223Y108319D01*
X15876Y108445D01*
X15530Y108586D01*
X15184Y108744D01*
X14838Y108948D01*
X14507Y109169D01*
X14208Y109436D01*
X14192Y109452D01*
X14145Y109499D01*
X14066Y109594D01*
X13972Y109704D01*
X13846Y109861D01*
X13720Y110035D01*
X13578Y110255D01*
X13437Y110491D01*
X13295Y110774D01*
X13153Y111073D01*
X13027Y111404D01*
X12902Y111766D01*
X12807Y112144D01*
X12728Y112569D01*
X12681Y112994D01*
X12665Y113466D01*
Y113497D01*
Y113576D01*
X12681Y113718D01*
X12697Y113891D01*
X12713Y114111D01*
X12744Y114363D01*
X12791Y114631D01*
X12854Y114930D01*
X12933Y115244D01*
X13043Y115575D01*
X13169Y115921D01*
X13311Y116252D01*
X13500Y116582D01*
X13704Y116913D01*
X13940Y117228D01*
X14208Y117511D01*
X14224Y117527D01*
X14287Y117574D01*
X14365Y117653D01*
X14491Y117747D01*
X14649Y117857D01*
X14838Y117983D01*
X15058Y118125D01*
X15326Y118266D01*
X15609Y118392D01*
X15924Y118534D01*
X16270Y118660D01*
X16648Y118770D01*
X17057Y118865D01*
X17482Y118943D01*
X17938Y118991D01*
X18426Y119006D01*
X18584D01*
X18741Y118991D01*
D02*
G37*
G36*
X6668Y113576D02*
X10383D01*
Y111892D01*
X6668D01*
Y108161D01*
X4969D01*
Y111892D01*
X1254D01*
Y113576D01*
X4969D01*
Y117306D01*
X6668D01*
Y113576D01*
D02*
G37*
G36*
X-1107Y117149D02*
X-6836Y110239D01*
X-950D01*
Y108161D01*
X-10236D01*
Y109814D01*
X-4523Y116740D01*
X-10079D01*
Y118817D01*
X-1107D01*
Y117149D01*
D02*
G37*
D32*
X-64498Y38216D02*
X-53179Y38216D01*
X-65482Y37232D02*
X-64498Y38216D01*
X-53179Y38216D02*
X-52195Y37232D01*
X-45551Y9771D02*
X-45551Y37232D01*
X-72126Y9771D02*
X-45551Y9771D01*
X-72126Y37232D02*
X-72126Y9771D01*
X-52195Y37232D02*
X-45551D01*
X-72126D02*
X-65482D01*
X-48602Y37708D02*
Y38315D01*
X-154377Y-72715D02*
X-129112Y-87302D01*
X-154377Y-72715D02*
X-103845Y14808D01*
X-97162Y10950D01*
X-78580Y221D01*
X-129112Y-87302D02*
X-78580Y221D01*
X-111683Y2445D02*
X-111158Y2141D01*
X-42697Y81362D02*
X-12697Y133324D01*
X-21358Y138324D02*
X-12697Y133324D01*
X-51358Y86362D02*
X-21358Y138324D01*
X-51358Y86362D02*
X-42697Y81362D01*
X-23858Y133994D02*
X-23108Y133561D01*
X-15862Y129378D02*
X-15197Y128994D01*
X16500Y-99000D02*
Y-98626D01*
Y-89472D02*
Y-89000D01*
X-8894Y-99000D02*
Y-89000D01*
X21500D01*
Y-99000D02*
Y-89000D01*
X-8894Y-99000D02*
X21500D01*
X-47411Y70913D02*
X-47087Y70726D01*
X-55747Y75726D02*
X-55338Y75490D01*
X-68444Y53734D02*
X-59784Y48734D01*
X-68444Y53734D02*
X-53247Y80056D01*
X-44587Y75056D01*
X-59784Y48734D02*
X-44587Y75056D01*
X64725Y39235D02*
X65049Y39422D01*
X72976Y43998D02*
X73385Y44235D01*
X52028Y61226D02*
X60688Y66226D01*
X75885Y39904D01*
X67225Y34905D02*
X75885Y39904D01*
X52028Y61226D02*
X67225Y34905D01*
X-43307Y28740D02*
X-41308D01*
X-42307D01*
Y34738D01*
X-43307Y33738D01*
X-87053Y37958D02*
X-88053Y36227D01*
X-87553Y37092D01*
X-83224Y34593D01*
X-82859Y33228D01*
X-83358Y32362D01*
X-84724Y31996D01*
X-86054Y39690D02*
X-84054Y43153D01*
X-85054Y41421D01*
X-79860Y38422D01*
X-77860Y41885D02*
X-81323Y43884D01*
X-82055Y46615D01*
X-79324Y47347D01*
X-75861Y45348D01*
X-78458Y46848D01*
X-80457Y43385D01*
X-77191Y53042D02*
X-78556Y52676D01*
X-79556Y50944D01*
X-79190Y49579D01*
X-75727Y47579D01*
X-74361Y47945D01*
X-73362Y49677D01*
X-73728Y51042D01*
X-75459Y52042D01*
X-76459Y50310D01*
D34*
X41567Y-59890D02*
X41567Y-78315D01*
X57669D02*
Y-59890D01*
X-11024Y51181D02*
X-8661D01*
X-76968Y-26382D02*
X-77468Y-25882D01*
X-78468D01*
X-78968Y-26382D01*
Y-26882D01*
X-78468Y-27382D01*
X-77468D01*
X-76968Y-27881D01*
Y-28381D01*
X-77468Y-28881D01*
X-78468D01*
X-78968Y-28381D01*
X-74469Y-28881D02*
Y-25882D01*
X-75969Y-27382D01*
X-73969D01*
X-82677Y-47001D02*
Y-49500D01*
X-82177Y-50000D01*
X-81178D01*
X-80678Y-49500D01*
Y-47001D01*
X-77679D02*
X-78679Y-47501D01*
X-79678Y-48500D01*
Y-49500D01*
X-79178Y-50000D01*
X-78179D01*
X-77679Y-49500D01*
Y-49000D01*
X-78179Y-48500D01*
X-79678D01*
X-8268Y-77316D02*
Y-77816D01*
X-7268Y-78815D01*
X-6268Y-77816D01*
Y-77316D01*
X-7268Y-78815D02*
Y-80315D01*
X-5269D02*
X-4269D01*
X-4769D01*
Y-77316D01*
X-5269Y-77816D01*
X33858Y-54875D02*
Y-57374D01*
X34358Y-57874D01*
X35358D01*
X35858Y-57374D01*
Y-54875D01*
X36857D02*
X38857D01*
Y-55375D01*
X36857Y-57374D01*
Y-57874D01*
X-85176Y-101544D02*
X-85676Y-102044D01*
Y-103043D01*
X-85176Y-103543D01*
X-84676D01*
X-84177Y-103043D01*
Y-102044D01*
X-83677Y-101544D01*
X-83177D01*
X-82677Y-102044D01*
Y-103043D01*
X-83177Y-103543D01*
X-82677Y-98545D02*
Y-100544D01*
X-84676Y-98545D01*
X-85176D01*
X-85676Y-99045D01*
Y-100044D01*
X-85176Y-100544D01*
X-71229Y43550D02*
X-72229D01*
X-71729D01*
Y41051D01*
X-72229Y40551D01*
X-72729D01*
X-73228Y41051D01*
X-68730Y40551D02*
Y43550D01*
X-70229Y42051D01*
X-68230D01*
X-99235Y19766D02*
X-99735Y18901D01*
X-99485Y19334D01*
X-97321Y18084D01*
X-97138Y17401D01*
X-97388Y16968D01*
X-98071Y16785D01*
X-97736Y22364D02*
X-98735Y20632D01*
X-97437Y19882D01*
X-97370Y20998D01*
X-97120Y21431D01*
X-96437Y21614D01*
X-95572Y21114D01*
X-95389Y20431D01*
X-95888Y19566D01*
X-96571Y19383D01*
X-44117Y115042D02*
X-44617Y114176D01*
X-44367Y114609D01*
X-42203Y113360D01*
X-42020Y112677D01*
X-42270Y112244D01*
X-42953Y112061D01*
X-42618Y117639D02*
X-42685Y116524D01*
X-42319Y115158D01*
X-41453Y114658D01*
X-40770Y114841D01*
X-40270Y115707D01*
X-40453Y116390D01*
X-40886Y116640D01*
X-41569Y116457D01*
X-42319Y115158D01*
X66929Y-27165D02*
X63930D01*
Y-25666D01*
X64430Y-25166D01*
X65430D01*
X65929Y-25666D01*
Y-27165D01*
Y-26166D02*
X66929Y-25166D01*
X64430Y-24166D02*
X63930Y-23666D01*
Y-22667D01*
X64430Y-22167D01*
X64930D01*
X65430Y-22667D01*
Y-23167D01*
Y-22667D01*
X65929Y-22167D01*
X66429D01*
X66929Y-22667D01*
Y-23666D01*
X66429Y-24166D01*
X66929Y-19168D02*
Y-21167D01*
X64930Y-19168D01*
X64430D01*
X63930Y-19668D01*
Y-20667D01*
X64430Y-21167D01*
X69035Y-59480D02*
X69534Y-58980D01*
Y-57980D01*
X69035Y-57480D01*
X67035D01*
X66535Y-57980D01*
Y-58980D01*
X67035Y-59480D01*
X69035Y-60479D02*
X69534Y-60979D01*
Y-61979D01*
X69035Y-62479D01*
X68535D01*
X68035Y-61979D01*
Y-61479D01*
Y-61979D01*
X67535Y-62479D01*
X67035D01*
X66535Y-61979D01*
Y-60979D01*
X67035Y-60479D01*
X66535Y-65478D02*
Y-63478D01*
X68535Y-65478D01*
X69035D01*
X69534Y-64978D01*
Y-63978D01*
X69035Y-63478D01*
X-11161Y62236D02*
X-11660Y61736D01*
Y60736D01*
X-11161Y60236D01*
X-9161D01*
X-8661Y60736D01*
Y61736D01*
X-9161Y62236D01*
X-11660Y65235D02*
Y63235D01*
X-10161D01*
X-10661Y64235D01*
Y64735D01*
X-10161Y65235D01*
X-9161D01*
X-8661Y64735D01*
Y63735D01*
X-9161Y63235D01*
X-14930Y-92277D02*
X-15929D01*
X-15430D01*
Y-94776D01*
X-15929Y-95276D01*
X-16429D01*
X-16929Y-94776D01*
X-13930Y-92776D02*
X-13430Y-92277D01*
X-12431D01*
X-11931Y-92776D01*
Y-93276D01*
X-12431Y-93776D01*
X-12930D01*
X-12431D01*
X-11931Y-94276D01*
Y-94776D01*
X-12431Y-95276D01*
X-13430D01*
X-13930Y-94776D01*
X-37402Y35676D02*
Y33177D01*
X-36902Y32677D01*
X-35902D01*
X-35402Y33177D01*
Y35676D01*
X-32403D02*
X-34402D01*
Y34177D01*
X-33403Y34677D01*
X-32903D01*
X-32403Y34177D01*
Y33177D01*
X-32903Y32677D01*
X-33903D01*
X-34402Y33177D01*
X-40914Y45019D02*
X-41414Y45519D01*
X-42413D01*
X-42913Y45019D01*
Y43020D01*
X-42413Y42520D01*
X-41414D01*
X-40914Y43020D01*
X-39914Y42520D02*
X-38915D01*
X-39415D01*
Y45519D01*
X-39914Y45019D01*
X-35416Y42520D02*
X-37415D01*
X-35416Y44519D01*
Y45019D01*
X-35916Y45519D01*
X-36915D01*
X-37415Y45019D01*
X48850Y-12068D02*
X48350Y-11568D01*
X47350D01*
X46850Y-12068D01*
Y-14067D01*
X47350Y-14567D01*
X48350D01*
X48850Y-14067D01*
X49849Y-14567D02*
X50849D01*
X50349D01*
Y-11568D01*
X49849Y-12068D01*
X53848Y-14567D02*
Y-11568D01*
X52349Y-13067D01*
X54348D01*
X48456Y-17186D02*
X47956Y-16686D01*
X46957D01*
X46457Y-17186D01*
Y-19185D01*
X46957Y-19685D01*
X47956D01*
X48456Y-19185D01*
X49456Y-19685D02*
X50455D01*
X49956D01*
Y-16686D01*
X49456Y-17186D01*
X53954Y-16686D02*
X51955D01*
Y-18185D01*
X52955Y-17686D01*
X53454D01*
X53954Y-18185D01*
Y-19185D01*
X53454Y-19685D01*
X52455D01*
X51955Y-19185D01*
X68761Y4755D02*
X68261Y4255D01*
Y3256D01*
X68761Y2756D01*
X70760D01*
X71260Y3256D01*
Y4255D01*
X70760Y4755D01*
X71260Y5755D02*
Y6755D01*
Y6255D01*
X68261D01*
X68761Y5755D01*
X68261Y10254D02*
X68761Y9254D01*
X69760Y8254D01*
X70760D01*
X71260Y8754D01*
Y9754D01*
X70760Y10254D01*
X70260D01*
X69760Y9754D01*
Y8254D01*
X37432Y30846D02*
X36933Y31345D01*
X35933D01*
X35433Y30846D01*
Y28846D01*
X35933Y28346D01*
X36933D01*
X37432Y28846D01*
X38432Y28346D02*
X39432D01*
X38932D01*
Y31345D01*
X38432Y30846D01*
X40931Y31345D02*
X42931D01*
Y30846D01*
X40931Y28846D01*
Y28346D01*
X-37385Y-39653D02*
X-38068Y-39836D01*
X-38568Y-40701D01*
X-38385Y-41384D01*
X-36653Y-42384D01*
X-35971Y-42201D01*
X-35471Y-41335D01*
X-35654Y-40652D01*
X-34721Y-40037D02*
X-34221Y-39171D01*
X-34471Y-39604D01*
X-37068Y-38104D01*
X-36885Y-38787D01*
X-35636Y-36623D02*
X-35819Y-35940D01*
X-35319Y-35074D01*
X-34636Y-34891D01*
X-34203Y-35141D01*
X-34020Y-35824D01*
X-33337Y-35641D01*
X-32905Y-35891D01*
X-32722Y-36574D01*
X-33221Y-37439D01*
X-33904Y-37622D01*
X-34337Y-37372D01*
X-34520Y-36690D01*
X-35203Y-36873D01*
X-35636Y-36623D01*
X-34520Y-36690D02*
X-34020Y-35824D01*
X-25334Y59480D02*
X-25834Y58980D01*
Y57980D01*
X-25334Y57480D01*
X-23335D01*
X-22835Y57980D01*
Y58980D01*
X-23335Y59480D01*
X-22835Y60479D02*
Y61479D01*
Y60979D01*
X-25834D01*
X-25334Y60479D01*
X-23335Y62979D02*
X-22835Y63478D01*
Y64478D01*
X-23335Y64978D01*
X-25334D01*
X-25834Y64478D01*
Y63478D01*
X-25334Y62979D01*
X-24834D01*
X-24334Y63478D01*
Y64978D01*
X16398Y-42489D02*
X15899Y-42989D01*
Y-43988D01*
X16398Y-44488D01*
X18398D01*
X18898Y-43988D01*
Y-42989D01*
X18398Y-42489D01*
X18898Y-39490D02*
Y-41489D01*
X16898Y-39490D01*
X16398D01*
X15899Y-39990D01*
Y-40989D01*
X16398Y-41489D01*
Y-38490D02*
X15899Y-37990D01*
Y-36991D01*
X16398Y-36491D01*
X18398D01*
X18898Y-36991D01*
Y-37990D01*
X18398Y-38490D01*
X16398D01*
X34902Y-44064D02*
X34402Y-44563D01*
Y-45563D01*
X34902Y-46063D01*
X36902D01*
X37402Y-45563D01*
Y-44563D01*
X36902Y-44064D01*
X37402Y-41065D02*
Y-43064D01*
X35402Y-41065D01*
X34902D01*
X34402Y-41564D01*
Y-42564D01*
X34902Y-43064D01*
X37402Y-40065D02*
Y-39065D01*
Y-39565D01*
X34402D01*
X34902Y-40065D01*
X48456Y-22698D02*
X47956Y-22198D01*
X46957D01*
X46457Y-22698D01*
Y-24697D01*
X46957Y-25197D01*
X47956D01*
X48456Y-24697D01*
X51455Y-25197D02*
X49456D01*
X51455Y-23198D01*
Y-22698D01*
X50955Y-22198D01*
X49956D01*
X49456Y-22698D01*
X54454Y-25197D02*
X52455D01*
X54454Y-23198D01*
Y-22698D01*
X53954Y-22198D01*
X52955D01*
X52455Y-22698D01*
X8131Y61842D02*
X7631Y61342D01*
Y60342D01*
X8131Y59842D01*
X10130D01*
X10630Y60342D01*
Y61342D01*
X10130Y61842D01*
X10630Y64841D02*
Y62841D01*
X8631Y64841D01*
X8131D01*
X7631Y64341D01*
Y63341D01*
X8131Y62841D01*
Y65841D02*
X7631Y66340D01*
Y67340D01*
X8131Y67840D01*
X8631D01*
X9130Y67340D01*
Y66840D01*
Y67340D01*
X9630Y67840D01*
X10130D01*
X10630Y67340D01*
Y66340D01*
X10130Y65841D01*
X8524Y-46032D02*
X8025Y-46532D01*
Y-47532D01*
X8524Y-48031D01*
X10524D01*
X11024Y-47532D01*
Y-46532D01*
X10524Y-46032D01*
X11024Y-43033D02*
Y-45033D01*
X9024Y-43033D01*
X8524D01*
X8025Y-43533D01*
Y-44533D01*
X8524Y-45033D01*
X11024Y-40534D02*
X8025D01*
X9524Y-42033D01*
Y-40034D01*
X-9979Y-46426D02*
X-10479Y-46926D01*
Y-47925D01*
X-9979Y-48425D01*
X-7980D01*
X-7480Y-47925D01*
Y-46926D01*
X-7980Y-46426D01*
X-7480Y-43427D02*
Y-45426D01*
X-9480Y-43427D01*
X-9979D01*
X-10479Y-43927D01*
Y-44926D01*
X-9979Y-45426D01*
X-10479Y-40428D02*
Y-42427D01*
X-8980D01*
X-9480Y-41427D01*
Y-40928D01*
X-8980Y-40428D01*
X-7980D01*
X-7480Y-40928D01*
Y-41927D01*
X-7980Y-42427D01*
X1438Y61842D02*
X938Y61342D01*
Y60342D01*
X1438Y59842D01*
X3437D01*
X3937Y60342D01*
Y61342D01*
X3437Y61842D01*
X3937Y64841D02*
Y62841D01*
X1938Y64841D01*
X1438D01*
X938Y64341D01*
Y63341D01*
X1438Y62841D01*
X938Y67840D02*
X1438Y66840D01*
X2437Y65841D01*
X3437D01*
X3937Y66340D01*
Y67340D01*
X3437Y67840D01*
X2937D01*
X2437Y67340D01*
Y65841D01*
X-5255Y62236D02*
X-5755Y61736D01*
Y60736D01*
X-5255Y60236D01*
X-3256D01*
X-2756Y60736D01*
Y61736D01*
X-3256Y62236D01*
X-2756Y65235D02*
Y63235D01*
X-4755Y65235D01*
X-5255D01*
X-5755Y64735D01*
Y63735D01*
X-5255Y63235D01*
X-5755Y66234D02*
Y68234D01*
X-5255D01*
X-3256Y66234D01*
X-2756D01*
X25060Y-83040D02*
X24560Y-83540D01*
Y-84540D01*
X25060Y-85039D01*
X27059D01*
X27559Y-84540D01*
Y-83540D01*
X27059Y-83040D01*
X27559Y-80041D02*
Y-82040D01*
X25560Y-80041D01*
X25060D01*
X24560Y-80541D01*
Y-81541D01*
X25060Y-82040D01*
Y-79041D02*
X24560Y-78541D01*
Y-77542D01*
X25060Y-77042D01*
X25560D01*
X26059Y-77542D01*
X26559Y-77042D01*
X27059D01*
X27559Y-77542D01*
Y-78541D01*
X27059Y-79041D01*
X26559D01*
X26059Y-78541D01*
X25560Y-79041D01*
X25060D01*
X26059Y-78541D02*
Y-77542D01*
X-13916Y-70442D02*
X-14416Y-70941D01*
Y-71941D01*
X-13916Y-72441D01*
X-11917D01*
X-11417Y-71941D01*
Y-70941D01*
X-11917Y-70442D01*
X-11417Y-67443D02*
Y-69442D01*
X-13417Y-67443D01*
X-13916D01*
X-14416Y-67942D01*
Y-68942D01*
X-13916Y-69442D01*
X-11917Y-66443D02*
X-11417Y-65943D01*
Y-64943D01*
X-11917Y-64443D01*
X-13916D01*
X-14416Y-64943D01*
Y-65943D01*
X-13916Y-66443D01*
X-13417D01*
X-12917Y-65943D01*
Y-64443D01*
X42944Y-93958D02*
X42444Y-93458D01*
X41445D01*
X40945Y-93958D01*
Y-95957D01*
X41445Y-96457D01*
X42444D01*
X42944Y-95957D01*
X43944Y-93958D02*
X44444Y-93458D01*
X45443D01*
X45943Y-93958D01*
Y-94457D01*
X45443Y-94957D01*
X44944D01*
X45443D01*
X45943Y-95457D01*
Y-95957D01*
X45443Y-96457D01*
X44444D01*
X43944Y-95957D01*
X46943Y-93958D02*
X47443Y-93458D01*
X48443D01*
X48942Y-93958D01*
Y-95957D01*
X48443Y-96457D01*
X47443D01*
X46943Y-95957D01*
Y-93958D01*
X-68133Y72916D02*
X-68633Y72050D01*
X-68383Y72483D01*
X-66219Y71234D01*
X-66036Y70551D01*
X-66286Y70118D01*
X-66968Y69935D01*
X-65036Y72282D02*
X-64536Y73148D01*
X-64786Y72715D01*
X-67383Y74215D01*
X-67200Y73532D01*
X51807Y68558D02*
X50941Y68058D01*
X51374Y68308D01*
X52623Y66143D01*
X52441Y65460D01*
X52008Y65211D01*
X51325Y65394D01*
X55904Y67460D02*
X54172Y66460D01*
X54904Y69191D01*
X54654Y69624D01*
X53971Y69807D01*
X53105Y69307D01*
X52922Y68625D01*
X-127802Y-99606D02*
X-124803D01*
Y-97607D01*
X-127802Y-94608D02*
Y-96607D01*
X-124803D01*
Y-94608D01*
X-126303Y-96607D02*
Y-95608D01*
X-127802Y-93608D02*
X-124803D01*
Y-92109D01*
X-125303Y-91609D01*
X-127302D01*
X-127802Y-92109D01*
Y-93608D01*
X-124803Y-90609D02*
Y-89609D01*
Y-90109D01*
X-127802D01*
X-127302Y-90609D01*
X-74803Y24016D02*
X-77802D01*
Y25515D01*
X-77302Y26015D01*
X-76303D01*
X-75803Y25515D01*
Y24016D01*
Y25015D02*
X-74803Y26015D01*
Y29014D02*
Y27015D01*
X-76802Y29014D01*
X-77302D01*
X-77802Y28514D01*
Y27515D01*
X-77302Y27015D01*
X71260Y-54331D02*
X68261D01*
Y-52831D01*
X68761Y-52331D01*
X69760D01*
X70260Y-52831D01*
Y-54331D01*
Y-53331D02*
X71260Y-52331D01*
X68761Y-51332D02*
X68261Y-50832D01*
Y-49832D01*
X68761Y-49332D01*
X69261D01*
X69760Y-49832D01*
Y-50332D01*
Y-49832D01*
X70260Y-49332D01*
X70760D01*
X71260Y-49832D01*
Y-50832D01*
X70760Y-51332D01*
X-99213Y-65748D02*
Y-62749D01*
X-97713D01*
X-97213Y-63249D01*
Y-64249D01*
X-97713Y-64748D01*
X-99213D01*
X-98213D02*
X-97213Y-65748D01*
X-94214Y-62749D02*
X-95214Y-63249D01*
X-96214Y-64249D01*
Y-65248D01*
X-95714Y-65748D01*
X-94714D01*
X-94214Y-65248D01*
Y-64748D01*
X-94714Y-64249D01*
X-96214D01*
X-111161Y-103119D02*
X-111660Y-103619D01*
Y-104618D01*
X-111161Y-105118D01*
X-110661D01*
X-110161Y-104618D01*
Y-103619D01*
X-109661Y-103119D01*
X-109161D01*
X-108661Y-103619D01*
Y-104618D01*
X-109161Y-105118D01*
X-108661Y-102119D02*
Y-101119D01*
Y-101619D01*
X-111660D01*
X-111161Y-102119D01*
X41598Y-47063D02*
Y-44064D01*
X43098D01*
X43598Y-44564D01*
Y-45564D01*
X43098Y-46063D01*
X41598D01*
X42598D02*
X43598Y-47063D01*
X44597D02*
X45597D01*
X45097D01*
Y-44064D01*
X44597Y-44564D01*
X49096Y-44064D02*
X48096Y-44564D01*
X47097Y-45564D01*
Y-46563D01*
X47596Y-47063D01*
X48596D01*
X49096Y-46563D01*
Y-46063D01*
X48596Y-45564D01*
X47097D01*
X35433Y-74803D02*
X38432D01*
Y-76303D01*
X37932Y-76802D01*
X36933D01*
X36433Y-76303D01*
Y-74803D01*
Y-75803D02*
X35433Y-76802D01*
Y-77802D02*
Y-78802D01*
Y-78302D01*
X38432D01*
X37932Y-77802D01*
X38432Y-80301D02*
Y-82301D01*
X37932D01*
X35933Y-80301D01*
X35433D01*
X78196Y-81890D02*
X75197D01*
Y-83889D01*
X78196Y-86888D02*
Y-84889D01*
X75197D01*
Y-86888D01*
X76696Y-84889D02*
Y-85888D01*
X78196Y-87888D02*
X75197D01*
Y-89387D01*
X75697Y-89887D01*
X77696D01*
X78196Y-89387D01*
Y-87888D01*
X75197Y-92386D02*
X78196D01*
X76696Y-90887D01*
Y-92886D01*
X61448Y21760D02*
Y23759D01*
X60948Y24259D01*
X59949D01*
X59449Y23759D01*
Y21760D01*
X59949Y21260D01*
X60948D01*
X60448Y22260D02*
X61448Y21260D01*
X60948D02*
X61448Y21760D01*
X64447Y21260D02*
X62448D01*
X64447Y23259D01*
Y23759D01*
X63947Y24259D01*
X62948D01*
X62448Y23759D01*
X89658Y-36977D02*
X87658D01*
X87159Y-37477D01*
Y-38476D01*
X87658Y-38976D01*
X89658D01*
X90158Y-38476D01*
Y-37477D01*
X89158Y-37977D02*
X90158Y-36977D01*
Y-37477D02*
X89658Y-36977D01*
X87658Y-35977D02*
X87159Y-35478D01*
Y-34478D01*
X87658Y-33978D01*
X88158D01*
X88658Y-34478D01*
Y-34978D01*
Y-34478D01*
X89158Y-33978D01*
X89658D01*
X90158Y-34478D01*
Y-35478D01*
X89658Y-35977D01*
X81921Y-6981D02*
Y-4981D01*
X81421Y-4481D01*
X80421D01*
X79921Y-4981D01*
Y-6981D01*
X80421Y-7480D01*
X81421D01*
X80921Y-6481D02*
X81921Y-7480D01*
X81421D02*
X81921Y-6981D01*
X82920Y-4981D02*
X83420Y-4481D01*
X84420D01*
X84920Y-4981D01*
Y-5481D01*
X84420Y-5981D01*
X84920Y-6481D01*
Y-6981D01*
X84420Y-7480D01*
X83420D01*
X82920Y-6981D01*
Y-6481D01*
X83420Y-5981D01*
X82920Y-5481D01*
Y-4981D01*
X83420Y-5981D02*
X84420D01*
X86221Y-50394D02*
X89219D01*
Y-51893D01*
X88720Y-52393D01*
X87720D01*
X87220Y-51893D01*
Y-50394D01*
Y-51393D02*
X86221Y-52393D01*
Y-53393D02*
Y-54392D01*
Y-53893D01*
X89219D01*
X88720Y-53393D01*
X86221Y-55892D02*
Y-56892D01*
Y-56392D01*
X89219D01*
X88720Y-55892D01*
X-16142Y36220D02*
X-19141D01*
Y37720D01*
X-18641Y38220D01*
X-17641D01*
X-17141Y37720D01*
Y36220D01*
Y37220D02*
X-16142Y38220D01*
Y39219D02*
Y40219D01*
Y39719D01*
X-19141D01*
X-18641Y39219D01*
X-16142Y43718D02*
Y41719D01*
X-18141Y43718D01*
X-18641D01*
X-19141Y43218D01*
Y42219D01*
X-18641Y41719D01*
X80709Y15354D02*
Y18353D01*
X82208D01*
X82708Y17853D01*
Y16854D01*
X82208Y16354D01*
X80709D01*
X81708D02*
X82708Y15354D01*
X83708D02*
X84707D01*
X84207D01*
Y18353D01*
X83708Y17853D01*
X86207D02*
X86707Y18353D01*
X87706D01*
X88206Y17853D01*
Y15854D01*
X87706Y15354D01*
X86707D01*
X86207Y15854D01*
Y17853D01*
X-28740Y57874D02*
X-31739D01*
Y59373D01*
X-31239Y59873D01*
X-30240D01*
X-29740Y59373D01*
Y57874D01*
Y58874D02*
X-28740Y59873D01*
Y60873D02*
Y61873D01*
Y61373D01*
X-31739D01*
X-31239Y60873D01*
X-31739Y65372D02*
Y63372D01*
X-30240D01*
X-30740Y64372D01*
Y64872D01*
X-30240Y65372D01*
X-29240D01*
X-28740Y64872D01*
Y63872D01*
X-29240Y63372D01*
X41339Y95276D02*
X42338D01*
X41838D01*
Y98275D01*
X41339Y97775D01*
X-9449Y97881D02*
Y95882D01*
X-8449Y94882D01*
X-7450Y95882D01*
Y97881D01*
X-4450D02*
X-6450D01*
Y94882D01*
X-4450D01*
X-6450Y96381D02*
X-5450D01*
X-3451Y94882D02*
Y97881D01*
X-1951D01*
X-1451Y97381D01*
Y96381D01*
X-1951Y95882D01*
X-3451D01*
X-2451D02*
X-1451Y94882D01*
X1548Y97381D02*
X1048Y97881D01*
X48D01*
X-452Y97381D01*
Y96881D01*
X48Y96381D01*
X1048D01*
X1548Y95882D01*
Y95382D01*
X1048Y94882D01*
X48D01*
X-452Y95382D01*
X2547Y97881D02*
X3547D01*
X3047D01*
Y94882D01*
X2547D01*
X3547D01*
X6546Y97881D02*
X5546D01*
X5046Y97381D01*
Y95382D01*
X5546Y94882D01*
X6546D01*
X7046Y95382D01*
Y97381D01*
X6546Y97881D01*
X8045Y94882D02*
Y97881D01*
X10045Y94882D01*
Y97881D01*
X41339Y100000D02*
Y101999D01*
X42338Y102999D01*
X43338Y101999D01*
Y100000D01*
Y101499D01*
X41339D01*
X-9449Y100000D02*
Y102999D01*
X-7949D01*
X-7450Y102499D01*
Y101499D01*
X-7949Y101000D01*
X-9449D01*
X-6450Y102999D02*
Y100500D01*
X-5950Y100000D01*
X-4950D01*
X-4450Y100500D01*
Y102999D01*
X-3451D02*
Y100000D01*
X-1451D01*
X1548Y102499D02*
X1048Y102999D01*
X48D01*
X-452Y102499D01*
Y101999D01*
X48Y101499D01*
X1048D01*
X1548Y101000D01*
Y100500D01*
X1048Y100000D01*
X48D01*
X-452Y100500D01*
X4547Y102999D02*
X2547D01*
Y100000D01*
X4547D01*
X2547Y101499D02*
X3547D01*
X10545Y102499D02*
X10045Y102999D01*
X9045D01*
X8545Y102499D01*
Y101999D01*
X9045Y101499D01*
X10045D01*
X10545Y101000D01*
Y100500D01*
X10045Y100000D01*
X9045D01*
X8545Y100500D01*
X13544Y102999D02*
X11544D01*
Y100000D01*
X13544D01*
X11544Y101499D02*
X12544D01*
X14543Y100000D02*
Y102999D01*
X16543Y100000D01*
Y102999D01*
X19542Y102499D02*
X19042Y102999D01*
X18042D01*
X17542Y102499D01*
Y101999D01*
X18042Y101499D01*
X19042D01*
X19542Y101000D01*
Y100500D01*
X19042Y100000D01*
X18042D01*
X17542Y100500D01*
X22041Y102999D02*
X21041D01*
X20541Y102499D01*
Y100500D01*
X21041Y100000D01*
X22041D01*
X22541Y100500D01*
Y102499D01*
X22041Y102999D01*
X23540Y100000D02*
Y102999D01*
X25040D01*
X25540Y102499D01*
Y101499D01*
X25040Y101000D01*
X23540D01*
X24540D02*
X25540Y100000D01*
X29539D02*
Y102999D01*
X31038D01*
X31538Y102499D01*
Y101499D01*
X31038Y101000D01*
X29539D01*
X30538D02*
X31538Y100000D01*
X34537Y102999D02*
X32538D01*
Y100000D01*
X34537D01*
X32538Y101499D02*
X33537D01*
X35537Y102999D02*
Y101000D01*
X36536Y100000D01*
X37536Y101000D01*
Y102999D01*
X-103385Y-54406D02*
X-100787Y-55905D01*
X-100038Y-54607D01*
X-100221Y-53924D01*
X-100654Y-53674D01*
X-101336Y-53857D01*
X-102086Y-55156D01*
X-101336Y-53857D01*
X-101519Y-53174D01*
X-101952Y-52924D01*
X-102635Y-53107D01*
X-103385Y-54406D01*
X-99288Y-53308D02*
X-101019Y-52309D01*
X-101385Y-50943D01*
X-100020Y-50577D01*
X-98288Y-51577D01*
X-99587Y-50827D01*
X-100586Y-52558D01*
X-98953Y-47730D02*
X-99636Y-47913D01*
X-100136Y-48779D01*
X-99953Y-49461D01*
X-99520Y-49711D01*
X-98837Y-49528D01*
X-98337Y-48663D01*
X-97654Y-48480D01*
X-97222Y-48730D01*
X-97039Y-49412D01*
X-97539Y-50278D01*
X-98221Y-50461D01*
X-97886Y-44883D02*
X-98886Y-46614D01*
X-96289Y-48114D01*
X-95289Y-46382D01*
X-97588Y-47364D02*
X-97088Y-46498D01*
X-94454Y-39938D02*
X-95137Y-40121D01*
X-95637Y-40987D01*
X-95454Y-41670D01*
X-93723Y-42669D01*
X-93040Y-42487D01*
X-92540Y-41621D01*
X-92723Y-40938D01*
X-93638Y-37524D02*
X-94138Y-38390D01*
X-93955Y-39072D01*
X-92223Y-40072D01*
X-91540Y-39889D01*
X-91040Y-39024D01*
X-91224Y-38341D01*
X-92955Y-37341D01*
X-93638Y-37524D01*
X-90291Y-37725D02*
X-92888Y-36225D01*
X-89291Y-35993D01*
X-91888Y-34494D01*
X-88791Y-35128D02*
X-91388Y-33628D01*
X-87792Y-33396D01*
X-90389Y-31897D01*
X-88889Y-29299D02*
X-89889Y-31031D01*
X-87292Y-32530D01*
X-86292Y-30799D01*
X-88590Y-31781D02*
X-88090Y-30915D01*
X-86957Y-26952D02*
X-87640Y-27135D01*
X-88140Y-28001D01*
X-87957Y-28684D01*
X-86225Y-29683D01*
X-85542Y-29500D01*
X-85043Y-28635D01*
X-85225Y-27952D01*
X-86890Y-25836D02*
X-85890Y-24105D01*
X-86390Y-24971D01*
X-83793Y-26470D01*
X-1181Y-106299D02*
Y-103300D01*
X318D01*
X818Y-103800D01*
Y-104800D01*
X318Y-105299D01*
X-1181D01*
X1818Y-106299D02*
Y-103300D01*
X3317D01*
X3817Y-103800D01*
Y-104800D01*
X3317Y-105299D01*
X1818D01*
X2818D02*
X3817Y-106299D01*
X6317Y-103300D02*
X5317D01*
X4817Y-103800D01*
Y-105799D01*
X5317Y-106299D01*
X6317D01*
X6816Y-105799D01*
Y-103800D01*
X6317Y-103300D01*
X7816D02*
X9815Y-106299D01*
Y-103300D02*
X7816Y-106299D01*
X10815Y-103300D02*
Y-103800D01*
X11815Y-104800D01*
X12814Y-103800D01*
Y-103300D01*
X11815Y-104800D02*
Y-106299D01*
X16813Y-103800D02*
X17313Y-103300D01*
X18313D01*
X18812Y-103800D01*
Y-104300D01*
X18313Y-104800D01*
X17813D01*
X18313D01*
X18812Y-105299D01*
Y-105799D01*
X18313Y-106299D01*
X17313D01*
X16813Y-105799D01*
X46850Y52362D02*
X49448Y53862D01*
X50197Y52563D01*
X50014Y51880D01*
X49149Y51380D01*
X48466Y51563D01*
X47716Y52862D01*
X48350Y49765D02*
X50947Y51265D01*
X51697Y49966D01*
X51514Y49283D01*
X50648Y48783D01*
X49965Y48966D01*
X49216Y50265D01*
X49716Y49399D02*
X49350Y48033D01*
X53196Y47369D02*
X52697Y48234D01*
X52014Y48417D01*
X50282Y47418D01*
X50099Y46735D01*
X50599Y45869D01*
X51282Y45686D01*
X53013Y46686D01*
X53196Y47369D01*
X53946Y46070D02*
X52349Y42839D01*
X54946Y44339D02*
X51349Y44570D01*
X55446Y43473D02*
X55013Y43223D01*
X54647Y41857D01*
X56012Y41491D01*
X56445Y41741D01*
X54647Y41857D02*
X53348Y41107D01*
X56847Y35047D02*
X55848Y36779D01*
X58579Y36047D01*
X59012Y36297D01*
X59194Y36980D01*
X58695Y37845D01*
X58012Y38028D01*
X-50394Y51181D02*
X-52991Y52681D01*
X-52241Y53979D01*
X-51558Y54162D01*
X-50693Y53662D01*
X-50510Y52980D01*
X-51259Y51681D01*
X-48894Y53778D02*
X-51491Y55278D01*
X-50742Y56577D01*
X-50059Y56759D01*
X-49193Y56260D01*
X-49010Y55577D01*
X-49760Y54278D01*
X-49260Y55144D02*
X-47894Y55510D01*
X-49242Y59174D02*
X-49742Y58308D01*
X-49559Y57625D01*
X-47828Y56625D01*
X-47145Y56809D01*
X-46645Y57674D01*
X-46828Y58357D01*
X-48559Y59357D01*
X-49242Y59174D01*
X-48492Y60472D02*
X-44895Y60704D01*
X-47493Y62204D02*
X-45895Y58973D01*
X-46993Y63070D02*
X-46560Y62820D01*
X-45194Y63186D01*
X-45560Y64551D01*
X-45993Y64801D01*
X-45194Y63186D02*
X-43896Y62436D01*
X-41397Y66764D02*
X-40897Y67630D01*
X-41147Y67197D01*
X-43744Y68697D01*
X-43561Y68014D01*
X-103786Y-108268D02*
X-100787D01*
Y-106768D01*
X-101287Y-106268D01*
X-101787D01*
X-102287Y-106768D01*
Y-108268D01*
Y-106768D01*
X-102787Y-106268D01*
X-103287D01*
X-103786Y-106768D01*
Y-108268D01*
Y-105269D02*
Y-103269D01*
Y-104269D01*
X-100787D01*
Y-102270D02*
X-103786D01*
X-100787Y-100270D01*
X-103786D01*
X-88976Y-108268D02*
X-91975D01*
Y-106768D01*
X-91476Y-106268D01*
X-90476D01*
X-89976Y-106768D01*
Y-108268D01*
Y-107268D02*
X-88976Y-106268D01*
X-91476Y-103269D02*
X-91975Y-103769D01*
Y-104769D01*
X-91476Y-105269D01*
X-90976D01*
X-90476Y-104769D01*
Y-103769D01*
X-89976Y-103269D01*
X-89476D01*
X-88976Y-103769D01*
Y-104769D01*
X-89476Y-105269D01*
X-91975Y-102270D02*
Y-100270D01*
Y-101270D01*
X-88976D01*
X-121503Y-107480D02*
X-118504D01*
Y-105981D01*
X-119004Y-105481D01*
X-121003D01*
X-121503Y-105981D01*
Y-107480D01*
Y-104481D02*
X-118504D01*
Y-102982D01*
X-119004Y-102482D01*
X-119504D01*
X-120003Y-102982D01*
Y-104481D01*
Y-102982D01*
X-120503Y-102482D01*
X-121003D01*
X-121503Y-102982D01*
Y-104481D01*
X-121003Y-99483D02*
X-121503Y-99983D01*
Y-100982D01*
X-121003Y-101482D01*
X-119004D01*
X-118504Y-100982D01*
Y-99983D01*
X-119004Y-99483D01*
X-120003D01*
Y-100483D01*
X0Y208661D02*
X181102Y-110236D01*
X-181102D02*
X0Y208661D01*
X-181102Y-110236D02*
X181102D01*
D64*
X-52756Y-42717D02*
G03*
X-52756Y-42717I-1181J0D01*
G01*
X-52232Y-92307D02*
G03*
X-52232Y-92307I-1181J0D01*
G01*
X-19488Y20669D02*
G03*
X-19488Y20669I-1181J0D01*
G01*
D65*
X-45531Y-45531D02*
G03*
X-45531Y-45531I-492J0D01*
G01*
X-45008Y-95161D02*
G03*
X-45008Y-95161I-492J0D01*
G01*
X20079Y-54724D02*
G03*
X20079Y-54724I-492J0D01*
G01*
X57087Y-57480D02*
G03*
X57087Y-57480I-492J0D01*
G01*
X-29232Y26378D02*
G03*
X-29232Y26378I-492J0D01*
G01*
X76476Y10138D02*
G03*
X76476Y10138I-492J0D01*
G01*
X71260Y-43307D02*
G03*
X71260Y-43307I-492J0D01*
G01*
X65551Y-13780D02*
G03*
X65551Y-13780I-492J0D01*
G01*
D66*
X-72047Y-32087D02*
X-50000D01*
X-72047Y-46654D02*
X-50000D01*
X-72047D02*
Y-32087D01*
X-50000Y-46654D02*
Y-32087D01*
X-49476Y-96244D02*
Y-51756D01*
X-71524Y-96244D02*
Y-51756D01*
Y-96244D02*
X-49476D01*
X-71524Y-51756D02*
X-49476D01*
X-2913Y-76075D02*
Y-57374D01*
X23366Y-76075D02*
Y-57374D01*
X-2913D02*
X23366D01*
X-2913Y-76075D02*
X23366D01*
X-97295Y-89181D02*
Y-79732D01*
X-87846Y-89181D02*
Y-79732D01*
X-24606Y-24606D02*
Y24606D01*
X24606Y-24606D02*
Y24606D01*
X-24606D02*
X24606D01*
X-24606Y-24606D02*
X24606D01*
X-120866Y-80906D02*
X-119291Y-80905D01*
X-110236Y-89063D02*
Y-79614D01*
X-100787Y-89063D02*
Y-79614D01*
X75197Y-60039D02*
X76772Y-60039D01*
X66535Y12697D02*
X72441D01*
X66535Y22736D02*
X72441D01*
X66535Y14469D02*
X66535Y12697D01*
X66535Y20965D02*
X66535Y22736D01*
X73327Y-39764D02*
Y-33858D01*
X83366Y-39764D02*
Y-33858D01*
X73327D02*
X75098D01*
X81595Y-33858D02*
X83366Y-33858D01*
X67618Y-4331D02*
X69390Y-4331D01*
X75886Y-4331D02*
X77658Y-4331D01*
X77658Y-4331D02*
X77658Y-10236D01*
X67618D02*
Y-4331D01*
M02*
