%FSLAX25Y25*%
%MOIN*%
G70*
G01*
G75*
G04 Layer_Physical_Order=2*
G04 Layer_Color=128*
%ADD10C,0.00700*%
%ADD11R,0.06299X0.02992*%
%ADD12R,0.07087X0.05512*%
%ADD13R,0.13386X0.07087*%
%ADD14R,0.01181X0.03347*%
%ADD15R,0.03937X0.03937*%
%ADD16R,0.02992X0.09449*%
%ADD17R,0.03937X0.04331*%
%ADD18R,0.05906X0.05118*%
%ADD19R,0.02362X0.01969*%
%ADD20O,0.07087X0.01181*%
%ADD21O,0.01181X0.07087*%
%ADD22R,0.04331X0.03937*%
G04:AMPARAMS|DCode=23|XSize=39.37mil|YSize=43.31mil|CornerRadius=0mil|HoleSize=0mil|Usage=FLASHONLY|Rotation=150.000|XOffset=0mil|YOffset=0mil|HoleType=Round|Shape=Rectangle|*
%AMROTATEDRECTD23*
4,1,4,0.02788,0.00891,0.00622,-0.02860,-0.02788,-0.00891,-0.00622,0.02860,0.02788,0.00891,0.0*
%
%ADD23ROTATEDRECTD23*%

%ADD24R,0.05118X0.05906*%
%ADD25R,0.02362X0.03543*%
%ADD26R,0.02559X0.02953*%
%ADD27R,0.02953X0.02559*%
%ADD28R,0.03937X0.03347*%
%ADD29R,0.03937X0.03347*%
%ADD30R,0.03347X0.03937*%
%ADD31R,0.03347X0.03937*%
%ADD32C,0.01000*%
%ADD33C,0.02000*%
%ADD34C,0.00600*%
%ADD35C,0.20000*%
%ADD36C,0.03937*%
%ADD37C,0.06000*%
%ADD38C,0.02598*%
%ADD39C,0.02000*%
%ADD40C,0.04000*%
%ADD41C,0.16500*%
%ADD42C,0.07201*%
%ADD43C,0.07150*%
%ADD44C,0.08000*%
G04:AMPARAMS|DCode=45|XSize=100mil|YSize=100mil|CornerRadius=0mil|HoleSize=0mil|Usage=FLASHONLY|Rotation=0.000|XOffset=0mil|YOffset=0mil|HoleType=Round|Shape=Relief|Width=10mil|Gap=10mil|Entries=4|*
%AMTHD45*
7,0,0,0.10000,0.08000,0.01000,45*
%
%ADD45THD45*%
%ADD46C,0.05299*%
%ADD47C,0.05000*%
G04:AMPARAMS|DCode=48|XSize=70mil|YSize=70mil|CornerRadius=0mil|HoleSize=0mil|Usage=FLASHONLY|Rotation=0.000|XOffset=0mil|YOffset=0mil|HoleType=Round|Shape=Relief|Width=10mil|Gap=10mil|Entries=4|*
%AMTHD48*
7,0,0,0.07000,0.05000,0.01000,45*
%
%ADD48THD48*%
G36*
X73969Y74342D02*
X179921Y-110236D01*
X-181102D01*
X0Y208661D01*
X73969Y74342D01*
D02*
G37*
%LPC*%
G36*
X62002Y62992D02*
X35433Y37795D01*
Y23622D01*
X15846D01*
Y59842D01*
X13484Y61417D01*
X-18799D01*
X-40453Y39764D01*
Y-787D01*
X-36122Y-5118D01*
Y-13780D01*
X-51083D01*
Y-25591D01*
X-17717D01*
X-5906Y-37402D01*
Y-55905D01*
X1181Y-62992D01*
X1181Y-98425D01*
X2756Y-100000D01*
X11024D01*
X11811Y-99213D01*
Y-58268D01*
X31890D01*
X35433Y-54331D01*
Y-26083D01*
X55610Y-5906D01*
X59055D01*
X66929Y1969D01*
Y21654D01*
X62992Y25591D01*
Y42520D01*
X63779D01*
X70472Y49213D01*
X62002Y62992D01*
D02*
G37*
%LPD*%
D34*
X0Y208661D02*
X181102Y-110236D01*
X-181102D02*
X0Y208661D01*
X-181102Y-110236D02*
X181102D01*
D40*
X-181102D02*
X181102D01*
X0Y208661D02*
X181102Y-110236D01*
X-181102D02*
X0Y208661D01*
D41*
X-157480Y-96457D02*
D03*
X0Y181102D02*
D03*
X157480Y-96457D02*
D03*
D42*
X-139356Y-77250D02*
D03*
X-92407Y4067D02*
D03*
D43*
X-121260Y-38032D02*
D03*
X-125197Y-44852D02*
D03*
X-133071Y-58490D02*
D03*
X-129134Y-51671D02*
D03*
X-137008Y-65309D02*
D03*
X-130189Y-69246D02*
D03*
X-122315Y-55608D02*
D03*
X-126252Y-62427D02*
D03*
X-118378Y-48789D02*
D03*
X-114441Y-41969D02*
D03*
X-94756Y-7874D02*
D03*
X-98693Y-14693D02*
D03*
X-106567Y-28331D02*
D03*
X-102630Y-21512D02*
D03*
X-110504Y-35150D02*
D03*
X-117323Y-31213D02*
D03*
X-109449Y-17575D02*
D03*
X-113386Y-24394D02*
D03*
X-105512Y-10756D02*
D03*
X-101575Y-3937D02*
D03*
D44*
X-44528Y88192D02*
D03*
X-39528Y96853D02*
D03*
X-34528Y105513D02*
D03*
X-29528Y114173D02*
D03*
X-24528Y122834D02*
D03*
X-19528Y131494D02*
D03*
X16500Y-94000D02*
D03*
X-3500D02*
D03*
X-51417Y73226D02*
D03*
X-56417Y64566D02*
D03*
X-61417Y55905D02*
D03*
X69055Y41735D02*
D03*
X59055Y59055D02*
D03*
D45*
X6500Y-94000D02*
D03*
X64055Y50395D02*
D03*
D46*
X44874Y-69063D02*
D03*
X49598D02*
D03*
X54323Y-69063D02*
D03*
D47*
X28740Y-27559D02*
D03*
X62205Y-7480D02*
D03*
X-22835Y-16142D02*
D03*
Y-11417D02*
D03*
X29528Y29528D02*
D03*
X49213D02*
D03*
X75984Y8661D02*
D03*
X90354Y21457D02*
D03*
X61417Y17717D02*
D03*
X72638Y197D02*
D03*
X45276Y-9843D02*
D03*
X68898Y-43307D02*
D03*
X74803Y-21654D02*
D03*
X33858Y-33858D02*
D03*
X-57087Y-90158D02*
D03*
X-43307Y-27559D02*
D03*
X-29528Y34252D02*
D03*
X104331Y-13780D02*
D03*
X-23622Y37008D02*
D03*
X62992Y86614D02*
D03*
X6890Y-11811D02*
D03*
X1969Y-7874D02*
D03*
X0Y148819D02*
D03*
X59055Y-26378D02*
D03*
X-58642Y38452D02*
D03*
X-54642D02*
D03*
X6890Y10827D02*
D03*
X17717Y-48425D02*
D03*
X31496Y-74803D02*
D03*
X39370Y17717D02*
D03*
X37402Y23622D02*
D03*
X75984Y-75590D02*
D03*
X82087Y-59055D02*
D03*
X107087Y-25394D02*
D03*
X51598Y-81563D02*
D03*
X51575Y-94488D02*
D03*
X29528Y-82677D02*
D03*
X13780Y-53150D02*
D03*
X-17717Y-72835D02*
D03*
X75984Y-49213D02*
D03*
X27953Y-37008D02*
D03*
X-94685Y-19488D02*
D03*
X-39370Y17717D02*
D03*
X-43307Y15748D02*
D03*
X-39370Y13780D02*
D03*
X-43307Y11811D02*
D03*
X-86614Y23622D02*
D03*
X-84646Y19685D02*
D03*
X-82677Y15748D02*
D03*
X-80709Y11811D02*
D03*
X-43307Y7874D02*
D03*
Y3937D02*
D03*
X-76772Y5906D02*
D03*
X-72835Y3937D02*
D03*
X-102362Y-64961D02*
D03*
X-108661Y-96764D02*
D03*
X-114173Y-82677D02*
D03*
Y-91339D02*
D03*
X-102362Y-70866D02*
D03*
X-45276Y-3937D02*
D03*
Y-7874D02*
D03*
X-68642Y-3937D02*
D03*
X-120079Y-96457D02*
D03*
X-74803Y9055D02*
D03*
X-43307Y-11811D02*
D03*
X-49213Y-9843D02*
D03*
X-53150Y-38976D02*
D03*
X-49213Y-32283D02*
D03*
Y-5906D02*
D03*
X-34413Y-49311D02*
D03*
X62205Y10630D02*
D03*
X39000Y6000D02*
D03*
X27374Y-73347D02*
D03*
X-7126Y-60102D02*
D03*
X2362Y39370D02*
D03*
X-95720Y-96882D02*
D03*
X-47795Y38299D02*
D03*
X23622Y-37000D02*
D03*
X-25083Y-35827D02*
D03*
X3500Y-36500D02*
D03*
X-3500D02*
D03*
X62992Y-51575D02*
D03*
X56299D02*
D03*
Y-44882D02*
D03*
X62992D02*
D03*
X42098Y-58063D02*
D03*
D48*
X43331Y-14999D02*
D03*
X-14567Y45000D02*
D03*
X0Y23228D02*
D03*
X-49213Y-17717D02*
D03*
X54815Y-4000D02*
D03*
Y2500D02*
D03*
Y8500D02*
D03*
X36500Y2000D02*
D03*
X2362Y56339D02*
D03*
X9843Y53839D02*
D03*
X55532Y23622D02*
D03*
X0Y10000D02*
D03*
X30500Y-53500D02*
D03*
X23622D02*
D03*
X-23622Y53854D02*
D03*
X-37000Y2250D02*
D03*
Y-1000D02*
D03*
Y5500D02*
D03*
X-3500Y-53500D02*
D03*
X3500D02*
D03*
X0Y-37500D02*
D03*
X-9843Y57087D02*
D03*
X-4106Y56339D02*
D03*
M02*
