%FSLAX25Y25*%
%MOIN*%
G70*
G01*
G75*
G04 Layer_Color=16711935*
%ADD10C,0.00700*%
%ADD11R,0.06299X0.02992*%
%ADD12R,0.07087X0.05512*%
%ADD13R,0.13386X0.07087*%
%ADD14R,0.01181X0.03347*%
%ADD15R,0.03937X0.03937*%
%ADD16R,0.02992X0.09449*%
%ADD17R,0.03937X0.04331*%
%ADD18R,0.05906X0.05118*%
%ADD19R,0.02362X0.01969*%
%ADD20O,0.07087X0.01181*%
%ADD21O,0.01181X0.07087*%
%ADD22R,0.04331X0.03937*%
G04:AMPARAMS|DCode=23|XSize=39.37mil|YSize=43.31mil|CornerRadius=0mil|HoleSize=0mil|Usage=FLASHONLY|Rotation=150.000|XOffset=0mil|YOffset=0mil|HoleType=Round|Shape=Rectangle|*
%AMROTATEDRECTD23*
4,1,4,0.02788,0.00891,0.00622,-0.02860,-0.02788,-0.00891,-0.00622,0.02860,0.02788,0.00891,0.0*
%
%ADD23ROTATEDRECTD23*%

%ADD24R,0.05118X0.05906*%
%ADD25R,0.02362X0.03543*%
%ADD26R,0.02559X0.02953*%
%ADD27R,0.02953X0.02559*%
%ADD28R,0.03937X0.03347*%
%ADD29R,0.03937X0.03347*%
%ADD30R,0.03347X0.03937*%
%ADD31R,0.03347X0.03937*%
%ADD32C,0.01000*%
%ADD33C,0.02000*%
%ADD34C,0.00600*%
%ADD35C,0.20000*%
%ADD36C,0.03937*%
%ADD37C,0.06000*%
%ADD38C,0.02598*%
%ADD39C,0.02000*%
%ADD40C,0.04000*%
%ADD41C,0.16500*%
%ADD42C,0.07201*%
%ADD43C,0.07150*%
%ADD44C,0.08000*%
G04:AMPARAMS|DCode=45|XSize=100mil|YSize=100mil|CornerRadius=0mil|HoleSize=0mil|Usage=FLASHONLY|Rotation=0.000|XOffset=0mil|YOffset=0mil|HoleType=Round|Shape=Relief|Width=10mil|Gap=10mil|Entries=4|*
%AMTHD45*
7,0,0,0.10000,0.08000,0.01000,45*
%
%ADD45THD45*%
%ADD46C,0.05299*%
%ADD47C,0.05000*%
G04:AMPARAMS|DCode=48|XSize=70mil|YSize=70mil|CornerRadius=0mil|HoleSize=0mil|Usage=FLASHONLY|Rotation=0.000|XOffset=0mil|YOffset=0mil|HoleType=Round|Shape=Relief|Width=10mil|Gap=10mil|Entries=4|*
%AMTHD48*
7,0,0,0.07000,0.05000,0.01000,45*
%
%ADD48THD48*%
G04:AMPARAMS|DCode=49|XSize=20.08mil|YSize=29.53mil|CornerRadius=0mil|HoleSize=0mil|Usage=FLASHONLY|Rotation=240.000|XOffset=0mil|YOffset=0mil|HoleType=Round|Shape=Rectangle|*
%AMROTATEDRECTD49*
4,1,4,-0.00777,0.01608,0.01781,0.00131,0.00777,-0.01608,-0.01781,-0.00131,-0.00777,0.01608,0.0*
%
%ADD49ROTATEDRECTD49*%

%ADD50R,0.06102X0.01772*%
G04:AMPARAMS|DCode=51|XSize=23.62mil|YSize=35.43mil|CornerRadius=0mil|HoleSize=0mil|Usage=FLASHONLY|Rotation=330.000|XOffset=0mil|YOffset=0mil|HoleType=Round|Shape=Rectangle|*
%AMROTATEDRECTD51*
4,1,4,-0.01909,-0.00944,-0.00137,0.02125,0.01909,0.00944,0.00137,-0.02125,-0.01909,-0.00944,0.0*
%
%ADD51ROTATEDRECTD51*%

G04:AMPARAMS|DCode=52|XSize=59.06mil|YSize=51.18mil|CornerRadius=0mil|HoleSize=0mil|Usage=FLASHONLY|Rotation=30.000|XOffset=0mil|YOffset=0mil|HoleType=Round|Shape=Rectangle|*
%AMROTATEDRECTD52*
4,1,4,-0.01278,-0.03693,-0.03837,0.00740,0.01278,0.03693,0.03837,-0.00740,-0.01278,-0.03693,0.0*
%
%ADD52ROTATEDRECTD52*%

G04:AMPARAMS|DCode=53|XSize=59.06mil|YSize=51.18mil|CornerRadius=0mil|HoleSize=0mil|Usage=FLASHONLY|Rotation=150.000|XOffset=0mil|YOffset=0mil|HoleType=Round|Shape=Rectangle|*
%AMROTATEDRECTD53*
4,1,4,0.03837,0.00740,0.01278,-0.03693,-0.03837,-0.00740,-0.01278,0.03693,0.03837,0.00740,0.0*
%
%ADD53ROTATEDRECTD53*%

%ADD54R,0.02953X0.02008*%
%ADD55R,0.03543X0.02362*%
G04:AMPARAMS|DCode=56|XSize=23.62mil|YSize=35.43mil|CornerRadius=0mil|HoleSize=0mil|Usage=FLASHONLY|Rotation=210.000|XOffset=0mil|YOffset=0mil|HoleType=Round|Shape=Rectangle|*
%AMROTATEDRECTD56*
4,1,4,0.00137,0.02125,0.01909,-0.00944,-0.00137,-0.02125,-0.01909,0.00944,0.00137,0.02125,0.0*
%
%ADD56ROTATEDRECTD56*%

%ADD57R,0.02008X0.02953*%
G04:AMPARAMS|DCode=58|XSize=20.08mil|YSize=29.53mil|CornerRadius=0mil|HoleSize=0mil|Usage=FLASHONLY|Rotation=300.000|XOffset=0mil|YOffset=0mil|HoleType=Round|Shape=Rectangle|*
%AMROTATEDRECTD58*
4,1,4,-0.01781,0.00131,0.00777,0.01608,0.01781,-0.00131,-0.00777,-0.01608,-0.01781,0.00131,0.0*
%
%ADD58ROTATEDRECTD58*%

G04:AMPARAMS|DCode=59|XSize=25.59mil|YSize=29.53mil|CornerRadius=0mil|HoleSize=0mil|Usage=FLASHONLY|Rotation=30.000|XOffset=0mil|YOffset=0mil|HoleType=Round|Shape=Rectangle|*
%AMROTATEDRECTD59*
4,1,4,-0.00370,-0.01918,-0.01846,0.00639,0.00370,0.01918,0.01846,-0.00639,-0.00370,-0.01918,0.0*
%
%ADD59ROTATEDRECTD59*%

G04:AMPARAMS|DCode=60|XSize=23.62mil|YSize=39.37mil|CornerRadius=0mil|HoleSize=0mil|Usage=FLASHONLY|Rotation=240.000|XOffset=0mil|YOffset=0mil|HoleType=Round|Shape=Rectangle|*
%AMROTATEDRECTD60*
4,1,4,-0.01114,0.02007,0.02295,0.00039,0.01114,-0.02007,-0.02295,-0.00039,-0.01114,0.02007,0.0*
%
%ADD60ROTATEDRECTD60*%

G04:AMPARAMS|DCode=61|XSize=23.62mil|YSize=39.37mil|CornerRadius=0mil|HoleSize=0mil|Usage=FLASHONLY|Rotation=300.000|XOffset=0mil|YOffset=0mil|HoleType=Round|Shape=Rectangle|*
%AMROTATEDRECTD61*
4,1,4,-0.02295,0.00039,0.01114,0.02007,0.02295,-0.00039,-0.01114,-0.02007,-0.02295,0.00039,0.0*
%
%ADD61ROTATEDRECTD61*%

%ADD62R,0.02362X0.03937*%
%ADD63R,0.02362X0.03740*%
%ADD64C,0.02362*%
%ADD65C,0.00984*%
%ADD66C,0.00787*%
%ADD67R,0.07099X0.03792*%
%ADD68R,0.07887X0.06312*%
%ADD69R,0.14186X0.07887*%
%ADD70R,0.01981X0.04147*%
%ADD71R,0.04737X0.04737*%
%ADD72R,0.03386X0.09843*%
%ADD73R,0.04737X0.05131*%
%ADD74R,0.06706X0.05918*%
%ADD75R,0.03162X0.02769*%
%ADD76O,0.07887X0.01981*%
%ADD77O,0.01981X0.07887*%
%ADD78R,0.05131X0.04737*%
G04:AMPARAMS|DCode=79|XSize=47.37mil|YSize=51.31mil|CornerRadius=0mil|HoleSize=0mil|Usage=FLASHONLY|Rotation=150.000|XOffset=0mil|YOffset=0mil|HoleType=Round|Shape=Rectangle|*
%AMROTATEDRECTD79*
4,1,4,0.03334,0.01037,0.00769,-0.03406,-0.03334,-0.01037,-0.00769,0.03406,0.03334,0.01037,0.0*
%
%ADD79ROTATEDRECTD79*%

%ADD80R,0.05918X0.06706*%
%ADD81R,0.03162X0.04343*%
%ADD82R,0.03359X0.03753*%
%ADD83R,0.03753X0.03359*%
%ADD84R,0.04737X0.04147*%
%ADD85R,0.04737X0.04147*%
%ADD86R,0.04147X0.04737*%
%ADD87R,0.04147X0.04737*%
%ADD88C,0.20300*%
%ADD89C,0.04331*%
%ADD90C,0.06800*%
%ADD91C,0.02800*%
G04:AMPARAMS|DCode=92|XSize=28.08mil|YSize=37.53mil|CornerRadius=0mil|HoleSize=0mil|Usage=FLASHONLY|Rotation=240.000|XOffset=0mil|YOffset=0mil|HoleType=Round|Shape=Rectangle|*
%AMROTATEDRECTD92*
4,1,4,-0.00923,0.02154,0.02327,0.00278,0.00923,-0.02154,-0.02327,-0.00278,-0.00923,0.02154,0.0*
%
%ADD92ROTATEDRECTD92*%

%ADD93C,0.04737*%
%ADD94R,0.06902X0.02572*%
G04:AMPARAMS|DCode=95|XSize=31.62mil|YSize=43.43mil|CornerRadius=0mil|HoleSize=0mil|Usage=FLASHONLY|Rotation=330.000|XOffset=0mil|YOffset=0mil|HoleType=Round|Shape=Rectangle|*
%AMROTATEDRECTD95*
4,1,4,-0.02455,-0.01090,-0.00283,0.02671,0.02455,0.01090,0.00283,-0.02671,-0.02455,-0.01090,0.0*
%
%ADD95ROTATEDRECTD95*%

G04:AMPARAMS|DCode=96|XSize=67.06mil|YSize=59.18mil|CornerRadius=0mil|HoleSize=0mil|Usage=FLASHONLY|Rotation=30.000|XOffset=0mil|YOffset=0mil|HoleType=Round|Shape=Rectangle|*
%AMROTATEDRECTD96*
4,1,4,-0.01424,-0.04239,-0.04383,0.00886,0.01424,0.04239,0.04383,-0.00886,-0.01424,-0.04239,0.0*
%
%ADD96ROTATEDRECTD96*%

G04:AMPARAMS|DCode=97|XSize=67.06mil|YSize=59.18mil|CornerRadius=0mil|HoleSize=0mil|Usage=FLASHONLY|Rotation=150.000|XOffset=0mil|YOffset=0mil|HoleType=Round|Shape=Rectangle|*
%AMROTATEDRECTD97*
4,1,4,0.04383,0.00886,0.01424,-0.04239,-0.04383,-0.00886,-0.01424,0.04239,0.04383,0.00886,0.0*
%
%ADD97ROTATEDRECTD97*%

%ADD98R,0.03753X0.02808*%
%ADD99R,0.04343X0.03162*%
G04:AMPARAMS|DCode=100|XSize=31.62mil|YSize=43.43mil|CornerRadius=0mil|HoleSize=0mil|Usage=FLASHONLY|Rotation=210.000|XOffset=0mil|YOffset=0mil|HoleType=Round|Shape=Rectangle|*
%AMROTATEDRECTD100*
4,1,4,0.00283,0.02671,0.02455,-0.01090,-0.00283,-0.02671,-0.02455,0.01090,0.00283,0.02671,0.0*
%
%ADD100ROTATEDRECTD100*%

%ADD101R,0.02808X0.03753*%
G04:AMPARAMS|DCode=102|XSize=28.08mil|YSize=37.53mil|CornerRadius=0mil|HoleSize=0mil|Usage=FLASHONLY|Rotation=300.000|XOffset=0mil|YOffset=0mil|HoleType=Round|Shape=Rectangle|*
%AMROTATEDRECTD102*
4,1,4,-0.02327,0.00278,0.00923,0.02154,0.02327,-0.00278,-0.00923,-0.02154,-0.02327,0.00278,0.0*
%
%ADD102ROTATEDRECTD102*%

G04:AMPARAMS|DCode=103|XSize=33.59mil|YSize=37.53mil|CornerRadius=0mil|HoleSize=0mil|Usage=FLASHONLY|Rotation=30.000|XOffset=0mil|YOffset=0mil|HoleType=Round|Shape=Rectangle|*
%AMROTATEDRECTD103*
4,1,4,-0.00516,-0.02465,-0.02393,0.00785,0.00516,0.02465,0.02393,-0.00785,-0.00516,-0.02465,0.0*
%
%ADD103ROTATEDRECTD103*%

%ADD104C,0.02800*%
G04:AMPARAMS|DCode=105|XSize=31.62mil|YSize=47.37mil|CornerRadius=0mil|HoleSize=0mil|Usage=FLASHONLY|Rotation=240.000|XOffset=0mil|YOffset=0mil|HoleType=Round|Shape=Rectangle|*
%AMROTATEDRECTD105*
4,1,4,-0.01261,0.02554,0.02842,0.00185,0.01261,-0.02554,-0.02842,-0.00185,-0.01261,0.02554,0.0*
%
%ADD105ROTATEDRECTD105*%

G04:AMPARAMS|DCode=106|XSize=31.62mil|YSize=47.37mil|CornerRadius=0mil|HoleSize=0mil|Usage=FLASHONLY|Rotation=300.000|XOffset=0mil|YOffset=0mil|HoleType=Round|Shape=Rectangle|*
%AMROTATEDRECTD106*
4,1,4,-0.02842,0.00185,0.01261,0.02554,0.02842,-0.00185,-0.01261,-0.02554,-0.02842,0.00185,0.0*
%
%ADD106ROTATEDRECTD106*%

%ADD107R,0.03162X0.04737*%
%ADD108R,0.03162X0.04540*%
%ADD109C,0.03398*%
D34*
X0Y208661D02*
X181102Y-110236D01*
X-181102D02*
X0Y208661D01*
X-181102Y-110236D02*
X181102D01*
D73*
X-17717Y-83465D02*
D03*
Y-90158D02*
D03*
D75*
X-53150Y-36220D02*
D03*
Y-32283D02*
D03*
D78*
X42252Y-52063D02*
D03*
X48945Y-52063D02*
D03*
X-109055Y-91177D02*
D03*
X-102362Y-91177D02*
D03*
X-109055Y-82677D02*
D03*
X-102362Y-82677D02*
D03*
D80*
X4878Y-86126D02*
D03*
X-2602D02*
D03*
D82*
X-53150Y-18701D02*
D03*
X-53150Y-23031D02*
D03*
X-41339Y-94488D02*
D03*
X-41339Y-90158D02*
D03*
D83*
X12205Y-85039D02*
D03*
X16535D02*
D03*
X-51575Y-90158D02*
D03*
X-47244Y-90158D02*
D03*
X49213Y17717D02*
D03*
X44882Y17717D02*
D03*
X102756Y-25394D02*
D03*
X98425Y-25394D02*
D03*
X-78543Y-2756D02*
D03*
X-82874Y-2756D02*
D03*
X-78543Y2362D02*
D03*
X-82874Y2362D02*
D03*
D84*
X91339Y-17913D02*
D03*
X81890Y-21654D02*
D03*
D85*
X91339Y-25394D02*
D03*
D86*
X-29528Y-80709D02*
D03*
X-25787Y-90158D02*
D03*
D87*
X-33268Y-90158D02*
D03*
D88*
X-157480Y-96457D02*
D03*
X0Y181102D02*
D03*
X157480Y-96457D02*
D03*
D89*
X-139356Y-77250D02*
D03*
X-92407Y4067D02*
D03*
X-121260Y-38032D02*
D03*
X-125197Y-44852D02*
D03*
X-133071Y-58490D02*
D03*
X-129134Y-51671D02*
D03*
X-137008Y-65309D02*
D03*
X-130189Y-69246D02*
D03*
X-122315Y-55608D02*
D03*
X-126252Y-62427D02*
D03*
X-118378Y-48789D02*
D03*
X-114441Y-41969D02*
D03*
X-94756Y-7874D02*
D03*
X-98693Y-14693D02*
D03*
X-106567Y-28331D02*
D03*
X-102630Y-21512D02*
D03*
X-110504Y-35150D02*
D03*
X-117323Y-31213D02*
D03*
X-109449Y-17575D02*
D03*
X-113386Y-24394D02*
D03*
X-105512Y-10756D02*
D03*
X-101575Y-3937D02*
D03*
D90*
X-44528Y88192D02*
D03*
X-39528Y96853D02*
D03*
X-34528Y105513D02*
D03*
X-29528Y114173D02*
D03*
X-24528Y122834D02*
D03*
X-19528Y131494D02*
D03*
X16500Y-94000D02*
D03*
X6500D02*
D03*
X-3500D02*
D03*
X-51417Y73226D02*
D03*
X-56417Y64566D02*
D03*
X-61417Y55905D02*
D03*
X69055Y41735D02*
D03*
X64055Y50395D02*
D03*
X59055Y59055D02*
D03*
D91*
X28740Y-27559D02*
D03*
X62205Y-7480D02*
D03*
X-22835Y-16142D02*
D03*
Y-11417D02*
D03*
X29528Y29528D02*
D03*
X49213D02*
D03*
X75984Y8661D02*
D03*
X90354Y21457D02*
D03*
X61417Y17717D02*
D03*
X72638Y197D02*
D03*
X45276Y-9843D02*
D03*
X68898Y-43307D02*
D03*
X74803Y-21654D02*
D03*
X33858Y-33858D02*
D03*
X-57087Y-90158D02*
D03*
X-43307Y-27559D02*
D03*
X-29528Y34252D02*
D03*
X43331Y-14999D02*
D03*
X104331Y-13780D02*
D03*
X-23622Y37008D02*
D03*
X62992Y86614D02*
D03*
X6890Y-11811D02*
D03*
X1969Y-7874D02*
D03*
X-14567Y45000D02*
D03*
X0Y148819D02*
D03*
X59055Y-26378D02*
D03*
X0Y23228D02*
D03*
X-58642Y38452D02*
D03*
X-54642D02*
D03*
X6890Y10827D02*
D03*
X17717Y-48425D02*
D03*
X31496Y-74803D02*
D03*
X39370Y17717D02*
D03*
X37402Y23622D02*
D03*
X75984Y-75590D02*
D03*
X82087Y-59055D02*
D03*
X107087Y-25394D02*
D03*
X51598Y-81563D02*
D03*
X51575Y-94488D02*
D03*
X29528Y-82677D02*
D03*
X13780Y-53150D02*
D03*
X-17717Y-72835D02*
D03*
X75984Y-49213D02*
D03*
X27953Y-37008D02*
D03*
X-94685Y-19488D02*
D03*
X-39370Y17717D02*
D03*
X-43307Y15748D02*
D03*
X-39370Y13780D02*
D03*
X-43307Y11811D02*
D03*
X-86614Y23622D02*
D03*
X-84646Y19685D02*
D03*
X-82677Y15748D02*
D03*
X-80709Y11811D02*
D03*
X-43307Y7874D02*
D03*
Y3937D02*
D03*
X-76772Y5906D02*
D03*
X-72835Y3937D02*
D03*
X-102362Y-64961D02*
D03*
X-108661Y-96764D02*
D03*
X-114173Y-82677D02*
D03*
Y-91339D02*
D03*
X-102362Y-70866D02*
D03*
X-45276Y-3937D02*
D03*
Y-7874D02*
D03*
X-68642Y-3937D02*
D03*
X-120079Y-96457D02*
D03*
X-74803Y9055D02*
D03*
X-43307Y-11811D02*
D03*
X-49213Y-9843D02*
D03*
X-53150Y-38976D02*
D03*
X-49213Y-32283D02*
D03*
Y-17717D02*
D03*
Y-5906D02*
D03*
X-34413Y-49311D02*
D03*
X62205Y10630D02*
D03*
X54815Y-4000D02*
D03*
Y2500D02*
D03*
Y8500D02*
D03*
X39000Y6000D02*
D03*
X36500Y2000D02*
D03*
X27374Y-73347D02*
D03*
X-7126Y-60102D02*
D03*
X2362Y56339D02*
D03*
X9843Y53839D02*
D03*
X55532Y23622D02*
D03*
X0Y10000D02*
D03*
X30500Y-53500D02*
D03*
X23622D02*
D03*
X2362Y39370D02*
D03*
X-23622Y53854D02*
D03*
X-37000Y2250D02*
D03*
Y-1000D02*
D03*
Y5500D02*
D03*
X-95720Y-96882D02*
D03*
X-47795Y38299D02*
D03*
X23622Y-37000D02*
D03*
X-25083Y-35827D02*
D03*
X3500Y-36500D02*
D03*
X-3500D02*
D03*
Y-53500D02*
D03*
X3500D02*
D03*
X0Y-37500D02*
D03*
X62992Y-51575D02*
D03*
X56299D02*
D03*
Y-44882D02*
D03*
X62992D02*
D03*
X42098Y-58063D02*
D03*
X-9843Y57087D02*
D03*
X-4106Y56339D02*
D03*
D92*
X-15724Y-13533D02*
D03*
X-3961Y-20325D02*
D03*
X3961Y20325D02*
D03*
X15724Y13533D02*
D03*
D93*
X0Y154724D02*
D03*
D94*
X-88189Y-37402D02*
D03*
X-88189Y-34843D02*
D03*
Y-32283D02*
D03*
X-88189Y-29724D02*
D03*
X-88189Y-27165D02*
D03*
Y-24606D02*
D03*
X-88189Y-22047D02*
D03*
X-88189Y-19488D02*
D03*
Y-16929D02*
D03*
Y-14370D02*
D03*
X-61417Y-37402D02*
D03*
X-61417Y-34843D02*
D03*
Y-32283D02*
D03*
Y-29724D02*
D03*
X-61417Y-27165D02*
D03*
X-61417Y-24606D02*
D03*
X-61417Y-22047D02*
D03*
Y-19488D02*
D03*
X-61417Y-16929D02*
D03*
X-61417Y-14370D02*
D03*
D95*
X37031Y-25910D02*
D03*
X40968Y-19090D02*
D03*
D96*
X54842Y46667D02*
D03*
X51102Y53145D02*
D03*
D97*
X-47925Y58439D02*
D03*
X-51665Y51961D02*
D03*
D98*
X6890Y0D02*
D03*
X-6693D02*
D03*
D99*
X3937Y45000D02*
D03*
X-3937Y45000D02*
D03*
D100*
X-40968Y-19091D02*
D03*
X-37031Y-25910D02*
D03*
D101*
X19685Y6791D02*
D03*
Y-6791D02*
D03*
X-19685Y6791D02*
D03*
Y-6791D02*
D03*
D102*
X-15724Y13533D02*
D03*
X-3961Y20325D02*
D03*
X15724Y-13533D02*
D03*
X3961Y-20325D02*
D03*
D103*
X58760Y40458D02*
D03*
X60925Y36707D02*
D03*
D104*
X3961Y-20325D02*
X9719Y-30298D01*
X15724Y13533D02*
X21482Y23506D01*
X3961Y20325D02*
X9719Y30298D01*
X-9719Y30298D02*
X-3961Y20325D01*
X-21482Y23506D02*
X-15724Y13533D01*
X19685Y6791D02*
X31201Y6791D01*
X19685Y-6791D02*
X31201Y-6791D01*
X15724Y-13533D02*
X21482Y-23506D01*
X-9719Y-30298D02*
X-3961Y-20325D01*
X-21482Y-23506D02*
X-15724Y-13533D01*
X-31201Y-6791D02*
X-19685D01*
X-31201Y6791D02*
X-19685D01*
D105*
X21459Y23861D02*
D03*
X9696Y30652D02*
D03*
X-9696Y-30652D02*
D03*
X-21459Y-23860D02*
D03*
D106*
X-10037Y30455D02*
D03*
X-21800Y23664D02*
D03*
X21800Y-23664D02*
D03*
X10037Y-30455D02*
D03*
D107*
X31496Y6988D02*
D03*
Y-6594D02*
D03*
X-31496Y-6988D02*
D03*
D108*
Y6890D02*
D03*
D109*
X44874Y-69063D02*
D03*
X49598D02*
D03*
X54323Y-69063D02*
D03*
M02*
