%FSLAX25Y25*%
%MOIN*%
G70*
G01*
G75*
G04 Layer_Physical_Order=4*
G04 Layer_Color=16711680*
%ADD10C,0.00700*%
%ADD11R,0.06299X0.02992*%
%ADD12R,0.07087X0.05512*%
%ADD13R,0.13386X0.07087*%
%ADD14R,0.01181X0.03347*%
%ADD15R,0.03937X0.03937*%
%ADD16R,0.02992X0.09449*%
%ADD17R,0.03937X0.04331*%
%ADD18R,0.05906X0.05118*%
%ADD19R,0.02362X0.01969*%
%ADD20O,0.07087X0.01181*%
%ADD21O,0.01181X0.07087*%
%ADD22R,0.04331X0.03937*%
G04:AMPARAMS|DCode=23|XSize=39.37mil|YSize=43.31mil|CornerRadius=0mil|HoleSize=0mil|Usage=FLASHONLY|Rotation=150.000|XOffset=0mil|YOffset=0mil|HoleType=Round|Shape=Rectangle|*
%AMROTATEDRECTD23*
4,1,4,0.02788,0.00891,0.00622,-0.02860,-0.02788,-0.00891,-0.00622,0.02860,0.02788,0.00891,0.0*
%
%ADD23ROTATEDRECTD23*%

%ADD24R,0.05118X0.05906*%
%ADD25R,0.02362X0.03543*%
%ADD26R,0.02559X0.02953*%
%ADD27R,0.02953X0.02559*%
%ADD28R,0.03937X0.03347*%
%ADD29R,0.03937X0.03347*%
%ADD30R,0.03347X0.03937*%
%ADD31R,0.03347X0.03937*%
%ADD32C,0.01000*%
%ADD33C,0.02000*%
%ADD34C,0.00600*%
%ADD35C,0.20000*%
%ADD36C,0.03937*%
%ADD37C,0.06000*%
%ADD38C,0.02598*%
%ADD39C,0.02000*%
%ADD40C,0.04000*%
%ADD41C,0.16500*%
%ADD42C,0.07201*%
%ADD43C,0.07150*%
%ADD44C,0.08000*%
G04:AMPARAMS|DCode=45|XSize=100mil|YSize=100mil|CornerRadius=0mil|HoleSize=0mil|Usage=FLASHONLY|Rotation=0.000|XOffset=0mil|YOffset=0mil|HoleType=Round|Shape=Relief|Width=10mil|Gap=10mil|Entries=4|*
%AMTHD45*
7,0,0,0.10000,0.08000,0.01000,45*
%
%ADD45THD45*%
%ADD46C,0.05299*%
%ADD47C,0.05000*%
G04:AMPARAMS|DCode=48|XSize=70mil|YSize=70mil|CornerRadius=0mil|HoleSize=0mil|Usage=FLASHONLY|Rotation=0.000|XOffset=0mil|YOffset=0mil|HoleType=Round|Shape=Relief|Width=10mil|Gap=10mil|Entries=4|*
%AMTHD48*
7,0,0,0.07000,0.05000,0.01000,45*
%
%ADD48THD48*%
G04:AMPARAMS|DCode=49|XSize=20.08mil|YSize=29.53mil|CornerRadius=0mil|HoleSize=0mil|Usage=FLASHONLY|Rotation=240.000|XOffset=0mil|YOffset=0mil|HoleType=Round|Shape=Rectangle|*
%AMROTATEDRECTD49*
4,1,4,-0.00777,0.01608,0.01781,0.00131,0.00777,-0.01608,-0.01781,-0.00131,-0.00777,0.01608,0.0*
%
%ADD49ROTATEDRECTD49*%

%ADD50R,0.06102X0.01772*%
G04:AMPARAMS|DCode=51|XSize=23.62mil|YSize=35.43mil|CornerRadius=0mil|HoleSize=0mil|Usage=FLASHONLY|Rotation=330.000|XOffset=0mil|YOffset=0mil|HoleType=Round|Shape=Rectangle|*
%AMROTATEDRECTD51*
4,1,4,-0.01909,-0.00944,-0.00137,0.02125,0.01909,0.00944,0.00137,-0.02125,-0.01909,-0.00944,0.0*
%
%ADD51ROTATEDRECTD51*%

G04:AMPARAMS|DCode=52|XSize=59.06mil|YSize=51.18mil|CornerRadius=0mil|HoleSize=0mil|Usage=FLASHONLY|Rotation=30.000|XOffset=0mil|YOffset=0mil|HoleType=Round|Shape=Rectangle|*
%AMROTATEDRECTD52*
4,1,4,-0.01278,-0.03693,-0.03837,0.00740,0.01278,0.03693,0.03837,-0.00740,-0.01278,-0.03693,0.0*
%
%ADD52ROTATEDRECTD52*%

G04:AMPARAMS|DCode=53|XSize=59.06mil|YSize=51.18mil|CornerRadius=0mil|HoleSize=0mil|Usage=FLASHONLY|Rotation=150.000|XOffset=0mil|YOffset=0mil|HoleType=Round|Shape=Rectangle|*
%AMROTATEDRECTD53*
4,1,4,0.03837,0.00740,0.01278,-0.03693,-0.03837,-0.00740,-0.01278,0.03693,0.03837,0.00740,0.0*
%
%ADD53ROTATEDRECTD53*%

%ADD54R,0.02953X0.02008*%
%ADD55R,0.03543X0.02362*%
G04:AMPARAMS|DCode=56|XSize=23.62mil|YSize=35.43mil|CornerRadius=0mil|HoleSize=0mil|Usage=FLASHONLY|Rotation=210.000|XOffset=0mil|YOffset=0mil|HoleType=Round|Shape=Rectangle|*
%AMROTATEDRECTD56*
4,1,4,0.00137,0.02125,0.01909,-0.00944,-0.00137,-0.02125,-0.01909,0.00944,0.00137,0.02125,0.0*
%
%ADD56ROTATEDRECTD56*%

%ADD57R,0.02008X0.02953*%
G04:AMPARAMS|DCode=58|XSize=20.08mil|YSize=29.53mil|CornerRadius=0mil|HoleSize=0mil|Usage=FLASHONLY|Rotation=300.000|XOffset=0mil|YOffset=0mil|HoleType=Round|Shape=Rectangle|*
%AMROTATEDRECTD58*
4,1,4,-0.01781,0.00131,0.00777,0.01608,0.01781,-0.00131,-0.00777,-0.01608,-0.01781,0.00131,0.0*
%
%ADD58ROTATEDRECTD58*%

G04:AMPARAMS|DCode=59|XSize=25.59mil|YSize=29.53mil|CornerRadius=0mil|HoleSize=0mil|Usage=FLASHONLY|Rotation=30.000|XOffset=0mil|YOffset=0mil|HoleType=Round|Shape=Rectangle|*
%AMROTATEDRECTD59*
4,1,4,-0.00370,-0.01918,-0.01846,0.00639,0.00370,0.01918,0.01846,-0.00639,-0.00370,-0.01918,0.0*
%
%ADD59ROTATEDRECTD59*%

G04:AMPARAMS|DCode=60|XSize=23.62mil|YSize=39.37mil|CornerRadius=0mil|HoleSize=0mil|Usage=FLASHONLY|Rotation=240.000|XOffset=0mil|YOffset=0mil|HoleType=Round|Shape=Rectangle|*
%AMROTATEDRECTD60*
4,1,4,-0.01114,0.02007,0.02295,0.00039,0.01114,-0.02007,-0.02295,-0.00039,-0.01114,0.02007,0.0*
%
%ADD60ROTATEDRECTD60*%

G04:AMPARAMS|DCode=61|XSize=23.62mil|YSize=39.37mil|CornerRadius=0mil|HoleSize=0mil|Usage=FLASHONLY|Rotation=300.000|XOffset=0mil|YOffset=0mil|HoleType=Round|Shape=Rectangle|*
%AMROTATEDRECTD61*
4,1,4,-0.02295,0.00039,0.01114,0.02007,0.02295,-0.00039,-0.01114,-0.02007,-0.02295,0.00039,0.0*
%
%ADD61ROTATEDRECTD61*%

%ADD62R,0.02362X0.03937*%
%ADD63R,0.02362X0.03740*%
G36*
X-20880Y39336D02*
X-20735Y39239D01*
X-18563Y37066D01*
X-18563Y37066D01*
X-18563Y37066D01*
X-18525Y37029D01*
X-18045Y36549D01*
X-17947Y36403D01*
X-17913Y36231D01*
Y30112D01*
Y29331D01*
X-17361Y28778D01*
X-15742Y27159D01*
X-15742Y27159D01*
X-15742Y27159D01*
X-12560Y23977D01*
X-12560Y23977D01*
X-12560Y23977D01*
X-10789Y22206D01*
X-10789Y22206D01*
X-10236Y21654D01*
X-6612D01*
X-6176Y20898D01*
X-6561Y20676D01*
X-4957Y17898D01*
X-3278Y18867D01*
X-3145Y18912D01*
X-3040Y19005D01*
X-2696Y19203D01*
X2696D01*
X3040Y19005D01*
X3145Y18912D01*
X3278Y18867D01*
X4957Y17898D01*
X6561Y20676D01*
X6176Y20898D01*
X6612Y21654D01*
X18028D01*
X18278Y21220D01*
X15290Y16044D01*
X14807Y15915D01*
X14728Y15961D01*
X13124Y13183D01*
X14803Y12213D01*
X14908Y12121D01*
X15041Y12076D01*
X16720Y11106D01*
X18324Y13884D01*
X17939Y14107D01*
X22057Y21240D01*
X22249Y21291D01*
Y21291D01*
X22249Y21291D01*
X22741Y21226D01*
X23136Y21529D01*
X23208Y21654D01*
X31496D01*
X32048Y22206D01*
X32048Y22206D01*
X32771Y22929D01*
X32771Y22929D01*
X32771Y22929D01*
X35302Y25459D01*
X35447Y25556D01*
X35619Y25591D01*
X35886D01*
X36032Y25112D01*
X35960Y25064D01*
X35518Y24402D01*
X35462Y24122D01*
X39341D01*
X39285Y24402D01*
X38844Y25064D01*
X38772Y25112D01*
X38917Y25591D01*
X41546D01*
X41718Y25556D01*
X41864Y25459D01*
X43055Y24267D01*
X43307Y24016D01*
X43633Y23873D01*
D01*
X58236Y17484D01*
X58236D01*
X60232Y16611D01*
X60264Y16563D01*
X60793Y16209D01*
X61417Y16085D01*
X61429Y16087D01*
X63022Y15391D01*
X62920Y14901D01*
X57551D01*
X53943Y18510D01*
X53579Y18753D01*
X53150Y18838D01*
X53149Y18838D01*
X51289D01*
Y19596D01*
X47312D01*
X47312Y19596D01*
Y19596D01*
X47136Y19596D01*
X47047Y19596D01*
X46958D01*
X46783Y19596D01*
X46783Y19596D01*
Y19596D01*
X42805D01*
Y18838D01*
X40545D01*
X40524Y18870D01*
X39994Y19224D01*
X39370Y19348D01*
X38746Y19224D01*
X38217Y18870D01*
X37863Y18341D01*
X37739Y17717D01*
X37863Y17092D01*
X38217Y16563D01*
X38746Y16209D01*
X39370Y16085D01*
X39994Y16209D01*
X40524Y16563D01*
X40545Y16595D01*
X42805D01*
Y15837D01*
X46783D01*
X46783Y15837D01*
Y15837D01*
X46958Y15837D01*
X47047Y15837D01*
X47136D01*
X47312Y15837D01*
X47312Y15837D01*
Y15837D01*
X51289D01*
Y16595D01*
X52685D01*
X56293Y12987D01*
X56294Y12987D01*
X56657Y12743D01*
X57087Y12658D01*
X61648D01*
X61698Y12160D01*
X61580Y12137D01*
X61051Y11784D01*
X60698Y11254D01*
X60573Y10630D01*
X60698Y10006D01*
X61051Y9476D01*
X61580Y9123D01*
X62205Y8999D01*
X62829Y9123D01*
X63358Y9476D01*
X63712Y10006D01*
X63836Y10630D01*
X63712Y11254D01*
X63358Y11784D01*
X62829Y12137D01*
X62712Y12160D01*
X62761Y12658D01*
X69268D01*
X71284Y11776D01*
X74360Y8699D01*
X74353Y8661D01*
X74477Y8037D01*
X74803Y7549D01*
Y1969D01*
X76772Y0D01*
X80709Y-3937D01*
Y-3937D01*
X80709Y-3937D01*
X80709Y-3937D01*
Y-15748D01*
X76772Y-19685D01*
Y-20532D01*
X75978D01*
X75957Y-20500D01*
X75427Y-20146D01*
X74803Y-20022D01*
X74179Y-20146D01*
X73650Y-20500D01*
X73296Y-21029D01*
X73172Y-21654D01*
X73296Y-22278D01*
X73650Y-22807D01*
X74179Y-23161D01*
X74803Y-23285D01*
X75427Y-23161D01*
X75957Y-22807D01*
X75978Y-22775D01*
X76772D01*
Y-26634D01*
X71653D01*
X71653Y-26634D01*
X71224Y-26720D01*
X70860Y-26963D01*
X68105Y-29719D01*
X67861Y-30083D01*
X67776Y-30512D01*
X67776Y-30512D01*
Y-42132D01*
X67744Y-42154D01*
X67391Y-42683D01*
X67266Y-43307D01*
X67391Y-43931D01*
X67744Y-44461D01*
X68273Y-44814D01*
X68898Y-44938D01*
X69522Y-44814D01*
X70051Y-44461D01*
X70405Y-43931D01*
X70529Y-43307D01*
X70405Y-42683D01*
X70051Y-42154D01*
X70019Y-42132D01*
Y-30976D01*
X72118Y-28877D01*
X76772D01*
Y-30106D01*
Y-47344D01*
X76385Y-47661D01*
X75984Y-47581D01*
X75360Y-47705D01*
X74831Y-48059D01*
X74477Y-48588D01*
X74353Y-49213D01*
X74477Y-49837D01*
X74673Y-50130D01*
X74124Y-50680D01*
X74124Y-50680D01*
X67850Y-56953D01*
X61024Y-63779D01*
Y-64561D01*
Y-97775D01*
Y-98425D01*
X47244D01*
Y-69513D01*
X47742Y-69464D01*
X47809Y-69804D01*
X48229Y-70432D01*
X48857Y-70852D01*
X49598Y-70999D01*
X50339Y-70852D01*
X50968Y-70432D01*
X51387Y-69804D01*
X51535Y-69063D01*
X51387Y-68322D01*
X50968Y-67694D01*
X50339Y-67274D01*
X49598Y-67127D01*
X48857Y-67274D01*
X48229Y-67694D01*
X47809Y-68322D01*
X47742Y-68662D01*
X47244Y-68613D01*
Y-54632D01*
X51710D01*
Y-53694D01*
X55811D01*
X56435Y-53570D01*
X56965Y-53216D01*
X57453Y-52728D01*
X57806Y-52199D01*
X57931Y-51575D01*
X57806Y-50950D01*
X57453Y-50421D01*
X56924Y-50068D01*
X56299Y-49944D01*
X55675Y-50068D01*
X55146Y-50421D01*
X55135Y-50432D01*
X51710D01*
Y-49494D01*
X47244D01*
Y-43307D01*
X-87008D01*
X-114173Y-66929D01*
X-123811Y-68857D01*
X-123811Y-68857D01*
X-125984Y-69291D01*
X-127888Y-68089D01*
X-127945Y-67951D01*
X-128357Y-67414D01*
X-128893Y-67002D01*
X-129518Y-66743D01*
X-130150Y-66660D01*
X-135163Y-63494D01*
X-135176Y-63477D01*
X-135713Y-63065D01*
X-136089Y-62909D01*
X-140645Y-60032D01*
X-140755Y-59544D01*
X-127165Y-38189D01*
X-113386Y-46457D01*
X-109309Y-42380D01*
X-107812Y-40883D01*
X-107812Y-40883D01*
X-106036Y-39107D01*
X-105118D01*
X-104767Y-39037D01*
X-104469Y-38838D01*
X-96273Y-30642D01*
X-91996D01*
X-91840Y-30798D01*
D01*
D01*
Y-33769D01*
Y-35916D01*
X-91840D01*
Y-38887D01*
X-84538D01*
Y-36328D01*
X-84538D01*
Y-33769D01*
Y-31210D01*
X-84538D01*
Y-28239D01*
X-84538D01*
Y-26092D01*
Y-23121D01*
X-84538D01*
Y-21374D01*
X-84138D01*
Y-19988D01*
X-88189D01*
Y-18988D01*
X-84138D01*
Y-18110D01*
X-80709D01*
X-74803Y-24016D01*
Y-29528D01*
X-65069D01*
Y-30398D01*
X-65469D01*
Y-31784D01*
X-57366D01*
Y-30642D01*
X-55331D01*
Y-31784D01*
X-53150D01*
Y-32783D01*
X-55331D01*
Y-34268D01*
X-54931D01*
Y-34636D01*
X-54931D01*
Y-37805D01*
X-54821D01*
X-54586Y-38246D01*
X-54657Y-38352D01*
X-54781Y-38976D01*
X-54657Y-39601D01*
X-54303Y-40130D01*
X-53774Y-40484D01*
X-53150Y-40608D01*
X-52525Y-40484D01*
X-51996Y-40130D01*
X-51642Y-39601D01*
X-51518Y-38976D01*
X-51642Y-38352D01*
X-51714Y-38246D01*
X-51478Y-37805D01*
X-51368D01*
Y-34636D01*
X-51368D01*
Y-34621D01*
X-51015Y-34268D01*
X-50968D01*
Y-34046D01*
X-50528Y-33810D01*
X-49993Y-34167D01*
X-49713Y-34223D01*
Y-32283D01*
X-49213D01*
Y-31784D01*
X-47273D01*
X-47329Y-31503D01*
X-47771Y-30841D01*
X-48317Y-30476D01*
X-48366Y-29979D01*
X-47915Y-29528D01*
X-35000D01*
X-33026Y-31502D01*
X-33025Y-31502D01*
X-32662Y-31745D01*
X-32232Y-31830D01*
X-32232Y-31830D01*
X-23288D01*
X-16142Y-38976D01*
X-670D01*
X-624Y-39007D01*
X0Y-39131D01*
X624Y-39007D01*
X670Y-38976D01*
X15354D01*
X21260Y-33071D01*
X29528D01*
X32283Y-35827D01*
X37795D01*
X42387Y-31235D01*
X42387Y-31235D01*
X42387Y-31235D01*
X48819Y-24803D01*
Y-5512D01*
X39324Y3983D01*
X39469Y4462D01*
X39624Y4493D01*
X40154Y4846D01*
X40507Y5376D01*
X40631Y6000D01*
X40507Y6624D01*
X40154Y7153D01*
X39624Y7507D01*
X39000Y7631D01*
X38376Y7507D01*
X37846Y7153D01*
X37493Y6624D01*
X37462Y6469D01*
X36983Y6324D01*
X35861Y7446D01*
X33465Y9843D01*
X15366D01*
X10636Y14573D01*
X10272Y14816D01*
X9843Y14901D01*
X9843Y14901D01*
X-3937D01*
X-4366Y14816D01*
X-4730Y14573D01*
X-4730Y14573D01*
X-9460Y9843D01*
X-17176D01*
X-17367Y10305D01*
X-16353Y11318D01*
X-15042Y12075D01*
X-14908Y12121D01*
X-14803Y12213D01*
X-13124Y13183D01*
X-14728Y15961D01*
X-14807Y15915D01*
X-15290Y16044D01*
X-19231Y22871D01*
X-19180Y23063D01*
X-19180Y23063D01*
X-19180D01*
X-18877Y23457D01*
X-18942Y23950D01*
X-20123Y25995D01*
X-20518Y26298D01*
X-20518D01*
D01*
X-21011Y26233D01*
X-24420Y24265D01*
X-24420D01*
X-24723Y23870D01*
X-24658Y23378D01*
X-23477Y21332D01*
X-23082Y21029D01*
X-22590Y21094D01*
X-22127Y21361D01*
X-17939Y14107D01*
X-18324Y13884D01*
X-17825Y13019D01*
X-20478Y10366D01*
X-20721Y10002D01*
X-20753Y9843D01*
X-21654D01*
X-25591Y13780D01*
Y35277D01*
X-25204Y35594D01*
X-25064Y35566D01*
X-25064Y35566D01*
Y35566D01*
X-24402Y35124D01*
X-24122Y35068D01*
Y37008D01*
X-23622D01*
Y37508D01*
X-21682D01*
X-21738Y37788D01*
X-22180Y38450D01*
X-22842Y38892D01*
D01*
X-22696Y39370D01*
X-21052D01*
X-20880Y39336D01*
D02*
G37*
%LPC*%
G36*
X-129134Y-49080D02*
X-129804Y-49168D01*
X-130429Y-49427D01*
X-130966Y-49839D01*
X-131377Y-50375D01*
X-131636Y-51000D01*
X-131725Y-51671D01*
X-131636Y-52341D01*
X-131377Y-52966D01*
X-130966Y-53503D01*
X-130429Y-53914D01*
X-129804Y-54173D01*
X-129134Y-54261D01*
X-128463Y-54173D01*
X-127839Y-53914D01*
X-127302Y-53503D01*
X-126890Y-52966D01*
X-126631Y-52341D01*
X-126543Y-51671D01*
X-126631Y-51000D01*
X-126890Y-50375D01*
X-127302Y-49839D01*
X-127839Y-49427D01*
X-128463Y-49168D01*
X-129134Y-49080D01*
D02*
G37*
G36*
X62992Y-49944D02*
X62368Y-50068D01*
X61839Y-50421D01*
X61485Y-50950D01*
X61361Y-51575D01*
X61485Y-52199D01*
X61839Y-52728D01*
X62368Y-53082D01*
X62992Y-53206D01*
X63616Y-53082D01*
X64146Y-52728D01*
X64499Y-52199D01*
X64623Y-51575D01*
X64499Y-50950D01*
X64146Y-50421D01*
X63616Y-50068D01*
X62992Y-49944D01*
D02*
G37*
G36*
X-118195Y-49472D02*
X-119409Y-51575D01*
X-119153Y-51681D01*
X-118378Y-51783D01*
X-117603Y-51681D01*
X-116881Y-51382D01*
X-116261Y-50906D01*
X-116092Y-50686D01*
X-118195Y-49472D01*
D02*
G37*
G36*
X-133071Y-55496D02*
X-133846Y-55598D01*
X-134568Y-55897D01*
X-135188Y-56373D01*
X-135357Y-56593D01*
X-133254Y-57807D01*
X-132040Y-55704D01*
X-132296Y-55598D01*
X-133071Y-55496D01*
D02*
G37*
G36*
X-135857Y-57459D02*
X-135963Y-57715D01*
X-136065Y-58490D01*
X-135963Y-59265D01*
X-135664Y-59987D01*
X-135188Y-60607D01*
X-134968Y-60776D01*
X-133754Y-58673D01*
X-135857Y-57459D01*
D02*
G37*
G36*
X-131174Y-56204D02*
X-132388Y-58307D01*
X-130285Y-59521D01*
X-130179Y-59265D01*
X-130077Y-58490D01*
X-130179Y-57715D01*
X-130478Y-56993D01*
X-130954Y-56373D01*
X-131174Y-56204D01*
D02*
G37*
G36*
X-122315Y-53017D02*
X-122985Y-53105D01*
X-123610Y-53364D01*
X-124147Y-53776D01*
X-124558Y-54312D01*
X-124817Y-54937D01*
X-124905Y-55608D01*
X-124817Y-56278D01*
X-124558Y-56903D01*
X-124147Y-57440D01*
X-123610Y-57851D01*
X-122985Y-58110D01*
X-122315Y-58198D01*
X-121644Y-58110D01*
X-121019Y-57851D01*
X-120483Y-57440D01*
X-120071Y-56903D01*
X-119812Y-56278D01*
X-119724Y-55608D01*
X-119812Y-54937D01*
X-120071Y-54312D01*
X-120483Y-53776D01*
X-121019Y-53364D01*
X-121644Y-53105D01*
X-122315Y-53017D01*
D02*
G37*
G36*
X-127983Y-43821D02*
X-128089Y-44077D01*
X-128191Y-44852D01*
X-128089Y-45627D01*
X-127790Y-46349D01*
X-127314Y-46969D01*
X-127094Y-47138D01*
X-125880Y-45035D01*
X-127983Y-43821D01*
D02*
G37*
G36*
X56299Y-43251D02*
X55675Y-43375D01*
X55146Y-43728D01*
X54792Y-44258D01*
X54668Y-44882D01*
X54792Y-45506D01*
X55146Y-46035D01*
X55675Y-46389D01*
X56299Y-46513D01*
X56924Y-46389D01*
X57453Y-46035D01*
X57806Y-45506D01*
X57931Y-44882D01*
X57806Y-44258D01*
X57453Y-43728D01*
X56924Y-43375D01*
X56299Y-43251D01*
D02*
G37*
G36*
X62992D02*
X62368Y-43375D01*
X61839Y-43728D01*
X61485Y-44258D01*
X61361Y-44882D01*
X61485Y-45506D01*
X61839Y-46035D01*
X62368Y-46389D01*
X62992Y-46513D01*
X63616Y-46389D01*
X64146Y-46035D01*
X64499Y-45506D01*
X64623Y-44882D01*
X64499Y-44258D01*
X64146Y-43728D01*
X63616Y-43375D01*
X62992Y-43251D01*
D02*
G37*
G36*
X-125014Y-45535D02*
X-126228Y-47638D01*
X-125972Y-47744D01*
X-125197Y-47846D01*
X-124422Y-47744D01*
X-123700Y-47445D01*
X-123080Y-46969D01*
X-122911Y-46749D01*
X-125014Y-45535D01*
D02*
G37*
G36*
X-121164Y-47758D02*
X-121270Y-48014D01*
X-121372Y-48789D01*
X-121270Y-49564D01*
X-120971Y-50286D01*
X-120495Y-50906D01*
X-120275Y-51075D01*
X-119061Y-48972D01*
X-121164Y-47758D01*
D02*
G37*
G36*
X-116481Y-46503D02*
X-117695Y-48606D01*
X-115592Y-49820D01*
X-115486Y-49564D01*
X-115384Y-48789D01*
X-115486Y-48014D01*
X-115785Y-47291D01*
X-116261Y-46671D01*
X-116481Y-46503D01*
D02*
G37*
G36*
X-118378Y-45794D02*
X-119153Y-45897D01*
X-119875Y-46196D01*
X-120495Y-46671D01*
X-120664Y-46891D01*
X-118561Y-48106D01*
X-117347Y-46003D01*
X-117603Y-45897D01*
X-118378Y-45794D01*
D02*
G37*
G36*
X51098Y-82063D02*
X49659D01*
X49714Y-82343D01*
X50156Y-83005D01*
X50818Y-83447D01*
X51098Y-83503D01*
Y-82063D01*
D02*
G37*
G36*
X53538D02*
X52098D01*
Y-83503D01*
X52379Y-83447D01*
X53040Y-83005D01*
X53482Y-82343D01*
X53538Y-82063D01*
D02*
G37*
G36*
X51098Y-79623D02*
X50818Y-79679D01*
X50156Y-80121D01*
X49714Y-80783D01*
X49659Y-81063D01*
X51098D01*
Y-79623D01*
D02*
G37*
G36*
X52075Y-92549D02*
Y-93988D01*
X53514D01*
X53459Y-93708D01*
X53017Y-93046D01*
X52355Y-92604D01*
X52075Y-92549D01*
D02*
G37*
G36*
X51075Y-94988D02*
X49635D01*
X49691Y-95269D01*
X50133Y-95930D01*
X50794Y-96372D01*
X51075Y-96428D01*
Y-94988D01*
D02*
G37*
G36*
X53514D02*
X52075D01*
Y-96428D01*
X52355Y-96372D01*
X53017Y-95930D01*
X53459Y-95269D01*
X53514Y-94988D01*
D02*
G37*
G36*
X51075Y-92549D02*
X50794Y-92604D01*
X50133Y-93046D01*
X49691Y-93708D01*
X49635Y-93988D01*
X51075D01*
Y-92549D01*
D02*
G37*
G36*
X-124355Y-60141D02*
X-125569Y-62244D01*
X-123466Y-63458D01*
X-123360Y-63202D01*
X-123258Y-62427D01*
X-123360Y-61652D01*
X-123659Y-60930D01*
X-124135Y-60310D01*
X-124355Y-60141D01*
D02*
G37*
G36*
X-126252Y-59433D02*
X-127027Y-59535D01*
X-127749Y-59834D01*
X-128369Y-60310D01*
X-128538Y-60530D01*
X-126435Y-61744D01*
X-125221Y-59641D01*
X-125477Y-59535D01*
X-126252Y-59433D01*
D02*
G37*
G36*
X-132888Y-59173D02*
X-134102Y-61276D01*
X-133846Y-61382D01*
X-133071Y-61484D01*
X-132296Y-61382D01*
X-131574Y-61083D01*
X-130954Y-60607D01*
X-130785Y-60387D01*
X-132888Y-59173D01*
D02*
G37*
G36*
X-129038Y-61396D02*
X-129144Y-61652D01*
X-129246Y-62427D01*
X-129144Y-63202D01*
X-128845Y-63924D01*
X-128369Y-64544D01*
X-128149Y-64713D01*
X-126935Y-62610D01*
X-129038Y-61396D01*
D02*
G37*
G36*
X52098Y-79623D02*
Y-81063D01*
X53538D01*
X53482Y-80783D01*
X53040Y-80121D01*
X52379Y-79679D01*
X52098Y-79623D01*
D02*
G37*
G36*
X54323Y-67127D02*
X53582Y-67274D01*
X52954Y-67694D01*
X52534Y-68322D01*
X52386Y-69063D01*
X52534Y-69804D01*
X52954Y-70432D01*
X53582Y-70852D01*
X54323Y-70999D01*
X55064Y-70852D01*
X55692Y-70432D01*
X56112Y-69804D01*
X56259Y-69063D01*
X56112Y-68322D01*
X55692Y-67694D01*
X55064Y-67274D01*
X54323Y-67127D01*
D02*
G37*
G36*
X-126069Y-63110D02*
X-127283Y-65213D01*
X-127027Y-65319D01*
X-126252Y-65421D01*
X-125477Y-65319D01*
X-124755Y-65020D01*
X-124135Y-64544D01*
X-123966Y-64324D01*
X-126069Y-63110D01*
D02*
G37*
G36*
X54815Y-2369D02*
X54191Y-2493D01*
X53661Y-2847D01*
X53308Y-3376D01*
X53184Y-4000D01*
X53308Y-4624D01*
X53661Y-5153D01*
X54191Y-5507D01*
X54815Y-5631D01*
X55439Y-5507D01*
X55968Y-5153D01*
X56322Y-4624D01*
X56446Y-4000D01*
X56322Y-3376D01*
X55968Y-2847D01*
X55439Y-2493D01*
X54815Y-2369D01*
D02*
G37*
G36*
X72138Y-303D02*
X70698D01*
X70754Y-583D01*
X71196Y-1245D01*
X71857Y-1687D01*
X72138Y-1743D01*
Y-303D01*
D02*
G37*
G36*
X74577D02*
X73138D01*
Y-1743D01*
X73418Y-1687D01*
X74080Y-1245D01*
X74522Y-583D01*
X74577Y-303D01*
D02*
G37*
G36*
X62205Y-5849D02*
X61580Y-5973D01*
X61051Y-6327D01*
X60698Y-6856D01*
X60573Y-7480D01*
X60698Y-8105D01*
X61051Y-8634D01*
X61580Y-8987D01*
X62205Y-9112D01*
X62829Y-8987D01*
X63358Y-8634D01*
X63712Y-8105D01*
X63836Y-7480D01*
X63712Y-6856D01*
X63358Y-6327D01*
X62829Y-5973D01*
X62205Y-5849D01*
D02*
G37*
G36*
X60995Y-26878D02*
X59555D01*
Y-28318D01*
X59835Y-28262D01*
X60497Y-27820D01*
X60939Y-27158D01*
X60995Y-26878D01*
D02*
G37*
G36*
X58555Y-24438D02*
X58275Y-24494D01*
X57613Y-24936D01*
X57171Y-25598D01*
X57115Y-25878D01*
X58555D01*
Y-24438D01*
D02*
G37*
G36*
X59555D02*
Y-25878D01*
X60995D01*
X60939Y-25598D01*
X60497Y-24936D01*
X59835Y-24494D01*
X59555Y-24438D01*
D02*
G37*
G36*
X36902Y23122D02*
X35462D01*
X35518Y22842D01*
X35960Y22180D01*
X36621Y21738D01*
X36902Y21682D01*
Y23122D01*
D02*
G37*
G36*
X39341D02*
X37902D01*
Y21682D01*
X38182Y21738D01*
X38844Y22180D01*
X39285Y22842D01*
X39341Y23122D01*
D02*
G37*
G36*
X-21682Y36508D02*
X-23122D01*
Y35068D01*
X-22842Y35124D01*
X-22180Y35566D01*
X-21738Y36228D01*
X-21682Y36508D01*
D02*
G37*
G36*
X54815Y10131D02*
X54191Y10007D01*
X53661Y9653D01*
X53308Y9124D01*
X53184Y8500D01*
X53308Y7876D01*
X53661Y7346D01*
X54191Y6993D01*
X54815Y6869D01*
X55439Y6993D01*
X55968Y7346D01*
X56322Y7876D01*
X56446Y8500D01*
X56322Y9124D01*
X55968Y9653D01*
X55439Y10007D01*
X54815Y10131D01*
D02*
G37*
G36*
X72138Y2137D02*
X71857Y2081D01*
X71196Y1639D01*
X70754Y977D01*
X70698Y697D01*
X72138D01*
Y2137D01*
D02*
G37*
G36*
X73138D02*
Y697D01*
X74577D01*
X74522Y977D01*
X74080Y1639D01*
X73418Y2081D01*
X73138Y2137D01*
D02*
G37*
G36*
X54815Y4131D02*
X54191Y4007D01*
X53661Y3653D01*
X53308Y3124D01*
X53184Y2500D01*
X53308Y1876D01*
X53661Y1347D01*
X54191Y993D01*
X54815Y869D01*
X55439Y993D01*
X55968Y1347D01*
X56322Y1876D01*
X56446Y2500D01*
X56322Y3124D01*
X55968Y3653D01*
X55439Y4007D01*
X54815Y4131D01*
D02*
G37*
G36*
X23122Y-37500D02*
X21682D01*
X21738Y-37780D01*
X22180Y-38442D01*
X22842Y-38884D01*
X23122Y-38940D01*
Y-37500D01*
D02*
G37*
G36*
X-57366Y-32783D02*
X-65469D01*
Y-34169D01*
X-65069D01*
Y-36328D01*
X-65069D01*
Y-38887D01*
X-57766D01*
Y-35916D01*
X-57766D01*
Y-34169D01*
X-57366D01*
Y-32783D01*
D02*
G37*
G36*
X-25583Y-36327D02*
X-27022D01*
X-26967Y-36607D01*
X-26525Y-37269D01*
X-25863Y-37711D01*
X-25583Y-37767D01*
Y-36327D01*
D02*
G37*
G36*
X29893Y-37508D02*
X28453D01*
Y-38948D01*
X28733Y-38892D01*
X29395Y-38450D01*
X29837Y-37788D01*
X29893Y-37508D01*
D02*
G37*
G36*
X-123300Y-42566D02*
X-124514Y-44669D01*
X-122411Y-45883D01*
X-122305Y-45627D01*
X-122203Y-44852D01*
X-122305Y-44077D01*
X-122604Y-43354D01*
X-123080Y-42734D01*
X-123300Y-42566D01*
D02*
G37*
G36*
X-125197Y-41857D02*
X-125972Y-41960D01*
X-126694Y-42259D01*
X-127314Y-42734D01*
X-127483Y-42954D01*
X-125380Y-44169D01*
X-124166Y-42066D01*
X-124422Y-41960D01*
X-125197Y-41857D01*
D02*
G37*
G36*
X24122Y-35060D02*
Y-37000D01*
Y-38940D01*
X24402Y-38884D01*
X25064Y-38442D01*
X25506Y-37780D01*
X25537Y-37626D01*
X26037D01*
X26069Y-37788D01*
X26511Y-38450D01*
X27172Y-38892D01*
X27453Y-38948D01*
Y-37008D01*
Y-35068D01*
X27172Y-35124D01*
X26511Y-35566D01*
X26069Y-36228D01*
X26038Y-36381D01*
X25538D01*
X25506Y-36220D01*
X25064Y-35558D01*
X24402Y-35116D01*
X24122Y-35060D01*
D02*
G37*
G36*
X-24583Y-33887D02*
Y-35327D01*
X-23143D01*
X-23199Y-35046D01*
X-23641Y-34385D01*
X-24302Y-33943D01*
X-24583Y-33887D01*
D02*
G37*
G36*
X-47273Y-32783D02*
X-48713D01*
Y-34223D01*
X-48432Y-34167D01*
X-47771Y-33725D01*
X-47329Y-33064D01*
X-47273Y-32783D01*
D02*
G37*
G36*
X58555Y-26878D02*
X57115D01*
X57171Y-27158D01*
X57613Y-27820D01*
X58275Y-28262D01*
X58555Y-28318D01*
Y-26878D01*
D02*
G37*
G36*
X-25583Y-33887D02*
X-25863Y-33943D01*
X-26525Y-34385D01*
X-26967Y-35046D01*
X-27022Y-35327D01*
X-25583D01*
Y-33887D01*
D02*
G37*
G36*
X-23143Y-36327D02*
X-24583D01*
Y-37767D01*
X-24302Y-37711D01*
X-23641Y-37269D01*
X-23199Y-36607D01*
X-23143Y-36327D01*
D02*
G37*
G36*
X28453Y-35068D02*
Y-36508D01*
X29893D01*
X29837Y-36228D01*
X29395Y-35566D01*
X28733Y-35124D01*
X28453Y-35068D01*
D02*
G37*
G36*
X23122Y-35060D02*
X22842Y-35116D01*
X22180Y-35558D01*
X21738Y-36220D01*
X21682Y-36500D01*
X23122D01*
Y-35060D01*
D02*
G37*
%LPD*%
D10*
X68405Y50395D02*
G03*
X67822Y52570I-4350J0D01*
G01*
D02*
G03*
X59965Y51876I-3767J-2175D01*
G01*
X60607Y47743D02*
G03*
X68405Y50395I3449J2651D01*
G01*
X63905Y59055D02*
G03*
X63255Y61480I-4850J0D01*
G01*
X58665Y54221D02*
G03*
X63905Y59055I390J4834D01*
G01*
X73905Y41735D02*
G03*
X73255Y44160I-4850J0D01*
G01*
D02*
G03*
X64227Y41277I-4200J-2425D01*
G01*
X66488Y37620D02*
G03*
X73905Y41735I2567J4115D01*
G01*
X53877Y85203D02*
G03*
X57212Y79426I9115J1411D01*
G01*
X63255Y61480D02*
G03*
X54270Y58265I-4200J-2425D01*
G01*
X44969Y46662D02*
G03*
X43307Y47350I-1662J-1662D01*
G01*
X44971Y46660D02*
G03*
X43307Y47350I-1664J-1660D01*
G01*
X89433Y23618D02*
G03*
X88010Y21613I922J-2162D01*
G01*
X75679Y33943D02*
G03*
X74016Y34633I-1664J-1660D01*
G01*
X75677Y33945D02*
G03*
X74016Y34633I-1662J-1662D01*
G01*
X72530Y15439D02*
G03*
X70866Y16129I-1664J-1660D01*
G01*
X78334Y7049D02*
G03*
X78834Y8661I-2350J1612D01*
G01*
D02*
G03*
X76506Y11463I-2850J0D01*
G01*
X72528Y15441D02*
G03*
X70866Y16129I-1662J-1662D01*
G01*
X107181Y-13780D02*
G03*
X104852Y-10978I-2850J0D01*
G01*
X94304Y-6102D02*
G03*
X94994Y-7766I2350J0D01*
G01*
X94304Y-6102D02*
G03*
X94992Y-7764I2350J0D01*
G01*
X93689Y-12598D02*
G03*
X92998Y-10935I-2350J0D01*
G01*
X93689Y-12598D02*
G03*
X93000Y-10937I-2350J0D01*
G01*
X63767Y23622D02*
G03*
X63079Y25284I-2350J0D01*
G01*
X63767Y23622D02*
G03*
X63077Y25286I-2350J0D01*
G01*
X50825Y31878D02*
G03*
X50825Y27178I-1612J-2350D01*
G01*
X55755Y25961D02*
G03*
X57881Y23622I-223J-2339D01*
G01*
X64162Y16950D02*
G03*
X64267Y17717I-2745J766D01*
G01*
D02*
G03*
X63767Y19329I-2850J0D01*
G01*
X42474Y-10364D02*
G03*
X46933Y-12161I2802J521D01*
G01*
X12192Y53839D02*
G03*
X12192Y53839I-2350J0D01*
G01*
X9224Y148819D02*
G03*
X9123Y150180I-9224J0D01*
G01*
D02*
G03*
X10145Y153740I-9123J4545D01*
G01*
X32378Y29528D02*
G03*
X26829Y30443I-2850J0D01*
G01*
X29645Y26680D02*
G03*
X32378Y29528I-117J2848D01*
G01*
X4712Y56339D02*
G03*
X4712Y56339I-2350J0D01*
G01*
X-9123Y150180D02*
G03*
X9224Y148819I9123J-1361D01*
G01*
X-1756Y56339D02*
G03*
X-1756Y56339I-2350J0D01*
G01*
X5212Y39370D02*
G03*
X3532Y41969I-2850J0D01*
G01*
X1192D02*
G03*
X5212Y39370I1170J-2599D01*
G01*
X36481Y4350D02*
G03*
X34527Y3277I19J-2350D01*
G01*
X34462Y3170D02*
G03*
X34315Y2866I2038J-1170D01*
G01*
X4104Y11429D02*
G03*
X4540Y9214I2785J-603D01*
G01*
X37880Y-12293D02*
G03*
X38570Y-10630I-1660J1664D01*
G01*
X37882Y-12292D02*
G03*
X38570Y-10630I-1662J1662D01*
G01*
X31805Y-11722D02*
G03*
X31115Y-13386I1660J-1664D01*
G01*
X31803Y-11724D02*
G03*
X31115Y-13386I1662J-1662D01*
G01*
X21971Y-10118D02*
G03*
X22034Y-9641I-2286J545D01*
G01*
X21971Y-10118D02*
G03*
X22034Y-9641I-2286J545D01*
G01*
X21347Y-11234D02*
G03*
X21971Y-10118I-1662J1662D01*
G01*
X21345Y-11236D02*
G03*
X21971Y-10118I-1660J1664D01*
G01*
X4540Y-10199D02*
G03*
X4154Y-12611I2350J-1612D01*
G01*
X2228Y23976D02*
G03*
X-2228Y23976I-2228J-747D01*
G01*
X-1865Y11429D02*
G03*
X2350Y10000I1865J-1429D01*
G01*
D02*
G03*
X1865Y11429I-2350J0D01*
G01*
X4540Y-6645D02*
G03*
X356Y-5524I-2571J-1229D01*
G01*
Y-10224D02*
G03*
X4540Y-9103I1612J2350D01*
G01*
X-9043Y-5118D02*
G03*
X-8355Y-6780I2350J0D01*
G01*
X-9043Y-5118D02*
G03*
X-8353Y-6782I2350J0D01*
G01*
X-5601Y-9534D02*
G03*
X-3937Y-10224I1664J1660D01*
G01*
X-5599Y-9536D02*
G03*
X-3937Y-10224I1662J1662D01*
G01*
X-4331Y-12611D02*
G03*
X-5992Y-13299I0J-2350D01*
G01*
X-4331Y-12611D02*
G03*
X-5994Y-13301I0J-2350D01*
G01*
X101529Y-14301D02*
G03*
X107181Y-13780I2802J521D01*
G01*
X109437Y-25394D02*
G03*
X105582Y-23588I-2350J0D01*
G01*
Y-27199D02*
G03*
X109437Y-25394I1504J1805D01*
G01*
X45681Y-14999D02*
G03*
X41041Y-15528I-2350J0D01*
G01*
X44018Y-17246D02*
G03*
X45681Y-14999I-687J2247D01*
G01*
X84055Y-30106D02*
G03*
X85719Y-29416I0J2350D01*
G01*
X84055Y-30106D02*
G03*
X85717Y-29418I0J2350D01*
G01*
X36708Y-33858D02*
G03*
X34380Y-31056I-2850J0D01*
G01*
X84437Y-59055D02*
G03*
X84437Y-59055I-2350J0D01*
G01*
X75457Y-52013D02*
G03*
X78834Y-49213I527J2801D01*
G01*
D02*
G03*
X78580Y-48037I-2850J0D01*
G01*
X78334Y-75590D02*
G03*
X78334Y-75590I-2350J0D01*
G01*
X44948Y-58063D02*
G03*
X44602Y-56701I-2850J0D01*
G01*
X39902Y-56247D02*
G03*
X44948Y-58063I2196J-1816D01*
G01*
X45358Y-66458D02*
G03*
X45358Y-71668I-484J-2605D01*
G01*
X28689Y-75294D02*
G03*
X34346Y-74803I2807J491D01*
G01*
X31115Y-23622D02*
G03*
X32196Y-25600I2350J0D01*
G01*
X31115Y-23622D02*
G03*
X32199Y-25602I2350J0D01*
G01*
X31590Y-27559D02*
G03*
X27128Y-25209I-2850J0D01*
G01*
X32764Y-29441D02*
G03*
X31324Y-28763I-1662J-1662D01*
G01*
X31324Y-28763D02*
G03*
X31590Y-27559I-2583J1204D01*
G01*
X32766Y-29442D02*
G03*
X31324Y-28763I-1664J-1660D01*
G01*
X26071Y-46764D02*
G03*
X24409Y-46075I-1662J-1662D01*
G01*
X32850Y-53500D02*
G03*
X29884Y-51232I-2350J0D01*
G01*
D02*
G03*
X29221Y-49913I-2325J-343D01*
G01*
X29884Y-51232D02*
G03*
X29219Y-49911I-2325J-343D01*
G01*
X33846Y-59055D02*
G03*
X33158Y-57393I-2350J0D01*
G01*
X33846Y-59055D02*
G03*
X33156Y-57392I-2350J0D01*
G01*
X31425Y-55660D02*
G03*
X32850Y-53500I-925J2160D01*
G01*
X26073Y-46765D02*
G03*
X24409Y-46075I-1664J-1660D01*
G01*
X23819Y-51158D02*
G03*
X25212Y-55231I-197J-2342D01*
G01*
D02*
G03*
X25899Y-56782I2347J113D01*
G01*
X25212Y-55231D02*
G03*
X25897Y-56780I2347J113D01*
G01*
X19329Y-46075D02*
G03*
X19329Y-50775I-1612J-2350D01*
G01*
X16630Y-53150D02*
G03*
X11454Y-54797I-2850J0D01*
G01*
X5360Y-54937D02*
G03*
X5850Y-53500I-1860J1437D01*
G01*
X-1150D02*
G03*
X-5360Y-54937I-2350J0D01*
G01*
X-1640D02*
G03*
X-1150Y-53500I-1860J1437D01*
G01*
X15929Y-55020D02*
G03*
X16630Y-53150I-2150J1871D01*
G01*
X15300Y-57032D02*
G03*
X15929Y-55512I-1520J1520D01*
G01*
X15300Y-57032D02*
G03*
X15929Y-55512I-1520J1520D01*
G01*
X12205Y-59237D02*
G03*
X13725Y-58607I0J2150D01*
G01*
X12205Y-59237D02*
G03*
X13725Y-58607I0J2150D01*
G01*
X5850Y-53500D02*
G03*
X1640Y-54937I-2350J0D01*
G01*
X-4776Y-60102D02*
G03*
X-4941Y-59237I-2350J0D01*
G01*
X34346Y-74803D02*
G03*
X33846Y-73191I-2850J0D01*
G01*
X29146Y-71803D02*
G03*
X28689Y-75294I-1772J-1543D01*
G01*
X32378Y-82677D02*
G03*
X30049Y-79875I-2850J0D01*
G01*
X27646Y-77472D02*
G03*
X25984Y-76784I-1662J-1662D01*
G01*
X27648Y-77474D02*
G03*
X25984Y-76784I-1664J-1660D01*
G01*
X26726Y-83199D02*
G03*
X32378Y-82677I2802J521D01*
G01*
X19545Y-97775D02*
G03*
X21350Y-94000I-3045J3775D01*
G01*
D02*
G03*
X18650Y-89653I-4850J0D01*
G01*
X14350D02*
G03*
X13455Y-97775I2150J-4347D01*
G01*
X-9447Y-59731D02*
G03*
X-4776Y-60102I2321J-371D01*
G01*
X-4724Y-76784D02*
G03*
X-6386Y-77472I0J-2350D01*
G01*
X-4724Y-76784D02*
G03*
X-6388Y-77474I0J-2350D01*
G01*
X10850Y-94000D02*
G03*
X8787Y-90300I-4350J0D01*
G01*
X8661Y-97775D02*
G03*
X10850Y-94000I-2161J3775D01*
G01*
X1350D02*
G03*
X254Y-90929I-4850J0D01*
G01*
X2928Y-91518D02*
G03*
X4339Y-97775I3572J-2482D01*
G01*
X-455D02*
G03*
X1350Y-94000I-3045J3775D01*
G01*
X-10145Y153740D02*
G03*
X-9123Y150180I10145J984D01*
G01*
X-15760Y129319D02*
G03*
X-15178Y131494I-3767J2175D01*
G01*
D02*
G03*
X-23295Y133669I-4350J0D01*
G01*
D02*
G03*
X-15760Y129319I3767J-2175D01*
G01*
X-20327Y120408D02*
G03*
X-19678Y122834I-4200J2425D01*
G01*
X-25327Y111748D02*
G03*
X-24678Y114173I-4200J2425D01*
G01*
X-7492Y57087D02*
G03*
X-7492Y57087I-2350J0D01*
G01*
X-21272Y53854D02*
G03*
X-21272Y53854I-2350J0D01*
G01*
X-12718Y46450D02*
G03*
X-12718Y43550I-1849J-1450D01*
G01*
X-19678Y122834D02*
G03*
X-28728Y125259I-4850J0D01*
G01*
D02*
G03*
X-20327Y120408I4200J-2425D01*
G01*
X-24678Y114173D02*
G03*
X-33728Y116598I-4850J0D01*
G01*
D02*
G03*
X-25327Y111748I4200J-2425D01*
G01*
X-29678Y105513D02*
G03*
X-38728Y107938I-4850J0D01*
G01*
X-30327Y103088D02*
G03*
X-29678Y105513I-4200J2425D01*
G01*
X-38728Y107938D02*
G03*
X-30327Y103088I4200J-2425D01*
G01*
X-27178Y59055D02*
G03*
X-27866Y60717I-2350J0D01*
G01*
X-27178Y59055D02*
G03*
X-27868Y60719I-2350J0D01*
G01*
X-24569Y39696D02*
G03*
X-26469Y37130I947J-2688D01*
G01*
X-10925Y4441D02*
G03*
X-9262Y5131I0J2350D01*
G01*
X-10925Y4441D02*
G03*
X-9263Y5130I0J2350D01*
G01*
X-25064Y-9641D02*
G03*
X-25621Y-10817I2229J-1776D01*
G01*
X-29528Y19079D02*
G03*
X-31048Y18449I0J-2150D01*
G01*
X-29528Y19079D02*
G03*
X-31048Y18449I0J-2150D01*
G01*
X-31878Y35864D02*
G03*
X-31963Y32771I2350J-1612D01*
G01*
X-34650Y5500D02*
G03*
X-36243Y7725I-2350J0D01*
G01*
X-35302Y625D02*
G03*
X-34650Y2250I-1698J1625D01*
G01*
D02*
G03*
X-35302Y3875I-2350J0D01*
G01*
X-36649Y-3324D02*
G03*
X-34650Y-1000I-351J2324D01*
G01*
X-34678Y96853D02*
G03*
X-43728Y99278I-4850J0D01*
G01*
X-35327Y94428D02*
G03*
X-34678Y96853I-4200J2425D01*
G01*
X-40327Y85768D02*
G03*
X-39678Y88192I-4200J2425D01*
G01*
X-43728Y99278D02*
G03*
X-35327Y94428I4200J-2425D01*
G01*
X-39678Y88192D02*
G03*
X-48728Y90618I-4850J0D01*
G01*
D02*
G03*
X-40327Y85768I4200J-2425D01*
G01*
X-42035Y74886D02*
G03*
X-43698Y75576I-1664J-1660D01*
G01*
X-42037Y74888D02*
G03*
X-43698Y75576I-1662J-1662D01*
G01*
X-45780Y40314D02*
G03*
X-49811Y36284I-2015J-2015D01*
G01*
X-45776Y40310D02*
G03*
X-49806Y36279I-2019J-2011D01*
G01*
X-52285Y63207D02*
G03*
X-52067Y64566I-4132J1358D01*
G01*
X-47175Y75576D02*
G03*
X-55617Y75651I-4243J-2350D01*
G01*
D02*
G03*
X-47217Y70801I4200J-2425D01*
G01*
X-52067Y64566D02*
G03*
X-60185Y66741I-4350J0D01*
G01*
D02*
G03*
X-55203Y60389I3767J-2175D01*
G01*
X-57336Y58525D02*
G03*
X-65618Y58331I-4082J-2620D01*
G01*
X-56642Y37218D02*
G03*
X-52292Y38452I2000J1234D01*
G01*
D02*
G03*
X-56642Y39686I-2350J0D01*
G01*
X-56642D02*
G03*
X-56642Y37218I-2000J-1234D01*
G01*
X-65618Y58331D02*
G03*
X-58089Y52378I4200J-2425D01*
G01*
X-37309Y15748D02*
G03*
X-36520Y17717I-2061J1969D01*
G01*
X-36692Y12806D02*
G03*
X-36520Y13780I-2678J974D01*
G01*
Y17717D02*
G03*
X-41241Y19866I-2850J0D01*
G01*
X-36520Y13780D02*
G03*
X-37309Y15748I-2850J0D01*
G01*
X-36243Y7725D02*
G03*
X-35094Y8322I-371J2118D01*
G01*
X-36243Y7725D02*
G03*
X-35094Y8322I-371J2118D01*
G01*
X-41437Y27910D02*
G03*
X-39418Y27071I2019J2011D01*
G01*
X-41433Y27906D02*
G03*
X-39418Y27071I2015J2015D01*
G01*
X-41246Y5906D02*
G03*
X-40463Y7693I-2061J1969D01*
G01*
X-37846D02*
G03*
X-38698Y3875I846J-2193D01*
G01*
X-40457Y3937D02*
G03*
X-41246Y5906I-2850J0D01*
G01*
X-35302Y3875D02*
G03*
X-34650Y5500I-1698J1625D01*
G01*
X-38698Y3875D02*
G03*
X-38698Y625I1698J-1625D01*
G01*
D02*
G03*
X-39324Y-649I1698J-1625D01*
G01*
X-34650Y-1000D02*
G03*
X-35302Y625I-2350J0D01*
G01*
X-35645Y-5218D02*
G03*
X-36275Y-3697I-2150J0D01*
G01*
X-35645Y-5218D02*
G03*
X-36275Y-3697I-2150J0D01*
G01*
X-41616Y1643D02*
G03*
X-40457Y3937I-1691J2294D01*
G01*
X-71311Y-2937D02*
G03*
X-66771Y-6087I2669J-1000D01*
G01*
X-81157Y25142D02*
G03*
X-82677Y25772I-1520J-1520D01*
G01*
X-81157Y25142D02*
G03*
X-82677Y25772I-1520J-1520D01*
G01*
X-77220Y23174D02*
G03*
X-78740Y23803I-1520J-1520D01*
G01*
X-77220Y23174D02*
G03*
X-78740Y23803I-1520J-1520D01*
G01*
X-84743Y25772D02*
G03*
X-87989Y26118I-1871J-2150D01*
G01*
X-94195Y-1337D02*
G03*
X-96203Y-4340I6526J-6537D01*
G01*
X-96825Y-1337D02*
G03*
X-98376Y-1851I0J-2600D01*
G01*
X-87669Y-2937D02*
G03*
X-91903Y-5336I0J-4937D01*
G01*
X-97756Y-3937D02*
G03*
X-98376Y-1851I-3819J0D01*
G01*
X-90937Y-7874D02*
G03*
X-91903Y-5336I-3819J0D01*
G01*
X-70472Y-9267D02*
G03*
X-71993Y-9897I0J-2150D01*
G01*
X-70472Y-9267D02*
G03*
X-71993Y-9897I0J-2150D01*
G01*
X-91449Y-9783D02*
G03*
X-90937Y-7874I-3307J1909D01*
G01*
X-98268Y-5846D02*
G03*
X-97756Y-3937I-3307J1909D01*
G01*
X-96203Y-4340D02*
G03*
X-98063Y-5965I1447J-3534D01*
G01*
X-105392Y-4025D02*
G03*
X-98268Y-5846I3818J88D01*
G01*
X-102193Y-10756D02*
G03*
X-108033Y-8598I-3319J0D01*
G01*
X-51626Y-11359D02*
G03*
X-49410Y-12686I2413J1517D01*
G01*
X-53172Y-15874D02*
G03*
X-52968Y-14961I-1946J914D01*
G01*
X-53172Y-15874D02*
G03*
X-52968Y-14961I-1946J914D01*
G01*
X-49394Y-15374D02*
G03*
X-50672Y-15874I181J-2343D01*
G01*
X-9843Y-54937D02*
G03*
X-11363Y-55566I0J-2150D01*
G01*
X-9843Y-54937D02*
G03*
X-11363Y-55566I0J-2150D01*
G01*
X-32063Y-49311D02*
G03*
X-32063Y-49311I-2350J0D01*
G01*
X-98063Y-5965D02*
G03*
X-91449Y-9783I3307J-1909D01*
G01*
X-93090Y-17126D02*
G03*
X-97535Y-19503I-1595J-2362D01*
G01*
X-13331Y-57535D02*
G03*
X-13961Y-59055I1520J-1520D01*
G01*
X-13331Y-57535D02*
G03*
X-13961Y-59055I1520J-1520D01*
G01*
X-14866Y-72835D02*
G03*
X-15367Y-71222I-2850J0D01*
G01*
Y-74447D02*
G03*
X-14866Y-72835I-2350J1612D01*
G01*
X-27559Y-70485D02*
G03*
X-29223Y-71175I0J-2350D01*
G01*
X-27559Y-70485D02*
G03*
X-29221Y-71173I0J-2350D01*
G01*
X-31187Y-73140D02*
G03*
X-31878Y-74803I1660J-1664D01*
G01*
X-31189Y-73141D02*
G03*
X-31878Y-74803I1662J-1662D01*
G01*
X-55474Y-87808D02*
G03*
X-55474Y-92507I-1612J-2350D01*
G01*
X-93370Y-96882D02*
G03*
X-97894Y-97775I-2350J0D01*
G01*
X-95888Y-12920D02*
G03*
X-101567Y-13034I-2805J-1773D01*
G01*
D02*
G03*
X-101909Y-15509I2874J-1659D01*
G01*
X-95819Y-16352D02*
G03*
X-95571Y-15820I-2874J1659D01*
G01*
X-101909Y-15509D02*
G03*
X-102504Y-15425I-594J-2066D01*
G01*
X-101909Y-15509D02*
G03*
X-102504Y-15425I-594J-2066D01*
G01*
X-99045Y-17993D02*
G03*
X-95819Y-16352I353J3300D01*
G01*
X-102638Y-12415D02*
G03*
X-102193Y-10756I-2874J1659D01*
G01*
X-108641Y-9652D02*
G03*
X-102638Y-12415I3129J-1104D01*
G01*
X-106293Y-15425D02*
G03*
X-111282Y-14225I-3156J-2150D01*
G01*
X-108726Y-25811D02*
G03*
X-109441Y-26672I2159J-2520D01*
G01*
X-110024Y-23622D02*
G03*
X-109394Y-25142I2150J0D01*
G01*
X-99512Y-64961D02*
G03*
X-99512Y-64961I-2850J0D01*
G01*
Y-70866D02*
G03*
X-104512Y-72737I-2850J0D01*
G01*
X-109470Y-21394D02*
G03*
X-110024Y-22835I1596J-1441D01*
G01*
X-109470Y-21394D02*
G03*
X-110024Y-22835I1596J-1441D01*
G01*
X-113266Y-17663D02*
G03*
X-109470Y-21394I3818J88D01*
G01*
X-110024Y-23622D02*
G03*
X-109394Y-25142I2150J0D01*
G01*
X-109441Y-26672D02*
G03*
X-109803Y-29063I2874J-1659D01*
G01*
X-110512Y-26054D02*
G03*
X-110067Y-24394I-2874J1659D01*
G01*
D02*
G03*
X-115907Y-22236I-3319J0D01*
G01*
X-116515Y-23290D02*
G03*
X-110512Y-26054I3129J-1104D01*
G01*
X-121140Y-31301D02*
G03*
X-114167Y-33363I3818J88D01*
G01*
Y-29063D02*
G03*
X-119156Y-27863I-3156J-2150D01*
G01*
X-117941Y-38032D02*
G03*
X-123781Y-35874I-3319J0D01*
G01*
X-124389Y-36928D02*
G03*
X-124545Y-37562I3129J-1104D01*
G01*
X-113878Y-33363D02*
G03*
X-109793Y-38902I3374J-1787D01*
G01*
X-111149Y-41552D02*
G03*
X-117315Y-40310I-3292J-418D01*
G01*
X-118386Y-39692D02*
G03*
X-117941Y-38032I-2874J1659D01*
G01*
X-119299Y-40709D02*
G03*
X-118386Y-39692I-1961J2677D01*
G01*
X-117315Y-40310D02*
G03*
X-117743Y-41643I2874J-1659D01*
G01*
X-133701Y-67218D02*
G03*
X-133486Y-66784I-3307J1909D01*
G01*
X-140825Y-65396D02*
G03*
X-133701Y-67218I3818J88D01*
G01*
X-133496Y-67337D02*
G03*
X-127741Y-72176I3307J-1909D01*
G01*
X-133235Y-66943D02*
G03*
X-133496Y-67337I3046J-2303D01*
G01*
X-100212Y-72737D02*
G03*
X-99512Y-70866I-2150J1871D01*
G01*
X-93547Y-97775D02*
G03*
X-93370Y-96882I-2174J893D01*
G01*
X-105811Y-96764D02*
G03*
X-106936Y-94496I-2850J0D01*
G01*
X-105997Y-97775D02*
G03*
X-105811Y-96764I-2664J1011D01*
G01*
X-112571Y-80959D02*
G03*
X-112571Y-84396I-1603J-1719D01*
G01*
X-127741Y-84646D02*
G03*
X-127111Y-86166I2150J0D01*
G01*
X-127741Y-84646D02*
G03*
X-127111Y-86166I2150J0D01*
G01*
X-136049Y-79160D02*
G03*
X-135538Y-77250I-3307J1909D01*
G01*
X-140690Y-80828D02*
G03*
X-136049Y-79160I1333J3578D01*
G01*
X-142663Y-75341D02*
G03*
X-143122Y-76616I3307J-1909D01*
G01*
X-135538Y-77250D02*
G03*
X-142663Y-75341I-3819J0D01*
G01*
X-112571Y-89620D02*
G03*
X-116448Y-90748I-1603J-1719D01*
G01*
X-117729Y-96457D02*
G03*
X-118123Y-95154I-2350J0D01*
G01*
X-118133Y-97775D02*
G03*
X-117729Y-96457I-1945J1319D01*
G01*
X-118776Y-94501D02*
G03*
X-122024Y-97775I-1303J-1956D01*
G01*
X67467Y53093D02*
X70604Y56230D01*
X63208Y61561D02*
X65946Y64299D01*
X62448Y54437D02*
X68275Y60264D01*
X63044Y56296D02*
X64634Y54706D01*
X66304Y46672D02*
X66898Y46078D01*
X66729Y45990D02*
X72934Y52195D01*
X59780Y51770D02*
X60013Y52002D01*
X59186Y63903D02*
X63616Y68334D01*
X58762Y54214D02*
X60332Y52644D01*
X60261Y45887D02*
X61357Y46983D01*
X59544Y47130D02*
X60607Y47743D01*
X59544Y47130D02*
X60523Y45433D01*
X57033Y51478D02*
X57594Y50507D01*
X59965Y51876D01*
X72374Y45271D02*
X75263Y48161D01*
X73651Y40184D02*
X77592Y44126D01*
X68366Y50973D02*
X80842Y38498D01*
X57212Y79426D02*
X89433Y23618D01*
X74428Y34597D02*
X79922Y40091D01*
X69686Y36926D02*
X71978Y34633D01*
X73399Y39577D02*
X89381Y23595D01*
X64664Y36491D02*
X66488Y37620D01*
X68100Y34633D02*
X70606Y37139D01*
X61781Y41043D02*
X64799Y44061D01*
X59627Y46985D02*
X64246Y42366D01*
X59624Y44220D02*
X61539Y40903D01*
X58013Y43984D02*
X60523Y45433D01*
X58147Y43772D02*
X58830Y44456D01*
X58334Y43476D02*
X59624Y44220D01*
X61972Y41153D02*
X62513Y40217D01*
X61539Y40903D02*
X61972Y41153D01*
X62513Y40217D02*
X64227Y41277D01*
X58013Y43984D02*
X58334Y43476D01*
X36269Y47350D02*
X61287Y72368D01*
X29905Y47350D02*
X58958Y76403D01*
X17177Y47350D02*
X54076Y84249D01*
X-1248Y139680D02*
X54040Y84392D01*
X23541Y47350D02*
X56377Y80186D01*
X56686Y53078D02*
X58665Y54221D01*
X56686Y53078D02*
X57466Y51728D01*
X57033Y51478D02*
X57466Y51728D01*
X53639Y58356D02*
X54207Y58924D01*
X53836Y58015D02*
X54270Y58265D01*
X14307Y153740D02*
X53877Y85203D01*
X4193Y140603D02*
X46068Y98727D01*
X11959Y54860D02*
X49640Y92541D01*
X2978Y58607D02*
X44981Y100610D01*
X-3410Y58583D02*
X42652Y104645D01*
X-1734Y47531D02*
X47311Y96576D01*
X53057Y59365D02*
X53836Y58015D01*
X44738Y54562D02*
X53057Y59365D01*
X42633Y47350D02*
X46607Y51325D01*
X7559Y47350D02*
X43307D01*
X10813D02*
X51969Y88507D01*
X55846Y42733D02*
X56167Y42225D01*
X53070Y41130D02*
X55846Y42733D01*
X44971Y46660D02*
X56997Y34633D01*
X49580Y47175D02*
X53070Y41130D01*
X42334Y42650D02*
X53106Y31878D01*
X56552Y38023D02*
X56985Y38273D01*
X56552Y38023D02*
X58509Y34633D01*
X55069Y41591D02*
X56167Y42225D01*
X53003Y38628D02*
X55397Y41023D01*
X55069Y41591D02*
X56985Y38273D01*
X49147Y46925D02*
X49580Y47175D01*
X46639Y44992D02*
X48937Y47290D01*
X49821Y41810D02*
X51632Y43622D01*
X44738Y54562D02*
X49147Y46925D01*
X38506Y42650D02*
X48807Y32349D01*
X32190Y30544D02*
X43315Y41668D01*
X35487Y27477D02*
X46497Y38486D01*
X7559Y42650D02*
X42334D01*
X32142D02*
X46833Y27959D01*
X81090Y28532D02*
X84581Y32022D01*
X77908Y31714D02*
X82251Y36057D01*
X84272Y25350D02*
X86910Y27988D01*
X73042Y29934D02*
X94304Y8672D01*
X75679Y33943D02*
X88010Y21613D01*
X70315Y29934D02*
X94304Y5945D01*
X87454Y22168D02*
X89239Y23953D01*
X99003Y1897D02*
X100886Y3780D01*
X78334Y6684D02*
X87313Y15663D01*
X76705Y11419D02*
X84131Y18845D01*
X80039Y2025D02*
X90495Y12481D01*
X73446Y14523D02*
X80949Y22027D01*
X68688Y16129D02*
X77767Y25209D01*
X65288Y16129D02*
X70866D01*
X78334Y3729D02*
Y7049D01*
X72530Y15439D02*
X76506Y11463D01*
X99003Y1245D02*
X106922Y-6674D01*
X99003Y-5129D02*
Y7041D01*
X101854Y-7980D02*
X105545Y-4289D01*
X99003Y-5129D02*
X104852Y-10978D01*
X99003Y-4467D02*
X103216Y-255D01*
X99003Y-5119D02*
X104864Y-10980D01*
X105149Y-11049D02*
X107874Y-8324D01*
X95157Y-14677D02*
X98531Y-11303D01*
X94994Y-7766D02*
X101529Y-14301D01*
X92767Y-10703D02*
X95349Y-8121D01*
X93689Y-14390D02*
X95157D01*
X94304Y-6102D02*
Y8672D01*
X86403Y-4339D02*
X94304Y3561D01*
X89585Y-7521D02*
X94304Y-2803D01*
X78834Y8686D02*
X94456Y-6936D01*
X83221Y-1157D02*
X93677Y9299D01*
X78334Y3729D02*
X92998Y-10935D01*
X93689Y-14390D02*
Y-12598D01*
X65018Y35230D02*
X65615Y34633D01*
X64664Y36491D02*
X65299Y35392D01*
X63986Y34633D02*
X65299Y35392D01*
X56997Y34633D02*
X58509D01*
X56185Y35446D02*
X57361Y36622D01*
X63986Y34633D02*
X74016D01*
X63749Y23918D02*
X69764Y29934D01*
X58429D02*
X73042D01*
X60915Y27448D02*
X63400Y29934D01*
X58429D02*
X63077Y25286D01*
X50825Y31878D02*
X53106D01*
X52616D02*
X52861Y32122D01*
X41832Y27457D02*
X49679Y35304D01*
X41732Y27477D02*
X42454Y27333D01*
X43066Y26924D01*
X54538Y27178D02*
X55755Y25961D01*
X50825Y27178D02*
X54538D01*
X53979D02*
X55207Y25949D01*
X43066Y26924D02*
X44389Y25601D01*
X45746Y25008D02*
X47794Y27056D01*
X64247Y18053D02*
X74585Y28391D01*
X63763Y23757D02*
X71469Y16051D01*
X63951Y29934D02*
X94304Y-420D01*
X57871Y23845D02*
X59067Y22649D01*
X44389Y25601D02*
X58992Y19213D01*
X63767Y19329D02*
Y23622D01*
X64162Y16950D02*
X64477Y16813D01*
X59067Y19329D02*
Y22649D01*
X57859Y23297D02*
X59067Y22089D01*
X50173Y23071D02*
X54280Y27178D01*
X47644Y27148D02*
X52926Y21866D01*
X54600Y21134D02*
X54842Y21375D01*
X45262Y-13660D02*
X46512Y-12410D01*
X38570Y-6461D02*
X42474Y-10364D01*
X38570Y-8326D02*
X42928Y-12684D01*
X10148Y153740D02*
X19988Y143899D01*
X10145Y153740D02*
X14307D01*
X9210Y148313D02*
X28682Y128842D01*
X7587Y143573D02*
X37375Y113785D01*
X9127Y147488D02*
X14699Y153060D01*
X19414Y42650D02*
X29691Y32373D01*
X10486Y51578D02*
X14714Y47350D01*
X14141Y31586D02*
X25205Y42650D01*
X10106Y33915D02*
X18841Y42650D01*
X7905Y35186D02*
X14519Y31368D01*
X5130Y48031D02*
X8821Y51722D01*
X7559Y41969D02*
Y42650D01*
Y47350D02*
Y48031D01*
X4900Y38073D02*
X7861Y35111D01*
X4599Y41136D02*
X5432Y41969D01*
X4874Y29936D02*
X7905Y35186D01*
X25778Y42650D02*
X40951Y27477D01*
X32373Y29691D02*
X34728Y27336D01*
X25778Y42650D02*
X40951Y27477D01*
X22446Y27163D02*
X37933Y42650D01*
X12459Y23540D02*
X31569Y42650D01*
X38917Y27477D02*
X41732D01*
X35433D02*
X35886D01*
X34831Y27357D02*
X35433Y27477D01*
X34099Y26924D02*
X34711Y27333D01*
X30715Y23540D02*
X34099Y26924D01*
X22165Y26953D02*
X26829Y30443D01*
X13050Y42650D02*
X25930Y29770D01*
X13452Y29520D02*
X17805Y25168D01*
X7367Y41969D02*
X22290Y27046D01*
X4874Y29936D02*
X5883Y29353D01*
X11488Y26118D02*
X14519Y31368D01*
X25861Y23849D02*
X29645Y26680D01*
X19668Y28395D02*
X22165Y26953D01*
X16865Y23540D02*
X19668Y28395D01*
X10819Y26504D02*
X11488Y26118D01*
X9108Y23540D02*
X10819Y26504D01*
X-9056Y59301D02*
X40323Y108679D01*
X-9056Y59301D02*
X40323Y108679D01*
X315Y48031D02*
X7559D01*
X1576Y54124D02*
X8350Y47350D01*
X-4739Y54075D02*
X1305Y48031D01*
X-9179Y46450D02*
X94Y55723D01*
X-7505Y56842D02*
X-6369Y55706D01*
X-7059Y47531D02*
X-815D01*
X-7059Y46450D02*
Y47531D01*
X315Y42657D02*
X1003Y41969D01*
X315D02*
Y48031D01*
X3532Y41969D02*
X7559D01*
X-5861Y42469D02*
X5532Y31076D01*
X-8123Y34778D02*
X315Y43216D01*
X-4030Y26144D02*
X12477Y42650D01*
X1346Y25155D02*
X5668Y29477D01*
X2920Y24221D02*
X5883Y29353D01*
X315Y41969D02*
X1192D01*
X-5794Y30743D02*
X596Y37133D01*
X-815Y43788D02*
X315Y42657D01*
X-815Y42469D02*
Y47531D01*
X-7059Y42469D02*
Y43550D01*
X-5623Y29504D02*
X-1303Y25184D01*
X-5883Y29353D02*
X-5215Y29739D01*
X-5883Y29353D02*
X-2920Y24221D01*
X-7059Y42469D02*
X-815D01*
X-8246Y34989D02*
X-5215Y29739D01*
X34527Y6112D02*
X35905Y4735D01*
X34527Y3277D02*
Y6112D01*
X29287Y26413D02*
X31438Y24263D01*
X25683Y23540D02*
X25861Y23849D01*
X25683Y23540D02*
X30715D01*
X38570Y-7624D02*
X39152Y-7042D01*
X34012Y3170D02*
X34462D01*
X34012D02*
X34315Y2866D01*
X22539Y-9641D02*
X28465Y-9641D01*
X9108Y23540D02*
X16865D01*
X10558Y26051D02*
X13069Y23540D01*
X4540Y2854D02*
Y9214D01*
X3563Y1917D02*
X4501Y2854D01*
X3563Y-2854D02*
Y2854D01*
X4540Y-6645D02*
Y-2854D01*
X3563Y2854D02*
X4540D01*
X22034Y-9641D02*
X22539D01*
X3563Y-2854D02*
X4540D01*
X2848Y-5163D02*
X4540Y-3471D01*
X38570Y-10630D02*
Y-6461D01*
X28465Y-10413D02*
Y-9641D01*
X31805Y-11722D02*
X33114Y-10413D01*
X27158Y-9641D02*
X31115Y-13598D01*
X22539Y-10118D02*
Y-9641D01*
X19700Y-13767D02*
X23825Y-9641D01*
X35815Y-14359D02*
X37880Y-12293D01*
X28465Y-10413D02*
X33114D01*
X21971Y-10118D02*
X22539D01*
X4540Y-10199D02*
Y-9103D01*
X19376Y-13205D02*
X21345Y-11236D01*
X19376Y-13205D02*
X20032Y-14342D01*
X19619Y-14580D02*
X20032Y-14342D01*
X2692Y-10631D02*
X4045Y-11984D01*
X2507Y24460D02*
X2920Y24221D01*
X2228Y23976D02*
X2507Y24460D01*
X1865Y11429D02*
X4104D01*
X2135Y9018D02*
X4540Y6613D01*
X-3367Y1351D02*
X4522Y9240D01*
X-4802Y9591D02*
X3563Y1225D01*
X-2507Y24460D02*
X-2228Y23976D01*
X-2920Y24221D02*
X-2507Y24460D01*
X-2964Y11429D02*
X-1865D01*
X-9455Y23540D02*
X-9108D01*
X-9262Y5131D02*
X-2964Y11429D01*
X-4429Y2854D02*
X-3367Y1791D01*
X-7984Y6409D02*
X-4429Y2854D01*
X-3367Y-2854D02*
Y2854D01*
X-10019D02*
X-3367D01*
X-8227D02*
X-2112Y8969D01*
X-2964Y-5524D02*
X356D01*
X-3421Y-5067D02*
X3563Y1917D01*
X-4343Y-3596D02*
X-2415Y-5524D01*
X-3367Y1791D02*
X4540Y-6115D01*
X1764Y-12611D02*
X4540Y-9835D01*
X-3937Y-10224D02*
X356D01*
X-4084Y-10219D02*
X-1693Y-12611D01*
X-4331D02*
X4154D01*
X-4617Y-12628D02*
X-2213Y-10224D01*
X-4343Y-2854D02*
X-3367D01*
X-4343Y-4145D02*
Y-2854D01*
Y-4145D02*
X-2964Y-5524D01*
X-9043Y-5118D02*
Y-2854D01*
X-8353Y-6782D02*
X-5601Y-9534D01*
X107130Y-13246D02*
X115615Y-21731D01*
X105582Y-23344D02*
X112533Y-16393D01*
X100298Y-22264D02*
X110204Y-12358D01*
X95157Y-22264D02*
X101752D01*
X93688Y-12531D02*
X103920Y-22764D01*
X105582Y-23588D02*
Y-22764D01*
X101752D02*
X105582D01*
X101752D02*
Y-22264D01*
X95157Y-21041D02*
X101601Y-14597D01*
X95157Y-21437D02*
Y-14390D01*
Y-20365D02*
X97056Y-22264D01*
X94761Y-21437D02*
X95157Y-21041D01*
X94328Y-21870D02*
X94761Y-21437D01*
X90705Y-21870D02*
X91139Y-21437D01*
X95157Y-23044D02*
Y-22264D01*
Y-21870D01*
X95099Y-23044D02*
Y-22264D01*
X91139Y-21437D02*
X95157D01*
X90705Y-21870D02*
X95157D01*
X109379Y-25911D02*
X114863Y-20427D01*
X104144Y-16623D02*
X124308Y-36788D01*
X99003Y7041D02*
X145212Y-72995D01*
X102815Y-28023D02*
X141695Y-66903D01*
X108458Y-27302D02*
X133002Y-51846D01*
X96952Y-28523D02*
X143825Y-75397D01*
X96951Y-28523D02*
X143825Y-75397D01*
X90981Y-28917D02*
X141496Y-79432D01*
X85390Y-29690D02*
X139167Y-83466D01*
X105582Y-28023D02*
Y-27199D01*
X95157Y-28523D02*
Y-27744D01*
X95099Y-28523D02*
Y-27744D01*
X87520Y-28917D02*
Y-27614D01*
X85719Y-29416D02*
X87520Y-27614D01*
X101752Y-28023D02*
X105582D01*
X101752Y-28523D02*
Y-28023D01*
X95157Y-28917D02*
Y-28523D01*
X101752D01*
X87520Y-28917D02*
X95157D01*
X46933Y-24022D02*
Y-12161D01*
X45646Y-15402D02*
X46933Y-16688D01*
X44018Y-17246D02*
X44721Y-17652D01*
X43554Y-19674D02*
X46933Y-23052D01*
X41600Y-23059D02*
X44721Y-17652D01*
X40337Y-15121D02*
X41041Y-15528D01*
X37216Y-20528D02*
X40337Y-15121D01*
X35815Y-16744D02*
X42334Y-10224D01*
X37027Y-13147D02*
X39849Y-15968D01*
X35815Y-21955D02*
Y-14359D01*
X37135Y-21787D02*
X37963Y-20960D01*
X37216Y-20528D02*
X41600Y-23059D01*
X35815Y-18298D02*
X37519Y-20003D01*
X35815Y-21955D02*
X36217Y-21258D01*
X78658Y-43904D02*
X93645Y-28917D01*
X78658Y-37540D02*
X87520Y-28678D01*
X83985Y-57669D02*
X117192Y-24462D01*
X62910Y-72380D02*
X107604Y-27686D01*
X78614Y-50313D02*
X100403Y-28523D01*
X62910Y-85108D02*
X119521Y-28497D01*
X79442Y-30106D02*
X136837Y-87501D01*
X78658Y-30106D02*
X84055D01*
X78658Y-31176D02*
X79728Y-30106D01*
X78658Y-47569D02*
Y-30106D01*
X41170Y-24117D02*
X46933Y-18354D01*
X39178Y-21661D02*
X44236Y-26719D01*
X37846Y-30562D02*
X41467Y-24289D01*
X36217Y-21258D02*
X41467Y-24289D01*
X31443Y-26654D02*
X37872Y-33083D01*
X37014Y-33941D02*
X46933Y-24022D01*
X39262Y-28109D02*
X41054Y-29901D01*
X34305Y-30981D02*
X35867Y-29419D01*
X32596Y-27531D02*
X37846Y-30562D01*
X32766Y-29442D02*
X34380Y-31056D01*
X78658Y-35686D02*
X134508Y-91536D01*
X78277Y-76104D02*
X121851Y-32531D01*
X75943Y-52062D02*
X80905Y-57024D01*
X78658Y-42050D02*
X132178Y-95570D01*
X84118Y-60237D02*
X121656Y-97775D01*
X62910Y-78744D02*
X80701Y-60953D01*
X62910Y-70849D02*
X89836Y-97775D01*
X62910Y-66016D02*
X77084Y-51842D01*
X62910Y-64561D02*
X75457Y-52013D01*
X62948Y-64523D02*
X73661Y-75236D01*
X62910Y-91472D02*
X76498Y-77884D01*
X94790Y-97775D02*
X135827Y-56739D01*
X88426Y-97775D02*
X133497Y-52704D01*
X101154Y-97775D02*
X138156Y-60773D01*
X75699Y-97775D02*
X128839Y-44635D01*
X78743Y-48499D02*
X128020Y-97775D01*
X82062D02*
X131168Y-48670D01*
X120246Y-97775D02*
X145144Y-72877D01*
X126610Y-97775D02*
X136773Y-87612D01*
X130905Y-97775D02*
X145212Y-72995D01*
X107518Y-97775D02*
X140486Y-64808D01*
X62910Y-97775D02*
X130905D01*
X113882D02*
X142815Y-68843D01*
X69335Y-97775D02*
X126509Y-40600D01*
X69312Y-58159D02*
X108928Y-97775D01*
X72494Y-54977D02*
X115292Y-97775D01*
X62971D02*
X124180Y-36566D01*
X62910Y-97775D02*
Y-64561D01*
X66130Y-61341D02*
X102564Y-97775D01*
X62910Y-77213D02*
X83472Y-97775D01*
X62910Y-83577D02*
X77108Y-97775D01*
X76338Y-77914D02*
X96200Y-97775D01*
X62910Y-89941D02*
X70744Y-97775D01*
X62910Y-96305D02*
X64380Y-97775D01*
X44930Y-48245D02*
X45358D01*
Y-45193D01*
X44930Y-48245D02*
X45358D01*
X42498D02*
X45358Y-45384D01*
X43618Y-45193D02*
X45358Y-46933D01*
X32850Y-53517D02*
X45358Y-66025D01*
X44904Y-58566D02*
X45358Y-58112D01*
X44930Y-55882D02*
X45358D01*
X44765Y-59069D02*
X45358Y-59661D01*
X44602Y-55882D02*
X45358D01*
X38237Y-48245D02*
X44930D01*
X37254Y-45193D02*
X40305Y-48245D01*
X38237Y-55882D02*
Y-48245D01*
X32340Y-52038D02*
X39185Y-45193D01*
X36707Y-33941D02*
X37014D01*
X30890Y-45193D02*
X38237Y-52540D01*
X39902Y-56247D02*
Y-55882D01*
X38237D02*
X39902D01*
X44602Y-56701D02*
Y-55882D01*
X33250Y-57492D02*
X38237Y-52506D01*
X33846Y-63260D02*
X39256Y-57850D01*
X44673Y-71705D02*
X45358Y-72389D01*
Y-66458D02*
Y-55882D01*
Y-97775D02*
Y-71668D01*
X34232Y-75602D02*
X45358Y-64476D01*
X33846Y-67241D02*
X45358Y-78753D01*
X31530Y-77653D02*
X45358Y-91481D01*
X34226Y-73985D02*
X45358Y-85117D01*
X43879Y-97775D02*
X45358Y-96296D01*
X24787Y-97775D02*
X45358Y-77204D01*
X31151Y-97775D02*
X45358Y-83568D01*
X33846Y-69624D02*
X42602Y-60868D01*
X33846Y-60877D02*
X42232Y-69264D01*
X31797Y-84401D02*
X44511Y-71687D01*
X31847Y-84334D02*
X45288Y-97775D01*
X37515D02*
X45358Y-89932D01*
X19545Y-97775D02*
X45358D01*
X22633Y-81484D02*
X38924Y-97775D01*
X31115Y-23622D02*
Y-13386D01*
X27620Y-24938D02*
X31115Y-21444D01*
X21783Y-10631D02*
X31115Y-19962D01*
X32199Y-25602D02*
X33301Y-26309D01*
X31582Y-27341D02*
X32882Y-26040D01*
X32596Y-27531D02*
X33301Y-26309D01*
X24863Y-21332D02*
X31115Y-15080D01*
X22582Y-19712D02*
X23591Y-19129D01*
X26623Y-24379D01*
X21680Y-18150D02*
X29417Y-10413D01*
X19619Y-14580D02*
X22582Y-19712D01*
X19961Y-15173D02*
X29645Y-24857D01*
X25185Y-25209D02*
X27128D01*
X25185D02*
X26623Y-24379D01*
X25370Y-46280D02*
X26457Y-45193D01*
X19329Y-46075D02*
X24409D01*
X28661Y-49353D02*
X32821Y-45193D01*
X24526D02*
X30483Y-51150D01*
X33846Y-73191D02*
Y-59055D01*
X31425Y-55660D02*
X33156Y-57392D01*
X26073Y-46765D02*
X29219Y-49911D01*
X23436Y-50775D02*
X23819Y-51158D01*
X19329Y-50775D02*
X23436D01*
X25899Y-56782D02*
X29146Y-60028D01*
X19258Y-46028D02*
X20093Y-45193D01*
X18162D02*
X18730Y-45762D01*
X11798Y-45193D02*
X14871Y-48266D01*
X5817Y-53106D02*
X13729Y-45193D01*
X5434D02*
X11579Y-51338D01*
X-1160Y-53719D02*
X7365Y-45193D01*
X14798Y-50488D02*
X15319Y-49967D01*
X5360Y-54937D02*
X11314D01*
X10350D02*
X11118Y-54168D01*
X-7294Y-45193D02*
X1154Y-53641D01*
X-8742Y-54937D02*
X1001Y-45193D01*
X-1640Y-54937D02*
X1640D01*
X15929Y-55512D02*
Y-55020D01*
X17876Y-51271D02*
X29146Y-62541D01*
X15918Y-55732D02*
X20875Y-50775D01*
X15923Y-55682D02*
X29146Y-68905D01*
X12972Y-59095D02*
X25639Y-71762D01*
X7594Y-76784D02*
X26748Y-57630D01*
X1230Y-76784D02*
X22467Y-55547D01*
X386Y-59237D02*
X17933Y-76784D01*
X6750Y-59237D02*
X24297Y-76784D01*
X13725Y-58607D02*
X15300Y-57032D01*
X-930Y-45193D02*
X8813Y-54937D01*
X-9843D02*
X-5360D01*
X-4941Y-59237D02*
X12205D01*
X-5178Y-76828D02*
X12425Y-59225D01*
X-9661Y-68583D02*
X-314Y-59237D01*
X-9661Y-74947D02*
X6050Y-59237D01*
X29146Y-71803D02*
Y-60028D01*
X20322Y-76784D02*
X29146Y-67960D01*
X13958Y-76784D02*
X29146Y-61596D01*
X30004Y-79830D02*
X32295Y-77539D01*
X27648Y-77474D02*
X30049Y-79875D01*
X26603Y-76867D02*
X27815Y-75655D01*
X25011Y-81484D02*
X26726Y-83199D01*
X16269Y-81484D02*
X16695Y-81910D01*
X9905Y-81484D02*
X10831Y-82410D01*
X19862Y-83608D02*
X21986Y-81484D01*
X13209Y-81910D02*
X19862D01*
X15196D02*
X15622Y-81484D01*
X13209Y-82410D02*
Y-81910D01*
X9378Y-82410D02*
X13209D01*
X9378Y-83789D02*
Y-82410D01*
X19862Y-88169D02*
Y-81910D01*
X21258Y-94940D02*
X31251Y-84947D01*
X19580Y-90254D02*
X26680Y-83153D01*
X14350Y-89653D02*
Y-88169D01*
X19862Y-85077D02*
X32560Y-97775D01*
X18650Y-88169D02*
X19862D01*
X21192Y-92770D02*
X26196Y-97775D01*
X18650Y-89653D02*
Y-88169D01*
X13209D02*
Y-87669D01*
X9378Y-87321D02*
X9726Y-87669D01*
X9378D02*
Y-86289D01*
X9726Y-87669D02*
X12856Y-90799D01*
X13209Y-88169D02*
X14350D01*
X10726Y-95033D02*
X12675Y-96982D01*
X12059Y-97775D02*
X12754Y-97080D01*
X9378Y-87669D02*
X13209D01*
X10679Y-92791D02*
X14350Y-89120D01*
X-4724Y-76784D02*
X25984D01*
X2555Y-81823D02*
X2894Y-81484D01*
X8787Y-81955D02*
X9258Y-81484D01*
X-9661Y-61918D02*
X5205Y-76784D01*
X-9661Y-68282D02*
X-1159Y-76784D01*
X-4797Y-60418D02*
X11569Y-76784D01*
X8787Y-83789D02*
X9378D01*
X3541Y-81484D02*
X3880Y-81823D01*
X8787Y-83789D02*
Y-81823D01*
X1807Y-81484D02*
X25011D01*
X1807Y-81823D02*
Y-81484D01*
Y-81823D02*
X8787D01*
X-9661Y-59946D02*
X-9447Y-59731D01*
X-9661Y-80747D02*
Y-59946D01*
Y-62219D02*
X-8984Y-61542D01*
X-9661Y-74646D02*
X-6610Y-77697D01*
X-9661Y-80747D02*
X-6388Y-77474D01*
X8787Y-88319D02*
X9437Y-87669D01*
X8787Y-86730D02*
X9378Y-87321D01*
X8787Y-90300D02*
Y-86289D01*
X9378D01*
X8661Y-97775D02*
X13455D01*
X1807Y-90429D02*
X2928D01*
X1807Y-90929D02*
Y-90429D01*
X2928Y-91518D02*
Y-90429D01*
X258Y-90929D02*
X2279Y-92950D01*
X254Y-90929D02*
X1807D01*
X726Y-96381D02*
X2238Y-94869D01*
X154Y-97189D02*
X740Y-97775D01*
X-455D02*
X4339D01*
X-14307Y153740D02*
X-10145D01*
X-14673Y153105D02*
X-9139Y147571D01*
X-16485Y134603D02*
X-7558Y143531D01*
X-20086Y143730D02*
X-10139Y153678D01*
X-17003Y149071D02*
X63455Y68613D01*
X-20043Y124681D02*
X-4146Y140579D01*
X-15989Y128964D02*
X54214Y58762D01*
X-24705Y113655D02*
X1331Y139691D01*
X-21662Y141001D02*
X56296Y63044D01*
X-23991Y136967D02*
X-22057Y135033D01*
X-26320Y132932D02*
X-23719Y130331D01*
X-23512Y127576D02*
X-22637Y128452D01*
X-26648Y118076D02*
X-26375Y118349D01*
X-20690Y127302D02*
X49374Y57238D01*
X-20267Y120515D02*
X45339Y54909D01*
X-19332Y145036D02*
X72148Y53556D01*
X-21315Y53405D02*
X37993Y112714D01*
X-27178Y53907D02*
X35664Y116749D01*
X-24117Y118001D02*
X57496Y36388D01*
X-14644Y47349D02*
X-6351Y55642D01*
X-24977Y112497D02*
X40170Y47350D01*
X-27178Y41179D02*
X-12057Y56300D01*
X-27178Y51058D02*
X-10061Y33941D01*
X-27178Y41179D02*
X-12057Y56300D01*
X-27178Y57422D02*
X-25278Y55522D01*
X-27178Y36475D02*
Y59055D01*
X-21954Y52199D02*
X-16320Y46565D01*
X-27178Y47543D02*
X-23173Y51548D01*
X-34698Y97298D02*
X17029Y149025D01*
X-28779Y128673D02*
X-9206Y148246D01*
X-36845Y69696D02*
X26346Y132887D01*
X-43692Y75576D02*
X21688Y140956D01*
X-48518Y77114D02*
X19358Y144991D01*
X-40027Y72878D02*
X24017Y136922D01*
X-30481Y63332D02*
X31005Y124818D01*
X-33663Y66514D02*
X28676Y128852D01*
X-28650Y128898D02*
X-26846Y127094D01*
X-30979Y124863D02*
X-29360Y123244D01*
X-33308Y120828D02*
X-31204Y118724D01*
X-37473Y113616D02*
X-29270Y121818D01*
X-35638Y116794D02*
X-34225Y115381D01*
X-34364Y110360D02*
X-33430Y111294D01*
X-30362Y107998D02*
X-29009Y109351D01*
X-42035Y74886D02*
X-27868Y60719D01*
X-28320Y109476D02*
X33806Y47350D01*
X-27399Y60050D02*
X33334Y120783D01*
X-29771Y104564D02*
X27442Y47350D01*
X-32624Y101052D02*
X21078Y47350D01*
X-32624Y101052D02*
X21078Y47350D01*
X-87989Y26118D02*
X-14307Y153740D01*
X-37008Y92708D02*
X148Y55553D01*
X-34679Y96743D02*
X7582Y54482D01*
X-41462Y84434D02*
X-4559Y47531D01*
X-39763Y89099D02*
X-10087Y59424D01*
X-51943Y88552D02*
X-9842Y46450D01*
X-44672Y70876D02*
X-31878Y58082D01*
Y35864D02*
Y58082D01*
X-50889Y68405D02*
X-31878Y49394D01*
X-46996Y70876D02*
X-31878Y55758D01*
X-53379Y40434D02*
X-33804Y60008D01*
X-43275Y37809D02*
X-31878Y49207D01*
X-44541Y55694D02*
X-31878Y43030D01*
X-46505Y51293D02*
X-31878Y36666D01*
X-46575Y40874D02*
X-31878Y55571D01*
X-48834Y47259D02*
X-34347Y32771D01*
X-12718Y43550D02*
X-7059D01*
X-12718Y46450D02*
X-7059D01*
X-13002Y43247D02*
X4056Y26189D01*
X-17229Y38400D02*
X-12079Y43550D01*
X-14860Y31171D02*
X-8246Y34989D01*
X-14408Y28493D02*
X-13714Y29187D01*
X-11828Y25921D02*
X-10819Y26504D01*
X-16027Y33238D02*
X-6796Y42469D01*
X-16027Y33544D02*
X-14095Y31612D01*
X-14860Y31171D02*
X-11828Y25921D01*
X-20144Y41113D02*
X-19532Y40704D01*
X-16580Y37751D01*
X-20758Y41235D02*
X-16916Y45077D01*
X-22696Y41256D02*
X-20866D01*
X-20144Y41113D01*
X-16171Y37139D02*
X-16027Y36417D01*
X-16580Y37751D02*
X-16171Y37139D01*
X-16027Y30112D02*
Y36417D01*
X-27178Y38330D02*
X-26416Y37569D01*
X-10819Y26504D02*
X-9108Y23540D01*
X-16027Y30112D02*
X-9455Y23540D01*
X-11226Y25311D02*
X-10532Y26005D01*
X-16831Y4441D02*
X-10925D01*
X-10019Y-2854D02*
X-9043D01*
X-12381Y4441D02*
X-10019Y2080D01*
Y-2854D02*
Y2854D01*
X-17768Y3465D02*
X-9038Y-5265D01*
X-16831Y-5750D02*
X-10019Y1062D01*
X-15237Y-10519D02*
X-9043Y-4326D01*
X-20910Y-3465D02*
X-13004Y4441D01*
X-16831Y3465D02*
Y4441D01*
Y-9103D02*
Y-3465D01*
X-22539Y3465D02*
X-16831D01*
X-22539D02*
Y3941D01*
X-24609D02*
X-17202Y-3465D01*
X-16831Y-3836D01*
X-22539Y-3465D02*
X-16831D01*
Y-9103D02*
X-15658Y-10276D01*
X-22539Y-3941D02*
Y-3465D01*
X-27178Y44694D02*
X-23533Y41050D01*
X-28647Y27071D02*
X-27477Y25901D01*
Y19079D02*
Y27071D01*
X-35011D02*
X-27477Y19537D01*
X-39418Y27071D02*
X-27477D01*
X-36762Y18867D02*
X-28558Y27071D01*
X-30349Y18916D02*
X-27477Y21788D01*
X-29528Y19079D02*
X-27477D01*
X-28465Y3941D02*
X-22539D01*
X-34527Y3170D02*
X-28465D01*
X-35586Y32771D02*
X-31878Y36479D01*
X-35586Y32771D02*
X-31878Y36479D01*
X-40093Y34627D02*
X-31878Y42843D01*
X-38237Y32771D02*
X-31963D01*
X-52331Y38027D02*
X-31900Y17597D01*
X-35229Y8198D02*
X-34527Y7496D01*
X-35094Y8322D02*
X-34527Y8889D01*
X-35551Y7350D02*
X-34527Y8374D01*
X-36692Y12806D02*
X-31048Y18449D01*
X-28465Y-3941D02*
Y-3170D01*
Y3170D02*
Y3941D01*
X-27750Y-3941D02*
X-20344Y3465D01*
X-33343Y-3170D02*
X-26232Y3941D01*
X-34527Y-3170D02*
X-28465D01*
X-30201Y3170D02*
X-23090Y-3941D01*
X-28465D02*
X-22539D01*
X-28465Y-9641D02*
X-25064D01*
X-28262Y-10817D02*
X-27086Y-9641D01*
X-28465Y-10807D02*
Y-9641D01*
X-34593Y-10817D02*
X-25621D01*
X-34684Y1853D02*
X-33367Y3170D01*
X-34527D02*
Y8889D01*
X-34805Y1410D02*
X-30226Y-3170D01*
X-34527Y-10807D02*
X-28465D01*
X-35645Y-5472D02*
X-34527Y-4354D01*
Y-10807D02*
Y-3170D01*
X-36470Y-3289D02*
X-34527Y-5232D01*
X-35645Y-9765D02*
X-34593Y-10817D01*
X-37967Y112759D02*
X-35477Y110269D01*
X-40296Y108725D02*
X-38988Y107417D01*
X-40297Y108725D02*
X-38988Y107417D01*
X-46166Y98558D02*
X-39375Y105350D01*
X-42626Y104690D02*
X-39637Y101701D01*
X-37234Y101126D02*
X-37012Y101348D01*
X-40755Y91241D02*
X-39973Y92023D01*
X-44955Y100655D02*
X-43672Y99372D01*
X-45396Y92964D02*
X-43801Y94559D01*
X-47285Y96621D02*
X-43621Y92957D01*
X-49614Y92586D02*
X-48286Y91258D01*
X-54859Y83501D02*
X-49299Y89061D01*
X-47175Y70876D02*
X-44672D01*
X-54273Y84517D02*
X-45332Y75576D01*
X-47175D02*
X-43698D01*
X-44622Y55555D02*
X-36986Y63190D01*
X-45176Y61365D02*
X-40168Y66372D01*
X-45735Y53628D02*
X-42244Y59673D01*
X-49697Y63975D02*
X-42244Y59673D01*
X-49210Y63694D02*
X-43350Y69554D01*
X-45735Y53628D02*
X-45301Y53377D01*
X-45776Y40310D02*
X-38237Y32771D01*
X-49711Y45741D02*
X-45301Y53377D01*
X-52231Y63384D02*
X-51741Y62893D01*
X-50677Y62279D02*
X-49697Y63975D01*
X-52285Y63207D02*
X-50677Y62279D01*
X-52606Y66663D02*
X-50860Y68408D01*
X-53187Y57930D02*
X-52627Y58901D01*
X-53620Y58180D02*
X-53187Y57930D01*
X-54400Y56830D02*
X-53620Y58180D01*
X-56602Y80483D02*
X-53651Y77531D01*
X-63553Y68444D02*
X-47576Y84420D01*
X-56728Y68905D02*
X-55305Y70327D01*
X-55203Y60389D02*
X-52627Y58901D01*
X-55521Y60309D02*
X-53171Y57959D01*
X-55461Y57443D02*
X-53499Y59405D01*
X-57336Y58525D02*
X-54400Y56830D01*
X-58931Y76448D02*
X-56238Y73755D01*
X-61261Y72413D02*
X-57600Y68752D01*
X-63590Y68379D02*
X-60674Y65462D01*
X-72246Y53386D02*
X-60756Y64876D01*
X-59102Y60167D02*
X-58514Y60754D01*
X-58089Y52378D02*
X-57250Y51894D01*
X-65920Y64344D02*
X-62258Y60682D01*
X-68249Y60310D02*
X-65839Y57899D01*
X-59424Y51484D02*
X-48875Y40936D01*
X-58029Y50544D02*
X-49711Y45741D01*
X-59562Y40615D02*
X-52706Y47470D01*
X-70578Y56275D02*
X-55067Y40764D01*
X-81282Y25258D02*
X-56741Y49800D01*
X-75237Y48206D02*
X-46898Y19866D01*
X-57236Y36569D02*
X-40831Y20164D01*
X-67582Y19866D02*
X-50371Y37078D01*
X-77566Y44171D02*
X-53262Y19866D01*
X-58029Y50544D02*
X-57250Y51894D01*
X-72908Y52240D02*
X-60525Y39858D01*
X-80939Y38329D02*
X-65679Y53590D01*
X-86438Y26467D02*
X-61831Y51073D01*
X-73929Y19883D02*
X-57264Y36549D01*
X-77111Y23065D02*
X-60804Y39372D01*
X-79896Y40137D02*
X-59626Y19866D01*
X-36923Y16256D02*
X-35082Y14415D01*
X-42126Y19866D02*
X-34922Y27071D01*
X-40463Y7693D02*
X-37846D01*
X-48490Y19866D02*
X-40881Y27476D01*
X-49806Y36279D02*
X-41437Y27910D01*
X-54854Y19866D02*
X-44124Y30597D01*
X-61218Y19866D02*
X-47306Y33779D01*
X-40549Y7154D02*
X-39313Y5917D01*
X-48490Y19866D02*
X-40881Y27476D01*
X-41437Y1464D02*
X-38850Y4051D01*
X-35645Y-9765D02*
Y-5218D01*
X-36649Y-3324D02*
X-36275Y-3697D01*
X-41496Y1737D02*
X-39289Y-470D01*
X-41616Y1643D02*
X-39324Y-649D01*
X-66771Y-6087D02*
X-56765D01*
X-59946Y-9267D02*
X-56765Y-6087D01*
X-59128D02*
X-57947Y-7268D01*
X-64896Y-9267D02*
X-61716Y-6087D01*
X-65492D02*
X-62312Y-9267D01*
X-70472D02*
X-59946D01*
X-71549Y-9556D02*
X-68777Y-6784D01*
X-81157Y25142D02*
X-79818Y23803D01*
X-82225Y36102D02*
X-65990Y19866D01*
X-84743Y25772D02*
X-82677D01*
X-84554Y32067D02*
X-72354Y19866D01*
X-73913D02*
X-41241D01*
X-77220Y23174D02*
X-73913Y19866D01*
X-75217Y-2937D02*
X-71311D01*
X-79818Y23803D02*
X-78740D01*
X-86884Y28033D02*
X-84623Y25772D01*
X-96825Y-1337D02*
X-94195D01*
X-97756Y-3944D02*
X-95150Y-1337D01*
X-87733Y-2938D02*
X-86200Y-4470D01*
X-87669Y-2937D02*
X-86200D01*
X-95697Y-1337D02*
X-94903Y-2131D01*
X-75006Y-2937D02*
X-68676Y-9267D01*
X-75217Y-5885D02*
Y-2937D01*
X-78421Y-5885D02*
X-73201Y-11106D01*
X-79548Y-5885D02*
X-75217D01*
X-86200Y-5886D02*
Y-2937D01*
X-81870Y-5885D02*
X-79548D01*
X-86200Y-5886D02*
X-79548D01*
X-98033Y-5365D02*
X-97813Y-5586D01*
X-107019Y-6843D02*
X-105227Y-5051D01*
X-108033Y-8598D02*
X-105392Y-4025D01*
X-102742Y-8929D02*
X-101568Y-7756D01*
X-98826Y-11377D02*
X-97724Y-10276D01*
X-11878Y-13525D02*
X-6744Y-8391D01*
X-12474Y-14557D02*
X-9862Y-17169D01*
X-14270Y-17668D02*
X-11416Y-12725D01*
X-16831Y-3836D02*
X-6680Y-13987D01*
X-15658Y-10276D02*
X-11416Y-12725D01*
X-17727Y-25034D02*
X-5994Y-13301D01*
X-15152Y-18243D02*
X-13044Y-20351D01*
X-14683Y-17430D02*
X-14270Y-17668D01*
X-17481Y-22278D02*
X-16226Y-23533D01*
X-17646Y-22562D02*
X-14683Y-17430D01*
X-17646Y-22562D02*
X-16636Y-23145D01*
X-17727Y-25034D02*
X-16636Y-23145D01*
X-49394Y-15374D02*
Y-12702D01*
X-52411Y-15874D02*
X-49394Y-12857D01*
X-52968Y-12702D02*
X-51626Y-11359D01*
X-52968Y-14961D02*
Y-12702D01*
X-52741Y-12474D02*
X-49779Y-15436D01*
X-53172Y-15874D02*
X-50672D01*
X-15367Y-45193D02*
X45358D01*
X-13658D02*
X-5806Y-53045D01*
X-15367Y-55197D02*
X-5363Y-45193D01*
X-15367Y-48833D02*
X-11727Y-45193D01*
X-26386D02*
X-20066Y-51512D01*
Y-70485D02*
Y-45193D01*
X-13331Y-57535D02*
X-11363Y-55566D01*
X-15367Y-49848D02*
X-10241Y-54974D01*
X-15367Y-56212D02*
X-13645Y-57934D01*
X-15367Y-71222D02*
Y-45193D01*
X-33034Y-47408D02*
X-30819Y-45193D01*
X-32750D02*
X-20066Y-57876D01*
X-45478Y-45193D02*
X-20186Y-70485D01*
X-39114Y-45193D02*
X-36341Y-47966D01*
X-51841Y-45193D02*
X-26550Y-70485D01*
X-33069Y-51238D02*
X-20066Y-64240D01*
X-83136Y-14779D02*
X-71320Y-2964D01*
X-83136Y-14779D02*
X-71320Y-2964D01*
X-76875Y-14779D02*
X-71993Y-9897D01*
X-86855Y-12134D02*
X-80606Y-5886D01*
X-91825Y-5210D02*
X-84900Y-12134D01*
X-84785Y-5886D02*
X-76383Y-14288D01*
X-83288Y-14779D02*
X-76875D01*
X-83788Y-14193D02*
Y-12134D01*
X-83288Y-14779D02*
Y-14193D01*
X-83788D02*
X-83288D01*
X-92590Y-12134D02*
X-83788D01*
Y-13247D02*
X-82256Y-14779D01*
X-92468Y-10931D02*
X-91264Y-12134D01*
X-92590Y-12920D02*
Y-12134D01*
X-93943Y-15820D02*
X-93090Y-16672D01*
X-95888Y-12920D02*
X-92590D01*
X-94005D02*
X-86200Y-5116D01*
X-93090Y-17126D02*
Y-16752D01*
Y-15820D01*
Y-17126D02*
Y-16752D01*
X-95571Y-15820D02*
X-93090D01*
X-58205Y-45193D02*
X-30723Y-72676D01*
X-64569Y-45193D02*
X-32873Y-76890D01*
X-70933Y-45193D02*
X-33051Y-83076D01*
X-86303Y-45193D02*
X-20066D01*
X-83661D02*
X-42024Y-86831D01*
X-77037Y-97775D02*
X-24455Y-45193D01*
X-53561Y-87028D02*
X-20066Y-53533D01*
X-77297Y-45193D02*
X-36152Y-86339D01*
X-70673Y-97775D02*
X-20066Y-47169D01*
X-89764Y-97775D02*
X-37183Y-45193D01*
X-93834Y-95481D02*
X-43547Y-45193D01*
X-83400Y-97775D02*
X-36316Y-50690D01*
X-98440Y-87359D02*
X-56274Y-45193D01*
X-98347Y-80902D02*
X-62638Y-45193D01*
X-98347Y-93630D02*
X-49911Y-45193D01*
X-99962Y-63425D02*
X-81730Y-45193D01*
X-112935Y-68353D02*
X-86303Y-45193D01*
X-100212Y-76403D02*
X-69002Y-45193D01*
X-88294Y-46925D02*
X-48191Y-87028D01*
X-91698Y-49885D02*
X-54555Y-87028D01*
X-95102Y-52845D02*
X-59422Y-88524D01*
X-99797Y-69624D02*
X-75366Y-45193D01*
X-98506Y-55805D02*
X-56535Y-97775D01*
X-13961Y-79449D02*
Y-59055D01*
X-15367Y-62576D02*
X-13961Y-63982D01*
X-15367Y-61561D02*
X-13961Y-60155D01*
X-15367Y-67925D02*
X-13961Y-66519D01*
X-15367Y-68940D02*
X-13961Y-70346D01*
X-15149Y-74071D02*
X-13961Y-72883D01*
X-27559Y-70485D02*
X-20066D01*
X-15367Y-75304D02*
X-13961Y-76710D01*
X-21850Y-75185D02*
X-20066Y-76968D01*
X-24290Y-70485D02*
X-20066Y-66261D01*
X-26004Y-78563D02*
X-22626Y-75185D01*
X-27178Y-75776D02*
X-26586Y-75185D01*
X-20066D01*
X-27178Y-76890D02*
Y-75776D01*
X-26509Y-76890D02*
X-26004Y-77394D01*
X-27178Y-76221D02*
X-26509Y-76890D01*
X-27178D02*
X-26004D01*
X-15367Y-79449D02*
X-13961D01*
X-20066D02*
Y-75185D01*
X-15367Y-79449D02*
Y-74447D01*
X-21535Y-79449D02*
X-20066D01*
X-20527D02*
X-20066Y-78989D01*
X-26004Y-77394D02*
X-21535Y-81864D01*
Y-80457D02*
X-20527Y-79449D01*
X-21535Y-86142D02*
Y-79449D01*
Y-87480D02*
Y-86142D01*
X-22264Y-88007D02*
X-21535D01*
X-27417Y-86339D02*
X-21535Y-80457D01*
Y-88007D02*
Y-87480D01*
Y-86142D01*
X-26004Y-83758D02*
X-23424Y-86339D01*
X-22264Y-88007D02*
Y-86339D01*
X-29311D02*
X-22264D01*
X-26004Y-84527D02*
Y-76890D01*
X-29311Y-92138D02*
Y-86339D01*
X-22264Y-87550D02*
X-21535Y-86821D01*
X-29744Y-86382D02*
X-29311Y-86816D01*
X-22264Y-87498D02*
X-21755Y-88007D01*
X-29744Y-88667D02*
X-29311Y-88233D01*
X-29744Y-92138D02*
X-29311D01*
X-31187Y-73140D02*
X-29223Y-71175D01*
X-31878Y-76890D02*
Y-74803D01*
X-33051Y-84527D02*
Y-76890D01*
X-47197Y-87028D02*
X-20066Y-59897D01*
X-33051Y-84527D02*
X-26004D01*
X-31600D02*
X-29788Y-86339D01*
X-29744Y-92138D02*
Y-86339D01*
X-33051Y-76890D02*
X-31878D01*
X-33781Y-86339D02*
X-31969Y-84527D01*
X-36791Y-86339D02*
X-29744D01*
X-40637Y-86831D02*
X-33051Y-79245D01*
X-38209Y-87808D02*
Y-86831D01*
X-36791Y-87808D02*
Y-86339D01*
X-44468Y-86831D02*
X-38209D01*
X-54901Y-87028D02*
X-48248D01*
X-54901Y-87808D02*
Y-87028D01*
X-44468Y-87028D02*
X-43918D01*
X-48248D02*
X-44468D01*
X-38209Y-87808D02*
X-36791D01*
X-50570Y-87028D02*
X-48248D01*
X-55474Y-87808D02*
X-54901D01*
X-48296Y-93287D02*
X-44468Y-97114D01*
X-50570Y-93287D02*
X-48248D01*
X-54659D02*
X-50171Y-97775D01*
X-54901Y-93287D02*
X-50570D01*
X-54901Y-93045D02*
X-54659Y-93287D01*
X-57945Y-97775D02*
X-53456Y-93287D01*
X-45217Y-97775D02*
X-44468Y-97026D01*
X-50570Y-93287D02*
X-44468D01*
Y-97775D02*
Y-93287D01*
X-93547Y-97775D02*
X-44468D01*
X-51581D02*
X-47093Y-93287D01*
X-98347Y-87783D02*
X-88355Y-97775D01*
X-98347Y-81419D02*
X-81991Y-97775D01*
X-101910Y-58765D02*
X-62899Y-97775D01*
X-100212Y-73190D02*
X-75627Y-97775D01*
X-100210Y-66829D02*
X-69263Y-97775D01*
X-55439Y-92507D02*
X-54901Y-93045D01*
X-55474Y-92507D02*
X-54901D01*
Y-93287D02*
Y-92507D01*
X-64309Y-97775D02*
X-58894Y-92361D01*
X-102035Y-7728D02*
X-98373Y-11390D01*
X-98158Y-17968D02*
X-97425Y-18702D01*
X-99045Y-17993D02*
X-97535Y-19503D01*
X-110178Y-12313D02*
X-108649Y-13841D01*
X-111282Y-14225D02*
X-108641Y-9652D01*
X-103096Y-13031D02*
X-101968Y-14159D01*
X-102874Y-15425D02*
X-102008Y-14560D01*
X-106293Y-15425D02*
X-102504D01*
X-107898Y-14086D02*
X-107339Y-13526D01*
X-109394Y-25142D02*
X-108726Y-25811D01*
X-110139Y-25080D02*
X-109068Y-26151D01*
X-109793Y-38902D02*
X-109146Y-39549D01*
X-105314Y-61725D02*
X-104230Y-62808D01*
X-108718Y-64685D02*
X-104463Y-68940D01*
X-111149Y-41552D02*
X-109146Y-39549D01*
X-112122Y-67645D02*
X-104512Y-75254D01*
X-110024Y-23622D02*
Y-22835D01*
X-110398Y-22950D02*
X-110006Y-22557D01*
X-110148Y-29063D02*
X-109856Y-28771D01*
X-113506Y-38785D02*
X-112869Y-38148D01*
X-115713Y-21900D02*
X-112938Y-19126D01*
X-114836Y-20382D02*
X-114071Y-21147D01*
X-115907Y-22236D02*
X-113266Y-17663D01*
X-113912Y-27671D02*
X-112519Y-29063D01*
X-114167D02*
X-109803D01*
X-114344Y-33602D02*
X-114095Y-33852D01*
X-115377Y-27928D02*
X-114831Y-27382D01*
X-117166Y-24417D02*
X-116662Y-24920D01*
X-119156Y-27863D02*
X-116515Y-23290D01*
X-122345Y-34896D02*
X-120608Y-33160D01*
X-123781Y-35874D02*
X-121140Y-31301D01*
X-118101Y-37016D02*
X-115800Y-34715D01*
X-124701Y-37468D02*
X-124389Y-36928D01*
X-121825Y-32486D02*
X-115489Y-38821D01*
X-119299Y-40709D02*
X-117743Y-41643D01*
X-123441Y-80540D02*
X-100040Y-57139D01*
X-123441Y-70706D02*
X-113803Y-68779D01*
X-121866Y-85329D02*
X-103898Y-67361D01*
X-141793Y-67072D02*
X-140757Y-66036D01*
X-145212Y-72995D02*
X-140825Y-65396D01*
X-136185Y-69038D02*
X-127741Y-77482D01*
X-142789Y-68797D02*
X-137841Y-73746D01*
X-143799Y-75442D02*
X-137458Y-69101D01*
X-100212Y-78859D02*
Y-72737D01*
Y-78859D02*
X-98347D01*
X-106378D02*
X-104512D01*
Y-72737D01*
X-109532Y-79359D02*
X-104512Y-74339D01*
X-100212Y-86496D02*
X-98347D01*
Y-78859D01*
X-99634Y-86496D02*
X-98772Y-87359D01*
X-100212D02*
X-98347D01*
X-104512D02*
Y-86496D01*
X-100212Y-87359D02*
Y-86496D01*
X-106378Y-79359D02*
Y-78859D01*
X-112571Y-79359D02*
X-106378D01*
X-112571Y-80959D02*
Y-79359D01*
Y-85996D02*
Y-84396D01*
X-106378Y-86496D02*
X-104512D01*
X-106378Y-86117D02*
X-105999Y-86496D01*
X-104804Y-87359D02*
X-104512Y-87067D01*
X-112571Y-85996D02*
X-106378D01*
Y-86496D02*
Y-85996D01*
X-98347Y-94147D02*
X-97327Y-95167D01*
X-98347Y-94996D02*
Y-87359D01*
X-98772D02*
X-98347Y-87783D01*
X-106377Y-87359D02*
X-104512D01*
X-102492Y-97775D02*
X-99713Y-94996D01*
X-105997Y-97775D02*
X-97894D01*
X-106377Y-94996D02*
X-98347D01*
X-103863D02*
X-101083Y-97775D01*
X-105999Y-86496D02*
X-105136Y-87359D01*
X-106377Y-87859D02*
Y-87359D01*
X-112571Y-87859D02*
X-106377D01*
X-111668D02*
X-109805Y-85996D01*
X-112571Y-89620D02*
Y-87859D01*
X-106377Y-94996D02*
Y-94496D01*
X-113072Y-89263D02*
X-112571Y-88761D01*
X-106936Y-94496D02*
X-106377D01*
X-116760Y-69370D02*
X-106772Y-79359D01*
X-123441Y-74176D02*
X-119104Y-69839D01*
X-122063Y-70431D02*
X-112571Y-79924D01*
X-123441Y-75418D02*
X-116501Y-82357D01*
X-123441Y-83755D02*
Y-70706D01*
X-136811Y-87546D02*
X-127741Y-78476D01*
X-139140Y-83512D02*
X-128012Y-72383D01*
X-136600Y-74607D02*
X-133362Y-71369D01*
X-127741Y-84646D02*
Y-72176D01*
X-143799Y-75442D02*
X-137458Y-69101D01*
X-145118Y-72832D02*
X-142643Y-75307D01*
X-145212Y-72995D02*
X-143122Y-76616D01*
X-135851Y-75735D02*
X-127741Y-83846D01*
X-113853Y-85005D02*
X-111000Y-87859D01*
X-118684Y-88511D02*
X-115036Y-84863D01*
X-123441Y-81782D02*
X-115684Y-89538D01*
X-123441Y-83755D02*
X-116448Y-90748D01*
X-118123Y-95154D02*
X-115502Y-97775D01*
X-118133D02*
X-115502D01*
X-127111Y-86166D02*
X-118776Y-94501D01*
X-134482Y-91581D02*
X-127733Y-84832D01*
X-132152Y-95615D02*
X-124907Y-88370D01*
X-137413Y-80537D02*
X-122290Y-95660D01*
X-136870Y-87444D02*
X-126539Y-97775D01*
X-140690Y-80828D02*
X-130905Y-97775D01*
X-122024D01*
X-127948D02*
X-121725Y-91552D01*
D17*
X-17717Y-83465D02*
D03*
Y-90158D02*
D03*
D19*
X-53150Y-36220D02*
D03*
Y-32283D02*
D03*
D22*
X42252Y-52063D02*
D03*
X48945Y-52063D02*
D03*
X-109055Y-91177D02*
D03*
X-102362Y-91177D02*
D03*
X-109055Y-82677D02*
D03*
X-102362Y-82677D02*
D03*
D24*
X4878Y-86126D02*
D03*
X-2602D02*
D03*
D26*
X-53150Y-18701D02*
D03*
X-53150Y-23031D02*
D03*
X-41339Y-94488D02*
D03*
X-41339Y-90158D02*
D03*
D27*
X12205Y-85039D02*
D03*
X16535D02*
D03*
X-51575Y-90158D02*
D03*
X-47244Y-90158D02*
D03*
X49213Y17717D02*
D03*
X44882Y17717D02*
D03*
X102756Y-25394D02*
D03*
X98425Y-25394D02*
D03*
X-78543Y-2756D02*
D03*
X-82874Y-2756D02*
D03*
X-78543Y2362D02*
D03*
X-82874Y2362D02*
D03*
D28*
X91339Y-17913D02*
D03*
X81890Y-21654D02*
D03*
D29*
X91339Y-25394D02*
D03*
D30*
X-29528Y-80709D02*
D03*
X-25787Y-90158D02*
D03*
D31*
X-33268Y-90158D02*
D03*
D32*
X64055Y50395D02*
X67519Y52395D01*
X64055Y50395D02*
X66055Y46931D01*
X60591Y48395D02*
X64055Y50395D01*
X62055Y53859D02*
X64055Y50395D01*
X58760Y40458D02*
X60734Y41598D01*
X51419Y44691D02*
X54842Y46667D01*
X56786Y39318D02*
X58760Y40458D01*
X55532Y23622D02*
X57531D01*
X55532D02*
Y25622D01*
Y21622D02*
Y23622D01*
X53531D02*
X55532D01*
X9843Y53839D02*
X11842D01*
X9843D02*
Y55839D01*
Y51839D02*
Y53839D01*
X7842D02*
X9843D01*
X2362Y54339D02*
Y56339D01*
Y58339D01*
Y56339D02*
X4362D01*
X362D02*
X2362D01*
X-4106D02*
Y58339D01*
X-9843Y57087D02*
X-7842D01*
X-9843D02*
Y59087D01*
Y55087D02*
Y57087D01*
X-4106Y56339D02*
X-2106D01*
X-6106D02*
X-4106D01*
Y54339D02*
Y56339D01*
X-3937Y45000D02*
Y47181D01*
Y45000D02*
X-1165D01*
X-3937Y42819D02*
Y45000D01*
X36500Y2000D02*
Y4000D01*
X0Y23228D02*
Y25228D01*
Y10000D02*
X2000D01*
X-2000D02*
X0D01*
Y8000D02*
Y10000D01*
X107087Y-25394D02*
X109087D01*
X102756D02*
Y-23114D01*
X107087Y-25394D02*
Y-23394D01*
Y-27394D02*
Y-25394D01*
X102756Y-27673D02*
Y-25394D01*
X43331Y-14999D02*
X45331D01*
X43331D02*
Y-12999D01*
X41331Y-14999D02*
X43331D01*
Y-16999D02*
Y-14999D01*
X40968Y-19090D02*
X42857Y-20181D01*
X39080Y-18000D02*
X40968Y-19090D01*
X39583Y-21491D02*
X40968Y-19090D01*
X82087Y-59055D02*
Y-57055D01*
Y-59055D02*
X84087D01*
X82087Y-61055D02*
Y-59055D01*
X80087D02*
X82087D01*
X75984Y-75590D02*
X77984D01*
X75984D02*
Y-73590D01*
Y-77591D02*
Y-75590D01*
X73984D02*
X75984D01*
X42575Y-69063D02*
X44874D01*
Y-66764D01*
Y-71362D02*
Y-69063D01*
X30500Y-53500D02*
Y-51500D01*
Y-53500D02*
X32500D01*
X23622D02*
Y-51500D01*
X21622Y-53500D02*
X23622D01*
Y-55500D02*
Y-53500D01*
X1500D02*
X3500D01*
X-3500D02*
Y-51500D01*
X3500Y-53500D02*
Y-51500D01*
Y-53500D02*
X5500D01*
X-5500D02*
X-3500D01*
X-1500D01*
X27374Y-73347D02*
Y-71346D01*
Y-75346D02*
Y-73347D01*
X25374D02*
X27374D01*
X12205Y-87319D02*
Y-85039D01*
Y-82760D01*
X-7126Y-60102D02*
X-5126D01*
X-9126D02*
X-7126D01*
Y-62102D02*
Y-60102D01*
X4878Y-86126D02*
X8437D01*
X4878D02*
Y-82173D01*
X2500Y-94000D02*
X6500D01*
X10500D01*
X-19528Y131494D02*
X-17528Y134958D01*
X-22992Y133494D02*
X-19528Y131494D01*
X-21528Y128030D02*
X-19528Y131494D01*
X-16063Y129494D01*
X-11842Y57087D02*
X-9843D01*
X-23622Y53854D02*
X-21622D01*
X-23622D02*
Y55854D01*
Y51854D02*
Y53854D01*
X-25622D02*
X-23622D01*
X-14567Y43000D02*
Y45000D01*
X-16567D02*
X-14567D01*
Y47000D01*
X-47925Y58439D02*
X-46146Y61521D01*
X-47925Y58439D02*
X-44502Y56462D01*
X-54642Y38452D02*
Y40452D01*
Y38452D02*
X-52642D01*
X-54642Y36452D02*
Y38452D01*
X-56417Y64566D02*
X-54417Y68030D01*
X-59881Y66566D02*
X-56417Y64566D01*
X-58417Y61102D02*
X-56417Y64566D01*
X-58642Y38452D02*
Y40452D01*
Y36452D02*
Y38452D01*
X-60642D02*
X-58642D01*
X-37000Y5500D02*
Y7500D01*
X-39000Y5500D02*
X-37000D01*
X-35000D01*
X-37000Y2250D02*
X-35000D01*
X-39000D02*
X-37000D01*
Y-1000D02*
X-35000D01*
X-105512Y-10756D02*
X-104028Y-8185D01*
X-108083Y-9272D02*
X-105512Y-10756D01*
X-53150Y-18701D02*
Y-16224D01*
X-34413Y-51311D02*
Y-49311D01*
Y-47311D01*
X-36413Y-49311D02*
X-34413D01*
X-32413D01*
X-98693Y-14693D02*
X-97208Y-12122D01*
X-101263Y-13209D02*
X-98693Y-14693D01*
X-96122Y-16177D01*
X-105512Y-10756D02*
X-102941Y-12240D01*
X-106996Y-13327D02*
X-105512Y-10756D01*
X-109137Y-26847D02*
X-106567Y-28331D01*
X-113386Y-24394D02*
X-111902Y-21824D01*
X-115957Y-22910D02*
X-113386Y-24394D01*
X-110815Y-25879D01*
X-114870Y-26965D02*
X-113386Y-24394D01*
X-123831Y-36548D02*
X-121260Y-38032D01*
X-114441Y-41969D02*
X-112957Y-39399D01*
X-117011Y-40485D02*
X-114441Y-41969D01*
X-121260Y-38032D02*
X-118689Y-39517D01*
X-121260Y-38032D02*
X-119776Y-35462D01*
X-109055Y-82677D02*
Y-79709D01*
Y-85646D02*
Y-82677D01*
X-95720Y-96882D02*
Y-94882D01*
Y-96882D02*
X-93721D01*
X-97720D02*
X-95720D01*
X-109055Y-91177D02*
Y-88209D01*
X-114173Y-82677D02*
Y-80677D01*
X-116173Y-82677D02*
X-114173D01*
Y-84677D02*
Y-82677D01*
Y-91339D02*
Y-89339D01*
X-120079Y-96457D02*
X-118079D01*
X-122079D02*
X-120079D01*
Y-94457D01*
X31102Y-31102D02*
X33858Y-33858D01*
X16535Y-31102D02*
X31102D01*
X13780Y-33858D02*
X16535Y-31102D01*
X9719Y-30298D02*
X12458Y-27559D01*
X28740D01*
X-6299Y-33858D02*
X13780D01*
X-8661Y-31496D02*
X-6299Y-33858D01*
X-8661Y-83071D02*
X-4724Y-79134D01*
X-8661Y-92520D02*
Y-83071D01*
X-10630Y-94488D02*
X-8661Y-92520D01*
X-4724Y-79134D02*
X25984D01*
X29528Y-82677D01*
X-17717Y-72835D02*
Y-40157D01*
X55512Y29528D02*
X61417Y23622D01*
X49213Y29528D02*
X55512D01*
X21482Y23506D02*
X29528Y29528D01*
X3937Y45000D02*
X43307D01*
X56024Y32283D01*
X74016D01*
X61417Y17717D02*
Y23622D01*
X91339Y-17913D02*
Y-12598D01*
X75984Y2756D02*
X91339Y-12598D01*
X75984Y2756D02*
Y8661D01*
X70866Y13780D02*
X75984Y8661D01*
X57087Y13780D02*
X70866D01*
X53150Y17717D02*
X57087Y13780D01*
X49213Y17717D02*
X53150D01*
X35758Y-1900D02*
X37333D01*
X45276Y-9843D01*
X68898Y-43307D02*
Y-30512D01*
X71653Y-27756D01*
X74803Y-21654D02*
X81890D01*
X-57087Y-90158D02*
X-51575D01*
X-43307Y-27559D02*
X-40968Y-25221D01*
Y-19091D01*
X-43698Y73226D02*
X-29528Y59055D01*
Y34252D02*
Y59055D01*
X-51417Y73226D02*
X-43698D01*
X31496Y2362D02*
Y7087D01*
X32677Y-1969D02*
X36220Y-5512D01*
X14567Y-1969D02*
X32677D01*
X12205Y-4331D02*
X14567Y-1969D01*
X36220Y-10630D02*
Y-5512D01*
X33465Y-13386D02*
X36220Y-10630D01*
X33465Y-23622D02*
Y-13386D01*
Y-23622D02*
X37031Y-25910D01*
X31496Y2362D02*
X35758Y-1900D01*
X12205Y-11811D02*
Y-4331D01*
X9055Y-14961D02*
X12205Y-11811D01*
X-4331Y-14961D02*
X9055D01*
X-20079Y-30709D02*
X-4331Y-14961D01*
X-32232Y-30709D02*
X-20079D01*
X-37031Y-25910D02*
X-32232Y-30709D01*
X40968Y-19090D02*
X43331Y-14999D01*
X74016Y32283D02*
X96653Y9646D01*
Y-6102D02*
Y9646D01*
Y-6102D02*
X104331Y-13780D01*
X-3937Y-7874D02*
X1969D01*
X-6693Y-5118D02*
X-3937Y-7874D01*
X-6693Y-5118D02*
Y0D01*
X-14567Y45000D02*
X-3937D01*
X16831Y6791D02*
X19685D01*
X9843Y13780D02*
X16831Y6791D01*
X-3937Y13780D02*
X9843D01*
X-10925Y6791D02*
X-3937Y13780D01*
X-19685Y6791D02*
X-10925D01*
X86614Y-22638D02*
X91339Y-17913D01*
X86614Y-25197D02*
Y-22638D01*
X84055Y-27756D02*
X86614Y-25197D01*
X71653Y-27756D02*
X84055D01*
X17717Y-48425D02*
X24409D01*
X27559Y-51575D01*
Y-55118D02*
Y-51575D01*
Y-55118D02*
X31496Y-59055D01*
Y-74803D02*
Y-59055D01*
X39370Y17717D02*
X44882D01*
X91339Y-25394D02*
X98425D01*
X102756Y-25394D02*
X107087D01*
X6890Y-11811D02*
Y0D01*
Y10827D01*
X19685Y-9572D02*
Y-6791D01*
X15724Y-13533D02*
X19685Y-9572D01*
X-19685D02*
X-15724Y-13533D01*
X-19685Y-9572D02*
Y-6791D01*
Y6791D02*
Y9572D01*
X-15724Y13533D01*
X-3961Y20325D02*
X3961D01*
X-41339Y-94488D02*
X-10630D01*
X-17717Y-83465D02*
Y-72835D01*
X-27559D02*
X-17717D01*
X-29528Y-74803D02*
X-27559Y-72835D01*
X-29528Y-80709D02*
Y-74803D01*
X-41339Y-90158D02*
X-33268D01*
X-47244D02*
X-41339D01*
X-94685Y-19488D02*
X-88189D01*
X-98693Y-14693D02*
X-98370Y-14370D01*
X-88189D01*
X-53150Y-38976D02*
Y-36220D01*
X-61417Y-32283D02*
X-49213D01*
X-50197Y-18701D02*
X-49213Y-17717D01*
X-53150Y-18701D02*
X-50197D01*
X-56496D02*
X-53150D01*
X-57284Y-19488D02*
X-56496Y-18701D01*
X-61417Y-19488D02*
X-57284D01*
X42252Y-57909D02*
Y-52063D01*
D33*
X48945Y-52063D02*
X55811D01*
X56299Y-51575D01*
X3961Y-20325D02*
X9719Y-30298D01*
X-2602Y-93358D02*
Y-86126D01*
X4878Y-93508D02*
Y-86126D01*
X-39418Y29921D02*
X-23228D01*
X-47795Y38299D02*
X-39418Y29921D01*
X15724Y13533D02*
X21482Y23506D01*
X3961Y20325D02*
X9719Y30298D01*
X-9719Y30298D02*
X-3961Y20325D01*
X-21482Y23506D02*
X-15724Y13533D01*
X19685Y6791D02*
X31201Y6791D01*
X19685Y-6791D02*
X31201Y-6791D01*
X15724Y-13533D02*
X21482Y-23506D01*
X-9719Y-30298D02*
X-3961Y-20325D01*
X-21482Y-23506D02*
X-15724Y-13533D01*
X-31201Y-6791D02*
X-19685D01*
X-31201Y6791D02*
X-19685D01*
X51102Y53145D02*
X58637Y57495D01*
X54842Y46667D02*
X62173Y50899D01*
X-56029Y63118D02*
X-47925Y58439D01*
X-59424Y56440D02*
X-51665Y51961D01*
D34*
X-87669Y-787D02*
G03*
X-94756Y-7874I0J-7087D01*
G01*
X-96825Y813D02*
G03*
X-101575Y-3937I0J-4750D01*
G01*
X54842Y46667D02*
X58760Y40458D01*
X60925Y36707D02*
X69055Y41735D01*
X5965Y-85039D02*
X12205D01*
X16500Y-94000D02*
Y-85075D01*
X-78543Y-2756D02*
X-76575Y-787D01*
X-78543Y2362D02*
X-76994Y813D01*
X-84424D02*
X-82874Y2362D01*
X-76994Y813D02*
X-43826D01*
X-96825D02*
X-84424D01*
X-84842Y-787D02*
X-82874Y-2756D01*
X-76575Y-787D02*
X-44488D01*
X-87669D02*
X-84842D01*
X-70472Y9843D02*
X-36614D01*
X-71260Y9055D02*
X-70472Y9843D01*
X-74803Y9055D02*
X-71260D01*
X-67716Y7874D02*
X-43307D01*
X-69685Y5906D02*
X-67716Y7874D01*
X-76772Y5906D02*
X-69685D01*
X-44488Y-787D02*
X-39395Y-5880D01*
Y-11318D02*
Y-5880D01*
X-43826Y813D02*
X-37795Y-5218D01*
X-39395Y-11318D02*
X-39370Y-11343D01*
Y-11417D02*
Y-11343D01*
X-37795Y-10655D02*
Y-5218D01*
Y-10655D02*
X-35484Y-12967D01*
X-39370Y-11417D02*
X-36220Y-14567D01*
X-24409D01*
X-35484Y-12967D02*
X-24384D01*
X-22835Y-11417D01*
X-24409Y-14567D02*
X-22835Y-16142D01*
X-13386Y-90158D02*
X-11811Y-88583D01*
X-17717Y-90158D02*
X-13386D01*
X-125591Y-84646D02*
Y-68110D01*
Y-84646D02*
X-113472Y-96764D01*
X-108661D01*
X-29528Y16929D02*
X-23622D01*
X-36614Y9843D02*
X-29528Y16929D01*
X-45276Y-13780D02*
X-43307Y-11811D01*
X-45276Y-25591D02*
Y-13780D01*
X-49409Y-29724D02*
X-45276Y-25591D01*
X135827Y-106299D02*
X155055Y-72995D01*
X-155055D02*
X-135827Y-106299D01*
X19228Y162264D02*
X62927Y86576D01*
X155055Y-72995D01*
X-19228Y162264D02*
X19228D01*
X-155055Y-72995D02*
X-19228Y162264D01*
X-135827Y-106299D02*
X135827D01*
X-117323Y-31213D02*
X-102079D01*
X-102504Y-17575D02*
X-98032Y-22047D01*
X-80709Y11811D02*
X-43307D01*
X-78740Y13780D02*
X-39370D01*
X-76772Y15748D02*
X-43307D01*
X-80709Y19685D02*
X-76772Y15748D01*
X-74803Y17717D02*
X-39370D01*
X-78740Y21654D02*
X-74803Y17717D01*
X0Y154724D02*
X0Y148819D01*
X-11811Y-88583D02*
Y-59055D01*
X-9843Y-57087D01*
X12205D01*
X13780Y-55512D01*
Y-53150D01*
X-25787Y-90158D02*
X-17717D01*
X-25787Y-90158D02*
X-25787Y-90158D01*
X-80709Y21654D02*
X-78740D01*
X-82677Y23622D02*
X-80709Y21654D01*
X-86614Y23622D02*
X-82677D01*
X-84646Y19685D02*
X-80709D01*
Y15748D02*
X-78740Y13780D01*
X-82677Y15748D02*
X-80709D01*
X-72835Y3937D02*
X-43307D01*
X-102362Y-82677D02*
Y-70866D01*
Y-91177D02*
Y-82677D01*
X-75984Y-16929D02*
X-70472Y-11417D01*
X-59055D01*
X-53543Y-5906D01*
X-49213D01*
X-55118Y-11811D02*
X-51181Y-7874D01*
X-55118Y-14961D02*
Y-11811D01*
X-57087Y-16929D02*
X-55118Y-14961D01*
X-51181Y-7874D02*
X-45276D01*
X-61417Y-16929D02*
X-57087D01*
X-114173Y-82677D02*
X-109055Y-82677D01*
X-114173Y-91339D02*
X-109055D01*
X-96653Y-29724D02*
X-88189D01*
X-105118Y-38189D02*
X-96653Y-29724D01*
X-107465Y-38189D02*
X-105118D01*
X-110504Y-35150D02*
X-107465Y-38189D01*
X-102079Y-31213D02*
X-98032Y-27165D01*
X-109449Y-17575D02*
X-102504D01*
X-106552Y-21512D02*
X-102630D01*
X-107874Y-22835D02*
X-106552Y-21512D01*
X-107874Y-23622D02*
Y-22835D01*
X-61417Y-29724D02*
X-49409D01*
X-49213Y-9843D02*
X-47244Y-11811D01*
Y-23622D02*
Y-11811D01*
X-50000Y-26378D02*
X-47244Y-23622D01*
X-55118Y-26378D02*
X-50000D01*
X-56890Y-24606D02*
X-55118Y-26378D01*
X-61417Y-24606D02*
X-56890D01*
X-98032Y-22047D02*
X-88189D01*
X-98032Y-27165D02*
X-88189D01*
X-106890Y-24606D02*
X-88189D01*
X-107874Y-23622D02*
X-106890Y-24606D01*
X-56102Y-23031D02*
X-53150D01*
X-57087Y-22047D02*
X-56102Y-23031D01*
X-61417Y-22047D02*
X-57087D01*
X-68642Y-3937D02*
X-45276D01*
X-88189Y-16929D02*
X-75984D01*
X0Y208661D02*
X181102Y-110236D01*
X-181102D02*
X0Y208661D01*
X-181102Y-110236D02*
X181102D01*
D35*
X-157480Y-96457D02*
D03*
X0Y181102D02*
D03*
X157480Y-96457D02*
D03*
D36*
X0Y154724D02*
D03*
X-139356Y-77250D02*
D03*
X-92407Y4067D02*
D03*
X-121260Y-38032D02*
D03*
X-125197Y-44852D02*
D03*
X-133071Y-58490D02*
D03*
X-129134Y-51671D02*
D03*
X-137008Y-65309D02*
D03*
X-130189Y-69246D02*
D03*
X-122315Y-55608D02*
D03*
X-126252Y-62427D02*
D03*
X-118378Y-48789D02*
D03*
X-114441Y-41969D02*
D03*
X-94756Y-7874D02*
D03*
X-98693Y-14693D02*
D03*
X-106567Y-28331D02*
D03*
X-102630Y-21512D02*
D03*
X-110504Y-35150D02*
D03*
X-117323Y-31213D02*
D03*
X-109449Y-17575D02*
D03*
X-113386Y-24394D02*
D03*
X-105512Y-10756D02*
D03*
X-101575Y-3937D02*
D03*
D37*
X-44528Y88192D02*
D03*
X-39528Y96853D02*
D03*
X-34528Y105513D02*
D03*
X-29528Y114173D02*
D03*
X-24528Y122834D02*
D03*
X-19528Y131494D02*
D03*
X16500Y-94000D02*
D03*
X6500D02*
D03*
X-3500D02*
D03*
X-51417Y73226D02*
D03*
X-56417Y64566D02*
D03*
X-61417Y55905D02*
D03*
X69055Y41735D02*
D03*
X64055Y50395D02*
D03*
X59055Y59055D02*
D03*
D38*
X44874Y-69063D02*
D03*
X49598D02*
D03*
X54323Y-69063D02*
D03*
D39*
X28740Y-27559D02*
D03*
X62205Y-7480D02*
D03*
X-22835Y-16142D02*
D03*
Y-11417D02*
D03*
X29528Y29528D02*
D03*
X49213D02*
D03*
X75984Y8661D02*
D03*
X90354Y21457D02*
D03*
X61417Y17717D02*
D03*
X72638Y197D02*
D03*
X45276Y-9843D02*
D03*
X68898Y-43307D02*
D03*
X74803Y-21654D02*
D03*
X33858Y-33858D02*
D03*
X-57087Y-90158D02*
D03*
X-43307Y-27559D02*
D03*
X-29528Y34252D02*
D03*
X43331Y-14999D02*
D03*
X104331Y-13780D02*
D03*
X-23622Y37008D02*
D03*
X62992Y86614D02*
D03*
X6890Y-11811D02*
D03*
X1969Y-7874D02*
D03*
X-14567Y45000D02*
D03*
X0Y148819D02*
D03*
X59055Y-26378D02*
D03*
X0Y23228D02*
D03*
X-58642Y38452D02*
D03*
X-54642D02*
D03*
X6890Y10827D02*
D03*
X17717Y-48425D02*
D03*
X31496Y-74803D02*
D03*
X39370Y17717D02*
D03*
X37402Y23622D02*
D03*
X75984Y-75590D02*
D03*
X82087Y-59055D02*
D03*
X107087Y-25394D02*
D03*
X51598Y-81563D02*
D03*
X51575Y-94488D02*
D03*
X29528Y-82677D02*
D03*
X13780Y-53150D02*
D03*
X-17717Y-72835D02*
D03*
X75984Y-49213D02*
D03*
X27953Y-37008D02*
D03*
X-94685Y-19488D02*
D03*
X-39370Y17717D02*
D03*
X-43307Y15748D02*
D03*
X-39370Y13780D02*
D03*
X-43307Y11811D02*
D03*
X-86614Y23622D02*
D03*
X-84646Y19685D02*
D03*
X-82677Y15748D02*
D03*
X-80709Y11811D02*
D03*
X-43307Y7874D02*
D03*
Y3937D02*
D03*
X-76772Y5906D02*
D03*
X-72835Y3937D02*
D03*
X-102362Y-64961D02*
D03*
X-108661Y-96764D02*
D03*
X-114173Y-82677D02*
D03*
Y-91339D02*
D03*
X-102362Y-70866D02*
D03*
X-45276Y-3937D02*
D03*
Y-7874D02*
D03*
X-68642Y-3937D02*
D03*
X-120079Y-96457D02*
D03*
X-74803Y9055D02*
D03*
X-43307Y-11811D02*
D03*
X-49213Y-9843D02*
D03*
X-53150Y-38976D02*
D03*
X-49213Y-32283D02*
D03*
Y-17717D02*
D03*
Y-5906D02*
D03*
X-34413Y-49311D02*
D03*
X62205Y10630D02*
D03*
X54815Y-4000D02*
D03*
Y2500D02*
D03*
Y8500D02*
D03*
X39000Y6000D02*
D03*
X36500Y2000D02*
D03*
X27374Y-73347D02*
D03*
X-7126Y-60102D02*
D03*
X2362Y56339D02*
D03*
X9843Y53839D02*
D03*
X55532Y23622D02*
D03*
X0Y10000D02*
D03*
X30500Y-53500D02*
D03*
X23622D02*
D03*
X2362Y39370D02*
D03*
X-23622Y53854D02*
D03*
X-37000Y2250D02*
D03*
Y-1000D02*
D03*
Y5500D02*
D03*
X-95720Y-96882D02*
D03*
X-47795Y38299D02*
D03*
X23622Y-37000D02*
D03*
X-25083Y-35827D02*
D03*
X3500Y-36500D02*
D03*
X-3500D02*
D03*
Y-53500D02*
D03*
X3500D02*
D03*
X0Y-37500D02*
D03*
X62992Y-51575D02*
D03*
X56299D02*
D03*
Y-44882D02*
D03*
X62992D02*
D03*
X42098Y-58063D02*
D03*
X-9843Y57087D02*
D03*
X-4106Y56339D02*
D03*
D49*
X-15724Y-13533D02*
D03*
X-3961Y-20325D02*
D03*
X3961Y20325D02*
D03*
X15724Y13533D02*
D03*
D50*
X-88189Y-37402D02*
D03*
X-88189Y-34843D02*
D03*
Y-32283D02*
D03*
X-88189Y-29724D02*
D03*
X-88189Y-27165D02*
D03*
Y-24606D02*
D03*
X-88189Y-22047D02*
D03*
X-88189Y-19488D02*
D03*
Y-16929D02*
D03*
Y-14370D02*
D03*
X-61417Y-37402D02*
D03*
X-61417Y-34843D02*
D03*
Y-32283D02*
D03*
Y-29724D02*
D03*
X-61417Y-27165D02*
D03*
X-61417Y-24606D02*
D03*
X-61417Y-22047D02*
D03*
Y-19488D02*
D03*
X-61417Y-16929D02*
D03*
X-61417Y-14370D02*
D03*
D51*
X37031Y-25910D02*
D03*
X40968Y-19090D02*
D03*
D52*
X54842Y46667D02*
D03*
X51102Y53145D02*
D03*
D53*
X-47925Y58439D02*
D03*
X-51665Y51961D02*
D03*
D54*
X6890Y0D02*
D03*
X-6693D02*
D03*
D55*
X3937Y45000D02*
D03*
X-3937Y45000D02*
D03*
D56*
X-40968Y-19091D02*
D03*
X-37031Y-25910D02*
D03*
D57*
X19685Y6791D02*
D03*
Y-6791D02*
D03*
X-19685Y6791D02*
D03*
Y-6791D02*
D03*
D58*
X-15724Y13533D02*
D03*
X-3961Y20325D02*
D03*
X15724Y-13533D02*
D03*
X3961Y-20325D02*
D03*
D59*
X58760Y40458D02*
D03*
X60925Y36707D02*
D03*
D60*
X21459Y23861D02*
D03*
X9696Y30652D02*
D03*
X-9696Y-30652D02*
D03*
X-21459Y-23860D02*
D03*
D61*
X-10037Y30455D02*
D03*
X-21800Y23664D02*
D03*
X21800Y-23664D02*
D03*
X10037Y-30455D02*
D03*
D62*
X31496Y6988D02*
D03*
Y-6594D02*
D03*
X-31496Y-6988D02*
D03*
D63*
Y6890D02*
D03*
M02*
