%FSLAX25Y25*%
%MOIN*%
G70*
G01*
G75*
G04 Layer_Color=65535*
%ADD10C,0.00700*%
%ADD11R,0.02953X0.02559*%
%ADD12R,0.02559X0.02953*%
%ADD13R,0.01969X0.12992*%
%ADD14R,0.05118X0.12992*%
%ADD15R,0.01969X0.02362*%
%ADD16R,0.03937X0.04331*%
%ADD17R,0.04331X0.03937*%
%ADD18R,0.10630X0.06299*%
%ADD19R,0.02362X0.01969*%
%ADD20R,0.05906X0.05118*%
%ADD21R,0.05118X0.05906*%
G04:AMPARAMS|DCode=22|XSize=39.37mil|YSize=43.31mil|CornerRadius=0mil|HoleSize=0mil|Usage=FLASHONLY|Rotation=135.000|XOffset=0mil|YOffset=0mil|HoleType=Round|Shape=Rectangle|*
%AMROTATEDRECTD22*
4,1,4,0.02923,0.00139,-0.00139,-0.02923,-0.02923,-0.00139,0.00139,0.02923,0.02923,0.00139,0.0*
%
%ADD22ROTATEDRECTD22*%

%ADD23R,0.03937X0.03937*%
%ADD24R,0.03543X0.02362*%
%ADD25R,0.02362X0.03543*%
G04:AMPARAMS|DCode=26|XSize=23.62mil|YSize=35.43mil|CornerRadius=0mil|HoleSize=0mil|Usage=FLASHONLY|Rotation=330.000|XOffset=0mil|YOffset=0mil|HoleType=Round|Shape=Rectangle|*
%AMROTATEDRECTD26*
4,1,4,-0.01909,-0.00944,-0.00137,0.02125,0.01909,0.00944,0.00137,-0.02125,-0.01909,-0.00944,0.0*
%
%ADD26ROTATEDRECTD26*%

G04:AMPARAMS|DCode=27|XSize=23.62mil|YSize=35.43mil|CornerRadius=0mil|HoleSize=0mil|Usage=FLASHONLY|Rotation=210.000|XOffset=0mil|YOffset=0mil|HoleType=Round|Shape=Rectangle|*
%AMROTATEDRECTD27*
4,1,4,0.00137,0.02125,0.01909,-0.00944,-0.00137,-0.02125,-0.01909,0.00944,0.00137,0.02125,0.0*
%
%ADD27ROTATEDRECTD27*%

%ADD28R,0.02008X0.02953*%
G04:AMPARAMS|DCode=29|XSize=20.08mil|YSize=29.53mil|CornerRadius=0mil|HoleSize=0mil|Usage=FLASHONLY|Rotation=240.000|XOffset=0mil|YOffset=0mil|HoleType=Round|Shape=Rectangle|*
%AMROTATEDRECTD29*
4,1,4,-0.00777,0.01608,0.01781,0.00131,0.00777,-0.01608,-0.01781,-0.00131,-0.00777,0.01608,0.0*
%
%ADD29ROTATEDRECTD29*%

G04:AMPARAMS|DCode=30|XSize=20.08mil|YSize=29.53mil|CornerRadius=0mil|HoleSize=0mil|Usage=FLASHONLY|Rotation=300.000|XOffset=0mil|YOffset=0mil|HoleType=Round|Shape=Rectangle|*
%AMROTATEDRECTD30*
4,1,4,-0.01781,0.00131,0.00777,0.01608,0.01781,-0.00131,-0.00777,-0.01608,-0.01781,0.00131,0.0*
%
%ADD30ROTATEDRECTD30*%

%ADD31R,0.03347X0.03937*%
%ADD32R,0.03347X0.03937*%
%ADD33R,0.03937X0.03347*%
%ADD34R,0.03937X0.03347*%
%ADD35R,0.20472X0.03543*%
%ADD36R,0.06693X0.09843*%
%ADD37R,0.11417X0.21260*%
%ADD38R,0.04528X0.05512*%
%ADD39R,0.06299X0.07874*%
%ADD40R,0.02756X0.01181*%
%ADD41R,0.09843X0.06693*%
%ADD42O,0.07087X0.01181*%
%ADD43O,0.01181X0.07087*%
%ADD44R,0.09449X0.02992*%
%ADD45R,0.15157X0.21654*%
%ADD46R,0.04724X0.09843*%
%ADD47R,0.01575X0.05315*%
%ADD48R,0.06299X0.05512*%
%ADD49R,0.07480X0.07087*%
%ADD50R,0.09055X0.05118*%
%ADD51R,0.05118X0.09055*%
%ADD52R,0.07087X0.07480*%
%ADD53R,0.05512X0.06299*%
%ADD54R,0.05315X0.01575*%
%ADD55R,0.13386X0.07087*%
%ADD56R,0.01181X0.03347*%
%ADD57R,0.07087X0.05512*%
%ADD58R,0.06299X0.02992*%
%ADD59R,0.06102X0.01772*%
%ADD60C,0.03937*%
%ADD61R,0.02953X0.02008*%
%ADD62R,0.21654X0.27165*%
%ADD63R,0.03740X0.07480*%
%ADD64R,0.07008X0.01654*%
%ADD65R,0.11811X0.16535*%
%ADD66C,0.01000*%
%ADD67C,0.00600*%
%ADD68C,0.02000*%
%ADD69C,0.03000*%
G04:AMPARAMS|DCode=70|XSize=23.62mil|YSize=39.37mil|CornerRadius=0mil|HoleSize=0mil|Usage=FLASHONLY|Rotation=60.000|XOffset=0mil|YOffset=0mil|HoleType=Round|Shape=Rectangle|*
%AMROTATEDRECTD70*
4,1,4,0.01114,-0.02007,-0.02295,-0.00039,-0.01114,0.02007,0.02295,0.00039,0.01114,-0.02007,0.0*
%
%ADD70ROTATEDRECTD70*%

G04:AMPARAMS|DCode=71|XSize=23.62mil|YSize=39.37mil|CornerRadius=0mil|HoleSize=0mil|Usage=FLASHONLY|Rotation=120.000|XOffset=0mil|YOffset=0mil|HoleType=Round|Shape=Rectangle|*
%AMROTATEDRECTD71*
4,1,4,0.02295,-0.00039,-0.01114,-0.02007,-0.02295,0.00039,0.01114,0.02007,0.02295,-0.00039,0.0*
%
%ADD71ROTATEDRECTD71*%

%ADD72R,0.02362X0.03937*%
%ADD73R,0.02362X0.03740*%
%ADD74C,0.06000*%
%ADD75C,0.05906*%
%ADD76C,0.11811*%
%ADD77C,0.20000*%
%ADD78C,0.00394*%
%ADD79C,0.02000*%
%ADD80C,0.02598*%
%ADD81C,0.00984*%
%ADD82C,0.02362*%
%ADD83C,0.00787*%
D66*
X61181Y362815D02*
Y363189D01*
X61181Y372342D02*
Y372815D01*
X35787Y362815D02*
Y372815D01*
X66181Y372815D01*
X66181Y362815D01*
X35787Y362815D02*
X66181Y362815D01*
X61181Y339193D02*
Y339567D01*
Y348721D02*
Y349193D01*
X35787Y339193D02*
Y349193D01*
X66181D01*
Y339193D02*
Y349193D01*
X35787Y339193D02*
X66181D01*
X562087Y28248D02*
Y183996D01*
X560984Y118169D02*
X561591D01*
X562087Y183996D02*
X599961D01*
X562087Y28248D02*
X599961D01*
Y183996D01*
X268488Y258661D02*
X269488D01*
X268110Y242421D02*
X282283D01*
X268110D02*
Y264370D01*
X282283D01*
Y242421D02*
Y264370D01*
X280890Y258661D02*
X281890D01*
X268488Y372342D02*
X269488D01*
X268110Y356102D02*
X282283D01*
X268110D02*
Y378051D01*
X282283D01*
Y356102D02*
Y378051D01*
X280890Y372342D02*
X281890D01*
X248310Y486024D02*
X249310D01*
X247932Y469783D02*
X262105D01*
X247932D02*
Y491732D01*
X262105D01*
Y469783D02*
Y491732D01*
X260712Y486024D02*
X261712D01*
X248310Y258661D02*
X249310D01*
X247932Y242421D02*
X262105D01*
X247932D02*
Y264370D01*
X262105D01*
Y242421D02*
Y264370D01*
X260712Y258661D02*
X261712D01*
X248310Y372342D02*
X249310D01*
X247932Y356102D02*
X262105D01*
X247932D02*
Y378051D01*
X262105D01*
Y356102D02*
Y378051D01*
X260712Y372342D02*
X261712D01*
X228132Y486024D02*
X229132D01*
X227754Y469783D02*
X241927D01*
X227754D02*
Y491732D01*
X241927D01*
Y469783D02*
Y491732D01*
X240533Y486024D02*
X241533D01*
X228132Y258661D02*
X229132D01*
X227754Y242421D02*
X241927D01*
X227754D02*
Y264370D01*
X241927D01*
Y242421D02*
Y264370D01*
X240533Y258661D02*
X241533D01*
X228132Y372342D02*
X229132D01*
X227754Y356102D02*
X241927D01*
X227754D02*
Y378051D01*
X241927D01*
Y356102D02*
Y378051D01*
X240533Y372342D02*
X241533D01*
X402854Y311319D02*
X442224D01*
Y264075D02*
Y311319D01*
X402854Y264075D02*
X442224D01*
X402854D02*
Y311319D01*
X403248Y424606D02*
X442618D01*
Y377362D02*
Y424606D01*
X403248Y377362D02*
X442618D01*
X403248D02*
Y424606D01*
X469728Y554755D02*
Y555755D01*
X453488Y541960D02*
Y556133D01*
X475437D01*
Y541960D02*
Y556133D01*
X453488Y541960D02*
X475437D01*
X469728Y542353D02*
Y543354D01*
X469335Y327787D02*
Y328787D01*
X453094Y314991D02*
Y329165D01*
X475043D01*
Y314991D02*
Y329165D01*
X453094Y314991D02*
X475043D01*
X469335Y315385D02*
Y316385D01*
X468935Y440280D02*
Y441280D01*
X452695Y427485D02*
Y441658D01*
X474643D01*
Y427485D02*
Y441658D01*
X452695Y427485D02*
X474643D01*
X468935Y427879D02*
Y428879D01*
X61181Y386437D02*
Y386811D01*
X61181Y396437D02*
X61181Y395965D01*
X35787Y386437D02*
X35787Y396437D01*
X66181Y396437D01*
X66181Y386437D01*
X35787Y386437D02*
X66181Y386437D01*
X268488Y486024D02*
X269488D01*
X268110Y469783D02*
X282283D01*
X268110D02*
Y491732D01*
X282283D01*
Y469783D02*
Y491732D01*
X280890Y486024D02*
X281890D01*
X14200Y338200D02*
X14200Y398200D01*
X4200Y398200D02*
X14200Y398200D01*
X4200Y338200D02*
Y398200D01*
Y338200D02*
X14200Y338200D01*
X4200Y393200D02*
X5066D01*
X13432D02*
X14200D01*
X251835Y200965D02*
X252441D01*
X281614Y114527D02*
Y215591D01*
X260157D02*
X281614D01*
X252441D02*
X260157D01*
X252441Y114527D02*
Y215591D01*
Y114527D02*
X281614D01*
X11436Y304444D02*
X11436Y315763D01*
X11436Y304444D02*
X12421Y303460D01*
X11436Y315763D02*
X12421Y316747D01*
Y323391D02*
X39881Y323391D01*
X39881Y296816D02*
X39881Y323391D01*
X12421Y296816D02*
X39881Y296816D01*
X12421Y316747D02*
Y323391D01*
Y296816D02*
Y303460D01*
X11338Y320339D02*
X11944D01*
X385079Y1280D02*
Y9508D01*
X381890Y12697D02*
X385079Y9508D01*
X381890Y12697D02*
Y21988D01*
X376969D02*
X381890D01*
X346457D02*
X351378D01*
X346457Y12697D02*
Y21988D01*
X343268Y9508D02*
X346457Y12697D01*
X343268Y1280D02*
Y9508D01*
Y1280D02*
X385079D01*
X1083Y186094D02*
Y227906D01*
X9311D01*
X12500Y224716D01*
X21791D01*
Y219795D02*
Y224716D01*
Y189284D02*
Y194205D01*
X12500Y189284D02*
X21791D01*
X9311Y186094D02*
X12500Y189284D01*
X1083Y186094D02*
X9311D01*
X40276Y28012D02*
Y183760D01*
X40772Y93839D02*
X41378D01*
X2402Y28012D02*
X40276D01*
X2402Y183760D02*
X40276D01*
X2402Y28012D02*
Y183760D01*
X403248Y538287D02*
X442618D01*
Y491043D02*
Y538287D01*
X403248Y491043D02*
X442618D01*
X403248D02*
Y538287D01*
X17778Y332474D02*
X15779D01*
X16779D01*
Y327476D01*
X15779Y326476D01*
X14779D01*
X13780Y327476D01*
X19778Y332474D02*
X23776D01*
X21777D01*
Y326476D01*
X25776D02*
Y330475D01*
X27775Y332474D01*
X29774Y330475D01*
Y326476D01*
Y329475D01*
X25776D01*
X35772Y331475D02*
X34773Y332474D01*
X32773D01*
X31774Y331475D01*
Y327476D01*
X32773Y326476D01*
X34773D01*
X35772Y327476D01*
Y329475D01*
X33773D01*
D67*
X586798Y273721D02*
X588766D01*
X587782Y272736D02*
Y274705D01*
X560222Y273721D02*
X562190D01*
X561206Y272736D02*
Y274705D01*
X533646Y273721D02*
X535614D01*
X534630Y272736D02*
Y274705D01*
X507069Y273721D02*
X509038D01*
X508054Y272736D02*
Y274705D01*
X594383Y325818D02*
X596351D01*
X595367Y324834D02*
Y326802D01*
X567806Y325818D02*
X569775D01*
X568791Y324834D02*
Y326802D01*
X541230Y325818D02*
X543199D01*
X542215Y324834D02*
Y326802D01*
X514654Y325818D02*
X516623D01*
X515638Y324834D02*
Y326802D01*
X488078Y325818D02*
X490047D01*
X489062Y324834D02*
Y326802D01*
X613374Y387402D02*
X615342D01*
X614358Y386417D02*
Y388386D01*
X586950Y387402D02*
X588919D01*
X587935Y386417D02*
Y388386D01*
X560527Y387402D02*
X562496D01*
X561511Y386417D02*
Y388386D01*
X534104Y387402D02*
X536072D01*
X535088Y386417D02*
Y388386D01*
X507069Y387402D02*
X509038D01*
X508054Y386417D02*
Y388386D01*
X594383Y438312D02*
X596351D01*
X595367Y437328D02*
Y439296D01*
X567806Y438312D02*
X569775D01*
X568791Y437328D02*
Y439296D01*
X541230Y438312D02*
X543199D01*
X542215Y437328D02*
Y439296D01*
X514654Y438312D02*
X516623D01*
X515638Y437328D02*
Y439296D01*
X488078Y438312D02*
X490047D01*
X489062Y437328D02*
Y439296D01*
X613374Y501083D02*
X615342D01*
X614358Y500098D02*
Y502067D01*
X586798Y501083D02*
X588766D01*
X587782Y500098D02*
Y502067D01*
X560222Y501083D02*
X562190D01*
X561206Y500098D02*
Y502067D01*
X533646Y501083D02*
X535614D01*
X534630Y500098D02*
Y502067D01*
X507069Y501083D02*
X509038D01*
X508054Y500098D02*
Y502067D01*
X594383Y552787D02*
X596351D01*
X595367Y551802D02*
Y553771D01*
X567806Y552787D02*
X569775D01*
X568791Y551802D02*
Y553771D01*
X541230Y552787D02*
X543199D01*
X542215Y551802D02*
Y553771D01*
X514654Y552787D02*
X516623D01*
X515638Y551802D02*
Y553771D01*
X488078Y552787D02*
X490047D01*
X489062Y551802D02*
Y553771D01*
X262761Y84144D02*
Y86506D01*
X197112Y60227D02*
X199474D01*
X233824Y52254D02*
Y54616D01*
X116929Y363878D02*
X119291D01*
X72366Y133763D02*
Y135968D01*
Y133763D02*
X79650D01*
Y135968D01*
X98887Y168720D02*
X100796Y167618D01*
X95245Y162412D02*
X98887Y168720D01*
X95245Y162412D02*
X97154Y161310D01*
X111736Y133763D02*
Y135968D01*
Y133763D02*
X119020D01*
Y135968D01*
X90708Y119672D02*
X92617Y118570D01*
X96259Y124878D01*
X94349Y125980D02*
X96259Y124878D01*
X75501Y158838D02*
X77410Y159940D01*
X75501Y158838D02*
X79143Y152530D01*
X81052Y153633D01*
X95186Y124980D02*
X97096Y126082D01*
X95186Y124980D02*
X98828Y118672D01*
X100737Y119774D01*
X387402Y19783D02*
X389764D01*
X15354Y229626D02*
Y231988D01*
X204626Y158661D02*
X206988D01*
X302165Y2854D02*
Y13091D01*
X268701D02*
X302165D01*
X268701Y2854D02*
Y13091D01*
Y2854D02*
X302165D01*
X177000Y258713D02*
X177000Y240287D01*
X193102D02*
Y258713D01*
X103331Y139944D02*
X105535D01*
Y147228D01*
X103331D02*
X105535D01*
X613374Y273721D02*
X615342D01*
X614358Y272736D02*
Y274705D01*
X66929Y402067D02*
Y405066D01*
X68429D01*
X68928Y404566D01*
Y403566D01*
X68429Y403067D01*
X66929D01*
X67929D02*
X68928Y402067D01*
X69928D02*
X70928D01*
X70428D01*
Y405066D01*
X69928Y404566D01*
X74427Y405066D02*
X72427D01*
Y403566D01*
X73427Y404066D01*
X73927D01*
X74427Y403566D01*
Y402567D01*
X73927Y402067D01*
X72927D01*
X72427Y402567D01*
X66535Y377658D02*
Y380657D01*
X68035D01*
X68535Y380157D01*
Y379157D01*
X68035Y378657D01*
X66535D01*
X67535D02*
X68535Y377658D01*
X69534D02*
X70534D01*
X70034D01*
Y380657D01*
X69534Y380157D01*
X72034Y378157D02*
X72534Y377658D01*
X73533D01*
X74033Y378157D01*
Y380157D01*
X73533Y380657D01*
X72534D01*
X72034Y380157D01*
Y379657D01*
X72534Y379157D01*
X74033D01*
X68504Y353642D02*
Y356641D01*
X70003D01*
X70503Y356141D01*
Y355141D01*
X70003Y354641D01*
X68504D01*
X69504D02*
X70503Y353642D01*
X73502D02*
X71503D01*
X73502Y355641D01*
Y356141D01*
X73002Y356641D01*
X72003D01*
X71503Y356141D01*
X74502D02*
X75002Y356641D01*
X76002D01*
X76501Y356141D01*
Y354142D01*
X76002Y353642D01*
X75002D01*
X74502Y354142D01*
Y356141D01*
X11910Y240213D02*
Y243212D01*
X13410D01*
X13910Y242712D01*
Y241712D01*
X13410Y241212D01*
X11910D01*
X12910D02*
X13910Y240213D01*
X16909D02*
X14909D01*
X16909Y242212D01*
Y242712D01*
X16409Y243212D01*
X15409D01*
X14909Y242712D01*
X17908Y240712D02*
X18408Y240213D01*
X19408D01*
X19908Y240712D01*
Y242712D01*
X19408Y243212D01*
X18408D01*
X17908Y242712D01*
Y242212D01*
X18408Y241712D01*
X19908D01*
X4263Y238346D02*
X3263D01*
X3763D01*
Y235846D01*
X3263Y235347D01*
X2764D01*
X2264Y235846D01*
X5263Y235347D02*
X6262D01*
X5763D01*
Y238346D01*
X5263Y237846D01*
X9761Y238346D02*
X8762Y237846D01*
X7762Y236846D01*
Y235846D01*
X8262Y235347D01*
X9262D01*
X9761Y235846D01*
Y236346D01*
X9262Y236846D01*
X7762D01*
X33858Y206247D02*
Y203248D01*
X35358D01*
X35858Y203748D01*
Y205747D01*
X35358Y206247D01*
X33858D01*
X38857D02*
X37857Y205747D01*
X36857Y204748D01*
Y203748D01*
X37357Y203248D01*
X38357D01*
X38857Y203748D01*
Y204248D01*
X38357Y204748D01*
X36857D01*
X59055Y227901D02*
Y224902D01*
X60555D01*
X61054Y225401D01*
Y227401D01*
X60555Y227901D01*
X59055D01*
X64053D02*
X62054D01*
Y226401D01*
X63054Y226901D01*
X63554D01*
X64053Y226401D01*
Y225401D01*
X63554Y224902D01*
X62554D01*
X62054Y225401D01*
X23259Y232519D02*
X22759Y233019D01*
X21760D01*
X21260Y232519D01*
Y230520D01*
X21760Y230020D01*
X22759D01*
X23259Y230520D01*
X25758Y230020D02*
Y233019D01*
X24259Y231519D01*
X26258D01*
X27258Y230020D02*
X28258D01*
X27758D01*
Y233019D01*
X27258Y232519D01*
X395276Y6201D02*
X392277D01*
Y7700D01*
X392776Y8200D01*
X393776D01*
X394276Y7700D01*
Y6201D01*
Y7201D02*
X395276Y8200D01*
Y11199D02*
Y9200D01*
X393276Y11199D01*
X392776D01*
X392277Y10699D01*
Y9700D01*
X392776Y9200D01*
Y12199D02*
X392277Y12699D01*
Y13698D01*
X392776Y14198D01*
X393276D01*
X393776Y13698D01*
X394276Y14198D01*
X394776D01*
X395276Y13698D01*
Y12699D01*
X394776Y12199D01*
X394276D01*
X393776Y12699D01*
X393276Y12199D01*
X392776D01*
X393776Y12699D02*
Y13698D01*
X345392Y28051D02*
X344392D01*
X344892D01*
Y25552D01*
X344392Y25052D01*
X343892D01*
X343392Y25552D01*
X346391Y25052D02*
X347391D01*
X346891D01*
Y28051D01*
X346391Y27551D01*
X350890Y28051D02*
X348890D01*
Y26551D01*
X349890Y27051D01*
X350390D01*
X350890Y26551D01*
Y25552D01*
X350390Y25052D01*
X349390D01*
X348890Y25552D01*
X370449Y57904D02*
Y54905D01*
X371948D01*
X372448Y55405D01*
Y57405D01*
X371948Y57904D01*
X370449D01*
X374947Y54905D02*
Y57904D01*
X373448Y56405D01*
X375447D01*
X327350Y57848D02*
Y54849D01*
X328849D01*
X329349Y55349D01*
Y57348D01*
X328849Y57848D01*
X327350D01*
X330349Y57348D02*
X330849Y57848D01*
X331848D01*
X332348Y57348D01*
Y56848D01*
X331848Y56348D01*
X331348D01*
X331848D01*
X332348Y55848D01*
Y55349D01*
X331848Y54849D01*
X330849D01*
X330349Y55349D01*
X387658Y8397D02*
X387158Y7897D01*
Y6898D01*
X387658Y6398D01*
X389658D01*
X390158Y6898D01*
Y7897D01*
X389658Y8397D01*
X390158Y10896D02*
X387158D01*
X388658Y9397D01*
Y11396D01*
X387658Y12396D02*
X387158Y12896D01*
Y13895D01*
X387658Y14395D01*
X389658D01*
X390158Y13895D01*
Y12896D01*
X389658Y12396D01*
X387658D01*
X332677Y362697D02*
X335676D01*
Y361197D01*
X335176Y360698D01*
X334177D01*
X333677Y361197D01*
Y362697D01*
Y361697D02*
X332677Y360698D01*
Y357698D02*
Y359698D01*
X334677Y357698D01*
X335176D01*
X335676Y358198D01*
Y359198D01*
X335176Y359698D01*
X335676Y356699D02*
Y354699D01*
X335176D01*
X333177Y356699D01*
X332677D01*
X332177Y353700D02*
Y351700D01*
X335676Y350701D02*
X332677D01*
X333677Y349701D01*
X332677Y348701D01*
X335676D01*
X332283Y249705D02*
X335282D01*
Y248205D01*
X334783Y247705D01*
X333783D01*
X333283Y248205D01*
Y249705D01*
Y248705D02*
X332283Y247705D01*
Y244706D02*
Y246706D01*
X334283Y244706D01*
X334783D01*
X335282Y245206D01*
Y246206D01*
X334783Y246706D01*
X335282Y243707D02*
Y241707D01*
X334783D01*
X332783Y243707D01*
X332283D01*
X331784Y240708D02*
Y238708D01*
X332283Y237709D02*
X335282D01*
Y236209D01*
X334783Y235709D01*
X333783D01*
X333283Y236209D01*
Y237709D01*
Y236709D02*
X332283Y235709D01*
X335886Y463805D02*
X332887D01*
Y465304D01*
X333387Y465804D01*
X334386D01*
X334886Y465304D01*
Y463805D01*
Y464804D02*
X335886Y465804D01*
Y468803D02*
Y466804D01*
X333887Y468803D01*
X333387D01*
X332887Y468303D01*
Y467304D01*
X333387Y466804D01*
X332887Y469803D02*
Y471802D01*
X333387D01*
X335386Y469803D01*
X335886D01*
X336386Y472802D02*
Y474801D01*
X333387Y477800D02*
X332887Y477300D01*
Y476301D01*
X333387Y475801D01*
X335386D01*
X335886Y476301D01*
Y477300D01*
X335386Y477800D01*
X173228Y165059D02*
Y168058D01*
X174728D01*
X175228Y167558D01*
Y166559D01*
X174728Y166059D01*
X173228D01*
X174228D02*
X175228Y165059D01*
X176227D02*
X177227D01*
X176727D01*
Y168058D01*
X176227Y167558D01*
X178727D02*
X179226Y168058D01*
X180226D01*
X180726Y167558D01*
Y167058D01*
X180226Y166559D01*
X180726Y166059D01*
Y165559D01*
X180226Y165059D01*
X179226D01*
X178727Y165559D01*
Y166059D01*
X179226Y166559D01*
X178727Y167058D01*
Y167558D01*
X179226Y166559D02*
X180226D01*
X142520Y125295D02*
Y128294D01*
X144019D01*
X144519Y127795D01*
Y126795D01*
X144019Y126295D01*
X142520D01*
X143519D02*
X144519Y125295D01*
X147518Y128294D02*
X145519D01*
Y126795D01*
X146518Y127295D01*
X147018D01*
X147518Y126795D01*
Y125795D01*
X147018Y125295D01*
X146019D01*
X145519Y125795D01*
X106299Y192618D02*
Y195617D01*
X107799D01*
X108299Y195117D01*
Y194118D01*
X107799Y193618D01*
X106299D01*
X107299D02*
X108299Y192618D01*
X110798D02*
Y195617D01*
X109298Y194118D01*
X111298D01*
X175228Y153748D02*
Y155747D01*
X174728Y156247D01*
X173728D01*
X173228Y155747D01*
Y153748D01*
X173728Y153248D01*
X174728D01*
X174228Y154248D02*
X175228Y153248D01*
X174728D02*
X175228Y153748D01*
X176227D02*
X176727Y153248D01*
X177727D01*
X178227Y153748D01*
Y155747D01*
X177727Y156247D01*
X176727D01*
X176227Y155747D01*
Y155247D01*
X176727Y154748D01*
X178227D01*
X437334Y438377D02*
X436334D01*
X436834D01*
Y435878D01*
X436334Y435378D01*
X435835D01*
X435335Y435878D01*
X438334Y435378D02*
X439333D01*
X438834D01*
Y438377D01*
X438334Y437877D01*
X442332Y435378D02*
Y438377D01*
X440833Y436877D01*
X442832D01*
X443832Y434878D02*
X445831D01*
X446831Y438377D02*
Y435378D01*
X447831Y436378D01*
X448830Y435378D01*
Y438377D01*
X438234Y327277D02*
X437234D01*
X437734D01*
Y324778D01*
X437234Y324278D01*
X436734D01*
X436235Y324778D01*
X439234Y324278D02*
X440233D01*
X439734D01*
Y327277D01*
X439234Y326777D01*
X443232Y324278D02*
Y327277D01*
X441733Y325778D01*
X443732D01*
X444732Y323778D02*
X446731D01*
X447731Y324278D02*
Y327277D01*
X449230D01*
X449730Y326777D01*
Y325778D01*
X449230Y325278D01*
X447731D01*
X448731D02*
X449730Y324278D01*
X437334Y551520D02*
X436334D01*
X436834D01*
Y549021D01*
X436334Y548521D01*
X435835D01*
X435335Y549021D01*
X438334Y548521D02*
X439333D01*
X438834D01*
Y551520D01*
X438334Y551020D01*
X442332Y548521D02*
Y551520D01*
X440833Y550021D01*
X442832D01*
X443832Y548021D02*
X445831D01*
X448830Y551020D02*
X448330Y551520D01*
X447331D01*
X446831Y551020D01*
Y549021D01*
X447331Y548521D01*
X448330D01*
X448830Y549021D01*
X389134Y419077D02*
X388134D01*
X388634D01*
Y416578D01*
X388134Y416078D01*
X387634D01*
X387135Y416578D01*
X390134Y416078D02*
X391133D01*
X390634D01*
Y419077D01*
X390134Y418577D01*
X392633D02*
X393133Y419077D01*
X394132D01*
X394632Y418577D01*
Y418077D01*
X394132Y417578D01*
X393633D01*
X394132D01*
X394632Y417078D01*
Y416578D01*
X394132Y416078D01*
X393133D01*
X392633Y416578D01*
X395632Y415578D02*
X397631D01*
X398631Y419077D02*
Y416078D01*
X399631Y417078D01*
X400630Y416078D01*
Y419077D01*
X380799Y302138D02*
X379799D01*
X380299D01*
Y299639D01*
X379799Y299139D01*
X379299D01*
X378799Y299639D01*
X381798Y299139D02*
X382798D01*
X382298D01*
Y302138D01*
X381798Y301639D01*
X384297D02*
X384797Y302138D01*
X385797D01*
X386297Y301639D01*
Y301139D01*
X385797Y300639D01*
X385297D01*
X385797D01*
X386297Y300139D01*
Y299639D01*
X385797Y299139D01*
X384797D01*
X384297Y299639D01*
X387297Y298639D02*
X389296D01*
X390296Y299139D02*
Y302138D01*
X391795D01*
X392295Y301639D01*
Y300639D01*
X391795Y300139D01*
X390296D01*
X391295D02*
X392295Y299139D01*
X388673Y524678D02*
X387673D01*
X388173D01*
Y522179D01*
X387673Y521679D01*
X387173D01*
X386673Y522179D01*
X389672Y521679D02*
X390672D01*
X390172D01*
Y524678D01*
X389672Y524178D01*
X392171D02*
X392671Y524678D01*
X393671D01*
X394171Y524178D01*
Y523678D01*
X393671Y523178D01*
X393171D01*
X393671D01*
X394171Y522678D01*
Y522179D01*
X393671Y521679D01*
X392671D01*
X392171Y522179D01*
X395170Y521179D02*
X397170D01*
X400169Y524178D02*
X399669Y524678D01*
X398669D01*
X398169Y524178D01*
Y522179D01*
X398669Y521679D01*
X399669D01*
X400169Y522179D01*
X301967Y388129D02*
Y385629D01*
X302467Y385129D01*
X303467D01*
X303967Y385629D01*
Y388129D01*
X304966Y387629D02*
X305466Y388129D01*
X306466D01*
X306966Y387629D01*
Y387129D01*
X306466Y386629D01*
X305966D01*
X306466D01*
X306966Y386129D01*
Y385629D01*
X306466Y385129D01*
X305466D01*
X304966Y385629D01*
X307965Y384630D02*
X309965D01*
X310964Y388129D02*
Y385129D01*
X311964Y386129D01*
X312964Y385129D01*
Y388129D01*
X301967Y274447D02*
Y271948D01*
X302467Y271448D01*
X303467D01*
X303967Y271948D01*
Y274447D01*
X304966Y273948D02*
X305466Y274447D01*
X306466D01*
X306966Y273948D01*
Y273448D01*
X306466Y272948D01*
X305966D01*
X306466D01*
X306966Y272448D01*
Y271948D01*
X306466Y271448D01*
X305466D01*
X304966Y271948D01*
X307965Y270949D02*
X309965D01*
X310964Y271448D02*
Y274447D01*
X312464D01*
X312964Y273948D01*
Y272948D01*
X312464Y272448D01*
X310964D01*
X311964D02*
X312964Y271448D01*
X301967Y501810D02*
Y499310D01*
X302467Y498811D01*
X303467D01*
X303967Y499310D01*
Y501810D01*
X304966Y501310D02*
X305466Y501810D01*
X306466D01*
X306966Y501310D01*
Y500810D01*
X306466Y500310D01*
X305966D01*
X306466D01*
X306966Y499810D01*
Y499310D01*
X306466Y498811D01*
X305466D01*
X304966Y499310D01*
X307965Y498311D02*
X309965D01*
X312964Y501310D02*
X312464Y501810D01*
X311464D01*
X310964Y501310D01*
Y499310D01*
X311464Y498811D01*
X312464D01*
X312964Y499310D01*
X259449Y352658D02*
X262448D01*
Y351158D01*
X261948Y350658D01*
X260948D01*
X260449Y351158D01*
Y352658D01*
Y351658D02*
X259449Y350658D01*
Y347659D02*
Y349658D01*
X261448Y347659D01*
X261948D01*
X262448Y348159D01*
Y349159D01*
X261948Y349658D01*
X262448Y344660D02*
X261948Y345660D01*
X260948Y346659D01*
X259949D01*
X259449Y346160D01*
Y345160D01*
X259949Y344660D01*
X260449D01*
X260948Y345160D01*
Y346659D01*
X258949Y343660D02*
Y341661D01*
X262448Y340661D02*
X259449D01*
X260449Y339662D01*
X259449Y338662D01*
X262448D01*
X259449Y238976D02*
X262448D01*
Y237477D01*
X261948Y236977D01*
X260948D01*
X260449Y237477D01*
Y238976D01*
Y237977D02*
X259449Y236977D01*
Y233978D02*
Y235977D01*
X261448Y233978D01*
X261948D01*
X262448Y234478D01*
Y235477D01*
X261948Y235977D01*
X262448Y230979D02*
X261948Y231979D01*
X260948Y232978D01*
X259949D01*
X259449Y232478D01*
Y231479D01*
X259949Y230979D01*
X260449D01*
X260948Y231479D01*
Y232978D01*
X258949Y229979D02*
Y227980D01*
X259449Y226980D02*
X262448D01*
Y225481D01*
X261948Y224981D01*
X260948D01*
X260449Y225481D01*
Y226980D01*
Y225981D02*
X259449Y224981D01*
Y466339D02*
X262448D01*
Y464839D01*
X261948Y464339D01*
X260948D01*
X260449Y464839D01*
Y466339D01*
Y465339D02*
X259449Y464339D01*
Y461340D02*
Y463340D01*
X261448Y461340D01*
X261948D01*
X262448Y461840D01*
Y462840D01*
X261948Y463340D01*
X262448Y458341D02*
X261948Y459341D01*
X260948Y460340D01*
X259949D01*
X259449Y459841D01*
Y458841D01*
X259949Y458341D01*
X260449D01*
X260948Y458841D01*
Y460340D01*
X258949Y457341D02*
Y455342D01*
X261948Y452343D02*
X262448Y452843D01*
Y453843D01*
X261948Y454343D01*
X259949D01*
X259449Y453843D01*
Y452843D01*
X259949Y452343D01*
X279921Y352658D02*
X282920D01*
Y351158D01*
X282420Y350658D01*
X281421D01*
X280921Y351158D01*
Y352658D01*
Y351658D02*
X279921Y350658D01*
Y347659D02*
Y349658D01*
X281921Y347659D01*
X282420D01*
X282920Y348159D01*
Y349159D01*
X282420Y349658D01*
X282920Y344660D02*
Y346659D01*
X281421D01*
X281921Y345660D01*
Y345160D01*
X281421Y344660D01*
X280421D01*
X279921Y345160D01*
Y346160D01*
X280421Y346659D01*
X279421Y343660D02*
Y341661D01*
X282920Y340661D02*
X279921D01*
X280921Y339662D01*
X279921Y338662D01*
X282920D01*
X279921Y238976D02*
X282920D01*
Y237477D01*
X282420Y236977D01*
X281421D01*
X280921Y237477D01*
Y238976D01*
Y237977D02*
X279921Y236977D01*
Y233978D02*
Y235977D01*
X281921Y233978D01*
X282420D01*
X282920Y234478D01*
Y235477D01*
X282420Y235977D01*
X282920Y230979D02*
Y232978D01*
X281421D01*
X281921Y231979D01*
Y231479D01*
X281421Y230979D01*
X280421D01*
X279921Y231479D01*
Y232478D01*
X280421Y232978D01*
X279421Y229979D02*
Y227980D01*
X279921Y226980D02*
X282920D01*
Y225481D01*
X282420Y224981D01*
X281421D01*
X280921Y225481D01*
Y226980D01*
Y225981D02*
X279921Y224981D01*
Y466339D02*
X282920D01*
Y464839D01*
X282420Y464339D01*
X281421D01*
X280921Y464839D01*
Y466339D01*
Y465339D02*
X279921Y464339D01*
Y461340D02*
Y463340D01*
X281921Y461340D01*
X282420D01*
X282920Y461840D01*
Y462840D01*
X282420Y463340D01*
X282920Y458341D02*
Y460340D01*
X281421D01*
X281921Y459341D01*
Y458841D01*
X281421Y458341D01*
X280421D01*
X279921Y458841D01*
Y459841D01*
X280421Y460340D01*
X279421Y457341D02*
Y455342D01*
X282420Y452343D02*
X282920Y452843D01*
Y453843D01*
X282420Y454343D01*
X280421D01*
X279921Y453843D01*
Y452843D01*
X280421Y452343D01*
X238976Y352658D02*
X241975D01*
Y351158D01*
X241476Y350658D01*
X240476D01*
X239976Y351158D01*
Y352658D01*
Y351658D02*
X238976Y350658D01*
Y347659D02*
Y349658D01*
X240976Y347659D01*
X241476D01*
X241975Y348159D01*
Y349159D01*
X241476Y349658D01*
X238976Y346659D02*
Y345660D01*
Y346160D01*
X241975D01*
X241476Y346659D01*
X238476Y344160D02*
Y342161D01*
X241975Y341161D02*
X238976D01*
X239976Y340161D01*
X238976Y339162D01*
X241975D01*
X238976Y238976D02*
X241975D01*
Y237477D01*
X241476Y236977D01*
X240476D01*
X239976Y237477D01*
Y238976D01*
Y237977D02*
X238976Y236977D01*
Y233978D02*
Y235977D01*
X240976Y233978D01*
X241476D01*
X241975Y234478D01*
Y235477D01*
X241476Y235977D01*
X238976Y232978D02*
Y231979D01*
Y232478D01*
X241975D01*
X241476Y232978D01*
X238476Y230479D02*
Y228480D01*
X238976Y227480D02*
X241975D01*
Y225981D01*
X241476Y225481D01*
X240476D01*
X239976Y225981D01*
Y227480D01*
Y226480D02*
X238976Y225481D01*
Y466339D02*
X241975D01*
Y464839D01*
X241476Y464339D01*
X240476D01*
X239976Y464839D01*
Y466339D01*
Y465339D02*
X238976Y464339D01*
Y461340D02*
Y463340D01*
X240976Y461340D01*
X241476D01*
X241975Y461840D01*
Y462840D01*
X241476Y463340D01*
X238976Y460340D02*
Y459341D01*
Y459841D01*
X241975D01*
X241476Y460340D01*
X238476Y457841D02*
Y455842D01*
X241476Y452843D02*
X241975Y453343D01*
Y454343D01*
X241476Y454842D01*
X239476D01*
X238976Y454343D01*
Y453343D01*
X239476Y452843D01*
X309842Y355807D02*
Y358806D01*
X311342D01*
X311842Y358306D01*
Y357307D01*
X311342Y356807D01*
X309842D01*
X310842D02*
X311842Y355807D01*
X312842Y358306D02*
X313341Y358806D01*
X314341D01*
X314841Y358306D01*
Y357806D01*
X314341Y357307D01*
X313841D01*
X314341D01*
X314841Y356807D01*
Y356307D01*
X314341Y355807D01*
X313341D01*
X312842Y356307D01*
X315841Y358306D02*
X316340Y358806D01*
X317340D01*
X317840Y358306D01*
Y357806D01*
X317340Y357307D01*
X316840D01*
X317340D01*
X317840Y356807D01*
Y356307D01*
X317340Y355807D01*
X316340D01*
X315841Y356307D01*
X318840Y355307D02*
X320839D01*
X321839Y358806D02*
Y355807D01*
X322838Y356807D01*
X323838Y355807D01*
Y358806D01*
X309842Y242126D02*
Y245125D01*
X311342D01*
X311842Y244625D01*
Y243625D01*
X311342Y243126D01*
X309842D01*
X310842D02*
X311842Y242126D01*
X312842Y244625D02*
X313341Y245125D01*
X314341D01*
X314841Y244625D01*
Y244125D01*
X314341Y243625D01*
X313841D01*
X314341D01*
X314841Y243126D01*
Y242626D01*
X314341Y242126D01*
X313341D01*
X312842Y242626D01*
X315841Y244625D02*
X316340Y245125D01*
X317340D01*
X317840Y244625D01*
Y244125D01*
X317340Y243625D01*
X316840D01*
X317340D01*
X317840Y243126D01*
Y242626D01*
X317340Y242126D01*
X316340D01*
X315841Y242626D01*
X318840Y241626D02*
X320839D01*
X321839Y242126D02*
Y245125D01*
X323338D01*
X323838Y244625D01*
Y243625D01*
X323338Y243126D01*
X321839D01*
X322838D02*
X323838Y242126D01*
X309842Y469488D02*
Y472487D01*
X311342D01*
X311842Y471987D01*
Y470988D01*
X311342Y470488D01*
X309842D01*
X310842D02*
X311842Y469488D01*
X312842Y471987D02*
X313341Y472487D01*
X314341D01*
X314841Y471987D01*
Y471488D01*
X314341Y470988D01*
X313841D01*
X314341D01*
X314841Y470488D01*
Y469988D01*
X314341Y469488D01*
X313341D01*
X312842Y469988D01*
X315841Y471987D02*
X316340Y472487D01*
X317340D01*
X317840Y471987D01*
Y471488D01*
X317340Y470988D01*
X316840D01*
X317340D01*
X317840Y470488D01*
Y469988D01*
X317340Y469488D01*
X316340D01*
X315841Y469988D01*
X318840Y468988D02*
X320839D01*
X323838Y471987D02*
X323338Y472487D01*
X322339D01*
X321839Y471987D01*
Y469988D01*
X322339Y469488D01*
X323338D01*
X323838Y469988D01*
X340208Y408313D02*
Y405314D01*
X342207D01*
X345206D02*
X343207D01*
X345206Y407313D01*
Y407813D01*
X344706Y408313D01*
X343706D01*
X343207Y407813D01*
X346205Y404814D02*
X348205D01*
X349205Y408313D02*
Y405314D01*
X350204Y406314D01*
X351204Y405314D01*
Y408313D01*
X340208Y294632D02*
Y291633D01*
X342207D01*
X345206D02*
X343207D01*
X345206Y293632D01*
Y294132D01*
X344706Y294632D01*
X343706D01*
X343207Y294132D01*
X346205Y291133D02*
X348205D01*
X349205Y291633D02*
Y294632D01*
X350704D01*
X351204Y294132D01*
Y293132D01*
X350704Y292632D01*
X349205D01*
X350204D02*
X351204Y291633D01*
X340208Y521994D02*
Y518995D01*
X342207D01*
X345206D02*
X343207D01*
X345206Y520994D01*
Y521494D01*
X344706Y521994D01*
X343706D01*
X343207Y521494D01*
X346205Y518495D02*
X348205D01*
X351204Y521494D02*
X350704Y521994D01*
X349704D01*
X349205Y521494D01*
Y519495D01*
X349704Y518995D01*
X350704D01*
X351204Y519495D01*
X229895Y384691D02*
X228896D01*
X229395D01*
Y382191D01*
X228896Y381692D01*
X228396D01*
X227896Y382191D01*
X230895Y381692D02*
X231895D01*
X231395D01*
Y384691D01*
X230895Y384191D01*
X235394Y381692D02*
X233394D01*
X235394Y383691D01*
Y384191D01*
X234894Y384691D01*
X233894D01*
X233394Y384191D01*
X236393Y381192D02*
X238392D01*
X239392Y384691D02*
Y381692D01*
X240392Y382691D01*
X241391Y381692D01*
Y384691D01*
X229895Y271009D02*
X228896D01*
X229395D01*
Y268510D01*
X228896Y268010D01*
X228396D01*
X227896Y268510D01*
X230895Y268010D02*
X231895D01*
X231395D01*
Y271009D01*
X230895Y270510D01*
X235394Y268010D02*
X233394D01*
X235394Y270010D01*
Y270510D01*
X234894Y271009D01*
X233894D01*
X233394Y270510D01*
X236393Y267511D02*
X238392D01*
X239392Y268010D02*
Y271009D01*
X240892D01*
X241391Y270510D01*
Y269510D01*
X240892Y269010D01*
X239392D01*
X240392D02*
X241391Y268010D01*
X229895Y498372D02*
X228896D01*
X229395D01*
Y495872D01*
X228896Y495373D01*
X228396D01*
X227896Y495872D01*
X230895Y495373D02*
X231895D01*
X231395D01*
Y498372D01*
X230895Y497872D01*
X235394Y495373D02*
X233394D01*
X235394Y497372D01*
Y497872D01*
X234894Y498372D01*
X233894D01*
X233394Y497872D01*
X236393Y494873D02*
X238392D01*
X241391Y497872D02*
X240892Y498372D01*
X239892D01*
X239392Y497872D01*
Y495872D01*
X239892Y495373D01*
X240892D01*
X241391Y495872D01*
X249995Y384691D02*
X248996D01*
X249495D01*
Y382191D01*
X248996Y381692D01*
X248496D01*
X247996Y382191D01*
X250995Y381692D02*
X251995D01*
X251495D01*
Y384691D01*
X250995Y384191D01*
X253494Y381692D02*
X254494D01*
X253994D01*
Y384691D01*
X253494Y384191D01*
X255993Y381192D02*
X257993D01*
X258992Y384691D02*
Y381692D01*
X259992Y382691D01*
X260992Y381692D01*
Y384691D01*
X249995Y271009D02*
X248996D01*
X249495D01*
Y268510D01*
X248996Y268010D01*
X248496D01*
X247996Y268510D01*
X250995Y268010D02*
X251995D01*
X251495D01*
Y271009D01*
X250995Y270510D01*
X253494Y268010D02*
X254494D01*
X253994D01*
Y271009D01*
X253494Y270510D01*
X255993Y267511D02*
X257993D01*
X258992Y268010D02*
Y271009D01*
X260492D01*
X260992Y270510D01*
Y269510D01*
X260492Y269010D01*
X258992D01*
X259992D02*
X260992Y268010D01*
X249995Y498372D02*
X248996D01*
X249495D01*
Y495872D01*
X248996Y495373D01*
X248496D01*
X247996Y495872D01*
X250995Y495373D02*
X251995D01*
X251495D01*
Y498372D01*
X250995Y497872D01*
X253494Y495373D02*
X254494D01*
X253994D01*
Y498372D01*
X253494Y497872D01*
X255993Y494873D02*
X257993D01*
X260992Y497872D02*
X260492Y498372D01*
X259492D01*
X258992Y497872D01*
Y495872D01*
X259492Y495373D01*
X260492D01*
X260992Y495872D01*
X270195Y384691D02*
X269196D01*
X269695D01*
Y382191D01*
X269196Y381692D01*
X268696D01*
X268196Y382191D01*
X271195Y381692D02*
X272195D01*
X271695D01*
Y384691D01*
X271195Y384191D01*
X273694D02*
X274194Y384691D01*
X275194D01*
X275693Y384191D01*
Y382191D01*
X275194Y381692D01*
X274194D01*
X273694Y382191D01*
Y384191D01*
X276693Y381192D02*
X278693D01*
X279692Y384691D02*
Y381692D01*
X280692Y382691D01*
X281692Y381692D01*
Y384691D01*
X270195Y271009D02*
X269196D01*
X269695D01*
Y268510D01*
X269196Y268010D01*
X268696D01*
X268196Y268510D01*
X271195Y268010D02*
X272195D01*
X271695D01*
Y271009D01*
X271195Y270510D01*
X273694D02*
X274194Y271009D01*
X275194D01*
X275693Y270510D01*
Y268510D01*
X275194Y268010D01*
X274194D01*
X273694Y268510D01*
Y270510D01*
X276693Y267511D02*
X278693D01*
X279692Y268010D02*
Y271009D01*
X281192D01*
X281692Y270510D01*
Y269510D01*
X281192Y269010D01*
X279692D01*
X280692D02*
X281692Y268010D01*
X270195Y498372D02*
X269196D01*
X269695D01*
Y495872D01*
X269196Y495373D01*
X268696D01*
X268196Y495872D01*
X271195Y495373D02*
X272195D01*
X271695D01*
Y498372D01*
X271195Y497872D01*
X273694D02*
X274194Y498372D01*
X275194D01*
X275693Y497872D01*
Y495872D01*
X275194Y495373D01*
X274194D01*
X273694Y495872D01*
Y497872D01*
X276693Y494873D02*
X278693D01*
X281692Y497872D02*
X281192Y498372D01*
X280192D01*
X279692Y497872D01*
Y495872D01*
X280192Y495373D01*
X281192D01*
X281692Y495872D01*
X324859Y404387D02*
Y401388D01*
X326358D01*
X326858Y401888D01*
Y403887D01*
X326358Y404387D01*
X324859D01*
X329857Y401388D02*
X327858D01*
X329857Y403387D01*
Y403887D01*
X329357Y404387D01*
X328358D01*
X327858Y403887D01*
X330857Y400888D02*
X332856D01*
X333856Y404387D02*
Y401388D01*
X334855Y402388D01*
X335855Y401388D01*
Y404387D01*
X324859Y290706D02*
Y287707D01*
X326358D01*
X326858Y288207D01*
Y290206D01*
X326358Y290706D01*
X324859D01*
X329857Y287707D02*
X327858D01*
X329857Y289706D01*
Y290206D01*
X329357Y290706D01*
X328358D01*
X327858Y290206D01*
X330857Y287207D02*
X332856D01*
X333856Y287707D02*
Y290706D01*
X335355D01*
X335855Y290206D01*
Y289206D01*
X335355Y288706D01*
X333856D01*
X334855D02*
X335855Y287707D01*
X324859Y518068D02*
Y515069D01*
X326358D01*
X326858Y515569D01*
Y517568D01*
X326358Y518068D01*
X324859D01*
X329857Y515069D02*
X327858D01*
X329857Y517068D01*
Y517568D01*
X329357Y518068D01*
X328358D01*
X327858Y517568D01*
X330857Y514569D02*
X332856D01*
X335855Y517568D02*
X335355Y518068D01*
X334356D01*
X333856Y517568D01*
Y515569D01*
X334356Y515069D01*
X335355D01*
X335855Y515569D01*
X291989Y359775D02*
X291489Y359275D01*
Y358275D01*
X291989Y357776D01*
X293988D01*
X294488Y358275D01*
Y359275D01*
X293988Y359775D01*
X291989Y360775D02*
X291489Y361275D01*
Y362274D01*
X291989Y362774D01*
X292489D01*
X292989Y362274D01*
Y361774D01*
Y362274D01*
X293489Y362774D01*
X293988D01*
X294488Y362274D01*
Y361275D01*
X293988Y360775D01*
X291989Y363774D02*
X291489Y364274D01*
Y365273D01*
X291989Y365773D01*
X292489D01*
X292989Y365273D01*
X293489Y365773D01*
X293988D01*
X294488Y365273D01*
Y364274D01*
X293988Y363774D01*
X293489D01*
X292989Y364274D01*
X292489Y363774D01*
X291989D01*
X292989Y364274D02*
Y365273D01*
X294988Y366773D02*
Y368772D01*
X291489Y369772D02*
X294488D01*
X293489Y370771D01*
X294488Y371771D01*
X291489D01*
X291989Y246094D02*
X291489Y245594D01*
Y244594D01*
X291989Y244094D01*
X293988D01*
X294488Y244594D01*
Y245594D01*
X293988Y246094D01*
X291989Y247094D02*
X291489Y247593D01*
Y248593D01*
X291989Y249093D01*
X292489D01*
X292989Y248593D01*
Y248093D01*
Y248593D01*
X293489Y249093D01*
X293988D01*
X294488Y248593D01*
Y247593D01*
X293988Y247094D01*
X291989Y250093D02*
X291489Y250592D01*
Y251592D01*
X291989Y252092D01*
X292489D01*
X292989Y251592D01*
X293489Y252092D01*
X293988D01*
X294488Y251592D01*
Y250592D01*
X293988Y250093D01*
X293489D01*
X292989Y250592D01*
X292489Y250093D01*
X291989D01*
X292989Y250592D02*
Y251592D01*
X294988Y253092D02*
Y255091D01*
X294488Y256091D02*
X291489D01*
Y257590D01*
X291989Y258090D01*
X292989D01*
X293489Y257590D01*
Y256091D01*
Y257090D02*
X294488Y258090D01*
X291989Y473456D02*
X291489Y472956D01*
Y471956D01*
X291989Y471457D01*
X293988D01*
X294488Y471956D01*
Y472956D01*
X293988Y473456D01*
X291989Y474456D02*
X291489Y474956D01*
Y475955D01*
X291989Y476455D01*
X292489D01*
X292989Y475955D01*
Y475455D01*
Y475955D01*
X293489Y476455D01*
X293988D01*
X294488Y475955D01*
Y474956D01*
X293988Y474456D01*
X291989Y477455D02*
X291489Y477955D01*
Y478954D01*
X291989Y479454D01*
X292489D01*
X292989Y478954D01*
X293489Y479454D01*
X293988D01*
X294488Y478954D01*
Y477955D01*
X293988Y477455D01*
X293489D01*
X292989Y477955D01*
X292489Y477455D01*
X291989D01*
X292989Y477955D02*
Y478954D01*
X294988Y480454D02*
Y482453D01*
X291989Y485452D02*
X291489Y484952D01*
Y483953D01*
X291989Y483453D01*
X293988D01*
X294488Y483953D01*
Y484952D01*
X293988Y485452D01*
X249736Y440491D02*
X249236Y440991D01*
X248236D01*
X247736Y440491D01*
Y438492D01*
X248236Y437992D01*
X249236D01*
X249736Y438492D01*
X250735Y440491D02*
X251235Y440991D01*
X252235D01*
X252735Y440491D01*
Y439992D01*
X252235Y439492D01*
X251735D01*
X252235D01*
X252735Y438992D01*
Y438492D01*
X252235Y437992D01*
X251235D01*
X250735Y438492D01*
X253734Y440991D02*
X255734D01*
Y440491D01*
X253734Y438492D01*
Y437992D01*
X256733Y437492D02*
X258733D01*
X259732Y440991D02*
Y437992D01*
X260732Y438992D01*
X261732Y437992D01*
Y440991D01*
X249736Y326810D02*
X249236Y327310D01*
X248236D01*
X247736Y326810D01*
Y324811D01*
X248236Y324311D01*
X249236D01*
X249736Y324811D01*
X250735Y326810D02*
X251235Y327310D01*
X252235D01*
X252735Y326810D01*
Y326310D01*
X252235Y325811D01*
X251735D01*
X252235D01*
X252735Y325311D01*
Y324811D01*
X252235Y324311D01*
X251235D01*
X250735Y324811D01*
X253734Y327310D02*
X255734D01*
Y326810D01*
X253734Y324811D01*
Y324311D01*
X256733Y323811D02*
X258733D01*
X259732Y324311D02*
Y327310D01*
X261232D01*
X261732Y326810D01*
Y325811D01*
X261232Y325311D01*
X259732D01*
X260732D02*
X261732Y324311D01*
X249736Y554172D02*
X249236Y554672D01*
X248236D01*
X247736Y554172D01*
Y552173D01*
X248236Y551673D01*
X249236D01*
X249736Y552173D01*
X250735Y554172D02*
X251235Y554672D01*
X252235D01*
X252735Y554172D01*
Y553673D01*
X252235Y553173D01*
X251735D01*
X252235D01*
X252735Y552673D01*
Y552173D01*
X252235Y551673D01*
X251235D01*
X250735Y552173D01*
X253734Y554672D02*
X255734D01*
Y554172D01*
X253734Y552173D01*
Y551673D01*
X256733Y551173D02*
X258733D01*
X261732Y554172D02*
X261232Y554672D01*
X260232D01*
X259732Y554172D01*
Y552173D01*
X260232Y551673D01*
X261232D01*
X261732Y552173D01*
X563090Y190053D02*
X562090D01*
X562590D01*
Y187554D01*
X562090Y187054D01*
X561590D01*
X561090Y187554D01*
X564089Y189553D02*
X564589Y190053D01*
X565589D01*
X566088Y189553D01*
Y189053D01*
X565589Y188554D01*
X566088Y188054D01*
Y187554D01*
X565589Y187054D01*
X564589D01*
X564089Y187554D01*
Y188054D01*
X564589Y188554D01*
X564089Y189053D01*
Y189553D01*
X564589Y188554D02*
X565589D01*
X38614Y22389D02*
X37614D01*
X38114D01*
Y19890D01*
X37614Y19390D01*
X37114D01*
X36614Y19890D01*
X41612Y22389D02*
X39613D01*
Y20889D01*
X40613Y21389D01*
X41113D01*
X41612Y20889D01*
Y19890D01*
X41113Y19390D01*
X40113D01*
X39613Y19890D01*
X73228Y209941D02*
Y212940D01*
X74728D01*
X75228Y212440D01*
Y211440D01*
X74728Y210941D01*
X73228D01*
X74228D02*
X75228Y209941D01*
X76227D02*
X77227D01*
X76727D01*
Y212940D01*
X76227Y212440D01*
X80226Y209941D02*
Y212940D01*
X78727Y211440D01*
X80726D01*
X73228Y204429D02*
Y207428D01*
X74728D01*
X75228Y206928D01*
Y205929D01*
X74728Y205429D01*
X73228D01*
X74228D02*
X75228Y204429D01*
X76227D02*
X77227D01*
X76727D01*
Y207428D01*
X76227Y206928D01*
X78727D02*
X79226Y207428D01*
X80226D01*
X80726Y206928D01*
Y206429D01*
X80226Y205929D01*
X79726D01*
X80226D01*
X80726Y205429D01*
Y204929D01*
X80226Y204429D01*
X79226D01*
X78727Y204929D01*
X48819Y176083D02*
Y179082D01*
X50318D01*
X50818Y178582D01*
Y177582D01*
X50318Y177082D01*
X48819D01*
X49819D02*
X50818Y176083D01*
X51818D02*
X52818D01*
X52318D01*
Y179082D01*
X51818Y178582D01*
X54317D02*
X54817Y179082D01*
X55817D01*
X56317Y178582D01*
Y176583D01*
X55817Y176083D01*
X54817D01*
X54317Y176583D01*
Y178582D01*
X120850Y570082D02*
X119850D01*
X120350D01*
Y567583D01*
X119850Y567083D01*
X119350D01*
X118850Y567583D01*
X121849Y570082D02*
X123849D01*
Y569583D01*
X121849Y567583D01*
Y567083D01*
X188189Y169633D02*
Y167134D01*
X188689Y166634D01*
X189689D01*
X190188Y167134D01*
Y169633D01*
X193187D02*
X192188Y169133D01*
X191188Y168133D01*
Y167134D01*
X191688Y166634D01*
X192687D01*
X193187Y167134D01*
Y167633D01*
X192687Y168133D01*
X191188D01*
X50986Y286141D02*
X50486Y286641D01*
X49487D01*
X48987Y286141D01*
Y285641D01*
X49487Y285141D01*
X50486D01*
X50986Y284641D01*
Y284142D01*
X50486Y283642D01*
X49487D01*
X48987Y284142D01*
X53485Y283642D02*
Y286641D01*
X51986Y285141D01*
X53985D01*
X123622Y179626D02*
Y182625D01*
X125122D01*
X125621Y182125D01*
Y181125D01*
X125122Y180626D01*
X123622D01*
X124622D02*
X125621Y179626D01*
X126621Y182125D02*
X127121Y182625D01*
X128121D01*
X128620Y182125D01*
Y181625D01*
X128121Y181125D01*
X127621D01*
X128121D01*
X128620Y180626D01*
Y180126D01*
X128121Y179626D01*
X127121D01*
X126621Y180126D01*
X131620Y179626D02*
X129620D01*
X131620Y181625D01*
Y182125D01*
X131120Y182625D01*
X130120D01*
X129620Y182125D01*
X111811Y348917D02*
X108812D01*
Y350417D01*
X109312Y350917D01*
X110311D01*
X110811Y350417D01*
Y348917D01*
Y349917D02*
X111811Y350917D01*
Y351916D02*
Y352916D01*
Y352416D01*
X108812D01*
X109312Y351916D01*
X111811Y356415D02*
Y354415D01*
X109812Y356415D01*
X109312D01*
X108812Y355915D01*
Y354915D01*
X109312Y354415D01*
X59055Y99311D02*
Y102310D01*
X60555D01*
X61054Y101810D01*
Y100811D01*
X60555Y100311D01*
X59055D01*
X60055D02*
X61054Y99311D01*
X62054D02*
X63054D01*
X62554D01*
Y102310D01*
X62054Y101810D01*
X64553Y99311D02*
X65553D01*
X65053D01*
Y102310D01*
X64553Y101810D01*
X48819Y155610D02*
X45820D01*
Y157110D01*
X46320Y157610D01*
X47319D01*
X47819Y157110D01*
Y155610D01*
Y156610D02*
X48819Y157610D01*
X48319Y158609D02*
X48819Y159109D01*
Y160109D01*
X48319Y160609D01*
X46320D01*
X45820Y160109D01*
Y159109D01*
X46320Y158609D01*
X46819D01*
X47319Y159109D01*
Y160609D01*
X82677Y198524D02*
X85676D01*
Y197024D01*
X85176Y196524D01*
X84177D01*
X83677Y197024D01*
Y198524D01*
Y197524D02*
X82677Y196524D01*
X85176Y195525D02*
X85676Y195025D01*
Y194025D01*
X85176Y193525D01*
X84676D01*
X84177Y194025D01*
X83677Y193525D01*
X83177D01*
X82677Y194025D01*
Y195025D01*
X83177Y195525D01*
X83677D01*
X84177Y195025D01*
X84676Y195525D01*
X85176D01*
X84177Y195025D02*
Y194025D01*
X146563Y161879D02*
X148562D01*
X149062Y162378D01*
Y163378D01*
X148562Y163878D01*
X146563D01*
X146063Y163378D01*
Y162378D01*
X147063Y162878D02*
X146063Y161879D01*
Y162378D02*
X146563Y161879D01*
X148562Y160879D02*
X149062Y160379D01*
Y159379D01*
X148562Y158880D01*
X148062D01*
X147563Y159379D01*
X147063Y158880D01*
X146563D01*
X146063Y159379D01*
Y160379D01*
X146563Y160879D01*
X147063D01*
X147563Y160379D01*
X148062Y160879D01*
X148562D01*
X147563Y160379D02*
Y159379D01*
X90582Y94693D02*
Y96692D01*
X90082Y97192D01*
X89082D01*
X88583Y96692D01*
Y94693D01*
X89082Y94193D01*
X90082D01*
X89582Y95193D02*
X90582Y94193D01*
X90082D02*
X90582Y94693D01*
X91582Y96692D02*
X92081Y97192D01*
X93081D01*
X93581Y96692D01*
Y96192D01*
X93081Y95692D01*
X92581D01*
X93081D01*
X93581Y95193D01*
Y94693D01*
X93081Y94193D01*
X92081D01*
X91582Y94693D01*
X68141Y198236D02*
Y200235D01*
X67641Y200735D01*
X66642D01*
X66142Y200235D01*
Y198236D01*
X66642Y197736D01*
X67641D01*
X67141Y198736D02*
X68141Y197736D01*
X67641D02*
X68141Y198236D01*
X71140Y197736D02*
X69141D01*
X71140Y199736D01*
Y200235D01*
X70640Y200735D01*
X69641D01*
X69141Y200235D01*
X60267Y174220D02*
Y176220D01*
X59767Y176719D01*
X58768D01*
X58268Y176220D01*
Y174220D01*
X58768Y173721D01*
X59767D01*
X59267Y174720D02*
X60267Y173721D01*
X59767D02*
X60267Y174220D01*
X61267Y173721D02*
X62266D01*
X61767D01*
Y176719D01*
X61267Y176220D01*
X107245Y110809D02*
X108744Y108212D01*
X110476Y109212D01*
X111573Y113308D02*
X109842Y112309D01*
X111341Y109711D01*
X113073Y110711D01*
X110592Y111010D02*
X111457Y111510D01*
X112439Y113808D02*
X113939Y111211D01*
X115237Y111961D01*
X115420Y112643D01*
X114420Y114375D01*
X113738Y114558D01*
X112439Y113808D01*
X116536Y112710D02*
X117402Y113210D01*
X116969Y112960D01*
X115469Y115558D01*
X115286Y114875D01*
X120432Y114960D02*
X118700Y113960D01*
X119432Y116691D01*
X119182Y117124D01*
X118499Y117307D01*
X117633Y116807D01*
X117451Y116124D01*
X69843Y173014D02*
X71342Y170416D01*
X73074Y171416D01*
X74172Y175513D02*
X72440Y174513D01*
X73940Y171916D01*
X75671Y172916D01*
X73190Y173215D02*
X74056Y173714D01*
X75037Y176013D02*
X76537Y173416D01*
X77836Y174165D01*
X78018Y174848D01*
X77019Y176580D01*
X76336Y176763D01*
X75037Y176013D01*
X79134Y174915D02*
X80000Y175415D01*
X79567Y175165D01*
X78068Y177762D01*
X77885Y177079D01*
X81299Y176165D02*
X82164Y176664D01*
X81731Y176415D01*
X80232Y179012D01*
X80049Y178329D01*
X71661Y116715D02*
X70161Y114117D01*
X71893Y113118D01*
X75990Y114215D02*
X74258Y115215D01*
X72759Y112618D01*
X74490Y111618D01*
X73508Y113916D02*
X74374Y113417D01*
X76855Y113716D02*
X75356Y111118D01*
X76654Y110369D01*
X77337Y110552D01*
X78337Y112283D01*
X78154Y112966D01*
X76855Y113716D01*
X77953Y109619D02*
X78819Y109119D01*
X78386Y109369D01*
X79886Y111966D01*
X79203Y111783D01*
X81367Y110533D02*
X82050Y110716D01*
X82916Y110217D01*
X83099Y109534D01*
X82099Y107802D01*
X81416Y107619D01*
X80550Y108119D01*
X80367Y108802D01*
X81367Y110533D01*
X111349Y149157D02*
X108350D01*
Y147157D01*
X111349Y144158D02*
Y146158D01*
X108350D01*
Y144158D01*
X109850Y146158D02*
Y145158D01*
X111349Y143159D02*
X108350D01*
Y141659D01*
X108850Y141159D01*
X110850D01*
X111349Y141659D01*
Y143159D01*
X108850Y140160D02*
X108350Y139660D01*
Y138660D01*
X108850Y138160D01*
X110850D01*
X111349Y138660D01*
Y139660D01*
X110850Y140160D01*
X110350D01*
X109850Y139660D01*
Y138160D01*
X112212Y178919D02*
X110713Y176322D01*
X112444Y175322D01*
X116541Y176420D02*
X114809Y177420D01*
X113310Y174822D01*
X115041Y173823D01*
X114060Y176121D02*
X114925Y175621D01*
X117407Y175920D02*
X115907Y173323D01*
X117206Y172573D01*
X117888Y172756D01*
X118888Y174488D01*
X118705Y175171D01*
X117407Y175920D01*
X119754Y173988D02*
X120437Y174171D01*
X121302Y173671D01*
X121485Y172988D01*
X121235Y172555D01*
X120553Y172372D01*
X120736Y171690D01*
X120486Y171257D01*
X119803Y171074D01*
X118937Y171574D01*
X118754Y172256D01*
X119004Y172689D01*
X119687Y172872D01*
X119504Y173555D01*
X119754Y173988D01*
X119687Y172872D02*
X120553Y172372D01*
X55838Y147188D02*
X52839D01*
Y145189D01*
X55838Y142190D02*
Y144189D01*
X52839D01*
Y142190D01*
X54338Y144189D02*
Y143190D01*
X55838Y141190D02*
X52839D01*
Y139691D01*
X53338Y139191D01*
X55338D01*
X55838Y139691D01*
Y141190D01*
Y138191D02*
Y136192D01*
X55338D01*
X53338Y138191D01*
X52839D01*
X50318Y124672D02*
X47720Y123172D01*
X48720Y121441D01*
X52817Y120343D02*
X51817Y122075D01*
X49220Y120575D01*
X50220Y118844D01*
X50519Y121325D02*
X51018Y120459D01*
X53317Y119477D02*
X50719Y117978D01*
X51469Y116679D01*
X52152Y116496D01*
X53883Y117496D01*
X54066Y118179D01*
X53317Y119477D01*
X55816Y115149D02*
X54883Y115765D01*
X53518Y116130D01*
X52652Y115631D01*
X52469Y114948D01*
X52969Y114082D01*
X53651Y113899D01*
X54084Y114149D01*
X54267Y114832D01*
X53518Y116130D01*
X134176Y126791D02*
X131579Y128291D01*
X130579Y126559D01*
X131677Y122462D02*
X132676Y124194D01*
X130079Y125693D01*
X129079Y123962D01*
X131378Y124944D02*
X130878Y124078D01*
X131177Y121597D02*
X128580Y123096D01*
X127830Y121798D01*
X128013Y121115D01*
X129744Y120115D01*
X130427Y120298D01*
X131177Y121597D01*
X128678Y117268D02*
X129677Y118999D01*
X128379Y119749D01*
X128312Y118633D01*
X128062Y118201D01*
X127379Y118018D01*
X126513Y118517D01*
X126330Y119200D01*
X126830Y120066D01*
X127513Y120249D01*
X210873Y238681D02*
X207874D01*
Y236682D01*
X210873Y233683D02*
Y235682D01*
X207874D01*
Y233683D01*
X209373Y235682D02*
Y234682D01*
X210873Y232683D02*
X207874D01*
Y231184D01*
X208374Y230684D01*
X210373D01*
X210873Y231184D01*
Y232683D01*
X207874Y228185D02*
X210873D01*
X209373Y229684D01*
Y227685D01*
X90551Y195617D02*
Y192618D01*
X92550D01*
X95550Y195617D02*
X93550D01*
Y192618D01*
X95550D01*
X93550Y194118D02*
X94550D01*
X96549Y195617D02*
Y192618D01*
X98049D01*
X98549Y193118D01*
Y195117D01*
X98049Y195617D01*
X96549D01*
X101548Y192618D02*
X99548D01*
X101548Y194617D01*
Y195117D01*
X101048Y195617D01*
X100048D01*
X99548Y195117D01*
X-3869Y366657D02*
Y365658D01*
Y366158D01*
X-1370D01*
X-870Y365658D01*
Y365158D01*
X-1370Y364658D01*
X-3869Y369657D02*
X-3370Y368657D01*
X-2370Y367657D01*
X-1370D01*
X-870Y368157D01*
Y369157D01*
X-1370Y369657D01*
X-1870D01*
X-2370Y369157D01*
Y367657D01*
X170866Y243799D02*
X173865D01*
Y242300D01*
X173365Y241800D01*
X172366D01*
X171866Y242300D01*
Y243799D01*
Y242799D02*
X170866Y241800D01*
Y240800D02*
Y239801D01*
Y240300D01*
X173865D01*
X173365Y240800D01*
X173865Y238301D02*
Y236302D01*
X173365D01*
X171366Y238301D01*
X170866D01*
X176772Y276870D02*
Y279869D01*
X178271D01*
X178771Y279369D01*
Y278370D01*
X178271Y277870D01*
X176772D01*
X177771D02*
X178771Y276870D01*
X179771D02*
X180770D01*
X180271D01*
Y279869D01*
X179771Y279369D01*
X184269Y279869D02*
X183270Y279369D01*
X182270Y278370D01*
Y277370D01*
X182770Y276870D01*
X183769D01*
X184269Y277370D01*
Y277870D01*
X183769Y278370D01*
X182270D01*
X178771Y284094D02*
X178271Y284594D01*
X177271D01*
X176772Y284094D01*
Y282094D01*
X177271Y281594D01*
X178271D01*
X178771Y282094D01*
X179771Y284094D02*
X180271Y284594D01*
X181270D01*
X181770Y284094D01*
Y283594D01*
X181270Y283094D01*
X180770D01*
X181270D01*
X181770Y282594D01*
Y282094D01*
X181270Y281594D01*
X180271D01*
X179771Y282094D01*
X182770Y281594D02*
X183769D01*
X183270D01*
Y284594D01*
X182770Y284094D01*
X119658Y235309D02*
Y234809D01*
X120658Y233809D01*
X121658Y234809D01*
Y235309D01*
X120658Y233809D02*
Y232310D01*
X122657D02*
X123657D01*
X123157D01*
Y235309D01*
X122657Y234809D01*
X183858Y263334D02*
Y260835D01*
X184358Y260335D01*
X185358D01*
X185858Y260835D01*
Y263334D01*
X186857D02*
X188857D01*
Y262834D01*
X186857Y260835D01*
Y260335D01*
X93701Y347192D02*
Y344693D01*
X94201Y344193D01*
X95200D01*
X95700Y344693D01*
Y347192D01*
X98699D02*
X96700D01*
Y345692D01*
X97699Y346192D01*
X98199D01*
X98699Y345692D01*
Y344693D01*
X98199Y344193D01*
X97200D01*
X96700Y344693D01*
X81496Y148767D02*
Y146268D01*
X81996Y145768D01*
X82996D01*
X83495Y146268D01*
Y148767D01*
X86494Y145768D02*
X84495D01*
X86494Y147767D01*
Y148267D01*
X85995Y148767D01*
X84995D01*
X84495Y148267D01*
X270079Y57034D02*
Y54535D01*
X270579Y54035D01*
X271578D01*
X272078Y54535D01*
Y57034D01*
X273078Y54035D02*
X274077D01*
X273578D01*
Y57034D01*
X273078Y56535D01*
X43170Y240287D02*
X42670Y239787D01*
Y238787D01*
X43170Y238287D01*
X43670D01*
X44170Y238787D01*
Y239787D01*
X44670Y240287D01*
X45169D01*
X45669Y239787D01*
Y238787D01*
X45169Y238287D01*
X45669Y243286D02*
Y241286D01*
X43670Y243286D01*
X43170D01*
X42670Y242786D01*
Y241786D01*
X43170Y241286D01*
X29784Y241074D02*
X29284Y240574D01*
Y239575D01*
X29784Y239075D01*
X30284D01*
X30784Y239575D01*
Y240574D01*
X31284Y241074D01*
X31784D01*
X32283Y240574D01*
Y239575D01*
X31784Y239075D01*
X32283Y242074D02*
Y243074D01*
Y242574D01*
X29284D01*
X29784Y242074D01*
X24016Y291831D02*
Y288832D01*
X22516D01*
X22016Y289332D01*
Y290331D01*
X22516Y290831D01*
X24016D01*
X23016D02*
X22016Y291831D01*
X21017Y288832D02*
X19017D01*
Y289332D01*
X21017Y291331D01*
Y291831D01*
X7487Y263305D02*
X4488D01*
Y264805D01*
X4988Y265305D01*
X5988D01*
X6488Y264805D01*
Y263305D01*
Y264305D02*
X7487Y265305D01*
X4488Y268304D02*
X4988Y267304D01*
X5988Y266305D01*
X6988D01*
X7487Y266804D01*
Y267804D01*
X6988Y268304D01*
X6488D01*
X5988Y267804D01*
Y266305D01*
X203937Y266240D02*
X200938D01*
Y267740D01*
X201438Y268239D01*
X202437D01*
X202937Y267740D01*
Y266240D01*
Y267240D02*
X203937Y268239D01*
X201438Y269239D02*
X200938Y269739D01*
Y270739D01*
X201438Y271238D01*
X201938D01*
X202437Y270739D01*
Y270239D01*
Y270739D01*
X202937Y271238D01*
X203437D01*
X203937Y270739D01*
Y269739D01*
X203437Y269239D01*
X31890Y287500D02*
Y290499D01*
X33389D01*
X33889Y289999D01*
Y289000D01*
X33389Y288500D01*
X31890D01*
X32889D02*
X33889Y287500D01*
X36888D02*
X34889D01*
X36888Y289499D01*
Y289999D01*
X36388Y290499D01*
X35389D01*
X34889Y289999D01*
X194750Y67313D02*
X191751D01*
Y68813D01*
X192250Y69313D01*
X193250D01*
X193750Y68813D01*
Y67313D01*
Y68313D02*
X194750Y69313D01*
Y70312D02*
Y71312D01*
Y70812D01*
X191751D01*
X192250Y70312D01*
X4488Y247951D02*
X7487D01*
Y249951D01*
X4488Y252950D02*
Y250950D01*
X7487D01*
Y252950D01*
X5988Y250950D02*
Y251950D01*
X4488Y253949D02*
X7487D01*
Y255449D01*
X6988Y255949D01*
X4988D01*
X4488Y255449D01*
Y253949D01*
X7487Y256948D02*
Y257948D01*
Y257448D01*
X4488D01*
X4988Y256948D01*
X6102Y297713D02*
Y296713D01*
Y297213D01*
X8601D01*
X9101Y296713D01*
Y296213D01*
X8601Y295713D01*
X9101Y300212D02*
X6102D01*
X7602Y298712D01*
Y300712D01*
X28771Y346405D02*
X27771D01*
X28271D01*
Y343905D01*
X27771Y343406D01*
X27272D01*
X26772Y343905D01*
X29771Y345905D02*
X30270Y346405D01*
X31270D01*
X31770Y345905D01*
Y345405D01*
X31270Y344905D01*
X30770D01*
X31270D01*
X31770Y344405D01*
Y343905D01*
X31270Y343406D01*
X30270D01*
X29771Y343905D01*
X29165Y370027D02*
X28165D01*
X28665D01*
Y367527D01*
X28165Y367028D01*
X27665D01*
X27165Y367527D01*
X32164Y367028D02*
X30164D01*
X32164Y369027D01*
Y369527D01*
X31664Y370027D01*
X30664D01*
X30164Y369527D01*
X30346Y394830D02*
X29346D01*
X29846D01*
Y392331D01*
X29346Y391831D01*
X28846D01*
X28346Y392331D01*
X31345Y391831D02*
X32345D01*
X31845D01*
Y394830D01*
X31345Y394330D01*
X204468Y259123D02*
X204967Y259623D01*
Y260622D01*
X204468Y261122D01*
X202468D01*
X201969Y260622D01*
Y259623D01*
X202468Y259123D01*
X204468Y258123D02*
X204967Y257623D01*
Y256624D01*
X204468Y256124D01*
X203968D01*
X203468Y256624D01*
Y257123D01*
Y256624D01*
X202968Y256124D01*
X202468D01*
X201969Y256624D01*
Y257623D01*
X202468Y258123D01*
X201969Y253125D02*
Y255124D01*
X203968Y253125D01*
X204468D01*
X204967Y253625D01*
Y254624D01*
X204468Y255124D01*
X178377Y224645D02*
X177877Y225145D01*
X176878D01*
X176378Y224645D01*
Y222645D01*
X176878Y222146D01*
X177877D01*
X178377Y222645D01*
X179377Y224645D02*
X179877Y225145D01*
X180877D01*
X181376Y224645D01*
Y224145D01*
X180877Y223645D01*
X180377D01*
X180877D01*
X181376Y223145D01*
Y222645D01*
X180877Y222146D01*
X179877D01*
X179377Y222645D01*
X182376Y224645D02*
X182876Y225145D01*
X183876D01*
X184375Y224645D01*
Y222645D01*
X183876Y222146D01*
X182876D01*
X182376Y222645D01*
Y224645D01*
X114009Y242161D02*
X113510Y241661D01*
Y240661D01*
X114009Y240161D01*
X116009D01*
X116509Y240661D01*
Y241661D01*
X116009Y242161D01*
X116509Y245160D02*
Y243160D01*
X114509Y245160D01*
X114009D01*
X113510Y244660D01*
Y243660D01*
X114009Y243160D01*
X116009Y246160D02*
X116509Y246659D01*
Y247659D01*
X116009Y248159D01*
X114009D01*
X113510Y247659D01*
Y246659D01*
X114009Y246160D01*
X114509D01*
X115009Y246659D01*
Y248159D01*
X152986Y229606D02*
X152486Y229107D01*
Y228107D01*
X152986Y227607D01*
X154985D01*
X155485Y228107D01*
Y229107D01*
X154985Y229606D01*
X155485Y232606D02*
Y230606D01*
X153486Y232606D01*
X152986D01*
X152486Y232106D01*
Y231106D01*
X152986Y230606D01*
Y233605D02*
X152486Y234105D01*
Y235105D01*
X152986Y235605D01*
X153486D01*
X153986Y235105D01*
X154485Y235605D01*
X154985D01*
X155485Y235105D01*
Y234105D01*
X154985Y233605D01*
X154485D01*
X153986Y234105D01*
X153486Y233605D01*
X152986D01*
X153986Y234105D02*
Y235105D01*
X122751Y374866D02*
X122251Y374366D01*
Y373366D01*
X122751Y372866D01*
X124750D01*
X125250Y373366D01*
Y374366D01*
X124750Y374866D01*
X125250Y377865D02*
Y375865D01*
X123251Y377865D01*
X122751D01*
X122251Y377365D01*
Y376365D01*
X122751Y375865D01*
X122251Y378864D02*
Y380863D01*
X122751D01*
X124750Y378864D01*
X125250D01*
X129376Y374472D02*
X128876Y373972D01*
Y372972D01*
X129376Y372472D01*
X131375D01*
X131875Y372972D01*
Y373972D01*
X131375Y374472D01*
X131875Y377471D02*
Y375471D01*
X129876Y377471D01*
X129376D01*
X128876Y376971D01*
Y375971D01*
X129376Y375471D01*
X128876Y380470D02*
X129376Y379470D01*
X130375Y378470D01*
X131375D01*
X131875Y378970D01*
Y379970D01*
X131375Y380470D01*
X130875D01*
X130375Y379970D01*
Y378470D01*
X118020Y266174D02*
X117521Y265674D01*
Y264675D01*
X118020Y264175D01*
X120020D01*
X120520Y264675D01*
Y265674D01*
X120020Y266174D01*
X120520Y269173D02*
Y267174D01*
X118520Y269173D01*
X118020D01*
X117521Y268673D01*
Y267674D01*
X118020Y267174D01*
X117521Y272172D02*
Y270173D01*
X119020D01*
X118520Y271172D01*
Y271672D01*
X119020Y272172D01*
X120020D01*
X120520Y271672D01*
Y270673D01*
X120020Y270173D01*
X136477Y268239D02*
X135977Y267740D01*
Y266740D01*
X136477Y266240D01*
X138477D01*
X138976Y266740D01*
Y267740D01*
X138477Y268239D01*
X138976Y271238D02*
Y269239D01*
X136977Y271238D01*
X136477D01*
X135977Y270739D01*
Y269739D01*
X136477Y269239D01*
X138976Y273738D02*
X135977D01*
X137477Y272238D01*
Y274238D01*
X136088Y374463D02*
X135588Y373963D01*
Y372964D01*
X136088Y372464D01*
X138088D01*
X138587Y372964D01*
Y373963D01*
X138088Y374463D01*
X138587Y377462D02*
Y375463D01*
X136588Y377462D01*
X136088D01*
X135588Y376962D01*
Y375963D01*
X136088Y375463D01*
Y378462D02*
X135588Y378962D01*
Y379961D01*
X136088Y380461D01*
X136588D01*
X137088Y379961D01*
Y379462D01*
Y379961D01*
X137588Y380461D01*
X138088D01*
X138587Y379961D01*
Y378962D01*
X138088Y378462D01*
X172078Y293936D02*
X171578Y294436D01*
X170579D01*
X170079Y293936D01*
Y291937D01*
X170579Y291437D01*
X171578D01*
X172078Y291937D01*
X175077Y291437D02*
X173078D01*
X175077Y293436D01*
Y293936D01*
X174577Y294436D01*
X173578D01*
X173078Y293936D01*
X178076Y291437D02*
X176077D01*
X178076Y293436D01*
Y293936D01*
X177576Y294436D01*
X176577D01*
X176077Y293936D01*
X162461Y265484D02*
X161962Y264984D01*
Y263984D01*
X162461Y263484D01*
X164461D01*
X164961Y263984D01*
Y264984D01*
X164461Y265484D01*
X164961Y268483D02*
Y266483D01*
X162961Y268483D01*
X162461D01*
X161962Y267983D01*
Y266983D01*
X162461Y266483D01*
X164961Y269482D02*
Y270482D01*
Y269982D01*
X161962D01*
X162461Y269482D01*
X141763Y263228D02*
X141263Y263727D01*
X140264D01*
X139764Y263228D01*
Y261228D01*
X140264Y260728D01*
X141263D01*
X141763Y261228D01*
X144762Y260728D02*
X142763D01*
X144762Y262728D01*
Y263228D01*
X144262Y263727D01*
X143263D01*
X142763Y263228D01*
X145762D02*
X146262Y263727D01*
X147261D01*
X147761Y263228D01*
Y261228D01*
X147261Y260728D01*
X146262D01*
X145762Y261228D01*
Y263228D01*
X102619Y372188D02*
X102119Y371689D01*
Y370689D01*
X102619Y370189D01*
X104618D01*
X105118Y370689D01*
Y371689D01*
X104618Y372188D01*
X105118Y373188D02*
Y374188D01*
Y373688D01*
X102119D01*
X102619Y373188D01*
X104618Y375687D02*
X105118Y376187D01*
Y377187D01*
X104618Y377687D01*
X102619D01*
X102119Y377187D01*
Y376187D01*
X102619Y375687D01*
X103119D01*
X103619Y376187D01*
Y377687D01*
X91606Y273827D02*
X90899Y273827D01*
X90192Y273120D01*
Y272413D01*
X91606Y270999D01*
X92313D01*
X93020Y271706D01*
X93020Y272413D01*
X94080Y272766D02*
X94787Y273473D01*
X94433Y273120D01*
X92313Y275240D01*
Y274534D01*
X94080Y276301D02*
Y277008D01*
X94787Y277714D01*
X95494D01*
X95847Y277361D01*
Y276654D01*
X96554Y276654D01*
X96908Y276301D01*
X96908Y275594D01*
X96201Y274887D01*
X95494D01*
X95140Y275240D01*
Y275947D01*
X94433Y275947D01*
X94080Y276301D01*
X95140Y275947D02*
X95847Y276654D01*
X165385Y343543D02*
X164885Y344042D01*
X163886D01*
X163386Y343543D01*
Y341543D01*
X163886Y341043D01*
X164885D01*
X165385Y341543D01*
X166385Y341043D02*
X167385D01*
X166885D01*
Y344042D01*
X166385Y343543D01*
X168884Y344042D02*
X170883D01*
Y343543D01*
X168884Y341543D01*
Y341043D01*
X196756Y317380D02*
X196256Y316881D01*
Y315881D01*
X196756Y315381D01*
X198755D01*
X199255Y315881D01*
Y316881D01*
X198755Y317380D01*
X199255Y318380D02*
Y319380D01*
Y318880D01*
X196256D01*
X196756Y318380D01*
X196256Y322879D02*
X196756Y321879D01*
X197756Y320879D01*
X198755D01*
X199255Y321379D01*
Y322379D01*
X198755Y322879D01*
X198255D01*
X197756Y322379D01*
Y320879D01*
X172078Y299054D02*
X171578Y299554D01*
X170579D01*
X170079Y299054D01*
Y297055D01*
X170579Y296555D01*
X171578D01*
X172078Y297055D01*
X173078Y296555D02*
X174077D01*
X173578D01*
Y299554D01*
X173078Y299054D01*
X177576Y299554D02*
X175577D01*
Y298055D01*
X176577Y298554D01*
X177076D01*
X177576Y298055D01*
Y297055D01*
X177076Y296555D01*
X176077D01*
X175577Y297055D01*
X172078Y303779D02*
X171578Y304279D01*
X170579D01*
X170079Y303779D01*
Y301779D01*
X170579Y301279D01*
X171578D01*
X172078Y301779D01*
X173078Y301279D02*
X174077D01*
X173578D01*
Y304279D01*
X173078Y303779D01*
X177076Y301279D02*
Y304279D01*
X175577Y302779D01*
X177576D01*
X22410Y283032D02*
X22910Y282533D01*
X23910D01*
X24409Y283032D01*
Y285032D01*
X23910Y285531D01*
X22910D01*
X22410Y285032D01*
X21410Y285531D02*
X20411D01*
X20911D01*
Y282533D01*
X21410Y283032D01*
X18911D02*
X18411Y282533D01*
X17412D01*
X16912Y283032D01*
Y283532D01*
X17412Y284032D01*
X17911D01*
X17412D01*
X16912Y284532D01*
Y285032D01*
X17412Y285531D01*
X18411D01*
X18911Y285032D01*
X4634Y328028D02*
X4134Y327528D01*
Y326528D01*
X4634Y326028D01*
X6633D01*
X7133Y326528D01*
Y327528D01*
X6633Y328028D01*
X7133Y329027D02*
Y330027D01*
Y329527D01*
X4134D01*
X4634Y329027D01*
X7133Y333526D02*
Y331527D01*
X5133Y333526D01*
X4634D01*
X4134Y333026D01*
Y332027D01*
X4634Y331527D01*
X116792Y374932D02*
X116292Y374433D01*
Y373433D01*
X116792Y372933D01*
X118791D01*
X119291Y373433D01*
Y374433D01*
X118791Y374932D01*
X116292Y377931D02*
Y375932D01*
X117792D01*
X117292Y376932D01*
Y377432D01*
X117792Y377931D01*
X118791D01*
X119291Y377432D01*
Y376432D01*
X118791Y375932D01*
X26803Y404172D02*
X26303Y404672D01*
X25303D01*
X24803Y404172D01*
Y402173D01*
X25303Y401673D01*
X26303D01*
X26803Y402173D01*
X29302Y401673D02*
Y404672D01*
X27802Y403173D01*
X29801D01*
X27590Y356141D02*
X27090Y356641D01*
X26090D01*
X25591Y356141D01*
Y354142D01*
X26090Y353642D01*
X27090D01*
X27590Y354142D01*
X28590Y356141D02*
X29089Y356641D01*
X30089D01*
X30589Y356141D01*
Y355641D01*
X30089Y355141D01*
X29589D01*
X30089D01*
X30589Y354641D01*
Y354142D01*
X30089Y353642D01*
X29089D01*
X28590Y354142D01*
X31754Y379270D02*
X31254Y378770D01*
Y377770D01*
X31754Y377270D01*
X33753D01*
X34253Y377770D01*
Y378770D01*
X33753Y379270D01*
X34253Y382269D02*
Y380269D01*
X32253Y382269D01*
X31754D01*
X31254Y381769D01*
Y380769D01*
X31754Y380269D01*
X243341Y51428D02*
X243841Y50928D01*
X244840D01*
X245340Y51428D01*
Y53428D01*
X244840Y53928D01*
X243841D01*
X243341Y53428D01*
X242341Y53928D02*
X241341D01*
X241841D01*
Y50928D01*
X242341Y51428D01*
X297381Y52824D02*
X297881Y53323D01*
Y54323D01*
X297381Y54823D01*
X295382D01*
X294882Y54323D01*
Y53323D01*
X295382Y52824D01*
X297881Y49825D02*
X297381Y50824D01*
X296381Y51824D01*
X295382D01*
X294882Y51324D01*
Y50324D01*
X295382Y49825D01*
X295882D01*
X296381Y50324D01*
Y51824D01*
X288326Y53217D02*
X288826Y53717D01*
Y54717D01*
X288326Y55216D01*
X286327D01*
X285827Y54717D01*
Y53717D01*
X286327Y53217D01*
X288826Y52218D02*
Y50218D01*
X288326D01*
X286327Y52218D01*
X285827D01*
X192644Y59175D02*
X192144Y58675D01*
Y57675D01*
X192644Y57176D01*
X194643D01*
X195143Y57675D01*
Y58675D01*
X194643Y59175D01*
X192644Y60175D02*
X192144Y60675D01*
Y61674D01*
X192644Y62174D01*
X193144D01*
X193644Y61674D01*
X194144Y62174D01*
X194643D01*
X195143Y61674D01*
Y60675D01*
X194643Y60175D01*
X194144D01*
X193644Y60675D01*
X193144Y60175D01*
X192644D01*
X193644Y60675D02*
Y61674D01*
X127393Y15796D02*
X126893Y16296D01*
X125893D01*
X125394Y15796D01*
Y13797D01*
X125893Y13297D01*
X126893D01*
X127393Y13797D01*
X128393D02*
X128893Y13297D01*
X129892D01*
X130392Y13797D01*
Y15796D01*
X129892Y16296D01*
X128893D01*
X128393Y15796D01*
Y15296D01*
X128893Y14796D01*
X130392D01*
X113057Y15599D02*
X112557Y16099D01*
X111557D01*
X111057Y15599D01*
Y13600D01*
X111557Y13100D01*
X112557D01*
X113057Y13600D01*
X114057Y13100D02*
X115056D01*
X114556D01*
Y16099D01*
X114057Y15599D01*
X116556D02*
X117055Y16099D01*
X118055D01*
X118555Y15599D01*
Y13600D01*
X118055Y13100D01*
X117055D01*
X116556Y13600D01*
Y15599D01*
X100818Y14802D02*
X100318Y15302D01*
X99319D01*
X98819Y14802D01*
Y12803D01*
X99319Y12303D01*
X100318D01*
X100818Y12803D01*
X101818Y12303D02*
X102818D01*
X102318D01*
Y15302D01*
X101818Y14802D01*
X104317Y12303D02*
X105317D01*
X104817D01*
Y15302D01*
X104317Y14802D01*
X256724Y46692D02*
X256224Y47192D01*
X255224D01*
X254724Y46692D01*
Y44693D01*
X255224Y44193D01*
X256224D01*
X256724Y44693D01*
X257723Y46692D02*
X258223Y47192D01*
X259223D01*
X259723Y46692D01*
Y46192D01*
X259223Y45692D01*
X258723D01*
X259223D01*
X259723Y45193D01*
Y44693D01*
X259223Y44193D01*
X258223D01*
X257723Y44693D01*
X260722Y46692D02*
X261222Y47192D01*
X262222D01*
X262722Y46692D01*
Y46192D01*
X262222Y45692D01*
X261722D01*
X262222D01*
X262722Y45193D01*
Y44693D01*
X262222Y44193D01*
X261222D01*
X260722Y44693D01*
X286520Y86968D02*
X287020Y87467D01*
Y88467D01*
X286520Y88967D01*
X284521D01*
X284021Y88467D01*
Y87467D01*
X284521Y86968D01*
X286520Y85968D02*
X287020Y85468D01*
Y84468D01*
X286520Y83969D01*
X286021D01*
X285521Y84468D01*
Y84968D01*
Y84468D01*
X285021Y83969D01*
X284521D01*
X284021Y84468D01*
Y85468D01*
X284521Y85968D01*
X284021Y81469D02*
X287020D01*
X285521Y82969D01*
Y80970D01*
X232711Y84794D02*
X233211Y84295D01*
X234210D01*
X234710Y84794D01*
Y86794D01*
X234210Y87294D01*
X233211D01*
X232711Y86794D01*
X231711Y84794D02*
X231211Y84295D01*
X230212D01*
X229712Y84794D01*
Y85294D01*
X230212Y85794D01*
X230712D01*
X230212D01*
X229712Y86294D01*
Y86794D01*
X230212Y87294D01*
X231211D01*
X231711Y86794D01*
X226713Y84295D02*
X228712D01*
Y85794D01*
X227712Y85294D01*
X227213D01*
X226713Y85794D01*
Y86794D01*
X227213Y87294D01*
X228212D01*
X228712Y86794D01*
X264994Y92964D02*
X265494Y92464D01*
X266494D01*
X266994Y92964D01*
Y94963D01*
X266494Y95463D01*
X265494D01*
X264994Y94963D01*
X263995Y92964D02*
X263495Y92464D01*
X262495D01*
X261995Y92964D01*
Y93464D01*
X262495Y93963D01*
X262995D01*
X262495D01*
X261995Y94463D01*
Y94963D01*
X262495Y95463D01*
X263495D01*
X263995Y94963D01*
X258996Y92464D02*
X259996Y92964D01*
X260996Y93963D01*
Y94963D01*
X260496Y95463D01*
X259496D01*
X258996Y94963D01*
Y94463D01*
X259496Y93963D01*
X260996D01*
X193957Y156822D02*
X193458Y156322D01*
Y155323D01*
X193957Y154823D01*
X195957D01*
X196457Y155323D01*
Y156322D01*
X195957Y156822D01*
X193957Y157822D02*
X193458Y158322D01*
Y159321D01*
X193957Y159821D01*
X194457D01*
X194957Y159321D01*
Y158822D01*
Y159321D01*
X195457Y159821D01*
X195957D01*
X196457Y159321D01*
Y158322D01*
X195957Y157822D01*
Y160821D02*
X196457Y161321D01*
Y162320D01*
X195957Y162820D01*
X193957D01*
X193458Y162320D01*
Y161321D01*
X193957Y160821D01*
X194457D01*
X194957Y161321D01*
Y162820D01*
X202665Y77790D02*
Y74791D01*
X204164D01*
X204664Y75291D01*
Y77290D01*
X204164Y77790D01*
X202665D01*
X205664Y74791D02*
X206663D01*
X206163D01*
Y77790D01*
X205664Y77290D01*
X275440Y226052D02*
Y227051D01*
Y226552D01*
X272941D01*
X272441Y227051D01*
Y227551D01*
X272941Y228051D01*
Y225052D02*
X272441Y224552D01*
Y223553D01*
X272941Y223053D01*
X274940D01*
X275440Y223553D01*
Y224552D01*
X274940Y225052D01*
X274440D01*
X273940Y224552D01*
Y223053D01*
X141065Y74390D02*
Y71391D01*
X143064D01*
X144064D02*
X145063D01*
X144563D01*
Y74390D01*
X144064Y73891D01*
X488342Y562895D02*
Y559897D01*
X490342D01*
X493341Y562895D02*
X491341D01*
Y559897D01*
X493341D01*
X491341Y561396D02*
X492341D01*
X494340Y562895D02*
Y559897D01*
X495840D01*
X496340Y560396D01*
Y562396D01*
X495840Y562895D01*
X494340D01*
X497339Y562396D02*
X497839Y562895D01*
X498839D01*
X499339Y562396D01*
Y561896D01*
X498839Y561396D01*
X498339D01*
X498839D01*
X499339Y560896D01*
Y560396D01*
X498839Y559897D01*
X497839D01*
X497339Y560396D01*
X514918Y562895D02*
Y559897D01*
X516918D01*
X519917Y562895D02*
X517917D01*
Y559897D01*
X519917D01*
X517917Y561396D02*
X518917D01*
X520917Y562895D02*
Y559897D01*
X522416D01*
X522916Y560396D01*
Y562396D01*
X522416Y562895D01*
X520917D01*
X523915Y559897D02*
X524915D01*
X524415D01*
Y562895D01*
X523915Y562396D01*
X526415D02*
X526915Y562895D01*
X527914D01*
X528414Y562396D01*
Y561896D01*
X527914Y561396D01*
X527414D01*
X527914D01*
X528414Y560896D01*
Y560396D01*
X527914Y559897D01*
X526915D01*
X526415Y560396D01*
X541495Y562895D02*
Y559897D01*
X543494D01*
X546493Y562895D02*
X544494D01*
Y559897D01*
X546493D01*
X544494Y561396D02*
X545493D01*
X547493Y562895D02*
Y559897D01*
X548992D01*
X549492Y560396D01*
Y562396D01*
X548992Y562895D01*
X547493D01*
X550492Y559897D02*
X551491D01*
X550991D01*
Y562895D01*
X550492Y562396D01*
X554490Y559897D02*
Y562895D01*
X552991Y561396D01*
X554990D01*
X568071Y562895D02*
Y559897D01*
X570070D01*
X573069Y562895D02*
X571070D01*
Y559897D01*
X573069D01*
X571070Y561396D02*
X572069D01*
X574069Y562895D02*
Y559897D01*
X575568D01*
X576068Y560396D01*
Y562396D01*
X575568Y562895D01*
X574069D01*
X577068Y559897D02*
X578067D01*
X577568D01*
Y562895D01*
X577068Y562396D01*
X581566Y562895D02*
X579567D01*
Y561396D01*
X580567Y561896D01*
X581066D01*
X581566Y561396D01*
Y560396D01*
X581066Y559897D01*
X580067D01*
X579567Y560396D01*
X594647Y562895D02*
Y559897D01*
X596646D01*
X599645Y562895D02*
X597646D01*
Y559897D01*
X599645D01*
X597646Y561396D02*
X598645D01*
X600645Y562895D02*
Y559897D01*
X602144D01*
X602644Y560396D01*
Y562396D01*
X602144Y562895D01*
X600645D01*
X603644Y559897D02*
X604643D01*
X604144D01*
Y562895D01*
X603644Y562396D01*
X608142Y562895D02*
X607143Y562396D01*
X606143Y561396D01*
Y560396D01*
X606643Y559897D01*
X607643D01*
X608142Y560396D01*
Y560896D01*
X607643Y561396D01*
X606143D01*
X488374Y518728D02*
Y515729D01*
X490374D01*
X493373Y518728D02*
X491373D01*
Y515729D01*
X493373D01*
X491373Y517229D02*
X492373D01*
X494372Y518728D02*
Y515729D01*
X495872D01*
X496372Y516229D01*
Y518228D01*
X495872Y518728D01*
X494372D01*
X497371Y515729D02*
X498371D01*
X497871D01*
Y518728D01*
X497371Y518228D01*
X499870Y518728D02*
X501870D01*
Y518228D01*
X499870Y516229D01*
Y515729D01*
X514962Y518728D02*
Y515729D01*
X516961D01*
X519960Y518728D02*
X517961D01*
Y515729D01*
X519960D01*
X517961Y517229D02*
X518961D01*
X520960Y518728D02*
Y515729D01*
X522460D01*
X522960Y516229D01*
Y518228D01*
X522460Y518728D01*
X520960D01*
X523959Y515729D02*
X524959D01*
X524459D01*
Y518728D01*
X523959Y518228D01*
X526458D02*
X526958Y518728D01*
X527958D01*
X528458Y518228D01*
Y517729D01*
X527958Y517229D01*
X528458Y516729D01*
Y516229D01*
X527958Y515729D01*
X526958D01*
X526458Y516229D01*
Y516729D01*
X526958Y517229D01*
X526458Y517729D01*
Y518228D01*
X526958Y517229D02*
X527958D01*
X541526Y518728D02*
Y515729D01*
X543526D01*
X546525Y518728D02*
X544525D01*
Y515729D01*
X546525D01*
X544525Y517229D02*
X545525D01*
X547524Y518728D02*
Y515729D01*
X549024D01*
X549524Y516229D01*
Y518228D01*
X549024Y518728D01*
X547524D01*
X550524Y515729D02*
X551523D01*
X551023D01*
Y518728D01*
X550524Y518228D01*
X553023Y516229D02*
X553522Y515729D01*
X554522D01*
X555022Y516229D01*
Y518228D01*
X554522Y518728D01*
X553522D01*
X553023Y518228D01*
Y517729D01*
X553522Y517229D01*
X555022D01*
X568103Y518728D02*
Y515729D01*
X570102D01*
X573101Y518728D02*
X571102D01*
Y515729D01*
X573101D01*
X571102Y517229D02*
X572101D01*
X574101Y518728D02*
Y515729D01*
X575600D01*
X576100Y516229D01*
Y518228D01*
X575600Y518728D01*
X574101D01*
X579099Y515729D02*
X577100D01*
X579099Y517729D01*
Y518228D01*
X578599Y518728D01*
X577599D01*
X577100Y518228D01*
X580099D02*
X580598Y518728D01*
X581598D01*
X582098Y518228D01*
Y516229D01*
X581598Y515729D01*
X580598D01*
X580099Y516229D01*
Y518228D01*
X594679Y518728D02*
Y515729D01*
X596678D01*
X599677Y518728D02*
X597678D01*
Y515729D01*
X599677D01*
X597678Y517229D02*
X598677D01*
X600677Y518728D02*
Y515729D01*
X602176D01*
X602676Y516229D01*
Y518228D01*
X602176Y518728D01*
X600677D01*
X605675Y515729D02*
X603676D01*
X605675Y517729D01*
Y518228D01*
X605175Y518728D01*
X604176D01*
X603676Y518228D01*
X606675Y515729D02*
X607674D01*
X607175D01*
Y518728D01*
X606675Y518228D01*
X488342Y448421D02*
Y445422D01*
X490342D01*
X493341Y448421D02*
X491341D01*
Y445422D01*
X493341D01*
X491341Y446921D02*
X492341D01*
X494340Y448421D02*
Y445422D01*
X495840D01*
X496340Y445922D01*
Y447921D01*
X495840Y448421D01*
X494340D01*
X499339Y445422D02*
X497339D01*
X499339Y447421D01*
Y447921D01*
X498839Y448421D01*
X497839D01*
X497339Y447921D01*
X502338Y445422D02*
X500339D01*
X502338Y447421D01*
Y447921D01*
X501838Y448421D01*
X500838D01*
X500339Y447921D01*
X514918Y448421D02*
Y445422D01*
X516918D01*
X519917Y448421D02*
X517917D01*
Y445422D01*
X519917D01*
X517917Y446921D02*
X518917D01*
X520917Y448421D02*
Y445422D01*
X522416D01*
X522916Y445922D01*
Y447921D01*
X522416Y448421D01*
X520917D01*
X525915Y445422D02*
X523915D01*
X525915Y447421D01*
Y447921D01*
X525415Y448421D01*
X524415D01*
X523915Y447921D01*
X526915D02*
X527414Y448421D01*
X528414D01*
X528914Y447921D01*
Y447421D01*
X528414Y446921D01*
X527914D01*
X528414D01*
X528914Y446421D01*
Y445922D01*
X528414Y445422D01*
X527414D01*
X526915Y445922D01*
X541495Y448421D02*
Y445422D01*
X543494D01*
X546493Y448421D02*
X544494D01*
Y445422D01*
X546493D01*
X544494Y446921D02*
X545493D01*
X547493Y448421D02*
Y445422D01*
X548992D01*
X549492Y445922D01*
Y447921D01*
X548992Y448421D01*
X547493D01*
X552491Y445422D02*
X550492D01*
X552491Y447421D01*
Y447921D01*
X551991Y448421D01*
X550991D01*
X550492Y447921D01*
X554990Y445422D02*
Y448421D01*
X553491Y446921D01*
X555490D01*
X568071Y448421D02*
Y445422D01*
X570070D01*
X573069Y448421D02*
X571070D01*
Y445422D01*
X573069D01*
X571070Y446921D02*
X572069D01*
X574069Y448421D02*
Y445422D01*
X575568D01*
X576068Y445922D01*
Y447921D01*
X575568Y448421D01*
X574069D01*
X579067Y445422D02*
X577068D01*
X579067Y447421D01*
Y447921D01*
X578567Y448421D01*
X577568D01*
X577068Y447921D01*
X582066Y448421D02*
X580067D01*
Y446921D01*
X581066Y447421D01*
X581566D01*
X582066Y446921D01*
Y445922D01*
X581566Y445422D01*
X580567D01*
X580067Y445922D01*
X594647Y448421D02*
Y445422D01*
X596646D01*
X599645Y448421D02*
X597646D01*
Y445422D01*
X599645D01*
X597646Y446921D02*
X598645D01*
X600645Y448421D02*
Y445422D01*
X602144D01*
X602644Y445922D01*
Y447921D01*
X602144Y448421D01*
X600645D01*
X605643Y445422D02*
X603644D01*
X605643Y447421D01*
Y447921D01*
X605143Y448421D01*
X604144D01*
X603644Y447921D01*
X608642Y448421D02*
X607643Y447921D01*
X606643Y446921D01*
Y445922D01*
X607143Y445422D01*
X608142D01*
X608642Y445922D01*
Y446421D01*
X608142Y446921D01*
X606643D01*
X488374Y405047D02*
Y402048D01*
X490374D01*
X493373Y405047D02*
X491373D01*
Y402048D01*
X493373D01*
X491373Y403548D02*
X492373D01*
X494372Y405047D02*
Y402048D01*
X495872D01*
X496372Y402548D01*
Y404547D01*
X495872Y405047D01*
X494372D01*
X499371Y402048D02*
X497371D01*
X499371Y404047D01*
Y404547D01*
X498871Y405047D01*
X497871D01*
X497371Y404547D01*
X500370Y405047D02*
X502370D01*
Y404547D01*
X500370Y402548D01*
Y402048D01*
X515420Y405031D02*
Y402032D01*
X517420D01*
X520419Y405031D02*
X518420D01*
Y402032D01*
X520419D01*
X518420Y403532D02*
X519419D01*
X521419Y405031D02*
Y402032D01*
X522918D01*
X523418Y402532D01*
Y404531D01*
X522918Y405031D01*
X521419D01*
X526417Y402032D02*
X524418D01*
X526417Y404032D01*
Y404531D01*
X525917Y405031D01*
X524918D01*
X524418Y404531D01*
X527417D02*
X527916Y405031D01*
X528916D01*
X529416Y404531D01*
Y404032D01*
X528916Y403532D01*
X529416Y403032D01*
Y402532D01*
X528916Y402032D01*
X527916D01*
X527417Y402532D01*
Y403032D01*
X527916Y403532D01*
X527417Y404032D01*
Y404531D01*
X527916Y403532D02*
X528916D01*
X541868Y405031D02*
Y402032D01*
X543867D01*
X546866Y405031D02*
X544867D01*
Y402032D01*
X546866D01*
X544867Y403532D02*
X545866D01*
X547866Y405031D02*
Y402032D01*
X549365D01*
X549865Y402532D01*
Y404531D01*
X549365Y405031D01*
X547866D01*
X552864Y402032D02*
X550865D01*
X552864Y404032D01*
Y404531D01*
X552364Y405031D01*
X551365D01*
X550865Y404531D01*
X553864Y402532D02*
X554364Y402032D01*
X555364D01*
X555863Y402532D01*
Y404531D01*
X555364Y405031D01*
X554364D01*
X553864Y404531D01*
Y404032D01*
X554364Y403532D01*
X555863D01*
X568255Y405047D02*
Y402048D01*
X570255D01*
X573254Y405047D02*
X571254D01*
Y402048D01*
X573254D01*
X571254Y403548D02*
X572254D01*
X574253Y405047D02*
Y402048D01*
X575753D01*
X576253Y402548D01*
Y404547D01*
X575753Y405047D01*
X574253D01*
X577252Y404547D02*
X577752Y405047D01*
X578752D01*
X579252Y404547D01*
Y404047D01*
X578752Y403548D01*
X578252D01*
X578752D01*
X579252Y403048D01*
Y402548D01*
X578752Y402048D01*
X577752D01*
X577252Y402548D01*
X580251Y404547D02*
X580751Y405047D01*
X581751D01*
X582251Y404547D01*
Y402548D01*
X581751Y402048D01*
X580751D01*
X580251Y402548D01*
Y404547D01*
X594686Y405031D02*
Y402032D01*
X596685D01*
X599684Y405031D02*
X597685D01*
Y402032D01*
X599684D01*
X597685Y403532D02*
X598685D01*
X600684Y405031D02*
Y402032D01*
X602184D01*
X602683Y402532D01*
Y404531D01*
X602184Y405031D01*
X600684D01*
X603683Y404531D02*
X604183Y405031D01*
X605183D01*
X605683Y404531D01*
Y404032D01*
X605183Y403532D01*
X604683D01*
X605183D01*
X605683Y403032D01*
Y402532D01*
X605183Y402032D01*
X604183D01*
X603683Y402532D01*
X606682Y402032D02*
X607682D01*
X607182D01*
Y405031D01*
X606682Y404531D01*
X488342Y335927D02*
Y332928D01*
X490342D01*
X493341Y335927D02*
X491341D01*
Y332928D01*
X493341D01*
X491341Y334427D02*
X492341D01*
X494340Y335927D02*
Y332928D01*
X495840D01*
X496340Y333428D01*
Y335427D01*
X495840Y335927D01*
X494340D01*
X497339Y335427D02*
X497839Y335927D01*
X498839D01*
X499339Y335427D01*
Y334927D01*
X498839Y334427D01*
X498339D01*
X498839D01*
X499339Y333928D01*
Y333428D01*
X498839Y332928D01*
X497839D01*
X497339Y333428D01*
X502338Y332928D02*
X500339D01*
X502338Y334927D01*
Y335427D01*
X501838Y335927D01*
X500838D01*
X500339Y335427D01*
X514918Y335927D02*
Y332928D01*
X516918D01*
X519917Y335927D02*
X517917D01*
Y332928D01*
X519917D01*
X517917Y334427D02*
X518917D01*
X520917Y335927D02*
Y332928D01*
X522416D01*
X522916Y333428D01*
Y335427D01*
X522416Y335927D01*
X520917D01*
X523915Y335427D02*
X524415Y335927D01*
X525415D01*
X525915Y335427D01*
Y334927D01*
X525415Y334427D01*
X524915D01*
X525415D01*
X525915Y333928D01*
Y333428D01*
X525415Y332928D01*
X524415D01*
X523915Y333428D01*
X526915Y335427D02*
X527414Y335927D01*
X528414D01*
X528914Y335427D01*
Y334927D01*
X528414Y334427D01*
X527914D01*
X528414D01*
X528914Y333928D01*
Y333428D01*
X528414Y332928D01*
X527414D01*
X526915Y333428D01*
X541495Y335927D02*
Y332928D01*
X543494D01*
X546493Y335927D02*
X544494D01*
Y332928D01*
X546493D01*
X544494Y334427D02*
X545493D01*
X547493Y335927D02*
Y332928D01*
X548992D01*
X549492Y333428D01*
Y335427D01*
X548992Y335927D01*
X547493D01*
X550492Y335427D02*
X550991Y335927D01*
X551991D01*
X552491Y335427D01*
Y334927D01*
X551991Y334427D01*
X551491D01*
X551991D01*
X552491Y333928D01*
Y333428D01*
X551991Y332928D01*
X550991D01*
X550492Y333428D01*
X554990Y332928D02*
Y335927D01*
X553491Y334427D01*
X555490D01*
X568071Y335927D02*
Y332928D01*
X570070D01*
X573069Y335927D02*
X571070D01*
Y332928D01*
X573069D01*
X571070Y334427D02*
X572069D01*
X574069Y335927D02*
Y332928D01*
X575568D01*
X576068Y333428D01*
Y335427D01*
X575568Y335927D01*
X574069D01*
X577068Y335427D02*
X577568Y335927D01*
X578567D01*
X579067Y335427D01*
Y334927D01*
X578567Y334427D01*
X578067D01*
X578567D01*
X579067Y333928D01*
Y333428D01*
X578567Y332928D01*
X577568D01*
X577068Y333428D01*
X582066Y335927D02*
X580067D01*
Y334427D01*
X581066Y334927D01*
X581566D01*
X582066Y334427D01*
Y333428D01*
X581566Y332928D01*
X580567D01*
X580067Y333428D01*
X594647Y335927D02*
Y332928D01*
X596646D01*
X599645Y335927D02*
X597646D01*
Y332928D01*
X599645D01*
X597646Y334427D02*
X598645D01*
X600645Y335927D02*
Y332928D01*
X602144D01*
X602644Y333428D01*
Y335427D01*
X602144Y335927D01*
X600645D01*
X603644Y335427D02*
X604144Y335927D01*
X605143D01*
X605643Y335427D01*
Y334927D01*
X605143Y334427D01*
X604643D01*
X605143D01*
X605643Y333928D01*
Y333428D01*
X605143Y332928D01*
X604144D01*
X603644Y333428D01*
X608642Y335927D02*
X607643Y335427D01*
X606643Y334427D01*
Y333428D01*
X607143Y332928D01*
X608142D01*
X608642Y333428D01*
Y333928D01*
X608142Y334427D01*
X606643D01*
X488362Y291334D02*
Y288335D01*
X490362D01*
X493361Y291334D02*
X491361D01*
Y288335D01*
X493361D01*
X491361Y289834D02*
X492361D01*
X494360Y291334D02*
Y288335D01*
X495860D01*
X496360Y288835D01*
Y290834D01*
X495860Y291334D01*
X494360D01*
X497359Y290834D02*
X497859Y291334D01*
X498859D01*
X499359Y290834D01*
Y290334D01*
X498859Y289834D01*
X498359D01*
X498859D01*
X499359Y289334D01*
Y288835D01*
X498859Y288335D01*
X497859D01*
X497359Y288835D01*
X500358Y291334D02*
X502358D01*
Y290834D01*
X500358Y288835D01*
Y288335D01*
X514908Y291334D02*
Y288335D01*
X516907D01*
X519906Y291334D02*
X517907D01*
Y288335D01*
X519906D01*
X517907Y289834D02*
X518906D01*
X520906Y291334D02*
Y288335D01*
X522405D01*
X522905Y288835D01*
Y290834D01*
X522405Y291334D01*
X520906D01*
X523905Y290834D02*
X524405Y291334D01*
X525404D01*
X525904Y290834D01*
Y290334D01*
X525404Y289834D01*
X524904D01*
X525404D01*
X525904Y289334D01*
Y288835D01*
X525404Y288335D01*
X524405D01*
X523905Y288835D01*
X526904Y290834D02*
X527404Y291334D01*
X528403D01*
X528903Y290834D01*
Y290334D01*
X528403Y289834D01*
X528903Y289334D01*
Y288835D01*
X528403Y288335D01*
X527404D01*
X526904Y288835D01*
Y289334D01*
X527404Y289834D01*
X526904Y290334D01*
Y290834D01*
X527404Y289834D02*
X528403D01*
X541553Y291334D02*
Y288335D01*
X543552D01*
X546552Y291334D02*
X544552D01*
Y288335D01*
X546552D01*
X544552Y289834D02*
X545552D01*
X547551Y291334D02*
Y288335D01*
X549051D01*
X549551Y288835D01*
Y290834D01*
X549051Y291334D01*
X547551D01*
X550550Y290834D02*
X551050Y291334D01*
X552050D01*
X552550Y290834D01*
Y290334D01*
X552050Y289834D01*
X551550D01*
X552050D01*
X552550Y289334D01*
Y288835D01*
X552050Y288335D01*
X551050D01*
X550550Y288835D01*
X553549D02*
X554049Y288335D01*
X555049D01*
X555549Y288835D01*
Y290834D01*
X555049Y291334D01*
X554049D01*
X553549Y290834D01*
Y290334D01*
X554049Y289834D01*
X555549D01*
X568098Y291334D02*
Y288335D01*
X570098D01*
X573097Y291334D02*
X571098D01*
Y288335D01*
X573097D01*
X571098Y289834D02*
X572097D01*
X574097Y291334D02*
Y288335D01*
X575596D01*
X576096Y288835D01*
Y290834D01*
X575596Y291334D01*
X574097D01*
X578595Y288335D02*
Y291334D01*
X577096Y289834D01*
X579095D01*
X580095Y290834D02*
X580594Y291334D01*
X581594D01*
X582094Y290834D01*
Y288835D01*
X581594Y288335D01*
X580594D01*
X580095Y288835D01*
Y290834D01*
X594644Y291334D02*
Y288335D01*
X596643D01*
X599642Y291334D02*
X597643D01*
Y288335D01*
X599642D01*
X597643Y289834D02*
X598643D01*
X600642Y291334D02*
Y288335D01*
X602142D01*
X602641Y288835D01*
Y290834D01*
X602142Y291334D01*
X600642D01*
X605140Y288335D02*
Y291334D01*
X603641Y289834D01*
X605640D01*
X606640Y288335D02*
X607640D01*
X607140D01*
Y291334D01*
X606640Y290834D01*
X284252Y91437D02*
Y94436D01*
X285752D01*
X286251Y93936D01*
Y92936D01*
X285752Y92437D01*
X284252D01*
X285252D02*
X286251Y91437D01*
X287251Y93936D02*
X287751Y94436D01*
X288751D01*
X289250Y93936D01*
Y93436D01*
X288751Y92936D01*
X288251D01*
X288751D01*
X289250Y92437D01*
Y91937D01*
X288751Y91437D01*
X287751D01*
X287251Y91937D01*
X290250Y93936D02*
X290750Y94436D01*
X291750D01*
X292249Y93936D01*
Y91937D01*
X291750Y91437D01*
X290750D01*
X290250Y91937D01*
Y93936D01*
X279134Y65847D02*
X282133D01*
Y64347D01*
X281633Y63847D01*
X280633D01*
X280134Y64347D01*
Y65847D01*
Y64847D02*
X279134Y63847D01*
X281633Y62847D02*
X282133Y62348D01*
Y61348D01*
X281633Y60848D01*
X281133D01*
X280633Y61348D01*
Y61848D01*
Y61348D01*
X280134Y60848D01*
X279634D01*
X279134Y61348D01*
Y62348D01*
X279634Y62847D01*
X279134Y59848D02*
Y58849D01*
Y59349D01*
X282133D01*
X281633Y59848D01*
X198713Y175206D02*
Y178205D01*
X200212D01*
X200712Y177706D01*
Y176706D01*
X200212Y176206D01*
X198713D01*
X199712D02*
X200712Y175206D01*
X203711D02*
X201712D01*
X203711Y177206D01*
Y177706D01*
X203211Y178205D01*
X202211D01*
X201712Y177706D01*
X206710Y175206D02*
X204711D01*
X206710Y177206D01*
Y177706D01*
X206210Y178205D01*
X205210D01*
X204711Y177706D01*
X284252Y96161D02*
Y99160D01*
X285752D01*
X286251Y98661D01*
Y97661D01*
X285752Y97161D01*
X284252D01*
X285252D02*
X286251Y96161D01*
X289250D02*
X287251D01*
X289250Y98161D01*
Y98661D01*
X288751Y99160D01*
X287751D01*
X287251Y98661D01*
X290250D02*
X290750Y99160D01*
X291750D01*
X292249Y98661D01*
Y98161D01*
X291750Y97661D01*
X291250D01*
X291750D01*
X292249Y97161D01*
Y96661D01*
X291750Y96161D01*
X290750D01*
X290250Y96661D01*
X266797Y100286D02*
Y97287D01*
X265297D01*
X264797Y97787D01*
Y98786D01*
X265297Y99286D01*
X266797D01*
X265797D02*
X264797Y100286D01*
X261799D02*
X263798D01*
X261799Y98286D01*
Y97787D01*
X262298Y97287D01*
X263298D01*
X263798Y97787D01*
X259299Y100286D02*
Y97287D01*
X260799Y98786D01*
X258799D01*
X270650Y30005D02*
X270150Y30505D01*
X269150D01*
X268650Y30005D01*
Y29506D01*
X269150Y29006D01*
X270150D01*
X270650Y28506D01*
Y28006D01*
X270150Y27506D01*
X269150D01*
X268650Y28006D01*
X271649Y30005D02*
X272149Y30505D01*
X273149D01*
X273649Y30005D01*
Y29506D01*
X273149Y29006D01*
X272649D01*
X273149D01*
X273649Y28506D01*
Y28006D01*
X273149Y27506D01*
X272149D01*
X271649Y28006D01*
X212066Y187554D02*
Y185055D01*
X212566Y184555D01*
X213566D01*
X214066Y185055D01*
Y187554D01*
X216565Y184555D02*
Y187554D01*
X215065Y186055D01*
X217064D01*
X445961Y408695D02*
Y410694D01*
X446960Y411694D01*
X447960Y410694D01*
Y408695D01*
Y410194D01*
X445961D01*
X448960Y408695D02*
Y410694D01*
X450459D01*
X450959Y410194D01*
Y408695D01*
X452458D02*
X453458D01*
X453958Y409195D01*
Y410194D01*
X453458Y410694D01*
X452458D01*
X451959Y410194D01*
Y409195D01*
X452458Y408695D01*
X456957Y411694D02*
Y408695D01*
X455457D01*
X454958Y409195D01*
Y410194D01*
X455457Y410694D01*
X456957D01*
X459456Y408695D02*
X458457D01*
X457957Y409195D01*
Y410194D01*
X458457Y410694D01*
X459456D01*
X459956Y410194D01*
Y409695D01*
X457957D01*
X447960Y391509D02*
X447460Y392009D01*
X446460D01*
X445961Y391509D01*
Y389510D01*
X446460Y389010D01*
X447460D01*
X447960Y389510D01*
X449460Y391009D02*
X450459D01*
X450959Y390510D01*
Y389010D01*
X449460D01*
X448960Y389510D01*
X449460Y390010D01*
X450959D01*
X452458Y391509D02*
Y391009D01*
X451959D01*
X452958D01*
X452458D01*
Y389510D01*
X452958Y389010D01*
X454458Y392009D02*
Y389010D01*
Y390510D01*
X454958Y391009D01*
X455957D01*
X456457Y390510D01*
Y389010D01*
X457957D02*
X458956D01*
X459456Y389510D01*
Y390510D01*
X458956Y391009D01*
X457957D01*
X457457Y390510D01*
Y389510D01*
X457957Y389010D01*
X462455Y392009D02*
Y389010D01*
X460956D01*
X460456Y389510D01*
Y390510D01*
X460956Y391009D01*
X462455D01*
X464955Y389010D02*
X463955D01*
X463455Y389510D01*
Y390510D01*
X463955Y391009D01*
X464955D01*
X465454Y390510D01*
Y390010D01*
X463455D01*
X448560Y447432D02*
X447561D01*
X447061Y446932D01*
Y444933D01*
X447561Y444433D01*
X448560D01*
X449060Y444933D01*
Y446932D01*
X448560Y447432D01*
X450060Y444433D02*
Y447432D01*
X452059Y444433D01*
Y447432D01*
X456058D02*
Y444433D01*
X457557D01*
X458057Y444933D01*
Y445433D01*
X457557Y445933D01*
X456058D01*
X457557D01*
X458057Y446432D01*
Y446932D01*
X457557Y447432D01*
X456058D01*
X459557Y444433D02*
X460556D01*
X461056Y444933D01*
Y445933D01*
X460556Y446432D01*
X459557D01*
X459057Y445933D01*
Y444933D01*
X459557Y444433D01*
X462556Y446432D02*
X463555D01*
X464055Y445933D01*
Y444433D01*
X462556D01*
X462056Y444933D01*
X462556Y445433D01*
X464055D01*
X465055Y446432D02*
Y444433D01*
Y445433D01*
X465555Y445933D01*
X466054Y446432D01*
X466554D01*
X470053Y447432D02*
Y444433D01*
X468554D01*
X468054Y444933D01*
Y445933D01*
X468554Y446432D01*
X470053D01*
X474052Y447432D02*
Y444433D01*
X476051D01*
X479050Y447432D02*
X477051D01*
Y444433D01*
X479050D01*
X477051Y445933D02*
X478051D01*
X480050Y447432D02*
Y444433D01*
X481550D01*
X482049Y444933D01*
Y446932D01*
X481550Y447432D01*
X480050D01*
X483049Y444433D02*
X484549D01*
X485048Y444933D01*
X484549Y445433D01*
X483549D01*
X483049Y445933D01*
X483549Y446432D01*
X485048D01*
X382112Y430542D02*
X381112D01*
X380613Y430042D01*
Y428042D01*
X381112Y427542D01*
X382112D01*
X382612Y428042D01*
Y430042D01*
X382112Y430542D01*
X385611D02*
X383612D01*
Y429042D01*
X384611D01*
X383612D01*
Y427542D01*
X388610Y430542D02*
X386611D01*
Y429042D01*
X387610D01*
X386611D01*
Y427542D01*
X392609Y430542D02*
Y427542D01*
X394108D01*
X394608Y428042D01*
Y428542D01*
X394108Y429042D01*
X392609D01*
X394108D01*
X394608Y429542D01*
Y430042D01*
X394108Y430542D01*
X392609D01*
X396108Y427542D02*
X397107D01*
X397607Y428042D01*
Y429042D01*
X397107Y429542D01*
X396108D01*
X395608Y429042D01*
Y428042D01*
X396108Y427542D01*
X399107Y429542D02*
X400106D01*
X400606Y429042D01*
Y427542D01*
X399107D01*
X398607Y428042D01*
X399107Y428542D01*
X400606D01*
X401606Y429542D02*
Y427542D01*
Y428542D01*
X402106Y429042D01*
X402605Y429542D01*
X403105D01*
X406604Y430542D02*
Y427542D01*
X405105D01*
X404605Y428042D01*
Y429042D01*
X405105Y429542D01*
X406604D01*
X410603Y430542D02*
Y427542D01*
X412602D01*
X415601Y430542D02*
X413602D01*
Y427542D01*
X415601D01*
X413602Y429042D02*
X414602D01*
X416601Y430542D02*
Y427542D01*
X418101D01*
X418600Y428042D01*
Y430042D01*
X418101Y430542D01*
X416601D01*
X419600Y427542D02*
X421100D01*
X421599Y428042D01*
X421100Y428542D01*
X420100D01*
X419600Y429042D01*
X420100Y429542D01*
X421599D01*
X445567Y522770D02*
Y524769D01*
X446567Y525769D01*
X447566Y524769D01*
Y522770D01*
Y524269D01*
X445567D01*
X448566Y522770D02*
Y524769D01*
X450066D01*
X450565Y524269D01*
Y522770D01*
X452065D02*
X453064D01*
X453564Y523270D01*
Y524269D01*
X453064Y524769D01*
X452065D01*
X451565Y524269D01*
Y523270D01*
X452065Y522770D01*
X456563Y525769D02*
Y522770D01*
X455064D01*
X454564Y523270D01*
Y524269D01*
X455064Y524769D01*
X456563D01*
X459063Y522770D02*
X458063D01*
X457563Y523270D01*
Y524269D01*
X458063Y524769D01*
X459063D01*
X459562Y524269D01*
Y523770D01*
X457563D01*
X447566Y505584D02*
X447066Y506084D01*
X446067D01*
X445567Y505584D01*
Y503585D01*
X446067Y503085D01*
X447066D01*
X447566Y503585D01*
X449066Y505084D02*
X450066D01*
X450565Y504584D01*
Y503085D01*
X449066D01*
X448566Y503585D01*
X449066Y504084D01*
X450565D01*
X452065Y505584D02*
Y505084D01*
X451565D01*
X452565D01*
X452065D01*
Y503585D01*
X452565Y503085D01*
X454064Y506084D02*
Y503085D01*
Y504584D01*
X454564Y505084D01*
X455564D01*
X456064Y504584D01*
Y503085D01*
X457563D02*
X458563D01*
X459063Y503585D01*
Y504584D01*
X458563Y505084D01*
X457563D01*
X457063Y504584D01*
Y503585D01*
X457563Y503085D01*
X462062Y506084D02*
Y503085D01*
X460562D01*
X460062Y503585D01*
Y504584D01*
X460562Y505084D01*
X462062D01*
X464561Y503085D02*
X463561D01*
X463061Y503585D01*
Y504584D01*
X463561Y505084D01*
X464561D01*
X465061Y504584D01*
Y504084D01*
X463061D01*
X448166Y561507D02*
X447167D01*
X446667Y561007D01*
Y559008D01*
X447167Y558508D01*
X448166D01*
X448666Y559008D01*
Y561007D01*
X448166Y561507D01*
X449666Y558508D02*
Y561507D01*
X451665Y558508D01*
Y561507D01*
X455664D02*
Y558508D01*
X457163D01*
X457663Y559008D01*
Y559508D01*
X457163Y560007D01*
X455664D01*
X457163D01*
X457663Y560507D01*
Y561007D01*
X457163Y561507D01*
X455664D01*
X459163Y558508D02*
X460163D01*
X460662Y559008D01*
Y560007D01*
X460163Y560507D01*
X459163D01*
X458663Y560007D01*
Y559008D01*
X459163Y558508D01*
X462162Y560507D02*
X463162D01*
X463661Y560007D01*
Y558508D01*
X462162D01*
X461662Y559008D01*
X462162Y559508D01*
X463661D01*
X464661Y560507D02*
Y558508D01*
Y559508D01*
X465161Y560007D01*
X465661Y560507D01*
X466161D01*
X469660Y561507D02*
Y558508D01*
X468160D01*
X467660Y559008D01*
Y560007D01*
X468160Y560507D01*
X469660D01*
X473658Y561507D02*
Y558508D01*
X475658D01*
X478657Y561507D02*
X476657D01*
Y558508D01*
X478657D01*
X476657Y560007D02*
X477657D01*
X479656Y561507D02*
Y558508D01*
X481156D01*
X481656Y559008D01*
Y561007D01*
X481156Y561507D01*
X479656D01*
X482655Y558508D02*
X484155D01*
X484655Y559008D01*
X484155Y559508D01*
X483155D01*
X482655Y560007D01*
X483155Y560507D01*
X484655D01*
X381718Y544616D02*
X380719D01*
X380219Y544116D01*
Y542117D01*
X380719Y541617D01*
X381718D01*
X382218Y542117D01*
Y544116D01*
X381718Y544616D01*
X385217D02*
X383218D01*
Y543117D01*
X384218D01*
X383218D01*
Y541617D01*
X388216Y544616D02*
X386217D01*
Y543117D01*
X387217D01*
X386217D01*
Y541617D01*
X392215Y544616D02*
Y541617D01*
X393714D01*
X394214Y542117D01*
Y542617D01*
X393714Y543117D01*
X392215D01*
X393714D01*
X394214Y543617D01*
Y544116D01*
X393714Y544616D01*
X392215D01*
X395714Y541617D02*
X396713D01*
X397213Y542117D01*
Y543117D01*
X396713Y543617D01*
X395714D01*
X395214Y543117D01*
Y542117D01*
X395714Y541617D01*
X398713Y543617D02*
X399713D01*
X400212Y543117D01*
Y541617D01*
X398713D01*
X398213Y542117D01*
X398713Y542617D01*
X400212D01*
X401212Y543617D02*
Y541617D01*
Y542617D01*
X401712Y543117D01*
X402212Y543617D01*
X402712D01*
X406211Y544616D02*
Y541617D01*
X404711D01*
X404211Y542117D01*
Y543117D01*
X404711Y543617D01*
X406211D01*
X410209Y544616D02*
Y541617D01*
X412209D01*
X415208Y544616D02*
X413208D01*
Y541617D01*
X415208D01*
X413208Y543117D02*
X414208D01*
X416207Y544616D02*
Y541617D01*
X417707D01*
X418207Y542117D01*
Y544116D01*
X417707Y544616D01*
X416207D01*
X419206Y541617D02*
X420706D01*
X421206Y542117D01*
X420706Y542617D01*
X419706D01*
X419206Y543117D01*
X419706Y543617D01*
X421206D01*
X381086Y317886D02*
X380086D01*
X379587Y317387D01*
Y315387D01*
X380086Y314887D01*
X381086D01*
X381586Y315387D01*
Y317387D01*
X381086Y317886D01*
X384585D02*
X382586D01*
Y316387D01*
X383585D01*
X382586D01*
Y314887D01*
X387584Y317886D02*
X385585D01*
Y316387D01*
X386584D01*
X385585D01*
Y314887D01*
X391583Y317886D02*
Y314887D01*
X393082D01*
X393582Y315387D01*
Y315887D01*
X393082Y316387D01*
X391583D01*
X393082D01*
X393582Y316887D01*
Y317387D01*
X393082Y317886D01*
X391583D01*
X395082Y314887D02*
X396081D01*
X396581Y315387D01*
Y316387D01*
X396081Y316887D01*
X395082D01*
X394582Y316387D01*
Y315387D01*
X395082Y314887D01*
X398081Y316887D02*
X399080D01*
X399580Y316387D01*
Y314887D01*
X398081D01*
X397581Y315387D01*
X398081Y315887D01*
X399580D01*
X400580Y316887D02*
Y314887D01*
Y315887D01*
X401080Y316387D01*
X401580Y316887D01*
X402079D01*
X405578Y317886D02*
Y314887D01*
X404079D01*
X403579Y315387D01*
Y316387D01*
X404079Y316887D01*
X405578D01*
X409577Y317886D02*
Y314887D01*
X411576D01*
X414575Y317886D02*
X412576D01*
Y314887D01*
X414575D01*
X412576Y316387D02*
X413576D01*
X415575Y317886D02*
Y314887D01*
X417074D01*
X417574Y315387D01*
Y317387D01*
X417074Y317886D01*
X415575D01*
X418574Y314887D02*
X420074D01*
X420573Y315387D01*
X420074Y315887D01*
X419074D01*
X418574Y316387D01*
X419074Y316887D01*
X420573D01*
X447534Y334777D02*
X446534D01*
X446035Y334277D01*
Y332278D01*
X446534Y331778D01*
X447534D01*
X448034Y332278D01*
Y334277D01*
X447534Y334777D01*
X449034Y331778D02*
Y334777D01*
X451033Y331778D01*
Y334777D01*
X455032D02*
Y331778D01*
X456531D01*
X457031Y332278D01*
Y332778D01*
X456531Y333278D01*
X455032D01*
X456531D01*
X457031Y333777D01*
Y334277D01*
X456531Y334777D01*
X455032D01*
X458531Y331778D02*
X459530D01*
X460030Y332278D01*
Y333278D01*
X459530Y333777D01*
X458531D01*
X458031Y333278D01*
Y332278D01*
X458531Y331778D01*
X461530Y333777D02*
X462529D01*
X463029Y333278D01*
Y331778D01*
X461530D01*
X461030Y332278D01*
X461530Y332778D01*
X463029D01*
X464029Y333777D02*
Y331778D01*
Y332778D01*
X464529Y333278D01*
X465028Y333777D01*
X465528D01*
X469027Y334777D02*
Y331778D01*
X467528D01*
X467028Y332278D01*
Y333278D01*
X467528Y333777D01*
X469027D01*
X473026Y334777D02*
Y331778D01*
X475025D01*
X478024Y334777D02*
X476025D01*
Y331778D01*
X478024D01*
X476025Y333278D02*
X477025D01*
X479024Y334777D02*
Y331778D01*
X480523D01*
X481023Y332278D01*
Y334277D01*
X480523Y334777D01*
X479024D01*
X482023Y331778D02*
X483523D01*
X484022Y332278D01*
X483523Y332778D01*
X482523D01*
X482023Y333278D01*
X482523Y333777D01*
X484022D01*
X268799Y276121D02*
X269299Y276621D01*
X270299D01*
X270798Y276121D01*
Y275621D01*
X270299Y275122D01*
X269799D01*
X270299D01*
X270798Y274622D01*
Y274122D01*
X270299Y273622D01*
X269299D01*
X268799Y274122D01*
X273798Y276621D02*
X271798D01*
Y275122D01*
X272798Y275621D01*
X273298D01*
X273798Y275122D01*
Y274122D01*
X273298Y273622D01*
X272298D01*
X271798Y274122D01*
X274797Y276121D02*
X275297Y276621D01*
X276297D01*
X276797Y276121D01*
Y274122D01*
X276297Y273622D01*
X275297D01*
X274797Y274122D01*
Y276121D01*
X277796Y273622D02*
Y275621D01*
X278296D01*
X278796Y275122D01*
Y273622D01*
Y275122D01*
X279296Y275621D01*
X279796Y275122D01*
Y273622D01*
X280795D02*
Y275621D01*
X281795Y276621D01*
X282795Y275621D01*
Y273622D01*
Y275122D01*
X280795D01*
X446934Y278854D02*
X446434Y279354D01*
X445435D01*
X444935Y278854D01*
Y276855D01*
X445435Y276355D01*
X446434D01*
X446934Y276855D01*
X448433Y278354D02*
X449433D01*
X449933Y277854D01*
Y276355D01*
X448433D01*
X447934Y276855D01*
X448433Y277355D01*
X449933D01*
X451433Y278854D02*
Y278354D01*
X450933D01*
X451932D01*
X451433D01*
Y276855D01*
X451932Y276355D01*
X453432Y279354D02*
Y276355D01*
Y277854D01*
X453932Y278354D01*
X454931D01*
X455431Y277854D01*
Y276355D01*
X456931D02*
X457930D01*
X458430Y276855D01*
Y277854D01*
X457930Y278354D01*
X456931D01*
X456431Y277854D01*
Y276855D01*
X456931Y276355D01*
X461429Y279354D02*
Y276355D01*
X459930D01*
X459430Y276855D01*
Y277854D01*
X459930Y278354D01*
X461429D01*
X463929Y276355D02*
X462929D01*
X462429Y276855D01*
Y277854D01*
X462929Y278354D01*
X463929D01*
X464428Y277854D01*
Y277355D01*
X462429D01*
X248327Y276621D02*
X250326D01*
Y276121D01*
X248327Y274122D01*
Y273622D01*
X251326Y276121D02*
X251826Y276621D01*
X252825D01*
X253325Y276121D01*
Y274122D01*
X252825Y273622D01*
X251826D01*
X251326Y274122D01*
Y276121D01*
X254325D02*
X254825Y276621D01*
X255824D01*
X256324Y276121D01*
Y274122D01*
X255824Y273622D01*
X254825D01*
X254325Y274122D01*
Y276121D01*
X257324Y273622D02*
Y275621D01*
X257824D01*
X258324Y275122D01*
Y273622D01*
Y275122D01*
X258823Y275621D01*
X259323Y275122D01*
Y273622D01*
X260323D02*
Y275621D01*
X261323Y276621D01*
X262322Y275621D01*
Y273622D01*
Y275122D01*
X260323D01*
X227165Y273622D02*
X228165D01*
X227665D01*
Y276621D01*
X227165Y276121D01*
X229664D02*
X230164Y276621D01*
X231164D01*
X231664Y276121D01*
Y274122D01*
X231164Y273622D01*
X230164D01*
X229664Y274122D01*
Y276121D01*
X232664D02*
X233163Y276621D01*
X234163D01*
X234663Y276121D01*
Y274122D01*
X234163Y273622D01*
X233163D01*
X232664Y274122D01*
Y276121D01*
X235663D02*
X236162Y276621D01*
X237162D01*
X237662Y276121D01*
Y274122D01*
X237162Y273622D01*
X236162D01*
X235663Y274122D01*
Y276121D01*
X238662Y273622D02*
Y275621D01*
X239161D01*
X239661Y275122D01*
Y273622D01*
Y275122D01*
X240161Y275621D01*
X240661Y275122D01*
Y273622D01*
X241661D02*
Y275621D01*
X242660Y276621D01*
X243660Y275621D01*
Y273622D01*
Y275122D01*
X241661D01*
X444935Y296040D02*
Y298039D01*
X445934Y299039D01*
X446934Y298039D01*
Y296040D01*
Y297539D01*
X444935D01*
X447934Y296040D02*
Y298039D01*
X449433D01*
X449933Y297539D01*
Y296040D01*
X451433D02*
X452432D01*
X452932Y296540D01*
Y297539D01*
X452432Y298039D01*
X451433D01*
X450933Y297539D01*
Y296540D01*
X451433Y296040D01*
X455931Y299039D02*
Y296040D01*
X454432D01*
X453932Y296540D01*
Y297539D01*
X454432Y298039D01*
X455931D01*
X458430Y296040D02*
X457431D01*
X456931Y296540D01*
Y297539D01*
X457431Y298039D01*
X458430D01*
X458930Y297539D01*
Y297040D01*
X456931D01*
X268799Y503483D02*
X269299Y503983D01*
X270299D01*
X270798Y503483D01*
Y502984D01*
X270299Y502484D01*
X269799D01*
X270299D01*
X270798Y501984D01*
Y501484D01*
X270299Y500984D01*
X269299D01*
X268799Y501484D01*
X273798Y503983D02*
X271798D01*
Y502484D01*
X272798Y502984D01*
X273298D01*
X273798Y502484D01*
Y501484D01*
X273298Y500984D01*
X272298D01*
X271798Y501484D01*
X274797Y503483D02*
X275297Y503983D01*
X276297D01*
X276797Y503483D01*
Y501484D01*
X276297Y500984D01*
X275297D01*
X274797Y501484D01*
Y503483D01*
X277796Y500984D02*
Y502984D01*
X278296D01*
X278796Y502484D01*
Y500984D01*
Y502484D01*
X279296Y502984D01*
X279796Y502484D01*
Y500984D01*
X280795D02*
Y502984D01*
X281795Y503983D01*
X282795Y502984D01*
Y500984D01*
Y502484D01*
X280795D01*
X248327Y503983D02*
X250326D01*
Y503483D01*
X248327Y501484D01*
Y500984D01*
X251326Y503483D02*
X251826Y503983D01*
X252825D01*
X253325Y503483D01*
Y501484D01*
X252825Y500984D01*
X251826D01*
X251326Y501484D01*
Y503483D01*
X254325D02*
X254825Y503983D01*
X255824D01*
X256324Y503483D01*
Y501484D01*
X255824Y500984D01*
X254825D01*
X254325Y501484D01*
Y503483D01*
X257324Y500984D02*
Y502984D01*
X257824D01*
X258324Y502484D01*
Y500984D01*
Y502484D01*
X258823Y502984D01*
X259323Y502484D01*
Y500984D01*
X260323D02*
Y502984D01*
X261323Y503983D01*
X262322Y502984D01*
Y500984D01*
Y502484D01*
X260323D01*
X227165Y500984D02*
X228165D01*
X227665D01*
Y503983D01*
X227165Y503483D01*
X229664D02*
X230164Y503983D01*
X231164D01*
X231664Y503483D01*
Y501484D01*
X231164Y500984D01*
X230164D01*
X229664Y501484D01*
Y503483D01*
X232664D02*
X233163Y503983D01*
X234163D01*
X234663Y503483D01*
Y501484D01*
X234163Y500984D01*
X233163D01*
X232664Y501484D01*
Y503483D01*
X235663D02*
X236162Y503983D01*
X237162D01*
X237662Y503483D01*
Y501484D01*
X237162Y500984D01*
X236162D01*
X235663Y501484D01*
Y503483D01*
X238662Y500984D02*
Y502984D01*
X239161D01*
X239661Y502484D01*
Y500984D01*
Y502484D01*
X240161Y502984D01*
X240661Y502484D01*
Y500984D01*
X241661D02*
Y502984D01*
X242660Y503983D01*
X243660Y502984D01*
Y500984D01*
Y502484D01*
X241661D01*
X227165Y387303D02*
X228165D01*
X227665D01*
Y390302D01*
X227165Y389802D01*
X229664D02*
X230164Y390302D01*
X231164D01*
X231664Y389802D01*
Y387803D01*
X231164Y387303D01*
X230164D01*
X229664Y387803D01*
Y389802D01*
X232664D02*
X233163Y390302D01*
X234163D01*
X234663Y389802D01*
Y387803D01*
X234163Y387303D01*
X233163D01*
X232664Y387803D01*
Y389802D01*
X235663D02*
X236162Y390302D01*
X237162D01*
X237662Y389802D01*
Y387803D01*
X237162Y387303D01*
X236162D01*
X235663Y387803D01*
Y389802D01*
X238662Y387303D02*
Y389302D01*
X239161D01*
X239661Y388803D01*
Y387303D01*
Y388803D01*
X240161Y389302D01*
X240661Y388803D01*
Y387303D01*
X241661D02*
Y389302D01*
X242660Y390302D01*
X243660Y389302D01*
Y387303D01*
Y388803D01*
X241661D01*
X248327Y390302D02*
X250326D01*
Y389802D01*
X248327Y387803D01*
Y387303D01*
X251326Y389802D02*
X251826Y390302D01*
X252825D01*
X253325Y389802D01*
Y387803D01*
X252825Y387303D01*
X251826D01*
X251326Y387803D01*
Y389802D01*
X254325D02*
X254825Y390302D01*
X255824D01*
X256324Y389802D01*
Y387803D01*
X255824Y387303D01*
X254825D01*
X254325Y387803D01*
Y389802D01*
X257324Y387303D02*
Y389302D01*
X257824D01*
X258324Y388803D01*
Y387303D01*
Y388803D01*
X258823Y389302D01*
X259323Y388803D01*
Y387303D01*
X260323D02*
Y389302D01*
X261323Y390302D01*
X262322Y389302D01*
Y387303D01*
Y388803D01*
X260323D01*
X268799Y389802D02*
X269299Y390302D01*
X270299D01*
X270798Y389802D01*
Y389302D01*
X270299Y388803D01*
X269799D01*
X270299D01*
X270798Y388303D01*
Y387803D01*
X270299Y387303D01*
X269299D01*
X268799Y387803D01*
X273798Y390302D02*
X271798D01*
Y388803D01*
X272798Y389302D01*
X273298D01*
X273798Y388803D01*
Y387803D01*
X273298Y387303D01*
X272298D01*
X271798Y387803D01*
X274797Y389802D02*
X275297Y390302D01*
X276297D01*
X276797Y389802D01*
Y387803D01*
X276297Y387303D01*
X275297D01*
X274797Y387803D01*
Y389802D01*
X277796Y387303D02*
Y389302D01*
X278296D01*
X278796Y388803D01*
Y387303D01*
Y388803D01*
X279296Y389302D01*
X279796Y388803D01*
Y387303D01*
X280795D02*
Y389302D01*
X281795Y390302D01*
X282795Y389302D01*
Y387303D01*
Y388803D01*
X280795D01*
X10000Y273935D02*
X12999D01*
Y275435D01*
X12499Y275935D01*
X10500D01*
X10000Y275435D01*
Y273935D01*
Y276935D02*
X12999D01*
Y278434D01*
X12499Y278934D01*
X11999D01*
X11500Y278434D01*
Y276935D01*
Y278434D01*
X11000Y278934D01*
X10500D01*
X10000Y278434D01*
Y276935D01*
X10500Y281933D02*
X10000Y281433D01*
Y280433D01*
X10500Y279934D01*
X12499D01*
X12999Y280433D01*
Y281433D01*
X12499Y281933D01*
X11500D01*
Y280933D01*
X24166Y236713D02*
X27165D01*
Y238212D01*
X26665Y238712D01*
X26166D01*
X25666Y238212D01*
Y236713D01*
Y238212D01*
X25166Y238712D01*
X24666D01*
X24166Y238212D01*
Y236713D01*
Y239712D02*
Y241711D01*
Y240711D01*
X27165D01*
Y242711D02*
X24166D01*
X27165Y244710D01*
X24166D01*
X68898Y389862D02*
Y392861D01*
X70397D01*
X70897Y392361D01*
Y391362D01*
X70397Y390862D01*
X68898D01*
X71897Y389862D02*
Y392861D01*
X73396D01*
X73896Y392361D01*
Y391362D01*
X73396Y390862D01*
X71897D01*
X72896D02*
X73896Y389862D01*
X76395Y392861D02*
X75396D01*
X74896Y392361D01*
Y390362D01*
X75396Y389862D01*
X76395D01*
X76895Y390362D01*
Y392361D01*
X76395Y392861D01*
X77895D02*
X79894Y389862D01*
Y392861D02*
X77895Y389862D01*
X80894Y392861D02*
Y392361D01*
X81893Y391362D01*
X82893Y392361D01*
Y392861D01*
X81893Y391362D02*
Y389862D01*
X86892D02*
X87892D01*
X87392D01*
Y392861D01*
X86892Y392361D01*
X39764Y236713D02*
X36765D01*
Y238212D01*
X37265Y238712D01*
X38264D01*
X38764Y238212D01*
Y236713D01*
Y237712D02*
X39764Y238712D01*
X37265Y241711D02*
X36765Y241211D01*
Y240212D01*
X37265Y239712D01*
X37764D01*
X38264Y240212D01*
Y241211D01*
X38764Y241711D01*
X39264D01*
X39764Y241211D01*
Y240212D01*
X39264Y239712D01*
X36765Y242711D02*
Y244710D01*
Y243710D01*
X39764D01*
X290401Y214665D02*
X287402D01*
Y213166D01*
X287901Y212666D01*
X288401D01*
X288901Y213166D01*
Y214665D01*
Y213166D01*
X289401Y212666D01*
X289901D01*
X290401Y213166D01*
Y214665D01*
X287402Y211666D02*
X289401D01*
X290401Y210667D01*
X289401Y209667D01*
X287402D01*
X288901D01*
Y211666D01*
X289901Y206668D02*
X290401Y207168D01*
Y208168D01*
X289901Y208667D01*
X289401D01*
X288901Y208168D01*
Y207168D01*
X288401Y206668D01*
X287901D01*
X287402Y207168D01*
Y208168D01*
X287901Y208667D01*
X290401Y203669D02*
Y205668D01*
X287402D01*
Y203669D01*
X288901Y205668D02*
Y204669D01*
X289901Y197671D02*
X290401Y198171D01*
Y199170D01*
X289901Y199670D01*
X287901D01*
X287402Y199170D01*
Y198171D01*
X287901Y197671D01*
X290401Y195172D02*
Y196171D01*
X289901Y196671D01*
X287901D01*
X287402Y196171D01*
Y195172D01*
X287901Y194672D01*
X289901D01*
X290401Y195172D01*
X287402Y193672D02*
X290401D01*
X287402Y191673D01*
X290401D01*
X287402Y190673D02*
X290401D01*
X287402Y188674D01*
X290401D01*
Y185675D02*
Y187674D01*
X287402D01*
Y185675D01*
X288901Y187674D02*
Y186674D01*
X289901Y182676D02*
X290401Y183176D01*
Y184175D01*
X289901Y184675D01*
X287901D01*
X287402Y184175D01*
Y183176D01*
X287901Y182676D01*
X290401Y181676D02*
Y179677D01*
Y180676D01*
X287402D01*
X68898Y342618D02*
Y345617D01*
X70397D01*
X70897Y345117D01*
Y344118D01*
X70397Y343618D01*
X68898D01*
X71897Y342618D02*
Y345617D01*
X73396D01*
X73896Y345117D01*
Y344118D01*
X73396Y343618D01*
X71897D01*
X72896D02*
X73896Y342618D01*
X76395Y345617D02*
X75396D01*
X74896Y345117D01*
Y343118D01*
X75396Y342618D01*
X76395D01*
X76895Y343118D01*
Y345117D01*
X76395Y345617D01*
X77895D02*
X79894Y342618D01*
Y345617D02*
X77895Y342618D01*
X80894Y345617D02*
Y345117D01*
X81893Y344118D01*
X82893Y345117D01*
Y345617D01*
X81893Y344118D02*
Y342618D01*
X86892Y345117D02*
X87392Y345617D01*
X88391D01*
X88891Y345117D01*
Y344618D01*
X88391Y344118D01*
X87892D01*
X88391D01*
X88891Y343618D01*
Y343118D01*
X88391Y342618D01*
X87392D01*
X86892Y343118D01*
X68898Y366240D02*
Y369239D01*
X70397D01*
X70897Y368739D01*
Y367740D01*
X70397Y367240D01*
X68898D01*
X71897Y366240D02*
Y369239D01*
X73396D01*
X73896Y368739D01*
Y367740D01*
X73396Y367240D01*
X71897D01*
X72896D02*
X73896Y366240D01*
X76395Y369239D02*
X75396D01*
X74896Y368739D01*
Y366740D01*
X75396Y366240D01*
X76395D01*
X76895Y366740D01*
Y368739D01*
X76395Y369239D01*
X77895D02*
X79894Y366240D01*
Y369239D02*
X77895Y366240D01*
X80894Y369239D02*
Y368739D01*
X81893Y367740D01*
X82893Y368739D01*
Y369239D01*
X81893Y367740D02*
Y366240D01*
X88891D02*
X86892D01*
X88891Y368239D01*
Y368739D01*
X88391Y369239D01*
X87392D01*
X86892Y368739D01*
X0Y0D02*
X620000D01*
X0D02*
Y600000D01*
X620000D01*
Y0D02*
Y600000D01*
D81*
X74296Y192999D02*
G03*
X74296Y192999I-492J0D01*
G01*
X73094Y107200D02*
G03*
X73094Y107200I-492J0D01*
G01*
X140256Y178740D02*
G03*
X140256Y178740I-492J0D01*
G01*
X323327Y305906D02*
G03*
X323327Y305906I-492J0D01*
G01*
Y419587D02*
G03*
X323327Y419587I-492J0D01*
G01*
X325689Y257874D02*
G03*
X325689Y257874I-492J0D01*
G01*
Y371555D02*
G03*
X325689Y371555I-492J0D01*
G01*
X302854Y265551D02*
G03*
X302854Y265551I-492J0D01*
G01*
Y379232D02*
G03*
X302854Y379232I-492J0D01*
G01*
X159941Y155118D02*
G03*
X159941Y155118I-492J0D01*
G01*
X328248Y51279D02*
G03*
X328248Y51279I-492J0D01*
G01*
X397146Y40256D02*
G03*
X397146Y40256I-492J0D01*
G01*
X24311Y227658D02*
G03*
X24311Y227658I-492J0D01*
G01*
Y200098D02*
G03*
X24311Y200098I-492J0D01*
G01*
X98721Y339075D02*
G03*
X98721Y339075I-492J0D01*
G01*
X302854Y492913D02*
G03*
X302854Y492913I-492J0D01*
G01*
X325689Y485236D02*
G03*
X325689Y485236I-492J0D01*
G01*
X323327Y533268D02*
G03*
X323327Y533268I-492J0D01*
G01*
X269528Y17185D02*
G03*
X269528Y17185I-492J0D01*
G01*
X192520Y261122D02*
G03*
X192520Y261122I-492J0D01*
G01*
X148005Y257900D02*
G03*
X148005Y257900I-492J0D01*
G01*
X163445Y215354D02*
G03*
X163445Y215354I-492J0D01*
G01*
X82392Y267039D02*
G03*
X82392Y267039I-492J0D01*
G01*
X242224Y152461D02*
G03*
X242224Y152461I-492J0D01*
G01*
X65158Y169783D02*
G03*
X65158Y169783I-492J0D01*
G01*
X229887Y67412D02*
G03*
X229887Y67412I-492J0D01*
G01*
X268110Y53248D02*
G03*
X268110Y53248I-492J0D01*
G01*
D82*
X108465Y333366D02*
G03*
X108465Y333366I-1181J0D01*
G01*
X172047Y212500D02*
G03*
X172047Y212500I-1181J0D01*
G01*
X75168Y269853D02*
G03*
X75168Y269853I-1181J0D01*
G01*
X234350Y156595D02*
G03*
X234350Y156595I-1181J0D01*
G01*
D83*
X569475Y269567D02*
X584829D01*
X569475Y285354D02*
X584829D01*
X542899Y269567D02*
X558253D01*
X542899Y285354D02*
X558253D01*
X516323Y269567D02*
X531677D01*
X516323Y285354D02*
X531677D01*
X489747Y269567D02*
X505101D01*
X489747Y285354D02*
X505101D01*
X598320Y329972D02*
X613674D01*
X598320Y314184D02*
X613674D01*
X571743Y329972D02*
X587098D01*
X571743Y314184D02*
X587098D01*
X545167Y329972D02*
X560522D01*
X545167Y314184D02*
X560522D01*
X518591Y329972D02*
X533946D01*
X518591Y314184D02*
X533946D01*
X492015Y329972D02*
X507370D01*
X492015Y314184D02*
X507370D01*
X596051Y383248D02*
X611405D01*
X596051Y399035D02*
X611405D01*
X569628Y383248D02*
X584982D01*
X569628Y399035D02*
X584982D01*
X543204Y383248D02*
X558559D01*
X543204Y399035D02*
X558559D01*
X516781Y383248D02*
X532135D01*
X516781Y399035D02*
X532135D01*
X489747Y383248D02*
X505101D01*
X489747Y399035D02*
X505101D01*
X598320Y442465D02*
X613674D01*
X598320Y426678D02*
X613674D01*
X571743Y442465D02*
X587098D01*
X571743Y426678D02*
X587098D01*
X545167Y442465D02*
X560522D01*
X545167Y426678D02*
X560522D01*
X518591Y442465D02*
X533946D01*
X518591Y426678D02*
X533946D01*
X492015Y442465D02*
X507370D01*
X492015Y426678D02*
X507370D01*
X596051Y496929D02*
X611405D01*
X596051Y512717D02*
X611405D01*
X569475Y496929D02*
X584829D01*
X569475Y512717D02*
X584829D01*
X542899Y496929D02*
X558253D01*
X542899Y512717D02*
X558253D01*
X516323Y496929D02*
X531677D01*
X516323Y512717D02*
X531677D01*
X489747Y496929D02*
X505101D01*
X489747Y512717D02*
X505101D01*
X598320Y556940D02*
X613674D01*
X598320Y541153D02*
X613674D01*
X571743Y556940D02*
X587098D01*
X571743Y541153D02*
X587098D01*
X545167Y556940D02*
X560522D01*
X545167Y541153D02*
X560522D01*
X518591Y556940D02*
X533946D01*
X518591Y541153D02*
X533946D01*
X492015Y556940D02*
X507370D01*
X492015Y541153D02*
X507370D01*
X133268Y28553D02*
Y30915D01*
X123425Y28553D02*
Y30915D01*
X32583Y253414D02*
Y262863D01*
X42031Y253414D02*
Y262863D01*
X89484Y189505D02*
X89484Y187930D01*
X207874Y260531D02*
X209449Y260531D01*
X130625Y115572D02*
X131989Y114784D01*
X52625Y126718D02*
X53989Y127505D01*
X71245Y183550D02*
Y189456D01*
X61206Y183550D02*
Y189456D01*
X69473Y183550D02*
X71245Y183550D01*
X61206D02*
X62977Y183550D01*
X76146Y104641D02*
X82051D01*
X76146Y94602D02*
X82051D01*
Y102869D02*
Y104641D01*
X82051Y96373D02*
X82051Y94602D01*
X149213Y176181D02*
X149213Y174409D01*
X149213Y166142D02*
X149213Y167913D01*
X143307Y166142D02*
X149213Y166142D01*
X143307Y176181D02*
X149213D01*
X267126Y313189D02*
Y336417D01*
X320276Y313189D02*
Y336417D01*
X267126Y283268D02*
Y306496D01*
X320276Y283268D02*
Y306496D01*
X267126Y336417D02*
X320276D01*
X267126Y283268D02*
X320276D01*
X267126Y426870D02*
Y450098D01*
X320276Y426870D02*
Y450098D01*
X267126Y396949D02*
Y420177D01*
X320276Y396949D02*
Y420177D01*
X267126Y450098D02*
X320276D01*
X267126Y396949D02*
X320276D01*
X335630Y282480D02*
X336614D01*
X335630Y260433D02*
X336614D01*
X324803Y282480D02*
X325787D01*
X324803Y260433D02*
X325787D01*
X336614D02*
Y282480D01*
X324803Y260433D02*
Y282480D01*
X335630Y396161D02*
X336614D01*
X335630Y374114D02*
X336614D01*
X324803Y396161D02*
X325787D01*
X324803Y374114D02*
X325787D01*
X336614D02*
Y396161D01*
X324803Y374114D02*
Y396161D01*
X340748Y288189D02*
X389567D01*
X340748Y238976D02*
X389567D01*
X340748Y275394D02*
Y288189D01*
X389567Y275197D02*
Y288189D01*
X340748Y238976D02*
Y251969D01*
X389567Y238976D02*
Y251772D01*
X340748Y401870D02*
X389567D01*
X340748Y352658D02*
X389567D01*
X340748Y389075D02*
Y401870D01*
X389567Y388878D02*
Y401870D01*
X340748Y352658D02*
Y365650D01*
X389567Y352658D02*
Y365453D01*
X314370Y253543D02*
X315551D01*
X314370Y248819D02*
X315551D01*
X314370Y367224D02*
X315551D01*
X314370Y362500D02*
X315551D01*
X305512Y257283D02*
X317323D01*
X305512Y267913D02*
X317323Y267913D01*
X305512Y381594D02*
X317323Y381594D01*
X305512Y370965D02*
X317323D01*
X168898Y142520D02*
Y144291D01*
Y150787D02*
Y152559D01*
X162992Y142520D02*
X168898D01*
X162992Y152559D02*
X168898D01*
X352362Y39862D02*
Y40846D01*
X330315Y39862D02*
Y40846D01*
X352362Y50689D02*
Y51673D01*
X330315Y50689D02*
Y51673D01*
Y39862D02*
X352362D01*
X330315Y51673D02*
X352362D01*
X372047Y50689D02*
Y51673D01*
X394094Y50689D02*
Y51673D01*
X372047Y39862D02*
Y40846D01*
X394094Y39862D02*
Y40846D01*
X372047Y51673D02*
X394094D01*
X372047Y39862D02*
X394094D01*
X48425Y216240D02*
Y217224D01*
X26378Y216240D02*
Y217224D01*
X48425Y227067D02*
Y228051D01*
X26378Y227067D02*
Y228051D01*
Y216240D02*
X48425D01*
X26378Y228051D02*
X48425D01*
Y188681D02*
Y189665D01*
X26378Y188681D02*
Y189665D01*
X48425Y199508D02*
Y200492D01*
X26378Y199508D02*
Y200492D01*
Y188681D02*
X48425D01*
X26378Y200492D02*
X48425D01*
X103347Y288090D02*
Y337303D01*
X152559Y288090D02*
Y337303D01*
X103347D02*
X152559D01*
X103347Y288090D02*
X152559D01*
X119325Y28553D02*
Y30915D01*
X109483Y28553D02*
Y30915D01*
X305512Y495276D02*
X317323Y495276D01*
X305512Y484646D02*
X317323D01*
X11019Y260653D02*
X12594Y260653D01*
X335630Y509842D02*
X336614D01*
X335630Y487795D02*
X336614D01*
X324803Y509842D02*
X325787D01*
X324803Y487795D02*
X325787D01*
X336614D02*
Y509842D01*
X324803Y487795D02*
Y509842D01*
X340748Y515551D02*
X389567D01*
X340748Y466339D02*
X389567D01*
X340748Y502756D02*
Y515551D01*
X389567Y502559D02*
Y515551D01*
X340748Y466339D02*
Y479331D01*
X389567Y466339D02*
Y479134D01*
X148391Y55798D02*
Y68002D01*
X187761Y55798D02*
Y68002D01*
X148391Y18790D02*
X148391Y30994D01*
X187761Y18790D02*
X187761Y30994D01*
X148391Y68002D02*
X187761D01*
X148391Y18790D02*
X187761Y18790D01*
X267126Y540551D02*
Y563779D01*
X320276Y540551D02*
Y563779D01*
X267126Y510630D02*
Y533858D01*
X320276Y510630D02*
Y533858D01*
X267126Y563779D02*
X320276D01*
X267126Y510630D02*
X320276D01*
X19683Y253514D02*
Y262963D01*
X29131Y253514D02*
Y262963D01*
X314370Y480905D02*
X315551D01*
X314370Y476181D02*
X315551D01*
X125013Y236550D02*
Y255250D01*
X151292Y236550D02*
Y255250D01*
X125013D02*
X151292D01*
X125013Y236550D02*
X151292D01*
X166929Y171949D02*
Y216437D01*
X188976Y171949D02*
Y216437D01*
X166929D02*
X188976D01*
X166929Y171949D02*
X188976D01*
X55876Y280484D02*
X77924D01*
X55876Y265916D02*
X77924D01*
X55876D02*
Y280484D01*
X77924Y265916D02*
Y280484D01*
X219587Y181398D02*
X237106D01*
X219587Y152657D02*
X237106D01*
X219587D02*
Y181398D01*
X237106Y152657D02*
Y181398D01*
X62106Y160335D02*
X62106Y166240D01*
X52067Y160335D02*
Y166240D01*
X60335Y160335D02*
X62106D01*
X52067D02*
X53839D01*
X203194Y60128D02*
X229572D01*
X203194Y58160D02*
Y60128D01*
X229572D02*
X229573Y58160D01*
X243470Y56093D02*
X258037D01*
X243470Y82077D02*
X258037D01*
X596051Y269567D02*
X611405D01*
X596051Y285354D02*
X611405D01*
M02*
