%FSLAX25Y25*%
%MOIN*%
G70*
G01*
G75*
G04 Layer_Physical_Order=2*
G04 Layer_Color=16711680*
%ADD10C,0.00700*%
%ADD11R,0.02953X0.02559*%
%ADD12R,0.02559X0.02953*%
%ADD13R,0.01969X0.12992*%
%ADD14R,0.05118X0.12992*%
%ADD15R,0.01969X0.02362*%
%ADD16R,0.03937X0.04331*%
%ADD17R,0.04331X0.03937*%
%ADD18R,0.10630X0.06299*%
%ADD19R,0.02362X0.01969*%
%ADD20R,0.05906X0.05118*%
%ADD21R,0.05118X0.05906*%
G04:AMPARAMS|DCode=22|XSize=39.37mil|YSize=43.31mil|CornerRadius=0mil|HoleSize=0mil|Usage=FLASHONLY|Rotation=135.000|XOffset=0mil|YOffset=0mil|HoleType=Round|Shape=Rectangle|*
%AMROTATEDRECTD22*
4,1,4,0.02923,0.00139,-0.00139,-0.02923,-0.02923,-0.00139,0.00139,0.02923,0.02923,0.00139,0.0*
%
%ADD22ROTATEDRECTD22*%

%ADD23R,0.03937X0.03937*%
%ADD24R,0.03543X0.02362*%
%ADD25R,0.02362X0.03543*%
G04:AMPARAMS|DCode=26|XSize=23.62mil|YSize=35.43mil|CornerRadius=0mil|HoleSize=0mil|Usage=FLASHONLY|Rotation=330.000|XOffset=0mil|YOffset=0mil|HoleType=Round|Shape=Rectangle|*
%AMROTATEDRECTD26*
4,1,4,-0.01909,-0.00944,-0.00137,0.02125,0.01909,0.00944,0.00137,-0.02125,-0.01909,-0.00944,0.0*
%
%ADD26ROTATEDRECTD26*%

G04:AMPARAMS|DCode=27|XSize=23.62mil|YSize=35.43mil|CornerRadius=0mil|HoleSize=0mil|Usage=FLASHONLY|Rotation=210.000|XOffset=0mil|YOffset=0mil|HoleType=Round|Shape=Rectangle|*
%AMROTATEDRECTD27*
4,1,4,0.00137,0.02125,0.01909,-0.00944,-0.00137,-0.02125,-0.01909,0.00944,0.00137,0.02125,0.0*
%
%ADD27ROTATEDRECTD27*%

%ADD28R,0.02008X0.02953*%
G04:AMPARAMS|DCode=29|XSize=20.08mil|YSize=29.53mil|CornerRadius=0mil|HoleSize=0mil|Usage=FLASHONLY|Rotation=240.000|XOffset=0mil|YOffset=0mil|HoleType=Round|Shape=Rectangle|*
%AMROTATEDRECTD29*
4,1,4,-0.00777,0.01608,0.01781,0.00131,0.00777,-0.01608,-0.01781,-0.00131,-0.00777,0.01608,0.0*
%
%ADD29ROTATEDRECTD29*%

G04:AMPARAMS|DCode=30|XSize=20.08mil|YSize=29.53mil|CornerRadius=0mil|HoleSize=0mil|Usage=FLASHONLY|Rotation=300.000|XOffset=0mil|YOffset=0mil|HoleType=Round|Shape=Rectangle|*
%AMROTATEDRECTD30*
4,1,4,-0.01781,0.00131,0.00777,0.01608,0.01781,-0.00131,-0.00777,-0.01608,-0.01781,0.00131,0.0*
%
%ADD30ROTATEDRECTD30*%

%ADD31R,0.03347X0.03937*%
%ADD32R,0.03347X0.03937*%
%ADD33R,0.03937X0.03347*%
%ADD34R,0.03937X0.03347*%
%ADD35R,0.20472X0.03543*%
%ADD36R,0.06693X0.09843*%
%ADD37R,0.11417X0.21260*%
%ADD38R,0.04528X0.05512*%
%ADD39R,0.06299X0.07874*%
%ADD40R,0.02756X0.01181*%
%ADD41R,0.09843X0.06693*%
%ADD42O,0.07087X0.01181*%
%ADD43O,0.01181X0.07087*%
%ADD44R,0.09449X0.02992*%
%ADD45R,0.15157X0.21654*%
%ADD46R,0.04724X0.09843*%
%ADD47R,0.01575X0.05315*%
%ADD48R,0.06299X0.05512*%
%ADD49R,0.07480X0.07087*%
%ADD50R,0.09055X0.05118*%
%ADD51R,0.05118X0.09055*%
%ADD52R,0.07087X0.07480*%
%ADD53R,0.05512X0.06299*%
%ADD54R,0.05315X0.01575*%
%ADD55R,0.13386X0.07087*%
%ADD56R,0.01181X0.03347*%
%ADD57R,0.07087X0.05512*%
%ADD58R,0.06299X0.02992*%
%ADD59R,0.06102X0.01772*%
%ADD60C,0.03937*%
%ADD61R,0.02953X0.02008*%
%ADD62R,0.21654X0.27165*%
%ADD63R,0.03740X0.07480*%
%ADD64R,0.07008X0.01654*%
%ADD65R,0.11811X0.16535*%
%ADD66C,0.01000*%
%ADD67C,0.00600*%
%ADD68C,0.02000*%
%ADD69C,0.03000*%
G04:AMPARAMS|DCode=70|XSize=23.62mil|YSize=39.37mil|CornerRadius=0mil|HoleSize=0mil|Usage=FLASHONLY|Rotation=60.000|XOffset=0mil|YOffset=0mil|HoleType=Round|Shape=Rectangle|*
%AMROTATEDRECTD70*
4,1,4,0.01114,-0.02007,-0.02295,-0.00039,-0.01114,0.02007,0.02295,0.00039,0.01114,-0.02007,0.0*
%
%ADD70ROTATEDRECTD70*%

G04:AMPARAMS|DCode=71|XSize=23.62mil|YSize=39.37mil|CornerRadius=0mil|HoleSize=0mil|Usage=FLASHONLY|Rotation=120.000|XOffset=0mil|YOffset=0mil|HoleType=Round|Shape=Rectangle|*
%AMROTATEDRECTD71*
4,1,4,0.02295,-0.00039,-0.01114,-0.02007,-0.02295,0.00039,0.01114,0.02007,0.02295,-0.00039,0.0*
%
%ADD71ROTATEDRECTD71*%

%ADD72R,0.02362X0.03937*%
%ADD73R,0.02362X0.03740*%
%ADD74C,0.06000*%
%ADD75C,0.05906*%
%ADD76C,0.11811*%
%ADD77C,0.20000*%
%ADD78C,0.00394*%
%ADD79C,0.02000*%
%ADD80C,0.02598*%
G36*
X200787Y287106D02*
Y274646D01*
X200309Y274501D01*
X200309D01*
X199867Y275162D01*
X199206Y275604D01*
X198925Y275660D01*
Y273721D01*
Y271781D01*
X199206Y271836D01*
X199867Y272278D01*
X200309Y272940D01*
X200309D01*
X200787Y272795D01*
Y267953D01*
X200309Y267808D01*
X200309D01*
X199867Y268470D01*
X199206Y268912D01*
X198925Y268967D01*
Y267028D01*
X198425D01*
Y266528D01*
X196485D01*
X196541Y266247D01*
X196777Y265894D01*
X196542Y265453D01*
X193616D01*
X193380Y265894D01*
X193616Y266247D01*
X193672Y266528D01*
X189793D01*
X189848Y266247D01*
X190085Y265894D01*
X189849Y265453D01*
X188583D01*
X187008Y267028D01*
Y285138D01*
X181102Y291043D01*
X166149D01*
X166004Y291522D01*
X166508Y291858D01*
X166665Y292094D01*
X195800D01*
X200787Y287106D01*
D02*
G37*
G36*
X324154Y316634D02*
X324288Y316309D01*
X324344Y316175D01*
X347966Y292553D01*
X348425Y292362D01*
X416737D01*
X416842Y292406D01*
X416956Y292400D01*
X417063Y292497D01*
X417196Y292553D01*
X417240Y292658D01*
X417324Y292734D01*
X417396Y292886D01*
X417892Y292947D01*
X417917Y292917D01*
X418908Y292104D01*
X420038Y291500D01*
X421264Y291128D01*
X422539Y291002D01*
X423815Y291128D01*
X425041Y291500D01*
X426171Y292104D01*
X427162Y292917D01*
X427186Y292947D01*
X427683Y292886D01*
X427755Y292734D01*
X427839Y292658D01*
X427882Y292553D01*
X428016Y292497D01*
X428123Y292400D01*
X428236Y292406D01*
X428342Y292362D01*
X482015D01*
X554469Y219908D01*
Y74777D01*
X507605Y27913D01*
X337671D01*
X304790Y60794D01*
X304331Y60984D01*
X299128D01*
X299037Y60947D01*
X298939Y60956D01*
X298816Y60855D01*
X298668Y60794D01*
X298631Y60703D01*
X298555Y60641D01*
X298402Y60356D01*
X297932Y60238D01*
X297908Y60240D01*
X297868Y60267D01*
X297244Y60391D01*
X296620Y60267D01*
X296091Y59913D01*
X295737Y59384D01*
X295613Y58760D01*
X295613Y58760D01*
X295613Y58760D01*
X295526Y58381D01*
X295026D01*
X294938Y58760D01*
X294938Y58760D01*
X294938D01*
X294814Y59384D01*
X294461Y59913D01*
X293931Y60267D01*
X293307Y60391D01*
X292683Y60267D01*
X292154Y59913D01*
X291800Y59384D01*
X291676Y58760D01*
X291676Y58760D01*
X291676Y58760D01*
X291589Y58381D01*
X291089D01*
X291001Y58760D01*
X291001Y58760D01*
X291001D01*
X290877Y59384D01*
X290524Y59913D01*
X289994Y60267D01*
X289370Y60391D01*
X288746Y60267D01*
X288216Y59913D01*
X287863Y59384D01*
X287739Y58760D01*
X287739Y58760D01*
X287739Y58760D01*
X287652Y58381D01*
X287152D01*
X287064Y58760D01*
X287064Y58760D01*
X287064D01*
X286940Y59384D01*
X286587Y59913D01*
X286057Y60267D01*
X285433Y60391D01*
X284809Y60267D01*
X284769Y60240D01*
X284646Y60228D01*
X284246Y60382D01*
X284239Y60407D01*
X284064Y60512D01*
X283906Y60641D01*
X283856Y60637D01*
X283813Y60662D01*
X283318Y60736D01*
X283270Y60724D01*
X283223Y60743D01*
X283034Y60665D01*
X282836Y60615D01*
X282810Y60572D01*
X282764Y60553D01*
X276402Y54191D01*
X275902Y54191D01*
X270243Y59850D01*
X270298Y60128D01*
X270174Y60753D01*
X269820Y61282D01*
X269291Y61636D01*
X268667Y61760D01*
X268043Y61636D01*
X267513Y61282D01*
X267160Y60753D01*
X267036Y60128D01*
X267160Y59504D01*
X267513Y58975D01*
X268043Y58621D01*
X268667Y58497D01*
X268945Y58552D01*
X274688Y52810D01*
X274605Y52393D01*
X250125Y27913D01*
X92789D01*
X38132Y82570D01*
X37957Y82643D01*
X37799Y82748D01*
X37734Y82735D01*
X37672Y82761D01*
X37497Y82688D01*
X37312Y82651D01*
X36896Y82373D01*
X36138Y82879D01*
X36116Y82908D01*
X36088Y82930D01*
X35582Y83687D01*
X35860Y84103D01*
X35897Y84289D01*
X35969Y84464D01*
X35944Y84525D01*
X35957Y84590D01*
X35851Y84748D01*
X35779Y84923D01*
X33924Y86778D01*
X33465Y86968D01*
X0D01*
Y407267D01*
X72053D01*
X73733Y405587D01*
X73733Y405587D01*
X73733Y405587D01*
X83633Y395688D01*
X83633Y395688D01*
X83633Y395688D01*
X93532Y385788D01*
X93532Y385788D01*
X93532Y385788D01*
X103432Y375889D01*
X103432Y375889D01*
X103432Y375889D01*
X113331Y365989D01*
X113331Y365989D01*
X113331Y365989D01*
X122407Y356914D01*
X122760Y356061D01*
X121588Y354888D01*
X121398Y354429D01*
Y333299D01*
X104711D01*
X97776Y340234D01*
X98012Y340675D01*
X98425Y340593D01*
X99050Y340717D01*
X99579Y341071D01*
X99932Y341600D01*
X100057Y342224D01*
X99932Y342849D01*
X99579Y343378D01*
X99050Y343732D01*
X98425Y343856D01*
X98147Y343800D01*
X86222Y355726D01*
X86277Y356004D01*
X86153Y356628D01*
X85799Y357157D01*
X85270Y357511D01*
X84646Y357635D01*
X84021Y357511D01*
X83492Y357157D01*
X83139Y356628D01*
X83014Y356004D01*
X83097Y355590D01*
X82656Y355355D01*
X80316Y357694D01*
X80371Y357972D01*
X80247Y358597D01*
X79894Y359126D01*
X79364Y359480D01*
X78740Y359604D01*
X78116Y359480D01*
X77587Y359126D01*
X77233Y358597D01*
X77109Y357972D01*
X77233Y357348D01*
X77587Y356819D01*
X78116Y356465D01*
X78740Y356341D01*
X79018Y356396D01*
X84205Y351210D01*
X84014Y350748D01*
X49482Y350748D01*
X47106Y353123D01*
Y367364D01*
X47605Y367397D01*
X47674Y366875D01*
X48037Y365999D01*
X48614Y365247D01*
X49366Y364670D01*
X50241Y364308D01*
X51181Y364184D01*
X52121Y364308D01*
X52997Y364670D01*
X53749Y365247D01*
X54326Y365999D01*
X54688Y366875D01*
X54812Y367815D01*
X54688Y368755D01*
X54326Y369631D01*
X53749Y370382D01*
X52997Y370959D01*
X52121Y371322D01*
X51181Y371446D01*
X50241Y371322D01*
X49366Y370959D01*
X48614Y370382D01*
X48037Y369631D01*
X47674Y368755D01*
X47605Y368233D01*
X47106Y368266D01*
Y390986D01*
X47605Y391019D01*
X47674Y390497D01*
X48037Y389621D01*
X48614Y388870D01*
X49366Y388292D01*
X50241Y387930D01*
X51181Y387806D01*
X52121Y387930D01*
X52997Y388292D01*
X53749Y388870D01*
X54326Y389621D01*
X54688Y390497D01*
X54812Y391437D01*
X54688Y392377D01*
X54326Y393252D01*
X53749Y394005D01*
X52997Y394582D01*
X52121Y394944D01*
X51181Y395068D01*
X50241Y394944D01*
X49366Y394582D01*
X48614Y394005D01*
X48037Y393252D01*
X47674Y392377D01*
X47605Y391855D01*
X47106Y391888D01*
Y395374D01*
X46916Y395833D01*
X44554Y398195D01*
X44094Y398386D01*
X37402D01*
X36942Y398195D01*
X34974Y396227D01*
X34784Y395768D01*
Y342224D01*
X34918Y341900D01*
X34974Y341765D01*
X38911Y337828D01*
X39370Y337638D01*
X72566D01*
X89902Y320302D01*
Y306791D01*
X90036Y306467D01*
X90092Y306332D01*
X101903Y294521D01*
X102362Y294331D01*
X111533D01*
X111747Y293879D01*
X111486Y293561D01*
X107605D01*
X107254Y293491D01*
X106956Y293292D01*
X84759Y271095D01*
X84560Y270797D01*
X84490Y270446D01*
Y216989D01*
X77573Y210071D01*
X72821D01*
X72089Y210803D01*
X71980Y211353D01*
X71626Y211882D01*
X71097Y212235D01*
X70472Y212360D01*
X69848Y212235D01*
X69319Y211882D01*
X68965Y211353D01*
X68841Y210728D01*
X68965Y210104D01*
X69319Y209575D01*
X69848Y209221D01*
X70472Y209097D01*
X71079Y209218D01*
X71792Y208505D01*
X71792Y208219D01*
X71767Y208202D01*
X71079Y207515D01*
X70472Y207635D01*
X69848Y207511D01*
X69319Y207157D01*
X68965Y206628D01*
X68841Y206004D01*
X68965Y205380D01*
X69319Y204850D01*
X69848Y204497D01*
X70472Y204373D01*
X71097Y204497D01*
X71626Y204850D01*
X71980Y205380D01*
X72089Y205929D01*
X72796Y206636D01*
X78615D01*
X78967Y206706D01*
X79264Y206905D01*
X87657Y215297D01*
X87856Y215595D01*
X87925Y215946D01*
Y269403D01*
X108648Y290126D01*
X111491D01*
X111808Y289739D01*
X111755Y289469D01*
X111879Y288844D01*
X112232Y288315D01*
X112761Y287961D01*
X113386Y287837D01*
X114010Y287961D01*
X114539Y288315D01*
X114893Y288844D01*
X115017Y289469D01*
X114893Y290093D01*
X114539Y290622D01*
X114075Y290933D01*
X114035Y290992D01*
X113335Y291692D01*
Y291995D01*
X114035Y292694D01*
X114044Y292708D01*
X114539Y293039D01*
X114893Y293569D01*
X115017Y294193D01*
X115130Y294331D01*
X115873D01*
X119429Y290774D01*
Y275295D01*
X119620Y274836D01*
X121514Y272942D01*
X121323Y272480D01*
X116142D01*
X115712Y272394D01*
X115349Y272151D01*
X115349Y272151D01*
X91727Y248529D01*
X91483Y248165D01*
X91398Y247736D01*
X91398Y247736D01*
Y212768D01*
X82213Y203582D01*
X79128D01*
X79106Y203614D01*
X78577Y203968D01*
X77953Y204092D01*
X77328Y203968D01*
X76799Y203614D01*
X76446Y203085D01*
X76321Y202461D01*
X76446Y201836D01*
X76799Y201307D01*
X77328Y200953D01*
X77953Y200829D01*
X78577Y200953D01*
X79106Y201307D01*
X79128Y201339D01*
X82677D01*
X82677Y201339D01*
X83106Y201424D01*
X83470Y201668D01*
X93313Y211510D01*
X93556Y211874D01*
X93641Y212303D01*
X93641Y212303D01*
Y247272D01*
X116606Y270237D01*
X136220D01*
X136221Y270237D01*
X136650Y270322D01*
X137013Y270565D01*
X138982Y272534D01*
X139225Y272898D01*
X139311Y273327D01*
X139311Y273327D01*
Y283886D01*
X143378Y287953D01*
X148431D01*
X148453Y287921D01*
X148982Y287568D01*
X149606Y287443D01*
X150231Y287568D01*
X150760Y287921D01*
X151113Y288451D01*
X151238Y289075D01*
X151113Y289699D01*
X150944Y289953D01*
X151180Y290394D01*
X164559D01*
X164707Y290455D01*
X164865Y290471D01*
X164928Y290546D01*
X165018Y290584D01*
X165078Y290727D01*
X165078D01*
X165078Y290727D01*
X165310Y290762D01*
X165399D01*
X165631Y290727D01*
Y290727D01*
X165631D01*
X165690Y290584D01*
X165781Y290546D01*
X165843Y290471D01*
X166002Y290455D01*
X166149Y290394D01*
X180833D01*
X186358Y284869D01*
Y267028D01*
X186493Y266703D01*
X186549Y266568D01*
X188124Y264994D01*
X188583Y264803D01*
X189849D01*
X189940Y264841D01*
X190037Y264831D01*
X190161Y264932D01*
X190308Y264994D01*
X190346Y265084D01*
X190422Y265147D01*
X190574Y265432D01*
X191044Y265549D01*
X191068Y265547D01*
X191108Y265520D01*
X191732Y265396D01*
X192357Y265520D01*
X192397Y265547D01*
X192420Y265549D01*
X192891Y265432D01*
X193043Y265147D01*
X193119Y265084D01*
X193157Y264994D01*
X193304Y264932D01*
X193427Y264831D01*
X193525Y264841D01*
X193616Y264803D01*
X196542D01*
X196633Y264841D01*
X196730Y264831D01*
X196854Y264932D01*
X197001Y264994D01*
X197038Y265084D01*
X197115Y265147D01*
X197267Y265432D01*
X197737Y265549D01*
X197761Y265547D01*
X197801Y265520D01*
X198425Y265396D01*
X199049Y265520D01*
X199579Y265874D01*
X199932Y266403D01*
X200057Y267027D01*
X200057Y267028D01*
D01*
X200309Y267159D01*
X200309D01*
X200400Y267196D01*
X200498Y267187D01*
X200976Y267332D01*
X201099Y267433D01*
X201247Y267494D01*
X201284Y267585D01*
X201360Y267648D01*
X201376Y267806D01*
X201437Y267953D01*
Y272795D01*
X201376Y272942D01*
X201360Y273100D01*
X201284Y273163D01*
X201247Y273254D01*
X201099Y273315D01*
X200976Y273416D01*
X200797Y273470D01*
Y273971D01*
X200976Y274025D01*
X201099Y274126D01*
X201247Y274187D01*
X201284Y274278D01*
X201360Y274341D01*
X201376Y274499D01*
X201437Y274646D01*
Y287106D01*
X201247Y287565D01*
X197180Y291632D01*
X197371Y292094D01*
X210250D01*
X217586Y284758D01*
Y215583D01*
X217350Y215425D01*
X216997Y214896D01*
X216873Y214272D01*
X216997Y213647D01*
X217350Y213118D01*
X217880Y212765D01*
X218504Y212640D01*
X219128Y212765D01*
X219657Y213118D01*
X220011Y213647D01*
X220135Y214272D01*
X220011Y214896D01*
X219657Y215425D01*
X219422Y215583D01*
Y216474D01*
X219848Y216702D01*
X220472Y216577D01*
X221097Y216702D01*
X221523Y216474D01*
Y215583D01*
X221287Y215425D01*
X220934Y214896D01*
X220810Y214272D01*
X220934Y213647D01*
X221287Y213118D01*
X221817Y212765D01*
X222441Y212640D01*
X223065Y212765D01*
X223594Y213118D01*
X223948Y213647D01*
X224072Y214272D01*
X223948Y214896D01*
X223594Y215425D01*
X223359Y215583D01*
Y216474D01*
X223785Y216702D01*
X224410Y216577D01*
X225034Y216702D01*
X225460Y216474D01*
Y215583D01*
X225224Y215425D01*
X224871Y214896D01*
X224747Y214272D01*
X224871Y213647D01*
X225224Y213118D01*
X225754Y212765D01*
X226378Y212640D01*
X227002Y212765D01*
X227532Y213118D01*
X227885Y213647D01*
X228009Y214272D01*
X227885Y214896D01*
X227532Y215425D01*
X227296Y215583D01*
Y293012D01*
X227226Y293363D01*
X227027Y293661D01*
X217184Y303503D01*
X216887Y303702D01*
X216535Y303772D01*
X177815D01*
Y323590D01*
X205382D01*
X205539Y323354D01*
X206069Y323001D01*
X206693Y322877D01*
X207317Y323001D01*
X207846Y323354D01*
X208200Y323884D01*
X208324Y324508D01*
X208200Y325132D01*
X208428Y325559D01*
X209319D01*
X209476Y325323D01*
X210006Y324969D01*
X210630Y324845D01*
X211254Y324969D01*
X211784Y325323D01*
X212137Y325852D01*
X212261Y326476D01*
X212137Y327101D01*
X212365Y327527D01*
X213256D01*
X213413Y327291D01*
X213943Y326938D01*
X214567Y326814D01*
X215191Y326938D01*
X215721Y327291D01*
X216074Y327821D01*
X216198Y328445D01*
X216074Y329069D01*
X215721Y329598D01*
X215191Y329952D01*
X214567Y330076D01*
X213943Y329952D01*
X213413Y329598D01*
X213256Y329363D01*
X212365D01*
X212137Y329789D01*
X212261Y330413D01*
X212137Y331038D01*
X211784Y331567D01*
X211254Y331921D01*
X210630Y332045D01*
X210006Y331921D01*
X209476Y331567D01*
X209319Y331331D01*
X167089D01*
X166861Y331758D01*
X166986Y332382D01*
X166861Y333006D01*
X166508Y333535D01*
X165979Y333889D01*
X165941Y333896D01*
Y334397D01*
X166135Y334435D01*
X166796Y334877D01*
X167238Y335539D01*
X167294Y335819D01*
X163415D01*
X163470Y335539D01*
X163912Y334877D01*
X164574Y334435D01*
X164767Y334397D01*
Y333896D01*
X164730Y333889D01*
X164201Y333535D01*
X164043Y333299D01*
X151955D01*
X151182Y334072D01*
X151238Y334350D01*
X151113Y334975D01*
X150760Y335504D01*
X150231Y335858D01*
X149606Y335982D01*
X148982Y335858D01*
X148453Y335504D01*
X148099Y334975D01*
X147975Y334350D01*
X148099Y333726D01*
X148453Y333197D01*
X148982Y332843D01*
X149606Y332719D01*
X149885Y332774D01*
X150866Y331793D01*
X150703Y331399D01*
X150657Y331331D01*
X146981D01*
X146823Y331567D01*
X146294Y331921D01*
X145669Y332045D01*
X145045Y331921D01*
X144791Y331751D01*
X144638Y331833D01*
X144565Y332327D01*
X148097Y335860D01*
X148097Y335860D01*
X148287Y336319D01*
X148097Y336778D01*
X144999Y339876D01*
X145190Y340338D01*
X218504D01*
X219226Y340482D01*
X219838Y340891D01*
X220500Y341553D01*
X220998Y341504D01*
X221287Y341071D01*
X221817Y340717D01*
X222441Y340593D01*
X223065Y340717D01*
X223594Y341071D01*
X223948Y341600D01*
X224072Y342224D01*
X223948Y342849D01*
X223594Y343378D01*
X223359Y343536D01*
Y457986D01*
X232664Y467291D01*
X299902D01*
X300253Y467361D01*
X300550Y467560D01*
X318963Y485972D01*
X319460Y485923D01*
X319516Y485840D01*
X320045Y485487D01*
X320669Y485362D01*
X321294Y485487D01*
X321823Y485840D01*
X322177Y486369D01*
X322301Y486994D01*
X322177Y487618D01*
X321823Y488147D01*
X321294Y488501D01*
X320669Y488625D01*
X320045Y488501D01*
X319516Y488147D01*
X319358Y487911D01*
X318687D01*
X318335Y487842D01*
X318038Y487643D01*
X299521Y469126D01*
X232283D01*
X231932Y469056D01*
X231635Y468857D01*
X224789Y462012D01*
X224327Y462203D01*
Y600000D01*
X324154D01*
Y316634D01*
D02*
G37*
G36*
X620079Y492D02*
X619685Y98D01*
X0D01*
Y86319D01*
X33465D01*
X35320Y84464D01*
X35042Y84048D01*
X34615Y84225D01*
X34083Y84295D01*
Y80874D01*
X37504D01*
X37434Y81406D01*
X37257Y81833D01*
X37672Y82111D01*
X92520Y27264D01*
X250394D01*
X275064Y51934D01*
X275564D01*
X283835Y43662D01*
X283780Y43384D01*
X283904Y42760D01*
X284258Y42230D01*
X284787Y41877D01*
X285411Y41752D01*
X286036Y41877D01*
X286565Y42230D01*
X286919Y42760D01*
X287043Y43384D01*
X286919Y44008D01*
X286565Y44537D01*
X286036Y44891D01*
X285411Y45015D01*
X285133Y44960D01*
X276862Y53232D01*
Y53732D01*
X283223Y60093D01*
X283718Y60020D01*
X283785Y59894D01*
X283549Y59540D01*
X283493Y59260D01*
X285433D01*
Y58760D01*
X285933D01*
Y56820D01*
X286213Y56876D01*
X286875Y57318D01*
X287152Y57732D01*
X287652D01*
X287928Y57318D01*
X288590Y56876D01*
X288870Y56820D01*
Y58760D01*
X289870D01*
Y56820D01*
X290150Y56876D01*
X290812Y57318D01*
X291089Y57732D01*
X291589D01*
X291865Y57318D01*
X292527Y56876D01*
X292807Y56820D01*
Y58760D01*
X293807D01*
Y56820D01*
X294087Y56876D01*
X294749Y57318D01*
X295026Y57732D01*
X295526D01*
X295802Y57318D01*
X296464Y56876D01*
X296744Y56820D01*
Y58760D01*
X297244D01*
Y59260D01*
X299184D01*
X299128Y59540D01*
X298892Y59894D01*
X299128Y60335D01*
X304331D01*
X337402Y27264D01*
X507874D01*
X555118Y74508D01*
Y220177D01*
X482283Y293012D01*
X428342D01*
X428128Y293464D01*
X428309Y293684D01*
X428950Y294884D01*
X429345Y296186D01*
X429429Y297039D01*
X415650D01*
X415734Y296186D01*
X416129Y294884D01*
X416770Y293684D01*
X416951Y293464D01*
X416737Y293012D01*
X348425D01*
X324803Y316634D01*
Y600492D01*
X620079D01*
Y492D01*
D02*
G37*
G36*
X46457Y395374D02*
Y352854D01*
X49213Y350098D01*
X85039Y350098D01*
X95866Y339272D01*
X102756Y332382D01*
X103033D01*
X103682Y331733D01*
X103980Y331534D01*
X104038Y331522D01*
X104331Y331464D01*
X108501D01*
X108729Y331038D01*
X108605Y330413D01*
X108729Y329789D01*
X108501Y329363D01*
X107610D01*
X107453Y329598D01*
X106923Y329952D01*
X106299Y330076D01*
X105675Y329952D01*
X105146Y329598D01*
X104792Y329069D01*
X104668Y328445D01*
X104792Y327821D01*
X105146Y327291D01*
X105675Y326938D01*
X106299Y326814D01*
X106923Y326938D01*
X107453Y327291D01*
X107610Y327527D01*
X108501D01*
X108729Y327101D01*
X108605Y326476D01*
X108729Y325852D01*
X108501Y325426D01*
X107610D01*
X107453Y325661D01*
X106923Y326015D01*
X106299Y326139D01*
X105675Y326015D01*
X105146Y325661D01*
X104792Y325132D01*
X104668Y324508D01*
X104792Y323884D01*
X105146Y323354D01*
X105675Y323001D01*
X106299Y322877D01*
X106923Y323001D01*
X107453Y323354D01*
X107610Y323590D01*
X130579D01*
X130736Y323354D01*
X131265Y323001D01*
X131890Y322877D01*
X132514Y323001D01*
X133043Y323354D01*
X133397Y323884D01*
X133521Y324508D01*
X133397Y325132D01*
X133043Y325661D01*
X132514Y326015D01*
X131890Y326139D01*
X131265Y326015D01*
X130736Y325661D01*
X130579Y325426D01*
X129688D01*
X129460Y325852D01*
X129584Y326476D01*
X129460Y327101D01*
X129688Y327527D01*
X130579D01*
X130736Y327291D01*
X131265Y326938D01*
X131890Y326814D01*
X132514Y326938D01*
X133043Y327291D01*
X133397Y327821D01*
X133521Y328445D01*
X133397Y329069D01*
X133625Y329496D01*
X134516D01*
X134673Y329260D01*
X135203Y328906D01*
X135827Y328782D01*
X136451Y328906D01*
X136980Y329260D01*
X137334Y329789D01*
X137458Y330413D01*
X137334Y331038D01*
X137562Y331464D01*
X138453D01*
X138610Y331228D01*
X139139Y330875D01*
X139764Y330750D01*
X140388Y330875D01*
X140917Y331228D01*
X141271Y331758D01*
X141395Y332382D01*
X141271Y333006D01*
X140917Y333535D01*
X140388Y333889D01*
X139764Y334013D01*
X139139Y333889D01*
X138610Y333535D01*
X138453Y333299D01*
X122047D01*
Y354429D01*
X123219Y355601D01*
X123719Y355601D01*
X124758Y354562D01*
X124936Y354296D01*
X124494Y353635D01*
X124438Y353354D01*
X126378D01*
Y352854D01*
X126878D01*
Y350915D01*
X127158Y350970D01*
X127820Y351412D01*
X128096Y351826D01*
X128596D01*
X128873Y351412D01*
X129535Y350970D01*
X129535Y350970D01*
X129535D01*
X129809Y350559D01*
X129765Y350337D01*
X129909Y349615D01*
X130317Y349003D01*
X133130Y346190D01*
X133130Y346190D01*
X133130Y346190D01*
X138430Y340891D01*
X139042Y340482D01*
X139764Y340338D01*
X143619D01*
X147638Y336319D01*
X143701Y332382D01*
Y329363D01*
X143043D01*
X142886Y329598D01*
X142357Y329952D01*
X141732Y330076D01*
X141108Y329952D01*
X140579Y329598D01*
X140225Y329069D01*
X140101Y328445D01*
X140225Y327821D01*
X139997Y327394D01*
X139106D01*
X138949Y327630D01*
X138420Y327984D01*
X137795Y328108D01*
X137171Y327984D01*
X136642Y327630D01*
X136288Y327101D01*
X136164Y326476D01*
X136288Y325852D01*
X136642Y325323D01*
X137171Y324969D01*
X137795Y324845D01*
X138420Y324969D01*
X138949Y325323D01*
X139106Y325559D01*
X139997D01*
X140225Y325132D01*
X140101Y324508D01*
X140225Y323884D01*
X140579Y323354D01*
X141108Y323001D01*
X141732Y322877D01*
X142357Y323001D01*
X142886Y323354D01*
X143043Y323590D01*
X177165D01*
Y303772D01*
X142112D01*
X141083Y304801D01*
X141319Y305242D01*
X141732Y305160D01*
X142357Y305284D01*
X142886Y305638D01*
X143239Y306167D01*
X143364Y306791D01*
X143239Y307416D01*
X142886Y307945D01*
X142357Y308298D01*
X141732Y308423D01*
X141454Y308367D01*
X140413Y309409D01*
X140115Y309608D01*
X139764Y309678D01*
X112585D01*
X77421Y344842D01*
X77123Y345041D01*
X76772Y345111D01*
X64691D01*
X64688Y345133D01*
X64326Y346008D01*
X63749Y346761D01*
X62997Y347338D01*
X62121Y347700D01*
X61181Y347824D01*
X60241Y347700D01*
X59366Y347338D01*
X58614Y346761D01*
X58037Y346008D01*
X57674Y345133D01*
X57550Y344193D01*
X57674Y343253D01*
X58037Y342377D01*
X58614Y341625D01*
X59366Y341048D01*
X60241Y340686D01*
X61181Y340562D01*
X62121Y340686D01*
X62997Y341048D01*
X63749Y341625D01*
X64326Y342377D01*
X64688Y343253D01*
X64691Y343275D01*
X76392D01*
X111496Y308171D01*
X111333Y307777D01*
X111287Y307709D01*
X109579D01*
X109421Y307945D01*
X108892Y308298D01*
X108268Y308423D01*
X107643Y308298D01*
X107114Y307945D01*
X106761Y307416D01*
X106636Y306791D01*
X106761Y306167D01*
X107114Y305638D01*
X107643Y305284D01*
X108268Y305160D01*
X108892Y305284D01*
X109421Y305638D01*
X109579Y305874D01*
X110469D01*
X110698Y305447D01*
X110573Y304823D01*
X110698Y304199D01*
X110469Y303772D01*
X109579D01*
X109421Y304008D01*
X108892Y304362D01*
X108268Y304486D01*
X107643Y304362D01*
X107114Y304008D01*
X106761Y303479D01*
X106636Y302854D01*
X106761Y302230D01*
X107114Y301701D01*
X107643Y301347D01*
X108268Y301223D01*
X108892Y301347D01*
X109421Y301701D01*
X109579Y301937D01*
X110469D01*
X110698Y301510D01*
X110573Y300886D01*
X110698Y300261D01*
X111051Y299732D01*
X111580Y299379D01*
X112205Y299254D01*
X112829Y299379D01*
X113358Y299732D01*
X113516Y299968D01*
X131510D01*
X135178Y296300D01*
X135476Y296101D01*
X135534Y296089D01*
X135827Y296031D01*
X191862D01*
X193502Y294391D01*
X193311Y293929D01*
X166665D01*
X166508Y294165D01*
X165979Y294519D01*
X165354Y294643D01*
X164730Y294519D01*
X164201Y294165D01*
X163847Y293636D01*
X163723Y293012D01*
X163847Y292388D01*
X164201Y291858D01*
X164704Y291522D01*
X164559Y291043D01*
X129921D01*
X126772Y287894D01*
Y277254D01*
X126293Y277109D01*
X125959Y277609D01*
X125297Y278051D01*
X125017Y278107D01*
Y276167D01*
Y274227D01*
X125297Y274283D01*
X125959Y274725D01*
X126293Y275225D01*
X126772Y275080D01*
Y274508D01*
X125591Y273327D01*
X122047D01*
X120079Y275295D01*
Y291043D01*
X116142Y294980D01*
X114784D01*
X114539Y295346D01*
X114010Y295700D01*
X113386Y295824D01*
X112761Y295700D01*
X112232Y295346D01*
X111988Y294980D01*
X102362D01*
X90551Y306791D01*
Y320571D01*
X72835Y338287D01*
X39370D01*
X35433Y342224D01*
Y395768D01*
X37402Y397736D01*
X44094D01*
X46457Y395374D01*
D02*
G37*
%LPC*%
G36*
X13083Y84295D02*
X12551Y84225D01*
X11589Y83827D01*
X10763Y83193D01*
X10130Y82367D01*
X9732Y81406D01*
X9662Y80874D01*
X13083D01*
Y84295D01*
D02*
G37*
G36*
X124016Y80076D02*
X123391Y79952D01*
X122862Y79598D01*
X122705Y79362D01*
X52492D01*
X52335Y79598D01*
X51805Y79952D01*
X51181Y80076D01*
X50557Y79952D01*
X50028Y79598D01*
X49674Y79069D01*
X49550Y78445D01*
X49674Y77821D01*
X50028Y77291D01*
X50557Y76938D01*
X51181Y76814D01*
X51805Y76938D01*
X52335Y77291D01*
X52492Y77527D01*
X122705D01*
X122862Y77291D01*
X123391Y76938D01*
X124016Y76814D01*
X124640Y76938D01*
X125169Y77291D01*
X125523Y77821D01*
X125647Y78445D01*
X125523Y79069D01*
X125169Y79598D01*
X124640Y79952D01*
X124016Y80076D01*
D02*
G37*
G36*
X14083Y84295D02*
Y80874D01*
X17504D01*
X17434Y81406D01*
X17035Y82367D01*
X16402Y83193D01*
X15576Y83827D01*
X14615Y84225D01*
X14083Y84295D01*
D02*
G37*
G36*
X24083D02*
Y80874D01*
X27504D01*
X27434Y81406D01*
X27035Y82367D01*
X26402Y83193D01*
X25576Y83827D01*
X24614Y84225D01*
X24083Y84295D01*
D02*
G37*
G36*
X23083D02*
X22551Y84225D01*
X21589Y83827D01*
X20764Y83193D01*
X20130Y82367D01*
X19732Y81406D01*
X19662Y80874D01*
X23083D01*
Y84295D01*
D02*
G37*
G36*
X124016Y76139D02*
X123391Y76015D01*
X122862Y75661D01*
X122705Y75425D01*
X52492D01*
X52335Y75661D01*
X51805Y76015D01*
X51181Y76139D01*
X50557Y76015D01*
X50028Y75661D01*
X49674Y75132D01*
X49550Y74508D01*
X49674Y73884D01*
X50028Y73354D01*
X50557Y73001D01*
X51181Y72877D01*
X51805Y73001D01*
X52335Y73354D01*
X52492Y73590D01*
X122705D01*
X122862Y73354D01*
X123391Y73001D01*
X124016Y72877D01*
X124640Y73001D01*
X125169Y73354D01*
X125523Y73884D01*
X125647Y74508D01*
X125523Y75132D01*
X125169Y75661D01*
X124640Y76015D01*
X124016Y76139D01*
D02*
G37*
G36*
X37504Y79874D02*
X29662D01*
X29732Y79342D01*
X30130Y78381D01*
X30764Y77555D01*
X31587Y76923D01*
Y76423D01*
X30764Y75792D01*
X30130Y74966D01*
X29732Y74004D01*
X29662Y73472D01*
X37504D01*
X37434Y74004D01*
X37035Y74966D01*
X36402Y75792D01*
X35579Y76423D01*
Y76923D01*
X36402Y77555D01*
X37035Y78381D01*
X37434Y79342D01*
X37504Y79874D01*
D02*
G37*
G36*
X27504D02*
X19662D01*
X19732Y79342D01*
X20130Y78381D01*
X20764Y77555D01*
X21587Y76923D01*
Y76423D01*
X20764Y75792D01*
X20130Y74966D01*
X19732Y74004D01*
X19662Y73472D01*
X27504D01*
X27434Y74004D01*
X27035Y74966D01*
X26402Y75792D01*
X25579Y76423D01*
Y76923D01*
X26402Y77555D01*
X27035Y78381D01*
X27434Y79342D01*
X27504Y79874D01*
D02*
G37*
G36*
X246029Y78108D02*
X245288Y77961D01*
X244660Y77541D01*
X244240Y76913D01*
X244093Y76172D01*
X244240Y75431D01*
X244660Y74802D01*
X245288Y74383D01*
X246029Y74235D01*
X246770Y74383D01*
X247398Y74802D01*
X247818Y75431D01*
X247966Y76172D01*
X247818Y76913D01*
X247398Y77541D01*
X246770Y77961D01*
X246029Y78108D01*
D02*
G37*
G36*
X255478D02*
X254737Y77961D01*
X254109Y77541D01*
X253689Y76913D01*
X253541Y76172D01*
X253689Y75431D01*
X254109Y74802D01*
X254737Y74383D01*
X255478Y74235D01*
X256219Y74383D01*
X256847Y74802D01*
X257267Y75431D01*
X257414Y76172D01*
X257267Y76913D01*
X256847Y77541D01*
X256219Y77961D01*
X255478Y78108D01*
D02*
G37*
G36*
X250753D02*
X250012Y77961D01*
X249384Y77541D01*
X248965Y76913D01*
X248817Y76172D01*
X248965Y75431D01*
X249384Y74802D01*
X250012Y74383D01*
X250753Y74235D01*
X251495Y74383D01*
X252123Y74802D01*
X252543Y75431D01*
X252690Y76172D01*
X252543Y76913D01*
X252123Y77541D01*
X251495Y77961D01*
X250753Y78108D01*
D02*
G37*
G36*
X33083Y84295D02*
X32551Y84225D01*
X31589Y83827D01*
X30764Y83193D01*
X30130Y82367D01*
X29732Y81406D01*
X29662Y80874D01*
X33083D01*
Y84295D01*
D02*
G37*
G36*
X19685Y96784D02*
X19015Y96695D01*
X18390Y96437D01*
X17853Y96025D01*
X17442Y95488D01*
X17183Y94863D01*
X17094Y94193D01*
X17183Y93522D01*
X17442Y92898D01*
X17853Y92361D01*
X18390Y91949D01*
X19015Y91690D01*
X19685Y91602D01*
X20356Y91690D01*
X20980Y91949D01*
X21517Y92361D01*
X21929Y92898D01*
X22187Y93522D01*
X22276Y94193D01*
X22187Y94863D01*
X21929Y95488D01*
X21517Y96025D01*
X20980Y96437D01*
X20356Y96695D01*
X19685Y96784D01*
D02*
G37*
G36*
X11811D02*
X11141Y96695D01*
X10516Y96437D01*
X9979Y96025D01*
X9567Y95488D01*
X9309Y94863D01*
X9220Y94193D01*
X9309Y93522D01*
X9567Y92898D01*
X9979Y92361D01*
X10516Y91949D01*
X11141Y91690D01*
X11811Y91602D01*
X12482Y91690D01*
X13106Y91949D01*
X13643Y92361D01*
X14055Y92898D01*
X14313Y93522D01*
X14402Y94193D01*
X14313Y94863D01*
X14055Y95488D01*
X13643Y96025D01*
X13106Y96437D01*
X12482Y96695D01*
X11811Y96784D01*
D02*
G37*
G36*
X27559D02*
X26888Y96695D01*
X26264Y96437D01*
X25727Y96025D01*
X25315Y95488D01*
X25057Y94863D01*
X24968Y94193D01*
X25057Y93522D01*
X25315Y92898D01*
X25727Y92361D01*
X26264Y91949D01*
X26888Y91690D01*
X27559Y91602D01*
X28230Y91690D01*
X28854Y91949D01*
X29391Y92361D01*
X29803Y92898D01*
X30061Y93522D01*
X30150Y94193D01*
X30061Y94863D01*
X29803Y95488D01*
X29391Y96025D01*
X28854Y96437D01*
X28230Y96695D01*
X27559Y96784D01*
D02*
G37*
G36*
X566929D02*
X566259Y96695D01*
X565634Y96437D01*
X565097Y96025D01*
X564685Y95488D01*
X564427Y94863D01*
X564338Y94193D01*
X564427Y93522D01*
X564685Y92898D01*
X565097Y92361D01*
X565634Y91949D01*
X566259Y91690D01*
X566929Y91602D01*
X567600Y91690D01*
X568224Y91949D01*
X568761Y92361D01*
X569173Y92898D01*
X569431Y93522D01*
X569520Y94193D01*
X569431Y94863D01*
X569173Y95488D01*
X568761Y96025D01*
X568224Y96437D01*
X567600Y96695D01*
X566929Y96784D01*
D02*
G37*
G36*
X35433D02*
X34763Y96695D01*
X34138Y96437D01*
X33601Y96025D01*
X33189Y95488D01*
X32931Y94863D01*
X32842Y94193D01*
X32931Y93522D01*
X33189Y92898D01*
X33601Y92361D01*
X34138Y91949D01*
X34763Y91690D01*
X35433Y91602D01*
X36104Y91690D01*
X36728Y91949D01*
X37265Y92361D01*
X37677Y92898D01*
X37936Y93522D01*
X38024Y94193D01*
X37936Y94863D01*
X37677Y95488D01*
X37265Y96025D01*
X36728Y96437D01*
X36104Y96695D01*
X35433Y96784D01*
D02*
G37*
G36*
X55118Y91887D02*
X54494Y91763D01*
X53965Y91409D01*
X53611Y90880D01*
X53487Y90256D01*
X53611Y89632D01*
X53965Y89102D01*
X54494Y88749D01*
X55118Y88625D01*
X55742Y88749D01*
X56272Y89102D01*
X56429Y89338D01*
X122705D01*
X122862Y89102D01*
X123391Y88749D01*
X124016Y88625D01*
X124640Y88749D01*
X125169Y89102D01*
X125523Y89632D01*
X125647Y90256D01*
X125523Y90880D01*
X125169Y91409D01*
X124640Y91763D01*
X124016Y91887D01*
X123391Y91763D01*
X122862Y91409D01*
X122705Y91173D01*
X56429D01*
X56272Y91409D01*
X55742Y91763D01*
X55118Y91887D01*
D02*
G37*
G36*
X590551Y96784D02*
X589881Y96695D01*
X589256Y96437D01*
X588719Y96025D01*
X588308Y95488D01*
X588049Y94863D01*
X587960Y94193D01*
X588049Y93522D01*
X588308Y92898D01*
X588719Y92361D01*
X589256Y91949D01*
X589881Y91690D01*
X590551Y91602D01*
X591222Y91690D01*
X591847Y91949D01*
X592383Y92361D01*
X592795Y92898D01*
X593054Y93522D01*
X593142Y94193D01*
X593054Y94863D01*
X592795Y95488D01*
X592383Y96025D01*
X591847Y96437D01*
X591222Y96695D01*
X590551Y96784D01*
D02*
G37*
G36*
X365354Y99761D02*
X364730Y99637D01*
X364201Y99283D01*
X363847Y98754D01*
X363723Y98130D01*
X363847Y97506D01*
X364201Y96976D01*
X364275Y96927D01*
X364324Y96429D01*
X363242Y95347D01*
X362742D01*
X361660Y96429D01*
X361709Y96927D01*
X361784Y96976D01*
X362137Y97506D01*
X362261Y98130D01*
X362137Y98754D01*
X361784Y99283D01*
X361254Y99637D01*
X360630Y99761D01*
X360006Y99637D01*
X359476Y99283D01*
X359123Y98754D01*
X358999Y98130D01*
X359123Y97506D01*
X359476Y96976D01*
X359712Y96819D01*
Y96161D01*
X359782Y95810D01*
X359981Y95513D01*
X361287Y94207D01*
Y47257D01*
X360846Y47021D01*
X360467Y47275D01*
X359842Y47399D01*
X359218Y47275D01*
X358689Y46921D01*
X358335Y46392D01*
X358211Y45768D01*
X358335Y45143D01*
X358689Y44614D01*
X359218Y44261D01*
X359842Y44136D01*
X360467Y44261D01*
X360996Y44614D01*
X361154Y44850D01*
X361505D01*
X361856Y44920D01*
X362154Y45119D01*
X362854Y45819D01*
X363156D01*
X363856Y45119D01*
X364154Y44920D01*
X364505Y44850D01*
X364831D01*
X364988Y44614D01*
X365517Y44261D01*
X366142Y44136D01*
X366766Y44261D01*
X367295Y44614D01*
X367649Y45143D01*
X367773Y45768D01*
X367649Y46392D01*
X367295Y46921D01*
X366766Y47275D01*
X366142Y47399D01*
X365517Y47275D01*
X365163Y47038D01*
X364722Y47274D01*
Y94232D01*
X366003Y95513D01*
X366202Y95810D01*
X366272Y96161D01*
Y96819D01*
X366508Y96976D01*
X366862Y97506D01*
X366986Y98130D01*
X366862Y98754D01*
X366508Y99283D01*
X365979Y99637D01*
X365354Y99761D01*
D02*
G37*
G36*
X582677Y96784D02*
X582007Y96695D01*
X581382Y96437D01*
X580845Y96025D01*
X580434Y95488D01*
X580175Y94863D01*
X580087Y94193D01*
X580175Y93522D01*
X580434Y92898D01*
X580845Y92361D01*
X581382Y91949D01*
X582007Y91690D01*
X582677Y91602D01*
X583348Y91690D01*
X583973Y91949D01*
X584509Y92361D01*
X584921Y92898D01*
X585180Y93522D01*
X585268Y94193D01*
X585180Y94863D01*
X584921Y95488D01*
X584509Y96025D01*
X583973Y96437D01*
X583348Y96695D01*
X582677Y96784D01*
D02*
G37*
G36*
X124016Y87950D02*
X123391Y87826D01*
X122862Y87472D01*
X122705Y87236D01*
X56429D01*
X56272Y87472D01*
X55742Y87826D01*
X55118Y87950D01*
X54494Y87826D01*
X53965Y87472D01*
X53611Y86943D01*
X53487Y86319D01*
X53611Y85695D01*
X53965Y85165D01*
X54494Y84812D01*
X55118Y84688D01*
X55742Y84812D01*
X56272Y85165D01*
X56429Y85401D01*
X122705D01*
X122862Y85165D01*
X123391Y84812D01*
X124016Y84688D01*
X124640Y84812D01*
X125169Y85165D01*
X125523Y85695D01*
X125647Y86319D01*
X125523Y86943D01*
X125169Y87472D01*
X124640Y87826D01*
X124016Y87950D01*
D02*
G37*
G36*
X574803Y96784D02*
X574133Y96695D01*
X573508Y96437D01*
X572971Y96025D01*
X572560Y95488D01*
X572301Y94863D01*
X572213Y94193D01*
X572301Y93522D01*
X572560Y92898D01*
X572971Y92361D01*
X573508Y91949D01*
X574133Y91690D01*
X574803Y91602D01*
X575474Y91690D01*
X576098Y91949D01*
X576635Y92361D01*
X577047Y92898D01*
X577306Y93522D01*
X577394Y94193D01*
X577306Y94863D01*
X577047Y95488D01*
X576635Y96025D01*
X576098Y96437D01*
X575474Y96695D01*
X574803Y96784D01*
D02*
G37*
G36*
X17504Y79874D02*
X9662D01*
X9732Y79342D01*
X10130Y78381D01*
X10763Y77555D01*
X11587Y76923D01*
Y76423D01*
X10763Y75792D01*
X10130Y74966D01*
X9732Y74004D01*
X9662Y73472D01*
X17504D01*
X17434Y74004D01*
X17035Y74966D01*
X16402Y75792D01*
X15579Y76423D01*
Y76923D01*
X16402Y77555D01*
X17035Y78381D01*
X17434Y79342D01*
X17504Y79874D01*
D02*
G37*
G36*
X33083Y64630D02*
X32551Y64560D01*
X31589Y64161D01*
X30764Y63528D01*
X30130Y62702D01*
X29732Y61740D01*
X29662Y61209D01*
X33083D01*
Y64630D01*
D02*
G37*
G36*
X24083D02*
Y61209D01*
X27504D01*
X27434Y61740D01*
X27035Y62702D01*
X26402Y63528D01*
X25576Y64161D01*
X24614Y64560D01*
X24083Y64630D01*
D02*
G37*
G36*
X23083D02*
X22551Y64560D01*
X21589Y64161D01*
X20764Y63528D01*
X20130Y62702D01*
X19732Y61740D01*
X19662Y61209D01*
X23083D01*
Y64630D01*
D02*
G37*
G36*
X250753Y68659D02*
X250012Y68512D01*
X249384Y68092D01*
X248965Y67464D01*
X248817Y66723D01*
X248965Y65982D01*
X249384Y65354D01*
X250012Y64934D01*
X250753Y64786D01*
X251495Y64934D01*
X252123Y65354D01*
X252543Y65982D01*
X252690Y66723D01*
X252543Y67464D01*
X252123Y68092D01*
X251495Y68512D01*
X250753Y68659D01*
D02*
G37*
G36*
X246029D02*
X245288Y68512D01*
X244660Y68092D01*
X244240Y67464D01*
X244093Y66723D01*
X244240Y65982D01*
X244660Y65354D01*
X245288Y64934D01*
X246029Y64786D01*
X246770Y64934D01*
X247398Y65354D01*
X247818Y65982D01*
X247966Y66723D01*
X247818Y67464D01*
X247398Y68092D01*
X246770Y68512D01*
X246029Y68659D01*
D02*
G37*
G36*
X34083Y64630D02*
Y61209D01*
X37504D01*
X37434Y61740D01*
X37035Y62702D01*
X36402Y63528D01*
X35576Y64161D01*
X34615Y64560D01*
X34083Y64630D01*
D02*
G37*
G36*
X250753Y63935D02*
X250012Y63787D01*
X249384Y63368D01*
X248965Y62739D01*
X248817Y61998D01*
X248965Y61257D01*
X249384Y60629D01*
X250012Y60209D01*
X250753Y60062D01*
X251495Y60209D01*
X252123Y60629D01*
X252543Y61257D01*
X252690Y61998D01*
X252543Y62739D01*
X252123Y63368D01*
X251495Y63787D01*
X250753Y63935D01*
D02*
G37*
G36*
X246029D02*
X245288Y63787D01*
X244660Y63368D01*
X244240Y62739D01*
X244093Y61998D01*
X244240Y61257D01*
X244660Y60629D01*
X245288Y60209D01*
X246029Y60062D01*
X246770Y60209D01*
X247398Y60629D01*
X247818Y61257D01*
X247966Y61998D01*
X247818Y62739D01*
X247398Y63368D01*
X246770Y63787D01*
X246029Y63935D01*
D02*
G37*
G36*
X299184Y58260D02*
X297744D01*
Y56820D01*
X298024Y56876D01*
X298686Y57318D01*
X299128Y57980D01*
X299184Y58260D01*
D02*
G37*
G36*
X14083Y64630D02*
Y61209D01*
X17504D01*
X17434Y61740D01*
X17035Y62702D01*
X16402Y63528D01*
X15576Y64161D01*
X14615Y64560D01*
X14083Y64630D01*
D02*
G37*
G36*
X13083D02*
X12551Y64560D01*
X11589Y64161D01*
X10763Y63528D01*
X10130Y62702D01*
X9732Y61740D01*
X9662Y61209D01*
X13083D01*
Y64630D01*
D02*
G37*
G36*
X255478Y63935D02*
X254737Y63787D01*
X254109Y63368D01*
X253689Y62739D01*
X253541Y61998D01*
X253689Y61257D01*
X254109Y60629D01*
X254737Y60209D01*
X255478Y60062D01*
X256219Y60209D01*
X256847Y60629D01*
X257267Y61257D01*
X257414Y61998D01*
X257267Y62739D01*
X256847Y63368D01*
X256219Y63787D01*
X255478Y63935D01*
D02*
G37*
G36*
Y68659D02*
X254737Y68512D01*
X254109Y68092D01*
X253689Y67464D01*
X253541Y66723D01*
X253689Y65982D01*
X254109Y65354D01*
X254737Y64934D01*
X255478Y64786D01*
X256219Y64934D01*
X256847Y65354D01*
X257267Y65982D01*
X257414Y66723D01*
X257267Y67464D01*
X256847Y68092D01*
X256219Y68512D01*
X255478Y68659D01*
D02*
G37*
G36*
X588779Y83957D02*
X587852Y83835D01*
X586988Y83477D01*
X586246Y82908D01*
X585676Y82166D01*
X585318Y81301D01*
X585196Y80374D01*
X585318Y79447D01*
X585676Y78582D01*
X586246Y77840D01*
X586988Y77271D01*
X587827Y76923D01*
Y76423D01*
X586988Y76076D01*
X586246Y75506D01*
X585676Y74764D01*
X585318Y73900D01*
X585196Y72972D01*
X585318Y72045D01*
X585676Y71181D01*
X586246Y70439D01*
X586988Y69869D01*
X587852Y69511D01*
X588779Y69389D01*
X589707Y69511D01*
X590571Y69869D01*
X591313Y70439D01*
X591883Y71181D01*
X592241Y72045D01*
X592363Y72972D01*
X592241Y73900D01*
X591883Y74764D01*
X591313Y75506D01*
X590571Y76076D01*
X589732Y76423D01*
Y76923D01*
X590571Y77271D01*
X591313Y77840D01*
X591883Y78582D01*
X592241Y79447D01*
X592363Y80374D01*
X592241Y81301D01*
X591883Y82166D01*
X591313Y82908D01*
X590571Y83477D01*
X589707Y83835D01*
X588779Y83957D01*
D02*
G37*
G36*
X578780D02*
X577852Y83835D01*
X576988Y83477D01*
X576246Y82908D01*
X575676Y82166D01*
X575318Y81301D01*
X575196Y80374D01*
X575318Y79447D01*
X575676Y78582D01*
X576246Y77840D01*
X576988Y77271D01*
X577827Y76923D01*
Y76423D01*
X576988Y76076D01*
X576246Y75506D01*
X575676Y74764D01*
X575318Y73900D01*
X575196Y72972D01*
X575318Y72045D01*
X575676Y71181D01*
X576246Y70439D01*
X576988Y69869D01*
X577852Y69511D01*
X578780Y69389D01*
X579707Y69511D01*
X580571Y69869D01*
X581313Y70439D01*
X581883Y71181D01*
X582241Y72045D01*
X582363Y72972D01*
X582241Y73900D01*
X581883Y74764D01*
X581313Y75506D01*
X580571Y76076D01*
X579732Y76423D01*
Y76923D01*
X580571Y77271D01*
X581313Y77840D01*
X581883Y78582D01*
X582241Y79447D01*
X582363Y80374D01*
X582241Y81301D01*
X581883Y82166D01*
X581313Y82908D01*
X580571Y83477D01*
X579707Y83835D01*
X578780Y83957D01*
D02*
G37*
G36*
X568780D02*
X567852Y83835D01*
X566988Y83477D01*
X566246Y82908D01*
X565676Y82166D01*
X565318Y81301D01*
X565196Y80374D01*
X565318Y79447D01*
X565676Y78582D01*
X566246Y77840D01*
X566988Y77271D01*
X567827Y76923D01*
Y76423D01*
X566988Y76076D01*
X566246Y75506D01*
X565676Y74764D01*
X565318Y73900D01*
X565196Y72972D01*
X565318Y72045D01*
X565676Y71181D01*
X566246Y70439D01*
X566988Y69869D01*
X567852Y69511D01*
X568780Y69389D01*
X569707Y69511D01*
X570571Y69869D01*
X571313Y70439D01*
X571883Y71181D01*
X572241Y72045D01*
X572363Y72972D01*
X572241Y73900D01*
X571883Y74764D01*
X571313Y75506D01*
X570571Y76076D01*
X569732Y76423D01*
Y76923D01*
X570571Y77271D01*
X571313Y77840D01*
X571883Y78582D01*
X572241Y79447D01*
X572363Y80374D01*
X572241Y81301D01*
X571883Y82166D01*
X571313Y82908D01*
X570571Y83477D01*
X569707Y83835D01*
X568780Y83957D01*
D02*
G37*
G36*
X255478Y73384D02*
X254737Y73236D01*
X254109Y72816D01*
X253689Y72188D01*
X253541Y71447D01*
X253689Y70706D01*
X254109Y70078D01*
X254737Y69658D01*
X255478Y69511D01*
X256219Y69658D01*
X256847Y70078D01*
X257267Y70706D01*
X257414Y71447D01*
X257267Y72188D01*
X256847Y72816D01*
X256219Y73236D01*
X255478Y73384D01*
D02*
G37*
G36*
X250753D02*
X250012Y73236D01*
X249384Y72816D01*
X248965Y72188D01*
X248817Y71447D01*
X248965Y70706D01*
X249384Y70078D01*
X250012Y69658D01*
X250753Y69511D01*
X251495Y69658D01*
X252123Y70078D01*
X252543Y70706D01*
X252690Y71447D01*
X252543Y72188D01*
X252123Y72816D01*
X251495Y73236D01*
X250753Y73384D01*
D02*
G37*
G36*
X246029D02*
X245288Y73236D01*
X244660Y72816D01*
X244240Y72188D01*
X244093Y71447D01*
X244240Y70706D01*
X244660Y70078D01*
X245288Y69658D01*
X246029Y69511D01*
X246770Y69658D01*
X247398Y70078D01*
X247818Y70706D01*
X247966Y71447D01*
X247818Y72188D01*
X247398Y72816D01*
X246770Y73236D01*
X246029Y73384D01*
D02*
G37*
G36*
X23083Y72472D02*
X19662D01*
X19732Y71940D01*
X20130Y70979D01*
X20764Y70153D01*
X21589Y69520D01*
X22551Y69121D01*
X23083Y69051D01*
Y72472D01*
D02*
G37*
G36*
X17504D02*
X14083D01*
Y69051D01*
X14615Y69121D01*
X15576Y69520D01*
X16402Y70153D01*
X17035Y70979D01*
X17434Y71940D01*
X17504Y72472D01*
D02*
G37*
G36*
X13083D02*
X9662D01*
X9732Y71940D01*
X10130Y70979D01*
X10763Y70153D01*
X11589Y69520D01*
X12551Y69121D01*
X13083Y69051D01*
Y72472D01*
D02*
G37*
G36*
X37504D02*
X34083D01*
Y69051D01*
X34615Y69121D01*
X35576Y69520D01*
X36402Y70153D01*
X37035Y70979D01*
X37434Y71940D01*
X37504Y72472D01*
D02*
G37*
G36*
X33083D02*
X29662D01*
X29732Y71940D01*
X30130Y70979D01*
X30764Y70153D01*
X31589Y69520D01*
X32551Y69121D01*
X33083Y69051D01*
Y72472D01*
D02*
G37*
G36*
X27504D02*
X24083D01*
Y69051D01*
X24614Y69121D01*
X25576Y69520D01*
X26402Y70153D01*
X27035Y70979D01*
X27434Y71940D01*
X27504Y72472D01*
D02*
G37*
G36*
X58661Y109604D02*
X58037Y109480D01*
X57508Y109126D01*
X57154Y108597D01*
X57030Y107972D01*
X57154Y107348D01*
X57508Y106819D01*
X58037Y106465D01*
X58661Y106341D01*
X58699Y106349D01*
X67711Y97337D01*
X67711Y97337D01*
X68075Y97094D01*
X68504Y97008D01*
X68504Y97008D01*
X97250D01*
X97272Y96976D01*
X97801Y96623D01*
X98425Y96499D01*
X99050Y96623D01*
X99579Y96976D01*
X99932Y97506D01*
X100057Y98130D01*
X99932Y98754D01*
X99579Y99283D01*
X99050Y99637D01*
X98425Y99761D01*
X97801Y99637D01*
X97272Y99283D01*
X97250Y99252D01*
X68968D01*
X60285Y107935D01*
X60293Y107972D01*
X60169Y108597D01*
X59815Y109126D01*
X59286Y109480D01*
X58661Y109604D01*
D02*
G37*
G36*
X592701Y131134D02*
X589280D01*
Y127713D01*
X589811Y127783D01*
X590773Y128181D01*
X591599Y128815D01*
X592232Y129640D01*
X592630Y130602D01*
X592701Y131134D01*
D02*
G37*
G36*
X588279D02*
X584859D01*
X584929Y130602D01*
X585327Y129640D01*
X585960Y128815D01*
X586786Y128181D01*
X587748Y127783D01*
X588279Y127713D01*
Y131134D01*
D02*
G37*
G36*
X582701D02*
X579280D01*
Y127713D01*
X579811Y127783D01*
X580773Y128181D01*
X581599Y128815D01*
X582232Y129640D01*
X582630Y130602D01*
X582701Y131134D01*
D02*
G37*
G36*
X33583Y142619D02*
X32655Y142497D01*
X31791Y142139D01*
X31049Y141569D01*
X30479Y140827D01*
X30121Y139963D01*
X29999Y139035D01*
X30121Y138108D01*
X30479Y137244D01*
X31049Y136502D01*
X31791Y135932D01*
X32630Y135585D01*
Y135085D01*
X31791Y134737D01*
X31049Y134168D01*
X30479Y133425D01*
X30121Y132561D01*
X29999Y131634D01*
X30121Y130706D01*
X30479Y129842D01*
X31049Y129100D01*
X31791Y128531D01*
X32655Y128173D01*
X33583Y128050D01*
X34510Y128173D01*
X35374Y128531D01*
X36116Y129100D01*
X36686Y129842D01*
X37044Y130706D01*
X37166Y131634D01*
X37044Y132561D01*
X36686Y133425D01*
X36116Y134168D01*
X35374Y134737D01*
X34536Y135085D01*
Y135585D01*
X35374Y135932D01*
X36116Y136502D01*
X36686Y137244D01*
X37044Y138108D01*
X37166Y139035D01*
X37044Y139963D01*
X36686Y140827D01*
X36116Y141569D01*
X35374Y142139D01*
X34510Y142497D01*
X33583Y142619D01*
D02*
G37*
G36*
X23583D02*
X22655Y142497D01*
X21791Y142139D01*
X21049Y141569D01*
X20479Y140827D01*
X20121Y139963D01*
X19999Y139035D01*
X20121Y138108D01*
X20479Y137244D01*
X21049Y136502D01*
X21791Y135932D01*
X22630Y135585D01*
Y135085D01*
X21791Y134737D01*
X21049Y134168D01*
X20479Y133425D01*
X20121Y132561D01*
X19999Y131634D01*
X20121Y130706D01*
X20479Y129842D01*
X21049Y129100D01*
X21791Y128531D01*
X22655Y128173D01*
X23583Y128050D01*
X24510Y128173D01*
X25374Y128531D01*
X26116Y129100D01*
X26686Y129842D01*
X27044Y130706D01*
X27166Y131634D01*
X27044Y132561D01*
X26686Y133425D01*
X26116Y134168D01*
X25374Y134737D01*
X24535Y135085D01*
Y135585D01*
X25374Y135932D01*
X26116Y136502D01*
X26686Y137244D01*
X27044Y138108D01*
X27166Y139035D01*
X27044Y139963D01*
X26686Y140827D01*
X26116Y141569D01*
X25374Y142139D01*
X24510Y142497D01*
X23583Y142619D01*
D02*
G37*
G36*
X13583D02*
X12655Y142497D01*
X11791Y142139D01*
X11049Y141569D01*
X10479Y140827D01*
X10121Y139963D01*
X9999Y139035D01*
X10121Y138108D01*
X10479Y137244D01*
X11049Y136502D01*
X11791Y135932D01*
X12630Y135585D01*
Y135085D01*
X11791Y134737D01*
X11049Y134168D01*
X10479Y133425D01*
X10121Y132561D01*
X9999Y131634D01*
X10121Y130706D01*
X10479Y129842D01*
X11049Y129100D01*
X11791Y128531D01*
X12655Y128173D01*
X13583Y128050D01*
X14510Y128173D01*
X15374Y128531D01*
X16116Y129100D01*
X16686Y129842D01*
X17044Y130706D01*
X17166Y131634D01*
X17044Y132561D01*
X16686Y133425D01*
X16116Y134168D01*
X15374Y134737D01*
X14536Y135085D01*
Y135585D01*
X15374Y135932D01*
X16116Y136502D01*
X16686Y137244D01*
X17044Y138108D01*
X17166Y139035D01*
X17044Y139963D01*
X16686Y140827D01*
X16116Y141569D01*
X15374Y142139D01*
X14510Y142497D01*
X13583Y142619D01*
D02*
G37*
G36*
X578279Y131134D02*
X574859D01*
X574929Y130602D01*
X575327Y129640D01*
X575960Y128815D01*
X576786Y128181D01*
X577748Y127783D01*
X578279Y127713D01*
Y131134D01*
D02*
G37*
G36*
X263779Y132217D02*
X263109Y132128D01*
X262484Y131870D01*
X261948Y131458D01*
X261536Y130921D01*
X261277Y130297D01*
X261189Y129626D01*
X261277Y128955D01*
X261536Y128331D01*
X261948Y127794D01*
X262484Y127382D01*
X263109Y127124D01*
X263779Y127035D01*
X264450Y127124D01*
X265075Y127382D01*
X265611Y127794D01*
X266023Y128331D01*
X266282Y128955D01*
X266370Y129626D01*
X266282Y130297D01*
X266023Y130921D01*
X265611Y131458D01*
X265075Y131870D01*
X264450Y132128D01*
X263779Y132217D01*
D02*
G37*
G36*
X352362Y129289D02*
X351738Y129165D01*
X351209Y128811D01*
X350855Y128282D01*
X350731Y127657D01*
X350855Y127033D01*
X351209Y126504D01*
X351738Y126150D01*
X352362Y126026D01*
X352641Y126082D01*
X353011Y125710D01*
X352776Y125270D01*
X352362Y125352D01*
X351738Y125228D01*
X351209Y124874D01*
X350855Y124345D01*
X350731Y123721D01*
X350855Y123096D01*
X351209Y122567D01*
X351738Y122213D01*
X352362Y122089D01*
X352641Y122144D01*
X377304Y97481D01*
X377602Y97282D01*
X377660Y97271D01*
X377953Y97212D01*
X524279D01*
X524437Y96976D01*
X524966Y96623D01*
X525591Y96499D01*
X526215Y96623D01*
X526744Y96976D01*
X527098Y97506D01*
X527222Y98130D01*
X527098Y98754D01*
X526744Y99283D01*
X526215Y99637D01*
X525591Y99761D01*
X524966Y99637D01*
X524437Y99283D01*
X524279Y99048D01*
X378333D01*
X353938Y123442D01*
X353994Y123721D01*
X353911Y124134D01*
X354352Y124370D01*
X377304Y101418D01*
X377602Y101219D01*
X377660Y101208D01*
X377953Y101149D01*
X524279D01*
X524437Y100913D01*
X524966Y100560D01*
X525591Y100436D01*
X526215Y100560D01*
X526744Y100913D01*
X527098Y101443D01*
X527222Y102067D01*
X527098Y102691D01*
X526744Y103220D01*
X526215Y103574D01*
X525591Y103698D01*
X524966Y103574D01*
X524437Y103220D01*
X524279Y102985D01*
X378333D01*
X353938Y127379D01*
X353994Y127657D01*
X353869Y128282D01*
X353516Y128811D01*
X352987Y129165D01*
X352362Y129289D01*
D02*
G37*
G36*
X267717Y120701D02*
X267046Y120613D01*
X266421Y120354D01*
X265885Y119942D01*
X265473Y119406D01*
X265214Y118781D01*
X265126Y118110D01*
X265214Y117440D01*
X265473Y116815D01*
X265885Y116278D01*
X266421Y115867D01*
X267046Y115608D01*
X267717Y115520D01*
X268387Y115608D01*
X269012Y115867D01*
X269548Y116278D01*
X269960Y116815D01*
X270219Y117440D01*
X270307Y118110D01*
X270219Y118781D01*
X269960Y119406D01*
X269548Y119942D01*
X269012Y120354D01*
X268387Y120613D01*
X267717Y120701D01*
D02*
G37*
G36*
X572701Y131134D02*
X569279D01*
Y127713D01*
X569811Y127783D01*
X570773Y128181D01*
X571599Y128815D01*
X572232Y129640D01*
X572631Y130602D01*
X572701Y131134D01*
D02*
G37*
G36*
X568280D02*
X564858D01*
X564928Y130602D01*
X565327Y129640D01*
X565960Y128815D01*
X566786Y128181D01*
X567748Y127783D01*
X568280Y127713D01*
Y131134D01*
D02*
G37*
G36*
X271654Y132217D02*
X270983Y132128D01*
X270358Y131870D01*
X269822Y131458D01*
X269410Y130921D01*
X269151Y130297D01*
X269063Y129626D01*
X269151Y128955D01*
X269410Y128331D01*
X269822Y127794D01*
X270358Y127382D01*
X270983Y127124D01*
X271654Y127035D01*
X272324Y127124D01*
X272949Y127382D01*
X273485Y127794D01*
X273897Y128331D01*
X274156Y128955D01*
X274244Y129626D01*
X274156Y130297D01*
X273897Y130921D01*
X273485Y131458D01*
X272949Y131870D01*
X272324Y132128D01*
X271654Y132217D01*
D02*
G37*
G36*
X264280Y140428D02*
Y138000D01*
X266708D01*
X266672Y138275D01*
X266372Y138997D01*
X265897Y139617D01*
X265277Y140093D01*
X264555Y140392D01*
X264280Y140428D01*
D02*
G37*
G36*
X263280D02*
X263005Y140392D01*
X262282Y140093D01*
X261662Y139617D01*
X261187Y138997D01*
X260887Y138275D01*
X260851Y138000D01*
X263280D01*
Y140428D01*
D02*
G37*
G36*
X274582Y137000D02*
X272153D01*
Y134572D01*
X272428Y134608D01*
X273151Y134907D01*
X273771Y135383D01*
X274247Y136003D01*
X274546Y136725D01*
X274582Y137000D01*
D02*
G37*
G36*
X568280Y142956D02*
X567748Y142886D01*
X566786Y142488D01*
X565960Y141855D01*
X565327Y141029D01*
X564928Y140067D01*
X564858Y139535D01*
X568280D01*
Y142956D01*
D02*
G37*
G36*
X272153Y140428D02*
Y138000D01*
X274582D01*
X274546Y138275D01*
X274247Y138997D01*
X273771Y139617D01*
X273151Y140093D01*
X272428Y140392D01*
X272153Y140428D01*
D02*
G37*
G36*
X271153D02*
X270879Y140392D01*
X270157Y140093D01*
X269536Y139617D01*
X269061Y138997D01*
X268761Y138275D01*
X268725Y138000D01*
X271153D01*
Y140428D01*
D02*
G37*
G36*
Y137000D02*
X268725D01*
X268761Y136725D01*
X269061Y136003D01*
X269536Y135383D01*
X270157Y134907D01*
X270879Y134608D01*
X271153Y134572D01*
Y137000D01*
D02*
G37*
G36*
X592701Y138535D02*
X584859D01*
X584929Y138004D01*
X585327Y137042D01*
X585960Y136216D01*
X586784Y135585D01*
Y135085D01*
X585960Y134453D01*
X585327Y133627D01*
X584929Y132666D01*
X584859Y132134D01*
X592701D01*
X592630Y132666D01*
X592232Y133627D01*
X591599Y134453D01*
X590775Y135085D01*
Y135585D01*
X591599Y136216D01*
X592232Y137042D01*
X592630Y138004D01*
X592701Y138535D01*
D02*
G37*
G36*
X582701D02*
X574859D01*
X574929Y138004D01*
X575327Y137042D01*
X575960Y136216D01*
X576784Y135585D01*
Y135085D01*
X575960Y134453D01*
X575327Y133627D01*
X574929Y132666D01*
X574859Y132134D01*
X582701D01*
X582630Y132666D01*
X582232Y133627D01*
X581599Y134453D01*
X580775Y135085D01*
Y135585D01*
X581599Y136216D01*
X582232Y137042D01*
X582630Y138004D01*
X582701Y138535D01*
D02*
G37*
G36*
X572701D02*
X564858D01*
X564928Y138004D01*
X565327Y137042D01*
X565960Y136216D01*
X566784Y135585D01*
Y135085D01*
X565960Y134453D01*
X565327Y133627D01*
X564928Y132666D01*
X564858Y132134D01*
X572701D01*
X572631Y132666D01*
X572232Y133627D01*
X571599Y134453D01*
X570776Y135085D01*
Y135585D01*
X571599Y136216D01*
X572232Y137042D01*
X572631Y138004D01*
X572701Y138535D01*
D02*
G37*
G36*
X266708Y137000D02*
X264280D01*
Y134572D01*
X264555Y134608D01*
X265277Y134907D01*
X265897Y135383D01*
X266372Y136003D01*
X266672Y136725D01*
X266708Y137000D01*
D02*
G37*
G36*
X263280D02*
X260851D01*
X260887Y136725D01*
X261187Y136003D01*
X261662Y135383D01*
X262282Y134907D01*
X263005Y134608D01*
X263280Y134572D01*
Y137000D01*
D02*
G37*
G36*
X50476Y135434D02*
X49852Y135310D01*
X49323Y134956D01*
X48969Y134427D01*
X48845Y133802D01*
X48969Y133178D01*
X49323Y132649D01*
X49852Y132295D01*
X50476Y132171D01*
X51101Y132295D01*
X51630Y132649D01*
X51983Y133178D01*
X52108Y133802D01*
X51983Y134427D01*
X51630Y134956D01*
X51101Y135310D01*
X50476Y135434D01*
D02*
G37*
G36*
X19685Y112532D02*
X19015Y112443D01*
X18390Y112185D01*
X17853Y111773D01*
X17442Y111236D01*
X17183Y110611D01*
X17094Y109941D01*
X17183Y109270D01*
X17442Y108646D01*
X17853Y108109D01*
X18390Y107697D01*
X19015Y107439D01*
X19685Y107350D01*
X20356Y107439D01*
X20980Y107697D01*
X21517Y108109D01*
X21929Y108646D01*
X22187Y109270D01*
X22276Y109941D01*
X22187Y110611D01*
X21929Y111236D01*
X21517Y111773D01*
X20980Y112185D01*
X20356Y112443D01*
X19685Y112532D01*
D02*
G37*
G36*
X11811D02*
X11141Y112443D01*
X10516Y112185D01*
X9979Y111773D01*
X9567Y111236D01*
X9309Y110611D01*
X9220Y109941D01*
X9309Y109270D01*
X9567Y108646D01*
X9979Y108109D01*
X10516Y107697D01*
X11141Y107439D01*
X11811Y107350D01*
X12482Y107439D01*
X13106Y107697D01*
X13643Y108109D01*
X14055Y108646D01*
X14313Y109270D01*
X14402Y109941D01*
X14313Y110611D01*
X14055Y111236D01*
X13643Y111773D01*
X13106Y112185D01*
X12482Y112443D01*
X11811Y112532D01*
D02*
G37*
G36*
X590551Y104658D02*
X589881Y104569D01*
X589256Y104311D01*
X588719Y103899D01*
X588308Y103362D01*
X588049Y102737D01*
X587960Y102067D01*
X588049Y101396D01*
X588308Y100772D01*
X588719Y100235D01*
X589256Y99823D01*
X589881Y99564D01*
X590551Y99476D01*
X591222Y99564D01*
X591847Y99823D01*
X592383Y100235D01*
X592795Y100772D01*
X593054Y101396D01*
X593142Y102067D01*
X593054Y102737D01*
X592795Y103362D01*
X592383Y103899D01*
X591847Y104311D01*
X591222Y104569D01*
X590551Y104658D01*
D02*
G37*
G36*
X582677Y112532D02*
X582007Y112443D01*
X581382Y112185D01*
X580845Y111773D01*
X580434Y111236D01*
X580175Y110611D01*
X580087Y109941D01*
X580175Y109270D01*
X580434Y108646D01*
X580845Y108109D01*
X581382Y107697D01*
X582007Y107439D01*
X582677Y107350D01*
X583348Y107439D01*
X583973Y107697D01*
X584509Y108109D01*
X584921Y108646D01*
X585180Y109270D01*
X585268Y109941D01*
X585180Y110611D01*
X584921Y111236D01*
X584509Y111773D01*
X583973Y112185D01*
X583348Y112443D01*
X582677Y112532D01*
D02*
G37*
G36*
X35433D02*
X34763Y112443D01*
X34138Y112185D01*
X33601Y111773D01*
X33189Y111236D01*
X32931Y110611D01*
X32842Y109941D01*
X32931Y109270D01*
X33189Y108646D01*
X33601Y108109D01*
X34138Y107697D01*
X34763Y107439D01*
X35433Y107350D01*
X36104Y107439D01*
X36728Y107697D01*
X37265Y108109D01*
X37677Y108646D01*
X37936Y109270D01*
X38024Y109941D01*
X37936Y110611D01*
X37677Y111236D01*
X37265Y111773D01*
X36728Y112185D01*
X36104Y112443D01*
X35433Y112532D01*
D02*
G37*
G36*
X27559D02*
X26888Y112443D01*
X26264Y112185D01*
X25727Y111773D01*
X25315Y111236D01*
X25057Y110611D01*
X24968Y109941D01*
X25057Y109270D01*
X25315Y108646D01*
X25727Y108109D01*
X26264Y107697D01*
X26888Y107439D01*
X27559Y107350D01*
X28230Y107439D01*
X28854Y107697D01*
X29391Y108109D01*
X29803Y108646D01*
X30061Y109270D01*
X30150Y109941D01*
X30061Y110611D01*
X29803Y111236D01*
X29391Y111773D01*
X28854Y112185D01*
X28230Y112443D01*
X27559Y112532D01*
D02*
G37*
G36*
X582677Y104658D02*
X582007Y104569D01*
X581382Y104311D01*
X580845Y103899D01*
X580434Y103362D01*
X580175Y102737D01*
X580087Y102067D01*
X580175Y101396D01*
X580434Y100772D01*
X580845Y100235D01*
X581382Y99823D01*
X582007Y99564D01*
X582677Y99476D01*
X583348Y99564D01*
X583973Y99823D01*
X584509Y100235D01*
X584921Y100772D01*
X585180Y101396D01*
X585268Y102067D01*
X585180Y102737D01*
X584921Y103362D01*
X584509Y103899D01*
X583973Y104311D01*
X583348Y104569D01*
X582677Y104658D01*
D02*
G37*
G36*
X11811D02*
X11141Y104569D01*
X10516Y104311D01*
X9979Y103899D01*
X9567Y103362D01*
X9309Y102737D01*
X9220Y102067D01*
X9309Y101396D01*
X9567Y100772D01*
X9979Y100235D01*
X10516Y99823D01*
X11141Y99564D01*
X11811Y99476D01*
X12482Y99564D01*
X13106Y99823D01*
X13643Y100235D01*
X14055Y100772D01*
X14313Y101396D01*
X14402Y102067D01*
X14313Y102737D01*
X14055Y103362D01*
X13643Y103899D01*
X13106Y104311D01*
X12482Y104569D01*
X11811Y104658D01*
D02*
G37*
G36*
X35433Y104658D02*
X34763Y104569D01*
X34138Y104311D01*
X33601Y103899D01*
X33189Y103362D01*
X32931Y102737D01*
X32842Y102067D01*
X32931Y101396D01*
X33189Y100772D01*
X33601Y100235D01*
X34138Y99823D01*
X34763Y99564D01*
X35433Y99476D01*
X36104Y99564D01*
X36728Y99823D01*
X37265Y100235D01*
X37677Y100772D01*
X37936Y101396D01*
X38024Y102067D01*
X37936Y102737D01*
X37677Y103362D01*
X37265Y103899D01*
X36728Y104311D01*
X36104Y104569D01*
X35433Y104658D01*
D02*
G37*
G36*
X27559D02*
X26888Y104569D01*
X26264Y104311D01*
X25727Y103899D01*
X25315Y103362D01*
X25057Y102737D01*
X24968Y102067D01*
X25057Y101396D01*
X25315Y100772D01*
X25727Y100235D01*
X26264Y99823D01*
X26888Y99564D01*
X27559Y99476D01*
X28230Y99564D01*
X28854Y99823D01*
X29391Y100235D01*
X29803Y100772D01*
X30061Y101396D01*
X30150Y102067D01*
X30061Y102737D01*
X29803Y103362D01*
X29391Y103899D01*
X28854Y104311D01*
X28230Y104569D01*
X27559Y104658D01*
D02*
G37*
G36*
X574803Y104658D02*
X574133Y104569D01*
X573508Y104311D01*
X572971Y103899D01*
X572560Y103362D01*
X572301Y102737D01*
X572213Y102067D01*
X572301Y101396D01*
X572560Y100772D01*
X572971Y100235D01*
X573508Y99823D01*
X574133Y99564D01*
X574803Y99476D01*
X575474Y99564D01*
X576098Y99823D01*
X576635Y100235D01*
X577047Y100772D01*
X577306Y101396D01*
X577394Y102067D01*
X577306Y102737D01*
X577047Y103362D01*
X576635Y103899D01*
X576098Y104311D01*
X575474Y104569D01*
X574803Y104658D01*
D02*
G37*
G36*
X566929D02*
X566259Y104569D01*
X565634Y104311D01*
X565097Y103899D01*
X564685Y103362D01*
X564427Y102737D01*
X564338Y102067D01*
X564427Y101396D01*
X564685Y100772D01*
X565097Y100235D01*
X565634Y99823D01*
X566259Y99564D01*
X566929Y99476D01*
X567600Y99564D01*
X568224Y99823D01*
X568761Y100235D01*
X569173Y100772D01*
X569431Y101396D01*
X569520Y102067D01*
X569431Y102737D01*
X569173Y103362D01*
X568761Y103899D01*
X568224Y104311D01*
X567600Y104569D01*
X566929Y104658D01*
D02*
G37*
G36*
X19685D02*
X19015Y104569D01*
X18390Y104311D01*
X17853Y103899D01*
X17442Y103362D01*
X17183Y102737D01*
X17094Y102067D01*
X17183Y101396D01*
X17442Y100772D01*
X17853Y100235D01*
X18390Y99823D01*
X19015Y99564D01*
X19685Y99476D01*
X20356Y99564D01*
X20980Y99823D01*
X21517Y100235D01*
X21929Y100772D01*
X22187Y101396D01*
X22276Y102067D01*
X22187Y102737D01*
X21929Y103362D01*
X21517Y103899D01*
X20980Y104311D01*
X20356Y104569D01*
X19685Y104658D01*
D02*
G37*
G36*
X566929Y120406D02*
X566259Y120317D01*
X565634Y120059D01*
X565097Y119647D01*
X564685Y119110D01*
X564427Y118485D01*
X564338Y117815D01*
X564427Y117145D01*
X564685Y116520D01*
X565097Y115983D01*
X565634Y115571D01*
X566259Y115313D01*
X566929Y115224D01*
X567600Y115313D01*
X568224Y115571D01*
X568761Y115983D01*
X569173Y116520D01*
X569431Y117145D01*
X569520Y117815D01*
X569431Y118485D01*
X569173Y119110D01*
X568761Y119647D01*
X568224Y120059D01*
X567600Y120317D01*
X566929Y120406D01*
D02*
G37*
G36*
X35433D02*
X34763Y120317D01*
X34138Y120059D01*
X33601Y119647D01*
X33189Y119110D01*
X32931Y118485D01*
X32842Y117815D01*
X32931Y117145D01*
X33189Y116520D01*
X33601Y115983D01*
X34138Y115571D01*
X34763Y115313D01*
X35433Y115224D01*
X36104Y115313D01*
X36728Y115571D01*
X37265Y115983D01*
X37677Y116520D01*
X37936Y117145D01*
X38024Y117815D01*
X37936Y118485D01*
X37677Y119110D01*
X37265Y119647D01*
X36728Y120059D01*
X36104Y120317D01*
X35433Y120406D01*
D02*
G37*
G36*
X27559D02*
X26888Y120317D01*
X26264Y120059D01*
X25727Y119647D01*
X25315Y119110D01*
X25057Y118485D01*
X24968Y117815D01*
X25057Y117145D01*
X25315Y116520D01*
X25727Y115983D01*
X26264Y115571D01*
X26888Y115313D01*
X27559Y115224D01*
X28230Y115313D01*
X28854Y115571D01*
X29391Y115983D01*
X29803Y116520D01*
X30061Y117145D01*
X30150Y117815D01*
X30061Y118485D01*
X29803Y119110D01*
X29391Y119647D01*
X28854Y120059D01*
X28230Y120317D01*
X27559Y120406D01*
D02*
G37*
G36*
X590551D02*
X589881Y120317D01*
X589256Y120059D01*
X588719Y119647D01*
X588308Y119110D01*
X588049Y118485D01*
X587960Y117815D01*
X588049Y117145D01*
X588308Y116520D01*
X588719Y115983D01*
X589256Y115571D01*
X589881Y115313D01*
X590551Y115224D01*
X591222Y115313D01*
X591847Y115571D01*
X592383Y115983D01*
X592795Y116520D01*
X593054Y117145D01*
X593142Y117815D01*
X593054Y118485D01*
X592795Y119110D01*
X592383Y119647D01*
X591847Y120059D01*
X591222Y120317D01*
X590551Y120406D01*
D02*
G37*
G36*
X582677D02*
X582007Y120317D01*
X581382Y120059D01*
X580845Y119647D01*
X580434Y119110D01*
X580175Y118485D01*
X580087Y117815D01*
X580175Y117145D01*
X580434Y116520D01*
X580845Y115983D01*
X581382Y115571D01*
X582007Y115313D01*
X582677Y115224D01*
X583348Y115313D01*
X583973Y115571D01*
X584509Y115983D01*
X584921Y116520D01*
X585180Y117145D01*
X585268Y117815D01*
X585180Y118485D01*
X584921Y119110D01*
X584509Y119647D01*
X583973Y120059D01*
X583348Y120317D01*
X582677Y120406D01*
D02*
G37*
G36*
X574803D02*
X574133Y120317D01*
X573508Y120059D01*
X572971Y119647D01*
X572560Y119110D01*
X572301Y118485D01*
X572213Y117815D01*
X572301Y117145D01*
X572560Y116520D01*
X572971Y115983D01*
X573508Y115571D01*
X574133Y115313D01*
X574803Y115224D01*
X575474Y115313D01*
X576098Y115571D01*
X576635Y115983D01*
X577047Y116520D01*
X577306Y117145D01*
X577394Y117815D01*
X577306Y118485D01*
X577047Y119110D01*
X576635Y119647D01*
X576098Y120059D01*
X575474Y120317D01*
X574803Y120406D01*
D02*
G37*
G36*
X19685D02*
X19015Y120317D01*
X18390Y120059D01*
X17853Y119647D01*
X17442Y119110D01*
X17183Y118485D01*
X17094Y117815D01*
X17183Y117145D01*
X17442Y116520D01*
X17853Y115983D01*
X18390Y115571D01*
X19015Y115313D01*
X19685Y115224D01*
X20356Y115313D01*
X20980Y115571D01*
X21517Y115983D01*
X21929Y116520D01*
X22187Y117145D01*
X22276Y117815D01*
X22187Y118485D01*
X21929Y119110D01*
X21517Y119647D01*
X20980Y120059D01*
X20356Y120317D01*
X19685Y120406D01*
D02*
G37*
G36*
X574803Y112532D02*
X574133Y112443D01*
X573508Y112185D01*
X572971Y111773D01*
X572560Y111236D01*
X572301Y110611D01*
X572213Y109941D01*
X572301Y109270D01*
X572560Y108646D01*
X572971Y108109D01*
X573508Y107697D01*
X574133Y107439D01*
X574803Y107350D01*
X575474Y107439D01*
X576098Y107697D01*
X576635Y108109D01*
X577047Y108646D01*
X577306Y109270D01*
X577394Y109941D01*
X577306Y110611D01*
X577047Y111236D01*
X576635Y111773D01*
X576098Y112185D01*
X575474Y112443D01*
X574803Y112532D01*
D02*
G37*
G36*
X566929D02*
X566259Y112443D01*
X565634Y112185D01*
X565097Y111773D01*
X564685Y111236D01*
X564427Y110611D01*
X564338Y109941D01*
X564427Y109270D01*
X564685Y108646D01*
X565097Y108109D01*
X565634Y107697D01*
X566259Y107439D01*
X566929Y107350D01*
X567600Y107439D01*
X568224Y107697D01*
X568761Y108109D01*
X569173Y108646D01*
X569431Y109270D01*
X569520Y109941D01*
X569431Y110611D01*
X569173Y111236D01*
X568761Y111773D01*
X568224Y112185D01*
X567600Y112443D01*
X566929Y112532D01*
D02*
G37*
G36*
X590551Y112532D02*
X589881Y112443D01*
X589256Y112185D01*
X588719Y111773D01*
X588308Y111236D01*
X588049Y110611D01*
X587960Y109941D01*
X588049Y109270D01*
X588308Y108646D01*
X588719Y108109D01*
X589256Y107697D01*
X589881Y107439D01*
X590551Y107350D01*
X591222Y107439D01*
X591847Y107697D01*
X592383Y108109D01*
X592795Y108646D01*
X593054Y109270D01*
X593142Y109941D01*
X593054Y110611D01*
X592795Y111236D01*
X592383Y111773D01*
X591847Y112185D01*
X591222Y112443D01*
X590551Y112532D01*
D02*
G37*
G36*
X11811Y120406D02*
X11141Y120317D01*
X10516Y120059D01*
X9979Y119647D01*
X9567Y119110D01*
X9309Y118485D01*
X9220Y117815D01*
X9309Y117145D01*
X9567Y116520D01*
X9979Y115983D01*
X10516Y115571D01*
X11141Y115313D01*
X11811Y115224D01*
X12482Y115313D01*
X13106Y115571D01*
X13643Y115983D01*
X14055Y116520D01*
X14313Y117145D01*
X14402Y117815D01*
X14313Y118485D01*
X14055Y119110D01*
X13643Y119647D01*
X13106Y120059D01*
X12482Y120317D01*
X11811Y120406D01*
D02*
G37*
G36*
X57087Y156061D02*
X56462Y155936D01*
X55933Y155583D01*
X55579Y155053D01*
X55455Y154429D01*
X55579Y153805D01*
X55933Y153276D01*
X56462Y152922D01*
X57087Y152798D01*
X57124Y152805D01*
X61871Y148059D01*
Y120106D01*
X61871Y120106D01*
X61956Y119676D01*
X62199Y119312D01*
X65388Y116124D01*
X65380Y116086D01*
X65505Y115462D01*
X65858Y114932D01*
X66387Y114579D01*
X67012Y114454D01*
X67636Y114579D01*
X68165Y114932D01*
X68519Y115462D01*
X68643Y116086D01*
X68519Y116710D01*
X68165Y117239D01*
X67636Y117593D01*
X67012Y117717D01*
X66974Y117710D01*
X64114Y120570D01*
Y148524D01*
X64028Y148953D01*
X63785Y149317D01*
X63785Y149317D01*
X58710Y154391D01*
X58718Y154429D01*
X58594Y155053D01*
X58240Y155583D01*
X57711Y155936D01*
X57087Y156061D01*
D02*
G37*
G36*
X66929Y160785D02*
X66305Y160661D01*
X65776Y160307D01*
X65422Y159778D01*
X65298Y159153D01*
X65422Y158529D01*
X65776Y158000D01*
X65808Y157979D01*
Y123721D01*
X65808Y123721D01*
X65893Y123291D01*
X66136Y122927D01*
X71481Y117583D01*
Y110245D01*
X71449Y110224D01*
X71095Y109694D01*
X70971Y109070D01*
X71095Y108446D01*
X71449Y107916D01*
X71978Y107563D01*
X72602Y107439D01*
X73227Y107563D01*
X73756Y107916D01*
X74110Y108446D01*
X74234Y109070D01*
X74110Y109694D01*
X73756Y110224D01*
X73724Y110245D01*
Y118047D01*
X73724Y118047D01*
X73638Y118476D01*
X73395Y118840D01*
X68051Y124185D01*
Y157979D01*
X68083Y158000D01*
X68436Y158529D01*
X68560Y159153D01*
X68436Y159778D01*
X68083Y160307D01*
X67553Y160661D01*
X66929Y160785D01*
D02*
G37*
G36*
X284933Y58260D02*
X283493D01*
X283549Y57980D01*
X283991Y57318D01*
X284653Y56876D01*
X284933Y56820D01*
Y58260D01*
D02*
G37*
G36*
X134358Y42826D02*
Y41386D01*
X135798D01*
X135742Y41666D01*
X135300Y42328D01*
X134639Y42770D01*
X134358Y42826D01*
D02*
G37*
G36*
X133358D02*
X133078Y42770D01*
X132416Y42328D01*
X131974Y41666D01*
X131919Y41386D01*
X133358D01*
Y42826D01*
D02*
G37*
G36*
X129358D02*
Y41386D01*
X130798D01*
X130742Y41666D01*
X130300Y42328D01*
X129639Y42770D01*
X129358Y42826D01*
D02*
G37*
G36*
X108358Y45386D02*
X106919D01*
X106974Y45105D01*
X107416Y44444D01*
X108078Y44002D01*
X108358Y43946D01*
Y45386D01*
D02*
G37*
G36*
X105798D02*
X104358D01*
Y43946D01*
X104639Y44002D01*
X105300Y44444D01*
X105742Y45105D01*
X105798Y45386D01*
D02*
G37*
G36*
X103358D02*
X101918D01*
X101974Y45105D01*
X102416Y44444D01*
X103078Y44002D01*
X103358Y43946D01*
Y45386D01*
D02*
G37*
G36*
X119358Y42826D02*
Y41386D01*
X120798D01*
X120742Y41666D01*
X120300Y42328D01*
X119639Y42770D01*
X119358Y42826D01*
D02*
G37*
G36*
X118358D02*
X118078Y42770D01*
X117416Y42328D01*
X116974Y41666D01*
X116919Y41386D01*
X118358D01*
Y42826D01*
D02*
G37*
G36*
X114358D02*
Y41386D01*
X115798D01*
X115742Y41666D01*
X115300Y42328D01*
X114639Y42770D01*
X114358Y42826D01*
D02*
G37*
G36*
X128358D02*
X128078Y42770D01*
X127416Y42328D01*
X126974Y41666D01*
X126918Y41386D01*
X128358D01*
Y42826D01*
D02*
G37*
G36*
X124358D02*
Y41386D01*
X125798D01*
X125742Y41666D01*
X125300Y42328D01*
X124639Y42770D01*
X124358Y42826D01*
D02*
G37*
G36*
X123358D02*
X123078Y42770D01*
X122416Y42328D01*
X121974Y41666D01*
X121918Y41386D01*
X123358D01*
Y42826D01*
D02*
G37*
G36*
X110798Y45386D02*
X109358D01*
Y43946D01*
X109639Y44002D01*
X110300Y44444D01*
X110742Y45105D01*
X110798Y45386D01*
D02*
G37*
G36*
X133358D02*
X131919D01*
X131974Y45105D01*
X132416Y44444D01*
X133078Y44002D01*
X133358Y43946D01*
Y45386D01*
D02*
G37*
G36*
X130798D02*
X129358D01*
Y43946D01*
X129639Y44002D01*
X130300Y44444D01*
X130742Y45105D01*
X130798Y45386D01*
D02*
G37*
G36*
X128358D02*
X126918D01*
X126974Y45105D01*
X127416Y44444D01*
X128078Y44002D01*
X128358Y43946D01*
Y45386D01*
D02*
G37*
G36*
X104358Y47826D02*
Y46386D01*
X105798D01*
X105742Y46666D01*
X105300Y47328D01*
X104639Y47770D01*
X104358Y47826D01*
D02*
G37*
G36*
X103358D02*
X103078Y47770D01*
X102416Y47328D01*
X101974Y46666D01*
X101918Y46386D01*
X103358D01*
Y47826D01*
D02*
G37*
G36*
X135798Y45386D02*
X134358D01*
Y43946D01*
X134639Y44002D01*
X135300Y44444D01*
X135742Y45105D01*
X135798Y45386D01*
D02*
G37*
G36*
X118358D02*
X116919D01*
X116974Y45105D01*
X117416Y44444D01*
X118078Y44002D01*
X118358Y43946D01*
Y45386D01*
D02*
G37*
G36*
X115798D02*
X114358D01*
Y43946D01*
X114639Y44002D01*
X115300Y44444D01*
X115742Y45105D01*
X115798Y45386D01*
D02*
G37*
G36*
X113358D02*
X111918D01*
X111974Y45105D01*
X112416Y44444D01*
X113078Y44002D01*
X113358Y43946D01*
Y45386D01*
D02*
G37*
G36*
X125798D02*
X124358D01*
Y43946D01*
X124639Y44002D01*
X125300Y44444D01*
X125742Y45105D01*
X125798Y45386D01*
D02*
G37*
G36*
X123358D02*
X121918D01*
X121974Y45105D01*
X122416Y44444D01*
X123078Y44002D01*
X123358Y43946D01*
Y45386D01*
D02*
G37*
G36*
X120798D02*
X119358D01*
Y43946D01*
X119639Y44002D01*
X120300Y44444D01*
X120742Y45105D01*
X120798Y45386D01*
D02*
G37*
G36*
X113358Y42826D02*
X113078Y42770D01*
X112416Y42328D01*
X111974Y41666D01*
X111918Y41386D01*
X113358D01*
Y42826D01*
D02*
G37*
G36*
X110798Y40386D02*
X109358D01*
Y38946D01*
X109639Y39002D01*
X110300Y39444D01*
X110742Y40106D01*
X110798Y40386D01*
D02*
G37*
G36*
X108358D02*
X106919D01*
X106974Y40106D01*
X107416Y39444D01*
X108078Y39002D01*
X108358Y38946D01*
Y40386D01*
D02*
G37*
G36*
X105798D02*
X104358D01*
Y38946D01*
X104639Y39002D01*
X105300Y39444D01*
X105742Y40106D01*
X105798Y40386D01*
D02*
G37*
G36*
X118358D02*
X116919D01*
X116974Y40106D01*
X117416Y39444D01*
X118078Y39002D01*
X118358Y38946D01*
Y40386D01*
D02*
G37*
G36*
X115798D02*
X114358D01*
Y38946D01*
X114639Y39002D01*
X115300Y39444D01*
X115742Y40106D01*
X115798Y40386D01*
D02*
G37*
G36*
X113358D02*
X111918D01*
X111974Y40106D01*
X112416Y39444D01*
X113078Y39002D01*
X113358Y38946D01*
Y40386D01*
D02*
G37*
G36*
X272047Y11178D02*
X271122Y10994D01*
X270337Y10470D01*
X269813Y9685D01*
X269629Y8760D01*
X269813Y7835D01*
X270337Y7050D01*
X271122Y6526D01*
X272047Y6342D01*
X272973Y6526D01*
X273757Y7050D01*
X274281Y7835D01*
X274465Y8760D01*
X274281Y9685D01*
X273757Y10470D01*
X272973Y10994D01*
X272047Y11178D01*
D02*
G37*
G36*
X605000Y25633D02*
X603337Y25502D01*
X601714Y25112D01*
X600173Y24474D01*
X598750Y23602D01*
X597481Y22519D01*
X596398Y21250D01*
X595526Y19827D01*
X594888Y18286D01*
X594498Y16663D01*
X594367Y15000D01*
X594498Y13337D01*
X594888Y11714D01*
X595526Y10173D01*
X596398Y8750D01*
X597481Y7481D01*
X598750Y6398D01*
X600173Y5526D01*
X601714Y4888D01*
X603337Y4498D01*
X605000Y4367D01*
X606663Y4498D01*
X608286Y4888D01*
X609827Y5526D01*
X611250Y6398D01*
X612519Y7481D01*
X613602Y8750D01*
X614474Y10173D01*
X615112Y11714D01*
X615502Y13337D01*
X615633Y15000D01*
X615502Y16663D01*
X615112Y18286D01*
X614474Y19827D01*
X613602Y21250D01*
X612519Y22519D01*
X611250Y23602D01*
X609827Y24474D01*
X608286Y25112D01*
X606663Y25502D01*
X605000Y25633D01*
D02*
G37*
G36*
X15000D02*
X13337Y25502D01*
X11714Y25112D01*
X10173Y24474D01*
X8750Y23602D01*
X7481Y22519D01*
X6398Y21250D01*
X5526Y19827D01*
X4888Y18286D01*
X4498Y16663D01*
X4367Y15000D01*
X4498Y13337D01*
X4888Y11714D01*
X5526Y10173D01*
X6398Y8750D01*
X7481Y7481D01*
X8750Y6398D01*
X10173Y5526D01*
X11714Y4888D01*
X13337Y4498D01*
X15000Y4367D01*
X16663Y4498D01*
X18286Y4888D01*
X19827Y5526D01*
X21250Y6398D01*
X22519Y7481D01*
X23602Y8750D01*
X24474Y10173D01*
X25112Y11714D01*
X25502Y13337D01*
X25633Y15000D01*
X25502Y16663D01*
X25112Y18286D01*
X24474Y19827D01*
X23602Y21250D01*
X22519Y22519D01*
X21250Y23602D01*
X19827Y24474D01*
X18286Y25112D01*
X16663Y25502D01*
X15000Y25633D01*
D02*
G37*
G36*
X103358Y40386D02*
X101918D01*
X101974Y40106D01*
X102416Y39444D01*
X103078Y39002D01*
X103358Y38946D01*
Y40386D01*
D02*
G37*
G36*
X295276Y28895D02*
X294651Y28771D01*
X294122Y28417D01*
X293768Y27888D01*
X293644Y27264D01*
X293768Y26640D01*
X294122Y26110D01*
X294651Y25757D01*
X295276Y25632D01*
X295900Y25757D01*
X296429Y26110D01*
X296783Y26640D01*
X296907Y27264D01*
X296783Y27888D01*
X296429Y28417D01*
X295900Y28771D01*
X295276Y28895D01*
D02*
G37*
G36*
X298819Y11178D02*
X297894Y10994D01*
X297109Y10470D01*
X296585Y9685D01*
X296401Y8760D01*
X296585Y7835D01*
X297109Y7050D01*
X297894Y6526D01*
X298819Y6342D01*
X299744Y6526D01*
X300529Y7050D01*
X301053Y7835D01*
X301237Y8760D01*
X301053Y9685D01*
X300529Y10470D01*
X299744Y10994D01*
X298819Y11178D01*
D02*
G37*
G36*
X120798Y40386D02*
X119358D01*
Y38946D01*
X119639Y39002D01*
X120300Y39444D01*
X120742Y40106D01*
X120798Y40386D01*
D02*
G37*
G36*
X103358Y42826D02*
X103078Y42770D01*
X102416Y42328D01*
X101974Y41666D01*
X101918Y41386D01*
X103358D01*
Y42826D01*
D02*
G37*
G36*
X578780Y45686D02*
X577955Y45578D01*
X577186Y45259D01*
X576526Y44753D01*
X576020Y44093D01*
X575702Y43325D01*
X575593Y42500D01*
X575702Y41675D01*
X576020Y40907D01*
X576526Y40247D01*
X577186Y39741D01*
X577955Y39422D01*
X578780Y39314D01*
X579604Y39422D01*
X580373Y39741D01*
X581033Y40247D01*
X581539Y40907D01*
X581857Y41675D01*
X581966Y42500D01*
X581857Y43325D01*
X581539Y44093D01*
X581033Y44753D01*
X580373Y45259D01*
X579604Y45578D01*
X578780Y45686D01*
D02*
G37*
G36*
X23583Y45686D02*
X22758Y45578D01*
X21990Y45259D01*
X21330Y44753D01*
X20823Y44093D01*
X20505Y43325D01*
X20396Y42500D01*
X20505Y41675D01*
X20823Y40907D01*
X21330Y40247D01*
X21990Y39741D01*
X22758Y39422D01*
X23583Y39314D01*
X24407Y39422D01*
X25176Y39741D01*
X25836Y40247D01*
X26342Y40907D01*
X26660Y41675D01*
X26769Y42500D01*
X26660Y43325D01*
X26342Y44093D01*
X25836Y44753D01*
X25176Y45259D01*
X24407Y45578D01*
X23583Y45686D01*
D02*
G37*
G36*
X109358Y42826D02*
Y41386D01*
X110798D01*
X110742Y41666D01*
X110300Y42328D01*
X109639Y42770D01*
X109358Y42826D01*
D02*
G37*
G36*
X108358D02*
X108078Y42770D01*
X107416Y42328D01*
X106974Y41666D01*
X106919Y41386D01*
X108358D01*
Y42826D01*
D02*
G37*
G36*
X104358D02*
Y41386D01*
X105798D01*
X105742Y41666D01*
X105300Y42328D01*
X104639Y42770D01*
X104358Y42826D01*
D02*
G37*
G36*
X128358Y40386D02*
X126918D01*
X126974Y40106D01*
X127416Y39444D01*
X128078Y39002D01*
X128358Y38946D01*
Y40386D01*
D02*
G37*
G36*
X125798D02*
X124358D01*
Y38946D01*
X124639Y39002D01*
X125300Y39444D01*
X125742Y40106D01*
X125798Y40386D01*
D02*
G37*
G36*
X123358D02*
X121918D01*
X121974Y40106D01*
X122416Y39444D01*
X123078Y39002D01*
X123358Y38946D01*
Y40386D01*
D02*
G37*
G36*
X135798D02*
X134358D01*
Y38946D01*
X134639Y39002D01*
X135300Y39444D01*
X135742Y40106D01*
X135798Y40386D01*
D02*
G37*
G36*
X133358D02*
X131919D01*
X131974Y40106D01*
X132416Y39444D01*
X133078Y39002D01*
X133358Y38946D01*
Y40386D01*
D02*
G37*
G36*
X130798D02*
X129358D01*
Y38946D01*
X129639Y39002D01*
X130300Y39444D01*
X130742Y40106D01*
X130798Y40386D01*
D02*
G37*
G36*
X108358Y47826D02*
X108078Y47770D01*
X107416Y47328D01*
X106974Y46666D01*
X106919Y46386D01*
X108358D01*
Y47826D01*
D02*
G37*
G36*
X103358Y52826D02*
X103078Y52770D01*
X102416Y52328D01*
X101974Y51666D01*
X101918Y51386D01*
X103358D01*
Y52826D01*
D02*
G37*
G36*
X588779Y64292D02*
X587852Y64170D01*
X586988Y63812D01*
X586246Y63243D01*
X585676Y62500D01*
X585318Y61636D01*
X585196Y60709D01*
X585318Y59781D01*
X585676Y58917D01*
X586246Y58175D01*
X586988Y57605D01*
X587827Y57258D01*
X587827Y56758D01*
X586988Y56410D01*
X586246Y55841D01*
X585676Y55099D01*
X585318Y54234D01*
X585196Y53307D01*
X585318Y52380D01*
X585676Y51515D01*
X586246Y50773D01*
X586988Y50204D01*
X587852Y49846D01*
X588779Y49724D01*
X589707Y49846D01*
X590571Y50204D01*
X591313Y50773D01*
X591883Y51515D01*
X592241Y52380D01*
X592363Y53307D01*
X592241Y54234D01*
X591883Y55099D01*
X591313Y55841D01*
X590571Y56410D01*
X589732Y56758D01*
X589732Y57258D01*
X590571Y57605D01*
X591313Y58175D01*
X591883Y58917D01*
X592241Y59781D01*
X592363Y60709D01*
X592241Y61636D01*
X591883Y62500D01*
X591313Y63243D01*
X590571Y63812D01*
X589707Y64170D01*
X588779Y64292D01*
D02*
G37*
G36*
X578780D02*
X577852Y64170D01*
X576988Y63812D01*
X576246Y63243D01*
X575676Y62500D01*
X575318Y61636D01*
X575196Y60709D01*
X575318Y59781D01*
X575676Y58917D01*
X576246Y58175D01*
X576988Y57605D01*
X577827Y57258D01*
X577827Y56758D01*
X576988Y56410D01*
X576246Y55841D01*
X575676Y55099D01*
X575318Y54234D01*
X575196Y53307D01*
X575318Y52380D01*
X575676Y51515D01*
X576246Y50773D01*
X576988Y50204D01*
X577852Y49846D01*
X578780Y49724D01*
X579707Y49846D01*
X580571Y50204D01*
X581313Y50773D01*
X581883Y51515D01*
X582241Y52380D01*
X582363Y53307D01*
X582241Y54234D01*
X581883Y55099D01*
X581313Y55841D01*
X580571Y56410D01*
X579732Y56758D01*
X579732Y57258D01*
X580571Y57605D01*
X581313Y58175D01*
X581883Y58917D01*
X582241Y59781D01*
X582363Y60709D01*
X582241Y61636D01*
X581883Y62500D01*
X581313Y63243D01*
X580571Y63812D01*
X579707Y64170D01*
X578780Y64292D01*
D02*
G37*
G36*
X109358Y52826D02*
Y51386D01*
X110798D01*
X110742Y51666D01*
X110300Y52328D01*
X109639Y52770D01*
X109358Y52826D01*
D02*
G37*
G36*
X108358D02*
X108078Y52770D01*
X107416Y52328D01*
X106974Y51666D01*
X106919Y51386D01*
X108358D01*
Y52826D01*
D02*
G37*
G36*
X104358D02*
Y51386D01*
X105798D01*
X105742Y51666D01*
X105300Y52328D01*
X104639Y52770D01*
X104358Y52826D01*
D02*
G37*
G36*
X27504Y52807D02*
X24083D01*
Y49386D01*
X24614Y49456D01*
X25576Y49854D01*
X26402Y50488D01*
X27035Y51314D01*
X27434Y52275D01*
X27504Y52807D01*
D02*
G37*
G36*
X23083D02*
X19662D01*
X19732Y52275D01*
X20130Y51314D01*
X20764Y50488D01*
X21589Y49854D01*
X22551Y49456D01*
X23083Y49386D01*
Y52807D01*
D02*
G37*
G36*
X17504D02*
X14083D01*
Y49386D01*
X14615Y49456D01*
X15576Y49854D01*
X16402Y50488D01*
X17035Y51314D01*
X17434Y52275D01*
X17504Y52807D01*
D02*
G37*
G36*
X568780Y64292D02*
X567852Y64170D01*
X566988Y63812D01*
X566246Y63243D01*
X565676Y62500D01*
X565318Y61636D01*
X565196Y60709D01*
X565318Y59781D01*
X565676Y58917D01*
X566246Y58175D01*
X566988Y57605D01*
X567827Y57258D01*
X567827Y56758D01*
X566988Y56410D01*
X566246Y55841D01*
X565676Y55099D01*
X565318Y54234D01*
X565196Y53307D01*
X565318Y52380D01*
X565676Y51515D01*
X566246Y50773D01*
X566988Y50204D01*
X567852Y49846D01*
X568780Y49724D01*
X569707Y49846D01*
X570571Y50204D01*
X571313Y50773D01*
X571883Y51515D01*
X572241Y52380D01*
X572363Y53307D01*
X572241Y54234D01*
X571883Y55099D01*
X571313Y55841D01*
X570571Y56410D01*
X569732Y56758D01*
X569732Y57258D01*
X570571Y57605D01*
X571313Y58175D01*
X571883Y58917D01*
X572241Y59781D01*
X572363Y60709D01*
X572241Y61636D01*
X571883Y62500D01*
X571313Y63243D01*
X570571Y63812D01*
X569707Y64170D01*
X568780Y64292D01*
D02*
G37*
G36*
X37504Y52807D02*
X34083D01*
Y49386D01*
X34615Y49456D01*
X35576Y49854D01*
X36402Y50488D01*
X37035Y51314D01*
X37434Y52275D01*
X37504Y52807D01*
D02*
G37*
G36*
X33083D02*
X29662D01*
X29732Y52275D01*
X30130Y51314D01*
X30764Y50488D01*
X31589Y49854D01*
X32551Y49456D01*
X33083Y49386D01*
Y52807D01*
D02*
G37*
G36*
X113358Y52826D02*
X113078Y52770D01*
X112416Y52328D01*
X111974Y51666D01*
X111918Y51386D01*
X113358D01*
Y52826D01*
D02*
G37*
G36*
X134358D02*
Y51386D01*
X135798D01*
X135742Y51666D01*
X135300Y52328D01*
X134639Y52770D01*
X134358Y52826D01*
D02*
G37*
G36*
X133358D02*
X133078Y52770D01*
X132416Y52328D01*
X131974Y51666D01*
X131919Y51386D01*
X133358D01*
Y52826D01*
D02*
G37*
G36*
X129358D02*
Y51386D01*
X130798D01*
X130742Y51666D01*
X130300Y52328D01*
X129639Y52770D01*
X129358Y52826D01*
D02*
G37*
G36*
X37504Y60209D02*
X29662D01*
X29732Y59677D01*
X30130Y58715D01*
X30764Y57889D01*
X31587Y57258D01*
Y56758D01*
X30764Y56126D01*
X30130Y55300D01*
X29732Y54339D01*
X29662Y53807D01*
X37504D01*
X37434Y54339D01*
X37035Y55300D01*
X36402Y56126D01*
X35579Y56758D01*
Y57258D01*
X36402Y57889D01*
X37035Y58715D01*
X37434Y59677D01*
X37504Y60209D01*
D02*
G37*
G36*
X27504D02*
X19662D01*
X19732Y59677D01*
X20130Y58715D01*
X20764Y57889D01*
X21587Y57258D01*
Y56758D01*
X20764Y56126D01*
X20130Y55300D01*
X19732Y54339D01*
X19662Y53807D01*
X27504D01*
X27434Y54339D01*
X27035Y55300D01*
X26402Y56126D01*
X25579Y56758D01*
Y57258D01*
X26402Y57889D01*
X27035Y58715D01*
X27434Y59677D01*
X27504Y60209D01*
D02*
G37*
G36*
X17504D02*
X9662D01*
X9732Y59677D01*
X10130Y58715D01*
X10763Y57889D01*
X11587Y57258D01*
Y56758D01*
X10763Y56126D01*
X10130Y55300D01*
X9732Y54339D01*
X9662Y53807D01*
X17504D01*
X17434Y54339D01*
X17035Y55300D01*
X16402Y56126D01*
X15579Y56758D01*
Y57258D01*
X16402Y57889D01*
X17035Y58715D01*
X17434Y59677D01*
X17504Y60209D01*
D02*
G37*
G36*
X119358Y52826D02*
Y51386D01*
X120798D01*
X120742Y51666D01*
X120300Y52328D01*
X119639Y52770D01*
X119358Y52826D01*
D02*
G37*
G36*
X118358D02*
X118078Y52770D01*
X117416Y52328D01*
X116974Y51666D01*
X116919Y51386D01*
X118358D01*
Y52826D01*
D02*
G37*
G36*
X114358D02*
Y51386D01*
X115798D01*
X115742Y51666D01*
X115300Y52328D01*
X114639Y52770D01*
X114358Y52826D01*
D02*
G37*
G36*
X128358D02*
X128078Y52770D01*
X127416Y52328D01*
X126974Y51666D01*
X126918Y51386D01*
X128358D01*
Y52826D01*
D02*
G37*
G36*
X124358D02*
Y51386D01*
X125798D01*
X125742Y51666D01*
X125300Y52328D01*
X124639Y52770D01*
X124358Y52826D01*
D02*
G37*
G36*
X123358D02*
X123078Y52770D01*
X122416Y52328D01*
X121974Y51666D01*
X121918Y51386D01*
X123358D01*
Y52826D01*
D02*
G37*
G36*
X13083Y52807D02*
X9662D01*
X9732Y52275D01*
X10130Y51314D01*
X10763Y50488D01*
X11589Y49854D01*
X12551Y49456D01*
X13083Y49386D01*
Y52807D01*
D02*
G37*
G36*
X129358Y47826D02*
Y46386D01*
X130798D01*
X130742Y46666D01*
X130300Y47328D01*
X129639Y47770D01*
X129358Y47826D01*
D02*
G37*
G36*
X128358D02*
X128078Y47770D01*
X127416Y47328D01*
X126974Y46666D01*
X126918Y46386D01*
X128358D01*
Y47826D01*
D02*
G37*
G36*
X124358D02*
Y46386D01*
X125798D01*
X125742Y46666D01*
X125300Y47328D01*
X124639Y47770D01*
X124358Y47826D01*
D02*
G37*
G36*
X103358Y50386D02*
X101918D01*
X101974Y50106D01*
X102416Y49444D01*
X103078Y49002D01*
X103358Y48946D01*
Y50386D01*
D02*
G37*
G36*
X134358Y47826D02*
Y46386D01*
X135798D01*
X135742Y46666D01*
X135300Y47328D01*
X134639Y47770D01*
X134358Y47826D01*
D02*
G37*
G36*
X133358D02*
X133078Y47770D01*
X132416Y47328D01*
X131974Y46666D01*
X131919Y46386D01*
X133358D01*
Y47826D01*
D02*
G37*
G36*
X114358D02*
Y46386D01*
X115798D01*
X115742Y46666D01*
X115300Y47328D01*
X114639Y47770D01*
X114358Y47826D01*
D02*
G37*
G36*
X113358D02*
X113078Y47770D01*
X112416Y47328D01*
X111974Y46666D01*
X111918Y46386D01*
X113358D01*
Y47826D01*
D02*
G37*
G36*
X109358D02*
Y46386D01*
X110798D01*
X110742Y46666D01*
X110300Y47328D01*
X109639Y47770D01*
X109358Y47826D01*
D02*
G37*
G36*
X123358D02*
X123078Y47770D01*
X122416Y47328D01*
X121974Y46666D01*
X121918Y46386D01*
X123358D01*
Y47826D01*
D02*
G37*
G36*
X119358D02*
Y46386D01*
X120798D01*
X120742Y46666D01*
X120300Y47328D01*
X119639Y47770D01*
X119358Y47826D01*
D02*
G37*
G36*
X118358D02*
X118078Y47770D01*
X117416Y47328D01*
X116974Y46666D01*
X116919Y46386D01*
X118358D01*
Y47826D01*
D02*
G37*
G36*
X105798Y50386D02*
X104358D01*
Y48946D01*
X104639Y49002D01*
X105300Y49444D01*
X105742Y50106D01*
X105798Y50386D01*
D02*
G37*
G36*
X128358D02*
X126918D01*
X126974Y50106D01*
X127416Y49444D01*
X128078Y49002D01*
X128358Y48946D01*
Y50386D01*
D02*
G37*
G36*
X125798D02*
X124358D01*
Y48946D01*
X124639Y49002D01*
X125300Y49444D01*
X125742Y50106D01*
X125798Y50386D01*
D02*
G37*
G36*
X123358D02*
X121918D01*
X121974Y50106D01*
X122416Y49444D01*
X123078Y49002D01*
X123358Y48946D01*
Y50386D01*
D02*
G37*
G36*
X135798D02*
X134358D01*
Y48946D01*
X134639Y49002D01*
X135300Y49444D01*
X135742Y50106D01*
X135798Y50386D01*
D02*
G37*
G36*
X133358D02*
X131919D01*
X131974Y50106D01*
X132416Y49444D01*
X133078Y49002D01*
X133358Y48946D01*
Y50386D01*
D02*
G37*
G36*
X130798D02*
X129358D01*
Y48946D01*
X129639Y49002D01*
X130300Y49444D01*
X130742Y50106D01*
X130798Y50386D01*
D02*
G37*
G36*
X113358D02*
X111918D01*
X111974Y50106D01*
X112416Y49444D01*
X113078Y49002D01*
X113358Y48946D01*
Y50386D01*
D02*
G37*
G36*
X110798D02*
X109358D01*
Y48946D01*
X109639Y49002D01*
X110300Y49444D01*
X110742Y50106D01*
X110798Y50386D01*
D02*
G37*
G36*
X108358D02*
X106919D01*
X106974Y50106D01*
X107416Y49444D01*
X108078Y49002D01*
X108358Y48946D01*
Y50386D01*
D02*
G37*
G36*
X120798D02*
X119358D01*
Y48946D01*
X119639Y49002D01*
X120300Y49444D01*
X120742Y50106D01*
X120798Y50386D01*
D02*
G37*
G36*
X118358D02*
X116919D01*
X116974Y50106D01*
X117416Y49444D01*
X118078Y49002D01*
X118358Y48946D01*
Y50386D01*
D02*
G37*
G36*
X115798D02*
X114358D01*
Y48946D01*
X114639Y49002D01*
X115300Y49444D01*
X115742Y50106D01*
X115798Y50386D01*
D02*
G37*
G36*
X569279Y142956D02*
Y139535D01*
X572701D01*
X572631Y140067D01*
X572232Y141029D01*
X571599Y141855D01*
X570773Y142488D01*
X569811Y142886D01*
X569279Y142956D01*
D02*
G37*
G36*
X12570Y320858D02*
X11130D01*
Y319419D01*
X11410Y319474D01*
X12072Y319916D01*
X12514Y320578D01*
X12570Y320858D01*
D02*
G37*
G36*
X10130D02*
X8690D01*
X8746Y320578D01*
X9188Y319916D01*
X9850Y319474D01*
X10130Y319419D01*
Y320858D01*
D02*
G37*
G36*
X167429Y320542D02*
Y319102D01*
X168869D01*
X168813Y319383D01*
X168371Y320044D01*
X167710Y320486D01*
X167429Y320542D01*
D02*
G37*
G36*
X458835Y325999D02*
X458303Y325929D01*
X457341Y325531D01*
X456516Y324897D01*
X455882Y324071D01*
X455484Y323110D01*
X455414Y322578D01*
X458835D01*
Y325999D01*
D02*
G37*
G36*
X11130Y323298D02*
Y321858D01*
X12570D01*
X12514Y322139D01*
X12072Y322800D01*
X11410Y323242D01*
X11130Y323298D01*
D02*
G37*
G36*
X10130D02*
X9850Y323242D01*
X9188Y322800D01*
X8746Y322139D01*
X8690Y321858D01*
X10130D01*
Y323298D01*
D02*
G37*
G36*
X463256Y321578D02*
X459835D01*
Y318157D01*
X460366Y318227D01*
X461328Y318625D01*
X462154Y319259D01*
X462787Y320085D01*
X463186Y321046D01*
X463256Y321578D01*
D02*
G37*
G36*
X458835D02*
X455414D01*
X455484Y321046D01*
X455882Y320085D01*
X456516Y319259D01*
X457341Y318625D01*
X458303Y318227D01*
X458835Y318157D01*
Y321578D01*
D02*
G37*
G36*
X168869Y318102D02*
X167429D01*
Y316663D01*
X167710Y316718D01*
X168371Y317160D01*
X168813Y317822D01*
X168869Y318102D01*
D02*
G37*
G36*
X166429Y320542D02*
X166149Y320486D01*
X165487Y320044D01*
X165045Y319383D01*
X164989Y319102D01*
X166429D01*
Y320542D01*
D02*
G37*
G36*
X78740Y324171D02*
X78116Y324046D01*
X77587Y323693D01*
X77429Y323457D01*
X49213D01*
X48861Y323387D01*
X48564Y323188D01*
X12089Y286714D01*
X11811Y286769D01*
X11187Y286645D01*
X10657Y286291D01*
X10304Y285762D01*
X10180Y285138D01*
X10304Y284513D01*
X10657Y283984D01*
X11187Y283631D01*
X11811Y283506D01*
X12435Y283631D01*
X12965Y283984D01*
X13318Y284513D01*
X13442Y285138D01*
X13387Y285416D01*
X49593Y321622D01*
X50264D01*
X50309Y321553D01*
X50472Y321160D01*
X26905Y297592D01*
X26706Y297294D01*
X26636Y296943D01*
Y288412D01*
X26400Y288254D01*
X26046Y287725D01*
X25922Y287101D01*
X26046Y286476D01*
X26400Y285947D01*
X26929Y285594D01*
X27553Y285469D01*
X28178Y285594D01*
X28707Y285947D01*
X29061Y286476D01*
X29185Y287101D01*
X29061Y287725D01*
X28707Y288254D01*
X28471Y288412D01*
Y296563D01*
X51561Y319653D01*
X81366D01*
X81524Y319417D01*
X82053Y319064D01*
X82677Y318939D01*
X83301Y319064D01*
X83831Y319417D01*
X84184Y319947D01*
X84308Y320571D01*
X84184Y321195D01*
X83831Y321724D01*
X83301Y322078D01*
X82677Y322202D01*
X82053Y322078D01*
X81524Y321724D01*
X81366Y321488D01*
X80475D01*
X80247Y321915D01*
X80371Y322539D01*
X80247Y323164D01*
X79894Y323693D01*
X79364Y324046D01*
X78740Y324171D01*
D02*
G37*
G36*
X469335Y325661D02*
X468407Y325539D01*
X467543Y325181D01*
X466801Y324612D01*
X466231Y323870D01*
X465873Y323005D01*
X465751Y322078D01*
X465873Y321150D01*
X466231Y320286D01*
X466801Y319544D01*
X467543Y318975D01*
X468407Y318617D01*
X469335Y318495D01*
X470262Y318617D01*
X471126Y318975D01*
X471869Y319544D01*
X472438Y320286D01*
X472796Y321150D01*
X472918Y322078D01*
X472796Y323005D01*
X472438Y323870D01*
X471869Y324612D01*
X471126Y325181D01*
X470262Y325539D01*
X469335Y325661D01*
D02*
G37*
G36*
X459835Y325999D02*
Y322578D01*
X463256D01*
X463186Y323110D01*
X462787Y324071D01*
X462154Y324897D01*
X461328Y325531D01*
X460366Y325929D01*
X459835Y325999D01*
D02*
G37*
G36*
X103831Y349598D02*
X102391D01*
X102447Y349318D01*
X102889Y348657D01*
X103550Y348215D01*
X103831Y348159D01*
Y349598D01*
D02*
G37*
G36*
X41681Y348162D02*
Y344693D01*
X45150D01*
X45078Y345237D01*
X44675Y346210D01*
X44034Y347046D01*
X43198Y347687D01*
X42225Y348090D01*
X41681Y348162D01*
D02*
G37*
G36*
X40681D02*
X40137Y348090D01*
X39164Y347687D01*
X38328Y347046D01*
X37687Y346210D01*
X37284Y345237D01*
X37212Y344693D01*
X40681D01*
Y348162D01*
D02*
G37*
G36*
X103831Y352038D02*
X103550Y351982D01*
X102889Y351540D01*
X102447Y350879D01*
X102391Y350598D01*
X103831D01*
Y352038D01*
D02*
G37*
G36*
X9200Y356831D02*
X8260Y356707D01*
X7384Y356345D01*
X6633Y355767D01*
X6055Y355015D01*
X5693Y354140D01*
X5569Y353200D01*
X5693Y352260D01*
X6055Y351384D01*
X6633Y350632D01*
X7384Y350055D01*
X8260Y349693D01*
X9200Y349569D01*
X10140Y349693D01*
X11016Y350055D01*
X11767Y350632D01*
X12345Y351384D01*
X12707Y352260D01*
X12831Y353200D01*
X12707Y354140D01*
X12345Y355015D01*
X11767Y355767D01*
X11016Y356345D01*
X10140Y356707D01*
X9200Y356831D01*
D02*
G37*
G36*
X106270Y349598D02*
X104831D01*
Y348159D01*
X105111Y348215D01*
X105773Y348657D01*
X106215Y349318D01*
X106270Y349598D01*
D02*
G37*
G36*
X9200Y346831D02*
X8260Y346707D01*
X7384Y346345D01*
X6633Y345767D01*
X6055Y345016D01*
X5693Y344140D01*
X5569Y343200D01*
X5693Y342260D01*
X6055Y341385D01*
X6633Y340633D01*
X7384Y340055D01*
X8260Y339693D01*
X9200Y339569D01*
X10140Y339693D01*
X11016Y340055D01*
X11767Y340633D01*
X12345Y341385D01*
X12707Y342260D01*
X12831Y343200D01*
X12707Y344140D01*
X12345Y345016D01*
X11767Y345767D01*
X11016Y346345D01*
X10140Y346707D01*
X9200Y346831D01*
D02*
G37*
G36*
X165854Y338259D02*
Y336819D01*
X167294D01*
X167238Y337099D01*
X166796Y337761D01*
X166135Y338203D01*
X165854Y338259D01*
D02*
G37*
G36*
X164854D02*
X164574Y338203D01*
X163912Y337761D01*
X163470Y337099D01*
X163415Y336819D01*
X164854D01*
Y338259D01*
D02*
G37*
G36*
X51181Y347824D02*
X50241Y347700D01*
X49366Y347338D01*
X48614Y346761D01*
X48037Y346008D01*
X47674Y345133D01*
X47550Y344193D01*
X47674Y343253D01*
X48037Y342377D01*
X48614Y341625D01*
X49366Y341048D01*
X50241Y340686D01*
X51181Y340562D01*
X52121Y340686D01*
X52997Y341048D01*
X53749Y341625D01*
X54326Y342377D01*
X54688Y343253D01*
X54812Y344193D01*
X54688Y345133D01*
X54326Y346008D01*
X53749Y346761D01*
X52997Y347338D01*
X52121Y347700D01*
X51181Y347824D01*
D02*
G37*
G36*
X45150Y343693D02*
X41681D01*
Y340224D01*
X42225Y340296D01*
X43198Y340699D01*
X44034Y341340D01*
X44675Y342176D01*
X45078Y343149D01*
X45150Y343693D01*
D02*
G37*
G36*
X40681D02*
X37212D01*
X37284Y343149D01*
X37687Y342176D01*
X38328Y341340D01*
X39164Y340699D01*
X40137Y340296D01*
X40681Y340224D01*
Y343693D01*
D02*
G37*
G36*
X166429Y318102D02*
X164989D01*
X165045Y317822D01*
X165487Y317160D01*
X166149Y316718D01*
X166429Y316663D01*
Y318102D01*
D02*
G37*
G36*
X192232Y275660D02*
Y274220D01*
X193672D01*
X193616Y274501D01*
X193174Y275162D01*
X192513Y275604D01*
X192232Y275660D01*
D02*
G37*
G36*
X191232D02*
X190952Y275604D01*
X190290Y275162D01*
X189848Y274501D01*
X189793Y274220D01*
X191232D01*
Y275660D01*
D02*
G37*
G36*
X106270Y275583D02*
X104831D01*
Y274143D01*
X105111Y274199D01*
X105773Y274641D01*
X106215Y275302D01*
X106270Y275583D01*
D02*
G37*
G36*
X156470Y277599D02*
Y276159D01*
X157909D01*
X157854Y276439D01*
X157412Y277101D01*
X156750Y277543D01*
X156470Y277599D01*
D02*
G37*
G36*
X124017Y275667D02*
X122577D01*
X122633Y275387D01*
X123075Y274725D01*
X123737Y274283D01*
X124017Y274227D01*
Y275667D01*
D02*
G37*
G36*
X197925Y275660D02*
X197645Y275604D01*
X196983Y275162D01*
X196541Y274501D01*
X196485Y274220D01*
X197925D01*
Y275660D01*
D02*
G37*
G36*
X152139Y277607D02*
Y275667D01*
Y273727D01*
X152419Y273783D01*
X153081Y274225D01*
X153523Y274887D01*
X153553Y275041D01*
X154053D01*
X154086Y274879D01*
X154528Y274217D01*
X155189Y273775D01*
X155470Y273719D01*
Y275659D01*
Y277599D01*
X155189Y277543D01*
X154528Y277101D01*
X154086Y276439D01*
X154055Y276286D01*
X153555D01*
X153523Y276447D01*
X153081Y277109D01*
X152419Y277551D01*
X152139Y277607D01*
D02*
G37*
G36*
X197925Y273220D02*
X196485D01*
X196541Y272940D01*
X196983Y272278D01*
X197645Y271836D01*
X197925Y271781D01*
Y273220D01*
D02*
G37*
G36*
X193672D02*
X192232D01*
Y271781D01*
X192513Y271836D01*
X193174Y272278D01*
X193616Y272940D01*
X193672Y273220D01*
D02*
G37*
G36*
X103831Y275583D02*
X102391D01*
X102447Y275302D01*
X102889Y274641D01*
X103550Y274199D01*
X103831Y274143D01*
Y275583D01*
D02*
G37*
G36*
X151139Y275167D02*
X149699D01*
X149755Y274887D01*
X150197Y274225D01*
X150859Y273783D01*
X151139Y273727D01*
Y275167D01*
D02*
G37*
G36*
X157909Y275159D02*
X156470D01*
Y273719D01*
X156750Y273775D01*
X157412Y274217D01*
X157854Y274879D01*
X157909Y275159D01*
D02*
G37*
G36*
X151139Y277607D02*
X150859Y277551D01*
X150197Y277109D01*
X149755Y276447D01*
X149699Y276167D01*
X151139D01*
Y277607D01*
D02*
G37*
G36*
X423039Y304429D02*
Y298039D01*
X429429D01*
X429345Y298893D01*
X428950Y300195D01*
X428309Y301395D01*
X427446Y302446D01*
X426394Y303309D01*
X425195Y303950D01*
X423893Y304345D01*
X423039Y304429D01*
D02*
G37*
G36*
X422039D02*
X421186Y304345D01*
X419884Y303950D01*
X418684Y303309D01*
X417633Y302446D01*
X416770Y301395D01*
X416129Y300195D01*
X415734Y298893D01*
X415650Y298039D01*
X422039D01*
Y304429D01*
D02*
G37*
G36*
X41115Y296103D02*
Y294663D01*
X42555D01*
X42499Y294943D01*
X42057Y295605D01*
X41396Y296047D01*
X41115Y296103D01*
D02*
G37*
G36*
X82677Y310391D02*
X82053Y310267D01*
X81524Y309913D01*
X81366Y309678D01*
X50748D01*
X50397Y309608D01*
X50099Y309409D01*
X42591Y301900D01*
X42313Y301956D01*
X41688Y301832D01*
X41159Y301478D01*
X40805Y300949D01*
X40681Y300324D01*
X40805Y299700D01*
X41159Y299171D01*
X41688Y298817D01*
X42313Y298693D01*
X42937Y298817D01*
X43466Y299171D01*
X43820Y299700D01*
X43944Y300324D01*
X43889Y300603D01*
X51128Y307842D01*
X81366D01*
X81524Y307606D01*
X82053Y307253D01*
X82677Y307129D01*
X83301Y307253D01*
X83831Y307606D01*
X84184Y308136D01*
X84308Y308760D01*
X84184Y309384D01*
X83831Y309913D01*
X83301Y310267D01*
X82677Y310391D01*
D02*
G37*
G36*
X149606Y318265D02*
X148982Y318141D01*
X148453Y317787D01*
X148099Y317258D01*
X147975Y316634D01*
X148099Y316010D01*
X148453Y315480D01*
X148485Y315459D01*
Y307966D01*
X148453Y307945D01*
X148099Y307416D01*
X147975Y306791D01*
X148099Y306167D01*
X148453Y305638D01*
X148982Y305284D01*
X149606Y305160D01*
X150231Y305284D01*
X150760Y305638D01*
X151113Y306167D01*
X151238Y306791D01*
X151113Y307416D01*
X150760Y307945D01*
X150728Y307966D01*
Y315459D01*
X150760Y315480D01*
X151113Y316010D01*
X151238Y316634D01*
X151113Y317258D01*
X150760Y317787D01*
X150231Y318141D01*
X149606Y318265D01*
D02*
G37*
G36*
X145669D02*
X145045Y318141D01*
X144516Y317787D01*
X144162Y317258D01*
X144038Y316634D01*
X144162Y316010D01*
X144516Y315480D01*
X144548Y315459D01*
Y307966D01*
X144516Y307945D01*
X144162Y307416D01*
X144038Y306791D01*
X144162Y306167D01*
X144516Y305638D01*
X145045Y305284D01*
X145669Y305160D01*
X146294Y305284D01*
X146823Y305638D01*
X147177Y306167D01*
X147301Y306791D01*
X147177Y307416D01*
X146823Y307945D01*
X146791Y307966D01*
Y315459D01*
X146823Y315480D01*
X147177Y316010D01*
X147301Y316634D01*
X147177Y317258D01*
X146823Y317787D01*
X146294Y318141D01*
X145669Y318265D01*
D02*
G37*
G36*
X124017Y278107D02*
X123737Y278051D01*
X123075Y277609D01*
X122633Y276947D01*
X122577Y276667D01*
X124017D01*
Y278107D01*
D02*
G37*
G36*
X104831Y278022D02*
Y276583D01*
X106270D01*
X106215Y276863D01*
X105773Y277525D01*
X105111Y277967D01*
X104831Y278022D01*
D02*
G37*
G36*
X103831D02*
X103550Y277967D01*
X102889Y277525D01*
X102447Y276863D01*
X102391Y276583D01*
X103831D01*
Y278022D01*
D02*
G37*
G36*
X40115Y296103D02*
X39835Y296047D01*
X39173Y295605D01*
X38731Y294943D01*
X38676Y294663D01*
X40115D01*
Y296103D01*
D02*
G37*
G36*
X42555Y293663D02*
X41115D01*
Y292223D01*
X41396Y292279D01*
X42057Y292721D01*
X42499Y293383D01*
X42555Y293663D01*
D02*
G37*
G36*
X40115D02*
X38676D01*
X38731Y293383D01*
X39173Y292721D01*
X39835Y292279D01*
X40115Y292223D01*
Y293663D01*
D02*
G37*
G36*
X104831Y352038D02*
Y350598D01*
X106270D01*
X106215Y350879D01*
X105773Y351540D01*
X105111Y351982D01*
X104831Y352038D01*
D02*
G37*
G36*
X234840Y479607D02*
X233913Y479485D01*
X233049Y479127D01*
X232307Y478557D01*
X231737Y477815D01*
X231379Y476951D01*
X231257Y476024D01*
X231379Y475096D01*
X231737Y474232D01*
X232307Y473490D01*
X233049Y472920D01*
X233913Y472562D01*
X234840Y472440D01*
X235768Y472562D01*
X236632Y472920D01*
X237374Y473490D01*
X237944Y474232D01*
X238302Y475096D01*
X238424Y476024D01*
X238302Y476951D01*
X237944Y477815D01*
X237374Y478557D01*
X236632Y479127D01*
X235768Y479485D01*
X234840Y479607D01*
D02*
G37*
G36*
X459435Y438493D02*
Y435072D01*
X462856D01*
X462786Y435604D01*
X462387Y436565D01*
X461754Y437391D01*
X460928Y438024D01*
X459967Y438423D01*
X459435Y438493D01*
D02*
G37*
G36*
X458435D02*
X457903Y438423D01*
X456941Y438024D01*
X456115Y437391D01*
X455482Y436565D01*
X455084Y435604D01*
X455014Y435072D01*
X458435D01*
Y438493D01*
D02*
G37*
G36*
X234840Y489607D02*
X233913Y489485D01*
X233049Y489127D01*
X232307Y488557D01*
X231737Y487815D01*
X231379Y486951D01*
X231257Y486024D01*
X231379Y485096D01*
X231737Y484232D01*
X232307Y483490D01*
X233049Y482920D01*
X233913Y482562D01*
X234840Y482440D01*
X235768Y482562D01*
X236632Y482920D01*
X237374Y483490D01*
X237944Y484232D01*
X238302Y485096D01*
X238424Y486024D01*
X238302Y486951D01*
X237944Y487815D01*
X237374Y488557D01*
X236632Y489127D01*
X235768Y489485D01*
X234840Y489607D01*
D02*
G37*
G36*
X275197Y479607D02*
X274269Y479485D01*
X273405Y479127D01*
X272663Y478557D01*
X272094Y477815D01*
X271736Y476951D01*
X271613Y476024D01*
X271736Y475096D01*
X272094Y474232D01*
X272663Y473490D01*
X273405Y472920D01*
X274269Y472562D01*
X275197Y472440D01*
X276124Y472562D01*
X276989Y472920D01*
X277731Y473490D01*
X278300Y474232D01*
X278658Y475096D01*
X278780Y476024D01*
X278658Y476951D01*
X278300Y477815D01*
X277731Y478557D01*
X276989Y479127D01*
X276124Y479485D01*
X275197Y479607D01*
D02*
G37*
G36*
X255019D02*
X254091Y479485D01*
X253227Y479127D01*
X252485Y478557D01*
X251915Y477815D01*
X251557Y476951D01*
X251435Y476024D01*
X251557Y475096D01*
X251915Y474232D01*
X252485Y473490D01*
X253227Y472920D01*
X254091Y472562D01*
X255019Y472440D01*
X255946Y472562D01*
X256810Y472920D01*
X257553Y473490D01*
X258122Y474232D01*
X258480Y475096D01*
X258602Y476024D01*
X258480Y476951D01*
X258122Y477815D01*
X257553Y478557D01*
X256810Y479127D01*
X255946Y479485D01*
X255019Y479607D01*
D02*
G37*
G36*
X423433Y417716D02*
Y411327D01*
X429823D01*
X429739Y412181D01*
X429344Y413482D01*
X428703Y414682D01*
X427840Y415733D01*
X426788Y416596D01*
X425589Y417238D01*
X424287Y417632D01*
X423433Y417716D01*
D02*
G37*
G36*
X422433D02*
X421579Y417632D01*
X420278Y417238D01*
X419078Y416596D01*
X418026Y415733D01*
X417164Y414682D01*
X416522Y413482D01*
X416127Y412181D01*
X416043Y411327D01*
X422433D01*
Y417716D01*
D02*
G37*
G36*
X429823Y410327D02*
X423433D01*
Y403937D01*
X424287Y404021D01*
X425589Y404416D01*
X426788Y405057D01*
X427840Y405920D01*
X428703Y406972D01*
X429344Y408171D01*
X429739Y409473D01*
X429823Y410327D01*
D02*
G37*
G36*
X468935Y438155D02*
X468007Y438033D01*
X467143Y437675D01*
X466401Y437106D01*
X465831Y436363D01*
X465473Y435499D01*
X465351Y434572D01*
X465473Y433644D01*
X465831Y432780D01*
X466401Y432038D01*
X467143Y431468D01*
X468007Y431110D01*
X468935Y430988D01*
X469862Y431110D01*
X470726Y431468D01*
X471468Y432038D01*
X472038Y432780D01*
X472396Y433644D01*
X472518Y434572D01*
X472396Y435499D01*
X472038Y436363D01*
X471468Y437106D01*
X470726Y437675D01*
X469862Y438033D01*
X468935Y438155D01*
D02*
G37*
G36*
X462856Y434072D02*
X459435D01*
Y430651D01*
X459967Y430721D01*
X460928Y431119D01*
X461754Y431752D01*
X462387Y432578D01*
X462786Y433540D01*
X462856Y434072D01*
D02*
G37*
G36*
X458435D02*
X455014D01*
X455084Y433540D01*
X455482Y432578D01*
X456115Y431752D01*
X456941Y431119D01*
X457903Y430721D01*
X458435Y430651D01*
Y434072D01*
D02*
G37*
G36*
X255019Y489607D02*
X254091Y489485D01*
X253227Y489127D01*
X252485Y488557D01*
X251915Y487815D01*
X251557Y486951D01*
X251435Y486024D01*
X251557Y485096D01*
X251915Y484232D01*
X252485Y483490D01*
X253227Y482920D01*
X254091Y482562D01*
X255019Y482440D01*
X255946Y482562D01*
X256810Y482920D01*
X257553Y483490D01*
X258122Y484232D01*
X258480Y485096D01*
X258602Y486024D01*
X258480Y486951D01*
X258122Y487815D01*
X257553Y488557D01*
X256810Y489127D01*
X255946Y489485D01*
X255019Y489607D01*
D02*
G37*
G36*
X469728Y552630D02*
X468801Y552508D01*
X467937Y552150D01*
X467195Y551580D01*
X466625Y550838D01*
X466267Y549974D01*
X466145Y549047D01*
X466267Y548119D01*
X466625Y547255D01*
X467195Y546513D01*
X467937Y545943D01*
X468801Y545585D01*
X469728Y545463D01*
X470656Y545585D01*
X471520Y545943D01*
X472262Y546513D01*
X472832Y547255D01*
X473190Y548119D01*
X473312Y549047D01*
X473190Y549974D01*
X472832Y550838D01*
X472262Y551580D01*
X471520Y552150D01*
X470656Y552508D01*
X469728Y552630D01*
D02*
G37*
G36*
X463649Y548547D02*
X460228D01*
Y545125D01*
X460760Y545195D01*
X461722Y545594D01*
X462547Y546227D01*
X463181Y547053D01*
X463579Y548015D01*
X463649Y548547D01*
D02*
G37*
G36*
X459228D02*
X455807D01*
X455877Y548015D01*
X456276Y547053D01*
X456909Y546227D01*
X457735Y545594D01*
X458697Y545195D01*
X459228Y545125D01*
Y548547D01*
D02*
G37*
G36*
X605000Y595633D02*
X603337Y595502D01*
X601714Y595112D01*
X600173Y594474D01*
X598750Y593602D01*
X597481Y592519D01*
X596398Y591250D01*
X595526Y589827D01*
X594888Y588286D01*
X594498Y586663D01*
X594367Y585000D01*
X594498Y583337D01*
X594888Y581714D01*
X595526Y580173D01*
X596398Y578750D01*
X597481Y577482D01*
X598750Y576398D01*
X600173Y575526D01*
X601714Y574888D01*
X603337Y574498D01*
X605000Y574367D01*
X606663Y574498D01*
X608286Y574888D01*
X609827Y575526D01*
X611250Y576398D01*
X612519Y577482D01*
X613602Y578750D01*
X614474Y580173D01*
X615112Y581714D01*
X615502Y583337D01*
X615633Y585000D01*
X615502Y586663D01*
X615112Y588286D01*
X614474Y589827D01*
X613602Y591250D01*
X612519Y592519D01*
X611250Y593602D01*
X609827Y594474D01*
X608286Y595112D01*
X606663Y595502D01*
X605000Y595633D01*
D02*
G37*
G36*
X460228Y552968D02*
Y549546D01*
X463649D01*
X463579Y550078D01*
X463181Y551040D01*
X462547Y551866D01*
X461722Y552499D01*
X460760Y552898D01*
X460228Y552968D01*
D02*
G37*
G36*
X459228D02*
X458697Y552898D01*
X457735Y552499D01*
X456909Y551866D01*
X456276Y551040D01*
X455877Y550078D01*
X455807Y549546D01*
X459228D01*
Y552968D01*
D02*
G37*
G36*
X422433Y524008D02*
X416043D01*
X416127Y523154D01*
X416522Y521852D01*
X417164Y520653D01*
X418026Y519601D01*
X419078Y518738D01*
X420278Y518097D01*
X421579Y517702D01*
X422433Y517618D01*
Y524008D01*
D02*
G37*
G36*
X422933Y511360D02*
X421658Y511234D01*
X420432Y510862D01*
X419301Y510258D01*
X418311Y509445D01*
X417498Y508455D01*
X416894Y507324D01*
X416522Y506098D01*
X416396Y504823D01*
X416522Y503547D01*
X416894Y502321D01*
X417498Y501191D01*
X418311Y500201D01*
X419301Y499388D01*
X420432Y498783D01*
X421658Y498412D01*
X422933Y498286D01*
X424208Y498412D01*
X425435Y498783D01*
X426565Y499388D01*
X427555Y500201D01*
X428368Y501191D01*
X428972Y502321D01*
X429344Y503547D01*
X429470Y504823D01*
X429344Y506098D01*
X428972Y507324D01*
X428368Y508455D01*
X427555Y509445D01*
X426565Y510258D01*
X425435Y510862D01*
X424208Y511234D01*
X422933Y511360D01*
D02*
G37*
G36*
X275197Y489607D02*
X274269Y489485D01*
X273405Y489127D01*
X272663Y488557D01*
X272094Y487815D01*
X271736Y486951D01*
X271613Y486024D01*
X271736Y485096D01*
X272094Y484232D01*
X272663Y483490D01*
X273405Y482920D01*
X274269Y482562D01*
X275197Y482440D01*
X276124Y482562D01*
X276989Y482920D01*
X277731Y483490D01*
X278300Y484232D01*
X278658Y485096D01*
X278780Y486024D01*
X278658Y486951D01*
X278300Y487815D01*
X277731Y488557D01*
X276989Y489127D01*
X276124Y489485D01*
X275197Y489607D01*
D02*
G37*
G36*
X423433Y531397D02*
Y525008D01*
X429823D01*
X429739Y525862D01*
X429344Y527163D01*
X428703Y528363D01*
X427840Y529414D01*
X426788Y530277D01*
X425589Y530919D01*
X424287Y531314D01*
X423433Y531397D01*
D02*
G37*
G36*
X422433D02*
X421579Y531314D01*
X420278Y530919D01*
X419078Y530277D01*
X418026Y529414D01*
X417164Y528363D01*
X416522Y527163D01*
X416127Y525862D01*
X416043Y525008D01*
X422433D01*
Y531397D01*
D02*
G37*
G36*
X429823Y524008D02*
X423433D01*
Y517618D01*
X424287Y517702D01*
X425589Y518097D01*
X426788Y518738D01*
X427840Y519601D01*
X428703Y520653D01*
X429344Y521852D01*
X429739Y523154D01*
X429823Y524008D01*
D02*
G37*
G36*
X422433Y410327D02*
X416043D01*
X416127Y409473D01*
X416522Y408171D01*
X417164Y406972D01*
X418026Y405920D01*
X419078Y405057D01*
X420278Y404416D01*
X421579Y404021D01*
X422433Y403937D01*
Y410327D01*
D02*
G37*
G36*
X40681Y371784D02*
X40137Y371712D01*
X39164Y371309D01*
X38328Y370668D01*
X37687Y369832D01*
X37284Y368859D01*
X37212Y368315D01*
X40681D01*
Y371784D01*
D02*
G37*
G36*
X61181Y371446D02*
X60241Y371322D01*
X59366Y370959D01*
X58614Y370382D01*
X58037Y369631D01*
X57674Y368755D01*
X57550Y367815D01*
X57674Y366875D01*
X58037Y365999D01*
X58614Y365247D01*
X59366Y364670D01*
X60241Y364308D01*
X61181Y364184D01*
X62121Y364308D01*
X62997Y364670D01*
X63749Y365247D01*
X64326Y365999D01*
X64688Y366875D01*
X64812Y367815D01*
X64688Y368755D01*
X64326Y369631D01*
X63749Y370382D01*
X62997Y370959D01*
X62121Y371322D01*
X61181Y371446D01*
D02*
G37*
G36*
X45150Y367315D02*
X41681D01*
Y363846D01*
X42225Y363918D01*
X43198Y364321D01*
X44034Y364962D01*
X44675Y365798D01*
X45078Y366771D01*
X45150Y367315D01*
D02*
G37*
G36*
X255019Y375926D02*
X254091Y375804D01*
X253227Y375446D01*
X252485Y374876D01*
X251915Y374134D01*
X251557Y373270D01*
X251435Y372342D01*
X251557Y371415D01*
X251915Y370551D01*
X252485Y369809D01*
X253227Y369239D01*
X254091Y368881D01*
X255019Y368759D01*
X255946Y368881D01*
X256810Y369239D01*
X257553Y369809D01*
X258122Y370551D01*
X258480Y371415D01*
X258602Y372342D01*
X258480Y373270D01*
X258122Y374134D01*
X257553Y374876D01*
X256810Y375446D01*
X255946Y375804D01*
X255019Y375926D01*
D02*
G37*
G36*
X234840D02*
X233913Y375804D01*
X233049Y375446D01*
X232307Y374876D01*
X231737Y374134D01*
X231379Y373270D01*
X231257Y372342D01*
X231379Y371415D01*
X231737Y370551D01*
X232307Y369809D01*
X233049Y369239D01*
X233913Y368881D01*
X234840Y368759D01*
X235768Y368881D01*
X236632Y369239D01*
X237374Y369809D01*
X237944Y370551D01*
X238302Y371415D01*
X238424Y372342D01*
X238302Y373270D01*
X237944Y374134D01*
X237374Y374876D01*
X236632Y375446D01*
X235768Y375804D01*
X234840Y375926D01*
D02*
G37*
G36*
X41681Y371784D02*
Y368315D01*
X45150D01*
X45078Y368859D01*
X44675Y369832D01*
X44034Y370668D01*
X43198Y371309D01*
X42225Y371712D01*
X41681Y371784D01*
D02*
G37*
G36*
X255019Y365926D02*
X254091Y365804D01*
X253227Y365446D01*
X252485Y364876D01*
X251915Y364134D01*
X251557Y363270D01*
X251435Y362343D01*
X251557Y361415D01*
X251915Y360551D01*
X252485Y359809D01*
X253227Y359239D01*
X254091Y358881D01*
X255019Y358759D01*
X255946Y358881D01*
X256810Y359239D01*
X257553Y359809D01*
X258122Y360551D01*
X258480Y361415D01*
X258602Y362343D01*
X258480Y363270D01*
X258122Y364134D01*
X257553Y364876D01*
X256810Y365446D01*
X255946Y365804D01*
X255019Y365926D01*
D02*
G37*
G36*
X234840D02*
X233913Y365804D01*
X233049Y365446D01*
X232307Y364876D01*
X231737Y364134D01*
X231379Y363270D01*
X231257Y362343D01*
X231379Y361415D01*
X231737Y360551D01*
X232307Y359809D01*
X233049Y359239D01*
X233913Y358881D01*
X234840Y358759D01*
X235768Y358881D01*
X236632Y359239D01*
X237374Y359809D01*
X237944Y360551D01*
X238302Y361415D01*
X238424Y362343D01*
X238302Y363270D01*
X237944Y364134D01*
X237374Y364876D01*
X236632Y365446D01*
X235768Y365804D01*
X234840Y365926D01*
D02*
G37*
G36*
X125878Y352354D02*
X124438D01*
X124494Y352074D01*
X124936Y351412D01*
X125598Y350970D01*
X125878Y350915D01*
Y352354D01*
D02*
G37*
G36*
X40681Y367315D02*
X37212D01*
X37284Y366771D01*
X37687Y365798D01*
X38328Y364962D01*
X39164Y364321D01*
X40137Y363918D01*
X40681Y363846D01*
Y367315D01*
D02*
G37*
G36*
X9200Y366831D02*
X8260Y366707D01*
X7384Y366345D01*
X6633Y365768D01*
X6055Y365016D01*
X5693Y364140D01*
X5569Y363200D01*
X5693Y362260D01*
X6055Y361385D01*
X6633Y360632D01*
X7384Y360055D01*
X8260Y359693D01*
X9200Y359569D01*
X10140Y359693D01*
X11016Y360055D01*
X11767Y360632D01*
X12345Y361385D01*
X12707Y362260D01*
X12831Y363200D01*
X12707Y364140D01*
X12345Y365016D01*
X11767Y365768D01*
X11016Y366345D01*
X10140Y366707D01*
X9200Y366831D01*
D02*
G37*
G36*
X275197Y365926D02*
X274269Y365804D01*
X273405Y365446D01*
X272663Y364876D01*
X272094Y364134D01*
X271736Y363270D01*
X271613Y362343D01*
X271736Y361415D01*
X272094Y360551D01*
X272663Y359809D01*
X273405Y359239D01*
X274269Y358881D01*
X275197Y358759D01*
X276124Y358881D01*
X276989Y359239D01*
X277731Y359809D01*
X278300Y360551D01*
X278658Y361415D01*
X278780Y362343D01*
X278658Y363270D01*
X278300Y364134D01*
X277731Y364876D01*
X276989Y365446D01*
X276124Y365804D01*
X275197Y365926D01*
D02*
G37*
G36*
Y375926D02*
X274269Y375804D01*
X273405Y375446D01*
X272663Y374876D01*
X272094Y374134D01*
X271736Y373270D01*
X271613Y372342D01*
X271736Y371415D01*
X272094Y370551D01*
X272663Y369809D01*
X273405Y369239D01*
X274269Y368881D01*
X275197Y368759D01*
X276124Y368881D01*
X276989Y369239D01*
X277731Y369809D01*
X278300Y370551D01*
X278658Y371415D01*
X278780Y372342D01*
X278658Y373270D01*
X278300Y374134D01*
X277731Y374876D01*
X276989Y375446D01*
X276124Y375804D01*
X275197Y375926D01*
D02*
G37*
G36*
X61181Y395068D02*
X60241Y394944D01*
X59366Y394582D01*
X58614Y394005D01*
X58037Y393253D01*
X57674Y392377D01*
X57550Y391437D01*
X57674Y390497D01*
X58037Y389621D01*
X58614Y388870D01*
X59366Y388292D01*
X60241Y387930D01*
X61181Y387806D01*
X62121Y387930D01*
X62997Y388292D01*
X63749Y388870D01*
X64326Y389621D01*
X64688Y390497D01*
X64812Y391437D01*
X64688Y392377D01*
X64326Y393253D01*
X63749Y394005D01*
X62997Y394582D01*
X62121Y394944D01*
X61181Y395068D01*
D02*
G37*
G36*
X45150Y390937D02*
X41681D01*
Y387468D01*
X42225Y387540D01*
X43198Y387943D01*
X44034Y388584D01*
X44675Y389420D01*
X45078Y390393D01*
X45150Y390937D01*
D02*
G37*
G36*
X40681D02*
X37212D01*
X37284Y390393D01*
X37687Y389420D01*
X38328Y388584D01*
X39164Y387943D01*
X40137Y387540D01*
X40681Y387468D01*
Y390937D01*
D02*
G37*
G36*
X41681Y395406D02*
Y391937D01*
X45150D01*
X45078Y392481D01*
X44675Y393454D01*
X44034Y394290D01*
X43198Y394931D01*
X42225Y395334D01*
X41681Y395406D01*
D02*
G37*
G36*
X40681D02*
X40137Y395334D01*
X39164Y394931D01*
X38328Y394290D01*
X37687Y393454D01*
X37284Y392481D01*
X37212Y391937D01*
X40681D01*
Y395406D01*
D02*
G37*
G36*
X9200Y396831D02*
X8260Y396707D01*
X7384Y396345D01*
X6633Y395767D01*
X6055Y395016D01*
X5693Y394140D01*
X5569Y393200D01*
X5693Y392260D01*
X6055Y391385D01*
X6633Y390633D01*
X7384Y390055D01*
X8260Y389693D01*
X9200Y389569D01*
X10140Y389693D01*
X11016Y390055D01*
X11767Y390633D01*
X12345Y391385D01*
X12707Y392260D01*
X12831Y393200D01*
X12707Y394140D01*
X12345Y395016D01*
X11767Y395767D01*
X11016Y396345D01*
X10140Y396707D01*
X9200Y396831D01*
D02*
G37*
G36*
X311417Y377911D02*
X310793Y377787D01*
X310264Y377433D01*
X309910Y376904D01*
X309786Y376279D01*
X309910Y375655D01*
X310264Y375126D01*
X310793Y374772D01*
X311417Y374648D01*
X312042Y374772D01*
X312571Y375126D01*
X312925Y375655D01*
X313049Y376279D01*
X312925Y376904D01*
X312571Y377433D01*
X312042Y377787D01*
X311417Y377911D01*
D02*
G37*
G36*
X320669Y374846D02*
X320045Y374721D01*
X319516Y374368D01*
X319358Y374132D01*
X318588D01*
X318237Y374062D01*
X317939Y373863D01*
X313407Y369331D01*
X312966Y369567D01*
X313049Y369980D01*
X312925Y370605D01*
X312571Y371134D01*
X312042Y371487D01*
X311417Y371612D01*
X310793Y371487D01*
X310264Y371134D01*
X309910Y370605D01*
X309786Y369980D01*
X309910Y369356D01*
X310264Y368827D01*
X310793Y368473D01*
X311417Y368349D01*
X311831Y368431D01*
X312067Y367990D01*
X297687Y353610D01*
X297244Y353698D01*
X296620Y353574D01*
X296091Y353221D01*
X295737Y352691D01*
X295613Y352067D01*
X295701Y351624D01*
X273439Y329363D01*
X241469D01*
X241311Y329598D01*
X240782Y329952D01*
X240158Y330076D01*
X239533Y329952D01*
X239004Y329598D01*
X238650Y329069D01*
X238526Y328445D01*
X238650Y327821D01*
X239004Y327291D01*
X239533Y326938D01*
X240158Y326814D01*
X240782Y326938D01*
X241311Y327291D01*
X241469Y327527D01*
X242359D01*
X242587Y327101D01*
X242463Y326476D01*
X242587Y325852D01*
X242941Y325323D01*
X243470Y324969D01*
X244094Y324845D01*
X244719Y324969D01*
X245248Y325323D01*
X245406Y325559D01*
X246296D01*
X246524Y325132D01*
X246400Y324508D01*
X246524Y323884D01*
X246878Y323354D01*
X247407Y323001D01*
X248031Y322877D01*
X248656Y323001D01*
X249185Y323354D01*
X249343Y323590D01*
X277179D01*
X316012Y284758D01*
Y255990D01*
X300532Y240511D01*
X300333Y240213D01*
X300264Y239862D01*
Y148654D01*
X300028Y148496D01*
X299674Y147967D01*
X299550Y147343D01*
X299674Y146718D01*
X300028Y146189D01*
X300557Y145835D01*
X301181Y145711D01*
X301805Y145835D01*
X302335Y146189D01*
X302688Y146718D01*
X302812Y147343D01*
X302688Y147967D01*
X302335Y148496D01*
X302099Y148654D01*
Y155450D01*
X302525Y155678D01*
X303150Y155554D01*
X303774Y155678D01*
X304303Y156032D01*
X304657Y156561D01*
X304781Y157185D01*
X304657Y157809D01*
X304303Y158339D01*
X304067Y158496D01*
Y237120D01*
X321318Y254371D01*
X321517Y254668D01*
X321587Y255020D01*
Y258222D01*
X321823Y258380D01*
X322177Y258909D01*
X322301Y259533D01*
X322177Y260157D01*
X321823Y260687D01*
X321587Y260844D01*
Y285728D01*
X321517Y286080D01*
X321318Y286377D01*
X280570Y327125D01*
X280272Y327324D01*
X279921Y327394D01*
X274736D01*
X274691Y327462D01*
X274528Y327856D01*
X297130Y350458D01*
X297244Y350436D01*
X297868Y350560D01*
X298398Y350913D01*
X298751Y351443D01*
X298875Y352067D01*
X298853Y352181D01*
X318923Y372252D01*
X319421Y372203D01*
X319516Y372061D01*
X320045Y371707D01*
X320669Y371583D01*
X321294Y371707D01*
X321823Y372061D01*
X322177Y372590D01*
X322301Y373214D01*
X322177Y373838D01*
X321823Y374368D01*
X321294Y374721D01*
X320669Y374846D01*
D02*
G37*
G36*
X9200Y376831D02*
X8260Y376707D01*
X7384Y376345D01*
X6633Y375767D01*
X6055Y375015D01*
X5693Y374140D01*
X5569Y373200D01*
X5693Y372260D01*
X6055Y371385D01*
X6633Y370633D01*
X7384Y370055D01*
X8260Y369693D01*
X9200Y369569D01*
X10140Y369693D01*
X11016Y370055D01*
X11767Y370633D01*
X12345Y371385D01*
X12707Y372260D01*
X12831Y373200D01*
X12707Y374140D01*
X12345Y375015D01*
X11767Y375767D01*
X11016Y376345D01*
X10140Y376707D01*
X9200Y376831D01*
D02*
G37*
G36*
X422933Y397679D02*
X421658Y397553D01*
X420432Y397181D01*
X419301Y396577D01*
X418311Y395764D01*
X417498Y394774D01*
X416894Y393643D01*
X416522Y392417D01*
X416396Y391142D01*
X416522Y389866D01*
X416894Y388640D01*
X417498Y387510D01*
X418311Y386519D01*
X419301Y385706D01*
X420432Y385102D01*
X421658Y384730D01*
X422933Y384605D01*
X424208Y384730D01*
X425435Y385102D01*
X426565Y385706D01*
X427555Y386519D01*
X428368Y387510D01*
X428972Y388640D01*
X429344Y389866D01*
X429470Y391142D01*
X429344Y392417D01*
X428972Y393643D01*
X428368Y394774D01*
X427555Y395764D01*
X426565Y396577D01*
X425435Y397181D01*
X424208Y397553D01*
X422933Y397679D01*
D02*
G37*
G36*
X311417Y384604D02*
X310793Y384480D01*
X310264Y384126D01*
X309910Y383597D01*
X309786Y382972D01*
X309910Y382348D01*
X310264Y381819D01*
X310793Y381465D01*
X311417Y381341D01*
X312042Y381465D01*
X312571Y381819D01*
X312925Y382348D01*
X313049Y382972D01*
X312925Y383597D01*
X312571Y384126D01*
X312042Y384480D01*
X311417Y384604D01*
D02*
G37*
G36*
X9200Y386831D02*
X8260Y386707D01*
X7384Y386345D01*
X6633Y385768D01*
X6055Y385016D01*
X5693Y384140D01*
X5569Y383200D01*
X5693Y382260D01*
X6055Y381384D01*
X6633Y380632D01*
X7384Y380055D01*
X8260Y379693D01*
X9200Y379569D01*
X10140Y379693D01*
X11016Y380055D01*
X11768Y380632D01*
X12345Y381384D01*
X12707Y382260D01*
X12831Y383200D01*
X12707Y384140D01*
X12345Y385016D01*
X11768Y385768D01*
X11016Y386345D01*
X10140Y386707D01*
X9200Y386831D01*
D02*
G37*
G36*
X191232Y273220D02*
X189793D01*
X189848Y272940D01*
X190290Y272278D01*
X190952Y271836D01*
X191232Y271781D01*
Y273220D01*
D02*
G37*
G36*
X201468Y160130D02*
X200029D01*
X200084Y159850D01*
X200527Y159188D01*
X201188Y158746D01*
X201468Y158690D01*
Y160130D01*
D02*
G37*
G36*
X271654Y163713D02*
X270983Y163624D01*
X270358Y163366D01*
X269822Y162954D01*
X269410Y162417D01*
X269151Y161793D01*
X269063Y161122D01*
X269151Y160451D01*
X269410Y159827D01*
X269822Y159290D01*
X270358Y158879D01*
X270983Y158620D01*
X271654Y158531D01*
X272324Y158620D01*
X272949Y158879D01*
X273485Y159290D01*
X273897Y159827D01*
X274156Y160451D01*
X274244Y161122D01*
X274156Y161793D01*
X273897Y162417D01*
X273485Y162954D01*
X272949Y163366D01*
X272324Y163624D01*
X271654Y163713D01*
D02*
G37*
G36*
X297244Y286769D02*
X296620Y286645D01*
X296091Y286291D01*
X295737Y285762D01*
X295613Y285138D01*
X295737Y284513D01*
X296091Y283984D01*
X296326Y283827D01*
Y158496D01*
X296091Y158339D01*
X295737Y157809D01*
X295613Y157185D01*
X295737Y156561D01*
X296091Y156032D01*
X296620Y155678D01*
X297244Y155554D01*
X297868Y155678D01*
X298398Y156032D01*
X298751Y156561D01*
X298875Y157185D01*
X298751Y157809D01*
X298398Y158339D01*
X298162Y158496D01*
Y283827D01*
X298398Y283984D01*
X298751Y284513D01*
X298875Y285138D01*
X298751Y285762D01*
X298398Y286291D01*
X297868Y286645D01*
X297244Y286769D01*
D02*
G37*
G36*
X177137Y160622D02*
X175697D01*
Y159182D01*
X175977Y159238D01*
X176639Y159680D01*
X177081Y160342D01*
X177137Y160622D01*
D02*
G37*
G36*
X174697D02*
X173257D01*
X173313Y160342D01*
X173755Y159680D01*
X174416Y159238D01*
X174697Y159182D01*
Y160622D01*
D02*
G37*
G36*
X203908Y160130D02*
X202468D01*
Y158690D01*
X202749Y158746D01*
X203410Y159188D01*
X203853Y159850D01*
X203908Y160130D01*
D02*
G37*
G36*
X264280Y156176D02*
Y153748D01*
X266708D01*
X266672Y154023D01*
X266372Y154745D01*
X265897Y155365D01*
X265277Y155841D01*
X264555Y156140D01*
X264280Y156176D01*
D02*
G37*
G36*
X263280D02*
X263005Y156140D01*
X262282Y155841D01*
X261662Y155365D01*
X261187Y154745D01*
X260887Y154023D01*
X260851Y153748D01*
X263280D01*
Y156176D01*
D02*
G37*
G36*
X592701Y158201D02*
X584859D01*
X584929Y157669D01*
X585327Y156707D01*
X585960Y155882D01*
X586784Y155250D01*
Y154750D01*
X585960Y154118D01*
X585327Y153293D01*
X584929Y152331D01*
X584859Y151799D01*
X592701D01*
X592630Y152331D01*
X592232Y153293D01*
X591599Y154118D01*
X590775Y154750D01*
Y155250D01*
X591599Y155882D01*
X592232Y156707D01*
X592630Y157669D01*
X592701Y158201D01*
D02*
G37*
G36*
X291339Y286769D02*
X290714Y286645D01*
X290185Y286291D01*
X289831Y285762D01*
X289707Y285138D01*
X289831Y284513D01*
X290185Y283984D01*
X290421Y283827D01*
Y158496D01*
X290185Y158339D01*
X289831Y157809D01*
X289707Y157185D01*
X289831Y156561D01*
X290185Y156032D01*
X290714Y155678D01*
X291339Y155554D01*
X291963Y155678D01*
X292492Y156032D01*
X292846Y156561D01*
X292970Y157185D01*
X292846Y157809D01*
X292492Y158339D01*
X292256Y158496D01*
Y283827D01*
X292492Y283984D01*
X292846Y284513D01*
X292970Y285138D01*
X292846Y285762D01*
X292492Y286291D01*
X291963Y286645D01*
X291339Y286769D01*
D02*
G37*
G36*
X272153Y156176D02*
Y153748D01*
X274582D01*
X274546Y154023D01*
X274247Y154745D01*
X273771Y155365D01*
X273151Y155841D01*
X272428Y156140D01*
X272153Y156176D01*
D02*
G37*
G36*
X271153D02*
X270879Y156140D01*
X270157Y155841D01*
X269536Y155365D01*
X269061Y154745D01*
X268761Y154023D01*
X268725Y153748D01*
X271153D01*
Y156176D01*
D02*
G37*
G36*
X568280Y162622D02*
X567748Y162552D01*
X566786Y162153D01*
X565960Y161520D01*
X565327Y160694D01*
X564928Y159733D01*
X564858Y159201D01*
X568280D01*
Y162622D01*
D02*
G37*
G36*
X271654Y171587D02*
X270983Y171499D01*
X270358Y171240D01*
X269822Y170828D01*
X269410Y170291D01*
X269151Y169667D01*
X269063Y168996D01*
X269151Y168325D01*
X269308Y167948D01*
X267337Y165977D01*
X264346D01*
X264313Y166476D01*
X264450Y166494D01*
X265075Y166753D01*
X265611Y167164D01*
X266023Y167701D01*
X266282Y168325D01*
X266370Y168996D01*
X266282Y169667D01*
X266023Y170291D01*
X265611Y170828D01*
X265075Y171240D01*
X264450Y171499D01*
X263779Y171587D01*
X263109Y171499D01*
X262484Y171240D01*
X261948Y170828D01*
X261536Y170291D01*
X261277Y169667D01*
X261189Y168996D01*
X261277Y168325D01*
X261434Y167948D01*
X235840Y142355D01*
X202099D01*
X201941Y142591D01*
X201412Y142944D01*
X200787Y143068D01*
X200163Y142944D01*
X199634Y142591D01*
X199280Y142061D01*
X199156Y141437D01*
X199280Y140813D01*
X199052Y140386D01*
X198162D01*
X198004Y140622D01*
X197475Y140976D01*
X196850Y141100D01*
X196226Y140976D01*
X195697Y140622D01*
X195343Y140093D01*
X195219Y139469D01*
X195343Y138844D01*
X195697Y138315D01*
X196226Y137961D01*
X196850Y137837D01*
X197475Y137961D01*
X198004Y138315D01*
X198162Y138551D01*
X237008D01*
X237359Y138621D01*
X237657Y138820D01*
X260819Y161982D01*
X260934Y161935D01*
X261274Y161767D01*
X261189Y161122D01*
X261277Y160451D01*
X261536Y159827D01*
X261948Y159290D01*
X262484Y158879D01*
X263109Y158620D01*
X263779Y158531D01*
X264450Y158620D01*
X265075Y158879D01*
X265611Y159290D01*
X266023Y159827D01*
X266282Y160451D01*
X266370Y161122D01*
X266282Y161793D01*
X266023Y162417D01*
X265611Y162954D01*
X265075Y163366D01*
X264450Y163624D01*
X264313Y163643D01*
X264346Y164141D01*
X267717D01*
X268068Y164211D01*
X268365Y164410D01*
X270605Y166650D01*
X270983Y166494D01*
X271654Y166405D01*
X272324Y166494D01*
X272949Y166753D01*
X273485Y167164D01*
X273897Y167701D01*
X274156Y168325D01*
X274244Y168996D01*
X274156Y169667D01*
X273897Y170291D01*
X273485Y170828D01*
X272949Y171240D01*
X272324Y171499D01*
X271654Y171587D01*
D02*
G37*
G36*
X175697Y163062D02*
Y161622D01*
X177137D01*
X177081Y161902D01*
X176639Y162564D01*
X175977Y163006D01*
X175697Y163062D01*
D02*
G37*
G36*
X174697D02*
X174416Y163006D01*
X173755Y162564D01*
X173313Y161902D01*
X173257Y161622D01*
X174697D01*
Y163062D01*
D02*
G37*
G36*
X231784Y170465D02*
X230344D01*
X230399Y170184D01*
X230841Y169523D01*
X231503Y169081D01*
X231784Y169025D01*
Y170465D01*
D02*
G37*
G36*
X578780Y172694D02*
X577955Y172586D01*
X577186Y172267D01*
X576526Y171761D01*
X576020Y171101D01*
X575702Y170333D01*
X575593Y169508D01*
X575702Y168683D01*
X576020Y167915D01*
X576526Y167255D01*
X577186Y166748D01*
X577955Y166430D01*
X578780Y166322D01*
X579604Y166430D01*
X580373Y166748D01*
X581033Y167255D01*
X581539Y167915D01*
X581857Y168683D01*
X581966Y169508D01*
X581857Y170333D01*
X581539Y171101D01*
X581033Y171761D01*
X580373Y172267D01*
X579604Y172586D01*
X578780Y172694D01*
D02*
G37*
G36*
X23583Y172694D02*
X22758Y172586D01*
X21990Y172267D01*
X21330Y171761D01*
X20823Y171101D01*
X20505Y170333D01*
X20396Y169508D01*
X20505Y168683D01*
X20823Y167915D01*
X21330Y167255D01*
X21990Y166748D01*
X22758Y166430D01*
X23583Y166322D01*
X24407Y166430D01*
X25176Y166748D01*
X25836Y167255D01*
X26342Y167915D01*
X26660Y168683D01*
X26769Y169508D01*
X26660Y170333D01*
X26342Y171101D01*
X25836Y171761D01*
X25176Y172267D01*
X24407Y172586D01*
X23583Y172694D01*
D02*
G37*
G36*
X579280Y162622D02*
Y159201D01*
X582701D01*
X582630Y159733D01*
X582232Y160694D01*
X581599Y161520D01*
X580773Y162153D01*
X579811Y162552D01*
X579280Y162622D01*
D02*
G37*
G36*
X578279D02*
X577748Y162552D01*
X576786Y162153D01*
X575960Y161520D01*
X575327Y160694D01*
X574929Y159733D01*
X574859Y159201D01*
X578279D01*
Y162622D01*
D02*
G37*
G36*
X569279D02*
Y159201D01*
X572701D01*
X572631Y159733D01*
X572232Y160694D01*
X571599Y161520D01*
X570773Y162153D01*
X569811Y162552D01*
X569279Y162622D01*
D02*
G37*
G36*
X202468Y162570D02*
Y161130D01*
X203908D01*
X203853Y161410D01*
X203410Y162072D01*
X202749Y162514D01*
X202468Y162570D01*
D02*
G37*
G36*
X589280Y162622D02*
Y159201D01*
X592701D01*
X592630Y159733D01*
X592232Y160694D01*
X591599Y161520D01*
X590773Y162153D01*
X589811Y162552D01*
X589280Y162622D01*
D02*
G37*
G36*
X588279D02*
X587748Y162552D01*
X586786Y162153D01*
X585960Y161520D01*
X585327Y160694D01*
X584929Y159733D01*
X584859Y159201D01*
X588279D01*
Y162622D01*
D02*
G37*
G36*
X582701Y158201D02*
X574859D01*
X574929Y157669D01*
X575327Y156707D01*
X575960Y155882D01*
X576784Y155250D01*
Y154750D01*
X575960Y154118D01*
X575327Y153293D01*
X574929Y152331D01*
X574859Y151799D01*
X582701D01*
X582630Y152331D01*
X582232Y153293D01*
X581599Y154118D01*
X580775Y154750D01*
Y155250D01*
X581599Y155882D01*
X582232Y156707D01*
X582630Y157669D01*
X582701Y158201D01*
D02*
G37*
G36*
X177137Y147039D02*
X175697D01*
Y145600D01*
X175977Y145655D01*
X176639Y146098D01*
X177081Y146759D01*
X177137Y147039D01*
D02*
G37*
G36*
X174697D02*
X173257D01*
X173313Y146759D01*
X173755Y146098D01*
X174416Y145655D01*
X174697Y145600D01*
Y147039D01*
D02*
G37*
G36*
X352362Y147005D02*
X351738Y146881D01*
X351209Y146528D01*
X350855Y145998D01*
X350731Y145374D01*
X350855Y144750D01*
X351209Y144220D01*
X351738Y143867D01*
X352362Y143743D01*
X352641Y143798D01*
X353011Y143427D01*
X352776Y142986D01*
X352362Y143068D01*
X351738Y142944D01*
X351209Y142591D01*
X350855Y142061D01*
X350731Y141437D01*
X350855Y140813D01*
X351209Y140284D01*
X351738Y139930D01*
X352362Y139806D01*
X352641Y139861D01*
X379272Y113229D01*
X379570Y113030D01*
X379921Y112960D01*
X524279D01*
X524437Y112724D01*
X524966Y112371D01*
X525591Y112247D01*
X526215Y112371D01*
X526744Y112724D01*
X527098Y113254D01*
X527222Y113878D01*
X527098Y114502D01*
X526744Y115032D01*
X526215Y115385D01*
X525591Y115509D01*
X524966Y115385D01*
X524437Y115032D01*
X524279Y114796D01*
X380301D01*
X353938Y141159D01*
X353994Y141437D01*
X353911Y141850D01*
X354352Y142086D01*
X379272Y117166D01*
X379570Y116967D01*
X379921Y116897D01*
X524279D01*
X524437Y116661D01*
X524966Y116308D01*
X525591Y116184D01*
X526215Y116308D01*
X526744Y116661D01*
X527098Y117191D01*
X527222Y117815D01*
X527098Y118439D01*
X526744Y118968D01*
X526215Y119322D01*
X525591Y119446D01*
X524966Y119322D01*
X524437Y118968D01*
X524279Y118733D01*
X380301D01*
X353938Y145096D01*
X353994Y145374D01*
X353869Y145998D01*
X353516Y146528D01*
X352987Y146881D01*
X352362Y147005D01*
D02*
G37*
G36*
X578279Y150799D02*
X574859D01*
X574929Y150267D01*
X575327Y149306D01*
X575960Y148480D01*
X576786Y147846D01*
X577748Y147448D01*
X578279Y147378D01*
Y150799D01*
D02*
G37*
G36*
X572701D02*
X569279D01*
Y147378D01*
X569811Y147448D01*
X570773Y147846D01*
X571599Y148480D01*
X572232Y149306D01*
X572631Y150267D01*
X572701Y150799D01*
D02*
G37*
G36*
X568280D02*
X564858D01*
X564928Y150267D01*
X565327Y149306D01*
X565960Y148480D01*
X566786Y147846D01*
X567748Y147448D01*
X568280Y147378D01*
Y150799D01*
D02*
G37*
G36*
X588279Y142956D02*
X587748Y142886D01*
X586786Y142488D01*
X585960Y141855D01*
X585327Y141029D01*
X584929Y140067D01*
X584859Y139535D01*
X588279D01*
Y142956D01*
D02*
G37*
G36*
X579280D02*
Y139535D01*
X582701D01*
X582630Y140067D01*
X582232Y141029D01*
X581599Y141855D01*
X580773Y142488D01*
X579811Y142886D01*
X579280Y142956D01*
D02*
G37*
G36*
X578279D02*
X577748Y142886D01*
X576786Y142488D01*
X575960Y141855D01*
X575327Y141029D01*
X574929Y140067D01*
X574859Y139535D01*
X578279D01*
Y142956D01*
D02*
G37*
G36*
X271654Y147965D02*
X270983Y147876D01*
X270358Y147618D01*
X269822Y147206D01*
X269410Y146669D01*
X269151Y146045D01*
X269063Y145374D01*
X269151Y144703D01*
X269410Y144079D01*
X269822Y143542D01*
X270358Y143130D01*
X270983Y142872D01*
X271654Y142783D01*
X272324Y142872D01*
X272949Y143130D01*
X273485Y143542D01*
X273897Y144079D01*
X274156Y144703D01*
X274244Y145374D01*
X274156Y146045D01*
X273897Y146669D01*
X273485Y147206D01*
X272949Y147618D01*
X272324Y147876D01*
X271654Y147965D01*
D02*
G37*
G36*
X263779D02*
X263109Y147876D01*
X262484Y147618D01*
X261948Y147206D01*
X261536Y146669D01*
X261277Y146045D01*
X261189Y145374D01*
X261277Y144703D01*
X261536Y144079D01*
X261948Y143542D01*
X262484Y143130D01*
X263109Y142872D01*
X263779Y142783D01*
X264450Y142872D01*
X265075Y143130D01*
X265611Y143542D01*
X266023Y144079D01*
X266282Y144703D01*
X266370Y145374D01*
X266282Y146045D01*
X266023Y146669D01*
X265611Y147206D01*
X265075Y147618D01*
X264450Y147876D01*
X263779Y147965D01*
D02*
G37*
G36*
X589280Y142956D02*
Y139535D01*
X592701D01*
X592630Y140067D01*
X592232Y141029D01*
X591599Y141855D01*
X590773Y142488D01*
X589811Y142886D01*
X589280Y142956D01*
D02*
G37*
G36*
X582701Y150799D02*
X579280D01*
Y147378D01*
X579811Y147448D01*
X580773Y147846D01*
X581599Y148480D01*
X582232Y149306D01*
X582630Y150267D01*
X582701Y150799D01*
D02*
G37*
G36*
X266708Y152748D02*
X264280D01*
Y150320D01*
X264555Y150356D01*
X265277Y150655D01*
X265897Y151131D01*
X266372Y151751D01*
X266672Y152473D01*
X266708Y152748D01*
D02*
G37*
G36*
X263280D02*
X260851D01*
X260887Y152473D01*
X261187Y151751D01*
X261662Y151131D01*
X262282Y150655D01*
X263005Y150356D01*
X263280Y150320D01*
Y152748D01*
D02*
G37*
G36*
X175697Y149479D02*
Y148039D01*
X177137D01*
X177081Y148320D01*
X176639Y148981D01*
X175977Y149423D01*
X175697Y149479D01*
D02*
G37*
G36*
X572701Y158201D02*
X564858D01*
X564928Y157669D01*
X565327Y156707D01*
X565960Y155882D01*
X566784Y155250D01*
Y154750D01*
X565960Y154118D01*
X565327Y153293D01*
X564928Y152331D01*
X564858Y151799D01*
X572701D01*
X572631Y152331D01*
X572232Y153293D01*
X571599Y154118D01*
X570776Y154750D01*
Y155250D01*
X571599Y155882D01*
X572232Y156707D01*
X572631Y157669D01*
X572701Y158201D01*
D02*
G37*
G36*
X274582Y152748D02*
X272153D01*
Y150320D01*
X272428Y150356D01*
X273151Y150655D01*
X273771Y151131D01*
X274247Y151751D01*
X274546Y152473D01*
X274582Y152748D01*
D02*
G37*
G36*
X271153D02*
X268725D01*
X268761Y152473D01*
X269061Y151751D01*
X269536Y151131D01*
X270157Y150655D01*
X270879Y150356D01*
X271153Y150320D01*
Y152748D01*
D02*
G37*
G36*
X13583Y162284D02*
X12655Y162162D01*
X11791Y161804D01*
X11049Y161235D01*
X10479Y160493D01*
X10121Y159628D01*
X9999Y158701D01*
X10121Y157773D01*
X10479Y156909D01*
X11049Y156167D01*
X11791Y155597D01*
X12630Y155250D01*
X12630Y154750D01*
X11791Y154402D01*
X11049Y153833D01*
X10479Y153091D01*
X10121Y152227D01*
X9999Y151299D01*
X10121Y150372D01*
X10479Y149507D01*
X11049Y148765D01*
X11791Y148196D01*
X12655Y147838D01*
X13583Y147716D01*
X14510Y147838D01*
X15374Y148196D01*
X16116Y148765D01*
X16686Y149507D01*
X17044Y150372D01*
X17166Y151299D01*
X17044Y152227D01*
X16686Y153091D01*
X16116Y153833D01*
X15374Y154402D01*
X14536Y154750D01*
X14536Y155250D01*
X15374Y155597D01*
X16116Y156167D01*
X16686Y156909D01*
X17044Y157773D01*
X17166Y158701D01*
X17044Y159628D01*
X16686Y160493D01*
X16116Y161235D01*
X15374Y161804D01*
X14510Y162162D01*
X13583Y162284D01*
D02*
G37*
G36*
X592701Y150799D02*
X589280D01*
Y147378D01*
X589811Y147448D01*
X590773Y147846D01*
X591599Y148480D01*
X592232Y149306D01*
X592630Y150267D01*
X592701Y150799D01*
D02*
G37*
G36*
X588279D02*
X584859D01*
X584929Y150267D01*
X585327Y149306D01*
X585960Y148480D01*
X586786Y147846D01*
X587748Y147448D01*
X588279Y147378D01*
Y150799D01*
D02*
G37*
G36*
X174697Y149479D02*
X174416Y149423D01*
X173755Y148981D01*
X173313Y148320D01*
X173257Y148039D01*
X174697D01*
Y149479D01*
D02*
G37*
G36*
X33583Y162284D02*
X32655Y162162D01*
X31791Y161804D01*
X31049Y161235D01*
X30479Y160493D01*
X30121Y159628D01*
X29999Y158701D01*
X30121Y157773D01*
X30479Y156909D01*
X31049Y156167D01*
X31791Y155597D01*
X32630Y155250D01*
X32630Y154750D01*
X31791Y154402D01*
X31049Y153833D01*
X30479Y153091D01*
X30121Y152227D01*
X29999Y151299D01*
X30121Y150372D01*
X30479Y149507D01*
X31049Y148765D01*
X31791Y148196D01*
X32655Y147838D01*
X33583Y147716D01*
X34510Y147838D01*
X35374Y148196D01*
X36116Y148765D01*
X36686Y149507D01*
X37044Y150372D01*
X37166Y151299D01*
X37044Y152227D01*
X36686Y153091D01*
X36116Y153833D01*
X35374Y154402D01*
X34536Y154750D01*
X34536Y155250D01*
X35374Y155597D01*
X36116Y156167D01*
X36686Y156909D01*
X37044Y157773D01*
X37166Y158701D01*
X37044Y159628D01*
X36686Y160493D01*
X36116Y161235D01*
X35374Y161804D01*
X34510Y162162D01*
X33583Y162284D01*
D02*
G37*
G36*
X23583D02*
X22655Y162162D01*
X21791Y161804D01*
X21049Y161235D01*
X20479Y160493D01*
X20121Y159628D01*
X19999Y158701D01*
X20121Y157773D01*
X20479Y156909D01*
X21049Y156167D01*
X21791Y155597D01*
X22630Y155250D01*
X22630Y154750D01*
X21791Y154402D01*
X21049Y153833D01*
X20479Y153091D01*
X20121Y152227D01*
X19999Y151299D01*
X20121Y150372D01*
X20479Y149507D01*
X21049Y148765D01*
X21791Y148196D01*
X22655Y147838D01*
X23583Y147716D01*
X24510Y147838D01*
X25374Y148196D01*
X26116Y148765D01*
X26686Y149507D01*
X27044Y150372D01*
X27166Y151299D01*
X27044Y152227D01*
X26686Y153091D01*
X26116Y153833D01*
X25374Y154402D01*
X24535Y154750D01*
X24535Y155250D01*
X25374Y155597D01*
X26116Y156167D01*
X26686Y156909D01*
X27044Y157773D01*
X27166Y158701D01*
X27044Y159628D01*
X26686Y160493D01*
X26116Y161235D01*
X25374Y161804D01*
X24510Y162162D01*
X23583Y162284D01*
D02*
G37*
G36*
X234223Y170465D02*
X232784D01*
Y169025D01*
X233064Y169081D01*
X233725Y169523D01*
X234167Y170184D01*
X234223Y170465D01*
D02*
G37*
G36*
X20761Y247803D02*
X20481Y247747D01*
X19819Y247305D01*
X19377Y246643D01*
X19322Y246363D01*
X20761D01*
Y247803D01*
D02*
G37*
G36*
X275197Y252245D02*
X274269Y252123D01*
X273405Y251765D01*
X272663Y251195D01*
X272094Y250453D01*
X271736Y249589D01*
X271613Y248661D01*
X271736Y247734D01*
X272094Y246870D01*
X272663Y246128D01*
X273405Y245558D01*
X274269Y245200D01*
X275197Y245078D01*
X276124Y245200D01*
X276989Y245558D01*
X277731Y246128D01*
X278300Y246870D01*
X278658Y247734D01*
X278780Y248661D01*
X278658Y249589D01*
X278300Y250453D01*
X277731Y251195D01*
X276989Y251765D01*
X276124Y252123D01*
X275197Y252245D01*
D02*
G37*
G36*
X255019D02*
X254091Y252123D01*
X253227Y251765D01*
X252485Y251195D01*
X251915Y250453D01*
X251557Y249589D01*
X251435Y248661D01*
X251557Y247734D01*
X251915Y246870D01*
X252485Y246128D01*
X253227Y245558D01*
X254091Y245200D01*
X255019Y245078D01*
X255946Y245200D01*
X256810Y245558D01*
X257553Y246128D01*
X258122Y246870D01*
X258480Y247734D01*
X258602Y248661D01*
X258480Y249589D01*
X258122Y250453D01*
X257553Y251195D01*
X256810Y251765D01*
X255946Y252123D01*
X255019Y252245D01*
D02*
G37*
G36*
X185031Y251476D02*
X184290Y251328D01*
X183662Y250909D01*
X183242Y250280D01*
X183095Y249539D01*
X183242Y248798D01*
X183662Y248170D01*
X184290Y247750D01*
X185031Y247603D01*
X185773Y247750D01*
X186401Y248170D01*
X186820Y248798D01*
X186968Y249539D01*
X186820Y250280D01*
X186401Y250909D01*
X185773Y251328D01*
X185031Y251476D01*
D02*
G37*
G36*
X180307D02*
X179566Y251328D01*
X178938Y250909D01*
X178518Y250280D01*
X178371Y249539D01*
X178518Y248798D01*
X178938Y248170D01*
X179566Y247750D01*
X180307Y247603D01*
X181048Y247750D01*
X181676Y248170D01*
X182096Y248798D01*
X182244Y249539D01*
X182096Y250280D01*
X181676Y250909D01*
X181048Y251328D01*
X180307Y251476D01*
D02*
G37*
G36*
X21761Y247803D02*
Y246363D01*
X23201D01*
X23145Y246643D01*
X22703Y247305D01*
X22042Y247747D01*
X21761Y247803D01*
D02*
G37*
G36*
X187531Y238979D02*
Y237539D01*
X188971D01*
X188916Y237820D01*
X188473Y238481D01*
X187812Y238923D01*
X187531Y238979D01*
D02*
G37*
G36*
X186531D02*
X186251Y238923D01*
X185590Y238481D01*
X185148Y237820D01*
X185092Y237539D01*
X186531D01*
Y238979D01*
D02*
G37*
G36*
X188971Y236539D02*
X187531D01*
Y235100D01*
X187812Y235155D01*
X188473Y235597D01*
X188916Y236259D01*
X188971Y236539D01*
D02*
G37*
G36*
X234840Y252245D02*
X233913Y252123D01*
X233049Y251765D01*
X232307Y251195D01*
X231737Y250453D01*
X231379Y249589D01*
X231257Y248661D01*
X231379Y247734D01*
X231737Y246870D01*
X232307Y246128D01*
X233049Y245558D01*
X233913Y245200D01*
X234840Y245078D01*
X235768Y245200D01*
X236632Y245558D01*
X237374Y246128D01*
X237944Y246870D01*
X238302Y247734D01*
X238424Y248661D01*
X238302Y249589D01*
X237944Y250453D01*
X237374Y251195D01*
X236632Y251765D01*
X235768Y252123D01*
X234840Y252245D01*
D02*
G37*
G36*
X23201Y245363D02*
X21761D01*
Y243923D01*
X22042Y243979D01*
X22703Y244421D01*
X23145Y245083D01*
X23201Y245363D01*
D02*
G37*
G36*
X20761D02*
X19322D01*
X19377Y245083D01*
X19819Y244421D01*
X20481Y243979D01*
X20761Y243923D01*
Y245363D01*
D02*
G37*
G36*
X189756Y251476D02*
X189015Y251328D01*
X188387Y250909D01*
X187967Y250280D01*
X187820Y249539D01*
X187967Y248798D01*
X188387Y248170D01*
X189015Y247750D01*
X189756Y247603D01*
X190497Y247750D01*
X191125Y248170D01*
X191545Y248798D01*
X191692Y249539D01*
X191545Y250280D01*
X191125Y250909D01*
X190497Y251328D01*
X189756Y251476D01*
D02*
G37*
G36*
X192232Y268967D02*
Y267528D01*
X193672D01*
X193616Y267808D01*
X193174Y268470D01*
X192513Y268912D01*
X192232Y268967D01*
D02*
G37*
G36*
X191232D02*
X190952Y268912D01*
X190290Y268470D01*
X189848Y267808D01*
X189793Y267528D01*
X191232D01*
Y268967D01*
D02*
G37*
G36*
X145669Y269053D02*
X145045Y268928D01*
X144516Y268575D01*
X144162Y268046D01*
X144044Y267454D01*
X143931Y267400D01*
X143466Y267307D01*
X143353Y267368D01*
X143364Y267421D01*
X143239Y268046D01*
X142886Y268575D01*
X142357Y268928D01*
X141732Y269053D01*
X141108Y268928D01*
X140579Y268575D01*
X140557Y268543D01*
X118110D01*
X118110Y268543D01*
X117681Y268457D01*
X117317Y268214D01*
X117317Y268214D01*
X95270Y246167D01*
X95027Y245803D01*
X94941Y245374D01*
X94941Y245374D01*
Y157256D01*
X90589Y152903D01*
X90551Y152911D01*
X89927Y152787D01*
X89398Y152433D01*
X89044Y151904D01*
X88920Y151279D01*
X89044Y150655D01*
X89398Y150126D01*
X89927Y149772D01*
X90551Y149648D01*
X91176Y149772D01*
X91705Y150126D01*
X92058Y150655D01*
X92182Y151279D01*
X92175Y151317D01*
X96856Y155998D01*
X96856Y155998D01*
X97099Y156362D01*
X97185Y156791D01*
X97184Y156791D01*
Y244910D01*
X118575Y266300D01*
X140557D01*
X140579Y266268D01*
X141108Y265914D01*
X141732Y265790D01*
X141786Y265801D01*
X142022Y265360D01*
X141268Y264606D01*
X118898D01*
X118898Y264606D01*
X118468Y264520D01*
X118105Y264277D01*
X118105Y264277D01*
X99601Y245773D01*
X99357Y245409D01*
X99272Y244980D01*
X99272Y244980D01*
Y152454D01*
X99240Y152433D01*
X98887Y151904D01*
X98762Y151279D01*
X98887Y150655D01*
X99240Y150126D01*
X99769Y149772D01*
X100394Y149648D01*
X101018Y149772D01*
X101547Y150126D01*
X101901Y150655D01*
X102025Y151279D01*
X101901Y151904D01*
X101547Y152433D01*
X101515Y152454D01*
Y244516D01*
X119362Y262363D01*
X141732D01*
X141732Y262363D01*
X142162Y262448D01*
X142525Y262691D01*
X145632Y265797D01*
X145669Y265790D01*
X146294Y265914D01*
X146823Y266268D01*
X147177Y266797D01*
X147301Y267421D01*
X147177Y268046D01*
X146823Y268575D01*
X146294Y268928D01*
X145669Y269053D01*
D02*
G37*
G36*
X422539Y284391D02*
X421264Y284266D01*
X420038Y283894D01*
X418908Y283290D01*
X417917Y282477D01*
X417104Y281486D01*
X416500Y280356D01*
X416128Y279130D01*
X416002Y277854D01*
X416128Y276579D01*
X416500Y275353D01*
X417104Y274223D01*
X417917Y273232D01*
X418908Y272419D01*
X420038Y271815D01*
X421264Y271443D01*
X422539Y271317D01*
X423815Y271443D01*
X425041Y271815D01*
X426171Y272419D01*
X427162Y273232D01*
X427975Y274223D01*
X428579Y275353D01*
X428951Y276579D01*
X429076Y277854D01*
X428951Y279130D01*
X428579Y280356D01*
X427975Y281486D01*
X427162Y282477D01*
X426171Y283290D01*
X425041Y283894D01*
X423815Y284266D01*
X422539Y284391D01*
D02*
G37*
G36*
X311417Y270923D02*
X310793Y270798D01*
X310264Y270445D01*
X309910Y269916D01*
X309786Y269291D01*
X309910Y268667D01*
X310264Y268138D01*
X310793Y267784D01*
X311417Y267660D01*
X312042Y267784D01*
X312571Y268138D01*
X312925Y268667D01*
X313049Y269291D01*
X312925Y269916D01*
X312571Y270445D01*
X312042Y270798D01*
X311417Y270923D01*
D02*
G37*
G36*
X197925Y268967D02*
X197645Y268912D01*
X196983Y268470D01*
X196541Y267808D01*
X196485Y267528D01*
X197925D01*
Y268967D01*
D02*
G37*
G36*
X255019Y262245D02*
X254091Y262123D01*
X253227Y261765D01*
X252485Y261195D01*
X251915Y260453D01*
X251557Y259589D01*
X251435Y258661D01*
X251557Y257734D01*
X251915Y256870D01*
X252485Y256128D01*
X253227Y255558D01*
X254091Y255200D01*
X255019Y255078D01*
X255946Y255200D01*
X256810Y255558D01*
X257553Y256128D01*
X258122Y256870D01*
X258480Y257734D01*
X258602Y258661D01*
X258480Y259589D01*
X258122Y260453D01*
X257553Y261195D01*
X256810Y261765D01*
X255946Y262123D01*
X255019Y262245D01*
D02*
G37*
G36*
X234840D02*
X233913Y262123D01*
X233049Y261765D01*
X232307Y261195D01*
X231737Y260453D01*
X231379Y259589D01*
X231257Y258661D01*
X231379Y257734D01*
X231737Y256870D01*
X232307Y256128D01*
X233049Y255558D01*
X233913Y255200D01*
X234840Y255078D01*
X235768Y255200D01*
X236632Y255558D01*
X237374Y256128D01*
X237944Y256870D01*
X238302Y257734D01*
X238424Y258661D01*
X238302Y259589D01*
X237944Y260453D01*
X237374Y261195D01*
X236632Y261765D01*
X235768Y262123D01*
X234840Y262245D01*
D02*
G37*
G36*
X311417Y257931D02*
X310793Y257806D01*
X310264Y257453D01*
X309910Y256924D01*
X309786Y256299D01*
X309910Y255675D01*
X310264Y255146D01*
X310793Y254792D01*
X311417Y254668D01*
X312042Y254792D01*
X312571Y255146D01*
X312925Y255675D01*
X313049Y256299D01*
X312925Y256924D01*
X312571Y257453D01*
X312042Y257806D01*
X311417Y257931D01*
D02*
G37*
G36*
Y264230D02*
X310793Y264106D01*
X310264Y263752D01*
X309910Y263223D01*
X309786Y262598D01*
X309910Y261974D01*
X310264Y261445D01*
X310793Y261091D01*
X311417Y260967D01*
X312042Y261091D01*
X312571Y261445D01*
X312925Y261974D01*
X313049Y262598D01*
X312925Y263223D01*
X312571Y263752D01*
X312042Y264106D01*
X311417Y264230D01*
D02*
G37*
G36*
X171260Y271021D02*
X170635Y270897D01*
X170106Y270543D01*
X169753Y270014D01*
X169629Y269390D01*
X169753Y268765D01*
X170106Y268236D01*
X170138Y268215D01*
Y266811D01*
X170138Y266811D01*
X170224Y266382D01*
X170467Y266018D01*
X175908Y260577D01*
X175900Y260539D01*
X176024Y259915D01*
X176378Y259386D01*
X176907Y259032D01*
X177532Y258908D01*
X178156Y259032D01*
X178685Y259386D01*
X179039Y259915D01*
X179163Y260539D01*
X179039Y261164D01*
X178685Y261693D01*
X178156Y262047D01*
X177532Y262171D01*
X177494Y262163D01*
X172381Y267276D01*
Y268215D01*
X172413Y268236D01*
X172767Y268765D01*
X172891Y269390D01*
X172767Y270014D01*
X172413Y270543D01*
X171884Y270897D01*
X171260Y271021D01*
D02*
G37*
G36*
X275197Y262245D02*
X274269Y262123D01*
X273405Y261765D01*
X272663Y261195D01*
X272094Y260453D01*
X271736Y259589D01*
X271613Y258661D01*
X271736Y257734D01*
X272094Y256870D01*
X272663Y256128D01*
X273405Y255558D01*
X274269Y255200D01*
X275197Y255078D01*
X276124Y255200D01*
X276989Y255558D01*
X277731Y256128D01*
X278300Y256870D01*
X278658Y257734D01*
X278780Y258661D01*
X278658Y259589D01*
X278300Y260453D01*
X277731Y261195D01*
X276989Y261765D01*
X276124Y262123D01*
X275197Y262245D01*
D02*
G37*
G36*
X186531Y236539D02*
X185092D01*
X185148Y236259D01*
X185590Y235597D01*
X186251Y235155D01*
X186531Y235100D01*
Y236539D01*
D02*
G37*
G36*
X271654Y179461D02*
X270983Y179373D01*
X270358Y179114D01*
X269822Y178702D01*
X269410Y178165D01*
X269151Y177541D01*
X269063Y176870D01*
X269151Y176200D01*
X269410Y175575D01*
X269822Y175038D01*
X270358Y174627D01*
X270983Y174368D01*
X271654Y174279D01*
X272324Y174368D01*
X272949Y174627D01*
X273485Y175038D01*
X273897Y175575D01*
X274156Y176200D01*
X274244Y176870D01*
X274156Y177541D01*
X273897Y178165D01*
X273485Y178702D01*
X272949Y179114D01*
X272324Y179373D01*
X271654Y179461D01*
D02*
G37*
G36*
X121182Y174353D02*
X119743D01*
Y172913D01*
X120023Y172969D01*
X120685Y173411D01*
X121126Y174073D01*
X121182Y174353D01*
D02*
G37*
G36*
X118743D02*
X117303D01*
X117359Y174073D01*
X117801Y173411D01*
X118462Y172969D01*
X118743Y172913D01*
Y174353D01*
D02*
G37*
G36*
X271654Y187335D02*
X270983Y187247D01*
X270358Y186988D01*
X269822Y186576D01*
X269410Y186039D01*
X269151Y185415D01*
X269063Y184744D01*
X269151Y184074D01*
X269308Y183696D01*
X267337Y181725D01*
X264346D01*
X264313Y182224D01*
X264450Y182242D01*
X265075Y182501D01*
X265611Y182912D01*
X266023Y183449D01*
X266282Y184074D01*
X266370Y184744D01*
X266282Y185415D01*
X266023Y186039D01*
X265611Y186576D01*
X265075Y186988D01*
X264450Y187247D01*
X263779Y187335D01*
X263109Y187247D01*
X262484Y186988D01*
X261948Y186576D01*
X261536Y186039D01*
X261277Y185415D01*
X261189Y184744D01*
X261277Y184074D01*
X261434Y183696D01*
X229935Y152197D01*
X196850D01*
X196499Y152127D01*
X196202Y151928D01*
X183349Y139076D01*
X183071Y139131D01*
X182447Y139007D01*
X181917Y138654D01*
X181564Y138124D01*
X181439Y137500D01*
X181564Y136876D01*
X181917Y136346D01*
X182447Y135993D01*
X183071Y135869D01*
X183695Y135993D01*
X184224Y136346D01*
X184578Y136876D01*
X184702Y137500D01*
X184647Y137778D01*
X185018Y138149D01*
X185459Y137914D01*
X185377Y137500D01*
X185501Y136876D01*
X185854Y136346D01*
X186384Y135993D01*
X187008Y135869D01*
X187632Y135993D01*
X188161Y136346D01*
X188515Y136876D01*
X188639Y137500D01*
X188584Y137778D01*
X199199Y148393D01*
X231890D01*
X232241Y148463D01*
X232539Y148662D01*
X260738Y176861D01*
X261211Y176700D01*
X261277Y176200D01*
X261536Y175575D01*
X261948Y175038D01*
X262484Y174627D01*
X263109Y174368D01*
X263779Y174279D01*
X264450Y174368D01*
X265075Y174627D01*
X265611Y175038D01*
X266023Y175575D01*
X266282Y176200D01*
X266370Y176870D01*
X266282Y177541D01*
X266023Y178165D01*
X265611Y178702D01*
X265075Y179114D01*
X264450Y179373D01*
X264313Y179391D01*
X264346Y179890D01*
X267717D01*
X268068Y179959D01*
X268365Y180158D01*
X270605Y182398D01*
X270983Y182242D01*
X271654Y182153D01*
X272324Y182242D01*
X272949Y182501D01*
X273485Y182912D01*
X273897Y183449D01*
X274156Y184074D01*
X274244Y184744D01*
X274156Y185415D01*
X273897Y186039D01*
X273485Y186576D01*
X272949Y186988D01*
X272324Y187247D01*
X271654Y187335D01*
D02*
G37*
G36*
X119743Y176793D02*
Y175353D01*
X121182D01*
X121126Y175633D01*
X120685Y176295D01*
X120023Y176737D01*
X119743Y176793D01*
D02*
G37*
G36*
X118743D02*
X118462Y176737D01*
X117801Y176295D01*
X117359Y175633D01*
X117303Y175353D01*
X118743D01*
Y176793D01*
D02*
G37*
G36*
X231784Y172904D02*
X231503Y172848D01*
X230841Y172406D01*
X230399Y171745D01*
X230344Y171465D01*
X231784D01*
Y172904D01*
D02*
G37*
G36*
X155680Y170661D02*
X154240D01*
Y169222D01*
X154520Y169278D01*
X155182Y169720D01*
X155624Y170381D01*
X155680Y170661D01*
D02*
G37*
G36*
X153240D02*
X151800D01*
X151856Y170381D01*
X152298Y169720D01*
X152960Y169278D01*
X153240Y169222D01*
Y170661D01*
D02*
G37*
G36*
X154240Y173101D02*
Y171661D01*
X155680D01*
X155624Y171942D01*
X155182Y172603D01*
X154520Y173045D01*
X154240Y173101D01*
D02*
G37*
G36*
X153240D02*
X152960Y173045D01*
X152298Y172603D01*
X151856Y171942D01*
X151800Y171661D01*
X153240D01*
Y173101D01*
D02*
G37*
G36*
X232784Y172904D02*
Y171465D01*
X234223D01*
X234167Y171745D01*
X233725Y172406D01*
X233064Y172848D01*
X232784Y172904D01*
D02*
G37*
G36*
X208661Y190312D02*
X208037Y190188D01*
X207508Y189835D01*
X207154Y189305D01*
X207030Y188681D01*
X207085Y188403D01*
X204746Y186063D01*
X204305Y186299D01*
X204387Y186713D01*
X204263Y187337D01*
X203909Y187866D01*
X203380Y188220D01*
X202756Y188344D01*
X202132Y188220D01*
X201602Y187866D01*
X201249Y187337D01*
X201125Y186713D01*
X201180Y186434D01*
X180722Y165977D01*
X151955D01*
X136476Y181456D01*
X136178Y181655D01*
X135827Y181725D01*
X133201D01*
X133043Y181961D01*
X132514Y182314D01*
X131890Y182438D01*
X131265Y182314D01*
X130736Y181961D01*
X130383Y181431D01*
X130258Y180807D01*
X130383Y180183D01*
X130736Y179654D01*
X131265Y179300D01*
X131890Y179176D01*
X132514Y179300D01*
X133043Y179654D01*
X133201Y179890D01*
X135447D01*
X150926Y164410D01*
X151224Y164211D01*
X151575Y164141D01*
X181102D01*
X181454Y164211D01*
X181751Y164410D01*
X202478Y185137D01*
X202756Y185081D01*
X203169Y185163D01*
X203405Y184722D01*
X198170Y179487D01*
X197971Y179190D01*
X197901Y178839D01*
Y164402D01*
X197665Y164244D01*
X197312Y163715D01*
X197187Y163091D01*
X197312Y162466D01*
X197665Y161937D01*
X198195Y161583D01*
X198819Y161459D01*
X199443Y161583D01*
X199745Y161785D01*
X200099Y161432D01*
X200084Y161410D01*
X200029Y161130D01*
X201468D01*
Y162570D01*
X201188Y162514D01*
X200748Y162220D01*
X200332Y162498D01*
X200450Y163091D01*
X200326Y163715D01*
X199972Y164244D01*
X199736Y164402D01*
Y178458D01*
X206671Y185393D01*
X207112Y185158D01*
X207030Y184744D01*
X207085Y184466D01*
X204076Y181456D01*
X203877Y181158D01*
X203807Y180807D01*
Y167551D01*
X203571Y167394D01*
X203217Y166865D01*
X203093Y166240D01*
X203217Y165616D01*
X203571Y165087D01*
X204100Y164733D01*
X204724Y164609D01*
X205349Y164733D01*
X205878Y165087D01*
X206232Y165616D01*
X206356Y166240D01*
X206232Y166865D01*
X205878Y167394D01*
X205642Y167551D01*
Y180427D01*
X208383Y183168D01*
X208661Y183113D01*
X209286Y183237D01*
X209815Y183591D01*
X210169Y184120D01*
X210293Y184744D01*
X210169Y185368D01*
X209815Y185898D01*
X209286Y186251D01*
X208661Y186375D01*
X208248Y186293D01*
X208012Y186734D01*
X208383Y187105D01*
X208661Y187050D01*
X209286Y187174D01*
X209815Y187528D01*
X210169Y188057D01*
X210293Y188681D01*
X210169Y189305D01*
X209815Y189835D01*
X209286Y190188D01*
X208661Y190312D01*
D02*
G37*
G36*
X186508Y223614D02*
X185068D01*
X185124Y223334D01*
X185566Y222672D01*
X186228Y222230D01*
X186508Y222174D01*
Y223614D01*
D02*
G37*
G36*
X141732Y276927D02*
X141108Y276802D01*
X140579Y276449D01*
X140225Y275920D01*
X140101Y275295D01*
X140225Y274671D01*
X140579Y274142D01*
X141108Y273788D01*
X141732Y273664D01*
X142011Y273719D01*
X145020Y270709D01*
X145318Y270511D01*
X145376Y270499D01*
X145669Y270441D01*
X157100D01*
X162468Y265073D01*
Y249705D01*
X162538Y249354D01*
X162737Y249056D01*
X168642Y243150D01*
X168940Y242951D01*
X168998Y242940D01*
X169291Y242882D01*
X207888D01*
X213649Y237120D01*
Y215583D01*
X213413Y215425D01*
X213060Y214896D01*
X212936Y214272D01*
X213060Y213647D01*
X213413Y213118D01*
X213943Y212765D01*
X214567Y212640D01*
X215191Y212765D01*
X215721Y213118D01*
X216074Y213647D01*
X216198Y214272D01*
X216074Y214896D01*
X215721Y215425D01*
X215485Y215583D01*
Y237500D01*
X215415Y237851D01*
X215216Y238149D01*
X208917Y244448D01*
X208619Y244647D01*
X208268Y244717D01*
X169671D01*
X164303Y250085D01*
Y265453D01*
X164245Y265746D01*
X164234Y265804D01*
X164035Y266102D01*
X158129Y272007D01*
X157832Y272206D01*
X157480Y272276D01*
X146049D01*
X143308Y275017D01*
X143364Y275295D01*
X143239Y275920D01*
X142886Y276449D01*
X142357Y276802D01*
X141732Y276927D01*
D02*
G37*
G36*
X267717Y214598D02*
X267046Y214510D01*
X266421Y214251D01*
X265885Y213840D01*
X265473Y213303D01*
X265214Y212678D01*
X265126Y212008D01*
X265214Y211337D01*
X265473Y210713D01*
X265885Y210176D01*
X266421Y209764D01*
X267046Y209506D01*
X267717Y209417D01*
X268387Y209506D01*
X269012Y209764D01*
X269548Y210176D01*
X269960Y210713D01*
X270219Y211337D01*
X270307Y212008D01*
X270219Y212678D01*
X269960Y213303D01*
X269548Y213840D01*
X269012Y214251D01*
X268387Y214510D01*
X267717Y214598D01*
D02*
G37*
G36*
X187508Y226054D02*
Y224614D01*
X188948D01*
X188892Y224894D01*
X188450Y225556D01*
X187788Y225998D01*
X187508Y226054D01*
D02*
G37*
G36*
X186508D02*
X186228Y225998D01*
X185566Y225556D01*
X185124Y224894D01*
X185068Y224614D01*
X186508D01*
Y226054D01*
D02*
G37*
G36*
X188948Y223614D02*
X187508D01*
Y222174D01*
X187788Y222230D01*
X188450Y222672D01*
X188892Y223334D01*
X188948Y223614D01*
D02*
G37*
G36*
X271654Y195209D02*
X270983Y195121D01*
X270358Y194862D01*
X269822Y194450D01*
X269410Y193913D01*
X269151Y193289D01*
X269063Y192618D01*
X269151Y191948D01*
X269410Y191323D01*
X269822Y190786D01*
X270358Y190375D01*
X270983Y190116D01*
X271654Y190027D01*
X272324Y190116D01*
X272949Y190375D01*
X273485Y190786D01*
X273897Y191323D01*
X274156Y191948D01*
X274244Y192618D01*
X274156Y193289D01*
X273897Y193913D01*
X273485Y194450D01*
X272949Y194862D01*
X272324Y195121D01*
X271654Y195209D01*
D02*
G37*
G36*
X263779D02*
X263109Y195121D01*
X262484Y194862D01*
X261948Y194450D01*
X261536Y193913D01*
X261277Y193289D01*
X261189Y192618D01*
X261277Y191948D01*
X261536Y191323D01*
X261948Y190786D01*
X262484Y190375D01*
X263109Y190116D01*
X263779Y190027D01*
X264450Y190116D01*
X265075Y190375D01*
X265611Y190786D01*
X266023Y191323D01*
X266282Y191948D01*
X266370Y192618D01*
X266282Y193289D01*
X266023Y193913D01*
X265611Y194450D01*
X265075Y194862D01*
X264450Y195121D01*
X263779Y195209D01*
D02*
G37*
G36*
X116142Y190312D02*
X115517Y190188D01*
X114988Y189835D01*
X114635Y189305D01*
X114510Y188681D01*
X114518Y188643D01*
X109837Y183962D01*
X109594Y183598D01*
X109508Y183169D01*
X109508Y183169D01*
Y148130D01*
X109508Y148130D01*
X109594Y147701D01*
X109837Y147337D01*
X113337Y143837D01*
X113329Y143799D01*
X113453Y143175D01*
X113807Y142646D01*
X114336Y142292D01*
X114961Y142168D01*
X115585Y142292D01*
X116114Y142646D01*
X116468Y143175D01*
X116592Y143799D01*
X116468Y144423D01*
X116114Y144953D01*
X115585Y145306D01*
X114961Y145431D01*
X114923Y145423D01*
X111751Y148594D01*
Y182705D01*
X116104Y187057D01*
X116142Y187050D01*
X116766Y187174D01*
X117295Y187528D01*
X117649Y188057D01*
X117773Y188681D01*
X117649Y189305D01*
X117295Y189835D01*
X116766Y190188D01*
X116142Y190312D01*
D02*
G37*
G36*
X271654Y203083D02*
X270983Y202994D01*
X270358Y202736D01*
X269822Y202324D01*
X269410Y201787D01*
X269151Y201163D01*
X269063Y200492D01*
X269151Y199822D01*
X269410Y199197D01*
X269822Y198660D01*
X270358Y198249D01*
X270983Y197990D01*
X271654Y197901D01*
X272324Y197990D01*
X272949Y198249D01*
X273485Y198660D01*
X273897Y199197D01*
X274156Y199822D01*
X274244Y200492D01*
X274156Y201163D01*
X273897Y201787D01*
X273485Y202324D01*
X272949Y202736D01*
X272324Y202994D01*
X271654Y203083D01*
D02*
G37*
G36*
X263779D02*
X263109Y202994D01*
X262484Y202736D01*
X261948Y202324D01*
X261536Y201787D01*
X261277Y201163D01*
X261189Y200492D01*
X261277Y199822D01*
X261536Y199197D01*
X261948Y198660D01*
X262484Y198249D01*
X263109Y197990D01*
X263779Y197901D01*
X264450Y197990D01*
X265075Y198249D01*
X265611Y198660D01*
X266023Y199197D01*
X266282Y199822D01*
X266370Y200492D01*
X266282Y201163D01*
X266023Y201787D01*
X265611Y202324D01*
X265075Y202736D01*
X264450Y202994D01*
X263779Y203083D01*
D02*
G37*
G36*
X202756Y194249D02*
X202132Y194125D01*
X201602Y193772D01*
X201249Y193242D01*
X201125Y192618D01*
X201180Y192340D01*
X178754Y169914D01*
X160760D01*
X160602Y170150D01*
X160073Y170503D01*
X159449Y170627D01*
X158825Y170503D01*
X158295Y170150D01*
X157942Y169620D01*
X157817Y168996D01*
X157942Y168372D01*
X158295Y167842D01*
X158825Y167489D01*
X159449Y167365D01*
X160073Y167489D01*
X160602Y167842D01*
X160760Y168078D01*
X179134D01*
X179485Y168148D01*
X179783Y168347D01*
X202478Y191042D01*
X202756Y190987D01*
X203380Y191111D01*
X203909Y191465D01*
X204263Y191994D01*
X204387Y192618D01*
X204263Y193242D01*
X203909Y193772D01*
X203380Y194125D01*
X202756Y194249D01*
D02*
G37*
%LPD*%
D10*
X154193Y531201D02*
G03*
X151691Y537233I-8524J0D01*
G01*
X154193Y531201D02*
G03*
X151697Y537228I-8524J0D01*
G01*
X220921Y459886D02*
G03*
X220291Y458366I1520J-1520D01*
G01*
X220921Y459886D02*
G03*
X220291Y458366I1520J-1520D01*
G01*
X217885Y407185D02*
G03*
X200142Y410720I-9224J0D01*
G01*
X212196Y398665D02*
G03*
X217885Y407185I-3535J8520D01*
G01*
X220291Y344095D02*
G03*
X220041Y343761I2150J-1871D01*
G01*
X133165Y352854D02*
G03*
X128347Y354915I-2850J0D01*
G01*
X149606Y343725D02*
G03*
X162063Y348532I3937J8342D01*
G01*
X137145Y355592D02*
G03*
X149606Y343725I8524J-3525D01*
G01*
X131651Y350337D02*
G03*
X133165Y352854I-1336J2517D01*
G01*
X130567Y558358D02*
G03*
X118512Y546303I-8520J-3535D01*
G01*
X26850Y585000D02*
G03*
X26850Y585000I-11850J0D01*
G01*
X92901Y433169D02*
G03*
X92901Y433169I-2350J0D01*
G01*
X128347Y354915D02*
G03*
X126285Y355703I-1969J-2061D01*
G01*
X14161Y412697D02*
G03*
X14161Y412697I-2350J0D01*
G01*
X200481Y600098D02*
X222441Y578138D01*
X190581Y600098D02*
X222441Y568239D01*
X220280Y600098D02*
X222441Y597937D01*
X210380Y600098D02*
X222441Y588038D01*
X170782Y600098D02*
X222441Y548440D01*
Y461407D02*
Y600098D01*
X180682D02*
X222441Y558339D01*
X150983Y600098D02*
X222441Y528641D01*
X154193Y525645D02*
X222441Y593893D01*
X160883Y600098D02*
X222441Y538540D01*
X131184Y600098D02*
X222441Y508842D01*
X154193Y515746D02*
X222441Y583993D01*
X141084Y600098D02*
X222441Y518741D01*
X154193Y446449D02*
X222441Y514697D01*
X154193Y436550D02*
X222441Y504797D01*
X154193Y456349D02*
X222441Y524596D01*
X220921Y459886D02*
X222441Y461407D01*
X154193Y416751D02*
X222441Y484998D01*
X154193Y406851D02*
X222441Y475099D01*
X154193Y426650D02*
X222441Y494898D01*
X154193Y495947D02*
X222441Y564194D01*
X154193Y495947D02*
X222441Y564194D01*
X154193Y505846D02*
X222441Y574094D01*
X154193Y476148D02*
X222441Y544395D01*
X154193Y466248D02*
X222441Y534496D01*
X154193Y486047D02*
X222441Y554295D01*
X153413Y534764D02*
X218747Y600098D01*
X154193Y527592D02*
X221410Y460376D01*
X154193Y507793D02*
X220291Y441695D01*
X154193Y497894D02*
X220291Y431796D01*
X154193Y517693D02*
X220291Y451595D01*
X133988Y554937D02*
X179149Y600098D01*
X138937Y549987D02*
X189049Y600098D01*
X129462Y560310D02*
X169250Y600098D01*
X143887Y545038D02*
X198948Y600098D01*
X148837Y540088D02*
X208848Y600098D01*
X130567Y558358D02*
X151691Y537233D01*
X212439Y415600D02*
X220291Y423452D01*
X217261Y410522D02*
X220291Y413552D01*
X217575Y404813D02*
X220291Y402098D01*
X154193Y487994D02*
X220291Y421897D01*
X154193Y478095D02*
X220291Y411997D01*
X154193Y468195D02*
X206290Y416099D01*
X154193Y458296D02*
X200680Y411809D01*
X154193Y448396D02*
X196005Y406584D01*
X154193Y438497D02*
X191056Y401634D01*
X203111Y389579D02*
X220291Y372399D01*
X198161Y384630D02*
X220291Y362500D01*
X213285Y399204D02*
X220291Y392198D01*
X208060Y394529D02*
X220291Y382298D01*
Y344095D02*
Y458366D01*
X168762Y342224D02*
X220291Y393753D01*
X162063Y348532D02*
X212196Y398665D01*
X154193Y396952D02*
X222441Y465199D01*
X154193Y387052D02*
X220291Y453150D01*
X154193Y377153D02*
X220291Y443250D01*
X154193Y367253D02*
X220291Y433351D01*
X158863Y342224D02*
X220291Y403652D01*
X154193Y364772D02*
X200142Y410720D01*
X193211Y379680D02*
X220291Y352600D01*
X218260Y342224D02*
X220291Y344255D01*
X218504Y342224D02*
X220041Y343761D01*
X198461Y342224D02*
X220291Y364054D01*
X208360Y342224D02*
X220291Y354155D01*
X188561Y342224D02*
X220291Y373954D01*
X188261Y374730D02*
X219636Y343356D01*
X188261Y374730D02*
X219636Y343356D01*
X183311Y369780D02*
X210868Y342224D01*
X178662D02*
X220291Y383854D01*
X139764Y342224D02*
X218504D01*
X178362Y364831D02*
X200968Y342224D01*
X154193Y428597D02*
X186106Y396685D01*
X154193Y418698D02*
X181156Y391735D01*
X154193Y408798D02*
X176207Y386785D01*
X154193Y408798D02*
X176207Y386785D01*
X154193Y398899D02*
X171257Y381835D01*
X173412Y359881D02*
X191068Y342224D01*
X154193Y364772D02*
Y531201D01*
Y388999D02*
X166307Y376885D01*
X154193Y379100D02*
X161357Y371936D01*
X154193Y369200D02*
X156407Y366986D01*
X137145Y355592D02*
Y527670D01*
X132109Y355069D02*
X137145Y360105D01*
X168462Y354931D02*
X181169Y342224D01*
X163513Y349981D02*
X171270Y342224D01*
X158979Y344615D02*
X161370Y342224D01*
X150241Y343455D02*
X151471Y342224D01*
X148963D02*
X150207Y343468D01*
X134464Y347524D02*
X136731Y349791D01*
X132619Y351177D02*
X141571Y342224D01*
X139414Y342574D02*
X140970Y344130D01*
X131651Y350337D02*
X139764Y342224D01*
X123223Y563972D02*
X159350Y600098D01*
X121285D02*
X222441Y498942D01*
X81687Y600098D02*
X118463Y563322D01*
X61888Y600098D02*
X137145Y524841D01*
X101486Y600098D02*
X222441Y479143D01*
X91587Y600098D02*
X222441Y469244D01*
X111385Y600098D02*
X222441Y489043D01*
X51989Y600098D02*
X137145Y514942D01*
X0Y600098D02*
X222441D01*
X32190D02*
X137145Y495143D01*
X0Y460547D02*
X139551Y600098D01*
X0Y450648D02*
X149451Y600098D01*
X22290D02*
X137145Y485243D01*
X42089Y600098D02*
X137145Y505042D01*
X118512Y546303D02*
X137145Y527670D01*
X71788Y600098D02*
X113528Y558358D01*
X92588Y434341D02*
X137145Y478899D01*
X92588Y434341D02*
X137145Y478899D01*
X26832Y585657D02*
X137145Y475344D01*
X0Y470447D02*
X129652Y600098D01*
X24573Y578016D02*
X137145Y465444D01*
X0Y480346D02*
X119752Y600098D01*
X0Y582791D02*
X137145Y445645D01*
X0Y572891D02*
X137145Y435746D01*
X18885Y573805D02*
X137145Y455545D01*
X23654Y593095D02*
X30657Y600098D01*
X26776Y586319D02*
X40556Y600098D01*
X2491D02*
X8016Y594573D01*
X17286Y596627D02*
X20757Y600098D01*
X0Y539743D02*
X60355Y600098D01*
X0Y529844D02*
X70255Y600098D01*
X0Y549643D02*
X50456Y600098D01*
X0Y589241D02*
X10858Y600098D01*
X0Y519944D02*
X80154Y600098D01*
X0Y599140D02*
X958Y600098D01*
X0Y500145D02*
X99953Y600098D01*
X0Y490246D02*
X109853Y600098D01*
X0Y510045D02*
X90054Y600098D01*
X12391D02*
X15657Y596832D01*
X0Y592690D02*
X3805Y588885D01*
X0Y569442D02*
X6905Y576346D01*
X0Y579341D02*
X3373Y582714D01*
X0Y440748D02*
X112899Y553647D01*
X0Y523393D02*
X88734Y434659D01*
X0Y559542D02*
X13681Y573224D01*
X0Y553092D02*
X137145Y415947D01*
X37702Y409154D02*
X137145Y508597D01*
X13335Y414486D02*
X131833Y532983D01*
X47601Y409154D02*
X137145Y498698D01*
X0Y543192D02*
X137145Y406047D01*
X27802Y409154D02*
X137145Y518497D01*
X17903Y409154D02*
X136782Y528033D01*
X0Y562991D02*
X137145Y425846D01*
X0Y533293D02*
X137145Y396148D01*
X0Y562992D02*
X137145Y425846D01*
X0Y503594D02*
X137145Y366449D01*
X0Y493695D02*
X137145Y356550D01*
X0Y513494D02*
X137145Y376349D01*
X104766Y377223D02*
X137145Y409602D01*
X109715Y372273D02*
X137145Y399703D01*
X94866Y387122D02*
X137145Y429401D01*
X99816Y382172D02*
X137145Y419502D01*
X119615Y362373D02*
X137145Y379904D01*
X124565Y357424D02*
X137145Y370004D01*
X114665Y367323D02*
X137145Y389803D01*
X75067Y406921D02*
X137145Y468999D01*
X80017Y401971D02*
X137145Y459100D01*
X57501Y409154D02*
X137145Y488798D01*
X89916Y392072D02*
X137145Y439301D01*
X92041Y431352D02*
X137145Y386248D01*
X84967Y397022D02*
X137145Y449200D01*
X0Y420949D02*
X121933Y542882D01*
X0Y411050D02*
X126883Y537932D01*
X67400Y409154D02*
X89379Y431133D01*
X0Y483795D02*
X128637Y355158D01*
X67400Y409154D02*
X89379Y431133D01*
X0Y409154D02*
Y600098D01*
Y430849D02*
X116560Y547409D01*
X0Y444198D02*
X35044Y409154D01*
X0Y434298D02*
X25144Y409154D01*
X0Y473896D02*
X64742Y409154D01*
X0Y463997D02*
X54843Y409154D01*
X0Y454097D02*
X44943Y409154D01*
X72835D02*
X126285Y355703D01*
X13417Y410981D02*
X15245Y409154D01*
X0Y424399D02*
X10096Y414303D01*
X8003Y409154D02*
X10022Y411173D01*
X0Y409154D02*
X72835D01*
X0Y414499D02*
X5345Y409154D01*
D60*
X566929Y117815D02*
D03*
Y109941D02*
D03*
Y94193D02*
D03*
Y102067D02*
D03*
X582677Y117815D02*
D03*
X590551D02*
D03*
X574803Y102067D02*
D03*
Y94193D02*
D03*
Y109941D02*
D03*
Y117815D02*
D03*
X590551Y109941D02*
D03*
Y102067D02*
D03*
Y94193D02*
D03*
X582677D02*
D03*
Y102067D02*
D03*
Y109941D02*
D03*
X263779Y200492D02*
D03*
Y192618D02*
D03*
Y176870D02*
D03*
Y184744D02*
D03*
Y168996D02*
D03*
X271654D02*
D03*
Y184744D02*
D03*
Y176870D02*
D03*
Y192618D02*
D03*
Y200492D02*
D03*
Y161122D02*
D03*
Y153248D02*
D03*
Y137500D02*
D03*
Y145374D02*
D03*
Y129626D02*
D03*
X263779D02*
D03*
Y145374D02*
D03*
Y137500D02*
D03*
Y153248D02*
D03*
Y161122D02*
D03*
X267717Y212008D02*
D03*
Y118110D02*
D03*
X35433Y94193D02*
D03*
Y102067D02*
D03*
Y117815D02*
D03*
Y109941D02*
D03*
X19685Y94193D02*
D03*
X11811D02*
D03*
X27559Y109941D02*
D03*
Y117815D02*
D03*
Y102067D02*
D03*
Y94193D02*
D03*
X11811Y102067D02*
D03*
Y109941D02*
D03*
Y117815D02*
D03*
X19685D02*
D03*
Y109941D02*
D03*
Y102067D02*
D03*
D66*
X90551Y433169D02*
Y435169D01*
X88551Y433169D02*
X90551D01*
X92551D01*
X90551Y431169D02*
Y433169D01*
X11811Y412697D02*
Y414697D01*
Y412697D02*
X13811D01*
X11811Y410697D02*
Y412697D01*
X9811D02*
X11811D01*
X77953Y202461D02*
X82677D01*
X92520Y212303D01*
Y247736D01*
X116142Y271358D01*
X58661Y107972D02*
X68504Y98130D01*
X98425D01*
X149606Y306791D02*
Y316634D01*
X136221Y271358D02*
X138189Y273327D01*
X116142Y271358D02*
X136221D01*
X110630Y183169D02*
X116142Y188681D01*
X110630Y148130D02*
Y183169D01*
Y148130D02*
X114961Y143799D01*
X57087Y154429D02*
X62992Y148524D01*
Y120106D02*
Y148524D01*
Y120106D02*
X67012Y116086D01*
X72602Y109070D02*
Y118047D01*
X66929Y123721D02*
X72602Y118047D01*
X66929Y123721D02*
Y159153D01*
X171260Y266811D02*
X177532Y260539D01*
X171260Y266811D02*
Y269390D01*
X145669Y306791D02*
Y316634D01*
X141732Y263484D02*
X145669Y267421D01*
X118110D02*
X141732D01*
X96063Y245374D02*
X118110Y267421D01*
X96063Y156791D02*
Y245374D01*
X118898Y263484D02*
X141732D01*
X100394Y244980D02*
X118898Y263484D01*
X100394Y151279D02*
Y244980D01*
X90551Y151279D02*
X96063Y156791D01*
X138189Y273327D02*
Y284350D01*
X142913Y289075D01*
X149606D01*
D67*
X112686Y292643D02*
X113386Y293343D01*
X107605Y292643D02*
X112686D01*
X85408Y216609D02*
Y270446D01*
X107605Y292643D01*
X77953Y209154D02*
X85408Y216609D01*
X108268Y291043D02*
X112686D01*
X113386Y290343D01*
X87008Y215946D02*
Y269783D01*
X108268Y291043D01*
X78615Y207554D02*
X87008Y215946D01*
X363805Y46468D02*
X364505Y45768D01*
X361505D02*
X362205Y46468D01*
X78740Y357972D02*
X104331Y332382D01*
X84646Y356004D02*
X98425Y342224D01*
X145669Y271358D02*
X157480D01*
X159449Y168996D02*
X179134D01*
X202756Y192618D01*
X141732Y275295D02*
X145669Y271358D01*
X220472Y218209D02*
Y287106D01*
X210630Y296949D02*
X220472Y287106D01*
X222441Y214272D02*
Y289075D01*
X212598Y298917D02*
X222441Y289075D01*
X224410Y218209D02*
Y291043D01*
X214567Y300886D02*
X224410Y291043D01*
X198819Y178839D02*
X208661Y188681D01*
X198819Y163091D02*
Y178839D01*
X204724Y180807D02*
X208661Y184744D01*
X204724Y166240D02*
Y180807D01*
X226378Y214272D02*
Y293012D01*
X216535Y302854D02*
X226378Y293012D01*
X135827Y304823D02*
X139764Y300886D01*
X112205Y304823D02*
X135827D01*
X133858Y302854D02*
X137795Y298917D01*
X108268Y302854D02*
X133858D01*
X131890Y300886D02*
X135827Y296949D01*
X112205Y300886D02*
X131890D01*
X379921Y117815D02*
X525591D01*
X352362Y145374D02*
X379921Y117815D01*
X379921Y113878D02*
X525591D01*
X352362Y141437D02*
X379921Y113878D01*
X377953Y102067D02*
X525591D01*
X352362Y127657D02*
X377953Y102067D01*
Y98130D02*
X525591D01*
X352362Y123721D02*
X377953Y98130D01*
X51181Y74508D02*
X124016D01*
X51181Y78445D02*
X124016D01*
X55118Y86319D02*
X124016D01*
X55118Y90256D02*
X124016D01*
X268667Y60128D02*
X285411Y43384D01*
X187008Y137500D02*
X198819Y149311D01*
X183071Y137500D02*
X196850Y151279D01*
X236221Y141437D02*
X263779Y168996D01*
X200787Y141437D02*
X236221D01*
X230315Y151279D02*
X263779Y184744D01*
X196850Y151279D02*
X230315D01*
X198819Y149311D02*
X231890D01*
X263386Y180807D01*
X267717D01*
X271654Y184744D01*
X196850Y139469D02*
X237008D01*
X262598Y165059D01*
X267717D01*
X271654Y168996D01*
X303150Y237500D02*
X320669Y255020D01*
X303150Y157185D02*
Y237500D01*
X297244Y157185D02*
Y285138D01*
X291339Y157185D02*
Y285138D01*
X222441Y342224D02*
Y458366D01*
X232283Y468209D01*
X320669Y255020D02*
Y285728D01*
X299902Y468209D02*
X318687Y486994D01*
X232283Y468209D02*
X299902D01*
X11811Y285138D02*
X49213Y322539D01*
X78740D01*
X51181Y320571D02*
X82677D01*
X27553Y296943D02*
X51181Y320571D01*
X27553Y287101D02*
Y296943D01*
X42313Y300324D02*
X50748Y308760D01*
X82677D01*
X145669Y352067D02*
Y531201D01*
X122047Y554823D02*
X145669Y531201D01*
X153543Y352067D02*
X208661Y407185D01*
X135827Y296949D02*
X210630D01*
X137795Y298917D02*
X212598D01*
X139764Y300886D02*
X214567D01*
X141732Y302854D02*
X216535D01*
X108268Y306791D02*
X137795D01*
X141732Y302854D01*
X112205Y308760D02*
X139764D01*
X141732Y306791D01*
X61181Y344193D02*
X76772D01*
X112205Y308760D01*
X110236Y326476D02*
X127953D01*
X106299Y328445D02*
X131890D01*
X110236Y330413D02*
X135827D01*
X145669D02*
X210630D01*
X104331Y332382D02*
X139764D01*
X151575D02*
X165354D01*
X149606Y334350D02*
X151575Y332382D01*
X214567Y214272D02*
Y237500D01*
X157480Y271358D02*
X163386Y265453D01*
Y249705D02*
Y265453D01*
Y249705D02*
X169291Y243799D01*
X208268D01*
X214567Y237500D01*
X279921Y326476D02*
X320669Y285728D01*
X137795Y326476D02*
X210630D01*
X244094D02*
X279921D01*
X141732Y328445D02*
X214567D01*
X106299Y324508D02*
X131890D01*
X141732D02*
X206693D01*
X248031D02*
X277559D01*
X316929Y285138D01*
Y255610D02*
Y285138D01*
X301181Y239862D02*
X316929Y255610D01*
X301181Y147343D02*
Y239862D01*
X240158Y328445D02*
X273819D01*
X318588Y373214D01*
X320669D01*
X318687Y486994D02*
X320669D01*
X165354Y293012D02*
X210630D01*
X218504Y285138D01*
Y214272D02*
Y285138D01*
X181102Y165059D02*
X202756Y186713D01*
X151575Y165059D02*
X181102D01*
X135827Y180807D02*
X151575Y165059D01*
X131890Y180807D02*
X135827D01*
X70472Y210728D02*
X70866D01*
X72441Y209154D01*
X77953D01*
X70472Y206004D02*
X70866D01*
X72416Y207554D01*
X78615D01*
X113386Y293343D02*
X113386Y293343D01*
X113386Y293343D02*
Y294193D01*
Y290343D02*
X113386Y290343D01*
X113386Y289469D02*
Y290343D01*
X360630Y96161D02*
Y98130D01*
Y96161D02*
X362205Y94587D01*
Y46468D02*
Y94587D01*
X363805Y46468D02*
Y94612D01*
X365354Y96161D01*
Y98130D01*
X364505Y45768D02*
X365748D01*
X359842D02*
X361505D01*
X365748D02*
X366142D01*
X0Y0D02*
X620000D01*
X0D02*
Y600000D01*
X620000D01*
Y0D02*
Y600000D01*
D74*
X61181Y367815D02*
D03*
X51181D02*
D03*
X41181D02*
D03*
X61181Y344193D02*
D03*
X51181D02*
D03*
X41181D02*
D03*
X61181Y391437D02*
D03*
X51181Y391437D02*
D03*
X41181Y391437D02*
D03*
X9200Y343200D02*
D03*
Y353200D02*
D03*
Y363200D02*
D03*
Y373200D02*
D03*
X9200Y383200D02*
D03*
X9200Y393200D02*
D03*
D75*
X568780Y131634D02*
D03*
X578780D02*
D03*
X588779D02*
D03*
X568780Y139035D02*
D03*
X578780D02*
D03*
X588779D02*
D03*
Y158701D02*
D03*
X568780Y53307D02*
D03*
X578780Y158701D02*
D03*
X568780D02*
D03*
X578780Y53307D02*
D03*
X588779D02*
D03*
Y151299D02*
D03*
X578780D02*
D03*
X568780D02*
D03*
X588779Y60709D02*
D03*
X578780D02*
D03*
X568780D02*
D03*
Y80374D02*
D03*
X578780D02*
D03*
X588779D02*
D03*
Y72972D02*
D03*
X578780D02*
D03*
X568780D02*
D03*
X275197Y258661D02*
D03*
Y248661D02*
D03*
Y372342D02*
D03*
Y362343D02*
D03*
X255019Y486024D02*
D03*
Y476024D02*
D03*
Y258661D02*
D03*
Y248661D02*
D03*
Y372342D02*
D03*
Y362343D02*
D03*
X234840Y486024D02*
D03*
Y476024D02*
D03*
Y258661D02*
D03*
Y248661D02*
D03*
Y372342D02*
D03*
Y362343D02*
D03*
X469728Y549047D02*
D03*
X459728D02*
D03*
X469335Y322078D02*
D03*
X459335D02*
D03*
X468935Y434572D02*
D03*
X458935D02*
D03*
X275197Y486024D02*
D03*
Y476024D02*
D03*
X33583Y80374D02*
D03*
X23583D02*
D03*
X13583D02*
D03*
X33583Y72972D02*
D03*
X23583D02*
D03*
X13583D02*
D03*
Y53307D02*
D03*
X33583Y158701D02*
D03*
X23583Y53307D02*
D03*
X33583D02*
D03*
X23583Y158701D02*
D03*
X13583D02*
D03*
Y60709D02*
D03*
X23583D02*
D03*
X33583D02*
D03*
X13583Y151299D02*
D03*
X23583D02*
D03*
X33583D02*
D03*
Y131634D02*
D03*
X23583D02*
D03*
X13583D02*
D03*
Y139035D02*
D03*
X23583D02*
D03*
X33583D02*
D03*
D76*
X422539Y277854D02*
D03*
Y297539D02*
D03*
X422933Y391142D02*
D03*
Y410827D02*
D03*
Y504823D02*
D03*
Y524508D02*
D03*
D77*
X605000Y585000D02*
D03*
X15000Y15000D02*
D03*
Y585000D02*
D03*
X605000Y15000D02*
D03*
D78*
X298819Y8760D02*
D03*
X272047D02*
D03*
D79*
X141732Y306791D02*
D03*
X78740Y357972D02*
D03*
X165354Y332382D02*
D03*
X84646Y356004D02*
D03*
X98425Y342224D02*
D03*
X58661Y107972D02*
D03*
X98425Y98130D02*
D03*
X149606Y316634D02*
D03*
Y306791D02*
D03*
Y289075D02*
D03*
X77953Y202461D02*
D03*
X153740Y171161D02*
D03*
X116142Y188681D02*
D03*
X114961Y143799D02*
D03*
X57087Y154429D02*
D03*
X66929Y159153D02*
D03*
X171260Y269390D02*
D03*
X175197Y161122D02*
D03*
Y147539D02*
D03*
X201969Y160630D02*
D03*
X159449Y168996D02*
D03*
X202756Y192618D02*
D03*
X214567Y214272D02*
D03*
X141732Y275295D02*
D03*
X220472Y218209D02*
D03*
X208661Y188681D02*
D03*
X198819Y163091D02*
D03*
X208661Y184744D02*
D03*
X204724Y166240D02*
D03*
X222441Y214272D02*
D03*
X224410Y218209D02*
D03*
X226378Y214272D02*
D03*
X112205Y304823D02*
D03*
X108268Y302854D02*
D03*
Y306791D02*
D03*
X112205Y300886D02*
D03*
X297244Y58760D02*
D03*
X293307D02*
D03*
X289370D02*
D03*
X285433D02*
D03*
X145669Y306791D02*
D03*
Y316634D02*
D03*
Y267421D02*
D03*
X141732D02*
D03*
X100394Y151279D02*
D03*
X55118Y86319D02*
D03*
Y90256D02*
D03*
X51181Y74508D02*
D03*
X51181Y78445D02*
D03*
X124016Y74508D02*
D03*
Y78445D02*
D03*
Y86319D02*
D03*
Y90256D02*
D03*
X295276Y27264D02*
D03*
X285411Y43384D02*
D03*
X268667Y60128D02*
D03*
X103858Y50886D02*
D03*
X108858D02*
D03*
X113858D02*
D03*
X118858D02*
D03*
X123858D02*
D03*
X128858D02*
D03*
X133858D02*
D03*
X103858Y45886D02*
D03*
X108858D02*
D03*
X113858D02*
D03*
X118858D02*
D03*
X123858D02*
D03*
X128858D02*
D03*
X133858D02*
D03*
X103858Y40886D02*
D03*
X108858D02*
D03*
X113858D02*
D03*
X118858D02*
D03*
X123858D02*
D03*
X128858D02*
D03*
X133858D02*
D03*
X183071Y137500D02*
D03*
X187008D02*
D03*
X196850Y139469D02*
D03*
X200787Y141437D02*
D03*
X525591Y98130D02*
D03*
Y102067D02*
D03*
X352362Y123721D02*
D03*
Y127657D02*
D03*
X525591Y113878D02*
D03*
Y117815D02*
D03*
X352362Y141437D02*
D03*
X352362Y145374D02*
D03*
X303150Y157185D02*
D03*
X297244Y285138D02*
D03*
Y157185D02*
D03*
X222441Y342224D02*
D03*
X291339Y285138D02*
D03*
Y157185D02*
D03*
X165354Y336319D02*
D03*
X110236Y326476D02*
D03*
X106299Y328445D02*
D03*
X110236Y330413D02*
D03*
X11811Y285138D02*
D03*
X78740Y322539D02*
D03*
X82677Y320571D02*
D03*
X27553Y287101D02*
D03*
X104331Y276083D02*
D03*
X82677Y308760D02*
D03*
X42313Y300324D02*
D03*
X40615Y294163D02*
D03*
X311417Y269291D02*
D03*
Y256299D02*
D03*
Y262598D02*
D03*
X320669Y259533D02*
D03*
X67012Y116086D02*
D03*
X50476Y133802D02*
D03*
X72602Y109070D02*
D03*
X122047Y554823D02*
D03*
X119243Y174853D02*
D03*
X90551Y151279D02*
D03*
X187031Y237039D02*
D03*
X187008Y224114D02*
D03*
X155970Y275659D02*
D03*
X21261Y245863D02*
D03*
X151639Y275667D02*
D03*
X124517Y276167D02*
D03*
X198425Y267028D02*
D03*
X191732D02*
D03*
Y273721D02*
D03*
X198425D02*
D03*
X177532Y260539D02*
D03*
X90551Y433169D02*
D03*
X145669Y352067D02*
D03*
X153543D02*
D03*
X208661Y407185D02*
D03*
X104331Y350098D02*
D03*
X149606Y334350D02*
D03*
X139764Y332382D02*
D03*
X145669Y330413D02*
D03*
X141732Y328445D02*
D03*
X135827Y330413D02*
D03*
X131890Y328445D02*
D03*
X137795Y326476D02*
D03*
X127953D02*
D03*
X130315Y352854D02*
D03*
X126378D02*
D03*
X311417Y382972D02*
D03*
Y369980D02*
D03*
X297244Y352067D02*
D03*
X311417Y376279D02*
D03*
X232283Y170965D02*
D03*
X210630Y330413D02*
D03*
X244094Y326476D02*
D03*
X210630D02*
D03*
X240158Y328445D02*
D03*
X214567D02*
D03*
X106299Y324508D02*
D03*
X131890D02*
D03*
X141732D02*
D03*
X206693D02*
D03*
X248031D02*
D03*
X301181Y147343D02*
D03*
X320669Y373214D02*
D03*
Y486994D02*
D03*
X165354Y293012D02*
D03*
X218504Y214272D02*
D03*
X202756Y186713D02*
D03*
X131890Y180807D02*
D03*
X11811Y412697D02*
D03*
X166929Y318602D02*
D03*
X70472Y206004D02*
D03*
Y210728D02*
D03*
X113386Y294193D02*
D03*
Y289469D02*
D03*
X360630Y98130D02*
D03*
X365354D02*
D03*
X359842Y45768D02*
D03*
X366142D02*
D03*
X10630Y321358D02*
D03*
D80*
X180307Y249539D02*
D03*
X185031D02*
D03*
X189756Y249539D02*
D03*
X255478Y61998D02*
D03*
X250753D02*
D03*
X246029D02*
D03*
X255478Y66723D02*
D03*
X250753D02*
D03*
X246029D02*
D03*
X255478Y71447D02*
D03*
X250753D02*
D03*
X246029D02*
D03*
X255478Y76172D02*
D03*
X250753D02*
D03*
X246029D02*
D03*
M02*
